<svg xmlns="http://www.w3.org/2000/svg" xmlns:xlink="http://www.w3.org/1999/xlink" height="720" width="1280" viewBox="0 0 1280 720.45">
  <defs>
    <linearGradient id="linear-gradient" x1="830.57" y1="883.58" x2="449.43" y2="-163.58" gradientUnits="userSpaceOnUse">
      <stop offset="0" stop-opacity="0.3"/>
      <stop offset="0.56" stop-opacity="0"/>
      <stop offset="1" stop-color="#fff" stop-opacity="0.24"/>
    </linearGradient>
  </defs>
  <title>Asset 6</title>
  <g id="Layer_2" data-name="Layer 2">
    <g id="Layer_4" data-name="Layer 4">
      <g>
        <rect y="0.45" width="1280" height="720" style="fill: #7c7c7b"/>
        <path d="M391.08,477.25a33.18,33.18,0,0,0-31.41,22.62H240V241a33.12,33.12,0,1,0-21,0V510.38a10.5,10.5,0,0,0,10.5,10.5H359.67a33.12,33.12,0,1,0,31.41-43.62Z" style="fill: #8c8c8b"/>
        <path d="M325.83,547.25a33.18,33.18,0,0,0-31.41,22.62H170V175.78a33.12,33.12,0,1,0-21,0V580.38a10.5,10.5,0,0,0,10.5,10.5H294.42a33.12,33.12,0,1,0,31.41-43.62Z" style="fill: #8c8c8b"/>
        <path d="M260.58,617.25a33.18,33.18,0,0,0-31.41,22.62H100V110.54a33.12,33.12,0,1,0-21,0V650.38a10.5,10.5,0,0,0,10.5,10.5H229.17a33.12,33.12,0,1,0,31.41-43.62Z" style="fill: #8c8c8b"/>
        <path d="M1083.37,342.91V212.77a10.5,10.5,0,0,0-10.5-10.5H803.52a33.12,33.12,0,1,0,0,21h258.85V342.91a33.12,33.12,0,1,0,21,0Z" style="fill: #8c8c8b"/>
        <path d="M1153.37,277.66V142.77a10.5,10.5,0,0,0-10.5-10.5H738.28a33.12,33.12,0,1,0,0,21h394.09V277.66a33.12,33.12,0,1,0,21,0Z" style="fill: #8c8c8b"/>
        <path d="M1223.37,212.41V72.77a10.5,10.5,0,0,0-10.5-10.5H673a33.12,33.12,0,1,0,0,21h529.34V212.41a33.12,33.12,0,1,0,21,0Z" style="fill: #8c8c8b"/>
        <path d="M1077.53,408.44a33.18,33.18,0,0,0,31.41-22.62h119.64V644.66a33.12,33.12,0,1,0,21,0V375.31a10.5,10.5,0,0,0-10.5-10.5H1108.94a33.12,33.12,0,1,0-31.41,43.62Z" style="fill: #8c8c8b"/>
        <path d="M497.16,49.23a33.18,33.18,0,0,0,22.62,31.41V200.27H260.94a33.12,33.12,0,1,0,0,21H530.28a10.5,10.5,0,0,0,10.5-10.5V80.63a33.12,33.12,0,1,0-43.62-31.41Z" style="fill: #8c8c8b"/>
        <path d="M799.56,481.26a33.18,33.18,0,0,0,22.62,31.41V641.81H292.84a33.12,33.12,0,1,0,0,21H832.68a10.5,10.5,0,0,0,10.5-10.5V512.67a33.12,33.12,0,1,0-43.62-31.41Z" style="fill: #8c8c8b"/>
        <rect width="1280" height="720" style="fill: url(#linear-gradient)"/>
      </g>
    </g>
  </g>
</svg>
