<?xml version="1.0" encoding="UTF-8" standalone="no"?>
<svg
   xmlns:dc="http://purl.org/dc/elements/1.1/"
   xmlns:cc="http://creativecommons.org/ns#"
   xmlns:rdf="http://www.w3.org/1999/02/22-rdf-syntax-ns#"
   xmlns:svg="http://www.w3.org/2000/svg"
   xmlns="http://www.w3.org/2000/svg"
   xmlns:xlink="http://www.w3.org/1999/xlink"
   height="720"
   width="1280"
   id="svg932"
   version="1.1"
   viewBox="0 0 1280 720.00003">
  <metadata
     id="metadata936">
    <rdf:RDF>
      <cc:Work
         rdf:about="">
        <dc:format>image/svg+xml</dc:format>
        <dc:type
           rdf:resource="http://purl.org/dc/dcmitype/StillImage" />
        <dc:title>Asset 2</dc:title>
      </cc:Work>
    </rdf:RDF>
  </metadata>
  <defs
     id="defs150">
    <radialGradient
       gradientUnits="userSpaceOnUse"
       r="1240.5"
       cy="361.17999"
       cx="640.5"
       id="radial-gradient">
      <stop
         id="stop2"
         stop-color="#a15721"
         offset="0" />
      <stop
         id="stop4"
         stop-color="#5e2f15"
         offset="1" />
    </radialGradient>
    <linearGradient
       gradientUnits="userSpaceOnUse"
       y2="361.17999"
       x2="1280.5"
       y1="361.17999"
       x1="0.5"
       data-name="Gold 15"
       id="Gold_15">
      <stop
         id="stop7"
         stop-color="#69410f"
         offset="0" />
      <stop
         id="stop9"
         stop-color="#f8ad3a"
         offset="0.1" />
      <stop
         id="stop11"
         stop-color="#724612"
         offset="0.22" />
      <stop
         id="stop13"
         stop-color="#f9b54e"
         offset="0.45" />
      <stop
         id="stop15"
         stop-color="#eb9c34"
         offset="0.5" />
      <stop
         id="stop17"
         stop-color="#facd7b"
         offset="0.55" />
      <stop
         id="stop19"
         stop-color="#c28127"
         offset="0.65" />
      <stop
         id="stop21"
         stop-color="#eaa232"
         offset="0.77" />
      <stop
         id="stop23"
         stop-color="#7b4e12"
         offset="1" />
    </linearGradient>
    <linearGradient
       gradientUnits="userSpaceOnUse"
       y2="55.09"
       x2="54.830002"
       y1="1.22"
       x1="-0.51999998"
       data-name="Gold 18"
       id="Gold_18">
      <stop
         id="stop26"
         stop-color="#8f5914"
         offset="0" />
      <stop
         id="stop28"
         stop-color="#965d15"
         offset="0.05" />
      <stop
         id="stop30"
         stop-color="#a86815"
         offset="0.09" />
      <stop
         id="stop32"
         stop-color="#bb7314"
         offset="0.13" />
      <stop
         id="stop34"
         stop-color="#f4971e"
         offset="0.24" />
      <stop
         id="stop36"
         stop-color="#f4971e"
         offset="0.32" />
      <stop
         id="stop38"
         stop-color="#b06d1d"
         offset="0.44" />
      <stop
         id="stop40"
         stop-color="#b06d1d"
         offset="0.46" />
      <stop
         id="stop42"
         stop-color="#b26f1e"
         offset="0.47" />
      <stop
         id="stop44"
         stop-color="#f59e30"
         offset="0.54" />
      <stop
         id="stop46"
         stop-color="#f59e30"
         offset="0.6" />
      <stop
         id="stop48"
         stop-color="#c07921"
         offset="0.72" />
      <stop
         id="stop50"
         stop-color="#8c5517"
         offset="1" />
    </linearGradient>
    <linearGradient
       gradientUnits="userSpaceOnUse"
       y2="39.799999"
       x2="78.239998"
       y1="39.799999"
       data-name="Gold 11"
       id="Gold_11">
      <stop
         id="stop53"
         stop-color="#f9b21c"
         offset="0" />
      <stop
         id="stop55"
         stop-color="#f9e929"
         offset="0.16" />
      <stop
         id="stop57"
         stop-color="#fbb81a"
         offset="0.34" />
      <stop
         id="stop59"
         stop-color="#fbb81a"
         offset="0.4" />
      <stop
         id="stop61"
         stop-color="#fbb81a"
         offset="0.41" />
      <stop
         id="stop63"
         stop-color="#fbb918"
         offset="0.45" />
      <stop
         id="stop65"
         stop-color="#fcbc11"
         offset="0.46" />
      <stop
         id="stop67"
         stop-color="#fcbf0b"
         offset="0.47" />
      <stop
         id="stop69"
         stop-color="#fee00d"
         offset="0.5" />
      <stop
         id="stop71"
         stop-color="#fede0d"
         offset="0.53" />
      <stop
         id="stop73"
         stop-color="#fcd70c"
         offset="0.54" />
      <stop
         id="stop75"
         stop-color="#facc0b"
         offset="0.55" />
      <stop
         id="stop77"
         stop-color="#f6bb09"
         offset="0.55" />
      <stop
         id="stop79"
         stop-color="#f2a907"
         offset="0.56" />
      <stop
         id="stop81"
         stop-color="#f2a907"
         offset="0.65" />
      <stop
         id="stop83"
         stop-color="#cb8d0d"
         offset="0.71" />
      <stop
         id="stop85"
         stop-color="#a87413"
         offset="0.76" />
      <stop
         id="stop87"
         stop-color="#a77314"
         offset="0.84" />
      <stop
         id="stop89"
         stop-color="#ae7812"
         offset="0.87" />
      <stop
         id="stop91"
         stop-color="#c0860e"
         offset="0.91" />
      <stop
         id="stop93"
         stop-color="#d69609"
         offset="0.95" />
      <stop
         id="stop95"
         stop-color="#d79408"
         offset="0.99" />
      <stop
         id="stop97"
         stop-color="#d99005"
         offset="1" />
    </linearGradient>
    <linearGradient
       xlink:href="#Gold_18"
       gradientTransform="matrix(-1,0,0,1,78.24,0)"
       y2="55.09"
       x2="-1147.92"
       y1="1.22"
       x1="-1203.28"
       id="Gold_18-2" />
    <linearGradient
       xlink:href="#Gold_11"
       gradientTransform="matrix(-1,0,0,1,78.24,0)"
       y2="39.799999"
       x2="-1124.51"
       y1="39.799999"
       x1="-1202.76"
       id="Gold_11-2" />
    <linearGradient
       xlink:href="#Gold_18"
       gradientTransform="matrix(1,0,0,-1,0,79.6)"
       y2="-587.65997"
       x2="54.830002"
       y1="-641.53998"
       x1="-0.51999998"
       id="Gold_18-3" />
    <linearGradient
       xlink:href="#Gold_11"
       gradientTransform="matrix(1,0,0,-1,0,79.6)"
       y2="-602.96002"
       x2="78.239998"
       y1="-602.96002"
       id="Gold_11-3" />
    <linearGradient
       xlink:href="#Gold_18"
       gradientTransform="rotate(180,39.12,39.8)"
       y2="-587.65997"
       x2="-1147.92"
       y1="-641.53998"
       x1="-1203.28"
       id="Gold_18-4" />
    <linearGradient
       xlink:href="#Gold_11"
       gradientTransform="rotate(180,39.12,39.8)"
       y2="-602.96002"
       x2="-1124.51"
       y1="-602.96002"
       x1="-1202.76"
       id="Gold_11-4" />
    <linearGradient
       gradientUnits="userSpaceOnUse"
       y2="38.68"
       x2="31.639999"
       y1="21.82"
       x1="14.32"
       data-name="Gold 30"
       id="Gold_30">
      <stop
         id="stop106"
         stop-color="#65410f"
         offset="0" />
      <stop
         id="stop108"
         stop-color="#6d4b15"
         offset="0.02" />
      <stop
         id="stop110"
         stop-color="#ac9d44"
         offset="0.17" />
      <stop
         id="stop112"
         stop-color="#d3cf61"
         offset="0.28" />
      <stop
         id="stop114"
         stop-color="#e2e36c"
         offset="0.33" />
      <stop
         id="stop116"
         stop-color="#af7a1d"
         offset="0.66" />
      <stop
         id="stop118"
         stop-color="#65410f"
         offset="1" />
    </linearGradient>
    <linearGradient
       gradientUnits="userSpaceOnUse"
       gradientTransform="matrix(1,0,0,1.11,-0.43,-7.51)"
       y2="39.810001"
       x2="28.969999"
       y1="27.870001"
       x1="16.690001"
       data-name="Gold 17"
       id="Gold_17">
      <stop
         id="stop121"
         stop-color="#8e5714"
         offset="0" />
      <stop
         id="stop123"
         stop-color="#905a14"
         offset="0.03" />
      <stop
         id="stop125"
         stop-color="#9a6115"
         offset="0.06" />
      <stop
         id="stop127"
         stop-color="#f7a42e"
         offset="0.28" />
      <stop
         id="stop129"
         stop-color="#f7a42e"
         offset="0.43" />
      <stop
         id="stop131"
         stop-color="#b8731e"
         offset="0.58" />
      <stop
         id="stop133"
         stop-color="#ab6a1a"
         offset="0.63" />
      <stop
         id="stop135"
         stop-color="#704a14"
         offset="0.75" />
      <stop
         id="stop137"
         stop-color="#704a14"
         offset="0.84" />
      <stop
         id="stop139"
         stop-color="#815015"
         offset="0.98" />
      <stop
         id="stop141"
         stop-color="#8b5417"
         offset="1" />
    </linearGradient>
    <linearGradient
       xlink:href="#Gold_30"
       y2="702.44"
       x2="31.639999"
       y1="685.58002"
       x1="14.32"
       id="Gold_30-2" />
    <linearGradient
       xlink:href="#Gold_17"
       gradientTransform="matrix(1,0,0,1.11,359.08,98.29)"
       y2="542.65002"
       x2="-330.54999"
       y1="530.71002"
       x1="-342.82001"
       id="Gold_17-2" />
    <linearGradient
       xlink:href="#Gold_30"
       y2="38.68"
       x2="1263.64"
       y1="21.82"
       x1="1246.3199"
       id="Gold_30-3" />
    <linearGradient
       xlink:href="#Gold_17"
       gradientTransform="matrix(1,0,0,1.11,195.94,-674.81)"
       y2="641.19"
       x2="1064.6"
       y1="629.25"
       x1="1052.3199"
       id="Gold_17-3" />
    <linearGradient
       xlink:href="#Gold_30"
       y2="702.44"
       x2="1263.64"
       y1="685.58002"
       x1="1246.3199"
       id="Gold_30-4" />
    <linearGradient
       xlink:href="#Gold_17"
       gradientTransform="matrix(1,0,0,1.11,555.45,-569.01)"
       y2="1144.03"
       x2="705.08002"
       y1="1132.09"
       x1="692.81"
       id="Gold_17-4" />
    <linearGradient
       y2="55.09"
       x2="54.830002"
       y1="1.22"
       x1="-0.51999998"
       gradientUnits="userSpaceOnUse"
       id="linearGradient4608"
       xlink:href="#Gold_18" />
    <linearGradient
       y2="39.799999"
       x2="78.239998"
       y1="39.799999"
       gradientUnits="userSpaceOnUse"
       id="linearGradient4610"
       xlink:href="#Gold_11" />
    <linearGradient
       y2="38.68"
       x2="31.639999"
       y1="21.82"
       x1="14.32"
       gradientUnits="userSpaceOnUse"
       id="linearGradient4612"
       xlink:href="#Gold_30" />
    <linearGradient
       y2="39.810001"
       x2="28.969999"
       y1="27.870001"
       x1="16.690001"
       gradientTransform="matrix(1,0,0,1.11,-0.43,-7.51)"
       gradientUnits="userSpaceOnUse"
       id="linearGradient4614"
       xlink:href="#Gold_17" />
  </defs>
  <title
     id="title152">Asset 2</title>
  <g
     transform="matrix(1,0,0,1.0007689,-0.5,-1.0347879)"
     data-name="Layer 2"
     id="Layer_2">
    <g
       data-name="Layer 1"
       id="Layer_1-2">
      <path
         style="fill:url(#radial-gradient)"
         id="path154"
         d="M 1280.5,47.95 V 1.18 H 0.5 v 720 h 1280 V 62.49 a 79.1,79.1 0 0 1 0,-14.54 z" />
      <g
         id="g884">
        <path
           style="fill:#5e2f15"
           id="path156"
           d="m 844.8,353.22 c 31.37,0.12 74.92,-1.28 29.5,-2.72 -31.37,-0.11 -74.92,1.29 -29.5,2.72 z" />
        <path
           style="fill:#5e2f15"
           id="path158"
           d="m 785.79,140.79 c -116.89,1 -180.3,-6.38 -236,2.72 63.14,-0.74 314.72,2.12 236,-2.72 z" />
        <path
           style="fill:#5e2f15"
           id="path160"
           d="m 107.24,162.58 c 8.15,-0.75 -14.23,-4.13 -29.5,-2.72 -8.15,0.75 14.26,4.14 29.5,2.72 z" />
        <path
           style="fill:#5e2f15"
           id="path162"
           d="m 9.52,162.79 q 0,1.42 0,2.84 c 3.15,0 6.29,-0.07 9.19,-0.33 4.74,-0.44 -0.71,-1.75 -9.19,-2.51 z" />
        <path
           style="fill:#5e2f15"
           id="path164"
           d="m 608.78,154.41 c 16.38,0 33.49,-2.21 0,-2.73 -16.39,-0.01 -33.48,2.21 0,2.73 z" />
        <path
           style="fill:#5e2f15"
           id="path166"
           d="m 77.74,170.75 c -12.67,0 -40.19,0.37 -68.12,0.82 0,0.67 0,1.34 0,2 64.25,0.04 130.38,-0.33 68.12,-2.82 z" />
        <path
           style="fill:#5e2f15"
           id="path168"
           d="m 225.25,181.64 c 41.35,0.2 112.83,-0.61 59,-2.72 h -147.5 c -41.35,-0.2 -112.82,0.61 -59,2.72 z" />
        <path
           style="fill:#5e2f15"
           id="path170"
           d="m 608.78,127.17 c 8.17,-0.75 -14.23,-4.13 -29.5,-2.72 -8.16,0.75 14.23,4.13 29.5,2.72 z" />
        <path
           style="fill:#5e2f15"
           id="path172"
           d="m 756.29,301.48 c 204.5,-3.45 238,8.89 442.53,5.45 23,-0.6 34.3,-2.28 29.5,-5.45 -39.37,-4.54 -167.15,-0.91 -206.52,-5.45 5,5.9 -104.64,1.23 -147.51,2.71 -38.77,-0.35 -213.45,-0.4 -118,2.74 z" />
        <path
           style="fill:#5e2f15"
           id="path174"
           d="m 254.75,165.3 c 8.16,-0.76 -14.23,-4.13 -29.5,-2.72 -8.15,0.75 14.24,4.12 29.5,2.72 z" />
        <path
           style="fill:#5e2f15"
           id="path176"
           d="m 166.25,162.58 c 8.15,-0.75 -14.23,-4.13 -29.5,-2.72 -8.16,0.75 14.25,4.14 29.5,2.72 z" />
        <path
           style="fill:#5e2f15"
           id="path178"
           d="m 520.27,170.75 c -121.49,1.29 28.38,-7.33 -88.5,-8.17 -5.19,8.56 -219.69,-3.74 -118,2.72 -21.12,7.39 139.13,-1.95 118,5.45 -6.37,5.11 -268,0.33 -177,5.45 95.46,-1.2 255.16,3.58 265.5,-5.45 z" />
        <path
           style="fill:#5e2f15"
           id="path180"
           d="m 726.79,110.83 c -8.17,0.76 14.25,4.13 29.5,2.73 8.17,-0.76 -14.29,-4.14 -29.5,-2.73 z" />
        <path
           style="fill:#5e2f15"
           id="path182"
           d="M 136.75,61.8 C 92.18,61.72 46.63,61.54 7.1,61.93 c 0,1.81 0.09,3.61 0.13,5.42 29.15,0.35 53.77,1.13 70.51,2.65 -8.81,-5.38 39.85,-5.43 59.01,-8.2 z" />
        <path
           style="fill:#5e2f15"
           id="path184"
           d="M 77.74,50.91 C 60.92,50.67 34.41,50.53 6.87,50.57 q 0,1.55 0.06,3.1 c 39.19,0.52 77.29,0.94 70.81,-2.76 z" />
        <path
           style="fill:#5e2f15"
           id="path186"
           d="m 6.65,36.45 q 0,1.67 0,3.34 c 192,-1 333,-2.54 454.57,-7.94 -135.08,0.95 -325.66,2.72 -454.57,4.6 z" />
        <path
           style="fill:#5e2f15"
           id="path188"
           d="m 48.24,59.08 c 31.37,0.13 74.91,-1.27 29.5,-2.72 -31.37,-0.12 -74.91,1.28 -29.5,2.72 z" />
        <path
           style="fill:#5e2f15"
           id="path190"
           d="m 7.42,75.21 c 0,0.56 0,1.12 0,1.68 0,0.56 0,1 0,1.45 48.4,0.42 92.67,0.47 99.74,-2.92 C 69.2,76.43 35.82,75.93 7.42,75.21 Z" />
        <path
           style="fill:#5e2f15"
           id="path192"
           d="m 667.78,97.21 c 99.33,-1.72 274,3.51 324.52,-2.72 -148.12,0.3 -214.99,-4.03 -324.52,2.72 z" />
        <path
           style="fill:#5e2f15"
           id="path194"
           d="m 697.29,119 c -18,-0.15 -34.92,-0.41 -29.5,-2.72 16.38,0 33.49,-2.21 0,-2.72 5.3,10.56 -455.15,-5.09 -295,8.17 h -354 c 3,3.77 -0.7,4.93 -9.92,4.94 0,1.35 0.07,2.7 0.1,4 100.1,0.62 216.22,-2.55 98.31,-6.27 212.87,5.11 441.2,-2.51 590.01,-5.4 z" />
        <path
           style="fill:#5e2f15"
           id="path196"
           d="m 933.3,89 c -31.37,-0.11 -74.92,1.29 -29.5,2.73 31.38,0.15 74.93,-1.25 29.5,-2.73 z" />
        <path
           style="fill:#5e2f15"
           id="path198"
           d="m 8.64,119.63 c 41.42,-0.33 80.86,-0.84 98.6,-3.36 -24.61,0.73 -62.17,0.26 -98.69,-0.11 q 0.05,1.74 0.09,3.47 z" />
        <path
           style="fill:#5e2f15"
           id="path200"
           d="m 7.79,89 q 0,1.47 0.08,2.93 5.14,-0.13 10.87,-0.2 c 22.9,-0.62 58.19,-0.08 59,-2.73 z" />
        <path
           style="fill:#5e2f15"
           id="path202"
           d="m 1198.83,195.26 c 16.38,0 33.49,-2.21 0,-2.72 -16.38,-0.02 -33.5,2.2 0,2.72 z" />
        <path
           style="fill:#5e2f15"
           id="path204"
           d="m 756.29,127.17 c 41.33,0.2 112.82,-0.61 59,-2.72 -41.29,-0.2 -112.81,0.61 -59,2.72 z" />
        <path
           style="fill:#5e2f15"
           id="path206"
           d="m 490.77,146.23 c -96.63,1.19 -401.8,-2.75 -354,2.73 51.85,1.56 173.32,-3.29 177,2.71 C 157,152.85 92.8,156 9.42,155.17 c 0,0.56 0,1.11 0,1.67 156,-0.31 323.58,0.46 422.1,-5.15 h 0.2 c 24.28,-1.4 44.4,-3.17 59.05,-5.46 z" />
        <path
           style="fill:#5e2f15"
           id="path208"
           d="m 9.65,181.68 c 4.53,-0.46 7.61,-1.3 9.09,-2.76 -2.08,-0.09 -5.22,-0.12 -9.1,-0.1 0.01,0.95 0.01,1.9 0.01,2.86 z" />
        <path
           style="fill:#5e2f15"
           id="path210"
           d="m 136.75,143.51 c 16.39,0 33.47,-2.21 0,-2.72 -16.4,-0.01 -33.48,2.21 0,2.72 z" />
        <path
           style="fill:#5e2f15"
           id="path212"
           d="m 9.37,152.22 q 0,1.3 0,2.6 c 16.35,-0.3 31,-0.49 38.82,-0.41 1.61,-2.35 -15.49,-2.59 -38.82,-2.19 z" />
        <path
           style="fill:#5e2f15"
           id="path214"
           d="m 1274.62,227.94 h -134.8 c -60.18,-2.33 -162.56,4.29 -88.5,5.45 1.67,-1.67 4.41,-3.22 29.5,-2.73 h 177 c 5.43,0.17 11.07,0.24 16.69,0.25 0.04,-0.99 0.08,-1.98 0.11,-2.97 z" />
        <path
           style="fill:#5e2f15"
           id="path216"
           d="m 166.25,132.62 c -8.15,0.76 14.23,4.13 29.5,2.72 8.16,-0.75 -14.23,-4.13 -29.5,-2.72 z" />
        <path
           style="fill:#5e2f15"
           id="path218"
           d="m 992.31,241.56 c 31.38,0.12 74.93,-1.28 29.5,-2.72 -31.37,-0.12 -74.92,1.27 -29.5,2.72 z" />
        <path
           style="fill:#5e2f15"
           id="path220"
           d="m 815.3,206.15 c -128.76,-0.06 -5,4.69 59,2.72 h 236 c 0.35,-3.6 51.72,-2.48 59,-5.44 -176.57,1.1 -168.66,2.43 -354,2.72 z" />
        <path
           style="fill:#5e2f15"
           id="path222"
           d="m 1276.7,179.16 c -47.95,0.62 -141.48,-3 -136.88,2.49 31.78,3.15 98,1.52 136.84,-1.72 z" />
        <path
           style="fill:#5e2f15"
           id="path224"
           d="m 1110.32,184.37 c -114,-0.53 -217.4,-0.09 -295,2.72 -268.31,2.08 -445.62,-4.25 -708.05,-2.72 H 9.66 c 0,0.36 0,0.73 0,1.09 0,0.53 0,1.05 0,1.58 48,-0.51 95.3,-0.95 97.58,2.77 -26.47,0.33 -61.26,-0.11 -78.4,1.07 -6.2,-0.5 -12.55,-1 -19.17,-1.43 0,3.35 0,6.71 0.06,10.08 58,1.14 114,3 127,6.62 -16.4,0 -33.48,2.21 0,2.72 -21.12,-7.39 139.12,2 118,-5.44 h -88.5 c -0.09,-2.73 23.88,-3.24 29.5,-5.45 -60.32,1 -96.71,-1.21 -129.28,-3.9 98.22,0.73 275.59,-5.4 158.79,3.9 105.56,0.53 187.1,-15.23 295,-5.45 -36.16,-0.87 -182.23,0.43 -88.5,2.72 h 236 c 3.34,-3.32 8.82,-6.45 59,-5.45 77.73,3.2 102.77,3.39 29.5,8.18 90.81,1.91 56.7,1.91 147.51,0 -26.38,6.37 200.92,1.57 88.5,0 -46.35,-0.26 -102.29,0.36 -88.5,-5.45 20.47,2.13 164.61,6.05 177,0 -144.35,-0.9 44.88,-2.78 29.57,-8.16 z" />
        <path
           style="fill:#5e2f15"
           id="path226"
           d="m 874.3,124.45 c -8.17,0.75 14.24,4.13 29.5,2.72 8.2,-0.75 -14.24,-4.17 -29.5,-2.72 z" />
        <path
           style="fill:#5e2f15"
           id="path228"
           d="m 756.29,151.68 c -8.17,0.76 14.24,4.14 29.5,2.73 8.21,-0.75 -14.24,-4.14 -29.5,-2.73 z" />
        <path
           style="fill:#5e2f15"
           id="path230"
           d="m 313.76,140.79 c -36.16,-0.87 -182.23,0.44 -88.51,2.72 36.16,0.87 182.23,-0.43 88.51,-2.72 z" />
        <path
           style="fill:#5e2f15"
           id="path232"
           d="m 874.3,113.55 c 31.38,0.13 74.92,-1.28 29.5,-2.73 -31.37,-0.11 -74.92,1.29 -29.5,2.73 z" />
        <path
           style="fill:#5e2f15"
           id="path234"
           d="m 903.8,102.66 c -8.17,0.75 14.25,4.13 29.5,2.72 8.17,-0.75 -14.24,-4.13 -29.5,-2.72 z" />
        <path
           style="fill:#5e2f15"
           id="path236"
           d="m 903.8,157.13 c -8.17,0.75 14.25,4.13 29.5,2.72 8.17,-0.75 -14.24,-4.13 -29.5,-2.72 z" />
        <path
           style="fill:#5e2f15"
           id="path238"
           d="m 874.3,149 c 16.38,0 33.49,-2.21 0,-2.73 -16.38,-0.04 -33.49,2.17 0,2.73 z" />
        <path
           style="fill:#5e2f15"
           id="path240"
           d="m 962.81,110.83 c -8.17,0.76 14.25,4.13 29.5,2.73 8.17,-0.76 -14.25,-4.14 -29.5,-2.73 z" />
        <path
           style="fill:#5e2f15"
           id="path242"
           d="m 992.31,124.45 c -16.38,0 -33.49,2.21 0,2.72 16.38,0.01 33.49,-2.17 0,-2.72 z" />
        <path
           style="fill:#5e2f15"
           id="path244"
           d="m 697.29,159.85 c 36.14,0.86 182.21,-0.44 88.51,-2.72 -36.15,-0.87 -182.23,0.44 -88.51,2.72 z" />
        <path
           style="fill:#5e2f15"
           id="path246"
           d="m 756.29,178.92 c -41.33,-0.2 -112.83,0.61 -59,2.72 41.33,0.21 112.82,-0.64 59,-2.72 z" />
        <path
           style="fill:#5e2f15"
           id="path248"
           d="M 962.81,165.3 H 815.3 c -36.15,-0.87 -182.21,0.44 -88.5,2.72 h 147.5 c 36.15,0.88 182.21,-0.43 88.51,-2.72 z" />
        <path
           style="fill:#5e2f15"
           id="path250"
           d="M 608.78,135.34 H 874.3 c 31.38,0.11 74.92,-1.29 29.5,-2.72 H 756.29 c -78.32,-2 -274.28,-7.18 -324.52,-2.73 110.23,-2.89 84.1,6.76 177.01,5.45 z" />
        <path
           style="fill:#5e2f15"
           id="path252"
           d="m 490.77,200.71 c 8.15,-0.76 -14.23,-4.13 -29.51,-2.72 -8.14,0.75 14.24,4.12 29.51,2.72 z" />
        <path
           style="fill:#5e2f15"
           id="path254"
           d="m 343.26,543.87 c -127.25,3.12 -243.95,-5 -337.6,-2.4 q 0,1.15 -0.05,2.3 c 79.55,0.36 129,3.49 190.15,5.54 -17.5,-6.46 255.66,0.43 147.5,-5.44 z" />
        <path
           style="fill:#5e2f15"
           id="path256"
           d="m 490.77,582 c 41.35,0.2 112.83,-0.61 59,-2.72 -41.34,-0.2 -112.77,0.61 -59,2.72 z" />
        <path
           style="fill:#5e2f15"
           id="path258"
           d="m 372.76,535.7 c -22.41,-4.5 -243.1,-4.5 -265.52,0 87.41,3.73 128.47,-1.59 265.52,0 z" />
        <path
           style="fill:#5e2f15"
           id="path260"
           d="m 520.27,568.39 c -31.38,-0.12 -74.9,1.28 -29.5,2.72 31.38,0.12 74.91,-1.28 29.5,-2.72 z" />
        <path
           style="fill:#5e2f15"
           id="path262"
           d="m 726.79,549.32 c 8.17,-0.76 -14.25,-4.13 -29.51,-2.71 -8.16,0.74 14.25,4.12 29.51,2.71 z" />
        <path
           style="fill:#5e2f15"
           id="path264"
           d="m 284.26,573.83 c -87,0.25 -225.85,-2.43 -177,2.72 h 383.51 c 41.35,0.2 112.83,-0.61 59,-2.72 -65.86,0.17 -171.77,-0.27 -265.51,0 z" />
        <path
           style="fill:#5e2f15"
           id="path266"
           d="m 785.79,530.26 c 16.38,0 33.49,-2.21 0,-2.72 -16.38,-0.02 -33.49,2.19 0,2.72 z" />
        <path
           style="fill:#5e2f15"
           id="path268"
           d="m 195.75,511.19 c -31.38,-0.13 -74.91,1.28 -29.5,2.72 31.37,0.09 74.91,-1.28 29.5,-2.72 z" />
        <path
           style="fill:#5e2f15"
           id="path270"
           d="m 490.77,519.36 c 37.72,0.15 40.86,3.49 88.51,2.72 h 118 c 41.33,0.2 112.83,-0.61 59,-2.72 h -147.5 c -37.71,-0.14 -40.86,-3.49 -88.51,-2.72 h -236 c 12.73,6.09 145.4,1.1 206.5,2.72 z" />
        <path
           style="fill:#5e2f15"
           id="path272"
           d="m 284.26,500.29 c 8.15,-0.75 -14.23,-4.13 -29.51,-2.72 -8.15,0.76 14.25,4.14 29.51,2.72 z" />
        <path
           style="fill:#5e2f15"
           id="path274"
           d="m 313.76,497.57 c 58,-0.81 58.51,3.68 88.51,5.45 44.86,-13.74 253.66,4.08 295,-8.17 -118.71,1.75 -313.7,-3.54 -383.51,2.72 z" />
        <path
           style="fill:#5e2f15"
           id="path276"
           d="m 667.78,516.64 c 31.37,0.12 74.92,-1.28 29.5,-2.72 -31.36,-0.12 -74.92,1.27 -29.5,2.72 z" />
        <path
           style="fill:#5e2f15"
           id="path278"
           d="m 962.81,554.77 c -109.19,-3.85 -341.55,-4.94 -413,2.72 188.75,-1.29 306.85,1.58 413,-2.72 z" />
        <path
           style="fill:#5e2f15"
           id="path280"
           d="m 903.8,530.26 c -8.17,0.75 14.25,4.13 29.5,2.72 8.17,-0.75 -14.24,-4.13 -29.5,-2.72 z" />
        <path
           style="fill:#5e2f15"
           id="path282"
           d="m 933.3,524.81 c -16.38,0 -33.49,2.21 0,2.72 16.38,0.01 33.5,-2.2 0,-2.72 z" />
        <path
           style="fill:#5e2f15"
           id="path284"
           d="m 1272.55,539.93 c -66.86,-3 -192,-0.52 -250.74,-4.23 H 815.3 c -37.71,-0.15 -40.85,-3.49 -88.5,-2.72 H 520.27 c 111.63,6 335,1.75 442.53,8.17 -18.35,14 -123.25,-8.16 -118,5.45 111.31,1.35 172.06,3.65 177,-2.73 70.36,7.48 131.55,2.3 251,2.44 q -0.12,-3.19 -0.25,-6.38 z" />
        <path
           style="fill:#5e2f15"
           id="path286"
           d="m 903.8,522.08 c 31.37,0.12 74.92,-1.28 29.5,-2.72 -31.37,-0.11 -74.92,1.29 -29.5,2.72 z" />
        <path
           style="fill:#5e2f15"
           id="path288"
           d="m 1274.81,399.34 c -48.51,-0.44 -161.06,0.83 -76,2.9 14.83,0.36 48.17,0.35 75.85,0.06 q 0.09,-1.48 0.15,-2.96 z" />
        <path
           style="fill:#5e2f15"
           id="path290"
           d="m 1051.32,511.19 c -16.38,0 -33.49,2.21 0,2.72 16.37,0.01 33.49,-2.2 0,-2.72 z" />
        <path
           style="fill:#5e2f15"
           id="path292"
           d="m 284.26,489.41 c 8.15,-0.75 -14.23,-4.14 -29.51,-2.73 -8.15,0.75 14.25,4.13 29.51,2.73 z" />
        <path
           style="fill:#5e2f15"
           id="path294"
           d="m 1228.33,533 c 16.38,0 33.49,-2.21 0,-2.72 -16.33,-0.03 -33.49,2.19 0,2.72 z" />
        <path
           style="fill:#5e2f15"
           id="path296"
           d="m 1021.81,533 c 16.38,0 33.49,-2.21 0,-2.72 -16.38,-0.03 -33.49,2.19 0,2.72 z" />
        <path
           style="fill:#5e2f15"
           id="path298"
           d="m 1272.56,519.29 c -67.57,-0.31 -128.7,0 -132.74,5.53 q 91.24,0.51 132.64,-3.59 c 0.02,-0.65 0.06,-1.3 0.1,-1.94 z" />
        <path
           style="fill:#5e2f15"
           id="path300"
           d="m 1051.32,524.81 c -8.17,0.75 14.25,4.13 29.5,2.72 8.18,-0.75 -14.25,-4.13 -29.5,-2.72 z" />
        <path
           style="fill:#5e2f15"
           id="path302"
           d="m 933.3,511.19 c 8.17,-0.76 -14.25,-4.14 -29.5,-2.72 -8.16,0.75 14.25,4.13 29.5,2.72 z" />
        <path
           style="fill:#5e2f15"
           id="path304"
           d="m 48.24,394.08 c -8.15,0.75 14.23,4.14 29.5,2.72 8.15,-0.8 -14.22,-4.13 -29.5,-2.72 z" />
        <path
           style="fill:#5e2f15"
           id="path306"
           d="m 4.65,402.11 q 0.06,1.53 0.12,3.06 a 106,106 0 0 0 14,-0.2 c 5.55,-0.51 -3.17,-2.26 -14.12,-2.86 z" />
        <path
           style="fill:#5e2f15"
           id="path308"
           d="m 4.42,393.93 q 0,1.53 0.06,3.07 a 106.43,106.43 0 0 0 14.26,-0.2 c 5.62,-0.52 -3.26,-2.28 -14.32,-2.87 z" />
        <path
           style="fill:#5e2f15"
           id="path310"
           d="m 166.25,383.19 c -73.26,3.54 -122.44,-8 -147.51,0 17.88,1.56 139.93,6.37 147.51,0 z" />
        <path
           style="fill:#5e2f15"
           id="path312"
           d="M 962.81,290.58 H 815.3 c -41.33,-0.2 -112.82,0.61 -59,2.72 h 147.5 c 41.33,0.21 112.83,-0.6 59.01,-2.72 z" />
        <path
           style="fill:#5e2f15"
           id="path314"
           d="m 3.29,459 q -0.2,1.49 -0.4,3 a 114.63,114.63 0 0 0 17.65,0 c 6.1,-0.61 -4.92,-2.64 -17.25,-3 z" />
        <path
           style="fill:#5e2f15"
           id="path316"
           d="m 844.8,380.47 c -41.33,-0.21 -112.83,0.6 -59,2.72 41.32,0.2 112.82,-0.62 59,-2.72 z" />
        <path
           style="fill:#5e2f15"
           id="path318"
           d="m 785.79,364.12 c -41.33,-0.21 -112.82,0.61 -59,2.72 41.33,0.21 112.82,-0.6 59,-2.72 z" />
        <path
           style="fill:#5e2f15"
           id="path320"
           d="m 166.25,459.44 c -8.15,0.75 14.23,4.13 29.5,2.73 8.16,-0.75 -14.23,-4.17 -29.5,-2.73 z" />
        <path
           style="fill:#5e2f15"
           id="path322"
           d="m 48.24,361.39 c 41.35,0.21 112.82,-0.6 59,-2.71 -41.34,-0.22 -112.81,0.6 -59,2.71 z" />
        <path
           style="fill:#5e2f15"
           id="path324"
           d="m 844.8,336.89 h -88.51 c -31.38,-0.12 -74.92,1.28 -29.5,2.72 38.78,0.39 213.46,0.39 118.01,-2.72 z" />
        <path
           style="fill:#5e2f15"
           id="path326"
           d="m 402.27,353.22 c 183,1.06 -2,1.4 -29.5,5.45 55.84,4.83 194.85,2 295,2.71 6.37,-5.11 268,-0.33 177,-5.45 -207.13,7.99 -250.02,-12.66 -442.5,-2.71 z" />
        <path
           style="fill:#5e2f15"
           id="path328"
           d="m 667.78,347.78 c 8.17,-0.76 -14.24,-4.13 -29.5,-2.72 -8.16,0.75 14.25,4.12 29.5,2.72 z" />
        <path
           style="fill:#5e2f15"
           id="path330"
           d="m 254.75,560.21 c 31.38,0.12 74.91,-1.28 29.51,-2.72 -31.38,-0.11 -74.91,1.28 -29.51,2.72 z" />
        <path
           style="fill:#5e2f15"
           id="path332"
           d="m 343.26,562.94 c -4,7.8 -202.51,-2.35 -206.51,5.45 44.65,3.32 254.11,5.34 295,0 -57.98,0.81 -58.5,-3.68 -88.49,-5.45 z" />
        <path
           style="fill:#5e2f15"
           id="path334"
           d="m 490.77,454 c -141.66,2.36 -393.35,-5.45 -442.53,5.45 83.38,2.25 76.44,-3.83 147.51,-2.72 109.8,-3.83 311.48,6.89 295.02,-2.73 z" />
        <path
           style="fill:#5e2f15"
           id="path336"
           d="m 549.78,524.81 h -118 c -41.35,-0.21 -112.83,0.61 -59,2.72 h 118 c 41.34,0.21 112.82,-0.6 59,-2.72 z" />
        <path
           style="fill:#5e2f15"
           id="path338"
           d="m 107.24,552 c -8.15,0.76 14.23,4.14 29.51,2.72 8.14,-0.72 -14.24,-4.08 -29.51,-2.72 z" />
        <path
           style="fill:#5e2f15"
           id="path340"
           d="m 785.79,508.47 c -36.14,-0.88 -182.22,0.43 -88.51,2.72 36.15,0.87 182.22,-0.44 88.51,-2.72 z" />
        <path
           style="fill:#5e2f15"
           id="path342"
           d="m 195.75,552 c -8.15,0.76 14.23,4.14 29.5,2.72 C 233.4,554 211,550.64 195.75,552 Z" />
        <path
           style="fill:#5e2f15"
           id="path344"
           d="m 107.24,557.49 c -8.15,0.75 14.23,4.14 29.51,2.72 8.14,-0.75 -14.24,-4.13 -29.51,-2.72 z" />
        <path
           style="fill:#5e2f15"
           id="path346"
           d="m 284.26,459.44 c -31.38,-0.12 -74.91,1.28 -29.51,2.73 31.38,0.11 74.91,-1.29 29.51,-2.73 z" />
        <path
           style="fill:#5e2f15"
           id="path348"
           d="m 343.26,470.34 c 105.33,2.33 195.14,3.15 324.52,-2.72 -59.06,-3.47 -309.22,-6.38 -324.52,2.72 z" />
        <path
           style="fill:#5e2f15"
           id="path350"
           d="m 785.79,462.17 c -31.37,-0.12 -74.92,1.28 -29.5,2.71 31.38,0.12 74.92,-1.27 29.5,-2.71 z" />
        <path
           style="fill:#5e2f15"
           id="path352"
           d="m 490.77,475.79 c -39.87,0.86 -56.35,3.88 -118,2.72 h -118 c 5.48,4 71.31,2.51 118,2.72 h 265.51 c 33.1,-0.57 45.93,-3 59,-5.44 -91.55,3.57 -84.19,-0.79 -206.51,0 z" />
        <path
           style="fill:#5e2f15"
           id="path354"
           d="m 549.78,489.41 c -36.16,-0.88 -182.23,0.44 -88.51,2.72 h 177 c 36.15,0.86 182.22,-0.44 88.51,-2.72 z" />
        <path
           style="fill:#5e2f15"
           id="path356"
           d="m 372.76,448.55 c -65.86,0.21 -171.8,-0.28 -265.52,0 -31.28,0.09 -69.26,-0.2 -102.82,-0.36 -0.08,1 -0.17,2.06 -0.27,3.09 h 309.6 c 41.35,0.2 112.83,-0.62 59.01,-2.73 z" />
        <path
           style="fill:#5e2f15"
           id="path358"
           d="m 579.28,238.84 c 16.39,0 33.49,-2.21 0,-2.73 -16.39,-0.01 -33.48,2.21 0,2.73 z" />
        <path
           style="fill:#5e2f15"
           id="path360"
           d="m 756.29,249.73 c 8.17,-0.75 -14.25,-4.13 -29.5,-2.72 -8.17,0.75 14.21,4.13 29.5,2.72 z" />
        <path
           style="fill:#5e2f15"
           id="path362"
           d="m 697.29,266.07 c 29.76,0 37.11,-4.77 0,-5.45 -35.66,0.58 -18.14,3.02 0,5.45 z" />
        <path
           style="fill:#5e2f15"
           id="path364"
           d="m 608.78,230.66 c -8.15,0.75 14.25,4.14 29.5,2.73 8.17,-0.76 -14.28,-4.13 -29.5,-2.73 z" />
        <path
           style="fill:#5e2f15"
           id="path366"
           d="m 638.28,203.43 c -16.38,0 -33.48,2.21 0,2.72 16.39,0.02 33.5,-2.2 0,-2.72 z" />
        <path
           style="fill:#5e2f15"
           id="path368"
           d="m 638.28,198 c -31.37,-0.12 -74.91,1.29 -29.5,2.72 31.38,0.1 74.92,-1.3 29.5,-2.72 z" />
        <path
           style="fill:#5e2f15"
           id="path370"
           d="m 549.78,203.43 c -8.15,0.75 14.23,4.13 29.5,2.72 8.15,-0.75 -14.28,-4.15 -29.5,-2.72 z" />
        <path
           style="fill:#5e2f15"
           id="path372"
           d="m 874.3,247 c -8.17,0.75 14.24,4.13 29.5,2.72 C 912,249 889.56,245.6 874.3,247 Z" />
        <path
           style="fill:#5e2f15"
           id="path374"
           d="M 933.3,230.66 H 785.79 c -41.33,-0.2 -112.82,0.61 -59,2.73 H 874.3 c 41.33,0.2 112.82,-0.61 59,-2.73 z" />
        <path
           style="fill:#5e2f15"
           id="path376"
           d="m 785.79,271.52 c 31.38,0.12 74.92,-1.28 29.5,-2.72 -31.37,-0.12 -74.92,1.28 -29.5,2.72 z" />
        <path
           style="fill:#5e2f15"
           id="path378"
           d="m 1139.82,192.54 c 8.17,-0.76 -14.24,-4.14 -29.5,-2.73 -8.17,0.75 14.25,4.14 29.5,2.73 z" />
        <path
           style="fill:#5e2f15"
           id="path380"
           d="m 815.3,249.73 c 8.17,-0.75 -14.25,-4.13 -29.5,-2.72 -8.17,0.75 14.2,4.13 29.5,2.72 z" />
        <path
           style="fill:#5e2f15"
           id="path382"
           d="m 874.3,238.84 c -31.37,-0.13 -74.92,1.27 -29.5,2.72 31.37,0.12 74.92,-1.28 29.5,-2.72 z" />
        <path
           style="fill:#5e2f15"
           id="path384"
           d="m 372.76,244.28 c -8.15,0.76 14.24,4.14 29.5,2.72 8.16,-0.75 -14.26,-4.13 -29.5,-2.72 z" />
        <path
           style="fill:#5e2f15"
           id="path386"
           d="m 284.26,238.84 c -16.4,0 -33.48,2.21 0,2.72 16.39,0.01 33.47,-2.21 0,-2.72 z" />
        <path
           style="fill:#5e2f15"
           id="path388"
           d="m 343.26,211.61 c 8.15,-0.76 -14.23,-4.14 -29.5,-2.73 -8.15,0.75 14.24,4.12 29.5,2.73 z" />
        <path
           style="fill:#5e2f15"
           id="path390"
           d="m 461.27,249.73 c -61.1,1.63 -193.81,-3.36 -206.51,2.72 46.44,4.34 157.99,0.77 206.51,-2.72 z" />
        <path
           style="fill:#5e2f15"
           id="path392"
           d="m 608.78,293.31 c -8.15,0.75 14.25,4.13 29.5,2.73 8.17,-0.77 -14.28,-4.14 -29.5,-2.73 z" />
        <path
           style="fill:#5e2f15"
           id="path394"
           d="m 638.28,211.61 c -16.38,0 -33.48,2.21 0,2.71 16.39,0.02 33.5,-2.21 0,-2.71 z" />
        <path
           style="fill:#5e2f15"
           id="path396"
           d="m 372.76,238.84 c -27.83,6.77 168.86,0.8 59,0 -48.22,0.24 -128.31,-4.54 -59,0 z" />
        <path
           style="fill:#5e2f15"
           id="path398"
           d="M 1110.32,285.14 H 903.8 c -59.13,-4.66 -239.16,-4 -265.52,2.72 h 383.53 c 36.19,0.86 182.19,-0.44 88.51,-2.72 z" />
        <path
           style="fill:#5e2f15"
           id="path400"
           d="m 638.28,244.28 c -61.11,1.62 -193.81,-3.37 -206.51,2.72 116.31,2.13 90.2,2.13 206.51,0 58.52,6.43 58.52,-0.25 0,-2.72 z" />
        <path
           style="fill:#5e2f15"
           id="path402"
           d="m 638.28,255.18 c -95.48,1.17 -255.18,-3.59 -265.52,5.44 40.05,-4.62 329.14,-0.27 265.52,-5.44 z" />
        <path
           style="fill:#5e2f15"
           id="path404"
           d="m 1277.09,159.64 c -77.36,-1 -150.9,-4.91 -196.28,2.94 51.77,-1.22 142.8,1.19 196.28,0.13 q 0.01,-1.54 0,-3.07 z" />
        <path
           style="fill:#5e2f15"
           id="path406"
           d="m 431.77,225.22 c 8.15,-0.75 -14.23,-4.13 -29.5,-2.72 -8.16,0.75 14.23,4.12 29.5,2.72 z" />
        <path
           style="fill:#5e2f15"
           id="path408"
           d="m 874.3,421.32 c 16.38,0 33.49,-2.21 0,-2.73 -16.38,-0.01 -33.49,2.2 0,2.73 z" />
        <path
           style="fill:#5e2f15"
           id="path410"
           d="m 195.75,211.61 c 31.37,0.11 74.91,-1.29 29.5,-2.73 -31.37,-0.12 -74.91,1.28 -29.5,2.73 z" />
        <path
           style="fill:#5e2f15"
           id="path412"
           d="m 1139.82,407.7 c 8.17,-0.75 -14.24,-4.13 -29.5,-2.72 -8.17,0.75 14.25,4.12 29.5,2.72 z" />
        <path
           style="fill:#5e2f15"
           id="path414"
           d="m 992.31,421.32 c 31.38,0.12 74.93,-1.28 29.5,-2.73 -31.37,-0.12 -74.92,1.29 -29.5,2.73 z" />
        <path
           style="fill:#5e2f15"
           id="path416"
           d="m 1021.81,407.7 c 31.38,0.12 74.92,-1.29 29.5,-2.72 -31.37,-0.13 -74.92,1.27 -29.5,2.72 z" />
        <path
           style="fill:#5e2f15"
           id="path418"
           d="m 815.3,405 c -8.16,0.76 14.25,4.13 29.5,2.72 8.2,-0.78 -14.25,-4.15 -29.5,-2.72 z" />
        <path
           style="fill:#5e2f15"
           id="path420"
           d="m 1051.32,399.53 c -31.38,-0.12 -74.92,1.28 -29.5,2.71 31.37,0.13 74.92,-1.24 29.5,-2.71 z" />
        <path
           style="fill:#5e2f15"
           id="path422"
           d="m 1169.32,426.76 c -92.19,-6.52 -255.08,-1.37 -295,5.45 121.09,0.28 240.82,0.45 295,-5.45 z" />
        <path
           style="fill:#5e2f15"
           id="path424"
           d="m 1228.33,415.87 c 16.38,0 33.49,-2.21 0,-2.72 -16.33,-0.02 -33.49,2.2 0,2.72 z" />
        <path
           style="fill:#5e2f15"
           id="path426"
           d="m 1272.67,437.15 c 0,-0.67 0.07,-1.34 0.11,-2 -151.25,-0.19 -390.13,-2.59 -339.47,5.24 112.43,-5.21 184.68,-0.38 339.32,-2.51 0.01,-0.25 0.03,-0.49 0.04,-0.73 z" />
        <path
           style="fill:#5e2f15"
           id="path428"
           d="m 874.3,399.53 c -16.38,0 -33.49,2.21 0,2.71 16.38,0.02 33.49,-2.24 0,-2.71 z" />
        <path
           style="fill:#5e2f15"
           id="path430"
           d="m 1274.55,405 c -28.51,0.22 -56.17,1.44 -16.73,2.7 5.34,0 11,0 16.58,-0.07 0.06,-0.88 0.11,-1.75 0.15,-2.63 z" />
        <path
           style="fill:#5e2f15"
           id="path432"
           d="m 874.3,405 c -8.17,0.76 14.24,4.13 29.5,2.72 8.2,-0.78 -14.24,-4.15 -29.5,-2.72 z" />
        <path
           style="fill:#5e2f15"
           id="path434"
           d="m 1021.81,415.87 c -13.3,-7.58 160.81,2.14 147.51,-5.45 -61.97,-0.87 -255.53,-0.42 -147.51,5.45 z" />
        <path
           style="fill:#5e2f15"
           id="path436"
           d="m 107.24,230.66 c -19.52,-0.47 -71.09,-0.3 -99.65,0.31 -0.13,0.63 -0.27,1.34 -0.42,2.11 3.36,0.1 7.2,0.21 11.57,0.31 36.16,0.86 182.26,-0.39 88.5,-2.73 z" />
        <path
           style="fill:#5e2f15"
           id="path438"
           d="m 77.15,246.26 c -23.64,-0.11 -57.14,0.1 -71.42,0.7 a 12.16,12.16 0 0 0 0.21,1.45 c 3,0.18 7,0.37 12.22,0.58 41.33,0.2 112.84,-0.61 58.99,-2.73 z" />
        <path
           style="fill:#5e2f15"
           id="path440"
           d="m 166.25,244.28 c 8.15,-0.75 -14.23,-4.13 -29.5,-2.72 -8.16,0.76 14.25,4.13 29.5,2.72 z" />
        <path
           style="fill:#5e2f15"
           id="path442"
           d="m 844.8,448.55 c 100.37,0.19 205.86,0.84 236,-5.45 -74.03,2.24 -254.02,-5.3 -236,5.45 z" />
        <path
           style="fill:#5e2f15"
           id="path444"
           d="m 18.74,206.15 c -2.52,-0.06 -5.57,-0.11 -9,-0.15 q 0,1.45 -0.05,2.89 c 37.81,-0.44 62.65,-1.43 9.05,-2.74 z" />
        <path
           style="fill:#5e2f15"
           id="path446"
           d="m 8.88,222 c 70.56,-0.8 145.21,-2.83 186.87,-7.69 -38.62,-0.92 -117.61,2.12 -186.59,4.62 Q 9,220.48 8.88,222 Z" />
        <path
           style="fill:#5e2f15"
           id="path448"
           d="m 874.3,391.35 c -34.24,-2.29 -79.11,-3.59 -147.51,-2.72 -83.38,-2.25 -76.44,3.84 -147.51,2.72 h -236 c -100.84,-2.18 -168.43,4.06 -29.5,2.72 h 236 c 107.67,2.42 157.13,-4.81 206.51,0 -0.1,1.51 23.9,3.09 29.5,0 -18,-0.15 -34.92,-0.4 -29.5,-2.72 124.88,6.8 234.13,1.38 442.53,2.72 -50.48,-6.22 -225.19,-1 -324.52,-2.72 z" />
        <path
           style="fill:#5e2f15"
           id="path450"
           d="m 1139.82,375 c -16.38,0 -33.49,2.21 0,2.73 16.38,0.01 33.49,-2.19 0,-2.73 z" />
        <path
           style="fill:#5e2f15"
           id="path452"
           d="m 343.26,266.07 c -15.36,-4 -43.65,-6.87 -59,-10.89 -42.26,0.61 -94.16,1.54 -146.66,2.73 155.93,2.47 -35.89,4.75 -127.85,6.38 -0.17,0.69 -0.31,1.38 -0.47,2.07 74.65,0.56 195.91,-3.17 216,2.43 -51.4,-0.2 -91.76,0.61 -118,2.72 -40.62,0.12 -64.76,-1.28 -88.5,-2.72 l -10,0.44 c -0.32,1.66 -0.61,3.33 -0.85,5 h 40.4 c 42.9,4.2 151,2.39 236,2.71 40.51,-6.21 -76.06,-10.24 0,-10.89 0.34,3.6 51.71,2.49 59,5.45 139.62,-4.49 225.24,2.78 324.52,-5.45 -170.02,-1.54 -206.38,-3.19 -324.59,0.02 z" />
        <path
           style="fill:#5e2f15"
           id="path454"
           d="m 136.75,257.9 c -13.75,-0.22 -47.54,0.8 -85.76,2.23 28,-0.81 57.4,-1.56 86.61,-2.22 z" />
        <path
           style="fill:#5e2f15"
           id="path456"
           d="m 51,260.13 c -13.91,0.4 -27.45,0.83 -40.49,1.27 l -0.09,0.33 C 24,261.17 37.78,260.63 51,260.13 Z" />
        <path
           style="fill:#5e2f15"
           id="path458"
           d="M 402.27,42.74 H 254.75 C 218.6,41.88 72.53,43.18 166.25,45.47 H 313.76 C 349.92,46.33 496,45 402.27,42.74 Z" />
        <path
           style="fill:#5e2f15"
           id="path460"
           d="m 7.64,83.47 0.05,2 C 150.79,84.19 218.25,96.33 284.26,86.36 259.29,83.45 95.26,82.5 7.64,83.47 Z" />
        <path
           style="fill:#5e2f15"
           id="path462"
           d="m 166.25,99.93 c 6.6,2.11 0.81,5.37 29.5,5.45 -6.6,-2.11 -0.81,-5.38 -29.5,-5.45 z" />
        <path
           style="fill:#5e2f15"
           id="path464"
           d="m 372.76,50.91 c 8.15,-0.75 -14.23,-4.14 -29.5,-2.73 -8.15,0.76 14.24,4.14 29.5,2.73 z" />
        <path
           style="fill:#5e2f15"
           id="path466"
           d="m 549.78,78.15 c -16.4,0 -33.48,2.21 0,2.72 16.39,0.02 33.48,-2.21 0,-2.72 z" />
        <path
           style="fill:#5e2f15"
           id="path468"
           d="m 254.75,48.18 c -31.37,-0.11 -74.9,1.29 -29.5,2.73 31.38,0.09 74.91,-1.28 29.5,-2.73 z" />
        <path
           style="fill:#5e2f15"
           id="path470"
           d="m 520.27,72.7 c -77,2.26 -161.86,-8.24 -206.51,0 52.7,-0.01 171.63,7.3 206.51,0 z" />
        <path
           style="fill:#5e2f15"
           id="path472"
           d="m 549.78,108.11 c -75.57,2.95 -140.66,-8.27 -177,0 22.9,0.61 58.2,0.07 59,2.71 -41.35,-0.2 -112.83,0.61 -59,2.73 87.51,-5.27 145.53,3.64 177,-5.44 z" />
        <path
           style="fill:#5e2f15"
           id="path474"
           d="m 520.27,97.21 c -8.15,0.76 14.23,4.13 29.51,2.72 8.15,-0.75 -14.23,-4.13 -29.51,-2.72 z" />
        <path
           style="fill:#5e2f15"
           id="path476"
           d="m 431.77,86.32 c -36.16,-0.88 -182.23,0.43 -88.51,2.71 36.15,0.88 182.23,-0.43 88.51,-2.71 z" />
        <path
           style="fill:#5e2f15"
           id="path478"
           d="m 313.76,97.21 c 11.7,6.53 -134.37,-1.51 -88.51,8.17 h 118 c -4.6,-3.2 5.08,-7.73 -29.49,-8.17 z" />
        <path
           style="fill:#5e2f15"
           id="path480"
           d="M 7.94,94.4 8,96.79 c 17.09,0.71 43.38,0.57 69.74,0.42 -4.21,-2.7 -34.96,-2.95 -69.8,-2.81 z" />
        <path
           style="fill:#5e2f15"
           id="path482"
           d="m 77.74,102.66 c 31.38,0.12 74.9,-1.29 29.5,-2.72 -31.37,-0.12 -74.9,1.28 -29.5,2.72 z" />
        <path
           style="fill:#5e2f15"
           id="path484"
           d="m 1275.18,15.53 c -28.73,0.21 -57.08,1.44 -17.35,2.7 5.58,0 11.54,0 17.32,-0.07 q 0,-1.32 0.03,-2.63 z" />
        <path
           style="fill:#5e2f15"
           id="path486"
           d="m 726.79,56.36 c -8.17,0.75 14.25,4.13 29.5,2.72 C 764.46,58.33 742,55 726.79,56.36 Z" />
        <path
           style="fill:#5e2f15"
           id="path488"
           d="m 785.79,34.57 c -43.26,0 -241.4,-1 -147.51,2.72 43.26,-0.03 241.42,1.03 147.51,-2.72 z" />
        <path
           style="fill:#5e2f15"
           id="path490"
           d="m 667.78,4.61 c 50.75,-0.14 75.63,2.1 88.51,5.45 -80.07,1.68 -234.14,-3.46 -265.52,2.72 16.4,0 33.48,2.21 0,2.72 -11.61,-5.25 -348.43,-3.48 -265.52,0 94,-2.33 112,2.37 147.51,5.45 70.56,-4.79 192.43,-2 236,-5.45 -9.4,0.75 -39.1,-2.8 0,-2.72 h 177 c 6.61,-2.11 0.81,-5.37 29.5,-5.45 H 962.81 C 999,8.21 1145,6.9 1051.32,4.61 H 726.79 c -0.35,-2.75 -51.72,-3.43 -59.01,0 z" />
        <path
           style="fill:#5e2f15"
           id="path492"
           d="m 844.8,56.36 c 6.61,2.11 0.8,5.37 29.5,5.44 -6.61,-2.11 -0.8,-5.36 -29.5,-5.44 z" />
        <path
           style="fill:#5e2f15"
           id="path494"
           d="m 284.26,59.08 c 8.15,-0.75 -14.23,-4.13 -29.51,-2.72 -8.15,0.75 14.25,4.13 29.51,2.72 z" />
        <path
           style="fill:#5e2f15"
           id="path496"
           d="m 1169.32,12.78 c -31.37,-0.12 -74.92,1.28 -29.51,2.72 31.38,0.13 74.94,-1.27 29.51,-2.72 z" />
        <path
           style="fill:#5e2f15"
           id="path498"
           d="m 962.81,29.13 h 295 c -4.62,-3.21 5.08,-7.73 -29.5,-8.17 C 1144.2,29.16 986,20 962.81,29.13 Z" />
        <path
           style="fill:#5e2f15"
           id="path500"
           d="m 195.75,119 c 41.34,0.2 112.82,-0.61 59,-2.72 -41.34,-0.21 -112.81,0.61 -59,2.72 z" />
        <path
           style="fill:#5e2f15"
           id="path502"
           d="m 284.26,110.83 h -177 c -19.34,-0.46 -70.12,-0.3 -98.83,0.29 l 0.06,2.16 10.27,0.27 h 177 c 36.15,0.87 182.24,-0.43 88.5,-2.72 z" />
        <path
           style="fill:#5e2f15"
           id="path504"
           d="m 608.78,56.36 c -8.15,0.75 14.25,4.13 29.5,2.72 C 646.45,58.33 624,55 608.78,56.36 Z" />
        <path
           style="fill:#5e2f15"
           id="path506"
           d="m 608.78,72.7 c -8.15,0.75 14.25,4.13 29.5,2.72 8.17,-0.75 -14.28,-4.12 -29.5,-2.72 z" />
        <path
           style="fill:#5e2f15"
           id="path508"
           d="m 697.29,48.18 c -58.27,6.2 -165.78,-3 -236,5.45 73.97,-0.63 342.99,2.86 236,-5.45 z" />
        <path
           style="fill:#5e2f15"
           id="path510"
           d="m 313.76,83.59 c 0.34,-3.6 51.71,-2.49 59,-5.45 -60.53,-3.14 -140.62,4.28 -59,5.45 z" />
        <path
           style="fill:#5e2f15"
           id="path512"
           d="m 284.26,4.61 h 177 c 36.16,0.88 182.21,-0.43 88.51,-2.72 h -177 C 336.61,1 190.53,2.32 284.26,4.61 Z" />
        <path
           style="fill:#5e2f15"
           id="path514"
           d="m 638.28,23.68 c 8.17,-0.76 -14.25,-4.13 -29.5,-2.73 -8.15,0.75 14.22,4.14 29.5,2.73 z" />
        <path
           style="fill:#5e2f15"
           id="path516"
           d="m 254.75,21 c 8.16,-0.76 -14.23,-4.13 -29.5,-2.72 -8.15,0.72 14.24,4.08 29.5,2.72 z" />
        <path
           style="fill:#5e2f15"
           id="path518"
           d="m 579.28,89 c 8.15,-0.75 -14.23,-4.13 -29.5,-2.71 -8.15,0.78 14.22,4.16 29.5,2.71 z" />
        <path
           style="fill:#5e2f15"
           id="path520"
           d="m 579.28,37.3 c 8.15,-0.76 -14.23,-4.13 -29.5,-2.72 -8.15,0.74 14.22,4.12 29.5,2.72 z" />
        <path
           style="fill:#5e2f15"
           id="path522"
           d="m 313.76,21 c 8.16,-0.76 -14.23,-4.13 -29.5,-2.72 -8.15,0.72 14.23,4.08 29.5,2.72 z" />
        <path
           style="fill:#5e2f15"
           id="path524"
           d="M 166.25,7.33 C 130.09,6.47 -15.98,7.77 77.75,10.06 113.9,10.93 260,9.62 166.25,7.33 Z" />
        <path
           style="fill:#5e2f15"
           id="path526"
           d="m 166.25,26.39 h 147.51 c 80.07,-1.68 234.14,3.46 265.52,-2.71 -170,-1.71 -194.33,-0.07 -383.53,0 8.81,-4.42 -39.84,-7.35 -59,-2.73 55.31,0.65 -16.75,4.49 29.5,5.44 z" />
        <path
           style="fill:#5e2f15"
           id="path528"
           d="m 815.3,72.7 c 16.38,0 33.49,-2.21 0,-2.72 -16.38,0.02 -33.49,2.2 0,2.72 z" />
        <path
           style="fill:#5e2f15"
           id="path530"
           d="m 903.8,15.51 c -16.38,0 -33.49,2.21 0,2.72 16.38,0.01 33.49,-2.23 0,-2.72 z" />
        <path
           style="fill:#5e2f15"
           id="path532"
           d="m 1080.82,40 c 16.38,0 33.49,-2.21 0,-2.72 -16.38,0.01 -33.49,2.22 0,2.72 z" />
        <path
           style="fill:#5e2f15"
           id="path534"
           d="m 1276.85,32.93 c -1.07,-0.46 -6.52,-0.89 -19,-1.09 -16.37,0 -33.49,2.21 0,2.72 8.56,0 17.32,-0.6 19,-1.25 z" />
        <path
           style="fill:#5e2f15"
           id="path536"
           d="m 1274.13,64.45 a 111.39,111.39 0 0 0 -16.3,0.08 c -6,0.55 4.35,2.49 16.28,3 q 0,-1.53 0.02,-3.08 z" />
        <path
           style="fill:#5e2f15"
           id="path538"
           d="m 1228.33,56.36 h -177 c -38.78,-0.36 -213.46,-0.41 -118,2.72 h 265.52 c 31.35,0.12 74.9,-1.27 29.48,-2.72 z" />
        <path
           style="fill:#5e2f15"
           id="path540"
           d="m 1169.32,61.8 c -13.11,7.87 -222.91,-2.42 -236,5.45 73.85,-3.59 92.36,10.77 118,2.73 -117.93,-5.04 272.29,0.22 118,-8.18 z" />
        <path
           style="fill:#5e2f15"
           id="path542"
           d="m 1080.82,34.57 c 41.33,0.2 112.82,-0.61 59,-2.72 -41.33,-0.21 -112.82,0.61 -59,2.72 z" />
        <path
           style="fill:#5e2f15"
           id="path544"
           d="m 1228.33,37.3 c -41.33,-0.21 -112.82,0.61 -59,2.72 41.32,0.2 112.82,-0.61 59,-2.72 z" />
        <path
           style="fill:#5e2f15"
           id="path546"
           d="m 1139.82,45.47 c -8.17,0.75 14.25,4.13 29.51,2.71 8.16,-0.75 -14.25,-4.13 -29.51,-2.71 z" />
        <path
           style="fill:#5e2f15"
           id="path548"
           d="m 1139.82,50.91 c -8.17,0.75 14.25,4.13 29.51,2.72 8.16,-0.75 -14.25,-4.12 -29.51,-2.72 z" />
        <path
           style="fill:#5e2f15"
           id="path550"
           d="m 18.74,552 c -4.28,0 -8.78,0 -13.25,0 q 0,1.31 0,2.63 c 27.17,-0.21 51.08,-1.39 13.25,-2.63 z" />
        <path
           style="fill:#5e2f15"
           id="path552"
           d="m 962.81,682.77 c 38.78,0.36 213.46,0.41 118,-2.72 h -88.5 c -31.37,-0.11 -74.92,1.29 -29.5,2.72 z" />
        <path
           style="fill:#5e2f15"
           id="path554"
           d="m 18.74,606.51 c -5.5,0 -11.07,0.25 -14.79,0.6 0,0.54 0,1.08 0,1.62 3,0.22 7.83,0.4 14.82,0.51 16.36,0.01 33.44,-2.24 -0.03,-2.73 z" />
        <path
           style="fill:#5e2f15"
           id="path556"
           d="m 667.78,601.07 c -8.17,0.75 14.25,4.13 29.5,2.72 8.17,-0.79 -14.28,-4.13 -29.5,-2.72 z" />
        <path
           style="fill:#5e2f15"
           id="path558"
           d="m 3.85,613.32 q 0,1.93 0,3.86 c 86.76,0.87 199.71,0.3 221.43,-2.49 -64.33,-2.55 -130.64,-1.41 -221.43,-1.37 z" />
        <path
           style="fill:#5e2f15"
           id="path560"
           d="m 1275.34,654.45 c -18.39,0.58 -44.27,1.12 -76.52,1.1 -94,-2.09 -224,3.32 -59,2.72 57.16,-0.54 104.29,0.21 135.52,-1.35 q 0,-1.24 0,-2.47 z" />
        <path
           style="fill:#5e2f15"
           id="path562"
           d="m 1275.32,660.58 c -79.67,-0.69 -212.7,-1.11 -253.5,3.12 72.36,-1.25 181.7,4 253.46,2.72 q 0.02,-2.91 0.04,-5.84 z" />
        <path
           style="fill:#5e2f15"
           id="path564"
           d="m 5.51,705.17 c 0.06,2.26 0.12,4.52 0.15,6.77 22.43,1.32 50.84,2.08 101.58,0.79 v -8.17 c -37.68,2.88 -71.68,1.95 -101.73,0.61 z" />
        <path
           style="fill:#5e2f15"
           id="path566"
           d="M 343.26,699.12 H 195.75 c -41.34,-0.2 -112.82,0.61 -59,2.72 h 147.51 c 41.34,0.16 112.82,-0.61 59,-2.72 z" />
        <path
           style="fill:#5e2f15"
           id="path568"
           d="m 549.78,682.77 c -8.15,0.75 14.23,4.14 29.5,2.72 8.15,-0.75 -14.28,-4.12 -29.5,-2.72 z" />
        <path
           style="fill:#5e2f15"
           id="path570"
           d="m 1080.82,636.48 h -118 c -41.33,-0.21 -112.82,0.61 -59,2.72 h 118 c 41.32,0.21 112.82,-0.61 59,-2.72 z" />
        <path
           style="fill:#5e2f15"
           id="path572"
           d="m 608.78,614.69 c -16.4,0 -33.48,2.21 0,2.72 16.38,0.01 33.5,-2.2 0,-2.72 z" />
        <path
           style="fill:#5e2f15"
           id="path574"
           d="m 933.3,631 c -166.71,3.17 -315.56,-4.23 -442.53,5.45 170,0.29 338.59,0.42 442.53,-5.45 z" />
        <path
           style="fill:#5e2f15"
           id="path576"
           d="m 579.28,661 c -157.25,-0.13 -262.84,0.3 -324.53,2.72 -7.05,-3 -48.57,-6.54 -59,-2.72 111.47,2.14 -140.71,6.06 -118,0 34.71,-0.43 83.75,0.47 88.5,-2.72 -30,0.35 -102.32,-0.11 -161.71,-0.17 q 0,1.44 0.07,2.87 c 40.09,0.37 38.48,1.69 0.1,4.41 0,0.44 0,0.89 0,1.33 57.2,0.51 158.16,-3 161.51,2.44 -36.16,-0.87 -182.23,0.44 -88.5,2.73 102,0.56 139,3.87 206.52,-2.73 -34.72,-0.42 -83.76,0.47 -88.51,-2.72 83.38,-2.25 76.44,3.84 147.51,2.72 21.49,-2.89 88.77,-0.31 147.51,-5.45 36.18,0.88 182.25,-0.44 88.53,-2.71 z" />
        <path
           style="fill:#5e2f15"
           id="path578"
           d="m 48.24,636.48 c 43.27,0 241.41,1 147.51,-2.72 -43.27,0.02 -241.4,-1.04 -147.51,2.72 z" />
        <path
           style="fill:#5e2f15"
           id="path580"
           d="m 166.25,625.58 c -31.37,-0.11 -74.91,1.29 -29.5,2.73 31.37,0.11 74.9,-1.31 29.5,-2.73 z" />
        <path
           style="fill:#5e2f15"
           id="path582"
           d="m 815.3,658.26 c -8.16,0.76 14.25,4.13 29.5,2.72 8.2,-0.75 -14.25,-4.13 -29.5,-2.72 z" />
        <path
           style="fill:#5e2f15"
           id="path584"
           d="m 549.78,641.92 h 206.51 c 18.1,0.8 113.57,6.78 118,0 -79.6,-5.36 -257.8,-1.62 -383.53,-2.72 -128.76,-0.06 -4.97,4.69 59.02,2.72 z" />
        <path
           style="fill:#5e2f15"
           id="path586"
           d="m 697.29,666.43 h -118 c -41.34,-0.2 -112.83,0.61 -59,2.72 h 118 c 41.33,0.21 112.82,-0.61 59,-2.72 z" />
        <path
           style="fill:#5e2f15"
           id="path588"
           d="m 903.8,671.89 c 41.33,0.2 112.82,-0.61 59,-2.73 -41.32,-0.16 -112.8,0.61 -59,2.73 z" />
        <path
           style="fill:#5e2f15"
           id="path590"
           d="m 1021.81,650.1 c -8.17,0.75 14.25,4.13 29.5,2.72 8.17,-0.76 -14.24,-4.14 -29.5,-2.72 z" />
        <path
           style="fill:#5e2f15"
           id="path592"
           d="m 962.81,661 c -16.38,0 -33.49,2.21 0,2.72 16.38,0 33.49,-2.22 0,-2.72 z" />
        <path
           style="fill:#5e2f15"
           id="path594"
           d="m 461.27,369.57 c 29,1.75 192.87,3.58 206.52,-2.72 C 551,366.7 400.74,365.91 461.27,369.57 Z" />
        <path
           style="fill:#5e2f15"
           id="path596"
           d="m 48.24,685.5 c 8.15,-0.75 -14.23,-4.13 -29.5,-2.72 -8.16,0.75 14.26,4.13 29.5,2.72 z" />
        <path
           style="fill:#5e2f15"
           id="path598"
           d="m 152.86,726.39 h -2.31 c -3,0.12 -6,0.29 -9,0.5 3.74,-0.13 7.53,-0.32 11.31,-0.5 z" />
        <path
           style="fill:#5e2f15"
           id="path600"
           d="m 490.77,685.5 c 8.15,-0.75 -14.23,-4.13 -29.51,-2.72 -8.14,0.75 14.24,4.13 29.51,2.72 z" />
        <path
           style="fill:#5e2f15"
           id="path602"
           d="m 136.75,691 c 35.23,-2.85 6.89,-2 -29.51,0 -40.33,2.1 -4.89,2.72 29.51,0 z" />
        <path
           style="fill:#5e2f15"
           id="path604"
           d="m 490.77,710 c 8.15,-0.75 -14.23,-4.13 -29.51,-2.72 -8.14,0.72 14.24,4.14 29.51,2.72 z" />
        <path
           style="fill:#5e2f15"
           id="path606"
           d="m 313.76,712.74 c 36.16,0.87 182.23,-0.44 88.51,-2.73 -36.16,-0.87 -182.27,0.44 -88.51,2.73 z" />
        <path
           style="fill:#5e2f15"
           id="path608"
           d="m 401.62,718.74 25.14,-0.66 c -33.71,-0.52 -121.89,0.17 -113.87,1.56 29.58,0.08 59.11,-0.12 88.73,-0.9 z" />
        <path
           style="fill:#5e2f15"
           id="path610"
           d="M 933.3,674.61 H 785.79 c -41.33,-0.21 -112.82,0.61 -59,2.72 H 874.3 c 41.33,0.21 112.82,-0.61 59,-2.72 z" />
        <path
           style="fill:#5e2f15"
           id="path612"
           d="m 402.27,674.61 c 8.15,-0.76 -14.24,-4.14 -29.5,-2.72 -8.16,0.75 14.23,4.11 29.5,2.72 z" />
        <path
           style="fill:#5e2f15"
           id="path614"
           d="m 1209,720.25 c 6,-0.63 12,-1.23 17.81,-1.37 9.72,-0.24 19.44,-0.16 29.15,0.09 14.2,-1.18 15,-2.36 -27.62,-3.51 -2.53,2.39 -12.69,3 -26.62,2.82 a 5.4,5.4 0 0 1 0.56,1.83 z" />
        <path
           style="fill:#5e2f15"
           id="path616"
           d="m 1164.32,716.82 c -35.16,-1.78 -73.5,-3.9 -83.5,1.36 34.57,-1.16 53.32,-0.87 65.65,0 a 35.84,35.84 0 0 1 11,0.71 4.58,4.58 0 0 1 3.32,-1.07 q 0.9,0 1.78,0.12 a 4.28,4.28 0 0 1 1.75,-1.12 z" />
        <path
           style="fill:#5e2f15"
           id="path618"
           d="m 785.79,696.39 h -177 c -38.78,-0.35 -213.46,-0.41 -118,2.72 h 265.5 c 31.38,0.12 74.92,-1.27 29.5,-2.72 z" />
        <path
           style="fill:#5e2f15"
           id="path620"
           d="m 785.79,704.56 c 8.17,-0.75 -14.25,-4.13 -29.5,-2.72 -8.17,0.75 14.25,4.16 29.5,2.72 z" />
        <path
           style="fill:#5e2f15"
           id="path622"
           d="m 752.19,718.18 0.3,0.15 3.67,-0.15 z" />
        <path
           style="fill:#5e2f15"
           id="path624"
           d="m 549.85,719.77 c 0.72,0.08 1.73,0.15 3,0.23 2.09,-0.28 4.17,-0.54 6.28,-0.74 8.81,-0.83 17.77,-1.2 26.57,-0.06 q 1.5,0.19 3,0.46 c 17.38,-0.42 34.76,-0.77 52.17,-0.82 h 3.27 c 1.15,-0.33 2.32,-0.61 3.49,-0.86 -35.27,-0.18 -92.18,0.36 -98.64,1.34 0.3,0.13 0.59,0.28 0.86,0.45 z" />
        <path
           style="fill:#5e2f15"
           id="path626"
           d="m 811.33,718.58 q 8.41,0.33 16.83,0.73 c 3.34,0 6.67,-0.17 10,-0.4 -5,-0.23 -12.42,-0.47 -22.84,-0.72 h -8.52 z" />
        <path
           style="fill:#5e2f15"
           id="path628"
           d="m 225.25,710 c -8.15,0.75 14.23,4.13 29.5,2.73 8.16,-0.73 -14.23,-4.13 -29.5,-2.73 z" />
        <path
           style="fill:#5e2f15"
           id="path630"
           d="m 254.75,606.51 c -16.39,0 -33.48,2.21 0,2.73 16.4,0.01 33.48,-2.24 0,-2.73 z" />
        <path
           style="fill:#5e2f15"
           id="path632"
           d="m 284.26,622.85 c 36.16,0.88 182.23,-0.43 88.5,-2.72 -36.15,-0.86 -182.23,0.44 -88.5,2.72 z" />
        <path
           style="fill:#5e2f15"
           id="path634"
           d="m 195.75,644.64 c -36.16,-0.86 -182.22,0.44 -88.51,2.72 36.16,0.88 182.23,-0.43 88.51,-2.72 z" />
        <path
           style="fill:#5e2f15"
           id="path636"
           d="m 166.25,696.39 c 8.15,-0.75 -14.23,-4.13 -29.5,-2.72 -8.16,0.76 14.25,4.13 29.5,2.72 z" />
        <path
           style="fill:#5e2f15"
           id="path638"
           d="m 343.26,612 c 8.15,-0.75 -14.23,-4.13 -29.5,-2.71 -8.15,0.71 14.24,4.08 29.5,2.71 z" />
        <path
           style="fill:#5e2f15"
           id="path640"
           d="m 431.77,598.35 c -36.16,-0.87 -182.23,0.44 -88.51,2.72 36.15,0.87 182.23,-0.44 88.51,-2.72 z" />
        <path
           style="fill:#5e2f15"
           id="path642"
           d="m 225.25,655.54 c 41.35,0.2 112.83,-0.62 59,-2.72 -41.34,-0.2 -112.82,0.61 -59,2.72 z" />
        <path
           style="fill:#5e2f15"
           id="path644"
           d="m 461.27,603.79 c -31.37,-0.12 -74.9,1.28 -29.5,2.72 31.37,0.13 74.91,-1.27 29.5,-2.72 z" />
        <path
           style="fill:#5e2f15"
           id="path646"
           d="m 166.25,712.74 c 16.4,0 33.48,-2.21 0,-2.73 -16.4,-0.01 -33.48,2.2 0,2.73 z" />
        <path
           style="fill:#5e2f15"
           id="path648"
           d="m 77.74,650.1 c -8.16,0.75 14.23,4.13 29.5,2.72 8.16,-0.76 -14.24,-4.14 -29.5,-2.72 z" />
        <path
           style="fill:#5e2f15"
           id="path650"
           d="m 18.74,639.2 c -4.73,0 -9.73,0 -14.67,0 l 0.06,2.63 c 27.73,-0.22 53.06,-1.41 14.61,-2.63 z" />
        <path
           style="fill:#5e2f15"
           id="path652"
           d="m 1241.88,95.77 c -16.38,0 -33.49,2.21 0,2.72 16.38,0.02 33.49,-2.21 0,-2.72 z" />
        <path
           style="fill:#5e2f15"
           id="path654"
           d="m 1274.15,73.33 c -65.13,0.9 -168.07,-7.55 -193.33,-0.63 45.28,0.64 4.34,4.49 -29.5,5.44 -40.61,0.13 -64.78,-1.28 -88.51,-2.72 -6.61,2.12 -0.8,5.37 -29.5,5.45 -146.1,-4.34 -183.94,-7.22 -324.52,0 210.14,2.91 428.86,-0.07 665.45,-3.59 q -0.06,-1.97 -0.09,-3.95 z" />
        <path
           style="fill:#5e2f15"
           id="path656"
           d="m 1274.43,234 c -96,0.08 -161.72,-0.79 -193.61,4.83 55,-0.78 131.86,0.44 193.47,0.27 0.04,-1.69 0.08,-3.39 0.14,-5.1 z" />
        <path
           style="fill:#5e2f15"
           id="path658"
           d="m 1275.79,1 c -57.91,-1.22 -98.69,-2.51 -136,3.58 35.18,-0.83 88.48,0 135.82,0.32 0.09,-1.28 0.15,-2.58 0.18,-3.9 z" />
        <path
           style="fill:#5e2f15"
           id="path660"
           d="m 1276.29,187.78 c -9.28,0.39 -16,1 -18.46,2 6.59,0.45 12.59,1 18.3,1.5 q 0.08,-1.74 0.16,-3.5 z" />
        <path
           style="fill:#5e2f15"
           id="path662"
           d="m 1080.82,99.93 c 8.17,-0.75 -14.25,-4.13 -29.5,-2.72 -8.17,0.79 14.24,4.13 29.5,2.72 z" />
        <path
           style="fill:#5e2f15"
           id="path664"
           d="m 1277,151.68 h -107.68 c -36.14,-0.86 -182.21,0.44 -88.51,2.73 h 177 c 4.77,0.11 11.46,0.19 19.25,0.23 0.01,-0.99 -0.06,-1.98 -0.06,-2.96 z" />
        <path
           style="fill:#5e2f15"
           id="path666"
           d="m 1277.1,166 c -9.7,0.38 -16.7,1 -19.27,2.06 6.75,1 13.16,1.52 19.25,1.82 q 0.01,-1.98 0.02,-3.88 z" />
        <path
           style="fill:#5e2f15"
           id="path668"
           d="m 1275.13,214.11 a 419,419 0 0 1 -46.8,5.66 c -34.72,0.42 -83.74,-0.46 -88.51,2.72 58.87,2.47 86,1.13 135,0.29 q 0.18,-4.33 0.31,-8.67 z" />
        <path
           style="fill:#5e2f15"
           id="path670"
           d="m 1275.56,203.79 c -8,0.52 -11.64,1.47 -0.09,2 0.03,-0.65 0.06,-1.32 0.09,-2 z" />
        <path
           style="fill:#5e2f15"
           id="path672"
           d="m 1275.63,106.57 c -63.19,-1.68 -128,-3.46 -165.31,1.55 44.14,0.46 108.88,-1 118,2.71 -67,2 -230.17,-4.91 -206.52,5.45 61.51,-3 171.38,-3.8 254.06,-5 -0.06,-1.54 -0.15,-3.13 -0.23,-4.71 z" />
        <path
           style="fill:#5e2f15"
           id="path674"
           d="m 1276.19,118.56 c -69.75,0.46 -138.76,0.76 -79,3.14 12.73,0 44.42,0.14 79.1,0.16 0,-1.1 -0.06,-2.2 -0.1,-3.3 z" />
        <path
           style="fill:#5e2f15"
           id="path676"
           d="m 1276.43,124.87 -74,0.53 c -41.33,-0.21 -112.82,0.61 -59,2.72 h 133.13 q -0.08,-1.63 -0.13,-3.25 z" />
        <path
           style="fill:#5e2f15"
           id="path678"
           d="m 1276.93,143.51 h -107.61 c -36.14,-0.87 -182.21,0.43 -88.51,2.72 h 147.51 c 10.14,0.24 28.93,0.32 48.65,0.25 0.03,-0.99 -0.02,-1.98 -0.04,-2.97 z" />
        <path
           style="fill:#5e2f15"
           id="path680"
           d="m 1276.76,136 c -10.27,0.37 -12.9,0.9 0,1.61 0.03,-0.61 0.02,-1.1 0,-1.61 z" />
        <path
           style="fill:#5e2f15"
           id="path682"
           d="m 1273.93,579.09 c -5.15,0.05 -10.5,0.11 -16.11,0.19 -11.49,-4.18 -35.41,-0.4 0,2.72 5.62,0.08 11,0.14 16.15,0.19 0.03,-1.03 -0.02,-2.07 -0.04,-3.1 z" />
        <path
           style="fill:#5e2f15"
           id="path684"
           d="m 1274,587 c -37.54,-0.38 -61.57,-0.68 -16.22,0.42 4.15,0.1 9.74,0.16 16.23,0.2 0.05,-0.17 0.04,-0.38 -0.01,-0.62 z" />
        <path
           style="fill:#5e2f15"
           id="path686"
           d="m 1275.32,644.11 c -150.41,-0.24 -78.5,3.64 0,4.74 0.01,-1.58 0.01,-3.16 0,-4.74 z" />
        <path
           style="fill:#5e2f15"
           id="path688"
           d="m 1275.09,630.36 c 0,-0.19 0,-0.38 0,-0.57 q -0.06,-2.24 -0.12,-4.47 c -39.77,-0.33 -74.2,-0.17 -76.13,3 14.78,1.45 44.95,2.06 76.25,2.04 z" />
        <path
           style="fill:#5e2f15"
           id="path690"
           d="m 1275,690.45 q 0,-1.75 0,-3.5 0,-2.14 0.05,-4.28 c -56.19,-0.08 -108.47,0.2 -135.27,2.82 -6.61,2.11 -0.8,5.38 -29.5,5.45 -171.08,-2.09 -229.45,1.85 -354,-2.73 -45.87,9.68 100.2,1.65 88.51,8.17 99.33,-1.72 274,3.51 324.52,-2.72 -52.79,-5.66 29.69,-3.27 105.69,-3.21 z" />
        <path
           style="fill:#5e2f15"
           id="path692"
           d="m 1275.88,348.77 c -80.45,-1.92 -166.94,-5.26 -195.06,-1 68.15,-1.57 138.43,0.44 195,2 z" />
        <path
           style="fill:#5e2f15"
           id="path694"
           d="m 1275.54,362.5 c -56.15,-0.39 -103.63,-1.37 -47.21,-6.56 -99.71,-1 -125.88,4.72 -177,8.18 36,0.3 69.85,0.81 59,5.44 40.44,-1.21 108.05,-0.79 165.09,-0.76 q 0.05,-3.14 0.12,-6.3 z" />
        <path
           style="fill:#5e2f15"
           id="path696"
           d="m 1276.28,331.5 a 116.39,116.39 0 0 0 -18.45,-0.07 c -6.3,0.59 5.61,2.73 18.39,3 q 0.03,-1.43 0.06,-2.93 z" />
        <path
           style="fill:#5e2f15"
           id="path698"
           d="m 1275.18,385 c 0,-0.72 0,-1.43 0,-2.15 -68.53,0.12 -135.48,0.71 -76.38,3.07 13,0 43.3,0.07 76.34,0.07 0.03,-0.34 0.04,-0.67 0.04,-0.99 z" />
        <path
           style="fill:#5e2f15"
           id="path700"
           d="m 1275.3,374.91 c -42.23,0.39 -74.93,1.43 -17.47,2.83 4.39,0.1 10.41,0.18 17.43,0.22 q 0.01,-1.52 0.04,-3.05 z" />
        <path
           style="fill:#5e2f15"
           id="path702"
           d="m 1051.32,320.55 c 84.71,-1 145.18,0.69 225.12,1.84 q 0.05,-4 0.07,-8.08 c -143.48,-0.67 -236.54,1.1 -431.7,0.79 -29.43,-3 -160.85,-10.22 -206.52,-2.72 168.9,7.51 -78.13,6.59 -88.5,13.62 145.36,-6.25 355.21,5.22 560.54,-2.72 -22.9,-0.62 -58.21,-0.09 -59.01,-2.73 z" />
        <path
           style="fill:#5e2f15"
           id="path704"
           d="m 1275.57,274.54 c -51.71,1.44 -109.07,3.75 -135.75,5.15 33.18,-1 87.62,0 136,0.35 q -0.13,-2.75 -0.25,-5.5 z" />
        <path
           style="fill:#5e2f15"
           id="path706"
           d="m 1273.86,266 c -138,-0.59 -238.87,-2.45 -370.05,2.82 48.54,0.16 237.42,1.38 370,-0.24 0.03,-0.89 0.05,-1.75 0.05,-2.58 z" />
        <path
           style="fill:#5e2f15"
           id="path708"
           d="m 1228.33,247 c -16.38,0 -33.49,2.21 0,2.72 16.37,0.03 33.49,-2.2 0,-2.72 z" />
        <path
           style="fill:#5e2f15"
           id="path710"
           d="m 1080.82,475.79 h 191.32 a 60.4,60.4 0 0 1 -1.35,-8.25 c -101.07,0.17 -191.61,1.32 -249,5.52 29.76,0 37.11,4.77 0,5.44 -20.47,-2.13 -164.61,-6.06 -177,0 41.69,7.61 191.1,5.72 295,0 -22.86,-0.6 -58.17,-0.07 -58.97,-2.71 z" />
        <path
           style="fill:#5e2f15"
           id="path712"
           d="m 1080.82,484 c -16.38,0 -33.49,2.21 0,2.71 16.38,-0.02 33.49,-2.24 0,-2.71 z" />
        <path
           style="fill:#5e2f15"
           id="path714"
           d="m 1273.65,482.56 c -42.06,-0.29 -74.34,-1.09 -104.33,1.4 23.83,2.22 65.24,3 105,2.66 -0.15,-1.38 -0.39,-2.73 -0.67,-4.06 z" />
        <path
           style="fill:#5e2f15"
           id="path716"
           d="m 1273.75,566.58 q -0.07,-2.66 -0.18,-5.33 c -258.33,-3.22 -552.47,0.09 -694.29,1.68 -42.87,1.49 -152.5,-3.18 -147.51,2.73 h 560.54 c 24.92,-2.56 188.06,-5.82 206.52,0 -34.72,0.42 -83.74,-0.47 -88.51,2.72 56.09,-0.45 112.98,-0.83 163.43,-1.8 z" />
        <path
           style="fill:#5e2f15"
           id="path718"
           d="m 1274.93,502.39 c -23.69,-1.29 -17.64,-1.6 0.38,-1.7 q 0.49,-2.2 1,-4.41 c 0,-0.48 0,-1 0,-1.43 h -166 c -37.71,-0.15 -40.85,-3.49 -88.5,-2.72 -61.12,1.62 -193.81,-3.37 -206.52,2.72 70.54,1.65 214.05,-3.42 236,2.72 -44.14,0.46 -108.87,-1 -118,2.72 144.82,1.14 112.36,2.84 236,0 13.31,1.07 69.13,3.53 105.07,4.58 q 0.3,-1.24 0.57,-2.48 z" />
        <path
           style="fill:#5e2f15"
           id="path720"
           d="m 1270.75,462.33 c 0.06,-0.77 0.12,-1.53 0.18,-2.29 -22,1.81 -41.32,3.86 -72.1,4.85 24.53,0 49.11,-0.51 71.86,-1.2 0.01,-0.45 0.02,-0.91 0.06,-1.36 z" />
        <path
           style="fill:#5e2f15"
           id="path722"
           d="m 1271.72,450.47 c -19.72,-0.45 -15,-0.69 0.08,-0.93 0,-0.48 0.07,-1 0.11,-1.44 -123,2.34 -223,3 -397.61,5.89 -132.19,-0.4 -252.51,0.29 -324.52,5.45 239,-2.64 491.51,-4 721.81,-7.47 z" />
        <path
           style="fill:#5e2f15"
           id="path724"
           d="m 1021.81,467.62 c 8.17,-0.75 -14.25,-4.14 -29.5,-2.73 -8.16,0.75 14.25,4.11 29.5,2.73 z" />
        <path
           style="fill:#5e2f15"
           id="path726"
           d="m 5.12,688.12 c 0,1 0,2 0,3.06 A 104.92,104.92 0 0 0 18.74,691 c 5.5,-0.56 -2.89,-2.26 -13.62,-2.88 z" />
        <path
           style="fill:#5e2f15"
           id="path728"
           d="m 962.81,582 c 8.17,-0.76 -14.25,-4.13 -29.5,-2.72 -8.17,0.72 14.24,4.13 29.5,2.72 z" />
        <path
           style="fill:#5e2f15"
           id="path730"
           d="m 1021.81,603.79 c 31.38,0.12 74.92,-1.28 29.5,-2.72 -31.37,-0.07 -74.92,1.28 -29.5,2.72 z" />
        <path
           style="fill:#5e2f15"
           id="path732"
           d="m 1051.32,584.73 c 8.17,-0.76 -14.25,-4.13 -29.5,-2.72 -8.17,0.74 14.24,4.13 29.5,2.72 z" />
        <path
           style="fill:#5e2f15"
           id="path734"
           d="m 874.3,579.28 c -16.38,0 -33.49,2.21 0,2.72 16.38,0 33.49,-2.2 0,-2.72 z" />
        <path
           style="fill:#5e2f15"
           id="path736"
           d="m 1274.75,617.41 h -134.93 c -38.78,-0.36 -213.46,-0.41 -118,2.72 h 253 z" />
        <path
           style="fill:#5e2f15"
           id="path738"
           d="m 1274.22,595.54 a 111.39,111.39 0 0 0 -16.39,0.08 c -6,0.55 4.45,2.51 16.46,3 -0.03,-1.05 -0.05,-2.06 -0.07,-3.08 z" />
        <path
           style="fill:#5e2f15"
           id="path740"
           d="m 1169.32,576.56 c -8.17,0.75 14.25,4.13 29.5,2.72 8.18,-0.75 -14.24,-4.14 -29.5,-2.72 z" />
        <path
           style="fill:#5e2f15"
           id="path742"
           d="m 1198.83,592.9 c 16.38,0 33.49,-2.21 0,-2.72 -16.38,-0.02 -33.5,2.19 0,2.72 z" />
        <path
           style="fill:#5e2f15"
           id="path744"
           d="m 1228.33,601.07 c -8.17,0.75 14.25,4.13 29.5,2.72 8.17,-0.79 -14.24,-4.13 -29.5,-2.72 z" />
        <path
           style="fill:#5e2f15"
           id="path746"
           d="M 254.75,473.06 H 48.24 c 7.67,2.07 -16.05,0.85 -46.52,-1 0,0.43 -0.09,0.87 -0.13,1.3 a 5.07,5.07 0 0 1 6,3.25 c 33.32,-0.1 55.71,-0.91 99.66,-0.87 43.27,0.01 241.4,1.07 147.5,-2.68 z" />
        <path
           style="fill:#5e2f15"
           id="path748"
           d="m 815.3,582 c 8.17,-0.76 -14.25,-4.13 -29.5,-2.72 -8.17,0.72 14.2,4.13 29.5,2.72 z" />
        <path
           style="fill:#5e2f15"
           id="path750"
           d="m 1080.82,576.56 c -8.17,0.75 14.25,4.13 29.5,2.72 8.16,-0.75 -14.24,-4.14 -29.5,-2.72 z" />
        <path
           style="fill:#5e2f15"
           id="path752"
           d="m 1139.82,603.79 c 16.38,0 33.49,-2.21 0,-2.72 -16.38,-0.01 -33.49,2.2 0,2.72 z" />
        <path
           style="fill:#5e2f15"
           id="path754"
           d="m 667.78,620.13 c 124.84,2.71 -104.18,7.36 0,8.17 58.63,0 37.51,-7.44 118,-5.45 0.1,2.73 -23.9,3.25 -29.5,5.45 133.25,-2.23 371.54,5.24 413,-5.45 -100.16,0.74 -239.19,-2.1 -295,2.72 -0.1,-2.73 23.9,-3.24 29.5,-5.44 -95.78,3.15 -181.45,-8.32 -236,0 z" />
        <path
           style="fill:#5e2f15"
           id="path756"
           d="m 77.74,557.49 c -17.36,1.6 -44.54,2.89 -72.3,3.83 q 0,1 0,2 C 56.47,563.18 103,562 77.74,557.49 Z" />
        <path
           style="fill:#5e2f15"
           id="path758"
           d="m 9.56,496.59 q -0.06,1.79 -0.17,3.58 c 78.82,0 169.72,-0.86 186.37,-3.94 C 129,496.56 66,496.92 9.56,496.59 Z" />
        <path
           style="fill:#5e2f15"
           id="path760"
           d="m 8.13,478.87 q 0.18,0.84 0.34,1.68 c 42.09,0.55 72.51,1.64 98.77,-2.75 -31.24,0.12 -66.56,0.53 -99.11,1.07 z" />
        <path
           style="fill:#5e2f15"
           id="path762"
           d="m 28.31,574.66 c -7.45,0 -15.57,0 -23,0.15 0,0.86 0,1.73 -0.07,2.59 41.66,0.04 78.38,-0.99 23.07,-2.74 z" />
        <path
           style="fill:#5e2f15"
           id="path764"
           d="m 638.28,579.28 c 8.17,-0.75 -14.25,-4.14 -29.5,-2.72 -8.15,0.75 14.22,4.13 29.5,2.72 z" />
        <path
           style="fill:#5e2f15"
           id="path766"
           d="m 638.28,571.11 c 8.17,-0.75 -14.25,-4.13 -29.5,-2.72 -8.15,0.75 14.22,4.13 29.5,2.72 z" />
        <path
           style="fill:#5e2f15"
           id="path768"
           d="m 697.29,579.28 c 8.17,-0.75 -14.24,-4.14 -29.5,-2.72 -8.17,0.75 14.21,4.13 29.5,2.72 z" />
        <path
           style="fill:#5e2f15"
           id="path770"
           d="m 815.3,595.62 c -174,1.81 -104.14,-3.1 -177,-8.17 -101.44,-0.29 -211.9,-1.41 -236,5.45 -76.55,-6.14 -197.59,2.18 -236,-2.72 -17.49,-6.47 255.66,0.42 147.51,-5.45 -88.66,1.22 -213.72,-0.93 -308.88,-0.32 0,0.32 0,0.64 0,1 -0.05,0.86 -0.1,1.71 -0.14,2.57 63.28,-1.4 131.65,-2.64 132.06,5 -0.87,-1.33 -69.27,-0.42 -132.36,0.94 q -0.2,4.48 -0.33,9 c 47.23,0.46 90.51,-0.6 127.46,-4 199.39,-1.93 389.75,-8.09 506.77,-5.92 -34.25,2.28 -79.08,3.59 -147.51,2.72 -22,8.38 81,5.23 59,13.62 107.59,3.61 330.4,-5.15 236,-2.73 -143.88,2.4 -194.71,-3.81 -265.52,-8.17 79.23,-1.1 359.04,2.4 294.94,-2.82 z" />
        <path
           style="fill:#5e2f15"
           id="path772"
           d="m 756.29,579.28 c 8.17,-0.75 -14.25,-4.14 -29.5,-2.72 -8.17,0.75 14.21,4.13 29.5,2.72 z" />
        <path
           style="fill:#5e2f15"
           id="path774"
           d="m 1110.32,582 c -16.38,0 -33.49,2.21 0,2.72 16.38,0.01 33.49,-2.2 0,-2.72 z" />
        <path
           style="fill:#5e2f15"
           id="path776"
           d="m 1275.19,674.43 c -86,-1.27 -49.23,-1.47 0,-1.89 q 0,-1.28 0,-2.56 c -94.72,0.37 -146.19,-2.36 -223.92,1.9 116.57,1.41 -116.57,4 0,5.44 55.49,-8 172.12,3 223.85,-1.21 z" />
        <path
           style="fill:#5e2f15"
           id="path778"
           d="m 1228.33,704.56 c 15.25,-0.16 30.33,2.83 45.23,4.67 0.25,-2.37 0.59,-4.72 1,-7.05 -127.43,0.44 -299.46,-3.24 -370.73,2.38 127.54,5.12 -245.56,0.33 -118,5.45 180.94,-1.81 333.37,1.19 442.54,-2.72 -14.3,0.51 -35.22,-2.61 -0.04,-2.73 z" />
        <path
           style="fill:#5e2f15"
           id="path780"
           d="m 844.8,701.84 c -16.38,0 -33.49,2.21 0,2.72 16.38,0.01 33.49,-2.2 0,-2.72 z" />
        <path
           style="fill:#5e2f15"
           id="path782"
           d="m 372.76,323.27 c -8.15,0.75 14.24,4.13 29.5,2.72 8.16,-0.75 -14.26,-4.13 -29.5,-2.72 z" />
        <path
           style="fill:#5e2f15"
           id="path784"
           d="m 579.28,437.65 c 16.39,0 33.49,-2.21 0,-2.72 -16.39,-0.01 -33.48,2.21 0,2.72 z" />
        <path
           style="fill:#5e2f15"
           id="path786"
           d="m 608.78,396.8 c -84.47,-0.53 -161,-0.33 -147.52,8.17 h 59 c 18,-0.16 34.92,-0.41 29.51,-2.73 -22.91,-0.6 -58.2,-0.07 -59,-2.71 38.78,0.36 213.46,0.41 118.01,-2.73 z" />
        <path
           style="fill:#5e2f15"
           id="path788"
           d="m 313.76,413.14 c 78.51,2.87 226.63,5.12 265.52,-2.72 -101.41,4.58 -177.76,-4.27 -265.52,2.72 z" />
        <path
           style="fill:#5e2f15"
           id="path790"
           d="m 461.27,429.49 c -8.15,0.75 14.24,4.13 29.51,2.72 8.15,-0.75 -14.24,-4.14 -29.51,-2.72 z" />
        <path
           style="fill:#5e2f15"
           id="path792"
           d="m 608.78,418.59 c 41.33,0.2 112.82,-0.61 59,-2.72 -41.32,-0.21 -112.78,0.61 -59,2.72 z" />
        <path
           style="fill:#5e2f15"
           id="path794"
           d="m 756.29,443.11 h -177 c -36.16,-0.87 -182.23,0.43 -88.51,2.72 h 177 c 36.15,0.87 182.22,-0.44 88.51,-2.72 z" />
        <path
           style="fill:#5e2f15"
           id="path796"
           d="m 490.77,323.27 c 35.23,-2.84 6.89,-1.95 -29.51,0 -40.32,2.15 -4.89,2.73 29.51,0 z" />
        <path
           style="fill:#5e2f15"
           id="path798"
           d="m 284.26,328.71 c 157,-2.4 -114.56,-3.4 -118,-8.17 75.57,-3 140.66,8.27 177,0 -95,0.59 -124.84,-4.82 -236,-2.72 6.34,9.32 97.27,8.18 0,13.61 55.78,0.62 65.08,-3.06 118,-2.72 46.5,0.24 23.11,6.94 88.51,5.44 h 678.54 c 42.48,3.05 72,2.94 88.51,-2.72 -305.18,-2.56 -525.82,3.48 -796.56,-2.72 z" />
        <path
           style="fill:#5e2f15"
           id="path800"
           d="m 520.27,285.14 c -16.39,0 -33.48,2.21 0,2.72 16.4,0.01 33.48,-2.21 0,-2.72 z" />
        <path
           style="fill:#5e2f15"
           id="path802"
           d="m 726.79,432.21 c 8.17,-0.75 -14.25,-4.14 -29.51,-2.72 -8.16,0.75 14.25,4.13 29.51,2.72 z" />
        <path
           style="fill:#5e2f15"
           id="path804"
           d="m 343.26,421.32 c 8.15,-0.75 -14.23,-4.13 -29.5,-2.73 -8.15,0.75 14.24,4.13 29.5,2.73 z" />
        <path
           style="fill:#5e2f15"
           id="path806"
           d="m 1051.32,369.57 c -36.15,-0.87 -182.22,0.44 -88.51,2.72 36.19,0.87 182.19,-0.44 88.51,-2.72 z" />
        <path
           style="fill:#5e2f15"
           id="path808"
           d="m 136.75,375 c -8.16,0.75 14.23,4.14 29.5,2.73 C 174.4,377 152,373.6 136.75,375 Z" />
        <path
           style="fill:#5e2f15"
           id="path810"
           d="m 284.26,355.95 c -8.15,0.75 14.23,4.14 29.5,2.73 8.16,-0.76 -14.23,-4.14 -29.5,-2.73 z" />
        <path
           style="fill:#5e2f15"
           id="path812"
           d="m 520.27,383.19 h 118 c 41.33,0.2 112.82,-0.62 59,-2.72 -217.26,-2.4 -309.89,-3.34 -501.54,5.44 176.27,0.29 219.85,-1.09 324.54,-2.72 z" />
        <path
           style="fill:#5e2f15"
           id="path814"
           d="m 225.25,361.39 c -6.6,-2.1 -0.81,-5.37 -29.5,-5.45 6.6,2.13 0.81,5.38 29.5,5.45 z" />
        <path
           style="fill:#5e2f15"
           id="path816"
           d="m 18.74,342.33 h 206.51 c 71.08,-1.12 64.13,5 147.51,2.72 52.7,-3.31 171.63,-0.5 206.52,-5.45 -177.39,1.79 -432.22,-3.6 -560.54,2.73 z" />
        <path
           style="fill:#5e2f15"
           id="path818"
           d="m 726.79,440.38 c 16.38,0 33.49,-2.21 0,-2.73 -16.38,0 -33.49,2.21 0,2.73 z" />
        <path
           style="fill:#5e2f15"
           id="path820"
           d="m 343.26,364.12 c 16.39,0 33.48,-2.21 0,-2.73 -16.39,-0.01 -33.48,2.22 0,2.73 z" />
        <path
           style="fill:#5e2f15"
           id="path822"
           d="m 166.25,396.8 c -8.15,0.75 14.23,4.14 29.5,2.73 8.16,-0.75 -14.23,-4.14 -29.5,-2.73 z" />
        <path
           style="fill:#5e2f15"
           id="path824"
           d="m 697.29,399.53 c 29.76,0 37.11,-4.78 0,-5.45 2.99,3.05 -42.89,4.24 0,5.45 z" />
        <path
           style="fill:#5e2f15"
           id="path826"
           d="m 697.29,413.14 c 31.38,0.12 74.93,-1.28 29.51,-2.72 -31.38,-0.11 -74.93,1.28 -29.51,2.72 z" />
        <path
           style="fill:#5e2f15"
           id="path828"
           d="m 461.27,279.69 c -8.15,0.76 14.24,4.13 29.51,2.72 8.15,-0.75 -14.24,-4.13 -29.51,-2.72 z" />
        <path
           style="fill:#5e2f15"
           id="path830"
           d="M 284.26,418.59 V 407.7 c -44.14,0.46 -108.87,-1 -118,2.72 60.15,0.8 57.84,7.37 118,8.17 z" />
        <path
           style="fill:#5e2f15"
           id="path832"
           d="m 372.76,429.49 c -123.19,-0.86 -144.57,5.8 -236,0 22.9,-0.61 58.2,-0.08 59,-2.72 -94.58,-2.38 -92.28,4.19 -118,8.17 89.7,-2.62 299.18,5.82 295,-5.45 z" />
        <path
           style="fill:#5e2f15"
           id="path834"
           d="m 579.28,429.49 c -31.38,-0.11 -74.91,1.29 -29.5,2.72 31.37,0.12 74.92,-1.29 29.5,-2.72 z" />
        <path
           style="fill:#5e2f15"
           id="path836"
           d="m 7.87,347.25 q 0,3.09 -0.12,6.18 c 74.86,0.86 163,0.34 188,-2.93 C 157.09,349.57 77,347.4 7.87,347.25 Z" />
        <path
           style="fill:#5e2f15"
           id="path838"
           d="m 5.23,378 c 49.89,-0.19 98.84,-1.18 102,-2.95 C 63.59,373.63 44.05,374.7 5.51,375.47 Q 5.37,376.69 5.23,378 Z" />
        <path
           style="fill:#5e2f15"
           id="path840"
           d="m 48.24,312.37 -41.66,0.8 q 0.12,3.53 0.3,7.07 c 53.58,-2.54 96.93,-6.04 41.36,-7.87 z" />
        <path
           style="fill:#5e2f15"
           id="path842"
           d="m 4.87,440.72 c 0,1 -0.1,2.08 -0.16,3.12 44,-1 75.5,-1.66 102.53,-6.19 -32.3,0.13 -68.92,1.48 -102.37,3.07 z" />
        <path
           style="fill:#5e2f15"
           id="path844"
           d="m 77.74,421.32 c -13.57,0 -42.38,-0.09 -72.62,-0.12 q 0,1.48 0,2.95 c 65.6,0.04 136.33,-0.29 72.62,-2.83 z" />
        <path
           style="fill:#5e2f15"
           id="path846"
           d="m 5,414.3 c 0,0.94 0,1.87 0,2.81 51.61,-0.61 101.07,-1.42 131.67,-4 -32.21,1 -84.45,0.1 -131.73,-0.32 C 5,413.32 5,413.81 5,414.3 Z" />
        <path
           style="fill:#5e2f15"
           id="path848"
           d="m 6.61,287 c 0,0.19 0,0.38 0,0.57 31.08,-0.33 64.69,-0.88 86.9,-1.57 z" />
        <path
           style="fill:#5e2f15"
           id="path850"
           d="m 254.75,312.37 c -8.15,0.75 14.23,4.13 29.51,2.72 8.15,-0.75 -14.26,-4.09 -29.51,-2.72 z" />
        <path
           style="fill:#5e2f15"
           id="path852"
           d="m 254.75,290.58 c 36.16,0.86 182.23,-0.43 88.51,-2.72 C 307.1,287 161,288.3 254.75,290.58 Z" />
        <path
           style="fill:#5e2f15"
           id="path854"
           d="m 313.76,306.93 h -177 c -23.61,-0.22 -97.62,-0.32 -130.34,0.34 0,0.65 0,1.3 0,1.94 3.46,0.14 7.53,0.29 12.29,0.44 h 265.55 c 31.37,0.11 74.9,-1.28 29.5,-2.72 z" />
        <path
           style="fill:#5e2f15"
           id="path856"
           d="m 313.76,304.2 c 16.39,0 33.48,-2.21 0,-2.72 -16.39,-0.01 -33.47,2.21 0,2.72 z" />
        <path
           style="fill:#5e2f15"
           id="path858"
           d="m 402.27,312.37 c -16.4,0 -33.48,2.21 0,2.72 16.39,0.01 33.47,-2.2 0,-2.72 z" />
        <path
           style="fill:#5e2f15"
           id="path860"
           d="m 166.25,312.37 c -8.15,0.75 14.23,4.13 29.5,2.72 8.16,-0.75 -14.23,-4.09 -29.5,-2.72 z" />
        <path
           style="fill:#5e2f15"
           id="path862"
           d="m 313.76,279.69 c -6.52,2.12 -24.72,3.17 -59,2.72 h -88.5 c 6.51,2.12 24.72,3.17 59,2.72 h 206.51 c -0.09,1.51 23.88,3.09 29.5,0 C 418.86,277 386.94,285 313.76,279.69 Z" />
        <path
           style="fill:#5e2f15"
           id="path864"
           d="m 225.25,293.31 c -69.3,0.38 -152.77,-0.54 -218.89,0.13 Q 6.28,297 6.3,300.5 c 51.17,1.62 100.09,3 130.44,-1.75 -44.14,-0.46 -108.88,1 -118,-2.71 55.78,-0.57 291.47,1.83 206.51,-2.73 z" />
        <path
           style="fill:#5e2f15"
           id="path866"
           d="m 110.92,285.26 c -4.32,0.25 -10.3,0.49 -17.45,0.71 25.89,-0.31 37.53,-0.57 17.45,-0.71 z" />
        <path
           style="fill:#5e2f15"
           id="path868"
           d="m 77.74,282.41 c 10.2,0.24 -13.51,2.72 -29.5,2.72 31.9,0 51.87,0 62.68,0.12 14.93,-0.84 10.26,-1.84 -33.18,-2.84 z" />
        <path
           style="fill:#5e2f15;fill-rule:evenodd"
           id="path870"
           d="m 579.28,219.77 c -171.22,-2.87 -12.3,11.8 0,0 z" />
        <path
           style="fill:#5e2f15;fill-rule:evenodd"
           id="path872"
           d="m 638.28,339.61 c -89.75,-7.44 80.53,8.28 0,0 z" />
        <path
           style="fill:#5e2f15;fill-rule:evenodd"
           id="path874"
           d="m 874.3,257.9 c -80.53,8.28 89.75,-7.43 0,0 z" />
        <path
           style="fill:#5e2f15;fill-rule:evenodd"
           id="path876"
           d="m 1051.32,105.38 c -89.75,-7.43 80.53,8.29 0,0 z" />
        <path
           style="fill:#5e2f15;fill-rule:evenodd"
           id="path878"
           d="m 431.77,80.87 c -89.75,-7.43 80.52,8.29 0,0 z" />
        <path
           style="fill:#5e2f15;fill-rule:evenodd"
           id="path880"
           d="m 1274.84,48.77 c -17.06,-1.34 -11.54,-0.69 0,0.43 z" />
        <path
           style="fill:#5e2f15;fill-rule:evenodd"
           id="path882"
           d="m 933.3,26.39 c -152.26,-5.71 -182.57,10 0,0 z" />
      </g>
      <polygon
         style="opacity:0.79000005;fill:#1d1d1b"
         id="polygon886"
         points="6.54,312.14 7.22,361.45 5.5,375.64 5.5,474.04 7.66,476.85 6,532.71 5.5,550.99 5.5,704.8 5.68,715.84 25.34,717.17 25.45,717.17 25.17,706.51 25.5,704.62 25.5,26.18 1265.5,26.18 1265.5,26.88 1275.79,27.53 1275.58,6.18 5.5,6.18 5.5,12.48 6.5,15.51 7.46,76.89 9.66,185.45 8.03,228.71 8.16,251.36 11.65,257.51 " />
      <path
         style="fill:url(#Gold_15)"
         id="path888"
         d="m 1260.5,21.18 v 680 H 20.5 v -680 h 1240 m 20,-20 H 0.5 v 720 h 1280 z" />
      <path
         style="fill:url(#linearGradient4608);stroke:url(#linearGradient4610);stroke-miterlimit:10"
         id="path890"
         stroke-miterlimit="10"
         d="M 39.12,39.8 C 39.12,78.42 0.5,78.42 0.5,78.42 V 1.18 h 77.24 c 0,0 0,38.62 -38.62,38.62 z" />
      <path
         style="fill:url(#Gold_18-2);stroke:url(#Gold_11-2);stroke-miterlimit:10"
         id="path892"
         stroke-miterlimit="10"
         d="m 1241.88,39.8 c 0,38.62 38.62,38.62 38.62,38.62 V 1.18 h -77.24 c 0,0 0,38.62 38.62,38.62 z" />
      <path
         style="fill:url(#Gold_18-3);stroke:url(#Gold_11-3);stroke-miterlimit:10"
         id="path894"
         stroke-miterlimit="10"
         d="M 39.12,682.56 C 39.12,643.93 0.5,643.93 0.5,643.93 v 77.24 h 77.24 c 0,0 0,-38.61 -38.62,-38.61 z" />
      <path
         style="fill:url(#Gold_18-4);stroke:url(#Gold_11-4);stroke-miterlimit:10"
         id="path896"
         stroke-miterlimit="10"
         d="m 1241.88,682.56 c 0,-38.62 38.62,-38.62 38.62,-38.62 v 77.24 h -77.24 c 0,0 0,-38.62 38.62,-38.62 z" />
      <g
         id="g904">
        <circle
           style="fill:#1d1d1b"
           id="circle898"
           r="10.5"
           cy="30.299999"
           cx="23" />
        <circle
           style="fill:url(#linearGradient4612)"
           id="circle900"
           r="10.5"
           cy="29.299999"
           cx="22" />
        <rect
           style="fill:url(#linearGradient4614)"
           id="rect902"
           transform="matrix(0.84,-0.54,0.54,0.84,-12.41,16.42)"
           height="19.07"
           width="4.04"
           y="19.76"
           x="19.68" />
      </g>
      <g
         id="g912">
        <circle
           style="fill:#1d1d1b"
           id="circle906"
           r="10.5"
           cy="694.06"
           cx="23" />
        <circle
           style="fill:url(#Gold_30-2)"
           id="circle908"
           r="10.5"
           cy="693.06"
           cx="22" />
        <rect
           style="fill:url(#Gold_17-2)"
           id="rect910"
           transform="rotate(-32.8,21.668968,692.96487)"
           height="19.07"
           width="4.04"
           y="683.51001"
           x="19.68" />
      </g>
      <g
         id="g920">
        <circle
           style="fill:#1d1d1b"
           id="circle914"
           r="10.5"
           cy="30.299999"
           cx="1255" />
        <circle
           style="fill:url(#Gold_30-3)"
           id="circle916"
           r="10.5"
           cy="29.299999"
           cx="1254" />
        <rect
           style="fill:url(#Gold_17-3)"
           id="rect918"
           transform="rotate(-32.8,1253.5376,29.34377)"
           height="19.07"
           width="4.04"
           y="19.76"
           x="1251.6801" />
      </g>
      <g
         id="g928">
        <circle
           style="fill:#1d1d1b"
           id="circle922"
           r="10.5"
           cy="694.06"
           cx="1255" />
        <circle
           style="fill:url(#Gold_30-4)"
           id="circle924"
           r="10.5"
           cy="693.06"
           cx="1254" />
        <rect
           style="fill:url(#Gold_17-4)"
           id="rect926"
           transform="rotate(-32.8,1253.4994,693.01085)"
           height="19.07"
           width="4.04"
           y="683.51001"
           x="1251.6801" />
      </g>
    </g>
  </g>
</svg>
