<?xml version="1.0" encoding="UTF-8" standalone="no"?>
<svg
   xmlns:vfp="http://www.labcenter.com/namespaces/vfp"
   xmlns:dc="http://purl.org/dc/elements/1.1/"
   xmlns:cc="http://creativecommons.org/ns#"
   xmlns:rdf="http://www.w3.org/1999/02/22-rdf-syntax-ns#"
   xmlns:svg="http://www.w3.org/2000/svg"
   xmlns="http://www.w3.org/2000/svg"
   xmlns:sodipodi="http://sodipodi.sourceforge.net/DTD/sodipodi-0.dtd"
   xmlns:inkscape="http://www.inkscape.org/namespaces/inkscape"
   viewBox="0 0 125 125"
   version="1.1"
   id="svg58"
   sodipodi:docname="JoyStickUpdate.svg"
   inkscape:version="0.92.1 r15371">
  
  <defs
     id="defs12">
    <radialGradient
       id="radial-gradient"
       cx="62.5"
       cy="62.5"
       r="62.5"
       gradientUnits="userSpaceOnUse"
       gradientTransform="translate(-75,-75)">
      <stop
         offset="0"
         stop-color="#fff"
         stop-opacity="0"
         id="stop2" />
      <stop
         offset="1"
         stop-opacity="0.5"
         id="stop4" />
    </radialGradient>
    <radialGradient
       id="radial-gradient-2"
       cx="62.5"
       cy="62.5"
       r="62.09"
       gradientUnits="userSpaceOnUse"
       gradientTransform="translate(-75,-75)">
      <stop
         offset="0"
         stop-opacity="0"
         id="stop7" />
      <stop
         offset="1"
         stop-opacity="0.15"
         id="stop9" />
    </radialGradient>
  </defs>
  
    <vfp:catalogue
     PREFIX="JoyStick"
     CATEGORY="Miscellaneous"
     DESC="JoyStick" />
  
  <g
     vfp:class="JoyStick"
     transform="translate(75,75)">
    <g
       class="limits">
      <circle
         cx="-12.5"
         cy="-12.5"
         r="62.5"
         style="fill:#575756"
         id="circle16" />
      <circle
         cx="-12.5"
         cy="-12.5"
         r="62.5"
         style="fill:url(#radial-gradient)"
         id="circle18" />
    </g>
    <g
       class="stick"
       style="display:inline">
      <circle
         cx="-12.5"
         cy="-12.5"
         r="62.5"
         style="fill:#706f6f"
         id="circle20" />
      <path
         d="m -7.64,46.67 h -9.72 a 4.08,4.08 0 0 1 -3.61,-6 l 4.86,-9.19 a 4.08,4.08 0 0 1 7.21,0 l 4.9,9.21 a 4.08,4.08 0 0 1 -3.64,5.98 z"
         style="fill:#3c3c3b"
         id="path22"
         inkscape:connector-curvature="0" />
      <path
         d="m -17.36,-71.67 h 9.71 a 4.08,4.08 0 0 1 3.61,6 l -4.85,9.17 a 4.08,4.08 0 0 1 -7.21,0 l -4.9,-9.19 a 4.08,4.08 0 0 1 3.64,-5.98 z"
         style="fill:#3c3c3b"
         id="path24"
         inkscape:connector-curvature="0" />
      <path
         d="m -71.67,-7.64 v -9.72 a 4.08,4.08 0 0 1 6,-3.61 l 9.19,4.86 a 4.08,4.08 0 0 1 0,7.21 l -9.21,4.9 a 4.08,4.08 0 0 1 -5.98,-3.64 z"
         style="fill:#3c3c3b"
         id="path28"
         inkscape:connector-curvature="0" />
      <path
         d="m 46.67,-17.36 v 9.71 a 4.08,4.08 0 0 1 -6,3.61 L 31.48,-8.9 a 4.08,4.08 0 0 1 0,-7.21 L 40.69,-21 a 4.08,4.08 0 0 1 5.98,3.64 z"
         style="fill:#3c3c3b"
         id="path30"
         inkscape:connector-curvature="0" />
      <path
         d="m -50.91,32.78 -6.87,-6.87 a 4.08,4.08 0 0 1 1.68,-6.78 l 9.93,-3.06 a 4.08,4.08 0 0 1 5.1,5.1 l -3.06,9.93 a 4.08,4.08 0 0 1 -6.78,1.68 z"
         style="fill:#3c3c3b"
         id="path36"
         inkscape:connector-curvature="0" />
      <path
         d="m 25.91,-57.78 6.87,6.87 a 4.08,4.08 0 0 1 -1.68,6.78 l -9.93,3.06 a 4.08,4.08 0 0 1 -5.1,-5.1 l 3.06,-9.93 a 4.08,4.08 0 0 1 6.78,-1.68 z"
         style="fill:#3c3c3b"
         id="path38"
         inkscape:connector-curvature="0" />
      <path
         d="m -57.78,-50.91 6.87,-6.87 a 4.08,4.08 0 0 1 6.78,1.68 l 3.06,9.93 a 4.08,4.08 0 0 1 -5.1,5.1 l -9.93,-3.06 a 4.08,4.08 0 0 1 -1.68,-6.78 z"
         style="fill:#3c3c3b"
         id="path42"
         inkscape:connector-curvature="0" />
      <path
         d="m 32.78,25.91 -6.87,6.87 A 4.08,4.08 0 0 1 19.13,31.1 l -3.06,-9.93 a 4.08,4.08 0 0 1 5.1,-5.1 l 9.93,3.06 a 4.08,4.08 0 0 1 1.68,6.78 z"
         style="fill:#3c3c3b"
         id="path44"
         inkscape:connector-curvature="0" />
      <circle
         id="circle52"
         style="fill:url(#radial-gradient-2)"
         r="62.09"
         cy="-12.5"
         cx="-12.5" />
    </g>
  </g>
</svg>
