<?xml version="1.0" encoding="UTF-8" standalone="no"?>
<svg
   xmlns:vfp="http://www.labcenter.com/namespaces/vfp"
   xmlns:dc="http://purl.org/dc/elements/1.1/"
   xmlns:cc="http://creativecommons.org/ns#"
   xmlns:rdf="http://www.w3.org/1999/02/22-rdf-syntax-ns#"
   xmlns:svg="http://www.w3.org/2000/svg"
   xmlns="http://www.w3.org/2000/svg"
   xmlns:xlink="http://www.w3.org/1999/xlink"
   xmlns:sodipodi="http://sodipodi.sourceforge.net/DTD/sodipodi-0.dtd"
   xmlns:inkscape="http://www.inkscape.org/namespaces/inkscape"
   viewBox="0 0 400 200"
   version="1.1"
   id="svg264"
   sodipodi:docname="Timer D.svg"
   inkscape:version="0.92.1 r15371">
  <metadata
     id="metadata270">
    <rdf:RDF>
      <cc:Work
         rdf:about="">
        <dc:format>image/svg+xml</dc:format>
        <dc:type
           rdf:resource="http://purl.org/dc/dcmitype/StillImage" />
      </cc:Work>
    </rdf:RDF>
  </metadata>
  <defs
     id="defs268">
    <linearGradient
       inkscape:collect="always"
       xlink:href="#116-0-4-40"
       id="linearGradient8702-5-4-3-4"
       gradientUnits="userSpaceOnUse"
       x1="92.187576"
       y1="378.08722"
       x2="93.846298"
       y2="379.58893" />
    <linearGradient
       id="116-0-4-40"
       x1="98.800003"
       y1="1168.87"
       x2="182.39"
       y2="1168.87"
       gradientUnits="userSpaceOnUse">
      <stop
         offset="0"
         stop-color="#886229"
         id="stop12480-76-4-8" />
      <stop
         offset="0.09"
         stop-color="#997538"
         id="stop12482-7-2-81" />
      <stop
         offset="0.26"
         stop-color="#b89653"
         id="stop12484-83-5-5" />
      <stop
         offset="0.41"
         stop-color="#caab63"
         id="stop12486-64-0-2" />
      <stop
         offset="0.51"
         stop-color="#d1b269"
         id="stop12488-4-4-32" />
      <stop
         offset="0.61"
         stop-color="#ccad65"
         id="stop12490-1-2-46" />
      <stop
         offset="0.73"
         stop-color="#bf9e59"
         id="stop12492-95-1-66" />
      <stop
         offset="0.86"
         stop-color="#a88645"
         id="stop12494-57-2-2" />
      <stop
         offset="0.99"
         stop-color="#89642a"
         id="stop12496-4-7-9" />
      <stop
         offset="1"
         stop-color="#886229"
         id="stop12498-7-7-04" />
    </linearGradient>
    <linearGradient
       gradientTransform="translate(-1.8525391e-5,-1.7368164e-6)"
       inkscape:collect="always"
       xlink:href="#linearGradient7854-7-0-6-7"
       id="linearGradient3794"
       x1="-6.6202087"
       y1="-83.275261"
       x2="166.20209"
       y2="159.23344"
       gradientUnits="userSpaceOnUse" />
    <linearGradient
       id="linearGradient7854-7-0-6-7">
      <stop
         id="stop7856-9-33-2-7"
         offset="0"
         style="stop-color:#ffffff;stop-opacity:1;" />
      <stop
         style="stop-color:#c7af82;stop-opacity:0;"
         offset="0.99999976"
         id="stop7862-5-6-1-9" />
      <stop
         id="stop7858-5-22-6-4"
         offset="1"
         style="stop-color:#c7af82;stop-opacity:0;" />
    </linearGradient>
    <linearGradient
       inkscape:collect="always"
       xlink:href="#116-0-4-40"
       id="linearGradient4220"
       gradientUnits="userSpaceOnUse"
       x1="92.187576"
       y1="378.08722"
       x2="93.846298"
       y2="379.58893" />
    <linearGradient
       inkscape:collect="always"
       xlink:href="#116-0-4-40"
       id="linearGradient4222"
       gradientUnits="userSpaceOnUse"
       x1="92.187576"
       y1="378.08722"
       x2="93.846298"
       y2="379.58893" />
    <linearGradient
       inkscape:collect="always"
       xlink:href="#116-0-4-40"
       id="linearGradient4224"
       gradientUnits="userSpaceOnUse"
       x1="92.187576"
       y1="378.08722"
       x2="93.846298"
       y2="379.58893" />
  </defs>
  <sodipodi:namedview
     pagecolor="#ffffff"
     bordercolor="#666666"
     borderopacity="1"
     objecttolerance="10"
     gridtolerance="10"
     guidetolerance="10"
     inkscape:pageopacity="0"
     inkscape:pageshadow="2"
     inkscape:window-width="1920"
     inkscape:window-height="1018"
     id="namedview266"
     showgrid="false"
     inkscape:zoom="2.0293965"
     inkscape:cx="202.2734"
     inkscape:cy="135.88973"
     inkscape:window-x="-8"
     inkscape:window-y="-8"
     inkscape:window-maximized="1"
     inkscape:current-layer="root" />
  <vfp:catalogue
     DESC="Digital Timer"
     CATEGORY="Clocks and Timers"
     PREFIX="Timer" />
  <g
     vfp:class="Timer"
     id="root">
    <rect
       y="0"
       x="1.5258789e-005"
       id="rect4-6"
       style="fill:#221406;fill-opacity:1"
       ry="18.5"
       rx="18.5"
       height="200"
       width="400" />
    <rect
       y="0"
       x="0"
       id="rect4-0"
       style="fill:url(#linearGradient3794);fill-opacity:1;stroke:#000000;stroke-opacity:1"
       ry="18.5"
       rx="18.5"
       height="200"
       width="400" />
    <rect
       id="rect6-4"
       style="fill:#c7af82;fill-opacity:1;stroke:#1d1d1b;stroke-miterlimit:10"
       ry="16.91"
       rx="16.91"
       height="177.91"
       width="375.66"
       y="11.050003"
       x="12.17" />
    <g
       class="segments"
       style="fill:#000000"
       id="g226">
      <g
         class="digits"
         id="g156">
        <g
           class="digit"
           id="g138">
          <polygon
             id="polygon124"
             points="311.53,46.22 314.37,43.27 311.53,40.32 311.38,40.32 284.41,40.32 284.26,40.32 281.42,43.27 284.26,46.22 284.41,46.22 311.38,46.22 " />
          <polygon
             id="polygon126"
             points="319.4,48.9 316.28,46.22 313.17,48.9 313.17,49.04 313.17,74.51 313.17,74.65 316.28,77.33 319.4,74.65 319.4,74.51 319.4,49.04 " />
          <polygon
             id="polygon128"
             points="319.4,86.7 316.28,84.02 313.17,86.7 313.17,86.84 313.17,112.31 313.17,112.46 316.28,115.14 319.4,112.46 319.4,112.31 319.4,86.84 " />
          <polygon
             id="polygon130"
             points="311.53,121.72 314.37,118.77 311.53,115.83 311.38,115.83 284.41,115.83 284.26,115.83 281.42,118.77 284.26,121.72 284.41,121.72 311.38,121.72 " />
          <polygon
             id="polygon132"
             points="282.62,87.39 279.5,84.71 276.38,87.39 276.38,87.53 276.38,113 276.38,113.14 279.5,115.83 282.62,113.14 282.62,113 282.62,87.53 " />
          <polygon
             id="polygon134"
             points="282.62,49.59 279.5,46.9 276.38,49.59 276.38,49.73 276.38,75.2 276.38,75.34 279.5,78.02 282.62,75.34 282.62,75.2 282.62,49.73 " />
          <polygon
             id="polygon136"
             points="311.53,83.97 314.37,81.02 311.53,78.07 311.38,78.07 284.41,78.07 284.26,78.07 281.42,81.02 284.26,83.97 284.41,83.97 311.38,83.97 " />
        </g>
        <g
           class="digit"
           id="g154">
          <polygon
             id="polygon140"
             points="362.44,46.22 365.28,43.27 362.44,40.32 362.29,40.32 335.32,40.32 335.17,40.32 332.33,43.27 335.17,46.22 335.32,46.22 362.29,46.22 " />
          <polygon
             id="polygon142"
             points="370.31,48.9 367.2,46.22 364.08,48.9 364.08,49.04 364.08,74.51 364.08,74.65 367.2,77.33 370.31,74.65 370.31,74.51 370.31,49.04 " />
          <polygon
             id="polygon144"
             points="370.31,86.7 367.2,84.02 364.08,86.7 364.08,86.84 364.08,112.31 364.08,112.46 367.2,115.14 370.31,112.46 370.31,112.31 370.31,86.84 " />
          <polygon
             id="polygon146"
             points="362.44,121.72 365.28,118.77 362.44,115.83 362.29,115.83 335.32,115.83 335.17,115.83 332.33,118.77 335.17,121.72 335.32,121.72 362.29,121.72 " />
          <polygon
             id="polygon148"
             points="333.53,87.39 330.41,84.71 327.29,87.39 327.29,87.53 327.29,113 327.29,113.14 330.41,115.83 333.53,113.14 333.53,113 333.53,87.53 " />
          <polygon
             id="polygon150"
             points="333.53,49.59 330.41,46.9 327.29,49.59 327.29,49.73 327.29,75.2 327.29,75.34 330.41,78.02 333.53,75.34 333.53,75.2 333.53,49.73 " />
          <polygon
             id="polygon152"
             points="362.44,83.97 365.28,81.02 362.44,78.07 362.29,78.07 335.32,78.07 335.17,78.07 332.33,81.02 335.17,83.97 335.32,83.97 362.29,83.97 " />
        </g>
        <g
           class="digit"
           id="g172">
          <polygon
             id="polygon158"
             points="188.8,46.22 191.64,43.27 188.8,40.32 188.65,40.32 161.68,40.32 161.53,40.32 158.69,43.27 161.53,46.22 161.68,46.22 188.65,46.22 " />
          <polygon
             id="polygon160"
             points="196.67,48.9 193.56,46.22 190.44,48.9 190.44,49.04 190.44,74.51 190.44,74.65 193.56,77.33 196.67,74.65 196.67,74.51 196.67,49.04 " />
          <polygon
             id="polygon162"
             points="196.67,86.7 193.56,84.02 190.44,86.7 190.44,86.84 190.44,112.31 190.44,112.46 193.56,115.14 196.67,112.46 196.67,112.31 196.67,86.84 " />
          <polygon
             id="polygon164"
             points="188.8,121.72 191.64,118.77 188.8,115.83 188.65,115.83 161.68,115.83 161.53,115.83 158.69,118.77 161.53,121.72 161.68,121.72 188.65,121.72 " />
          <polygon
             id="polygon166"
             points="159.89,87.39 156.77,84.71 153.65,87.39 153.65,87.53 153.65,113 153.65,113.14 156.77,115.83 159.89,113.14 159.89,113 159.89,87.53 " />
          <polygon
             id="polygon168"
             points="159.89,49.59 156.77,46.9 153.65,49.59 153.65,49.73 153.65,75.2 153.65,75.34 156.77,78.02 159.89,75.34 159.89,75.2 159.89,49.73 " />
          <polygon
             id="polygon170"
             points="188.8,83.97 191.64,81.02 188.8,78.07 188.65,78.07 161.68,78.07 161.53,78.07 158.69,81.02 161.53,83.97 161.68,83.97 188.65,83.97 " />
        </g>
        <g
           class="digit"
           id="g188">
          <polygon
             id="polygon174"
             points="239.71,46.22 242.55,43.27 239.71,40.32 239.56,40.32 212.59,40.32 212.44,40.32 209.6,43.27 212.44,46.22 212.59,46.22 239.56,46.22 " />
          <polygon
             id="polygon176"
             points="247.59,48.9 244.47,46.22 241.35,48.9 241.35,49.04 241.35,74.51 241.35,74.65 244.47,77.33 247.59,74.65 247.59,74.51 247.59,49.04 " />
          <polygon
             id="polygon178"
             points="247.59,86.7 244.47,84.02 241.35,86.7 241.35,86.84 241.35,112.31 241.35,112.46 244.47,115.14 247.59,112.46 247.59,112.31 247.59,86.84 " />
          <polygon
             id="polygon180"
             points="239.71,121.72 242.55,118.77 239.71,115.83 239.56,115.83 212.59,115.83 212.44,115.83 209.6,118.77 212.44,121.72 212.59,121.72 239.56,121.72 " />
          <polygon
             id="polygon182"
             points="210.8,87.39 207.68,84.71 204.56,87.39 204.56,87.53 204.56,113 204.56,113.14 207.68,115.83 210.8,113.14 210.8,113 210.8,87.53 " />
          <polygon
             id="polygon184"
             points="210.8,49.59 207.68,46.9 204.56,49.59 204.56,49.73 204.56,75.2 204.56,75.34 207.68,78.02 210.8,75.34 210.8,75.2 210.8,49.73 " />
          <polygon
             id="polygon186"
             points="239.71,83.97 242.55,81.02 239.71,78.07 239.56,78.07 212.59,78.07 212.44,78.07 209.6,81.02 212.44,83.97 212.59,83.97 239.56,83.97 " />
        </g>
        <g
           class="digit"
           id="g206">
          <polygon
             id="polygon192"
             points="66.07,46.22 68.91,43.27 66.07,40.32 65.92,40.32 38.95,40.32 38.8,40.32 35.96,43.27 38.8,46.22 38.95,46.22 65.92,46.22 " />
          <polygon
             id="polygon194"
             points="73.94,48.9 70.83,46.22 67.7,48.9 67.7,49.04 67.7,74.51 67.7,74.65 70.83,77.33 73.94,74.65 73.94,74.51 73.94,49.04 " />
          <polygon
             id="polygon196"
             points="73.94,86.7 70.83,84.02 67.7,86.7 67.7,86.84 67.7,112.31 67.7,112.46 70.83,115.14 73.94,112.46 73.94,112.31 73.94,86.84 " />
          <polygon
             id="polygon198"
             points="66.07,121.72 68.91,118.77 66.07,115.83 65.92,115.83 38.95,115.83 38.8,115.83 35.96,118.77 38.8,121.72 38.95,121.72 65.92,121.72 " />
          <polygon
             id="polygon200"
             points="37.16,87.39 34.04,84.71 30.92,87.39 30.92,87.53 30.92,113 30.92,113.14 34.04,115.83 37.16,113.14 37.16,113 37.16,87.53 " />
          <polygon
             id="polygon202"
             points="37.16,49.59 34.04,46.9 30.92,49.59 30.92,49.73 30.92,75.2 30.92,75.34 34.04,78.02 37.16,75.34 37.16,75.2 37.16,49.73 " />
          <polygon
             id="polygon204"
             points="66.07,83.97 68.91,81.02 66.07,78.07 65.92,78.07 38.95,78.07 38.8,78.07 35.96,81.02 38.8,83.97 38.95,83.97 65.92,83.97 " />
        </g>
        <g
           class="digit"
           id="g222">
          <polygon
             id="polygon208"
             points="116.98,46.22 119.82,43.27 116.98,40.32 116.83,40.32 89.86,40.32 89.71,40.32 86.87,43.27 89.71,46.22 89.86,46.22 116.83,46.22 " />
          <polygon
             id="polygon210"
             points="124.86,48.9 121.74,46.22 118.62,48.9 118.62,49.04 118.62,74.51 118.62,74.65 121.74,77.33 124.86,74.65 124.86,74.51 124.86,49.04 " />
          <polygon
             id="polygon212"
             points="124.86,86.7 121.74,84.02 118.62,86.7 118.62,86.84 118.62,112.31 118.62,112.46 121.74,115.14 124.86,112.46 124.86,112.31 124.86,86.84 " />
          <polygon
             id="polygon214"
             points="116.98,121.72 119.82,118.77 116.98,115.83 116.83,115.83 89.86,115.83 89.71,115.83 86.87,118.77 89.71,121.72 89.86,121.72 116.83,121.72 " />
          <polygon
             id="polygon216"
             points="88.07,87.39 84.95,84.71 81.83,87.39 81.83,87.53 81.83,113 81.83,113.14 84.95,115.83 88.07,113.14 88.07,113 88.07,87.53 " />
          <polygon
             id="polygon218"
             points="88.07,49.59 84.95,46.9 81.83,49.59 81.83,49.73 81.83,75.2 81.83,75.34 84.95,78.02 88.07,75.34 88.07,75.2 88.07,49.73 " />
          <polygon
             id="polygon220"
             points="116.98,83.97 119.82,81.02 116.98,78.07 116.83,78.07 89.86,78.07 89.71,78.07 86.87,81.02 89.71,83.97 89.86,83.97 116.83,83.97 " />
        </g>
      </g>
      <g
         id="g114"
         class="colons">
        <circle
           id="circle110"
           r="3.5599999"
           cy="67.900002"
           cx="261.98001" />
        <circle
           id="circle112"
           r="3.5599999"
           cy="94.139999"
           cx="261.98001" />
        <circle
           id="circle116"
           r="3.5599999"
           cy="67.900002"
           cx="139.25" />
        <circle
           id="circle118"
           r="3.5599999"
           cy="94.139999"
           cx="139.25" />
      </g>
      <g
         class="alarm"
         id="g5539">
        <path
           id="path258"
           d="m 86.12,153.93 h 2.45 A 15.47,15.47 0 0 0 73.11,138.47 v 2.45 a 13,13 0 0 1 13.01,13.01 z m -6.89,-0.5 h 2.45 a 8.36,8.36 0 0 0 -8.35,-8.35 v 2.45 a 5.91,5.91 0 0 1 5.9,5.9 z m -29.94,0.5 h -2.46 a 15.47,15.47 0 0 1 15.46,-15.46 v 2.45 a 13,13 0 0 0 -13,13.01 z m 6.89,-0.5 h -2.45 a 8.36,8.36 0 0 1 8.35,-8.35 v 2.45 a 5.91,5.91 0 0 0 -5.9,5.9 z M 74,178.53 v 0 c 0,2.41 -1.48,4.39 -3.28,4.39 h -6.19 c -1.8,0 -3.28,-2 -3.28,-4.39 v 0 M 82.87,173 c 0,-3.08 -3.62,-5.52 -5.31,-9.2 l -1.06,-3 c -1.74,-6.67 -0.87,-9.21 -6.8,-11.61 a 2.32,2.32 0 0 0 0.19,-0.73 v 0 c 0,-0.06 0,-0.12 0,-0.19 0,-0.07 0,-0.13 0,-0.19 v 0 a 2.27,2.27 0 0 0 -0.32,-1 v 0 a 2.29,2.29 0 0 0 -0.37,-0.45 v 0 l -0.2,-0.23 -0.21,-0.14 -0.15,-0.08 a 2.19,2.19 0 0 0 -0.35,-0.14 H 68.18 68.1 67.9 67.6 67.3 67.13 67.05 L 67,146 a 2.19,2.19 0 0 0 -0.35,0.14 l -0.15,0.08 -0.21,0.14 -0.19,0.15 v 0 a 2.29,2.29 0 0 0 -0.37,0.45 v 0 a 2.27,2.27 0 0 0 -0.32,1 v 0 c 0,0.06 0,0.13 0,0.19 0,0.06 0,0.13 0,0.19 v 0 a 2.33,2.33 0 0 0 0.19,0.73 c -5.93,2.39 -5.06,4.93 -6.8,11.61 l -1.06,3 c -1.69,3.68 -5.32,6.11 -5.31,9.2 0,4 -0.52,3.87 1.93,3.87 h 26.59 c 2.44,0.09 1.9,0.19 1.92,-3.75 z"
           inkscape:connector-curvature="0" />
      </g>
    </g>
    <rect
       class="inputArea"
       style="fill-opacity:0;stroke:none"
       id="rect5545"
       width="239.0244"
       height="45.993034"
       x="127.52613"
       y="139.72125" />
    <text
       class="label"
       id="text232"
       style="font-style:normal;font-variant:normal;font-weight:normal;font-stretch:normal;font-size:46.26533508px;font-family:monospace;-inkscape-font-specification:'monospace, Normal';font-variant-ligatures:normal;font-variant-caps:normal;font-variant-numeric:normal;font-feature-settings:normal;text-align:start;writing-mode:lr-tb;text-anchor:start;fill:#1d1d1b"
       transform="translate(130.89,179.39)">Timer</text>
    <g
       transform="matrix(1.5148858,-2.6238593,2.6557321,1.5332877,-1136.2607,-230.60612)"
       id="g7135-32-9">
      <ellipse
         style="color:#000000;display:inline;overflow:visible;visibility:visible;opacity:0.75;fill:url(#linearGradient4220);fill-opacity:1;fill-rule:nonzero;stroke:#141414;stroke-width:0.15007737;stroke-linecap:round;stroke-linejoin:round;stroke-miterlimit:4;stroke-dasharray:none;stroke-opacity:1;marker:none;enable-background:accumulate"
         id="path7072-1-3"
         transform="matrix(1.8538602,0,0,1.9212438,-96.148189,-333.4672)"
         cx="92.952209"
         cy="378.83807"
         rx="1.2721561"
         ry="1.2297509" />
      <ellipse
         style="color:#000000;display:inline;overflow:visible;visibility:visible;fill:none;stroke:#221406;stroke-width:0.0202145;stroke-linecap:round;stroke-linejoin:round;stroke-miterlimit:4;stroke-dasharray:none;stroke-opacity:1;marker:none;enable-background:accumulate"
         id="path7113-6-1"
         transform="matrix(1.3362153,0,0,1.4692217,-40.070873,-157.58242)"
         cx="86.994278"
         cy="375.67886"
         rx="0.95411712"
         ry="0.86930668" />
      <path
         style="fill:none;stroke:#141414;stroke-width:0.54413688;stroke-linecap:round;stroke-linejoin:miter;stroke-miterlimit:4;stroke-dasharray:none;stroke-opacity:1"
         d="m 76.172213,393.29163 v 2.16299"
         id="path7115-3-1"
         inkscape:connector-curvature="0" />
      <path
         style="fill:none;stroke:#141414;stroke-width:0.54413688;stroke-linecap:round;stroke-linejoin:miter;stroke-miterlimit:4;stroke-dasharray:none;stroke-opacity:1"
         d="M 77.251761,394.37312 H 75.092663"
         id="path7115-8-8-9"
         inkscape:connector-curvature="0" />
    </g>
    <g
       transform="matrix(1.5148858,-2.6238593,2.6557321,1.5332877,-792.35824,-375.20543)"
       id="g7135-32-9-2">
      <ellipse
         style="color:#000000;display:inline;overflow:visible;visibility:visible;opacity:0.75;fill:url(#linearGradient4222);fill-opacity:1;fill-rule:nonzero;stroke:#141414;stroke-width:0.15007737;stroke-linecap:round;stroke-linejoin:round;stroke-miterlimit:4;stroke-dasharray:none;stroke-opacity:1;marker:none;enable-background:accumulate"
         id="path7072-1-3-9"
         transform="matrix(1.8538602,0,0,1.9212438,-96.148189,-333.4672)"
         cx="92.952209"
         cy="378.83807"
         rx="1.2721561"
         ry="1.2297509" />
      <ellipse
         style="color:#000000;display:inline;overflow:visible;visibility:visible;fill:none;stroke:#221406;stroke-width:0.0202145;stroke-linecap:round;stroke-linejoin:round;stroke-miterlimit:4;stroke-dasharray:none;stroke-opacity:1;marker:none;enable-background:accumulate"
         id="path7113-6-1-8"
         transform="matrix(1.3362153,0,0,1.4692217,-40.070873,-157.58242)"
         cx="86.994278"
         cy="375.67886"
         rx="0.95411712"
         ry="0.86930668" />
      <path
         style="fill:none;stroke:#141414;stroke-width:0.54413688;stroke-linecap:round;stroke-linejoin:miter;stroke-miterlimit:4;stroke-dasharray:none;stroke-opacity:1"
         d="m 76.172213,393.29163 v 2.16299"
         id="path7115-3-1-0"
         inkscape:connector-curvature="0" />
      <path
         style="fill:none;stroke:#141414;stroke-width:0.54413688;stroke-linecap:round;stroke-linejoin:miter;stroke-miterlimit:4;stroke-dasharray:none;stroke-opacity:1"
         d="M 77.251761,394.37312 H 75.092663"
         id="path7115-8-8-9-0"
         inkscape:connector-curvature="0" />
    </g>
    <g
       transform="matrix(-1.5148859,-2.6238592,2.6557321,-1.5332876,-558.78638,977.72325)"
       id="g7135-32-9-9">
      <ellipse
         style="color:#000000;display:inline;overflow:visible;visibility:visible;opacity:0.75;fill:url(#linearGradient4224);fill-opacity:1;fill-rule:nonzero;stroke:#141414;stroke-width:0.15007737;stroke-linecap:round;stroke-linejoin:round;stroke-miterlimit:4;stroke-dasharray:none;stroke-opacity:1;marker:none;enable-background:accumulate"
         id="path7072-1-3-4"
         transform="matrix(1.8538602,0,0,1.9212438,-96.148189,-333.4672)"
         cx="92.952209"
         cy="378.83807"
         rx="1.2721561"
         ry="1.2297509" />
      <ellipse
         style="color:#000000;display:inline;overflow:visible;visibility:visible;fill:none;stroke:#221406;stroke-width:0.0202145;stroke-linecap:round;stroke-linejoin:round;stroke-miterlimit:4;stroke-dasharray:none;stroke-opacity:1;marker:none;enable-background:accumulate"
         id="path7113-6-1-9"
         transform="matrix(1.3362153,0,0,1.4692217,-40.070873,-157.58242)"
         cx="86.994278"
         cy="375.67886"
         rx="0.95411712"
         ry="0.86930668" />
      <path
         style="fill:none;stroke:#141414;stroke-width:0.54413688;stroke-linecap:round;stroke-linejoin:miter;stroke-miterlimit:4;stroke-dasharray:none;stroke-opacity:1"
         d="m 76.172213,393.29163 v 2.16299"
         id="path7115-3-1-2"
         inkscape:connector-curvature="0" />
      <path
         style="fill:none;stroke:#141414;stroke-width:0.54413688;stroke-linecap:round;stroke-linejoin:miter;stroke-miterlimit:4;stroke-dasharray:none;stroke-opacity:1"
         d="M 77.251761,394.37312 H 75.092663"
         id="path7115-8-8-9-1"
         inkscape:connector-curvature="0" />
    </g>
    <g
       transform="matrix(2.9265348,-0.78416264,0.79368809,2.9620843,-507.01,-1081.6056)"
       id="g7135-32-9-98">
      <ellipse
         style="color:#000000;display:inline;overflow:visible;visibility:visible;opacity:0.75;fill:url(#linearGradient8702-5-4-3-4);fill-opacity:1;fill-rule:nonzero;stroke:#141414;stroke-width:0.15007737;stroke-linecap:round;stroke-linejoin:round;stroke-miterlimit:4;stroke-dasharray:none;stroke-opacity:1;marker:none;enable-background:accumulate"
         id="path7072-1-3-2"
         transform="matrix(1.8538602,0,0,1.9212438,-96.148189,-333.4672)"
         cx="92.952209"
         cy="378.83807"
         rx="1.2721561"
         ry="1.2297509" />
      <ellipse
         style="color:#000000;display:inline;overflow:visible;visibility:visible;fill:none;stroke:#221406;stroke-width:0.0202145;stroke-linecap:round;stroke-linejoin:round;stroke-miterlimit:4;stroke-dasharray:none;stroke-opacity:1;marker:none;enable-background:accumulate"
         id="path7113-6-1-86"
         transform="matrix(1.3362153,0,0,1.4692217,-40.070873,-157.58242)"
         cx="86.994278"
         cy="375.67886"
         rx="0.95411712"
         ry="0.86930668" />
      <path
         style="fill:none;stroke:#141414;stroke-width:0.54413688;stroke-linecap:round;stroke-linejoin:miter;stroke-miterlimit:4;stroke-dasharray:none;stroke-opacity:1"
         d="m 76.172213,393.29163 v 2.16299"
         id="path7115-3-1-1"
         inkscape:connector-curvature="0" />
      <path
         style="fill:none;stroke:#141414;stroke-width:0.54413688;stroke-linecap:round;stroke-linejoin:miter;stroke-miterlimit:4;stroke-dasharray:none;stroke-opacity:1"
         d="M 77.251761,394.37312 H 75.092663"
         id="path7115-8-8-9-4"
         inkscape:connector-curvature="0" />
    </g>
  </g>
</svg>
