<?xml version="1.0" encoding="UTF-8" standalone="no"?>
<svg
   xmlns:vfp="http://www.labcenter.com/namespaces/vfp"
   xmlns:dc="http://purl.org/dc/elements/1.1/"
   xmlns:cc="http://creativecommons.org/ns#"
   xmlns:rdf="http://www.w3.org/1999/02/22-rdf-syntax-ns#"
   xmlns:svg="http://www.w3.org/2000/svg"
   xmlns="http://www.w3.org/2000/svg"
   xmlns:xlink="http://www.w3.org/1999/xlink"
   xmlns:sodipodi="http://sodipodi.sourceforge.net/DTD/sodipodi-0.dtd"
   xmlns:inkscape="http://www.inkscape.org/namespaces/inkscape"
   viewBox="0 0 100 100"
   version="1.1"
   id="svg58"
   sodipodi:docname="Square Plain.svg"
   inkscape:version="0.92.1 r15371">
  <metadata
     id="metadata62">
    <rdf:RDF>
      <cc:Work
         rdf:about="">
        <dc:format>image/svg+xml</dc:format>
        <dc:type
           rdf:resource="http://purl.org/dc/dcmitype/StillImage" />
      </cc:Work>
    </rdf:RDF>
  </metadata>
  <sodipodi:namedview
     pagecolor="#ffffff"
     bordercolor="#666666"
     borderopacity="1"
     objecttolerance="10"
     gridtolerance="10"
     guidetolerance="10"
     inkscape:pageopacity="0"
     inkscape:pageshadow="2"
     inkscape:window-width="1920"
     inkscape:window-height="1018"
     id="namedview60"
     showgrid="false"
     inkscape:zoom="2.36"
     inkscape:cx="2.7542373"
     inkscape:cy="50"
     inkscape:window-x="-8"
     inkscape:window-y="-8"
     inkscape:window-maximized="1"
     inkscape:current-layer="g54" />
  <defs
     id="defs26">
    <linearGradient
       id="linear-gradient"
       x1="96.47"
       y1="96.47"
       x2="3.52"
       y2="3.53"
       gradientUnits="userSpaceOnUse">
      <stop
         offset="0"
         stop-opacity="0.3"
         id="stop2" />
      <stop
         offset="0.56"
         stop-opacity="0"
         id="stop4" />
    </linearGradient>
    <linearGradient
       id="linear-gradient-2"
       x1="12.92"
       y1="12.92"
       x2="87.08"
       y2="87.08"
       gradientUnits="userSpaceOnUse">
      <stop
         offset="0"
         stop-opacity="0.4"
         id="stop7" />
      <stop
         offset="0.43"
         stop-opacity="0.21"
         id="stop9" />
      <stop
         offset="0.5"
         stop-opacity="0"
         id="stop11" />
    </linearGradient>
    <linearGradient
       id="linear-gradient-3"
       x1="85.22"
       y1="85.22"
       x2="14.78"
       y2="14.78"
       gradientUnits="userSpaceOnUse">
      <stop
         offset="0.44"
         stop-opacity="0"
         id="stop14" />
      <stop
         offset="1"
         stop-opacity="0.3"
         id="stop16" />
    </linearGradient>
    <linearGradient
       id="linear-gradient-4"
       x1="13.01"
       y1="13.01"
       x2="86.99"
       y2="86.99"
       xlink:href="#linear-gradient-2" />
    <linearGradient
       id="linear-gradient-5"
       x1="82.58"
       y1="82.58"
       x2="17.42"
       y2="17.42"
       xlink:href="#linear-gradient-3" />
    <radialGradient
       id="radial-gradient"
       cx="50"
       cy="50"
       r="44.56"
       gradientUnits="userSpaceOnUse">
      <stop
         offset="0.44"
         stop-opacity="0"
         id="stop21" />
      <stop
         offset="1"
         stop-opacity="0.3"
         id="stop23" />
    </radialGradient>
    <linearGradient
       inkscape:collect="always"
       xlink:href="#linear-gradient-2"
       id="linearGradient3734"
       gradientUnits="userSpaceOnUse"
       x1="12.92"
       y1="12.92"
       x2="87.08"
       y2="87.08" />
    <linearGradient
       inkscape:collect="always"
       xlink:href="#linear-gradient-3"
       id="linearGradient3736"
       gradientUnits="userSpaceOnUse"
       x1="85.22"
       y1="85.22"
       x2="14.78"
       y2="14.78" />
  </defs>
  <vfp:catalogue
     PREFIX="Btn"
     CATEGORY="Buttons"
     DESC="Modern Square Plain Button" />
  <g vfp:class="PushButton"
     id="g54"
     inkscape:label="Root">
    <rect class="bounds"
       width="100"
       height="100"
       rx="12"
       ry="12"
       style="fill:#fffef5"
       id="rect30"
       x="0"
       y="0" />
    <rect
       width="100"
       height="100"
       rx="12"
       ry="12"
       style="fill:url(#linear-gradient)"
       id="rect32"
       x="0"
       y="0" />
    <rect
       class="lamp"
       x="9.3900003"
       y="9.3900003"
       width="81.220001"
       height="81.220001"
       rx="11.77"
       ry="11.77"
       style="fill:#e30613"
       id="rect34" />
    <g
       id="g42">
      <path
         d="m 79.07,12.56 a 8.4,8.4 0 0 1 8.37,8.37 v 58.14 a 8.4,8.4 0 0 1 -8.37,8.37 H 20.93 A 8.4,8.4 0 0 1 12.56,79.07 V 20.93 a 8.4,8.4 0 0 1 8.37,-8.37 h 58.14 m 0,-3 H 20.93 A 11.35,11.35 0 0 0 9.59,20.93 V 79.07 A 11.35,11.35 0 0 0 20.93,90.41 H 79.07 A 11.35,11.35 0 0 0 90.41,79.07 V 20.93 A 11.35,11.35 0 0 0 79.07,9.59 Z"
         style="fill:url(#linearGradient3734)"
         id="path36"
         inkscape:connector-curvature="0" />
      <rect
         class="buttonFace"
         x="12.11"
         y="12.11"
         width="75.779999"
         height="75.779999"
         rx="9.0900002"
         ry="9.0900002"
         style="fill:#fffef5"
         id="rect38" />
      <rect
         x="12.11"
         y="12.11"
         width="75.779999"
         height="75.779999"
         rx="9.0900002"
         ry="9.0900002"
         style="fill:url(#linearGradient3736)"
         id="rect40" />
    </g>
    <g
       id="g52"
       inkscape:label="Down"
       style="display:none">
      <path
         d="m 78.2,15.37 a 6.46,6.46 0 0 1 6.44,6.44 V 78.2 A 6.46,6.46 0 0 1 78.2,84.64 H 21.8 A 6.46,6.46 0 0 1 15.36,78.2 V 21.8 a 6.46,6.46 0 0 1 6.44,-6.44 h 56.4 m 0,-6 H 21.8 A 12.45,12.45 0 0 0 9.37,21.8 V 78.2 A 12.45,12.45 0 0 0 21.8,90.63 H 78.2 A 12.45,12.45 0 0 0 90.63,78.2 V 21.8 A 12.45,12.45 0 0 0 78.2,9.37 Z"
         style="fill:url(#linear-gradient-4)"
         id="path44"
         inkscape:connector-curvature="0" />
      <rect
         class="buttonFace"
         x="14.95"
         y="14.95"
         width="70.089996"
         height="70.089996"
         rx="8.4099998"
         ry="8.4099998"
         style="fill:#fffef5"
         id="rect46" />
      <rect
         x="14.95"
         y="14.95"
         width="70.089996"
         height="70.089996"
         rx="8.4099998"
         ry="8.4099998"
         style="fill:url(#linear-gradient-5)"
         id="rect48" />
      <rect
         x="14.95"
         y="14.95"
         width="70.089996"
         height="70.089996"
         rx="8.4099998"
         ry="8.4099998"
         style="fill:url(#radial-gradient)"
         id="rect50" />
    </g>
    <text
       id="text4145"
       y="137.879"
       x="51.892132"
       style="font-style:normal;font-variant:normal;font-weight:normal;font-stretch:normal;font-size:30px;line-height:125%;font-family:sans-serif;-inkscape-font-specification:'sans-serif, Normal';text-align:center;letter-spacing:0px;word-spacing:0px;writing-mode:lr-tb;text-anchor:middle;fill:#00000c;fill-opacity:1;stroke:none;stroke-width:1px;stroke-linecap:butt;stroke-linejoin:miter;stroke-opacity:1"
       xml:space="preserve">label</text>
  </g>
</svg>
