<?xml version="1.0" encoding="UTF-8" standalone="no"?>
<svg
   xmlns:vfp="http://www.labcenter.com/namespaces/vfp"
   xmlns:dc="http://purl.org/dc/elements/1.1/"
   xmlns:cc="http://creativecommons.org/ns#"
   xmlns:rdf="http://www.w3.org/1999/02/22-rdf-syntax-ns#"
   xmlns:svg="http://www.w3.org/2000/svg"
   xmlns="http://www.w3.org/2000/svg"
   xmlns:sodipodi="http://sodipodi.sourceforge.net/DTD/sodipodi-0.dtd"
   xmlns:inkscape="http://www.inkscape.org/namespaces/inkscape"
   viewBox="0 0 350 250"
   version="1.1"
   id="svg30"
   sodipodi:docname="Modern Panel Meter.svg"
   inkscape:version="0.92.1 r15371">
  
  <defs id="defs12">
    <linearGradient
       id="ModernWhitePanelMeter"
       x1="321.47"
       y1="271.47"
       x2="28.53"
       y2="-21.47"
       gradientUnits="userSpaceOnUse"
       gradientTransform="translate(-175,-250)">
      <stop
         offset="0.44"
         stop-opacity="0"
         id="stop2" />
      <stop
         offset="1"
         stop-opacity="0.3"
         id="stop4" />
    </linearGradient>
    <linearGradient
       id="ModernWhitePanelMeter-2"
       x1="321.47"
       y1="271.47"
       x2="28.53"
       y2="-21.47"
       gradientUnits="userSpaceOnUse"
       gradientTransform="translate(-175,-250)">
      <stop
         offset="0"
         stop-opacity="0.3"
         id="stop7" />
      <stop
         offset="0.56"
         stop-opacity="0"
         id="stop9" />
    </linearGradient>
    <pattern
       y="0"
       x="0"
       height="6"
       width="6"
       patternUnits="userSpaceOnUse"
       id="EMFhbasepattern" />
  </defs>
  
  <vfp:catalogue
     PREFIX="Meter"
     CATEGORY="Display Controls"
     DESC="Modern Panel Meter" 
	 THEME="Modern"/>
  
  <g
     vfp:class="PanelMeter"
     id="g3837"
     transform="translate(175,250)">
    <rect
       y="-250"
       x="-175"
       id="rect16"
       style="fill:#f6f5ec"
       ry="12.02"
       rx="12.02"
       height="250"
       width="350" />
    <rect
       y="-250"
       x="-175"
       id="rect18"
       style="fill:url(#ModernWhitePanelMeter)"
       ry="12.02"
       rx="12.02"
       height="250"
       width="350" />
    <g 
       id="g3825">
      <g
	     class="scale"
         id="g3818">
        <path
           inkscape:connector-curvature="0"
           id="path20"
           style="fill:none;stroke:#1d1d1b;stroke-miterlimit:10"
           d="m -120.88,-144.06 a 188.05,188.05 0 0 1 241.75,0" />
      </g>
      <text
         class="label"
         style="font-style:normal;font-variant:normal;font-weight:normal;font-stretch:normal;font-size:20.21052551px;line-height:0%;font-family:sans-serif;-inkscape-font-specification:'sans-serif, Normal';text-align:center;writing-mode:lr-tb;text-anchor:middle;fill:#000000;stroke-width:1.0105263"
         x="-1.7345126"
         y="-106.36676"
         id="text5067">label</text>
      <g
	     class="needle"
         id="g3815">
        <polygon
           transform="translate(-175,-250)"
           id="polygon22"
           style="fill:#e30613"
           points="170.76,232.07 175,232.07 179.24,232.07 175,44.07 " />
      </g>
    </g>
    <path
       inkscape:connector-curvature="0"
       id="path24"
       style="fill:#fffef5"
       d="m 163,-250 h -326 a 12.05,12.05 0 0 0 -12,12 v 226 a 12.05,12.05 0 0 0 12,12 h 326 a 12.05,12.05 0 0 0 12,-12 v -226 a 12.05,12.05 0 0 0 -12,-12 z m -4,217.08 a 12.21,12.21 0 0 1 -12.18,12.18 H 35.47 a 35.49,35.49 0 0 0 -70.93,0 H -146.82 A 12.21,12.21 0 0 1 -159,-32.92 v -184.16 a 12.21,12.21 0 0 1 12.18,-12.18 h 293.64 a 12.21,12.21 0 0 1 12.18,12.18 z" />
    <path
       inkscape:connector-curvature="0"
       id="path26"
       style="fill:url(#ModernWhitePanelMeter-2)"
       d="m 163,-250 h -326 a 12.05,12.05 0 0 0 -12,12 v 226 a 12.05,12.05 0 0 0 12,12 h 326 a 12.05,12.05 0 0 0 12,-12 v -226 a 12.05,12.05 0 0 0 -12,-12 z m -4,217.08 a 12.21,12.21 0 0 1 -12.18,12.18 H 35.47 a 35.49,35.49 0 0 0 -70.93,0 H -146.82 A 12.21,12.21 0 0 1 -159,-32.92 v -184.16 a 12.21,12.21 0 0 1 12.18,-12.18 h 293.64 a 12.21,12.21 0 0 1 12.18,12.18 z" />
  </g>
</svg>
