<?xml version="1.0" encoding="UTF-8" standalone="no"?>
<svg
   xmlns:vfp="http://www.labcenter.com/namespaces/vfp"
   xmlns:dc="http://purl.org/dc/elements/1.1/"
   xmlns:cc="http://creativecommons.org/ns#"
   xmlns:rdf="http://www.w3.org/1999/02/22-rdf-syntax-ns#"
   xmlns:svg="http://www.w3.org/2000/svg"
   xmlns="http://www.w3.org/2000/svg"
   xmlns:xlink="http://www.w3.org/1999/xlink"
   xmlns:sodipodi="http://sodipodi.sourceforge.net/DTD/sodipodi-0.dtd"
   xmlns:inkscape="http://www.inkscape.org/namespaces/inkscape"
   viewBox="0 0 51.54 160"
   version="1.1"
   id="svg62"
   sodipodi:docname="Round Slide Switch.svg"
   inkscape:version="0.48.2 r9819"
   width="52"
   height="160">
  <metadata
     id="metadata11860">
    <rdf:RDF>
      <cc:Work
         rdf:about="">
        <dc:format>image/svg+xml</dc:format>
        <dc:type
           rdf:resource="http://purl.org/dc/dcmitype/StillImage" />
        <dc:title />
      </cc:Work>
    </rdf:RDF>
  </metadata>
  <sodipodi:namedview
     pagecolor="#ffffff"
     bordercolor="#666666"
     borderopacity="1"
     objecttolerance="10"
     gridtolerance="10"
     guidetolerance="10"
     inkscape:pageopacity="0"
     inkscape:pageshadow="2"
     inkscape:window-width="840"
     inkscape:window-height="831"
     id="namedview11858"
     showgrid="false"
     inkscape:zoom="1.0429825"
     inkscape:cx="-54.512788"
     inkscape:cy="92.288187"
     inkscape:window-x="129"
     inkscape:window-y="86"
     inkscape:window-maximized="0"
     inkscape:current-layer="svg62" />
  <defs
     id="defs26">
    <linearGradient
       inkscape:collect="always"
       id="linearGradient12959">
      <stop
         style="stop-color:#fffef5;stop-opacity:1;"
         offset="0"
         id="stop12961" />
      <stop
         style="stop-color:#fffef5;stop-opacity:0;"
         offset="1"
         id="stop12963" />
    </linearGradient>
    <linearGradient
       id="RoundSlideSwitchWhite1"
       x1="77.269997"
       y1="131.5"
       x2="-25.73"
       y2="28.5"
       gradientUnits="userSpaceOnUse">
      <stop
         offset="0"
         stop-opacity="0.3"
         id="stop2" />
      <stop
         offset="0.56"
         stop-opacity="0"
         id="stop4" />
    </linearGradient>
    <linearGradient
       id="RoundSlideSwitchWhite2"
       x1="74.809998"
       y1="129.03999"
       x2="-23.27"
       y2="30.959999"
       gradientUnits="userSpaceOnUse">
      <stop
         offset="0"
         stop-opacity="0.2"
         id="stop7" />
      <stop
         offset="1"
         id="stop9" />
    </linearGradient>
    <linearGradient
       id="RoundSlideSwitchWhite5"
       x1="36.380001"
       y1="90.610001"
       x2="15.17"
       y2="69.389999"
       xlink:href="#RoundSlideSwitchWhite1"
       gradientTransform="translate(-25.77,-80)" />
    <linearGradient
       id="RoundSlideSwitchWhite6"
       x1="-1707.0699"
       y1="211.19"
       x2="-1688.72"
       y2="192.84"
       gradientTransform="matrix(0,-1,1,0,-202.01,-1697.89)"
       xlink:href="#RoundSlideSwitchWhite2" />
    <linearGradient
       inkscape:collect="always"
       xlink:href="#RoundSlideSwitchWhite1"
       id="RoundSlideSwitchWhite7"
       gradientUnits="userSpaceOnUse"
       x1="77.269997"
       y1="131.5"
       x2="-25.73"
       y2="28.5"
       gradientTransform="translate(-25.77,-80)" />
    <linearGradient
       inkscape:collect="always"
       xlink:href="#RoundSlideSwitchWhite2"
       id="RoundSlideSwitchWhite8"
       gradientUnits="userSpaceOnUse"
       x1="74.809998"
       y1="129.03999"
       x2="-23.27"
       y2="30.959999"
       gradientTransform="translate(-25.77,-80)" />
    <linearGradient
       inkscape:collect="always"
       xlink:href="#67"
       id="linearGradient12884"
       x1="-22.65"
       y1="-0.0049972534"
       x2="22.65"
       y2="-0.0049972534"
       gradientUnits="userSpaceOnUse" />
    <linearGradient
       id="67"
       x1="587.78003"
       y1="654.87"
       x2="671.38"
       y2="654.87"
       gradientUnits="userSpaceOnUse">
      <stop
         offset="0.06"
         stop-color="#b9b8bc"
         id="stop11527" />
      <stop
         offset="0.16"
         stop-color="#c1c0c3"
         id="stop11529" />
      <stop
         offset="0.32"
         stop-color="#d6d5d8"
         id="stop11531" />
      <stop
         offset="0.52"
         stop-color="#f9f9f9"
         id="stop11533" />
      <stop
         offset="0.55"
         stop-color="#fff"
         id="stop11535" />
      <stop
         offset="0.61"
         stop-color="#efeeef"
         id="stop11537" />
      <stop
         offset="0.74"
         stop-color="#d1d1d3"
         id="stop11539" />
      <stop
         offset="0.86"
         stop-color="#bfbec2"
         id="stop11541" />
      <stop
         offset="0.94"
         stop-color="#b9b8bc"
         id="stop11543" />
    </linearGradient>
    <linearGradient
       y2="654.87"
       x2="671.38"
       y1="654.87"
       x1="587.78003"
       gradientTransform="translate(-731.25491,-730.11424)"
       gradientUnits="userSpaceOnUse"
       id="linearGradient12908"
       xlink:href="#67"
       inkscape:collect="always" />
    <linearGradient
       inkscape:collect="always"
       xlink:href="#67"
       id="linearGradient12957"
       x1="-15"
       y1="0"
       x2="15"
       y2="0"
       gradientUnits="userSpaceOnUse" />
    <linearGradient
       inkscape:collect="always"
       xlink:href="#linearGradient12959"
       id="linearGradient12965"
       x1="-12.97"
       y1="0"
       x2="12.970001"
       y2="0"
       gradientUnits="userSpaceOnUse" />
    <radialGradient
       inkscape:collect="always"
       xlink:href="#67-2"
       id="radialGradient7451"
       cx="4.5776366e-007"
       cy="-0.005006948"
       fx="4.5776366e-007"
       fy="-0.005006948"
       r="15"
       gradientUnits="userSpaceOnUse" />
    <linearGradient
       id="67-2"
       x1="587.78003"
       y1="654.87"
       x2="671.38"
       y2="654.87"
       gradientUnits="userSpaceOnUse">
      <stop
         offset="0.06"
         stop-color="#b9b8bc"
         id="stop11527-8" />
      <stop
         offset="0.16"
         stop-color="#c1c0c3"
         id="stop11529-2" />
      <stop
         offset="0.32"
         stop-color="#d6d5d8"
         id="stop11531-0" />
      <stop
         offset="0.52"
         stop-color="#f9f9f9"
         id="stop11533-5" />
      <stop
         offset="0.55"
         stop-color="#fff"
         id="stop11535-5" />
      <stop
         offset="0.61"
         stop-color="#efeeef"
         id="stop11537-2" />
      <stop
         offset="0.74"
         stop-color="#d1d1d3"
         id="stop11539-7" />
      <stop
         offset="0.86"
         stop-color="#bfbec2"
         id="stop11541-6" />
      <stop
         offset="0.94"
         stop-color="#b9b8bc"
         id="stop11543-7" />
    </linearGradient>
    <radialGradient
       inkscape:collect="always"
       xlink:href="#linearGradient7435"
       id="radialGradient7441"
       cx="4.5776366e-007"
       cy="-0.005006948"
       fx="4.5776366e-007"
       fy="-0.005006948"
       r="12.97"
       gradientUnits="userSpaceOnUse" />
    <linearGradient
       inkscape:collect="always"
       id="linearGradient7435">
      <stop
         style="stop-color:#fffef5;stop-opacity:1;"
         offset="0"
         id="stop7437" />
      <stop
         style="stop-color:#fffef5;stop-opacity:0;"
         offset="1"
         id="stop7439" />
    </linearGradient>
    <radialGradient
       inkscape:collect="always"
       xlink:href="#67-2"
       id="radialGradient7443"
       cx="4.5776366e-007"
       cy="-0.005006948"
       fx="4.5776366e-007"
       fy="-0.005006948"
       r="12.97"
       gradientUnits="userSpaceOnUse" />
    <radialGradient
       inkscape:collect="always"
       xlink:href="#67-2"
       id="radialGradient13106"
       gradientUnits="userSpaceOnUse"
       cx="4.5776366e-007"
       cy="-0.005006948"
       fx="4.5776366e-007"
       fy="-0.005006948"
       r="15" />
    <radialGradient
       inkscape:collect="always"
       xlink:href="#linearGradient7435"
       id="radialGradient13108"
       gradientUnits="userSpaceOnUse"
       cx="4.5776366e-007"
       cy="-0.005006948"
       fx="4.5776366e-007"
       fy="-0.005006948"
       r="12.97" />
    <radialGradient
       inkscape:collect="always"
       xlink:href="#67-2"
       id="radialGradient13110"
       gradientUnits="userSpaceOnUse"
       cx="4.5776366e-007"
       cy="-0.005006948"
       fx="4.5776366e-007"
       fy="-0.005006948"
       r="12.97" />
  </defs>
  <vfp:catalogue
     DESC="Slide Switch (Round)"
     CATEGORY="Switches"
     PREFIX="Switch" />
  <g
     id="g3806"
     vfp:class="SlideSwitch"
     transform="translate(25.77,80)">
    <g
       id="orient">
      <rect
         y="-80"
         x="-25.77"
         id="rect30"
         style="fill:#4c5452;fill-opacity:1"
         ry="4.7399998"
         rx="4.7399998"
         height="160"
         width="51.540001"
         class="bounds" />
      <rect
         id="rect34"
         style="fill:url(#linearGradient12884);fill-opacity:1;stroke:#000000;stroke-opacity:1"
         ry="4.9200001"
         rx="4.9200001"
         height="156.61"
         width="45.299999"
         y="-78.309998"
         x="-22.65"
         transform="scale(-1,1)" />
      <rect
         class="scale"
         id="rect38"
         style="opacity:0.6;fill:#4c5452;fill-opacity:1;stroke:#000000;stroke-opacity:1"
         ry="1.66"
         rx="1.66"
         height="127.4"
         width="5.7800002"
         y="-63.700001"
         x="-2.8900008" />
      <g
         class="graticule"
         id="LablesLayer"
         style="stroke:none" />
      <g
         transform="matrix(1.0032002,0,0,1.0032002,-9.1699227e-7,0.00502297)"
         class="knob"
         id="g3824">
        <circle
           cx="4.5776366e-007"
           cy="-0.005006948"
           r="15"
           style="fill:url(#radialGradient13106);fill-opacity:1;stroke:#000000;stroke-width:0.31073743;stroke-miterlimit:4;stroke-opacity:1;stroke-dasharray:none"
           id="circle42"
           d="M 15,-0.00500695 C 15,8.2792643 8.2842717,14.994993 4.5776366e-7,14.994993 -8.2842708,14.994993 -15,8.2792643 -15,-0.00500695 -15,-8.2892782 -8.2842708,-15.005007 4.5776366e-7,-15.005007 8.2842717,-15.005007 15,-8.2892782 15,-0.00500695 z"
           sodipodi:cx="4.5776366e-007"
           sodipodi:cy="-0.005006948"
           sodipodi:rx="15"
           sodipodi:ry="15" />
        <circle
           cx="4.5776366e-007"
           cy="-0.005006948"
           r="12.97"
           style="fill:url(#radialGradient13108);fill-opacity:1"
           id="circle46"
           d="M 12.970001,-0.00500695 C 12.970001,7.1581264 7.1631338,12.964993 4.5776366e-7,12.964993 -7.1631329,12.964993 -12.97,7.1581264 -12.97,-0.00500695 -12.97,-7.1681403 -7.1631329,-12.975007 4.5776366e-7,-12.975007 7.1631338,-12.975007 12.970001,-7.1681403 12.970001,-0.00500695 z"
           sodipodi:cx="4.5776366e-007"
           sodipodi:cy="-0.005006948"
           sodipodi:rx="12.97"
           sodipodi:ry="12.97" />
        <circle
           cx="4.5776366e-007"
           cy="-0.005006948"
           r="12.97"
           style="opacity:0.15;fill:url(#radialGradient13110);fill-opacity:1"
           id="circle48"
           d="M 12.970001,-0.00500695 C 12.970001,7.1581264 7.1631338,12.964993 4.5776366e-7,12.964993 -7.1631329,12.964993 -12.97,7.1581264 -12.97,-0.00500695 -12.97,-7.1681403 -7.1631329,-12.975007 4.5776366e-7,-12.975007 7.1631338,-12.975007 12.970001,-7.1681403 12.970001,-0.00500695 z"
           sodipodi:cx="4.5776366e-007"
           sodipodi:cy="-0.005006948"
           sodipodi:rx="12.97"
           sodipodi:ry="12.97" />
        <path
           d="m 0,9.29499 a 10.19,10.19 0 0 1 -7.23,-3 0.71,0.71 0 0 1 1,-1 8.82,8.82 0 0 0 12.45,0 0.71,0.71 0 0 1 1,1 10.19,10.19 0 0 1 -7.22,3 z"
           style="fill:#4c5452;fill-opacity:1"
           id="path50"
           inkscape:connector-curvature="0" />
        <path
           d="m 6.73,-5.05501 a 0.71,0.71 0 0 1 -0.5,-0.21 8.82,8.82 0 0 0 -12.45,0 0.71,0.71 0 0 1 -1,-1 10.24,10.24 0 0 1 14.46,0 0.71,0.71 0 0 1 -0.5,1.22 z"
           style="fill:#4c5452;fill-opacity:1"
           id="path52"
           inkscape:connector-curvature="0" />
        <path
           d="m 0,5.94499 a 7.64,7.64 0 0 1 -5.42,-2.24 0.71,0.71 0 0 1 1,-1 6.24,6.24 0 0 0 8.82,0 0.71,0.71 0 0 1 1,1 7.64,7.64 0 0 1 -5.4,2.24 z"
           style="fill:#4c5452;fill-opacity:1"
           id="path54"
           inkscape:connector-curvature="0" />
        <path
           d="m 4.91,-2.50501 a 0.71,0.71 0 0 1 -0.5,-0.21 6.24,6.24 0 0 0 -8.82,0 0.71,0.71 0 1 1 -1,-1 7.67,7.67 0 0 1 10.83,0 0.71,0.71 0 0 1 -0.5,1.22 z"
           style="fill:#4c5452;fill-opacity:1"
           id="path56"
           inkscape:connector-curvature="0" />
        <path
           transform="matrix(0.52437804,0,0,0.49259518,-8.6655676,29.221737)"
           sodipodi:open="true"
           sodipodi:end="6.5915534"
           sodipodi:start="0.31031705"
           d="m 18.542874,-58.610388 a 2.118644,2.3305085 0 1 1 0.0013,-0.0043"
           sodipodi:ry="2.3305085"
           sodipodi:rx="2.118644"
           sodipodi:cy="-59.322033"
           sodipodi:cx="16.525423"
           id="path27508-4-8"
           style="color:#000000;fill:#00c8ad;fill-opacity:1;fill-rule:nonzero;stroke:#000000;stroke-width:0.18992455;stroke-linecap:round;stroke-linejoin:miter;stroke-miterlimit:4;stroke-opacity:1;stroke-dasharray:none;marker:none;visibility:visible;display:inline;overflow:visible;enable-background:accumulate"
           sodipodi:type="arc" />
      </g>
      <g
         style="opacity:0"
         class="readout"
         id="TextValue">
        <text
           id="text73"
           y="0"
           x="0"
           style="font-size:20px;font-style:normal;font-variant:normal;font-weight:normal;font-stretch:normal;text-anchor:middle;font-family:Sans-Serif;-inkscape-font-specification:Serif">5.0</text>
      </g>
    </g>
  </g>
</svg>
