<?xml version="1.0" encoding="UTF-8" standalone="no"?>
<svg
	 xmlns:vfp="http://www.labcenter.com/namespaces/vfp"
   xmlns:dc="http://purl.org/dc/elements/1.1/"
   xmlns:cc="http://creativecommons.org/ns#"
   xmlns:rdf="http://www.w3.org/1999/02/22-rdf-syntax-ns#"
   xmlns:svg="http://www.w3.org/2000/svg"
   xmlns="http://www.w3.org/2000/svg"
   xmlns:xlink="http://www.w3.org/1999/xlink"
   xmlns:sodipodi="http://sodipodi.sourceforge.net/DTD/sodipodi-0.dtd"
   xmlns:inkscape="http://www.inkscape.org/namespaces/inkscape"
   viewBox="0 0 51.54 278.11"
   version="1.1"
   id="svg62"
   sodipodi:docname="Arrow Slider.svg"
   inkscape:version="0.92.1 r15371">
  
  <vfp:catalogue
     DESC="Arrow Slider"
     CATEGORY="Dials and Sliders"
     PREFIX="Slider" />
  
  <defs
     id="defs26">
    <linearGradient
       id="ArrowSliderWhite1"
       x1="106.36"
       y1="219.64"
       x2="-54.81"
       y2="58.47"
       gradientUnits="userSpaceOnUse">
      <stop
         offset="0"
         stop-opacity="0.3"
         id="stop2" />
      <stop
         offset="0.56"
         stop-opacity="0"
         id="stop4" />
    </linearGradient>
    <linearGradient
       id="ArrowSliderWhite2"
       x1="103.25"
       y1="216.54"
       x2="-51.71"
       y2="61.57"
       gradientUnits="userSpaceOnUse">
      <stop
         offset="0"
         stop-opacity="0.2"
         id="stop7" />
      <stop
         offset="1"
         id="stop9" />
    </linearGradient>
    <linearGradient
       id="ArrowSliderWhite3"
       x1="89.37"
       y1="202.65"
       x2="-37.82"
       y2="75.46"
       gradientUnits="userSpaceOnUse"
       gradientTransform="translate(-25.77,-139.05501)">
      <stop
         offset="0"
         stop-opacity="0.6"
         id="stop12" />
      <stop
         offset="1"
         id="stop14" />
    </linearGradient>
    <linearGradient
       id="ArrowSliderWhite4"
       x1="20.73"
       y1="138.97"
       x2="30.81"
       y2="139.14"
       gradientUnits="userSpaceOnUse"
       gradientTransform="translate(-25.77,-139.05501)">
      <stop
         offset="0"
         stop-opacity="0.4"
         id="stop17" />
      <stop
         offset="0.43"
         stop-opacity="0.21"
         id="stop19" />
      <stop
         offset="0.5"
         stop-opacity="0"
         id="stop21" />
    </linearGradient>
    <linearGradient
       id="ArrowSliderWhite5"
       x1="32.89"
       y1="166.81"
       x2="10.61"
       y2="140.69"
       gradientTransform="matrix(1,0,0,0.85,-25.77,-131.79501)"
       xlink:href="#ArrowSliderWhite1" />
    <linearGradient
       id="ArrowSliderWhite6"
       x1="33.51"
       y1="149.69"
       x2="12.18"
       y2="128.36"
       xlink:href="#ArrowSliderWhite2"
       gradientTransform="translate(-25.77,-139.05501)" />
    <linearGradient
       inkscape:collect="always"
       xlink:href="#ArrowSliderWhite1"
       id="ArrowSliderWhite7"
       gradientUnits="userSpaceOnUse"
       x1="106.36"
       y1="219.64"
       x2="-54.81"
       y2="58.47"
       gradientTransform="translate(-25.77,-139.05501)" />
    <linearGradient
       inkscape:collect="always"
       xlink:href="#ArrowSliderWhite2"
       id="ArrowSliderWhite8"
       gradientUnits="userSpaceOnUse"
       x1="103.25"
       y1="216.54"
       x2="-51.71"
       y2="61.57"
       gradientTransform="translate(-25.77,-139.05501)" />
  </defs>

  <g
  	 vfp:class="Slider"
     id="g3824"
     transform="translate(25.77,139.05501)">
    <g
    	 class="orient"
       id="g3806">
      <rect
         width="51.540001"
         height="278.10999"
         rx="6.25"
         ry="6.25"
         style="fill:#fffef5"
         id="rect30"
         x="-25.77"
         y="-139.05501" />
      <rect
         width="51.540001"
         height="278.10999"
         rx="6.25"
         ry="6.25"
         style="fill:url(#ArrowSliderWhite7)"
         id="rect32"
         x="-25.77"
         y="-139.05501" />
      <rect
         x="-22.65"
         y="-136.11501"
         width="45.299999"
         height="272.22"
         rx="6.48"
         ry="6.48"
         style="fill:#fffef5"
         id="rect34" />
      <rect
      	 class="bounds"
         x="-22.65"
         y="-136.11501"
         width="45.299999"
         height="272.22"
         rx="6.48"
         ry="6.48"
         style="opacity:0.15;fill:url(#ArrowSliderWhite8)"
         id="rect36" />
      <rect
      	 class="scale"
         x="-2.8900008"
         y="-125.66501"
         width="5.7800002"
         height="251.33"
         rx="2.3299999"
         ry="2.3299999"
         style="opacity:0.6;fill:url(#ArrowSliderWhite3)"
         id="rect38" />
      <path
         d="m 0.56,-124.66501 a 1.33,1.33 0 0 1 1.33,1.33 v 246.67 a 1.33,1.33 0 0 1 -1.33,1.33 h -1.12 a 1.33,1.33 0 0 1 -1.33,-1.33 v -246.67 a 1.33,1.33 0 0 1 1.33,-1.33 h 1.12 m 0,-1 h -1.12 a 2.34,2.34 0 0 0 -2.33,2.33 v 246.67 a 2.34,2.34 0 0 0 2.33,2.33 h 1.12 a 2.34,2.34 0 0 0 2.33,-2.33 v -246.67 a 2.34,2.34 0 0 0 -2.33,-2.33 z"
         style="fill:url(#ArrowSliderWhite4)"
         id="path40"
         inkscape:connector-curvature="0" />
    
     <g
       pointer-events="none"
       class="graticule" />
    
      <g
      	 class="knob"
         id="g3789">
        <path
           d="m -2.86,10.05499 h -13.68 c -1,0 -3.21,-1.48 -3.21,-3.29 v -13.53 a 3.59,3.59 0 0 1 2.89,-3.29 h 14 c 1.57,0 22.61,5 22.61,10.05 0,5.05 -21.04,10.06 -22.61,10.06 z"
           style="fill:#fffef5"
           id="path42"
           inkscape:connector-curvature="0" />
        <path
           d="m -2.86,10.05499 h -13.68 c -1,0 -3.21,-1.48 -3.21,-3.29 v -13.53 a 3.59,3.59 0 0 1 2.89,-3.29 h 14 c 1.57,0 22.61,5 22.61,10.05 0,5.05 -21.04,10.06 -22.61,10.06 z"
           style="fill:url(#ArrowSliderWhite5)"
           id="path44"
           inkscape:connector-curvature="0" />
        <path
           d="m -2.55,8.43499 h -12.22 c -0.91,0 -2.86,-1.24 -2.86,-2.76 v -11.35 a 3.09,3.09 0 0 1 2.58,-2.76 h 12.5 c 1.4,0 20.16,4.22 20.16,8.44 0,4.22 -18.76,8.43 -20.16,8.43 z"
           style="fill:#fffef5"
           id="path46"
           inkscape:connector-curvature="0" />
        <path
           d="m -2.55,8.43499 h -12.22 c -0.91,0 -2.86,-1.24 -2.86,-2.76 v -11.35 a 3.09,3.09 0 0 1 2.58,-2.76 h 12.5 c 1.4,0 20.16,4.22 20.16,8.44 0,4.22 -18.76,8.43 -20.16,8.43 z"
           style="opacity:0.15;fill:url(#ArrowSliderWhite6)"
           id="path48"
           inkscape:connector-curvature="0" />
        <path
           d="m -9.77,6.85499 c -3.09,0 -5.3,-0.14 -5.57,-0.16 a 0.78,0.78 0 0 1 -0.79,-0.79 0.81,0.81 0 0 1 0.92,-0.67 c 0.2,0 19.76,1.24 25.65,-3.78 a 1,1 0 0 1 1.21,0 0.66,0.66 0 0 1 0,1 c -4.42,3.77 -14.89,4.4 -21.42,4.4 z"
           style="fill:#878787"
           id="path50"
           inkscape:connector-curvature="0" />
        <path
           d="m 11.03,-1.74501 a 0.93,0.93 0 0 1 -0.61,-0.21 c -5.88,-5 -25.45,-3.79 -25.65,-3.78 a 0.74,0.74 0 1 1 -0.13,-1.46 c 0.84,-0.06 20.55,-1.29 27,4.2 a 0.66,0.66 0 0 1 0,1 0.93,0.93 0 0 1 -0.61,0.25 z"
           style="fill:#878787"
           id="path52"
           inkscape:connector-curvature="0" />
        <path
           d="m 1.79,-1.74501 h -17.08 a 0.74,0.74 0 1 1 0,-1.46 H 1.79 a 0.74,0.74 0 1 1 0,1.46 z"
           style="fill:#878787"
           id="path54"
           inkscape:connector-curvature="0" />
        <path
           d="m 1.79,2.70499 h -17.08 a 0.74,0.74 0 1 1 0,-1.46 H 1.79 a 0.74,0.74 0 1 1 0,1.46 z"
           style="fill:#878787"
           id="path56"
           inkscape:connector-curvature="0" />
      </g>
       <g
       id="g66"
       class="readout"><text
       style="font-size:20px;font-family:sans-serif;text-anchor:middle"
       x="0"
       y="285"
       id="text73">5.0</text>
			</g>
    </g>
  </g>
</svg>
