<?xml version="1.0" encoding="UTF-8" standalone="no"?>
<svg
	 xmlns:vfp="http://www.labcenter.com/namespaces/vfp"
   xmlns:dc="http://purl.org/dc/elements/1.1/"
   xmlns:cc="http://creativecommons.org/ns#"
   xmlns:rdf="http://www.w3.org/1999/02/22-rdf-syntax-ns#"
   xmlns:svg="http://www.w3.org/2000/svg"
   xmlns="http://www.w3.org/2000/svg"
   xmlns:xlink="http://www.w3.org/1999/xlink"
   xmlns:sodipodi="http://sodipodi.sourceforge.net/DTD/sodipodi-0.dtd"
   xmlns:inkscape="http://www.inkscape.org/namespaces/inkscape"
   viewBox="0 0 51.54 278.11"
   version="1.1"
   id="svg62"
   sodipodi:docname="Round Slider.svg"
   inkscape:version="0.92.1 r15371">
  
  <vfp:catalogue
     DESC="Round Slider"
     CATEGORY="Dials and Sliders"
     PREFIX="Slider" />
  
  <defs
     id="defs26">
    <linearGradient
       id="RoundSliderWhite1"
       x1="106.36"
       y1="219.64"
       x2="-54.81"
       y2="58.47"
       gradientUnits="userSpaceOnUse">
      <stop
         offset="0"
         stop-opacity="0.3"
         id="stop2" />
      <stop
         offset="0.56"
         stop-opacity="0"
         id="stop4" />
    </linearGradient>
    <linearGradient
       id="RoundSliderWhite2"
       x1="103.25"
       y1="216.54"
       x2="-51.71"
       y2="61.57"
       gradientUnits="userSpaceOnUse">
      <stop
         offset="0"
         stop-opacity="0.2"
         id="stop7" />
      <stop
         offset="1"
         id="stop9" />
    </linearGradient>
    <linearGradient
       id="RoundSliderWhite3"
       x1="89.37"
       y1="202.65"
       x2="-37.82"
       y2="75.46"
       gradientUnits="userSpaceOnUse"
       gradientTransform="translate(-25.77,-139.05501)">
      <stop
         offset="0"
         stop-opacity="0.6"
         id="stop12" />
      <stop
         offset="1"
         id="stop14" />
    </linearGradient>
    <linearGradient
       id="RoundSliderWhite4"
       x1="20.73"
       y1="138.97"
       x2="30.81"
       y2="139.14"
       gradientUnits="userSpaceOnUse"
       gradientTransform="translate(-25.77,-139.05501)">
      <stop
         offset="0"
         stop-opacity="0.4"
         id="stop17" />
      <stop
         offset="0.43"
         stop-opacity="0.21"
         id="stop19" />
      <stop
         offset="0.5"
         stop-opacity="0"
         id="stop21" />
    </linearGradient>
    <linearGradient
       id="RoundSliderWhite5"
       x1="36.38"
       y1="149.66"
       x2="15.17"
       y2="128.45"
       xlink:href="#RoundSliderWhite1"
       gradientTransform="translate(-25.77,-139.05501)" />
    <linearGradient
       id="RoundSliderWhite6"
       x1="-1419.56"
       y1="535.06"
       x2="-1401.21"
       y2="516.72"
       gradientTransform="rotate(-90,-968.13751,-442.2475)"
       xlink:href="#RoundSliderWhite2" />
    <linearGradient
       inkscape:collect="always"
       xlink:href="#RoundSliderWhite1"
       id="RoundSliderWhite7"
       gradientUnits="userSpaceOnUse"
       x1="106.36"
       y1="219.64"
       x2="-54.81"
       y2="58.47"
       gradientTransform="translate(-25.77,-139.05501)" />
    <linearGradient
       inkscape:collect="always"
       xlink:href="#RoundSliderWhite2"
       id="RoundSliderWhite8"
       gradientUnits="userSpaceOnUse"
       x1="103.25"
       y1="216.54"
       x2="-51.71"
       y2="61.57"
       gradientTransform="translate(-25.77,-139.05501)" />
  </defs>
  
  <g
  	 vfp:class="Slider"
     id="g3859"
     transform="translate(25.77,139.05501)">
    <g
    	 class="orient"
       id="g3841">
      <rect
         width="51.540001"
         height="278.10999"
         rx="6.25"
         ry="6.25"
         style="fill:#fffef5"
         id="rect30"
         x="-25.77"
         y="-139.05501" />
      <rect
         width="51.540001"
         height="278.10999"
         rx="6.25"
         ry="6.25"
         style="fill:url(#RoundSliderWhite7)"
         id="rect32"
         x="-25.77"
         y="-139.05501" />
      <rect
         x="-22.65"
         y="-136.11501"
         width="45.299999"
         height="272.22"
         rx="6.48"
         ry="6.48"
         style="fill:#fffef5"
         id="rect34" />
      <rect
      	 class="bounds"
         x="-22.65"
         y="-136.11501"
         width="45.299999"
         height="272.22"
         rx="6.48"
         ry="6.48"
         style="opacity:0.15;fill:url(#RoundSliderWhite8)"
         id="rect36" />
      <rect
      	 class="scale"
         x="-2.8900008"
         y="-125.66501"
         width="5.7800002"
         height="251.33"
         rx="2.3299999"
         ry="2.3299999"
         style="opacity:0.6;fill:url(#RoundSliderWhite3)"
         id="rect38" />
      <path
         d="m 0.56,-124.66501 a 1.33,1.33 0 0 1 1.33,1.33 v 246.67 a 1.33,1.33 0 0 1 -1.33,1.33 h -1.12 a 1.33,1.33 0 0 1 -1.33,-1.33 v -246.67 a 1.33,1.33 0 0 1 1.33,-1.33 h 1.12 m 0,-1 h -1.12 a 2.34,2.34 0 0 0 -2.33,2.33 v 246.67 a 2.34,2.34 0 0 0 2.33,2.33 h 1.12 a 2.34,2.34 0 0 0 2.33,-2.33 v -246.67 a 2.34,2.34 0 0 0 -2.33,-2.33 z"
         style="fill:url(#RoundSliderWhite4)"
         id="path40"
         inkscape:connector-curvature="0" />
         
          <g
       pointer-events="none"
       class="graticule" />
         
      <g 
      	 class="knob"
         id="g3824">
        <circle
           cx="4.5776366e-007"
           cy="-0.005006948"
           r="15"
           style="fill:#fffef5"
           id="circle42" />
        <circle
           cx="4.5776366e-007"
           cy="-0.005006948"
           r="15"
           style="fill:url(#RoundSliderWhite5)"
           id="circle44" />
        <circle
           cx="4.5776366e-007"
           cy="-0.005006948"
           r="12.97"
           style="fill:#fffef5"
           id="circle46" />
        <circle
           cx="4.5776366e-007"
           cy="-0.005006948"
           r="12.97"
           style="opacity:0.15;fill:url(#RoundSliderWhite6)"
           id="circle48" />
        <path
           d="m 0,9.29499 a 10.19,10.19 0 0 1 -7.23,-3 0.71,0.71 0 0 1 1,-1 8.82,8.82 0 0 0 12.45,0 0.71,0.71 0 0 1 1,1 10.19,10.19 0 0 1 -7.22,3 z"
           style="fill:#878787"
           id="path50"
           inkscape:connector-curvature="0" />
        <path
           d="m 6.73,-5.05501 a 0.71,0.71 0 0 1 -0.5,-0.21 8.82,8.82 0 0 0 -12.45,0 0.71,0.71 0 0 1 -1,-1 10.24,10.24 0 0 1 14.46,0 0.71,0.71 0 0 1 -0.5,1.22 z"
           style="fill:#878787"
           id="path52"
           inkscape:connector-curvature="0" />
        <path
           d="m 0,5.94499 a 7.64,7.64 0 0 1 -5.42,-2.24 0.71,0.71 0 0 1 1,-1 6.24,6.24 0 0 0 8.82,0 0.71,0.71 0 0 1 1,1 7.64,7.64 0 0 1 -5.4,2.24 z"
           style="fill:#878787"
           id="path54"
           inkscape:connector-curvature="0" />
        <path
           d="m 4.91,-2.50501 a 0.71,0.71 0 0 1 -0.5,-0.21 6.24,6.24 0 0 0 -8.82,0 0.71,0.71 0 1 1 -1,-1 7.67,7.67 0 0 1 10.83,0 0.71,0.71 0 0 1 -0.5,1.22 z"
           style="fill:#878787"
           id="path56"
           inkscape:connector-curvature="0" />
      </g>
      <g
       id="g66"
       class="readout"><text
       style="font-size:20px;font-family:sans-serif;text-anchor:middle"
       x="0"
       y="285"
       id="text73">5.0</text>
			</g>
    </g>
  </g>
</svg>
