<svg xmlns:sodipodi="http://sodipodi.sourceforge.net/DTD/sodipodi-0.dtd" id="panel" xmlns:xlink="http://www.w3.org/1999/xlink" viewBox="-333.5,-187.5,667,375" version="1.1" xmlns:rdf="http://www.w3.org/1999/02/22-rdf-syntax-ns#" xmlns:svg="http://www.w3.org/2000/svg" inkscape:version="0.92.2 (5c3e80d, 2017-08-06)" xmlns:dc="http://purl.org/dc/elements/1.1/" vfp:grid="10" xmlns:inkscape="http://www.inkscape.org/namespaces/inkscape" width="667" vfp:title="Virtual Front Panel" vfp:dpi="163" xmlns="http://www.w3.org/2000/svg" xmlns:cc="http://creativecommons.org/ns#" xmlns:vfp="http://www.labcenter.com/namespaces/vfp" sodipodi:docname="default.svg" vfp:form="mobile" height="375" class="panel">
 <sodipodi:namedview inkscape:zoom="0.68279999" objecttolerance="10" inkscape:window-x="82" inkscape:window-y="82" inkscape:snap-others="false" bordercolor="#666666" id="namedview17" inkscape:pageopacity="0" guidetolerance="10" inkscape:window-maximized="0" pagecolor="#ffffff" inkscape:window-width="1684" showgrid="false" inkscape:cx="-11.960618" inkscape:cy="242.83538" inkscape:snap-grids="true" inkscape:window-height="854" borderopacity="1" inkscape:pageshadow="2" gridtolerance="10" inkscape:current-layer="Background"></sodipodi:namedview>
 <defs id="defs4141"><linearGradient id="radioLinearGradient4180">
      <stop id="stop4182" offset="0" style="stop-color:#404040;stop-opacity:1"></stop>
      <stop id="stop4184" offset="1" style="stop-color:#e0e0e0;stop-opacity:1"></stop>
    </linearGradient><linearGradient gradientTransform="matrix(1.0745356,0,0,1.0745356,481.06634,15.328007)" gradientUnits="userSpaceOnUse" y2="-5" x2="-440" y1="65" x1="-365" id="radioLinearGradient4186" xlink:href="#radioLinearGradient4180"></linearGradient><linearGradient id="linearGradient4620-9-8">
      <stop style="stop-color:#000000;stop-opacity:0.78431374;" offset="0" id="stop4622-98-2"></stop>
      <stop style="stop-color:#000000;stop-opacity:0.23529412;" offset="1" id="stop4624-3-7"></stop>
    </linearGradient><linearGradient id="linearGradient4620-98-9">
      <stop style="stop-color:#141414;stop-opacity:0.58823532;" offset="0" id="stop4622-6-2"></stop>
      <stop style="stop-color:#c8c8c8;stop-opacity:0;" offset="1" id="stop4624-6-6"></stop>
    </linearGradient><linearGradient inkscape:collect="always" xlink:href="#linearGradient4620-98-9" id="linearGradient24624" gradientUnits="userSpaceOnUse" gradientTransform="matrix(-1.1133816,0,0,1.1177862,-9.7105497,26.548556)" x1="-80.512703" y1="50.731907" x2="-23.137779" y2="-9.3504877"></linearGradient><filter inkscape:collect="always" id="filter24628" x="-0.12" width="1.24" y="-0.12" height="1.24">
      <feGaussianBlur inkscape:collect="always" stdDeviation="4.9" id="feGaussianBlur24630"></feGaussianBlur>
    </filter><linearGradient inkscape:collect="always" xlink:href="#linearGradient4620-9-8" id="linearGradient24754" gradientUnits="userSpaceOnUse" gradientTransform="matrix(1.1519775,0,0,1.156534,-133.50421,-61.152872)" x1="131.70361" y1="127.66038" x2="190.53082" y2="68.967537"></linearGradient></defs>
 <metadata id="metadata4144">
  <rdf:rdf>
   <cc:work rdf:about="">
    <dc:format>image/svg+xml</dc:format>
    <dc:type rdf:resource="http://purl.org/dc/dcmitype/StillImage"></dc:type>
    <dc:title></dc:title>
   </cc:work>
  </rdf:rdf>
 </metadata>
 <g inkscape:groupmode="layer" sodipodi:insensitive="true" style="pointer-events:none" id="Background">
  <rect width="667" x="-333.5" y="-187.5" height="375" style="fill:#e0e0e0;fill-opacity:1;stroke:none;stroke-width:5;stroke-miterlimit:4;stroke-dasharray:none;stroke-opacity:1" id="image"></rect>
  <path class=" grid" style="display: none; " id="grid" d="M 0 0"></path>
  <text x="0" y="0" class=" tablabel" style="font-weight: bold; font-family: sans-serif; text-anchor: middle; fill: #c0c0c0; stroke: none; cursor: none; pointer-events: none; font-size: 15px; display: none; " id="tablabel">IOT Builder (Main Controls)</text>
 </g>
 <g inkscape:groupmode="layer" style="display: inline; " id="Main Controls"><g style="display: inline; pointer-events: inherit; " vfp:class="ButtonGroup" transform="translate(-120 -60) translate(5 5)" id="IotBtn1" vfp:name="IotBtn1" vfp:file="ButtonGroup/Generic/Round Radio Buttons.svg">
    <g class="element" id="g10">
      <circle r="50" cy="50" cx="50" id="Bounds" style="fill:#808080;fill-opacity:1;stroke:none" class="bounds" d="M 100,50 C 100,77.614237 77.614237,100 50,100 22.385763,100 0,77.614237 0,50 0,22.385763 22.385763,0 50,0 c 27.614237,0 50,22.385763 50,50 z" sodipodi:cx="50" sodipodi:cy="50" sodipodi:rx="50" sodipodi:ry="50"></circle>
      <circle r="49" cy="50" cx="50" id="Lamp" style="fill-opacity: 1; filter: url(#filter24628); opacity: 0.2; fill: #9bf6df; " class="lamp" d="M 99,50 C 99,77.061953 77.061953,99 50,99 22.938047,99 1,77.061953 1,50 1,22.938047 22.938047,1 50,1 77.061953,1 99,22.938047 99,50 z" sodipodi:cx="50" sodipodi:cy="50" sodipodi:rx="49" sodipodi:ry="49"></circle>
      <g transform="matrix(0.92,0,0,0.92,4,4)" id="Up" style="stroke: #9bf6df; stroke-width: 0.54347825px; stroke-miterlimit: 4; stroke-opacity: 1; stroke-dasharray: none; display: inline; ">
        <circle style="fill:url(#radioLinearGradient4186);fill-opacity:1;stroke:#9bf6df;stroke-width:0.32608696;stroke-miterlimit:4;stroke-opacity:1;stroke-dasharray:none;stroke-dashoffset:0" id="path4160" cx="50" cy="50" r="50" d="M 100,50 C 100,77.614237 77.614237,100 50,100 22.385763,100 0,77.614237 0,50 0,22.385763 22.385763,0 50,0 c 27.614237,0 50,22.385763 50,50 z" sodipodi:cx="50" sodipodi:cy="50" sodipodi:rx="50" sodipodi:ry="50"></circle>
        <circle r="46.531731" cy="49.230984" cx="49.180054" id="circle4172" style="fill-opacity: 1; stroke: #9bf6df; stroke-width: 0.32608696px; stroke-miterlimit: 4; stroke-opacity: 1; stroke-dasharray: none; stroke-dashoffset: 0px; fill: #cccccc; " class="buttonFace" d="m 95.711784,49.230984 c 0,25.698765 -20.832965,46.53173 -46.53173,46.53173 -25.698766,0 -46.5317309,-20.832965 -46.5317309,-46.53173 0,-25.698765 20.8329649,-46.5317309 46.5317309,-46.5317309 25.698765,0 46.53173,20.8329659 46.53173,46.5317309 z" sodipodi:cx="49.180054" sodipodi:cy="49.230984" sodipodi:rx="46.531731" sodipodi:ry="46.531731"></circle>
        <path inkscape:connector-curvature="0" style="fill:url(#linearGradient24624);fill-opacity:1;stroke:#9bf6df;stroke-width:0.32608697;stroke-miterlimit:4;stroke-opacity:1;stroke-dasharray:none;display:inline" id="Gradient Unpressed-6" d="M 6.5090223,30.947492 C -0.16939569,46.250208 1.7905463,63.877261 11.65055,77.188741 21.510554,90.500221 37.77268,97.47379 54.3111,95.482553 70.849533,93.491317 85.151693,82.83781 91.830109,67.535103 98.508525,52.232398 96.548584,34.605334 86.68858,21.293855 76.828577,7.9823834 60.566463,1.0088235 44.028043,3.0000538 27.489597,4.9912859 13.187436,15.644784 6.5090223,30.947492 c 0,0 0,0 0,0"></path>
      </g>
      <g transform="matrix(0.92,0,0,0.92,4,4)" id="Down" style="display: none; ">
        <circle style="fill:#000000;fill-opacity:1;stroke:#00c8ad;stroke-width:0.54347825;stroke-miterlimit:4;stroke-opacity:1;stroke-dasharray:none" id="circle4188" cx="49.999996" cy="50" r="50" d="m 99.999996,50 c 0,27.614237 -22.385762,50 -50,50 C 22.385759,100 -3.8146973e-6,77.614237 -3.8146973e-6,50 -3.8146973e-6,22.385763 22.385759,0 49.999996,0 c 27.614238,0 50,22.385763 50,50 z" sodipodi:cx="49.999996" sodipodi:cy="50" sodipodi:rx="50" sodipodi:ry="50"></circle>
        <path inkscape:connector-curvature="0" class="buttonFace" style="fill-opacity: 1; stroke: #000000; stroke-width: 0.61752564px; stroke-miterlimit: 4; stroke-opacity: 1; stroke-dasharray: none; fill: #cccccc; " id="FacePressed" d="M 95.015464,31.941612 C 101.92539,47.774783 99.897504,66.01289 89.695699,79.785813 79.49389,93.558735 62.668055,100.77404 45.556322,98.713768 28.444591,96.653509 13.646647,85.630696 6.736715,69.797513 -0.17321153,53.964356 1.8546646,35.726235 12.056482,21.953312 22.258281,8.180387 39.084108,0.96510178 56.195849,3.0253596 73.307582,5.0856138 88.105534,16.10843 95.015464,31.941612 c 0,0 0,0 0,0"></path>
        <path inkscape:connector-curvature="0" style="fill:url(#linearGradient24754);fill-opacity:1;stroke:#00c8ad;stroke-width:0.32608697;stroke-miterlimit:4;stroke-opacity:1;stroke-dasharray:none" id="GradientPressed" d="M 95.015461,31.941611 C 101.92539,47.77478 99.897511,66.012876 89.695697,79.785813 79.493885,93.558735 62.668051,100.77404 45.556326,98.713768 28.444587,96.653509 13.646643,85.630694 6.7367155,69.797499 -0.17321146,53.964352 1.8546651,35.726233 12.056478,21.953311 22.258277,8.180388 39.084111,0.96511014 56.195849,3.0253557 73.307574,5.0856152 88.105532,16.108429 95.015461,31.941611 c 0,0 0,0 0,0"></path>
      </g>
      <text id="text4145" y="110" x="50" style="font-variant: normal; text-align: center; line-height: 125%; letter-spacing: 0px; word-spacing: 0px; writing-mode: lr-tb; fill-opacity: 1; stroke: none; pointer-events: none; font-family: sans-serif; font-weight: normal; font-style: normal; fill: #00000c; font-size: 30px; text-anchor: middle; display: inherit; " xml:space="preserve" sodipodi:linespacing="125%"></text>
    </g>
  <g class="element" id="g10" transform="translate(110,0)">
      <circle r="50" cy="50" cx="50" id="Bounds" style="fill:#808080;fill-opacity:1;stroke:none" class="bounds" d="M 100,50 C 100,77.614237 77.614237,100 50,100 22.385763,100 0,77.614237 0,50 0,22.385763 22.385763,0 50,0 c 27.614237,0 50,22.385763 50,50 z" sodipodi:cx="50" sodipodi:cy="50" sodipodi:rx="50" sodipodi:ry="50"></circle>
      <circle r="49" cy="50" cx="50" id="Lamp" style="fill-opacity: 1; filter: url(#filter24628); opacity: 0.2; fill: #9bf6df; " class="lamp" d="M 99,50 C 99,77.061953 77.061953,99 50,99 22.938047,99 1,77.061953 1,50 1,22.938047 22.938047,1 50,1 77.061953,1 99,22.938047 99,50 z" sodipodi:cx="50" sodipodi:cy="50" sodipodi:rx="49" sodipodi:ry="49"></circle>
      <g transform="matrix(0.92,0,0,0.92,4,4)" id="Up" style="stroke: #9bf6df; stroke-width: 0.54347825px; stroke-miterlimit: 4; stroke-opacity: 1; stroke-dasharray: none; display: inline; ">
        <circle style="fill:url(#radioLinearGradient4186);fill-opacity:1;stroke:#9bf6df;stroke-width:0.32608696;stroke-miterlimit:4;stroke-opacity:1;stroke-dasharray:none;stroke-dashoffset:0" id="path4160" cx="50" cy="50" r="50" d="M 100,50 C 100,77.614237 77.614237,100 50,100 22.385763,100 0,77.614237 0,50 0,22.385763 22.385763,0 50,0 c 27.614237,0 50,22.385763 50,50 z" sodipodi:cx="50" sodipodi:cy="50" sodipodi:rx="50" sodipodi:ry="50"></circle>
        <circle r="46.531731" cy="49.230984" cx="49.180054" id="circle4172" style="fill-opacity: 1; stroke: #9bf6df; stroke-width: 0.32608696px; stroke-miterlimit: 4; stroke-opacity: 1; stroke-dasharray: none; stroke-dashoffset: 0px; fill: #cccccc; " class="buttonFace" d="m 95.711784,49.230984 c 0,25.698765 -20.832965,46.53173 -46.53173,46.53173 -25.698766,0 -46.5317309,-20.832965 -46.5317309,-46.53173 0,-25.698765 20.8329649,-46.5317309 46.5317309,-46.5317309 25.698765,0 46.53173,20.8329659 46.53173,46.5317309 z" sodipodi:cx="49.180054" sodipodi:cy="49.230984" sodipodi:rx="46.531731" sodipodi:ry="46.531731"></circle>
        <path inkscape:connector-curvature="0" style="fill:url(#linearGradient24624);fill-opacity:1;stroke:#9bf6df;stroke-width:0.32608697;stroke-miterlimit:4;stroke-opacity:1;stroke-dasharray:none;display:inline" id="Gradient Unpressed-6" d="M 6.5090223,30.947492 C -0.16939569,46.250208 1.7905463,63.877261 11.65055,77.188741 21.510554,90.500221 37.77268,97.47379 54.3111,95.482553 70.849533,93.491317 85.151693,82.83781 91.830109,67.535103 98.508525,52.232398 96.548584,34.605334 86.68858,21.293855 76.828577,7.9823834 60.566463,1.0088235 44.028043,3.0000538 27.489597,4.9912859 13.187436,15.644784 6.5090223,30.947492 c 0,0 0,0 0,0"></path>
      </g>
      <g transform="matrix(0.92,0,0,0.92,4,4)" id="Down" style="display: none; ">
        <circle style="fill:#000000;fill-opacity:1;stroke:#00c8ad;stroke-width:0.54347825;stroke-miterlimit:4;stroke-opacity:1;stroke-dasharray:none" id="circle4188" cx="49.999996" cy="50" r="50" d="m 99.999996,50 c 0,27.614237 -22.385762,50 -50,50 C 22.385759,100 -3.8146973e-6,77.614237 -3.8146973e-6,50 -3.8146973e-6,22.385763 22.385759,0 49.999996,0 c 27.614238,0 50,22.385763 50,50 z" sodipodi:cx="49.999996" sodipodi:cy="50" sodipodi:rx="50" sodipodi:ry="50"></circle>
        <path inkscape:connector-curvature="0" class="buttonFace" style="fill-opacity: 1; stroke: #000000; stroke-width: 0.61752564px; stroke-miterlimit: 4; stroke-opacity: 1; stroke-dasharray: none; fill: #cccccc; " id="FacePressed" d="M 95.015464,31.941612 C 101.92539,47.774783 99.897504,66.01289 89.695699,79.785813 79.49389,93.558735 62.668055,100.77404 45.556322,98.713768 28.444591,96.653509 13.646647,85.630696 6.736715,69.797513 -0.17321153,53.964356 1.8546646,35.726235 12.056482,21.953312 22.258281,8.180387 39.084108,0.96510178 56.195849,3.0253596 73.307582,5.0856138 88.105534,16.10843 95.015464,31.941612 c 0,0 0,0 0,0"></path>
        <path inkscape:connector-curvature="0" style="fill:url(#linearGradient24754);fill-opacity:1;stroke:#00c8ad;stroke-width:0.32608697;stroke-miterlimit:4;stroke-opacity:1;stroke-dasharray:none" id="GradientPressed" d="M 95.015461,31.941611 C 101.92539,47.77478 99.897511,66.012876 89.695697,79.785813 79.493885,93.558735 62.668051,100.77404 45.556326,98.713768 28.444587,96.653509 13.646643,85.630694 6.7367155,69.797499 -0.17321146,53.964352 1.8546651,35.726233 12.056478,21.953311 22.258277,8.180388 39.084111,0.96511014 56.195849,3.0253557 73.307574,5.0856152 88.105532,16.108429 95.015461,31.941611 c 0,0 0,0 0,0"></path>
      </g>
      <text id="text4145" y="110" x="50" style="font-variant: normal; text-align: center; line-height: 125%; letter-spacing: 0px; word-spacing: 0px; writing-mode: lr-tb; fill-opacity: 1; stroke: none; pointer-events: none; font-family: sans-serif; font-weight: normal; font-style: normal; fill: #00000c; font-size: 30px; text-anchor: middle; display: inherit; " xml:space="preserve" sodipodi:linespacing="125%"></text>
    </g><vfp:config>{"buttonLabels":"","init":"-1","labelFont":{"family":"sans-serif","weight":"normal","style":"normal","decoration":"","colour":"#00000c","size":30},"labelPosition":"2","labelSpacing":"10","lampColour":"#9bf6df","replicate":{"count":2,"spacing":0,"direction":0,"width":110,"height":110},"faceColour":"#cccccc"}</vfp:config></g></g>
</svg>