<?xml version="1.0" encoding="UTF-8" standalone="no"?>
<svg
   xmlns:vfp="http://www.labcenter.com/namespaces/vfp"
   xmlns:dc="http://purl.org/dc/elements/1.1/"
   xmlns:cc="http://creativecommons.org/ns#"
   xmlns:rdf="http://www.w3.org/1999/02/22-rdf-syntax-ns#"
   xmlns:svg="http://www.w3.org/2000/svg"
   xmlns="http://www.w3.org/2000/svg"
   xmlns:xlink="http://www.w3.org/1999/xlink"
   xmlns:sodipodi="http://sodipodi.sourceforge.net/DTD/sodipodi-0.dtd"
   xmlns:inkscape="http://www.inkscape.org/namespaces/inkscape"
   viewBox="0 0 130.69 381.88"
   version="1.1"
   id="svg349"
   sodipodi:docname="TV Remote.svg"
   inkscape:version="0.92.1 r15371">
  <metadata
     id="metadata229">
    <rdf:RDF>
      <cc:Work
         rdf:about="">
        <dc:format>image/svg+xml</dc:format>
        <dc:type
           rdf:resource="http://purl.org/dc/dcmitype/StillImage" />
      </cc:Work>
    </rdf:RDF>
  </metadata>
  <sodipodi:namedview
     pagecolor="#ffffff"
     bordercolor="#666666"
     borderopacity="1"
     objecttolerance="10"
     gridtolerance="10"
     guidetolerance="10"
     inkscape:pageopacity="0"
     inkscape:pageshadow="2"
     inkscape:window-width="1920"
     inkscape:window-height="1018"
     id="namedview227"
     showgrid="false"
     inkscape:zoom="2.4719807"
     inkscape:cx="26.306522"
     inkscape:cy="186.14309"
     inkscape:window-x="-8"
     inkscape:window-y="-8"
     inkscape:window-maximized="1"
     inkscape:current-layer="g189" />
  <defs
     id="defs41">
    <linearGradient
       id="TVRemoteModernLinear"
       x1="183.12"
       y1="296.49"
       x2="-52.43"
       y2="60.93"
       gradientUnits="userSpaceOnUse">
      <stop
         offset="0"
         stop-opacity="0.3"
         id="stop2" />
      <stop
         offset="0.56"
         stop-opacity="0"
         id="stop4" />
    </linearGradient>
    <linearGradient
       id="TVRemoteModernLinear-2"
       x1="-49.32"
       y1="64.64"
       x2="180.01"
       y2="293.97"
       xlink:href="#TVRemoteModernLinear" />
    <linearGradient
       id="TVRemoteModernLinear-3"
       x1="33.9"
       y1="33.4"
       x2="17.87"
       y2="17.37"
       xlink:href="#TVRemoteModernLinear" />
    <linearGradient
       id="TVRemoteModernLinear-4"
       x1="114.88"
       y1="287.36"
       x2="98.85"
       y2="271.33"
       xlink:href="#TVRemoteModernLinear" />
    <linearGradient
       id="TVRemoteModernLinear-5"
       x1="87.45"
       y1="287.36"
       x2="71.42"
       y2="271.33"
       xlink:href="#TVRemoteModernLinear" />
    <linearGradient
       id="TVRemoteModernLinear-6"
       x1="60.02"
       y1="287.36"
       x2="43.99"
       y2="271.33"
       xlink:href="#TVRemoteModernLinear" />
    <linearGradient
       id="TVRemoteModernLinear-7"
       x1="32.59"
       y1="287.36"
       x2="16.56"
       y2="271.33"
       xlink:href="#TVRemoteModernLinear" />
    <linearGradient
       id="TVRemoteModernLinear-8"
       x1="87.45"
       y1="314.95"
       x2="71.42"
       y2="298.92"
       xlink:href="#TVRemoteModernLinear" />
    <linearGradient
       id="TVRemoteModernLinear-9"
       x1="114.88"
       y1="315.13"
       x2="98.85"
       y2="299.1"
       xlink:href="#TVRemoteModernLinear" />
    <linearGradient
       id="TVRemoteModernLinear-10"
       x1="32.59"
       y1="315.13"
       x2="16.56"
       y2="299.1"
       xlink:href="#TVRemoteModernLinear" />
    <linearGradient
       id="TVRemoteModernLinear-11"
       x1="60.02"
       y1="315.13"
       x2="43.99"
       y2="299.1"
       xlink:href="#TVRemoteModernLinear" />
    <linearGradient
       id="TVRemoteModernLinear-12"
       x1="73.74"
       y1="342.72"
       x2="57.71"
       y2="326.69"
       xlink:href="#TVRemoteModernLinear" />
    <linearGradient
       id="TVRemoteModernLinear-13"
       x1="101.17"
       y1="342.72"
       x2="85.14"
       y2="326.69"
       xlink:href="#TVRemoteModernLinear" />
    <linearGradient
       id="TVRemoteModernLinear-14"
       x1="46.31"
       y1="342.72"
       x2="30.28"
       y2="326.69"
       xlink:href="#TVRemoteModernLinear" />
    <linearGradient
       id="TVRemoteModernLinear-15"
       x1="44.19"
       y1="65.92"
       x2="28.16"
       y2="49.89"
       xlink:href="#TVRemoteModernLinear" />
    <linearGradient
       id="TVRemoteModernLinear-16"
       x1="73.74"
       y1="65.92"
       x2="57.71"
       y2="49.89"
       xlink:href="#TVRemoteModernLinear" />
    <linearGradient
       id="TVRemoteModernLinear-17"
       x1="103.29"
       y1="65.92"
       x2="87.26"
       y2="49.89"
       xlink:href="#TVRemoteModernLinear" />
    <linearGradient
       id="TVRemoteModernLinear-18"
       x1="44.19"
       y1="93.67"
       x2="28.16"
       y2="77.64"
       xlink:href="#TVRemoteModernLinear" />
    <linearGradient
       id="TVRemoteModernLinear-19"
       x1="73.74"
       y1="93.67"
       x2="57.71"
       y2="77.64"
       xlink:href="#TVRemoteModernLinear" />
    <linearGradient
       id="TVRemoteModernLinear-20"
       x1="103.29"
       y1="93.67"
       x2="87.26"
       y2="77.64"
       xlink:href="#TVRemoteModernLinear" />
    <linearGradient
       id="TVRemoteModernLinear-21"
       x1="44.19"
       y1="121.43"
       x2="28.16"
       y2="105.4"
       xlink:href="#TVRemoteModernLinear" />
    <linearGradient
       id="TVRemoteModernLinear-22"
       x1="73.74"
       y1="121.43"
       x2="57.71"
       y2="105.4"
       xlink:href="#TVRemoteModernLinear" />
    <linearGradient
       id="TVRemoteModernLinear-23"
       x1="103.29"
       y1="121.43"
       x2="87.26"
       y2="105.4"
       xlink:href="#TVRemoteModernLinear" />
    <linearGradient
       id="TVRemoteModernLinear-24"
       x1="73.74"
       y1="149.18"
       x2="57.71"
       y2="133.15"
       xlink:href="#TVRemoteModernLinear" />
    <linearGradient
       id="TVRemoteModernLinear-25"
       x1="44.19"
       y1="149.18"
       x2="28.16"
       y2="133.15"
       xlink:href="#TVRemoteModernLinear" />
    <linearGradient
       id="TVRemoteModernLinear-26"
       x1="103.29"
       y1="149.18"
       x2="87.26"
       y2="133.15"
       xlink:href="#TVRemoteModernLinear" />
    <linearGradient
       id="TVRemoteModernLinear-27"
       x1="42.49"
       y1="191.37"
       x2="14.93"
       y2="163.81"
       xlink:href="#TVRemoteModernLinear" />
    <linearGradient
       id="TVRemoteModernLinear-28"
       x1="116.52"
       y1="191.37"
       x2="88.96"
       y2="163.81"
       xlink:href="#TVRemoteModernLinear" />
    <linearGradient
       id="TVRemoteModernLinear-29"
       x1="42.49"
       y1="256.7"
       x2="14.93"
       y2="229.14"
       xlink:href="#TVRemoteModernLinear" />
    <linearGradient
       id="TVRemoteModernLinear-30"
       x1="116.52"
       y1="256.7"
       x2="88.96"
       y2="229.14"
       xlink:href="#TVRemoteModernLinear" />
    <linearGradient
       id="TVRemoteModernLinear-31"
       x1="73.36"
       y1="218.27"
       x2="57.33"
       y2="202.24"
       xlink:href="#TVRemoteModernLinear" />
    <linearGradient
       id="TVRemoteModernLinear-32"
       x1="105.02"
       y1="220.93"
       x2="83.67"
       y2="199.58"
       gradientTransform="rotate(-90,94.345,210.255)"
       xlink:href="#TVRemoteModernLinear" />
    <linearGradient
       id="TVRemoteModernLinear-33"
       x1="47.02"
       y1="220.93"
       x2="25.67"
       y2="199.58"
       gradientTransform="rotate(-90,36.345,210.255)"
       xlink:href="#TVRemoteModernLinear" />
    <linearGradient
       id="TVRemoteModernLinear-34"
       x1="76.02"
       y1="249.93"
       x2="54.67"
       y2="228.58"
       gradientTransform="rotate(180,65.345,239.255)"
       xlink:href="#TVRemoteModernLinear" />
    <linearGradient
       id="TVRemoteModernLinear-35"
       x1="76.02"
       y1="191.93"
       x2="54.67"
       y2="170.58"
       gradientTransform="rotate(-180,65.345,181.255)"
       xlink:href="#TVRemoteModernLinear" />
    <linearGradient
       inkscape:collect="always"
       xlink:href="#TVRemoteModernLinear"
       id="linearGradient4025"
       gradientUnits="userSpaceOnUse"
       x1="183.12"
       y1="296.49"
       x2="-52.43"
       y2="60.93" />
  </defs>
  <vfp:catalogue
     CATEGORY="Miscellaneous"
     DESC="TV Remote"
     PREFIX="Remote"
     THEME="Generic" />
  <g
     vfp:class="KeyPad"
     id="g224">
    <g
       id="g57"
       class="bounds">
      <g
         id="g49">
        <path
           inkscape:connector-curvature="0"
           id="path45"
           style="fill:#52514e"
           d="m 0,14.38 1.7,284.53 a 55.72,55.72 0 0 0 3.47,19 l 20.17,54.5 a 14.7,14.7 0 0 0 13.85,9.46 h 52.32 a 14.7,14.7 0 0 0 13.85,-9.46 l 20.17,-54.5 a 55.72,55.72 0 0 0 3.47,-19 L 130.7,14.38 A 14.51,14.51 0 0 0 116,0 H 14.72 A 14.51,14.51 0 0 0 0,14.38 Z" />
        <path
           inkscape:connector-curvature="0"
           id="path47"
           style="fill:url(#linearGradient4025)"
           d="m 0,14.38 1.7,284.53 a 55.72,55.72 0 0 0 3.47,19 l 20.17,54.5 a 14.7,14.7 0 0 0 13.85,9.46 h 52.32 a 14.7,14.7 0 0 0 13.85,-9.46 l 20.17,-54.5 a 55.72,55.72 0 0 0 3.47,-19 L 130.7,14.38 A 14.51,14.51 0 0 0 116,0 H 14.72 A 14.51,14.51 0 0 0 0,14.38 Z" />
      </g>
      <g
         id="g55">
        <path
           inkscape:connector-curvature="0"
           id="path51"
           style="fill:#6b6a66"
           d="m 3.18,18 1.61,278.68 a 56,56 0 0 0 3.3,18.62 l 19.19,53.38 a 14,14 0 0 0 13.17,9.26 h 49.79 a 14,14 0 0 0 13.17,-9.26 L 122.6,315.3 a 56,56 0 0 0 3.3,-18.62 L 127.51,18 a 14,14 0 0 0 -14,-14.08 H 17.18 A 14,14 0 0 0 3.18,18 Z" />
        <path
           inkscape:connector-curvature="0"
           id="path53"
           style="fill:url(#TVRemoteModernLinear-2)"
           d="m 3.18,18 1.61,278.68 a 56,56 0 0 0 3.3,18.62 l 19.19,53.38 a 14,14 0 0 0 13.17,9.26 h 49.79 a 14,14 0 0 0 13.17,-9.26 L 122.6,315.3 a 56,56 0 0 0 3.3,-18.62 L 127.51,18 a 14,14 0 0 0 -14,-14.08 H 17.18 A 14,14 0 0 0 3.18,18 Z" />
      </g>
    </g>
    <g
       class="keypad_key"
       vfp:key_value="Power"
       id="g52">
      <circle
         cx="25.889999"
         cy="25.379999"
         r="11.33"
         style="fill:#e62e1f"
         id="circle59" />
      <path
         d="m 27.82,19.57 a 6.12,6.12 0 1 1 -4.15,0.1"
         style="fill:none;stroke:#1d1d1b;stroke-width:1.12899995px;stroke-linecap:round;stroke-miterlimit:10"
         id="path61"
         inkscape:connector-curvature="0" />
      <line
         x1="25.889999"
         y1="17.629999"
         x2="25.889999"
         y2="24.18"
         style="fill:none;stroke:#1d1d1b;stroke-width:1.12899995px;stroke-linecap:round;stroke-miterlimit:10"
         id="line63" />
      <circle
         cx="25.889999"
         cy="25.379999"
         r="11.33"
         style="fill:url(#TVRemoteModernLinear-3)"
         id="circle65" />
    </g>
    <g
       vfp:key_value="Blue"
       class="keypad_key"
       id="g56">
      <circle
         cx="106.87"
         cy="279.34"
         r="11.33"
         style="fill:#03a4d0"
         id="circle69" />
      <circle
         cx="106.87"
         cy="279.34"
         r="11.33"
         style="fill:url(#TVRemoteModernLinear-4)"
         id="circle71" />
    </g>
    <g
       class="keypad_key"
       vfp:key_value="Yellow"
       id="g60">
      <circle
         cx="79.440002"
         cy="279.34"
         r="11.33"
         style="fill:#e8d700"
         id="circle75" />
      <circle
         cx="79.440002"
         cy="279.34"
         r="11.33"
         style="fill:url(#TVRemoteModernLinear-5)"
         id="circle77" />
    </g>
    <g
       class="keypad_key"
       vfp:key_value="Green"
       id="g64">
      <circle
         cx="52.009998"
         cy="279.34"
         r="11.33"
         style="fill:#69b42d"
         id="circle81" />
      <circle
         cx="52.009998"
         cy="279.34"
         r="11.33"
         style="fill:url(#TVRemoteModernLinear-6)"
         id="circle83" />
    </g>
    <g
       class="keypad_key"
       vfp:key_value="Red"
       id="g68">
      <circle
         cx="24.58"
         cy="279.34"
         r="11.33"
         style="fill:#e73728"
         id="circle87" />
      <circle
         cx="24.58"
         cy="279.34"
         r="11.33"
         style="fill:url(#TVRemoteModernLinear-7)"
         id="circle89" />
    </g>
    <g
       class="keypad_key"
       vfp:key_value="Play"
       id="g73">
      <circle
         cx="79.440002"
         cy="306.94"
         r="11.33"
         style="fill:#fffef5"
         id="circle93" />
      <polygon
         points="76.01,302.74 82.87,306.94 76.01,311.13 "
         style="fill:#1d1d1b"
         id="polygon95" />
      <circle
         cx="79.440002"
         cy="306.94"
         r="11.33"
         style="fill:url(#TVRemoteModernLinear-8)"
         id="circle97" />
    </g>
    <g
       class="keypad_key"
       vfp:key_value="Fast Forward"
       id="g79">
      <circle
         cx="106.87"
         cy="307.10999"
         r="11.33"
         style="fill:#fffef5"
         id="circle101" />
      <polygon
         points="101.72,311.31 101.72,302.92 108.58,307.11 "
         style="fill:#1d1d1b"
         id="polygon103" />
      <polygon
         points="105.15,311.31 105.15,302.92 112.02,307.11 "
         style="fill:#1d1d1b"
         id="polygon105" />
      <circle
         cx="106.87"
         cy="307.10999"
         r="11.33"
         style="fill:url(#TVRemoteModernLinear-9)"
         id="circle107" />
    </g>
    <g
       class="keypad_key"
       vfp:key_value="Rewind"
       id="g85">
      <circle
         cx="24.58"
         cy="307.10999"
         r="11.33"
         style="fill:#fffef5"
         id="circle111" />
      <polygon
         points="22.86,307.11 29.72,302.92 29.72,311.31 "
         style="fill:#1d1d1b"
         id="polygon113" />
      <polygon
         points="19.43,307.11 26.29,302.92 26.29,311.31 "
         style="fill:#1d1d1b"
         id="polygon115" />
      <circle
         cx="24.58"
         cy="307.10999"
         r="11.33"
         style="fill:url(#TVRemoteModernLinear-10)"
         id="circle117" />
    </g>
    <g
       class="keypad_key"
       vfp:key_value="Pause"
       id="g91">
      <circle
         cx="52.009998"
         cy="307.10999"
         r="11.33"
         style="fill:#fffef5"
         id="circle121" />
      <rect
         x="48.650002"
         y="302.92001"
         width="2.2"
         height="8.3999996"
         style="fill:#1d1d1b"
         id="rect123" />
      <rect
         x="53.169998"
         y="302.92001"
         width="2.2"
         height="8.3999996"
         style="fill:#1d1d1b"
         id="rect125" />
      <circle
         cx="52.009998"
         cy="307.10999"
         r="11.33"
         style="fill:url(#TVRemoteModernLinear-11)"
         id="circle127" />
    </g>
    <g
       class="keypad_key"
       vfp:key_value="Stop"
       id="g96">
      <circle
         cx="65.720001"
         cy="334.70999"
         r="11.33"
         style="fill:#fffef5"
         id="circle131" />
      <rect
         x="61.52"
         y="330.51001"
         width="8.3999996"
         height="8.3999996"
         style="fill:#1d1d1b"
         id="rect133" />
      <circle
         cx="65.720001"
         cy="334.70999"
         r="11.33"
         style="fill:url(#TVRemoteModernLinear-12)"
         id="circle135" />
    </g>
    <g
       class="keypad_key"
       vfp:key_value="Step Forward"
       id="g102">
      <circle
         cx="93.150002"
         cy="334.70999"
         r="11.33"
         style="fill:#fffef5"
         id="circle139" />
      <polygon
         points="96.4,334.71 89.54,338.9 89.54,330.51 "
         style="fill:#1d1d1b"
         id="polygon141" />
      <rect
         x="95.669998"
         y="330.95999"
         width="1.1"
         height="7.5"
         style="fill:#1d1d1b"
         id="rect143" />
      <circle
         cx="93.150002"
         cy="334.70999"
         r="11.33"
         style="fill:url(#TVRemoteModernLinear-13)"
         id="circle145" />
    </g>
    <g
       class="keypad_key"
       vfp:key_value="Step Back"
       id="g108">
      <circle
         cx="38.290001"
         cy="334.70999"
         r="11.33"
         style="fill:#fffef5"
         id="circle149" />
      <polygon
         points="41.91,338.9 35.04,334.71 41.91,330.51 "
         style="fill:#1d1d1b"
         id="polygon151" />
      <rect
         x="34.68"
         y="330.95999"
         width="1.1"
         height="7.5"
         transform="rotate(180,35.23,334.71)"
         style="fill:#1d1d1b"
         id="rect153" />
      <circle
         cx="38.290001"
         cy="334.70999"
         r="11.33"
         style="fill:url(#TVRemoteModernLinear-14)"
         id="circle155" />
    </g>
    <g
       class="keypad_key"
       vfp:key_value="1"
       id="g113">
      <circle
         cx="36.169998"
         cy="57.900002"
         r="11.33"
         style="fill:#fffef5"
         id="circle159" />
      <text
         transform="translate(33.1,61.42)"
         style="font-size:12px;font-family:MyriadPro-Regular, 'Myriad Pro';fill:#1d1d1b"
         id="text161">1</text>
      <circle
         cx="36.169998"
         cy="57.900002"
         r="11.33"
         style="fill:url(#TVRemoteModernLinear-15)"
         id="circle163" />
    </g>
    <g
       class="keypad_key"
       vfp:key_value="2"
       id="g118">
      <circle
         cx="65.720001"
         cy="57.900002"
         r="11.33"
         style="fill:#fffef5"
         id="circle167" />
      <text
         transform="translate(62.65,61.42)"
         style="font-size:12px;font-family:MyriadPro-Regular, 'Myriad Pro';fill:#1d1d1b"
         id="text169">2</text>
      <circle
         cx="65.720001"
         cy="57.900002"
         r="11.33"
         style="fill:url(#TVRemoteModernLinear-16)"
         id="circle171" />
    </g>
    <g
       class="keypad_key"
       vfp:key_value="3"
       id="g123">
      <circle
         cx="95.269997"
         cy="57.900002"
         r="11.33"
         style="fill:#fffef5"
         id="circle175" />
      <text
         transform="translate(92.19,61.42)"
         style="font-size:12px;font-family:MyriadPro-Regular, 'Myriad Pro';fill:#1d1d1b"
         id="text177">3</text>
      <circle
         cx="95.269997"
         cy="57.900002"
         r="11.33"
         style="fill:url(#TVRemoteModernLinear-17)"
         id="circle179" />
    </g>
    <g
       class="keypad_key"
       vfp:key_value="4"
       id="g128">
      <circle
         cx="36.169998"
         cy="85.660004"
         r="11.33"
         style="fill:#fffef5"
         id="circle183" />
      <text
         transform="translate(33.1,89.18)"
         style="font-size:12px;font-family:MyriadPro-Regular, 'Myriad Pro';fill:#1d1d1b"
         id="text185">4</text>
      <circle
         cx="36.169998"
         cy="85.660004"
         r="11.33"
         style="fill:url(#TVRemoteModernLinear-18)"
         id="circle187" />
    </g>
    <g
       class="keypad_key"
       vfp:key_value="5"
       id="g133">
      <circle
         cx="65.720001"
         cy="85.660004"
         r="11.33"
         style="fill:#fffef5"
         id="circle191" />
      <text
         transform="translate(62.65,89.18)"
         style="font-size:12px;font-family:MyriadPro-Regular, 'Myriad Pro';fill:#1d1d1b"
         id="text193">5</text>
      <circle
         cx="65.720001"
         cy="85.660004"
         r="11.33"
         style="fill:url(#TVRemoteModernLinear-19)"
         id="circle195" />
    </g>
    <g
       class="keypad_key"
       vfp:key_value="6"
       id="g138">
      <circle
         cx="95.269997"
         cy="85.660004"
         r="11.33"
         style="fill:#fffef5"
         id="circle199" />
      <text
         transform="translate(92.19,89.18)"
         style="font-size:12px;font-family:MyriadPro-Regular, 'Myriad Pro';fill:#1d1d1b"
         id="text201">6</text>
      <circle
         cx="95.269997"
         cy="85.660004"
         r="11.33"
         style="fill:url(#TVRemoteModernLinear-20)"
         id="circle203" />
    </g>
    <g
       class="keypad_key"
       vfp:key_value="7"
       id="g143">
      <circle
         cx="36.169998"
         cy="113.41"
         r="11.33"
         style="fill:#fffef5"
         id="circle207" />
      <text
         transform="translate(33.1,116.93)"
         style="font-size:12px;font-family:MyriadPro-Regular, 'Myriad Pro';fill:#1d1d1b"
         id="text209">7</text>
      <circle
         cx="36.169998"
         cy="113.41"
         r="11.33"
         style="fill:url(#TVRemoteModernLinear-21)"
         id="circle211" />
    </g>
    <g
       class="keypad_key"
       vfp:key_value="8"
       id="g148">
      <circle
         cx="65.720001"
         cy="113.41"
         r="11.33"
         style="fill:#fffef5"
         id="circle215" />
      <text
         transform="translate(62.65,116.93)"
         style="font-size:12px;font-family:MyriadPro-Regular, 'Myriad Pro';fill:#1d1d1b"
         id="text217">8</text>
      <circle
         cx="65.720001"
         cy="113.41"
         r="11.33"
         style="fill:url(#TVRemoteModernLinear-22)"
         id="circle219" />
    </g>
    <g
       class="keypad_key"
       vfp:key_value="9"
       id="g153">
      <circle
         cx="95.269997"
         cy="113.41"
         r="11.33"
         style="fill:#fffef5"
         id="circle223" />
      <text
         transform="translate(92.19,116.93)"
         style="font-size:12px;font-family:MyriadPro-Regular, 'Myriad Pro';fill:#1d1d1b"
         id="text225">9</text>
      <circle
         cx="95.269997"
         cy="113.41"
         r="11.33"
         style="fill:url(#TVRemoteModernLinear-23)"
         id="circle227" />
    </g>
    <g
       class="keypad_key"
       vfp:key_value="0"
       id="g158">
      <circle
         cx="65.720001"
         cy="141.17"
         r="11.33"
         style="fill:#fffef5"
         id="circle231" />
      <text
         transform="translate(62.65,144.69)"
         style="font-size:12px;font-family:MyriadPro-Regular, 'Myriad Pro';fill:#1d1d1b"
         id="text233">0</text>
      <circle
         cx="65.720001"
         cy="141.17"
         r="11.33"
         style="fill:url(#TVRemoteModernLinear-24)"
         id="circle235" />
    </g>
    <g
       class="keypad_key"
       vfp:key_value="Record"
       id="g164">
      <circle
         cx="36.169998"
         cy="141.17"
         r="11.33"
         style="fill:#fffef5"
         id="circle239" />
      <circle
         cx="36.169998"
         cy="141.17"
         r="7.9200001"
         style="fill:#e6311f"
         id="circle241" />
      <text
         transform="translate(32.95,144.69)"
         style="font-size:12px;font-family:MyriadPro-Regular, 'Myriad Pro';fill:#841001"
         id="text243">R</text>
      <circle
         cx="36.169998"
         cy="141.17"
         r="11.33"
         style="fill:url(#TVRemoteModernLinear-25)"
         id="circle245" />
    </g>
    <g
       class="keypad_key"
       vfp:key_value="Home"
       id="g169">
      <circle
         cx="95.269997"
         cy="141.17"
         r="11.33"
         style="fill:#fffef5"
         id="circle249" />
      <path
         d="m 100.33,140.29 v 0 l -5.06,-5.67 -2.1,2.38 v -1.3 H 92.3 v 2.27 l -2.08,2.33 v 0 L 89,141.65 h 1.22 v 6.08 h 6.23 v -5.17 h 2.25 v 5.17 h 1.64 v -6.08 h 1.22 z m -6,4.53 H 92 v -2.25 h 2.3 z"
         style="fill:#1d1d1b"
         id="path251"
         inkscape:connector-curvature="0" />
      <circle
         cx="95.269997"
         cy="141.17"
         r="11.33"
         style="fill:url(#TVRemoteModernLinear-26)"
         id="circle253" />
    </g>
    <g
       class="keypad_key"
       vfp:key_value="Channel Up"
       id="g175">
      <rect
         x="8.1400003"
         y="164.24001"
         width="41.130001"
         height="26.700001"
         rx="10.82"
         ry="10.82"
         style="fill:#fffef5"
         id="rect257" />
      <text
         y="175.10004"
         x="10.009995"
         style="font-size:9.75815964px;font-family:MyriadPro-Regular, 'Myriad Pro';fill:#1d1d1b"
         id="text261">Channel<tspan
   x="23.999992"
   y="186.81003"
   id="tspan259">+</tspan>
</text>
      <rect
         x="8.1400003"
         y="164.24001"
         width="41.130001"
         height="26.700001"
         rx="10.82"
         ry="10.82"
         style="fill:url(#TVRemoteModernLinear-27)"
         id="rect263" />
    </g>
    <g
       class="keypad_key"
       vfp:key_value="Volume Up"
       id="g183">
      <rect
         x="82.169998"
         y="164.24001"
         width="41.130001"
         height="26.700001"
         rx="10.82"
         ry="10.82"
         style="fill:#fffef5"
         id="rect267" />
      <text
         y="175.10004"
         x="87.139999"
         style="font-size:9.75815964px;font-family:MyriadPro-Regular, 'Myriad Pro';fill:#1d1d1b"
         id="text275">
        <tspan
           style="letter-spacing:-0.03297521em"
           id="tspan269">V</tspan>
        <tspan
           x="92.260002"
           y="175.10004"
           id="tspan271">olume</tspan>
        <tspan
           x="99.830002"
           y="186.81003"
           id="tspan273">+</tspan>
      </text>
      <rect
         x="82.169998"
         y="164.24001"
         width="41.130001"
         height="26.700001"
         rx="10.82"
         ry="10.82"
         style="fill:url(#TVRemoteModernLinear-28)"
         id="rect277" />
    </g>
    <g
       class="keypad_key"
       vfp:key_value="Channel Down"
       id="g189">
      <rect
         x="8.1400003"
         y="229.57001"
         width="41.130001"
         height="26.700001"
         rx="10.82"
         ry="10.82"
         style="fill:#fffef5"
         id="rect281" />
      <text
         y="240.23001"
         x="9.7099943"
         style="font-size:9.75815964px;font-family:MyriadPro-Regular, 'Myriad Pro';fill:#1d1d1b"
         id="text285">Channel<tspan
   x="25.109991"
   y="251.94002"
   id="tspan283">-</tspan>
</text>
      <rect
         x="8.1400003"
         y="229.57001"
         width="41.130001"
         height="26.700001"
         rx="10.82"
         ry="10.82"
         style="fill:url(#TVRemoteModernLinear-29)"
         id="rect287" />
    </g>
    <g
       class="keypad_key"
       vfp:key_value="Volume Down"
       id="g197">
      <rect
         x="82.169998"
         y="229.57001"
         width="41.130001"
         height="26.700001"
         rx="10.82"
         ry="10.82"
         style="fill:#fffef5"
         id="rect291" />
      <text
         y="240.82921"
         x="86.740387"
         style="font-size:9.75811672px;font-family:MyriadPro-Regular, 'Myriad Pro';fill:#1d1d1b;stroke-width:0.99999559"
         id="text299"
         transform="scale(0.9999956,1.0000044)">
        <tspan
           style="letter-spacing:-0.03297521em;stroke-width:0.99999559"
           id="tspan293">V</tspan>
        <tspan
           x="91.860367"
           y="240.82921"
           id="tspan295"
           style="stroke-width:0.99999559">olume</tspan>
        <tspan
           x="100.84031"
           y="252.53915"
           id="tspan297"
           style="stroke-width:0.99999559">-</tspan>
      </text>
      <rect
         x="82.169998"
         y="229.57001"
         width="41.130001"
         height="26.700001"
         rx="10.82"
         ry="10.82"
         style="fill:url(#TVRemoteModernLinear-30)"
         id="rect301" />
    </g>
    <g
       class="keypad_key"
       vfp:key_value="Ok"
       id="g202">
      <circle
         cx="65.349998"
         cy="210.25999"
         r="11.33"
         style="fill:#fffef5"
         id="circle305" />
      <text
         transform="translate(59.81,212.88)"
         style="font-size:8.92924976px;font-family:MyriadPro-Regular, 'Myriad Pro';fill:#1d1d1b"
         id="text307">OK</text>
      <circle
         cx="65.349998"
         cy="210.25999"
         r="11.33"
         style="fill:url(#TVRemoteModernLinear-31)"
         id="circle309" />
    </g>
    <g
       class="keypad_key"
       vfp:key_value="Right"
       id="g207">
      <rect
         x="85.720001"
         y="192.59"
         width="17.25"
         height="35.330002"
         rx="8.3999996"
         ry="8.3999996"
         transform="rotate(90,94.345,210.255)"
         style="fill:#fffef5"
         id="rect313" />
      <polygon
         points="90.26,206.06 97.12,210.25 90.26,214.45 "
         style="fill:#1d1d1b"
         id="polygon315" />
      <rect
         x="85.720001"
         y="192.59"
         width="17.25"
         height="35.330002"
         rx="8.3999996"
         ry="8.3999996"
         transform="rotate(90,94.345,210.255)"
         style="fill:url(#TVRemoteModernLinear-32)"
         id="rect317" />
    </g>
    <g
       class="keypad_key"
       vfp:key_value="Left"
       id="g212">
      <rect
         x="27.719999"
         y="192.59"
         width="17.25"
         height="35.330002"
         rx="8.3999996"
         ry="8.3999996"
         transform="rotate(90,36.345,210.255)"
         style="fill:#fffef5"
         id="rect321" />
      <polygon
         points="39.78,206.06 39.78,214.45 32.91,210.25 "
         style="fill:#1d1d1b"
         id="polygon323" />
      <rect
         x="27.719999"
         y="192.59"
         width="17.25"
         height="35.330002"
         rx="8.3999996"
         ry="8.3999996"
         transform="rotate(90,36.345,210.255)"
         style="fill:url(#TVRemoteModernLinear-33)"
         id="rect325" />
    </g>
    <g
       class="keypad_key"
       vfp:key_value="Down"
       id="g217">
      <rect
         x="56.720001"
         y="221.59"
         width="17.25"
         height="35.330002"
         rx="8.3999996"
         ry="8.3999996"
         transform="rotate(-180,65.345,239.255)"
         style="fill:#fffef5"
         id="rect329" />
      <polygon
         points="65.35,242.69 61.15,235.82 69.54,235.82 "
         style="fill:#1d1d1b"
         id="polygon331" />
      <rect
         x="56.720001"
         y="221.59"
         width="17.25"
         height="35.330002"
         rx="8.3999996"
         ry="8.3999996"
         transform="rotate(-180,65.345,239.255)"
         style="fill:url(#TVRemoteModernLinear-34)"
         id="rect333" />
    </g>
    <g
       class="keypad_key"
       vfp:key_value="Up"
       id="g222">
      <rect
         x="56.720001"
         y="163.59"
         width="17.25"
         height="35.330002"
         rx="8.3999996"
         ry="8.3999996"
         transform="rotate(180,65.345,181.255)"
         style="fill:#fffef5"
         id="rect337" />
      <polygon
         points="69.54,184.69 61.15,184.69 65.35,177.82 "
         style="fill:#1d1d1b"
         id="polygon339" />
      <rect
         x="56.720001"
         y="163.59"
         width="17.25"
         height="35.330002"
         rx="8.3999996"
         ry="8.3999996"
         transform="rotate(180,65.345,181.255)"
         style="fill:url(#TVRemoteModernLinear-35)"
         id="rect341" />
    </g>
       <text
       class="label"
       x="-20"
       y="-20"
       style="font-style:normal;font-variant:normal;font-weight:normal;font-size:60px;line-height:125%;font-family:sans-serif;text-anchor:middle;fill:#000000;fill-opacity:1;stroke:none"
       xml:space="preserve"
       id="text23">label</text>
  </g>
</svg>
