<svg height="177" width="100"xmlns:vfp="http://www.labcenter.com/namespaces/vfp" xmlns="http://www.w3.org/2000/svg" xmlns:xlink="http://www.w3.org/1999/xlink" viewBox="0 0 100.37 177.15">
  <defs>
    <linearGradient id="WhiteModernSevenSegmentDesplay" x1="115.59" y1="153.98" x2="-15.22" y2="23.17" gradientUnits="userSpaceOnUse">
      <stop offset="0" stop-opacity="0.3"/>
      <stop offset="0.56" stop-opacity="0"/>
    </linearGradient>
    <linearGradient id="WhiteModernSevenSegmentDesplay-2" x1="110.58" y1="148.97" x2="-10.21" y2="28.18" gradientUnits="userSpaceOnUse">
      <stop offset="0" stop-opacity="0.2"/>
      <stop offset="1"/>
    </linearGradient>
  </defs>
  
  <vfp:catalogue
     DESC="7 Segment Display"
     CATEGORY="Display Controls"
     ELEMENTS="1,2,4,6,8,10"
     PREFIX="Display"
     THEME="Modern" />
  
  <g id="root" vfp:class="SegmentedDisplay">
  	<vfp:property
       NAME="elements"
       TYPE="INTEGER"
       VALUE="1" />
		  <g class = "element">
		    <rect class = "bounds" width="100.37" height="177.15" rx="13.52" ry="13.52" style="fill: #fffef5"/>
		    <rect width="100.37" height="177.15" rx="13.52" ry="13.52" style="fill: url(#WhiteModernSevenSegmentDesplay)"/>
		    <rect class = "digitFace" x="5.19" y="5.49" width="89.99" height="166.17" rx="12.4" ry="12.4" style="fill: #fffef5"/>
		    <rect x="5.19" y="5.49" width="89.99" height="166.17" rx="12.4" ry="12.4" style="opacity: 0.15;fill: url(#WhiteModernSevenSegmentDesplay-2)"/>
		    <polygon class = "segment" points="73 16.48 72.75 16.48 27.62 16.48 27.37 16.48 22.62 21.7 27.37 26.92 27.62 26.92 72.75 26.92 73 26.92 77.75 21.7 73 16.48" style="fill: #e30613"/>
		    <polygon class = "segment" points="75.73 31.67 75.73 31.92 75.73 77.04 75.73 77.29 80.95 82.04 86.17 77.29 86.17 77.04 86.17 31.92 86.17 31.67 80.95 26.92 75.73 31.67" style="fill: #e30613"/>
		    <polygon class = "segment" points="75.73 98.64 75.73 98.89 75.73 144.01 75.73 144.26 80.95 149.01 86.17 144.26 86.17 144.01 86.17 98.89 86.17 98.64 80.95 93.89 75.73 98.64" style="fill: #e30613"/>
		    <polygon class = "segment" points="73 150.23 72.75 150.23 27.62 150.23 27.37 150.23 22.62 155.45 27.37 160.67 27.62 160.67 72.75 160.67 73 160.67 77.75 155.45 73 150.23" style="fill: #e30613"/>
		    <polygon class = "segment" points="14.2 99.85 14.2 100.1 14.2 145.23 14.2 145.48 19.42 150.23 24.64 145.48 24.64 145.23 24.64 100.1 24.64 99.85 19.42 95.1 14.2 99.85" style="fill: #e30613"/>
		    <polygon class = "segment" points="14.2 32.89 14.2 33.14 14.2 78.26 14.2 78.51 19.42 83.26 24.64 78.51 24.64 78.26 24.64 33.14 24.64 32.89 19.42 28.14 14.2 32.89" style="fill: #e30613"/>
		    <polygon class = "segment" points="73 83.35 72.75 83.35 27.62 83.35 27.37 83.35 22.62 88.57 27.37 93.79 27.62 93.79 72.75 93.79 73 93.79 77.75 88.57 73 83.35" style="fill: #e30613"/>
		    <circle class = "decpoint" cx="86.17" cy="160.67" r="4.75" style="fill: #e30613"/>
		  </g>
  </g>
</svg>
