<?xml version="1.0" encoding="UTF-8" standalone="no"?>
<svg
   xmlns:vfp="http://www.labcenter.com/namespaces/vfp"
   xmlns:dc="http://purl.org/dc/elements/1.1/"
   xmlns:cc="http://creativecommons.org/ns#"
   xmlns:rdf="http://www.w3.org/1999/02/22-rdf-syntax-ns#"
   xmlns:svg="http://www.w3.org/2000/svg"
   xmlns="http://www.w3.org/2000/svg"
   xmlns:sodipodi="http://sodipodi.sourceforge.net/DTD/sodipodi-0.dtd"
   xmlns:inkscape="http://www.inkscape.org/namespaces/inkscape"
   viewBox="0 0 40 40"
   version="1.1"
   id="svg236"
   sodipodi:docname="SpSquareLed-Green.svg"
   inkscape:version="0.92.1 r15371">
  <metadata
     id="metadata240">
    <rdf:RDF>
      <cc:Work
         rdf:about="">
        <dc:format>image/svg+xml</dc:format>
        <dc:type
           rdf:resource="http://purl.org/dc/dcmitype/StillImage" />
        <dc:title></dc:title>
      </cc:Work>
    </rdf:RDF>
  </metadata>
  <sodipodi:namedview
     pagecolor="#ffffff"
     bordercolor="#666666"
     borderopacity="1"
     objecttolerance="10"
     gridtolerance="10"
     guidetolerance="10"
     inkscape:pageopacity="0"
     inkscape:pageshadow="2"
     inkscape:window-width="1920"
     inkscape:window-height="1017"
     id="namedview238"
     showgrid="false"
     inkscape:zoom="11.8"
     inkscape:cx="-23.552767"
     inkscape:cy="19.653282"
     inkscape:window-x="-8"
     inkscape:window-y="-8"
     inkscape:window-maximized="1"
     inkscape:current-layer="svg236" />
  <defs
     id="defs212">
    <linearGradient
       id="SpSquareLed-Green-1"
       x1="20.02"
       y1="3.5"
       x2="20.02"
       y2="19"
       gradientUnits="userSpaceOnUse">
      <stop
         offset="0"
         stop-color="#fff"
         id="stop122" />
      <stop
         offset="0.54"
         stop-color="#fff"
         stop-opacity="0"
         id="stop124" />
      <stop
         offset="1"
         stop-color="#134d96"
         stop-opacity="0.1"
         id="stop126" />
    </linearGradient>
    <radialGradient
       id="SpSquareLed-Green-2"
       cx="-121.37"
       cy="-241.52"
       r="86.78"
       gradientTransform="matrix(0.41,0.12,-0.12,0.41,34.06,139.3)"
       gradientUnits="userSpaceOnUse">
      <stop
         offset="0"
         stop-color="#efeeee"
         id="stop129" />
      <stop
         offset="0.07"
         stop-color="#edecec"
         stop-opacity="0.97"
         id="stop131" />
      <stop
         offset="0.18"
         stop-color="#e6e5e5"
         stop-opacity="0.88"
         id="stop133" />
      <stop
         offset="0.32"
         stop-color="#dbdbdb"
         stop-opacity="0.73"
         id="stop135" />
      <stop
         offset="0.43"
         stop-color="#d2d2d2"
         stop-opacity="0.6"
         id="stopSpSquareLed-Green-4" />
    </radialGradient>
    <radialGradient
       id="SpSquareLed-Green-2-2"
       cx="-189.01"
       cy="699.05"
       r="32.97"
       gradientTransform="matrix(-0.4,0.14,-0.14,-0.4,58.19,332.64)"
       gradientUnits="userSpaceOnUse">
      <stop
         offset="0"
         stop-color="#feefe1"
         stop-opacity="0.9"
         id="stop140" />
      <stop
         offset="0.14"
         stop-color="#fef5ed"
         stop-opacity="0.66"
         id="stop142" />
      <stop
         offset="0.28"
         stop-color="#fffbf7"
         stop-opacity="0.47"
         id="stop144" />
      <stop
         offset="0.38"
         stop-color="#fffefd"
         stop-opacity="0.35"
         id="stop146" />
      <stop
         offset="0.43"
         stop-color="#fff"
         stop-opacity="0.3"
         id="stop148" />
    </radialGradient>
    <linearGradient
       id="SpSquareLed-Green-3"
       data-name="SpSquareLed-Green-3"
       x1="3.58"
       y1="36.42"
       x2="35.73"
       y2="4.27"
       gradientUnits="userSpaceOnUse">
      <stop
         offset="0"
         stop-color="#886229"
         id="stop151" />
      <stop
         offset="0.09"
         stop-color="#997538"
         id="stop153" />
      <stop
         offset="0.26"
         stop-color="#b89653"
         id="stop155" />
      <stop
         offset="0.41"
         stop-color="#caab63"
         id="stop157" />
      <stop
         offset="0.51"
         stop-color="#d1b269"
         id="stop159" />
      <stop
         offset="0.61"
         stop-color="#ccad65"
         id="stop161" />
      <stop
         offset="0.73"
         stop-color="#bf9e59"
         id="stop163" />
      <stop
         offset="0.86"
         stop-color="#a88645"
         id="stop165" />
      <stop
         offset="0.99"
         stop-color="#89642a"
         id="stop167" />
      <stop
         offset="1"
         stop-color="#886229"
         id="stop169" />
    </linearGradient>
    <linearGradient
       id="SpSquareLed-Green-4"
       data-name="SpSquareLed-Green-4"
       x1="3.65"
       y1="2.11"
       x2="36.21"
       y2="37.74"
       gradientUnits="userSpaceOnUse">
      <stop
         offset="0"
         stop-color="#a05927"
         id="stop172" />
      <stop
         offset="0.25"
         stop-color="#dc9b1a"
         id="stop174" />
      <stop
         offset="0.36"
         stop-color="#fddd6e"
         id="stop176" />
      <stop
         offset="0.48"
         stop-color="#cc8a21"
         id="stop178" />
      <stop
         offset="0.6"
         stop-color="#9f5924"
         id="stop180" />
      <stop
         offset="0.75"
         stop-color="#fddd6e"
         id="stop182" />
      <stop
         offset="0.88"
         stop-color="#c47f23"
         id="stop184" />
      <stop
         offset="1"
         stop-color="#f9d663"
         id="stop186" />
    </linearGradient>
    <linearGradient
       id="SpSquareLed-Green-5"
       data-name="SpSquareLed-Green-5"
       x1="-5.75"
       y1="20"
       x2="37.5"
       y2="20"
       gradientUnits="userSpaceOnUse">
      <stop
         offset="0"
         stop-color="#69320e"
         id="stop189" />
      <stop
         offset="0.22"
         stop-color="#ab7c1a"
         id="stop191" />
      <stop
         offset="0.4"
         stop-color="#dac375"
         id="stop193" />
      <stop
         offset="0.52"
         stop-color="#fcf5b6"
         id="stop195" />
      <stop
         offset="0.61"
         stop-color="#f8f0a8"
         id="stop197" />
      <stop
         offset="0.68"
         stop-color="#f3fafd"
         id="stop199" />
      <stop
         offset="0.73"
         stop-color="#e5d287"
         id="stop201" />
      <stop
         offset="0.78"
         stop-color="#cdac60"
         id="stop203" />
      <stop
         offset="0.8"
         stop-color="#c5a256"
         id="stop205" />
      <stop
         offset="0.84"
         stop-color="#b1873e"
         id="stop207" />
      <stop
         offset="1"
         stop-color="#7d4615"
         id="stop209" />
    </linearGradient>
    <filter
       inkscape:collect="always"
       style="color-interpolation-filters:sRGB"
       id="SpSquareLed-Green-Filter1"
       x="-0.025024267"
       width="1.0500485"
       y="-0.06412581"
       height="1.1282516">
      <feGaussianBlur
         inkscape:collect="always"
         stdDeviation="0.32927765"
         id="feGaussianBlur3932" />
    </filter>
    <filter
       inkscape:collect="always"
       style="color-interpolation-filters:sRGB"
       id="SpSquareLed-Green-Filter2"
       x="-0.017698007"
       width="1.035396"
       y="-0.037271995"
       height="1.074544">
      <feGaussianBlur
         inkscape:collect="always"
         stdDeviation="0.21564054"
         id="feGaussianBlur3936" />
    </filter>
    <filter
       inkscape:collect="always"
       style="color-interpolation-filters:sRGB"
       id="SpSquareLed-Green-Filter3"
       x="-0.078930635"
       width="1.1578613"
       y="-0.014151481"
       height="1.028303">
      <feGaussianBlur
         inkscape:collect="always"
         stdDeviation="0.063327878"
         id="feGaussianBlur3940" />
    </filter>
    <filter
       style="color-interpolation-filters:sRGB;"
       inkscape:label="Feather"
       id="SpSquareLed-Green-Filter4"
       x="-0.1884"
       width="1.3768"
       y="-0.1884"
       height="1.3768">
      <feGaussianBlur
         stdDeviation="3.0018401"
         result="blur"
         id="feGaussianBlur4094" />
      <feComposite
         in="SourceGraphic"
         in2="blur"
         operator="atop"
         result="composite1"
         id="feComposite4096" />
      <feComposite
         in2="composite1"
         operator="in"
         result="composite2"
         id="feComposite4098" />
      <feComposite
         in2="composite2"
         operator="in"
         result="composite3"
         id="feComposite4100" />
    </filter>
    <filter
       id="SpSquareLed-Green-Filter5"
       inkscape:label="Feather"
       style="color-interpolation-filters:sRGB;"
       x="-0.0084"
       width="1.0168"
       y="-0.0084"
       height="1.0168">
      <feComposite
         id="feComposite4111"
         result="composite1"
         operator="atop"
         in2="SourceGraphic"
         in="SourceGraphic" />
      <feComposite
         id="feComposite4113"
         result="composite2"
         operator="in"
         in2="composite1" />
      <feComposite
         id="feComposite4115"
         result="composite3"
         operator="in"
         in2="composite2" />
    </filter>
  </defs>
  <vfp:catalogue
     DESC="Square LED - Green"
     CATEGORY="Indicators"
     PREFIX="LED" />
  <g
     id="SpSquareLed-Green"
     vfp:class="Indicator">
    <rect
       style="fill:#000000"
       id="rect3942"
       ry="7.4699998"
       rx="7.4699998"
       height="38.240002"
       width="38.240002"
       y="0.88"
       x="0.88" />
    <rect
       x="0.88"
       y="0.88"
       width="38.240002"
       height="38.240002"
       rx="7.4699998"
       ry="7.4699998"
       id="rect216"
       class="colour"
       style="display:inline;fill:#00ff00;filter:url(#SpSquareLed-Green-Filter4)" />
    <g
       id="g4107"
       style="display:none">
      <rect
         x="0.88"
         y="0.88"
         width="38.240002"
         height="38.240002"
         rx="7.4699998"
         ry="7.4699998"
         id="rect4104"
         style="display:inline;opacity:0.5;fill:#000000" />
    </g>
    <g
       id="g224"
       style="display:inline">
      <path
         d="M 35.81,11.14 A 4.73,4.73 0 0 1 31,15.72 H 9.09 A 4.73,4.73 0 0 1 4.23,11.14 V 8 A 4.73,4.73 0 0 1 9.09,3.4 H 31 A 4.73,4.73 0 0 1 35.81,8 Z"
         id="path218"
         inkscape:connector-curvature="0"
         style="fill:url(#SpSquareLed-Green-1);filter:url(#SpSquareLed-Green-Filter1)" />
      <path
         d="m 8.06,35.12 c 5.76,1.76 18.19,1.22 24.18,1.92 C 9.69,37.26 8.24,37.14 6.57,36.25 2.02,33.76 3.1,29.87 3.13,23.25 3.5,27.41 2.31,33.36 8.06,35.12 Z"
         id="path220"
         inkscape:connector-curvature="0"
         style="fill:url(#SpSquareLed-Green-2);filter:url(#SpSquareLed-Green-Filter2)" />
      <path
         d="M 34.55,34.91 A 13.55,13.55 0 0 0 35.68,24.17 2,2 0 0 1 34.38,26 c 0,0 2.31,2.89 0.17,8.91 z"
         id="path222"
         inkscape:connector-curvature="0"
         style="display:inline;fill:url(#SpSquareLed-Green-2-2);filter:url(#SpSquareLed-Green-Filter3)" />
    </g>
    <path
       d="M 31.65,1.32 H 8.35 a 7,7 0 0 0 -7,7 v 0 23.3 a 7,7 0 0 0 7,7 h 23.3 a 7,7 0 0 0 7,-7 V 8.35 a 7,7 0 0 0 -7,-7.03 z m 5,29.09 A 6.6,6.6 0 0 1 30.05,37 H 9.6 A 6.6,6.6 0 0 1 3,30.41 v -21 a 6.6,6.6 0 0 1 6.6,-6.6 h 20.45 a 6.6,6.6 0 0 1 6.59,6.59 z"
       id="path226"
       inkscape:connector-curvature="0"
       style="fill:url(#SpSquareLed-Green-3)" />
    <path
       d="M 8.35,39.78 A 8.13,8.13 0 0 1 0.22,31.65 v 0 -23.3 A 8.13,8.13 0 0 1 8.35,0.22 h 23.3 a 8.13,8.13 0 0 1 8.13,8.13 v 0 23.3 a 8.13,8.13 0 0 1 -8.13,8.13 z m -6,-30.43 v 21.46 a 6.82,6.82 0 0 0 6.81,6.81 h 21.47 a 6.82,6.82 0 0 0 6.81,-6.81 V 9 A 6.82,6.82 0 0 0 30.63,2.19 H 9.17 C 5.4,2.17 2.36,4.22 2.35,8 Z"
       id="path228"
       inkscape:connector-curvature="0"
       style="fill:url(#SpSquareLed-Green-4)" />
    <path
       d="m 8.35,40 v -0.44 h 23.3 a 7.91,7.91 0 0 0 7.91,-7.91 v 0 -23.3 A 7.91,7.91 0 0 0 31.65,0.44 H 8.35 A 7.91,7.91 0 0 0 0.44,8.35 v 0 23.3 a 7.91,7.91 0 0 0 7.91,7.91 v 0 V 40 A 8.35,8.35 0 0 1 0,31.65 v 0 -23.3 A 8.35,8.35 0 0 1 8.35,0 h 23.3 A 8.35,8.35 0 0 1 40,8.35 v 0 23.3 A 8.35,8.35 0 0 1 31.65,40 Z"
       id="path230"
       class="bounds"
       inkscape:connector-curvature="0"
       style="fill:url(#SpSquareLed-Green-5)" />
    <text
       class="text"
       id="text73"
       xml:space="preserve"
       style="font-style:normal;font-variant:normal;font-weight:normal;font-size:16.69802094px;line-height:125%;font-family:sans-serif;text-anchor:middle;display:inline;fill:#000000;fill-opacity:1;stroke:none;stroke-width:1.1132015"
       y="55"
       x="20">label</text>
  </g>
</svg>
