<?xml version="1.0" encoding="UTF-8" standalone="no"?>
<svg
   xmlns:vfp="http://www.labcenter.com/namespaces/vfp"
   xmlns:dc="http://purl.org/dc/elements/1.1/"
   xmlns:cc="http://creativecommons.org/ns#"
   xmlns:rdf="http://www.w3.org/1999/02/22-rdf-syntax-ns#"
   xmlns:svg="http://www.w3.org/2000/svg"
   xmlns="http://www.w3.org/2000/svg"
   xmlns:xlink="http://www.w3.org/1999/xlink"
   xmlns:sodipodi="http://sodipodi.sourceforge.net/DTD/sodipodi-0.dtd"
   xmlns:inkscape="http://www.inkscape.org/namespaces/inkscape"
   viewBox="0 0 100 200"
   id="svg2"
   version="1.1"
   inkscape:version="0.92.1 r15371"
   width="100"
   height="200"
   sodipodi:docname="Flip Switch.svg">
  <sodipodi:namedview
     pagecolor="#ffffff"
     bordercolor="#666666"
     borderopacity="1"
     objecttolerance="10"
     gridtolerance="10"
     guidetolerance="10"
     inkscape:pageopacity="0"
     inkscape:pageshadow="2"
     inkscape:window-width="935"
     inkscape:window-height="831"
     id="namedview90"
     showgrid="false"
     showguides="true"
     inkscape:guide-bbox="true"
     inkscape:zoom="2.0000002"
     inkscape:cx="-87.620162"
     inkscape:cy="132.92195"
     inkscape:window-x="870"
     inkscape:window-y="149"
     inkscape:window-maximized="0"
     inkscape:current-layer="g6235" />
  <metadata
     id="metadata92">
    <rdf:RDF>
      <cc:Work
         rdf:about="">
        <dc:format>image/svg+xml</dc:format>
        <dc:type
           rdf:resource="http://purl.org/dc/dcmitype/StillImage" />
        <dc:title />
      </cc:Work>
    </rdf:RDF>
  </metadata>
  <defs
     id="defs4">
    <linearGradient
       gradientUnits="userSpaceOnUse"
       y2="654.87"
       x2="671.38"
       y1="654.87"
       x1="587.78003"
       id="linearGradient3887">
      <stop
         id="stop3889"
         stop-color="#b9b8bc"
         offset="0.25058401" />
      <stop
         id="stop3891"
         stop-color="#c1c0c3"
         offset="0.33315814" />
      <stop
         id="stop3893"
         stop-color="#d6d5d8"
         offset="0.3951641" />
      <stop
         id="stop3895"
         stop-color="#f9f9f9"
         offset="0.4854587" />
      <stop
         id="stop3897"
         stop-color="#fff"
         offset="0.54725564" />
      <stop
         id="stop3899"
         stop-color="#efeeef"
         offset="0.64193809" />
      <stop
         id="stop3901"
         stop-color="#d1d1d3"
         offset="0.78625268" />
      <stop
         id="stop3903"
         stop-color="#bfbec2"
         offset="0.86" />
      <stop
         id="stop3905"
         stop-color="#b9b8bc"
         offset="0.94" />
    </linearGradient>
    <linearGradient
       id="ToggleSwitchFlickSwitchWhite8"
       x1="77.709999"
       y1="72.110001"
       x2="19.27"
       y2="31.190001"
       gradientUnits="userSpaceOnUse">
      <stop
         offset="0.1"
         stop-opacity="0.1"
         id="stop6214" />
      <stop
         offset="1"
         stop-opacity="0.5"
         id="stop6216" />
    </linearGradient>
    <radialGradient
       id="ToggleSwitchFlickSwitchWhite9"
       cx="49.330002"
       cy="6.0100002"
       r="49.75"
       gradientUnits="userSpaceOnUse">
      <stop
         offset="0"
         stop-color="#fff"
         stop-opacity="0.3"
         id="stop6219"
         style="stop-color:#ffffff;stop-opacity:0.78431374;" />
      <stop
         offset="0.56"
         stop-color="#fff"
         stop-opacity="0"
         id="stop6221"
         style="stop-color:#ffffff;stop-opacity:0.19607843;" />
    </radialGradient>
    <linearGradient
       id="ToggleSwitchFlickSwitchWhite10"
       x1="30.309999"
       y1="-101.13"
       x2="77.739998"
       y2="-113.84"
       gradientTransform="matrix(1,0,0,-1,0,39.34)"
       gradientUnits="userSpaceOnUse">
      <stop
         offset="0"
         stop-opacity="0"
         id="stop6224" />
      <stop
         offset="0.58"
         stop-opacity="0.3"
         id="stop6226" />
    </linearGradient>
    <radialGradient
       id="ToggleSwitchFlickSwitchWhite11"
       cx="50.25"
       cy="-154.99001"
       r="49.75"
       gradientTransform="matrix(1,0,0,-0.99393964,0,39.682082)"
       gradientUnits="userSpaceOnUse">
      <stop
         offset="0"
         stop-color="#fff"
         stop-opacity="0.3"
         id="stop6229"
         style="stop-color:#ffffff;stop-opacity:0.69411767;" />
      <stop
         offset="0.55"
         stop-color="#fff"
         stop-opacity="0"
         id="stop6231" />
    </radialGradient>
    <radialGradient
       inkscape:collect="always"
       xlink:href="#linearGradient3887"
       id="radialGradient3323"
       gradientUnits="userSpaceOnUse"
       gradientTransform="matrix(1.1719678,0.01146452,-0.00978182,0.99995216,-7.6202061,-0.56844189)"
       cx="50"
       cy="100"
       fx="50"
       fy="100"
       r="18.48" />
    <linearGradient
       inkscape:collect="always"
       xlink:href="#67"
       id="linearGradient3325"
       gradientUnits="userSpaceOnUse"
       x1="12.849998"
       y1="186.5"
       x2="87.650002"
       y2="15.500004"
       gradientTransform="matrix(1.0243013,0,0,1.0243013,-212.72667,-3.0384551)" />
    <linearGradient
       id="67"
       x1="587.78003"
       y1="654.87"
       x2="671.38"
       y2="654.87"
       gradientUnits="userSpaceOnUse">
      <stop
         offset="0.06"
         stop-color="#b9b8bc"
         id="stop11527" />
      <stop
         offset="0.16"
         stop-color="#c1c0c3"
         id="stop11529" />
      <stop
         offset="0.32"
         stop-color="#d6d5d8"
         id="stop11531" />
      <stop
         offset="0.52"
         stop-color="#f9f9f9"
         id="stop11533" />
      <stop
         offset="0.55"
         stop-color="#fff"
         id="stop11535" />
      <stop
         offset="0.61"
         stop-color="#efeeef"
         id="stop11537" />
      <stop
         offset="0.74"
         stop-color="#d1d1d3"
         id="stop11539" />
      <stop
         offset="0.86"
         stop-color="#bfbec2"
         id="stop11541" />
      <stop
         offset="0.94"
         stop-color="#b9b8bc"
         id="stop11543" />
    </linearGradient>
  </defs>
  <vfp:catalogue
     DESC="Flip Switch"
     CATEGORY="Switches"
     PREFIX="ToggleSwitch" />
  <g 
     vfp:class="ToggleSwitch"
     id="g6233">
    <g 
       id="g6235">
      <rect transform="translate(-111.51161,0.6083257)"
	     class="bounds"
         id="rect45"
         style="fill:#4c5452;fill-opacity:1"
         ry="13.65"
         rx="13.65"
         height="200"
         width="100"
         x="111.51161"
         y="0" />
      <rect 
         id="rect49"
         style="fill:url(#linearGradient3325);fill-opacity:1;stroke:#000000;stroke-width:1.02430129;stroke-opacity:1"
         ry="12.71"
         rx="12.71"
         height="184.0567"
         width="83.275696"
         y="7.3633237"
         x="-203.14946"
         transform="scale(-1,1) translate(111.51161,-0.6083257)" />
      <circle
         id="circle61"
         style="fill:#4c5452;fill-opacity:1;stroke:#000000;stroke-opacity:1"
         r="20.719999"
         cy="100"
         cx="50"
         sodipodi:cx="50"
         sodipodi:cy="100"
         sodipodi:rx="20.719999"
         sodipodi:ry="20.719999"/>
      <circle
         id="circle69"
         style="fill:url(#radialGradient3323);fill-opacity:1;stroke:#000000;stroke-opacity:1"
         r="18.48"
         cy="100"
         cx="50"
         sodipodi:cx="50"
         sodipodi:cy="100"
         sodipodi:rx="18.48"
         sodipodi:ry="18.48"
          />
      <g
         id="g6263">
        <path
           inkscape:connector-curvature="0"
           d="m 50.09,5.16 h -0.17 c -11.62,0 -23,4.79 -20.2,25 l 10.23,63.41 v 0.63 a 10,10 0 0 0 10,10 h 0.1 a 10,10 0 0 0 10,-10 V 93.57 L 70.28,30.2 C 73.1,9.94 61.71,5.19 50.09,5.16 z"
           style="fill:#c7c7c7;fill-opacity:1;stroke:#000000;stroke-opacity:1"
           id="path6265" />
        <path
           inkscape:connector-curvature="0"
           d="m 50.09,5.16 h -0.17 c -11.62,0 -23,4.79 -20.2,25 l 10.23,63.41 v 0.63 a 10,10 0 0 0 10,10 h 0.1 a 10,10 0 0 0 10,-10 V 93.57 L 70.28,30.2 C 73.1,9.94 61.71,5.19 50.09,5.16 z"
           style="fill:url(#ToggleSwitchFlickSwitchWhite8)"
           id="path6267" />
        <path
           inkscape:connector-curvature="0"
           d="m 50.09,5.16 h -0.17 c -11.62,0 -23,4.79 -20.2,25 l 10.23,63.41 v 0.63 a 10,10 0 0 0 10,10 h 0.1 a 10,10 0 0 0 10,-10 V 93.57 L 70.28,30.2 C 73.1,9.94 61.71,5.19 50.09,5.16 z"
           style="fill:url(#ToggleSwitchFlickSwitchWhite9)"
           id="path6269" />
      </g>
      <g
         style="display:none"
         id="g6271">
        <path
           inkscape:connector-curvature="0"
           d="m 50.09,194.84 h -0.17 c -11.62,0 -23,-4.79 -20.2,-25 l 10.23,-63.37 v -0.63 a 10,10 0 0 1 10,-10 h 0.1 a 10,10 0 0 1 10,10 v 0.63 l 10.23,63.33 c 2.82,20.26 -8.57,25.01 -20.19,25.04 z"
           style="fill:#c7c7c7;fill-opacity:1;stroke:#000000;stroke-opacity:1"
           id="path6273" />
        <path
           inkscape:connector-curvature="0"
           d="m 50.09,194.84 h -0.17 c -11.62,0 -23,-4.79 -20.2,-25 l 10.23,-63.37 v -0.63 a 10,10 0 0 1 10,-10 h 0.1 a 10,10 0 0 1 10,10 v 0.63 l 10.23,63.33 c 2.82,20.26 -8.57,25.01 -20.19,25.04 z"
           style="fill:url(#ToggleSwitchFlickSwitchWhite10)"
           id="path6275" />
        <path
           inkscape:connector-curvature="0"
           d="m 50.09,194.23967 h -0.17 c -11.62,0 -23,-4.76096 -20.2,-24.8485 l 10.23,-62.98596 v -0.62616 a 10,9.9393964 0 0 1 10,-9.93938 h 0.1 a 10,9.9393964 0 0 1 10,9.93938 v 0.62616 l 10.23,62.9462 c 2.82,20.13724 -8.57,24.85844 -20.19,24.88826 z"
           style="fill:url(#ToggleSwitchFlickSwitchWhite11);fill-opacity:1"
           id="path6277" />
      </g>
      <text
         class="text"
         id="text5322"
         y="-41.81345"
         x="-28.962091"
         style="font-style:normal;font-variant:normal;font-weight:normal;font-stretch:normal;font-size:27.10623932px;line-height:125%;font-family:Arial;-inkscape-font-specification:Arial;letter-spacing:0px;word-spacing:0px;fill:#000000;fill-opacity:1;stroke:none"
         xml:space="preserve">Label</text>
      <text
         class="text2"
         id="text37"
         y="-41.81345"
         x="-28.962091"
         style="font-style:normal;font-variant:normal;font-weight:normal;font-stretch:normal;font-size:27.10623932px;line-height:125%;font-family:Arial;-inkscape-font-specification:Arial;letter-spacing:0px;word-spacing:0px;fill:#000000;fill-opacity:1;stroke:none"
         xml:space="preserve">One</text>
    </g>
  </g>
</svg>
