<?xml version="1.0" encoding="UTF-8" standalone="no"?>
<svg
   xmlns:vfp="http://www.labcenter.com/namespaces/vfp"
   xmlns:dc="http://purl.org/dc/elements/1.1/"
   xmlns:cc="http://creativecommons.org/ns#"
   xmlns:rdf="http://www.w3.org/1999/02/22-rdf-syntax-ns#"
   xmlns:svg="http://www.w3.org/2000/svg"
   xmlns="http://www.w3.org/2000/svg"
   xmlns:xlink="http://www.w3.org/1999/xlink"
   xmlns:sodipodi="http://sodipodi.sourceforge.net/DTD/sodipodi-0.dtd"
   xmlns:inkscape="http://www.inkscape.org/namespaces/inkscape"
   viewBox="0 0 60 100"
   version="1.1"
   id="svg226"
   sodipodi:docname="Light Switch.svg"
   inkscape:version="0.92.1 r15371"
   width="60"
   height="100">
  <metadata
     id="metadata6047">
    <rdf:RDF>
      <cc:Work
         rdf:about="">
        <dc:format>image/svg+xml</dc:format>
        <dc:type
           rdf:resource="http://purl.org/dc/dcmitype/StillImage" />
        <dc:title />
      </cc:Work>
    </rdf:RDF>
  </metadata>
  <sodipodi:namedview
     pagecolor="#ffffff"
     bordercolor="#666666"
     borderopacity="1"
     objecttolerance="10"
     gridtolerance="10"
     guidetolerance="10"
     inkscape:pageopacity="0"
     inkscape:pageshadow="2"
     inkscape:window-width="1055"
     inkscape:window-height="917"
     id="namedview6045"
     showgrid="false"
     inkscape:zoom="1.668772"
     inkscape:cx="-122.5702"
     inkscape:cy="-0.50869379"
     inkscape:window-x="759"
     inkscape:window-y="75"
     inkscape:window-maximized="0"
     inkscape:current-layer="g6013"
     showguides="true"
     inkscape:guide-bbox="true">
    <sodipodi:guide
       orientation="0,1"
       position="63.135593,-9.3220339"
       id="guide7467"
       inkscape:locked="false" />
  </sodipodi:namedview>
  <defs
     id="defs152">
    <linearGradient
       id="ToggleSwitch1-3"
       x1="31.15"
       y1="51.970001"
       x2="31.15"
       y2="88.050003"
       gradientUnits="userSpaceOnUse">
      <stop
         offset="0"
         stop-color="#54b14c"
         id="stop17"
         style="stop-color:#e1e1e1;stop-opacity:1;" />
      <stop
         offset="1"
         stop-color="#479a40"
         id="stop19"
         style="stop-color:#c7c7c7;stop-opacity:1;" />
    </linearGradient>
    <linearGradient
       id="ToggleSwitch1-3-3"
       x1="31.15"
       y1="20.765783"
       x2="31.15"
       y2="15.13"
       gradientUnits="userSpaceOnUse"
       gradientTransform="translate(57.600001,0)"
       spreadMethod="pad"
       xlink:href="#ToggleSwitch1-3-9-8">
      <stop
         offset="0"
         stop-color="#5fb350"
         id="stop33"
         style="stop-color:#c7c7c7;stop-opacity:1;" />
      <stop
         offset="1"
         stop-color="#52a048"
         id="stop35"
         style="stop-color:#9f9f9f;stop-opacity:1;" />
      <stop
         offset="1"
         stop-color="#397a3a"
         id="stop37"
         style="stop-color:#808080;stop-opacity:1;" />
    </linearGradient>
    <linearGradient
       id="ToggleSwitch1-3-7"
       x1="-694.00812"
       y1="-320.29993"
       x2="-694.00812"
       y2="-356.23001"
       gradientTransform="matrix(-1,0,0,-1,-671.03,-304.52999)"
       xlink:href="#ToggleSwitch1-3-9-8"
       gradientUnits="objectBoundingBox" />
    <linearGradient
       id="ToggleSwitch1-4-2"
       x1="58.82"
       y1="51.93"
       x2="46.990002"
       y2="51.93"
       xlink:href="#67"
       gradientUnits="userSpaceOnUse" />
    <linearGradient
       id="ToggleSwitch1-4-3"
       x1="149.28999"
       y1="-34.880001"
       x2="149.28999"
       y2="-22.549999"
       gradientTransform="matrix(-1,0,0,-1,180.43,63.12)"
       xlink:href="#67"
       gradientUnits="userSpaceOnUse" />
    <linearGradient
       id="ToggleSwitch1-4-4"
       x1="176.85001"
       y1="11.18"
       x2="165.97"
       y2="11.18"
       gradientTransform="matrix(-1,0,0,-1,180.43,63.12)"
       xlink:href="#67"
       gradientUnits="userSpaceOnUse" />
    <linearGradient
       id="ToggleSwitch1-3-18"
       x1="49.150002"
       y1="51.950001"
       x2="46.360001"
       y2="51.950001"
       xlink:href="#67"
       gradientUnits="userSpaceOnUse" />
    <linearGradient
       id="ToggleSwitch1-3-19"
       x1="148.64999"
       y1="-27.07"
       x2="148.64999"
       y2="-24.129999"
       gradientTransform="matrix(-1,0,0,-1,179.76,63.82)"
       xlink:href="#67"
       gradientUnits="userSpaceOnUse" />
    <linearGradient
       id="ToggleSwitch1-3-20"
       x1="166.83"
       y1="11.86"
       x2="164.03999"
       y2="11.86"
       gradientTransform="matrix(-1,0,0,-1,179.76,63.82)"
       xlink:href="#67"
       gradientUnits="userSpaceOnUse" />
    <linearGradient
       inkscape:collect="always"
       xlink:href="#ToggleSwitch1-3"
       id="ToggleSwitch1-5"
       gradientUnits="userSpaceOnUse"
       x1="31.15"
       y1="51.970001"
       x2="31.15"
       y2="88.050003"
       gradientTransform="translate(58.399936,-0.09998772)" />
    <linearGradient
       inkscape:collect="always"
       xlink:href="#67"
       id="linearGradient3908"
       gradientUnits="userSpaceOnUse"
       x1="31.15"
       y1="5.3699999"
       x2="31.15"
       y2="18.01" />
    <linearGradient
       inkscape:collect="always"
       xlink:href="#67"
       id="linearGradient3912"
       gradientUnits="userSpaceOnUse"
       x1="31.15"
       y1="12.82"
       x2="31.139999"
       y2="15.42" />
    <linearGradient
       inkscape:collect="always"
       xlink:href="#ToggleSwitch1-3-9-8"
       id="linearGradient7337"
       gradientUnits="userSpaceOnUse"
       x1="29.273359"
       y1="28.182095"
       x2="29.273359"
       y2="52.09"
       gradientTransform="matrix(1,0,0,1.2545209,57.59999,-13.119818)" />
    <linearGradient
       inkscape:collect="always"
       xlink:href="#ToggleSwitch1-3-3"
       id="linearGradient7351"
       gradientUnits="userSpaceOnUse"
       gradientTransform="matrix(-1,0,0,-1,-670.63,-304.93001)"
       x1="-702.16187"
       y1="-385.34726"
       x2="-702.16187"
       y2="-356.09079" />
    <linearGradient
       inkscape:collect="always"
       xlink:href="#ToggleSwitch1-3-9-8"
       id="linearGradient7353"
       gradientUnits="userSpaceOnUse"
       gradientTransform="matrix(-1,0,0,-1,-670.63,-304.83003)"
       x1="-701.95001"
       y1="-386.12"
       x2="-701.95001"
       y2="-393.07001" />
    <linearGradient
       id="ToggleSwitch1-3-9-8"
       x1="-702.16187"
       y1="-385.34726"
       x2="-702.16187"
       y2="-356.09079"
       gradientTransform="matrix(-1,0,0,-1,-670.63,-304.33)"
       gradientUnits="userSpaceOnUse"
       spreadMethod="pad">
      <stop
         offset="0"
         stop-color="#8ac37a"
         id="stop60-8"
         style="stop-color:#c7c7c7;stop-opacity:1;" />
      <stop
         offset="1"
         stop-color="#54a947"
         id="stop62-2"
         style="stop-color:#565656;stop-opacity:1;" />
    </linearGradient>
    <linearGradient
       inkscape:collect="always"
       xlink:href="#ToggleSwitch1-3-9-8"
       id="linearGradient7399"
       gradientTransform="matrix(-1,0,0,-1,-613.396,-408.16196)"
       x1="-694.00812"
       y1="-319.87003"
       x2="-694.00812"
       y2="-356.23001" />
    <linearGradient
       id="67"
       x1="587.78003"
       y1="654.87"
       x2="671.38"
       y2="654.87"
       gradientUnits="userSpaceOnUse">
      <stop
         offset="0.06"
         stop-color="#b9b8bc"
         id="stop11527" />
      <stop
         offset="0.16"
         stop-color="#c1c0c3"
         id="stop11529" />
      <stop
         offset="0.32"
         stop-color="#d6d5d8"
         id="stop11531" />
      <stop
         offset="0.52"
         stop-color="#f9f9f9"
         id="stop11533" />
      <stop
         offset="0.55"
         stop-color="#fff"
         id="stop11535" />
      <stop
         offset="0.61"
         stop-color="#efeeef"
         id="stop11537" />
      <stop
         offset="0.74"
         stop-color="#d1d1d3"
         id="stop11539" />
      <stop
         offset="0.86"
         stop-color="#bfbec2"
         id="stop11541" />
      <stop
         offset="0.94"
         stop-color="#b9b8bc"
         id="stop11543" />
    </linearGradient>
    <linearGradient
       y2="654.87"
       x2="671.38"
       y1="654.87"
       x1="587.78003"
       gradientTransform="translate(-715.55137,-682.49877)"
       gradientUnits="userSpaceOnUse"
       id="linearGradient15775"
       xlink:href="#67"
       inkscape:collect="always" />
    <linearGradient
       inkscape:collect="always"
       xlink:href="#67"
       id="linearGradient15814"
       x1="53.18985"
       y1="92.402397"
       x2="8.9311504"
       y2="10.905347"
       gradientUnits="userSpaceOnUse" />
  </defs>
  <vfp:catalogue
     PREFIX="ToggleSwitch"
     CATEGORY="Switches"
     DESC="Light Switch" />
  <g
     vfp:class="ToggleSwitch"
     id="g6011">
    <g
       id="g6013">
      <path
         d="M 1.0476536,1.8433631 V 101.84336 H 61.047654 V 1.8433631 z m 7.1474996,3.7651873 2.1052628,1.9487544 z"
         id="path4872"
         inkscape:connector-curvature="0"
         style="opacity:0;fill:#ffffff;fill-opacity:1;stroke-width:1.25030744"
         class="bounds" />
      <path
         style="fill:url(#linearGradient15814);fill-opacity:1;stroke:#000000;stroke-width:0.99231201000000002;stroke-miterlimit:4;stroke-opacity:1;stroke-dasharray:none"
         inkscape:connector-curvature="0"
         id="path156"
         d="M 8.4431561,10.847151 V 93.059839 H 53.677843 V 10.847151 z m 5.3885779,3.095464 1.587186,1.602118 z" />
      <g
         id="Pressed"
         style="display:none"
         transform="translate(-57.6,0)">
        <rect
           style="fill:url(#ToggleSwitch1-5)"
           id="rect158"
           height="73.610001"
           width="31.92"
           y="15.03"
           x="73.589996" />
        <rect
           style="fill:url(#linearGradient7399);fill-opacity:1;display:inline"
           id="rect180-6"
           height="73.610001"
           width="31.92"
           y="-88.702003"
           x="72.603996"
           transform="scale(1,-1)" />
        <rect
           style="fill:url(#linearGradient7337);fill-opacity:1"
           id="rect160"
           height="37.459999"
           width="31.92"
           y="14.58"
           x="72.790001" />
        <rect
           style="fill:url(#ToggleSwitch1-3-3);fill-opacity:1"
           id="rect162"
           height="6.9499998"
           width="31.92"
           y="15.13"
           x="72.790001" />
        <rect
           style="fill:#000000;fill-opacity:1"
           id="rect168"
           height="0.72000003"
           width="30.620001"
           y="21.959999"
           x="73.239998" />
      </g>
      <g
         id="off"
         style="display:inline">
        <rect
           style="fill:url(#ToggleSwitch1-3-7);fill-opacity:1.0"
           id="rect180"
           height="73.610001"
           width="31.92"
           y="14.929999"
           x="14.97" />
        <rect
           style="fill:url(#linearGradient7351);fill-opacity:1.0"
           id="rect182"
           height="29.860001"
           width="31.92"
           y="51.34"
           x="15.37" />
        <rect
           style="fill:url(#linearGradient7353);fill-opacity:1.0"
           id="rect184"
           height="6.9499998"
           width="31.92"
           y="81.290001"
           x="15.37" />
        <rect
           style="fill:#000000;fill-opacity:1"
           id="rect190"
           height="0.72000003"
           width="32.619999"
           y="81.18"
           x="14.81" />
      </g>
      <rect
         style="fill:#4c5452;fill-opacity:1;display:inline"
         id="rect168-2"
         height="0.72000003"
         width="30.219999"
         y="51.848"
         x="15.866" />
      <path
         style="fill:url(#linearGradient3908);fill-opacity:1.0"
         inkscape:connector-curvature="0"
         id="path200"
         d="M 56.82,5 H 5.49 a 2.82,2.82 0 0 0 -2,0.83 l 4.58,4.58 H 54.24 L 58.82,5.83 A 2.82,2.82 0 0 0 56.82,5 z" />
      <path
         style="fill:url(#ToggleSwitch1-4-2);fill-opacity:1.0"
         inkscape:connector-curvature="0"
         id="path202"
         d="m 59.65,7.79 v 88.29 a 2.83,2.83 0 0 1 -0.83,2 L 54.24,93.5 V 10.37 l 4.58,-4.58 a 2.83,2.83 0 0 1 0.83,2 z" />
      <path
         style="fill:url(#ToggleSwitch1-4-3);fill-opacity:1.0"
         inkscape:connector-curvature="0"
         id="path204"
         d="m 5.47,98.91 h 51.34 a 2.82,2.82 0 0 0 2,-0.83 L 54.23,93.5 H 8.05 l -4.58,4.58 a 2.82,2.82 0 0 0 2,0.83 z" />
      <path
         style="fill:url(#ToggleSwitch1-4-4);fill-opacity:1.0"
         inkscape:connector-curvature="0"
         id="path206"
         d="M 2.64,96.08 V 7.79 a 2.83,2.83 0 0 1 0.83,-2 L 8,10.37 V 93.5 l -4.53,4.58 a 2.83,2.83 0 0 1 -0.83,-2 z" />
      <path
         style="fill:#4c5452;fill-opacity:1"
         inkscape:connector-curvature="0"
         id="path208"
         d="M 45.57,14.6 H 16.18 c -0.74,0 -1.61,-0.08 -1.76,0.16 l 1,1.06 30.84,-0.16 1,-0.92 A 4.16,4.16 0 0 0 45.57,14.6 z" />
      <path
         style="fill:#4c5452;fill-opacity:1"
         inkscape:connector-curvature="0"
         id="path210"
         d="m 47.46,16.62 v 71.52 a 2.28,2.28 0 0 1 -0.19,1.27 l -1,-1.09 V 15.57 l 1,-1 c 0.33,0.43 0.19,1.29 0.19,2.05 z" />
      <path
         style="fill:#4c5452;fill-opacity:1"
         inkscape:connector-curvature="0"
         id="path212"
         d="M 16.31,89.26 H 45.7 c 0.74,0 1.61,0.08 1.76,-0.16 l -1,-1.06 -30.86,0.16 -1,0.92 a 4.16,4.16 0 0 0 1.71,0.14 z" />
      <path
         style="fill:#4c5452;fill-opacity:1"
         inkscape:connector-curvature="0"
         id="path214"
         d="M 14.59,87.38 V 15.86 a 2.28,2.28 0 0 1 0.19,-1.27 l 1,1.09 v 72.75 l -1,1 a 7,7 0 0 1 -0.19,-2.05 z" />
      <path
         style="fill:url(#linearGradient3912);fill-opacity:1.0"
         inkscape:connector-curvature="0"
         id="path216"
         d="M 46.73,13.51 H 15.59 c -0.78,0 -1.71,-0.08 -1.86,0.16 l 1.08,1.09 32.67,-0.16 1.07,-0.94 a 4.55,4.55 0 0 0 -1.82,-0.15 z" />
      <path
         style="fill:url(#ToggleSwitch1-3-18);fill-opacity:1.0"
         inkscape:connector-curvature="0"
         id="path218"
         d="m 48.74,15.71 v 73.24 a 2.26,2.26 0 0 1 -0.2,1.3 L 47.47,89.13 V 14.64 l 1.09,-1 a 6.88,6.88 0 0 1 0.18,2.07 z" />
      <path
         style="fill:url(#ToggleSwitch1-3-19);fill-opacity:1.0"
         inkscape:connector-curvature="0"
         id="path220"
         d="m 15.52,90.4 h 31.14 c 0.78,0 1.71,0.08 1.86,-0.16 l -1.08,-1.09 -32.67,0.16 -1.07,0.94 a 4.55,4.55 0 0 0 1.82,0.15 z" />
      <path
         style="fill:url(#ToggleSwitch1-3-20);fill-opacity:1.0"
         inkscape:connector-curvature="0"
         id="path222"
         d="M 13.52,88.19 V 15 a 2.26,2.26 0 0 1 0.2,-1.3 l 1.07,1.12 v 74.44 l -1.09,1 a 6.88,6.88 0 0 1 -0.18,-2.07 z" />
	  <text
         class="text"
         id="text5322"
         y="-41.81345"
         x="-28.962091"
         style="font-style:normal;font-variant:normal;font-weight:normal;font-stretch:normal;font-size:27.10623932px;line-height:125%;font-family:Arial;-inkscape-font-specification:Arial;letter-spacing:0px;word-spacing:0px;fill:#000000;fill-opacity:1;stroke:none"
         xml:space="preserve">Label</text>
      <text
         class="text2"
         id="text37"
         y="-41.81345"
         x="-28.962091"
         style="font-style:normal;font-variant:normal;font-weight:normal;font-stretch:normal;font-size:27.10623932px;line-height:125%;font-family:Arial;-inkscape-font-specification:Arial;letter-spacing:0px;word-spacing:0px;fill:#000000;fill-opacity:1;stroke:none"
         xml:space="preserve">Label</text>
    </g>
  </g>
</svg>
