<?xml version="1.0" encoding="UTF-8" standalone="no"?>
<svg
   xmlns:vfp="http://www.labcenter.com/namespaces/vfp"
   xmlns:dc="http://purl.org/dc/elements/1.1/"
   xmlns:cc="http://creativecommons.org/ns#"
   xmlns:rdf="http://www.w3.org/1999/02/22-rdf-syntax-ns#"
   xmlns:svg="http://www.w3.org/2000/svg"
   xmlns="http://www.w3.org/2000/svg"
   xmlns:xlink="http://www.w3.org/1999/xlink"
   xmlns:sodipodi="http://sodipodi.sourceforge.net/DTD/sodipodi-0.dtd"
   xmlns:inkscape="http://www.inkscape.org/namespaces/inkscape"
   viewBox="0 0 66 94"
   version="1.1"
   id="svg293"
   sodipodi:docname="ToggleSwitch3.svg"
   inkscape:version="0.92.1 r15371">
  <metadata
     id="metadata217">
    <rdf:RDF>
      <cc:Work
         rdf:about="">
        <dc:format>image/svg+xml</dc:format>
        <dc:type
           rdf:resource="http://purl.org/dc/dcmitype/StillImage" />
      </cc:Work>
    </rdf:RDF>
  </metadata>
  <sodipodi:namedview
     pagecolor="#ffffff"
     bordercolor="#666666"
     borderopacity="1"
     objecttolerance="10"
     gridtolerance="10"
     guidetolerance="10"
     inkscape:pageopacity="0"
     inkscape:pageshadow="2"
     inkscape:window-width="2560"
     inkscape:window-height="1417"
     id="namedview215"
     showgrid="false"
     inkscape:zoom="14.202315"
     inkscape:cx="21.628918"
     inkscape:cy="38.48064"
     inkscape:window-x="1912"
     inkscape:window-y="-8"
     inkscape:window-maximized="1"
     inkscape:current-layer="g211" />
  <defs
     id="defs223">
    <linearGradient
       gradientUnits="userSpaceOnUse"
       gradientTransform="translate(469.35 -101.31)"
       y2="184.66"
       x2="-407.97"
       y1="188.94"
       x1="-415.47"
       data-name="Gold 14"
       id="ToggleSwitch3-1">
      <stop
         id="stop5050"
         stop-color="#893813"
         offset="0" />
      <stop
         id="stop5052"
         stop-color="#eae43b"
         offset="0.11" />
      <stop
         id="stop5054"
         stop-color="#f9ae27"
         offset="0.2" />
      <stop
         id="stop5056"
         stop-color="#a46b1e"
         offset="0.28" />
      <stop
         id="stop5058"
         stop-color="#422b13"
         offset="0.39" />
      <stop
         id="stop5060"
         stop-color="#be8725"
         offset="0.52" />
      <stop
         id="stop5062"
         stop-color="#f9ba42"
         offset="0.63" />
      <stop
         id="stop5064"
         stop-color="#b58726"
         offset="0.75" />
      <stop
         id="stop5066"
         stop-color="#fcef79"
         offset="0.85"
         style="stop-color:#fcef7a;stop-opacity:1" />
      <stop
         id="stop5068"
         stop-color="#fbe973"
         offset="0.87" />
      <stop
         id="stop5070"
         stop-color="#f7d862"
         offset="0.9" />
      <stop
         id="stop5072"
         stop-color="#f1bd46"
         offset="0.93" />
      <stop
         id="stop5074"
         stop-color="#e8971f"
         offset="0.97" />
      <stop
         id="stop5076"
         stop-color="#e8961e"
         offset="0.97" />
    </linearGradient>
    <linearGradient
       gradientUnits="userSpaceOnUse"
       gradientTransform="translate(469.35 -101.31)"
       y2="184.66"
       x2="-407.97"
       y1="188.94"
       x1="-415.47"
       data-name="Gold 14"
       id="ToggleSwitch3-2">
      <stop
         id="stop5020"
         stop-color="#893813"
         offset="0" />
      <stop
         id="stop5022"
         stop-color="#eae43b"
         offset="0.11" />
      <stop
         id="stop5024"
         stop-color="#f9ae27"
         offset="0.2"
         style="stop-color:#f9ae29;stop-opacity:1" />
      <stop
         id="stop5026"
         stop-color="#a46b1e"
         offset="0.28" />
      <stop
         id="stop5028"
         stop-color="#422b13"
         offset="0.39" />
      <stop
         id="stop5030"
         stop-color="#be8725"
         offset="0.52" />
      <stop
         id="stop5032"
         stop-color="#f9ba42"
         offset="0.63" />
      <stop
         id="stop5034"
         stop-color="#b58726"
         offset="0.75" />
      <stop
         id="stop5036"
         stop-color="#fcef79"
         offset="0.85" />
      <stop
         id="stop5038"
         stop-color="#fbe973"
         offset="0.87" />
      <stop
         id="stop5040"
         stop-color="#f7d862"
         offset="0.9" />
      <stop
         id="stop5042"
         stop-color="#f1bd46"
         offset="0.93" />
      <stop
         id="stop5044"
         stop-color="#e8971f"
         offset="0.97" />
      <stop
         id="stop5046"
         stop-color="#e8961e"
         offset="0.97" />
    </linearGradient>
    <linearGradient
       gradientUnits="userSpaceOnUse"
       gradientTransform="translate(469.35 -101.31)"
       y2="184.66"
       x2="-407.97"
       y1="188.94"
       x1="-415.47"
       data-name="Gold 14"
       id="ToggleSwitch3-3">
      <stop
         id="stop4990"
         stop-color="#893813"
         offset="0" />
      <stop
         id="stop4992"
         stop-color="#eae43b"
         offset="0.11" />
      <stop
         id="stop4994"
         stop-color="#f9ae27"
         offset="0.2" />
      <stop
         id="stop4996"
         stop-color="#a46b1e"
         offset="0.28" />
      <stop
         id="stop4998"
         stop-color="#422b13"
         offset="0.39" />
      <stop
         id="stop5000"
         stop-color="#be8725"
         offset="0.52" />
      <stop
         id="stop5002"
         stop-color="#f9ba42"
         offset="0.63" />
      <stop
         id="stop5004"
         stop-color="#b58726"
         offset="0.75" />
      <stop
         id="stop5006"
         stop-color="#fcef79"
         offset="0.85" />
      <stop
         id="stop5008"
         stop-color="#fbe973"
         offset="0.87" />
      <stop
         id="stop5010"
         stop-color="#f7d862"
         offset="0.9" />
      <stop
         id="stop5012"
         stop-color="#f1bd46"
         offset="0.93" />
      <stop
         id="stop5014"
         stop-color="#e8971f"
         offset="0.97" />
      <stop
         id="stop5016"
         stop-color="#e8961e"
         offset="0.97"
         style="stop-color:#e89626;stop-opacity:1" />
    </linearGradient>
    <linearGradient
       id="ToggleSwitch3-4"
       data-name="Wood 04"
       x1="-16.31"
       y1="870.69"
       x2="-16.31"
       y2="776.69"
       gradientTransform="translate(49.31,-776.69)"
       gradientUnits="userSpaceOnUse">
      <stop
         offset="0"
         stop-color="#070505"
         id="stop2" />
      <stop
         offset="0.04"
         stop-color="#070505"
         id="stop4" />
      <stop
         offset="0.08"
         stop-color="#27130c"
         id="stop6" />
      <stop
         offset="0.13"
         stop-color="#3d1f13"
         id="stop8" />
      <stop
         offset="0.18"
         stop-color="#3f2114"
         id="stop10" />
      <stop
         offset="0.19"
         stop-color="#976452"
         id="stop12" />
      <stop
         offset="0.2"
         stop-color="#240f0b"
         id="stop14" />
      <stop
         offset="0.3"
         stop-color="#71361f"
         id="stop16" />
      <stop
         offset="0.32"
         stop-color="#321a12"
         id="stop18" />
      <stop
         offset="0.33"
         stop-color="#5f2311"
         id="stop20" />
      <stop
         offset="0.37"
         stop-color="#af5c2e"
         id="stop22" />
      <stop
         offset="0.38"
         stop-color="#020202"
         id="stop24" />
      <stop
         offset="0.39"
         stop-color="#a15e3a"
         id="stop26" />
      <stop
         offset="0.43"
         stop-color="#5e3f2c"
         id="stop28" />
      <stop
         offset="0.47"
         stop-color="#46251a"
         id="stop30" />
      <stop
         offset="0.49"
         stop-color="#80503b"
         id="stop32" />
      <stop
         offset="0.51"
         stop-color="#250d0c"
         id="stop34" />
      <stop
         offset="0.55"
         stop-color="#8a5235"
         id="stop36" />
      <stop
         offset="0.66"
         stop-color="#432014"
         id="stop38" />
      <stop
         offset="0.68"
         stop-color="#32170e"
         id="stop40" />
      <stop
         offset="0.72"
         stop-color="#503632"
         id="stop42" />
      <stop
         offset="0.72"
         stop-color="#b97b50"
         id="stop44" />
      <stop
         offset="0.74"
         stop-color="#4b2a17"
         id="stop46" />
      <stop
         offset="0.75"
         stop-color="#6c4534"
         id="stop48" />
      <stop
         offset="0.77"
         stop-color="#4f3225"
         id="stop50" />
      <stop
         offset="0.8"
         stop-color="#3e2b20"
         id="stop52" />
      <stop
         offset="0.81"
         stop-color="#f8b992"
         id="stop54" />
      <stop
         offset="0.81"
         stop-color="#e3a885"
         id="stop56" />
      <stop
         offset="0.81"
         stop-color="#9d7059"
         id="stop58" />
      <stop
         offset="0.81"
         stop-color="#664436"
         id="stop60" />
      <stop
         offset="0.82"
         stop-color="#3e241d"
         id="stop62" />
      <stop
         offset="0.82"
         stop-color="#26100e"
         id="stop64" />
      <stop
         offset="0.82"
         stop-color="#1d0908"
         id="stop66" />
      <stop
         offset="0.82"
         stop-color="#1d0908"
         id="stop68" />
      <stop
         offset="0.83"
         stop-color="#1d0908"
         id="stop70" />
      <stop
         offset="0.83"
         stop-color="#291512"
         id="stop72" />
      <stop
         offset="0.85"
         stop-color="#3a251f"
         id="stop74" />
      <stop
         offset="0.86"
         stop-color="#442f27"
         id="stop76" />
      <stop
         offset="0.87"
         stop-color="#47322a"
         id="stop78" />
      <stop
         offset="0.9"
         stop-color="#765751"
         id="stop80" />
      <stop
         offset="0.92"
         stop-color="#4b3733"
         id="stop82" />
      <stop
         offset="0.96"
         stop-color="#332425"
         id="stop84" />
      <stop
         offset="0.98"
         stop-color="#573730"
         id="stop86" />
      <stop
         offset="1"
         stop-color="#402517"
         id="stop88" />
    </linearGradient>
    <linearGradient
       id="ToggleSwitch3-5"
       x1="-417.47"
       y1="207.64"
       x2="-408.02"
       y2="207.64"
       gradientTransform="translate(470.59 -121.99)"
       gradientUnits="userSpaceOnUse">
      <stop
         offset="0"
         stop-color="#ffedc2"
         id="stop91" />
      <stop
         offset="0.18"
         stop-color="#f7efa6"
         id="stop93" />
      <stop
         offset="0.38"
         stop-color="#f4d16e"
         id="stop95" />
      <stop
         offset="0.47"
         stop-color="#eec65d"
         id="stop97" />
      <stop
         offset="0.57"
         stop-color="#e4b64f"
         id="stop99" />
      <stop
         offset="0.62"
         stop-color="#af711f"
         id="stop101" />
      <stop
         offset="0.65"
         stop-color="#af711f"
         id="stop103" />
      <stop
         offset="0.72"
         stop-color="#f2d76b"
         id="stop105" />
      <stop
         offset="0.79"
         stop-color="#f8e87d"
         id="stop107" />
      <stop
         offset="0.84"
         stop-color="#f7f1a4"
         id="stop109" />
      <stop
         offset="0.89"
         stop-color="#fff2c5"
         id="stop111" />
      <stop
         offset="0.94"
         stop-color="#e6ad04"
         id="stop113" />
      <stop
         offset="0.94"
         stop-color="#e6ad04"
         id="stop115" />
      <stop
         offset="1"
         stop-color="#fbcb4a"
         id="stop117" />
    </linearGradient>
    <linearGradient
       id="ToggleSwitch3-6"
       data-name="Gold 14"
       x1="-415.47"
       y1="188.94"
       x2="-407.97"
       y2="184.66"
       gradientTransform="translate(469.35 -101.31)"
       gradientUnits="userSpaceOnUse">
      <stop
         offset="0"
         stop-color="#893813"
         id="stop120" />
      <stop
         offset="0.11"
         stop-color="#eae43b"
         id="stop122" />
      <stop
         offset="0.2"
         stop-color="#f9ae27"
         id="stop124" />
      <stop
         offset="0.28"
         stop-color="#a46b1e"
         id="stop126" />
      <stop
         offset="0.39"
         stop-color="#422b13"
         id="stop128" />
      <stop
         offset="0.52"
         stop-color="#be8725"
         id="stop130" />
      <stop
         offset="0.63"
         stop-color="#f9ba42"
         id="stop132" />
      <stop
         offset="0.75"
         stop-color="#b58726"
         id="stop134" />
      <stop
         offset="0.85"
         stop-color="#fcef79"
         id="stop136" />
      <stop
         offset="0.87"
         stop-color="#fbe973"
         id="stop138" />
      <stop
         offset="0.9"
         stop-color="#f7d862"
         id="stop140" />
      <stop
         offset="0.93"
         stop-color="#f1bd46"
         id="stop142" />
      <stop
         offset="0.97"
         stop-color="#e8971f"
         id="stop144" />
      <stop
         offset="0.97"
         stop-color="#e8961e"
         id="stop146" />
    </linearGradient>
    <linearGradient
       id="ToggleSwitch3-5-2"
       x1="54.938229"
       y1="11.777489"
       x2="61.451248"
       y2="5.0532327"
       xlink:href="#ToggleSwitch3-5"
       gradientTransform="translate(0,2)" />
    <linearGradient
       id="ToggleSwitch3-6-2"
       x1="55.56356"
       y1="11.75"
       x2="61.93644"
       y2="3.8834746"
       xlink:href="#ToggleSwitch3-2"
       gradientTransform="translate(0,2)" />
    <linearGradient
       id="ToggleSwitch3-5-3"
       x1="5.0037074"
       y1="89.070976"
       x2="11.75"
       y2="81.328918"
       xlink:href="#ToggleSwitch3-5"
       gradientTransform="translate(0,-2)" />
    <linearGradient
       id="ToggleSwitch3-6-3"
       x1="4.6800847"
       y1="88.423729"
       x2="12.347458"
       y2="81.154663"
       xlink:href="#ToggleSwitch3-1"
       gradientTransform="translate(0,-2)" />
    <linearGradient
       id="ToggleSwitch3-5-4"
       x1="5.4040484"
       y1="11.72468"
       x2="11.248166"
       y2="4.0146694"
       xlink:href="#ToggleSwitch3-5"
       gradientTransform="translate(0,2)" />
    <linearGradient
       id="ToggleSwitch3-6-4"
       x1="5.3771186"
       y1="11.152542"
       x2="11.650424"
       y2="4.4809322"
       xlink:href="#ToggleSwitch3-3"
       gradientTransform="translate(0,2)" />
    <linearGradient
       id="ToggleSwitch3-7"
       data-name="Gold 15"
       x1="4.21"
       y1="46.01"
       x2="61.57"
       y2="46.01"
       gradientUnits="userSpaceOnUse">
      <stop
         offset="0"
         stop-color="#69410f"
         id="stop155" />
      <stop
         offset="0.1"
         stop-color="#f8ad3a"
         id="stop157" />
      <stop
         offset="0.22"
         stop-color="#724612"
         id="stop159" />
      <stop
         offset="0.45"
         stop-color="#f9b54e"
         id="stop161" />
      <stop
         offset="0.5"
         stop-color="#eb9c34"
         id="stop163" />
      <stop
         offset="0.55"
         stop-color="#facd7b"
         id="stop165" />
      <stop
         offset="0.65"
         stop-color="#c28127"
         id="stop167" />
      <stop
         offset="0.77"
         stop-color="#eaa232"
         id="stop169" />
      <stop
         offset="1"
         stop-color="#7b4e12"
         id="stop171" />
    </linearGradient>
    <linearGradient
       id="ToggleSwitch3-7-2"
       x1="-138.44"
       y1="457.43"
       x2="-138.44"
       y2="435.74"
       gradientTransform="matrix(2.3,0,0,2.3,344.54,-980.88)"
       xlink:href="#ToggleSwitch3-7" />
    <linearGradient
       id="ToggleSwitch3-7-3"
       x1="-271.61"
       y1="434.41"
       x2="-271.61"
       y2="456.07"
       gradientTransform="matrix(2.3,0,0,2.3,664.59,-977.64)"
       xlink:href="#ToggleSwitch3-7" />
    <linearGradient
       id="ToggleSwitch3-5-5"
       x1="-255.1"
       y1="320.73"
       x2="-229.08"
       y2="354.03"
       gradientTransform="translate(275.66,-290.78)"
       xlink:href="#ToggleSwitch3-7" />
    <linearGradient
       id="ToggleSwitch3-7-4"
       x1="-203.95"
       y1="405.38"
       x2="-209.86"
       y2="389.15"
       gradientTransform="matrix(2.3,0,0,2.3,509.31,-866.84)"
       xlink:href="#ToggleSwitch3-7" />
    <radialGradient
       id="ToggleSwitch3-8"
       cx="-242.09"
       cy="356.02"
       r="17.76"
       gradientTransform="translate(275.66,-309.37)"
       xlink:href="#ToggleSwitch3-5" />
    <radialGradient
       id="ToggleSwitch3-8-2"
       cx="-238.94"
       cy="519.88"
       fx="-246.360321138372"
       fy="505.5674188904161"
       r="16.12"
       gradientTransform="translate(271.83,-473.87)"
       gradientUnits="userSpaceOnUse">
      <stop
         offset="0.01"
         stop-color="#ebc17d"
         id="stop179" />
      <stop
         offset="0.19"
         stop-color="#edd189"
         id="stop181" />
      <stop
         offset="0.41"
         stop-color="#f4e8d9"
         id="stop183" />
      <stop
         offset="0.73"
         stop-color="#c0832a"
         id="stop185" />
      <stop
         offset="0.95"
         stop-color="#ebbf81"
         id="stop187" />
    </radialGradient>
    <linearGradient
       id="ToggleSwitch3-7-5"
       x1="27.53"
       y1="39.77"
       x2="40.99"
       y2="55.44"
       xlink:href="#ToggleSwitch3-7" />
    <linearGradient
       id="ToggleSwitch3-5-6"
       x1="-167.47"
       y1="279.47"
       x2="-136.38"
       y2="279.47"
       gradientTransform="translate(184.75,-194.47)"
       xlink:href="#ToggleSwitch3-5" />
    <linearGradient
       id="ToggleSwitch3-5-7"
       x1="-182.72"
       y1="632.84"
       x2="-159.21"
       y2="632.84"
       gradientTransform="translate(203.33,-624.41254)"
       xlink:href="#ToggleSwitch3-5" />
    <linearGradient
       id="ToggleSwitch3-5-8"
       x1="-210.25"
       y1="438.85"
       x2="-200.85"
       y2="438.85"
       gradientTransform="matrix(2.3,0,0,2.3,505.51,-952.4)"
       xlink:href="#ToggleSwitch3-5" />
    <radialGradient
       id="ToggleSwitch3-8-3"
       cx="-238.97"
       cy="444.2"
       r="10.24"
       gradientTransform="translate(271.86,-383.45)"
       xlink:href="#ToggleSwitch3-5" />
    <radialGradient
       id="ToggleSwitch3-8-4"
       cx="-239.37"
       cy="439.04"
       r="9.44"
       gradientTransform="translate(272.35 -378.27)"
       gradientUnits="userSpaceOnUse">
      <stop
         offset="0"
         stop-color="#ba7812"
         id="stop195" />
      <stop
         offset="0.13"
         stop-color="#cc922e"
         id="stop197" />
      <stop
         offset="0.38"
         stop-color="#eac05e"
         id="stop199" />
      <stop
         offset="0.5"
         stop-color="#f6d170"
         id="stop201" />
      <stop
         offset="0.62"
         stop-color="#eac05e"
         id="stop203" />
      <stop
         offset="0.87"
         stop-color="#cc922e"
         id="stop205" />
      <stop
         offset="1"
         stop-color="#ba7812"
         id="stop207" />
    </radialGradient>
    <radialGradient
       id="ToggleSwitch3-8-5"
       cx="-202.74"
       cy="435.61"
       r="1.6"
       gradientTransform="matrix(0.01, 2.3, -7.85, 0.02, 3456.52, 512.19)"
       gradientUnits="userSpaceOnUse">
      <stop
         offset="0.59"
         stop-color="#f4e8d9"
         stop-opacity="0.4"
         id="stop210" />
      <stop
         offset="0.81"
         stop-color="#edd189"
         stop-opacity="0.2"
         id="stop212" />
      <stop
         offset="0.86"
         stop-color="#eccc86"
         stop-opacity="0.17"
         id="stop214" />
      <stop
         offset="0.99"
         stop-color="#ebc17d"
         stop-opacity="0.1"
         id="stop216" />
    </radialGradient>
    <linearGradient
       id="ToggleSwitch3-5-9"
       x1="-210.16"
       y1="443.02"
       x2="-200.76"
       y2="443.02"
       gradientTransform="matrix(2.3,0,0,-3.1769911,505.51,1437.3519)"
       xlink:href="#ToggleSwitch3-5" />
    <radialGradient
       id="ToggleSwitch3-8-6"
       cx="-238.78"
       cy="453.79"
       r="10.24"
       gradientTransform="matrix(1,0,0,-1,271.86,477.29355)"
       xlink:href="#ToggleSwitch3-5" />
    <radialGradient
       id="ToggleSwitch3-8-7"
       cx="-239.18"
       cy="448.63"
       r="9.44"
       gradientTransform="matrix(1,0,0,-1,272.35,472.12355)"
       xlink:href="#ToggleSwitch3-8-4" />
    <radialGradient
       id="ToggleSwitch3-8-8"
       cx="-202.69"
       cy="437.59"
       r="1.6"
       gradientTransform="matrix(0.01,-2.3,-7.85,-0.02,3472.19,-427.39645)"
       xlink:href="#ToggleSwitch3-8-5" />
    <linearGradient
       inkscape:collect="always"
       xlink:href="#ToggleSwitch3-5"
       id="ToggleSwitch3-9"
       gradientUnits="userSpaceOnUse"
       gradientTransform="translate(470.59,-123.99)"
       x1="-417.47"
       y1="207.64"
       x2="-408.02"
       y2="207.64" />
    <linearGradient
       inkscape:collect="always"
       xlink:href="#ToggleSwitch3-6"
       id="ToggleSwitch3-10"
       gradientUnits="userSpaceOnUse"
       gradientTransform="translate(469.35,-103.31)"
       x1="-415.47"
       y1="188.94"
       x2="-407.97"
       y2="184.66" />
    <linearGradient
       inkscape:collect="always"
       xlink:href="#ToggleSwitch3-7"
       id="ToggleSwitch3-11"
       gradientUnits="userSpaceOnUse"
       x1="4.21"
       y1="46.01"
       x2="61.57"
       y2="46.01" />
    <linearGradient
       inkscape:collect="always"
       xlink:href="#ToggleSwitch3-5"
       id="linearGradient3899"
       gradientTransform="matrix(2.3,0,0,3.1769911,505.51,-1344.1691)"
       x1="-210.16"
       y1="443.02"
       x2="-200.76"
       y2="443.02" />
    <radialGradient
       inkscape:collect="always"
       xlink:href="#ToggleSwitch3-5"
       id="radialGradient3901"
       gradientTransform="translate(271.86,-384.11078)"
       cx="-238.78"
       cy="453.79"
       r="10.24" />
    <radialGradient
       inkscape:collect="always"
       xlink:href="#ToggleSwitch3-8-4"
       id="radialGradient3903"
       gradientTransform="translate(272.35,-378.94078)"
       cx="-239.18"
       cy="448.63"
       r="9.44" />
    <radialGradient
       inkscape:collect="always"
       xlink:href="#ToggleSwitch3-8-5"
       id="radialGradient3905"
       gradientTransform="matrix(0.01,-2.3,-7.85,-0.02,3472.19,-381.10186)"
       cx="-202.69"
       cy="437.59"
       r="1.6" />
  </defs>
  <vfp:catalogue
     PREFIX="ToggleSwitch"
     CATEGORY="Switches"
     DESC="Flick Switch 1" />
  <g
     vfp:class="ToggleSwitch"
     id="g4983">
    <g
       id="g211">
      <path
         style="fill:url(#ToggleSwitch3-4);fill-rule:evenodd"
         inkscape:connector-curvature="0"
         id="path227"
         d="M 5.61,0 H 60.39 A 5.61,5.61 0 0 1 66,5.58 V 88.42 A 5.61,5.61 0 0 1 60.39,94 H 5.61 A 5.61,5.61 0 0 1 0,88.42 V 5.58 A 5.61,5.61 0 0 1 5.61,0 Z"
         class="bounds" />
      <path
         style="fill:url(#ToggleSwitch3-9);fill-rule:evenodd"
         inkscape:connector-curvature="0"
         id="path229"
         d="m 57.85,78.93 a 4.72,4.72 0 1 1 -4.72,4.72 4.72,4.72 0 0 1 4.72,-4.72 z" />
      <path
         style="fill:url(#ToggleSwitch3-10);fill-rule:evenodd"
         inkscape:connector-curvature="0"
         id="path231"
         d="m 57.7,79.09 a 4.36,4.36 0 1 1 -4.36,4.36 4.36,4.36 0 0 1 4.36,-4.36 z" />
      <path
         style="fill:url(#ToggleSwitch3-5-2);fill-opacity:1;fill-rule:evenodd"
         inkscape:connector-curvature="0"
         id="path233"
         d="M 58.1,5.52 A 4.72,4.72 0 1 1 53.38,10.24 4.72,4.72 0 0 1 58.1,5.52 Z" />
      <path
         style="fill:url(#ToggleSwitch3-5-3);fill-opacity:1;fill-rule:evenodd"
         inkscape:connector-curvature="0"
         id="path237"
         d="M 8,78.87 A 4.72,4.72 0 1 1 3.32,83.6 4.72,4.72 0 0 1 8,78.87 Z" />
      <path
         style="fill:url(#ToggleSwitch3-5-4);fill-opacity:1;fill-rule:evenodd"
         inkscape:connector-curvature="0"
         id="path241"
         d="M 8.16,5.3 A 4.72,4.72 0 1 1 3.44,10 4.72,4.72 0 0 1 8.16,5.3 Z" />
      <path
         style="opacity:0.46000001;fill:#010101;fill-rule:evenodd"
         inkscape:connector-curvature="0"
         id="path245"
         d="M 61.76,47.13 48,71 a 1.14,1.14 0 0 1 -1,0.58 H 19.49 A 1.17,1.17 0 0 1 18.94,71.45 L 19.83,70 h 26.11 a 1.14,1.14 0 0 0 1,-0.58 l 13,-22.3 A 1.14,1.14 0 0 0 60,46 L 46.67,23.08 47.61,21.73 a 1.17,1.17 0 0 1 0.4,0.42 L 61.76,46 a 1.14,1.14 0 0 1 0,1.17 z" />
      <path
         style="fill:url(#ToggleSwitch3-11);fill-rule:evenodd"
         inkscape:connector-curvature="0"
         id="path247"
         d="m 4.37,45.43 6.88,-11.91 6.88,-11.91 a 1.14,1.14 0 0 1 1,-0.58 h 27.51 a 1.14,1.14 0 0 1 1,0.58 l 6.88,11.91 6.88,11.91 a 1.14,1.14 0 0 1 0,1.17 l -6.87,11.91 -6.88,11.91 a 1.14,1.14 0 0 1 -1,0.58 H 19.13 a 1.14,1.14 0 0 1 -1,-0.58 L 11.25,58.51 4.37,46.6 a 1.14,1.14 0 0 1 0,-1.17 z" />
      <path
         style="fill:url(#ToggleSwitch3-7-2);fill-rule:evenodd"
         inkscape:connector-curvature="0"
         id="path249"
         d="M 4.38,45.43 18.13,21.61 a 1.14,1.14 0 0 1 1,-0.58 h 27.52 a 1.14,1.14 0 0 1 1,0.58 l 0.54,0.93 h -28 a 1.14,1.14 0 0 0 -1,0.58 l -13,22.3 a 1.14,1.14 0 0 0 0,1.18 l 13.3,22.9 -0.34,0.56 c -0.1,0.17 -0.39,0.9 -0.55,0.81 A 1.16,1.16 0 0 1 18.14,70.42 L 4.38,46.6 a 1.14,1.14 0 0 1 0,-1.17 z" />
      <path
         style="fill:url(#ToggleSwitch3-7-3);fill-rule:evenodd"
         inkscape:connector-curvature="0"
         id="path251"
         d="M 61.41,46.6 47.65,70.42 a 1.14,1.14 0 0 1 -1,0.58 H 19.13 a 1.17,1.17 0 0 1 -0.55,-0.13 l 0.89,-1.38 h 26.11 a 1.14,1.14 0 0 0 1,-0.58 l 13,-22.3 a 1.14,1.14 0 0 0 0,-1.18 L 46.31,22.54 47.25,21.19 a 1.17,1.17 0 0 1 0.4,0.42 l 13.76,23.82 a 1.14,1.14 0 0 1 0,1.17 z" />
      <path
         style="fill:url(#ToggleSwitch3-5-5);fill-rule:evenodd"
         inkscape:connector-curvature="0"
         id="path253"
         d="M 33.57,67.73 A 21.13,21.13 0 1 1 54.71,46.6 21.13,21.13 0 0 1 33.57,67.73 Z" />
      <path
         style="fill:url(#ToggleSwitch3-7-4);fill-rule:evenodd"
         inkscape:connector-curvature="0"
         id="path255"
         d="m 35,26.79 a 19.86,19.86 0 0 1 -1.39,39.67 v 0 A 19.86,19.86 0 0 1 32.22,26.79" />
      <path
         style="fill:url(#ToggleSwitch3-8)"
         inkscape:connector-curvature="0"
         id="path257"
         d="m 33.57,64.4 v 0 A 17.78,17.78 0 0 1 15.8,46.62 v 0 A 17.78,17.78 0 0 1 32.19,28.9 v 0.51 A 17.28,17.28 0 0 0 16.3,46.62 v 0 a 17.27,17.27 0 0 0 17.27,17.27 v 0 A 17.27,17.27 0 0 0 50.84,46.62 v 0 A 17.28,17.28 0 0 0 35,29.41 V 28.9 a 17.78,17.78 0 0 1 16.35,17.72 v 0 A 17.77,17.77 0 0 1 33.57,64.4 Z" />
      <path
         style="fill:url(#ToggleSwitch3-8-2);fill-rule:evenodd"
         inkscape:connector-curvature="0"
         id="path259"
         d="M 32.89,34.91 A 11.1,11.1 0 1 1 21.79,46 11.1,11.1 0 0 1 32.89,34.9 Z" />
      <path
         style="fill:url(#ToggleSwitch3-7-5);fill-rule:evenodd"
         inkscape:connector-curvature="0"
         id="path261"
         d="m 33,35 a 11.1,11.1 0 0 1 10.2,6.73 c -8,-8.41 -20.72,-4 -19.92,6.72 A 13.56,13.56 0 0 0 24.17,52.82 11.1,11.1 0 0 1 33,35 Z" />
      <path
         style="opacity:0.47999998;fill:#010101"
         inkscape:connector-curvature="0"
         id="path263"
         d="m 18,85.71 c 0,3.71 2.67,4.76 5.83,4.76 3.16,0 5.83,-1 5.83,-4.76 C 29.66,81.95 27,81 23.83,81 20.66,81 18,82 18,85.71 Z m 3.16,0 a 2.46,2.46 0 0 1 2.67,-2.71 2.75,2.75 0 0 1 0,5.5 2.45,2.45 0 0 1 -2.67,-2.75 z M 31,90.19 h 3 v -3.48 h 5.17 V 84.78 H 34 v -1.55 h 5.56 v -2 H 31 v 9 z m 9.53,0 h 3 v -3.48 h 5.17 v -1.93 h -5.17 v -1.55 h 5.56 v -2 h -8.55 v 9 z" />
      <path
         style="opacity:0.47999998;fill:#010101"
         inkscape:connector-curvature="0"
         id="path265"
         d="m 21.33,9.1374576 c 0,3.7100004 2.67,4.7600004 5.83,4.7600004 3.16,0 5.84,-1.04 5.84,-4.7600004 0,-3.72 -2.67,-4.75 -5.83,-4.75 -3.16,0 -5.83,1 -5.83,4.75 z m 3.16,0 a 2.46,2.46 0 0 1 2.67,-2.74 2.45,2.45 0 0 1 2.67,2.75 2.45,2.45 0 0 1 -2.67,2.7500004 2.45,2.45 0 0 1 -2.67,-2.7500004 z m 9.85,4.4600004 h 2.89 v -5.6400004 0 l 4.31,5.6400004 h 3.3 V 4.5974576 H 42 v 5.6700004 0 L 37.77,4.6574576 h -3.43 v 9.0000004 z" />
      <path
         style="fill:url(#ToggleSwitch3-5-6)"
         inkscape:connector-curvature="0"
         id="path267"
         d="m 17.28,85 c 0,3.71 2.67,4.76 5.83,4.76 3.16,0 5.83,-1 5.83,-4.76 0,-3.76 -2.67,-4.75 -5.83,-4.75 -3.16,0 -5.83,1 -5.83,4.75 z m 3.16,0 a 2.46,2.46 0 0 1 2.67,-2.75 2.75,2.75 0 0 1 0,5.5 A 2.45,2.45 0 0 1 20.44,85 Z m 9.85,4.48 h 3 V 86 h 5.17 v -1.94 h -5.18 v -1.54 h 5.56 v -2 h -8.55 v 9 z m 9.53,0 h 3 V 86 H 48 v -1.94 h -5.19 v -1.54 h 5.56 v -2 h -8.55 v 9 z" />
      <path
         style="fill:url(#ToggleSwitch3-5-7)"
         inkscape:connector-curvature="0"
         id="path269"
         d="m 20.61,8.4274576 c 0,3.7100004 2.67,4.7600004 5.83,4.7600004 3.16,0 5.83,-1 5.83,-4.7600004 0,-3.76 -2.67,-4.75 -5.83,-4.75 -3.16,0 -5.83,1 -5.83,4.75 z m 3.16,0 a 2.46,2.46 0 0 1 2.67,-2.75 2.45,2.45 0 0 1 2.67,2.75 2.45,2.45 0 0 1 -2.67,2.7500004 2.45,2.45 0 0 1 -2.67,-2.7500004 z m 9.85,4.4800004 h 2.89 v -5.6600004 0 l 4.29,5.6600004 h 3.3 V 3.9074576 h -2.86 v 5.69 0 l -4.18,-5.65 h -3.44 v 9.0000004 z" />
      <g
         id="g3915">
        <path
           sodipodi:nodetypes="ccccscccccccccc"
           d="m 43,63.306964 v 0 0 c 0.566658,1.62926 0.860588,3.413791 0.86,5.221316 0,7.348519 -4.699178,10.780939 -10.669178,10.780939 -5.97,0 -10.950822,-3.43242 -10.950822,-10.780939 -5.88e-4,-1.807525 0.293342,-3.592056 0.86,-5.221316 v 0 l 5.53,-15.636322 v 0 c 0.652235,-2.397365 2.347802,-3.942028 4.2,-3.826202 1.665575,-0.06694 3.21501,1.174397 4,3.204617 v 0 c 2,5.400885 4.23,10.760331 6.14,16.244094 z"
           id="path3889"
           inkscape:connector-curvature="0"
           style="fill:url(#linearGradient3899);fill-rule:evenodd;stroke-width:1.17528737" />
        <path
           d="m 33.08,60.049219 c 6,0 10.81,4.32 10.81,9.64 0,5.32 -4.89,9.63 -10.81,9.63 -5.92,0 -10.81,-4.32 -10.81,-9.64 0,-5.32 4.84,-9.64 10.81,-9.64 z"
           id="path3891"
           inkscape:connector-curvature="0"
           style="display:inline;fill:url(#radialGradient3901);fill-rule:evenodd" />
        <path
           d="m 33.17,60.979219 c 5.59,0 10.12,3.91 10.12,8.72 0,4.81 -4.53,8.72 -10.12,8.72 -5.59,0 -10.12,-3.91 -10.12,-8.72 0,-4.81 4.53,-8.72 10.12,-8.72 z"
           id="path3893"
           inkscape:connector-curvature="0"
           style="display:inline;fill:url(#radialGradient3903);fill-rule:evenodd" />
        <path
           d="m 33.17,78.488141 a 9.31,9.31 0 0 0 8.93,-6.15 1.05,1.05 0 0 0 -0.38,-1.18 1.45,1.45 0 0 0 -1.38,-0.23 20.66,20.66 0 0 1 -6.48,1 20.1,20.1 0 0 1 -7.92,-1.59 1.46,1.46 0 0 0 -1.41,0.12 1.07,1.07 0 0 0 -0.53,1.21 9.24,9.24 0 0 0 9.13,6.82 z"
           id="path3895"
           inkscape:connector-curvature="0"
           style="display:inline;fill:url(#radialGradient3905);fill-rule:evenodd" />
      </g>
      <g
         id="g289"
         style="display:inline">
        <path
           style="fill:url(#ToggleSwitch3-5-9);fill-rule:evenodd;stroke-width:1.17528737"
           inkscape:connector-curvature="0"
           id="path281"
           d="m 43,29.875806 v 0 0 c 0.566658,-1.62926 0.860588,-3.413791 0.86,-5.221316 0,-7.348519 -4.699178,-10.780939 -10.669178,-10.780939 -5.97,0 -10.950822,3.43242 -10.950822,10.780939 -5.88e-4,1.807525 0.293342,3.592056 0.86,5.221316 v 0 l 5.53,15.636322 v 0 c 0.652235,2.397365 2.347802,3.942028 4.2,3.826202 1.665575,0.06694 3.21501,-1.174397 4,-3.204617 v 0 c 2,-5.400885 4.23,-10.760331 6.14,-16.244094 z"
           sodipodi:nodetypes="ccccscccccccccc" />
        <path
           style="display:inline;fill:url(#ToggleSwitch3-8-6);fill-rule:evenodd"
           inkscape:connector-curvature="0"
           id="path283"
           d="m 33.08,33.133551 c 6,0 10.81,-4.32 10.81,-9.64 0,-5.32 -4.89,-9.63 -10.81,-9.63 -5.92,0 -10.81,4.32 -10.81,9.64 0,5.32 4.84,9.64 10.81,9.64 z" />
        <path
           style="display:inline;fill:url(#ToggleSwitch3-8-7);fill-rule:evenodd"
           inkscape:connector-curvature="0"
           id="path285"
           d="m 33.17,32.203551 c 5.59,0 10.12,-3.91 10.12,-8.72 0,-4.81 -4.53,-8.72 -10.12,-8.72 -5.59,0 -10.12,3.91 -10.12,8.72 0,4.81 4.53,8.72 10.12,8.72 z" />
        <path
           style="display:inline;fill:url(#ToggleSwitch3-8-8);fill-rule:evenodd"
           inkscape:connector-curvature="0"
           id="path287"
           d="m 33.17,32.193551 a 9.31,9.31 0 0 0 8.93,-6.15 1.05,1.05 0 0 0 -0.38,-1.18 1.45,1.45 0 0 0 -1.38,-0.23 20.66,20.66 0 0 1 -6.48,1 20.1,20.1 0 0 1 -7.92,-1.59 1.46,1.46 0 0 0 -1.41,0.12 1.07,1.07 0 0 0 -0.53,1.21 9.24,9.24 0 0 0 9.13,6.82 z" />
      </g>
      <text
         class="text"
         id="text5322"
         y="-1.6791476"
         x="-0.093558215"
         style="font-style:normal;font-variant:normal;font-weight:normal;font-stretch:normal;font-size:27.10623932px;line-height:125%;font-family:Arial;-inkscape-font-specification:Arial;letter-spacing:0px;word-spacing:0px;fill:#000000;fill-opacity:1;stroke:none"
         xml:space="preserve">Label</text>
      <text
         class="text2"
         id="text4093"
         y="115.90732"
         x="-0.65684664"
         style="font-style:normal;font-variant:normal;font-weight:normal;font-stretch:normal;font-size:27.10623932px;line-height:125%;font-family:Arial;-inkscape-font-specification:Arial;letter-spacing:0px;word-spacing:0px;fill:#000000;fill-opacity:1;stroke:none"
         xml:space="preserve">Label</text>
      <path
         d="M 7.89,79 A 4.36,4.36 0 1 1 3.52,83.4 4.36,4.36 0 0 1 7.89,79 Z"
         id="path5080"
         inkscape:connector-curvature="0"
         style="display:inline;fill:url(#ToggleSwitch3-6-3);fill-opacity:1;fill-rule:evenodd" />
      <path
         d="M 8,5.47 A 4.36,4.36 0 1 1 3.65,9.83 4.36,4.36 0 0 1 8,5.47 Z"
         id="path5086"
         inkscape:connector-curvature="0"
         style="display:inline;fill:url(#ToggleSwitch3-6-4)" />
      <path
         style="display:inline;fill:url(#ToggleSwitch3-6-2);fill-opacity:1;fill-rule:evenodd"
         inkscape:connector-curvature="0"
         id="path5088"
         d="M 57.94,5.68 A 4.36,4.36 0 1 1 53.58,10 4.36,4.36 0 0 1 57.94,5.64 Z" />
    </g>
  </g>
</svg>
