<?xml version="1.0" encoding="UTF-8" standalone="no"?>
<svg xmlns:vfp="http://www.labcenter.com/namespaces/vfp" xmlns:dc="http://purl.org/dc/elements/1.1/" xmlns:cc="http://creativecommons.org/ns#" xmlns:rdf="http://www.w3.org/1999/02/22-rdf-syntax-ns#" xmlns:svg="http://www.w3.org/2000/svg" xmlns="http://www.w3.org/2000/svg" xmlns:xlink="http://www.w3.org/1999/xlink" xmlns:sodipodi="http://sodipodi.sourceforge.net/DTD/sodipodi-0.dtd" xmlns:inkscape="http://www.inkscape.org/namespaces/inkscape" viewBox="0 0 43 100" version="1.1" id="svg246" sodipodi:docname="ToggleSwitch2.svg" inkscape:version="0.92.1 r15371">
  <metadata id="metadata146">
    <rdf:RDF>
      <cc:Work rdf:about="">
        <dc:format>image/svg+xml</dc:format>
        <dc:type rdf:resource="http://purl.org/dc/dcmitype/StillImage" />
      </cc:Work>
    </rdf:RDF>
  </metadata>
  <sodipodi:namedview pagecolor="#ffffff" bordercolor="#666666" borderopacity="1" objecttolerance="10" gridtolerance="10" guidetolerance="10" inkscape:pageopacity="0" inkscape:pageshadow="2" inkscape:window-width="640" inkscape:window-height="480" id="namedview144" showgrid="false" inkscape:zoom="4.1254883" inkscape:cx="-73.55759" inkscape:cy="41.487881" inkscape:current-layer="g140" />
  <defs id="defs200">
    <linearGradient id="ToggleSwitch2-1" data-name="Gold 30" x1="0" y1="21.777637" x2="99.777985" y2="21.89628" gradientUnits="userSpaceOnUse">
      <stop offset="0" stop-color="#65410f" id="stop2" />
      <stop offset="0.02" stop-color="#6d4b15" id="stop4" />
      <stop offset="0.17" stop-color="#ac9d44" id="stop6" />
      <stop offset="0.28" stop-color="#d3cf61" id="stop8" />
      <stop offset="0.33" stop-color="#e2e36c" id="stop10" />
      <stop offset="0.66" stop-color="#af7a1d" id="stop12" />
      <stop offset="1" stop-color="#65410f" id="stop14" style="stop-color:#e69f25;stop-opacity:1" />
    </linearGradient>
    <linearGradient id="ToggleSwitch2-2" x1="207.73" y1="6.74" x2="207.73" y2="35.22" gradientTransform="matrix(-1, 0, 0, 1, 257.73, 0)" gradientUnits="userSpaceOnUse">
      <stop offset="0" stop-color="#893813" id="stop17" />
      <stop offset="0.11" stop-color="#eae43b" id="stop19" />
      <stop offset="0.2" stop-color="#f9ae27" id="stop21" />
      <stop offset="0.28" stop-color="#a46b1e" id="stop23" />
      <stop offset="0.39" stop-color="#422b13" id="stop25" />
      <stop offset="0.52" stop-color="#be8725" id="stop27" />
      <stop offset="0.63" stop-color="#f9ba42" id="stop29" />
      <stop offset="0.75" stop-color="#b58726" id="stop31" />
      <stop offset="0.85" stop-color="#fcef79" id="stop33" />
      <stop offset="0.87" stop-color="#fbe973" id="stop35" />
      <stop offset="0.9" stop-color="#f7d862" id="stop37" />
      <stop offset="0.93" stop-color="#f1bd46" id="stop39" />
      <stop offset="0.97" stop-color="#e8971f" id="stop41" />
      <stop offset="0.97" stop-color="#e8961e" id="stop43" />
    </linearGradient>
    <linearGradient id="ToggleSwitch2-2-2" x1="208.14" y1="7.61" x2="208.14" y2="34.39" gradientTransform="matrix(-1,0,0,1,257.73,0)" gradientUnits="userSpaceOnUse">
      <stop offset="0" stop-color="#035c2d" id="stop46" style="stop-color:#03ac2d;stop-opacity:1" />
      <stop offset="1" stop-color="#0f783b" id="stop48" style="stop-color:#0fc63b;stop-opacity:1" />
    </linearGradient>
    <linearGradient id="ToggleSwitch2-2-3" x1="206.74" y1="8.52" x2="206.74" y2="33.51" gradientTransform="matrix(-1,0,0,1,254.88259,0)" gradientUnits="userSpaceOnUse">
      <stop offset="0" stop-color="#026031" id="stop51" style="stop-color:#029631;stop-opacity:1" />
      <stop offset="1" stop-color="#12793c" id="stop53" style="stop-color:#12a93c;stop-opacity:1" />
    </linearGradient>
    <linearGradient id="ToggleSwitch2-3" data-name="Gold 10" x1="29.84" y1="38.1" x2="12.1" y2="4.4" gradientUnits="userSpaceOnUse">
      <stop offset="0" stop-color="#cb6915" id="stop56" />
      <stop offset="0" stop-color="#ce6e18" id="stop58" />
      <stop offset="0.01" stop-color="#dc892a" id="stop60" />
      <stop offset="0.01" stop-color="#e79f38" id="stop62" />
      <stop offset="0.02" stop-color="#f0b043" id="stop64" />
      <stop offset="0.03" stop-color="#f6bb4b" id="stop66" />
      <stop offset="0.04" stop-color="#fac250" id="stop68" />
      <stop offset="0.07" stop-color="#fbc451" id="stop70" />
      <stop offset="0.08" stop-color="#f3c35b" id="stop72" />
      <stop offset="0.19" stop-color="#e6ac3d" id="stop74" />
      <stop offset="0.28" stop-color="#f2ee98" id="stop76" />
      <stop offset="0.37" stop-color="#f09d39" id="stop78" />
      <stop offset="0.41" stop-color="#ef7c12" id="stop80" />
      <stop offset="0.45" stop-color="#ef7c12" id="stop82" />
      <stop offset="0.68" stop-color="#f6dd6c" id="stop84" />
      <stop offset="0.75" stop-color="#fff3b9" id="stop86" />
      <stop offset="0.78" stop-color="#fff3b9" id="stop88" />
      <stop offset="0.92" stop-color="#fdc64f" id="stop90" />
      <stop offset="0.95" stop-color="#fcc44e" id="stop92" />
      <stop offset="0.96" stop-color="#fabd4a" id="stop94" />
      <stop offset="0.97" stop-color="#f6b244" id="stop96" />
      <stop offset="0.97" stop-color="#f0a13b" id="stop98" />
      <stop offset="0.98" stop-color="#e98b2f" id="stop100" />
      <stop offset="0.98" stop-color="#e07020" id="stop102" />
      <stop offset="0.99" stop-color="#d85914" id="stop104" />
      <stop offset="1" stop-color="#d85914" id="stop106" />
    </linearGradient>
    <linearGradient id="ToggleSwitch2-2-4" x1="11.22" y1="6.02" x2="28.92" y2="33.68" gradientUnits="userSpaceOnUse">
      <stop offset="0" stop-color="#8b5417" id="stop109" />
      <stop offset="0.02" stop-color="#815015" id="stop111" />
      <stop offset="0.16" stop-color="#704a14" id="stop113" />
      <stop offset="0.25" stop-color="#704a14" id="stop115" />
      <stop offset="0.37" stop-color="#ab6a1a" id="stop117" />
      <stop offset="0.42" stop-color="#b8731e" id="stop119" />
      <stop offset="0.57" stop-color="#f7a42e" id="stop121" />
      <stop offset="0.72" stop-color="#f7a42e" id="stop123" />
      <stop offset="0.94" stop-color="#9a6115" id="stop125" />
      <stop offset="0.97" stop-color="#905a14" id="stop127" />
      <stop offset="1" stop-color="#8e5714" id="stop129" />
    </linearGradient>
    <linearGradient id="ToggleSwitch2-2-5" x1="635.12" y1="292.99" x2="648.44" y2="314.49" gradientTransform="rotate(180,360.0357,162.32)" xlink:href="#ToggleSwitch2-2-4" />
    <linearGradient id="ToggleSwitch2-4" data-name="Gold 14" x1="11.9" y1="6.63" x2="28.08" y2="32.72" xlink:href="#ToggleSwitch2-2" gradientTransform="translate(57.541408)" />
    <linearGradient id="ToggleSwitch2-5" data-name="Gold 11" x1="20.94" y1="26.81" x2="20.94" y2="38.49" gradientUnits="userSpaceOnUse">
      <stop offset="0" stop-color="#f9b21c" id="stop134" />
      <stop offset="0.16" stop-color="#f9e929" id="stop136" />
      <stop offset="0.34" stop-color="#fbb81a" id="stop138" />
      <stop offset="0.4" stop-color="#fbb81a" id="stop140" />
      <stop offset="0.41" stop-color="#fbb81a" id="stop142" />
      <stop offset="0.45" stop-color="#fbb918" id="stop144" />
      <stop offset="0.46" stop-color="#fcbc11" id="stop146" />
      <stop offset="0.47" stop-color="#fcbf0b" id="stop148" />
      <stop offset="0.5" stop-color="#fee00d" id="stop150" />
      <stop offset="0.53" stop-color="#fede0d" id="stop152" />
      <stop offset="0.54" stop-color="#fcd70c" id="stop154" />
      <stop offset="0.55" stop-color="#facc0b" id="stop156" />
      <stop offset="0.55" stop-color="#f6bb09" id="stop158" />
      <stop offset="0.56" stop-color="#f2a907" id="stop160" />
      <stop offset="0.65" stop-color="#f2a907" id="stop162" />
      <stop offset="0.71" stop-color="#cb8d0d" id="stop164" />
      <stop offset="0.76" stop-color="#a87413" id="stop166" />
      <stop offset="0.84" stop-color="#a77314" id="stop168" />
      <stop offset="0.87" stop-color="#ae7812" id="stop170" />
      <stop offset="0.91" stop-color="#c0860e" id="stop172" />
      <stop offset="0.95" stop-color="#d69609" id="stop174" />
      <stop offset="0.99" stop-color="#d79408" id="stop176" />
      <stop offset="1" stop-color="#d99005" id="stop178" />
    </linearGradient>
    <radialGradient id="ToggleSwitch2-6" cx="20.94" cy="21.27" r="18.9" gradientUnits="userSpaceOnUse">
      <stop offset="0.93" stop-color="#1d1d1b" stop-opacity="0" id="stop181" />
      <stop offset="0.96" stop-color="#1d1d1b" stop-opacity="0.18" id="stop183" />
      <stop offset="1" stop-color="#1d1d1b" stop-opacity="0.6" id="stop185" />
    </radialGradient>
    <linearGradient id="ToggleSwitch2-2-6" x1="207.73" y1="7.61" x2="207.73" y2="34.39" gradientTransform="matrix(-1, 0, 0, 1, 257.73, 0)" gradientUnits="userSpaceOnUse">
      <stop offset="0" stop-color="#e52613" id="stop188" />
      <stop offset="1" stop-color="#bf2d18" id="stop190" />
    </linearGradient>
    <linearGradient id="ToggleSwitch2-2-7" x1="209.32" y1="8.52" x2="209.32" y2="33.51" xlink:href="#ToggleSwitch2-2-6" gradientTransform="translate(3.3219782)" />
    <linearGradient id="ToggleSwitch2-3-2" x1="87" y1="38.1" x2="69.27" y2="4.4" xlink:href="#ToggleSwitch2-3" gradientTransform="translate(-55.880418)" />
    <linearGradient id="ToggleSwitch2-2-8" x1="68.39" y1="6.02" x2="86.08" y2="33.68" xlink:href="#ToggleSwitch2-2-4" gradientTransform="translate(-55.880418)" />
    <linearGradient id="ToggleSwitch2-2-9" x1="577.95" y1="292.99" x2="591.28" y2="314.49" gradientTransform="rotate(180,303.32479,162.32)" xlink:href="#ToggleSwitch2-2-4" />
    <linearGradient id="ToggleSwitch2-4-2" data-name="Gold 14" x1="69.07" y1="6.63" x2="85.24" y2="32.72" xlink:href="#ToggleSwitch2-2" gradientTransform="translate(-55.880418)" />
    <linearGradient id="ToggleSwitch2-5-2" x1="78.1" y1="26.81" x2="78.1" y2="38.49" xlink:href="#ToggleSwitch2-5" gradientTransform="translate(-55.880418)" />
    <radialGradient id="ToggleSwitch2-6-2" cx="78.1" cy="21.27" r="18.9" xlink:href="#ToggleSwitch2-6" gradientTransform="translate(-55.880418)" />
    <linearGradient inkscape:collect="always" xlink:href="#ToggleSwitch2-2" id="ToggleSwitch2-7" gradientUnits="userSpaceOnUse" gradientTransform="rotate(-90,129.1074,128.73768)" x1="207.73" y1="6.74" x2="207.73" y2="35.22" />
    <linearGradient inkscape:collect="always" xlink:href="#ToggleSwitch2-3" id="ToggleSwitch2-8" gradientUnits="userSpaceOnUse" x1="29.84" y1="38.1" x2="12.1" y2="4.4" gradientTransform="translate(57.541408)" />
    <linearGradient inkscape:collect="always" xlink:href="#ToggleSwitch2-2-4" id="ToggleSwitch2-9" gradientUnits="userSpaceOnUse" x1="11.22" y1="6.02" x2="28.92" y2="33.68" gradientTransform="translate(57.541408)" />
    <linearGradient inkscape:collect="always" xlink:href="#ToggleSwitch2-5" id="ToggleSwitch2-10" gradientUnits="userSpaceOnUse" x1="20.94" y1="26.81" x2="20.94" y2="38.49" gradientTransform="translate(57.541408)" />
    <radialGradient inkscape:collect="always" xlink:href="#ToggleSwitch2-6" id="ToggleSwitch2-11" gradientUnits="userSpaceOnUse" cx="20.94" cy="21.27" r="18.9" gradientTransform="translate(57.541408)" />
    <linearGradient inkscape:collect="always" xlink:href="#ToggleSwitch2-2-6" id="ToggleSwitch2-12" gradientUnits="userSpaceOnUse" gradientTransform="matrix(-1,0,0,1,257.73,0)" x1="207.73" y1="7.61" x2="207.73" y2="34.39" />
    <linearGradient inkscape:collect="always" xlink:href="#ToggleSwitch2-2" id="ToggleSwitch2-13" gradientUnits="userSpaceOnUse" x1="52.083874" y1="0.06613718" x2="51.727947" y2="42.895927" gradientTransform="matrix(0,1,1,0,0.36972071,0.1150704)" />
  </defs>
  <vfp:catalogue PREFIX="ToggleSwitch" CATEGORY="Switches" DESC="Side Switch" />
  <g vfp:class="ToggleSwitch" id="g4095">
    <g id="g140">
      <path style="fill:url(#ToggleSwitch2-13);fill-opacity:1" inkscape:connector-curvature="0" id="path204" d="m 0.36972071,78.84507 v -57.46 a 21.27,21.27 0 0 1 42.54000029,0 v 57.46 a 21.27,21.27 0 0 1 -42.54000029,0 z" class="bounds" />
      <path style="fill:url(#ToggleSwitch2-7)" inkscape:connector-curvature="0" id="path206" d="m 6.4997207,21.38507 v 55.43 0 2.11 a 15.14,15.14 0 0 0 30.2800003,0 v -2.11 0 -55.43 a 15.14,15.14 0 0 0 -30.2800003,0 z" />
      <g id="g242" style="display:inline" transform="rotate(-90,50.242396,49.872675)">
        <path style="display:inline;opacity:0.70999995;fill:url(#ToggleSwitch2-12)" inkscape:connector-curvature="0" id="path226" d="m 22.24,7 h 53.55 v 0 h 2 a 14.45,14.45 0 0 1 14.6,14.27 14.45,14.45 0 0 1 -14.56,14.24 h -2 v 0 H 22.24 A 14.46,14.46 0 0 1 7.61,21.27 14.46,14.46 0 0 1 22.24,7 Z" />
        <path style="display:inline;opacity:0.70999995;fill:url(#ToggleSwitch2-2-7)" inkscape:connector-curvature="0" id="path228" d="m 25.591978,8 h 50.42 v 0 h 1.92 a 13.55,13.55 0 0 1 13.7,13.29 13.55,13.55 0 0 1 -13.7,13.29 h -1.92 v 0 h -50.42 a 13.55,13.55 0 0 1 -13.77,-13.31 13.55,13.55 0 0 1 13.77,-13.27 z" />
        <circle style="display:inline;fill:url(#ToggleSwitch2-3-2)" id="circle230" r="18.9" cy="21.27" cx="22.259581" />
        <circle style="display:inline;fill:url(#ToggleSwitch2-2-8)" id="circle232" r="14.73" cy="21.27" cx="22.259581" />
        <circle style="display:inline;fill:url(#ToggleSwitch2-2-9)" id="circle234" r="13.37" cy="21.27" cx="22.259581" />
        <path style="display:inline;fill:url(#ToggleSwitch2-4-2)" inkscape:connector-curvature="0" id="path236" d="m 22.259582,7.48 a 13.79,13.79 0 1 0 13.79,13.79 13.79,13.79 0 0 0 -13.79,-13.79 z m 0,26.4 a 12.62,12.62 0 1 1 12.62,-12.61 12.62,12.62 0 0 1 -12.62,12.62 z" />
        <path style="display:inline;opacity:0.4;fill:url(#ToggleSwitch2-5-2)" inkscape:connector-curvature="0" id="path238" d="m 38.119582,26.87 a 2.11,2.11 0 0 1 -1.83,-1 14.53,14.53 0 0 1 -13.96,10.13 14.71,14.71 0 0 1 -14.0000005,-10 2.12,2.12 0 0 1 -1.71,0.86 2.46,2.46 0 0 1 -1.83,-0.8 18.13,18.13 0 0 0 34.9000005,0.26 2.48,2.48 0 0 1 -1.57,0.55 z" />
        <circle style="display:inline;fill:url(#ToggleSwitch2-6-2)" id="circle240" r="18.9" cy="21.27" cx="22.21958" />
      </g>
      <g id="g224" style="display:inline" transform="rotate(-90,50.242396,49.872675)">
        <path style="display:inline;opacity:0.70999995;fill:url(#ToggleSwitch2-2-2)" inkscape:connector-curvature="0" id="path208" d="m 21.83,7 h 53.55 v 0 h 2 A 14.45,14.45 0 0 1 92,21.27 14.45,14.45 0 0 1 77.42,35.51 h -2 v 0 H 21.83 A 14.46,14.46 0 0 1 7.2,21.27 14.46,14.46 0 0 1 21.83,7 Z" />
        <path style="display:inline;fill:url(#ToggleSwitch2-2-3)" inkscape:connector-curvature="0" id="path210" d="m 22.01259,8 h 50.42 v 0 h 1.92 a 13.55,13.55 0 0 1 13.7,13.27 13.55,13.55 0 0 1 -13.7,13.29 h -1.92 v 0 h -50.42 A 13.55,13.55 0 0 1 8.2425901,21.27 13.55,13.55 0 0 1 22.01259,8 Z" />
        <circle style="fill:url(#ToggleSwitch2-8)" id="circle212" r="18.9" cy="21.27" cx="78.521408" />
        <circle style="fill:url(#ToggleSwitch2-9)" id="circle214" r="14.73" cy="21.27" cx="78.521408" />
        <circle style="fill:url(#ToggleSwitch2-2-5)" id="circle216" r="13.37" cy="21.27" cx="78.521408" />
        <path style="fill:url(#ToggleSwitch2-4)" inkscape:connector-curvature="0" id="path218" d="m 78.541408,7.48 a 13.79,13.79 0 1 0 13.77,13.79 13.79,13.79 0 0 0 -13.77,-13.79 z m 0,26.4 a 12.62,12.62 0 1 1 12.6,-12.61 12.62,12.62 0 0 1 -12.6,12.62 z" />
        <path style="opacity:0.4;fill:url(#ToggleSwitch2-10)" inkscape:connector-curvature="0" id="path220" d="m 94.371408,26.87 a 2.11,2.11 0 0 1 -1.83,-1 14.53,14.53 0 0 1 -14,10.13 14.71,14.71 0 0 1 -14,-10 2.12,2.12 0 0 1 -1.71,0.86 2.46,2.46 0 0 1 -1.83,-0.8 17.87,17.87 0 0 0 17.54,13.34 17.88,17.88 0 0 0 17.39,-13.08 2.48,2.48 0 0 1 -1.56,0.55 z" />
        <circle style="fill:url(#ToggleSwitch2-11)" id="circle222" r="18.9" cy="21.27" cx="78.481407" />
      </g>
      <text class="text" id="text5322" y="-41.81345" x="-28.962091" style="font-style:normal;font-variant:normal;font-weight:normal;font-stretch:normal;font-size:27.10623932px;line-height:125%;font-family:Arial;-inkscape-font-specification:Arial;letter-spacing:0px;word-spacing:0px;fill:#000000;fill-opacity:1;stroke:none" xml:space="preserve">Label</text>
      <text class="text2" id="text4093" y="-41.81345" x="-28.962091" style="font-style:normal;font-variant:normal;font-weight:normal;font-stretch:normal;font-size:27.10623932px;line-height:125%;font-family:Arial;-inkscape-font-specification:Arial;letter-spacing:0px;word-spacing:0px;fill:#000000;fill-opacity:1;stroke:none" xml:space="preserve">Label</text>
    </g>
  </g>
</svg>
