<?xml version="1.0" encoding="UTF-8" standalone="no"?>
<svg xmlns:vfp="http://www.labcenter.com/namespaces/vfp" xmlns:dc="http://purl.org/dc/elements/1.1/" xmlns:cc="http://creativecommons.org/ns#" xmlns:rdf="http://www.w3.org/1999/02/22-rdf-syntax-ns#" xmlns:svg="http://www.w3.org/2000/svg" xmlns="http://www.w3.org/2000/svg" xmlns:xlink="http://www.w3.org/1999/xlink" xmlns:sodipodi="http://sodipodi.sourceforge.net/DTD/sodipodi-0.dtd" xmlns:inkscape="http://www.inkscape.org/namespaces/inkscape" id="svg330" version="1.1" viewBox="0 0 65.81 92.71" sodipodi:docname="ToggleSwitch4.1.svg" inkscape:version="0.92.1 r15371">
  <sodipodi:namedview pagecolor="#ffffff" bordercolor="#666666" borderopacity="1" objecttolerance="10" gridtolerance="10" guidetolerance="10" inkscape:pageopacity="0" inkscape:pageshadow="2" inkscape:window-width="640" inkscape:window-height="480" id="namedview143" showgrid="false" inkscape:zoom="12.001975" inkscape:cx="32.904999" inkscape:cy="46.355" inkscape:current-layer="svg330" />
  <metadata id="metadata145">
    <rdf:RDF>
      <cc:Work rdf:about="">
        <dc:format>image/svg+xml</dc:format>
        <dc:type rdf:resource="http://purl.org/dc/dcmitype/StillImage" />
        <dc:title></dc:title>
      </cc:Work>
    </rdf:RDF>
  </metadata>
  <defs id="defs242">
    <linearGradient gradientUnits="userSpaceOnUse" y2="75.23" x2="44.23" y1="24.31" x1="23.15" id="ToggleSwitch4-1">
      <stop id="stop2" stop-color="#504f4e" offset="0" />
      <stop id="stop4" stop-opacity="0.95" stop-color="#4d4c4b" offset="0.22" />
      <stop id="stop6" stop-opacity="0.81" stop-color="#454443" offset="0.45" />
      <stop id="stop8" stop-opacity="0.57" stop-color="#383736" offset="0.69" />
      <stop id="stop10" stop-opacity="0.24" stop-color="#252523" offset="0.92" />
      <stop id="stop12" stop-opacity="0.1" stop-color="#1d1d1b" offset="1" />
    </linearGradient>
    <linearGradient gradientUnits="userSpaceOnUse" y2="0.46" x2="32.9" y1="66.14" x1="32.9" data-name="Gold 15" id="ToggleSwitch4-2">
      <stop id="stop15" stop-color="#69410f" offset="0" />
      <stop id="stop17" stop-color="#f8ad3a" offset="0.1" />
      <stop id="stop19" stop-color="#724612" offset="0.22" />
      <stop id="stop21" stop-color="#f9b54e" offset="0.45" />
      <stop id="stop23" stop-color="#eb9c34" offset="0.5" />
      <stop id="stop25" stop-color="#facd7b" offset="0.55" />
      <stop id="stop27" stop-color="#c28127" offset="0.65" />
      <stop id="stop29" stop-color="#eaa232" offset="0.77" />
      <stop id="stop31" stop-color="#7b4e12" offset="1" />
    </linearGradient>
    <radialGradient gradientUnits="userSpaceOnUse" r="45.09" cy="47.42" cx="32.9" id="ToggleSwitch4-3">
      <stop id="stop35" stop-color="#ffedc2" offset="0" />
      <stop id="stop37" stop-color="#f7efa6" offset="0.18" />
      <stop id="stop39" stop-color="#f4d16e" offset="0.38" />
      <stop id="stop41" stop-color="#eec65d" offset="0.47" />
      <stop id="stop43" stop-color="#e4b64f" offset="0.57" />
      <stop id="stop45" stop-color="#af711f" offset="0.62" />
      <stop id="stop47" stop-color="#af711f" offset="0.65" />
      <stop id="stop49" stop-color="#f2d76b" offset="0.72" />
      <stop id="stop51" stop-color="#f8e87d" offset="0.79" />
      <stop id="stop53" stop-color="#f7f1a4" offset="0.84" />
      <stop id="stop55" stop-color="#fff2c5" offset="0.89" />
      <stop id="stop57" stop-color="#e6ad04" offset="0.94" />
      <stop id="stop59" stop-color="#e6ad04" offset="0.94" />
      <stop id="stop61" stop-color="#fbcb4a" offset="1" />
    </radialGradient>
    <linearGradient xlink:href="#ToggleSwitch4-2" y2="95.29" x2="32.9" y1="38.75" x1="32.9" id="ToggleSwitch4-2-3" />
    <linearGradient gradientUnits="userSpaceOnUse" y2="73.4" x2="32.9" y1="22.53" x1="32.9" id="ToggleSwitch4-1-2">
      <stop id="stop66" stop-color="#8b5417" offset="0" />
      <stop id="stop68" stop-color="#815015" offset="0.02" />
      <stop id="stop70" stop-color="#704a14" offset="0.16" />
      <stop id="stop72" stop-color="#704a14" offset="0.25" />
      <stop id="stop74" stop-color="#ab6a1a" offset="0.37" />
      <stop id="stop76" stop-color="#b8731e" offset="0.42" />
      <stop id="stop78" stop-color="#f7a42e" offset="0.57" />
      <stop id="stop80" stop-color="#f7a42e" offset="0.72" />
      <stop id="stop82" stop-color="#9a6115" offset="0.94" />
      <stop id="stop84" stop-color="#905a14" offset="0.97" />
      <stop id="stop86" stop-color="#8e5714" offset="1" />
    </linearGradient>
    <linearGradient xlink:href="#ToggleSwitch4-1-2" y2="22.87" x2="32.9" y1="70.78" x1="32.9" id="ToggleSwitch4-1-3" />
    <linearGradient xlink:href="#ToggleSwitch4-2" y2="9.41" x2="32.9" y1="55.8" x1="32.9" id="ToggleSwitch4-2-4" />
    <linearGradient xlink:href="#ToggleSwitch4-2" y2="78.21" x2="32.9" y1="40.72" x1="32.9" id="ToggleSwitch4-2-5" />
    <linearGradient xlink:href="#ToggleSwitch4-2" y2="51.75" x2="32.9" y1="20.59" x1="32.9" id="ToggleSwitch4-2-6" />
    <radialGradient xlink:href="#ToggleSwitch4-2" r="11.28" cy="47.42" cx="32.9" id="ToggleSwitch4-3-5" />
    <radialGradient gradientUnits="userSpaceOnUse" gradientTransform="translate(4.36 -4.4) scale(0.96 1.13)" r="16.38" cy="43.39" cx="29.32" id="ToggleSwitch4-3-6">
      <stop id="stop96" stop-color="#893813" offset="0" />
      <stop id="stop98" stop-color="#eae43b" offset="0.11" />
      <stop id="stop100" stop-color="#f9ae27" offset="0.2" />
      <stop id="stop102" stop-color="#a46b1e" offset="0.28" />
      <stop id="stop104" stop-color="#422b13" offset="0.39" />
      <stop id="stop106" stop-color="#be8725" offset="0.52" />
      <stop id="stop108" stop-color="#f9ba42" offset="0.63" />
      <stop id="stop110" stop-color="#b58726" offset="0.75" />
      <stop id="stop112" stop-color="#fcef79" offset="0.85" />
      <stop id="stop114" stop-color="#fbe973" offset="0.87" />
      <stop id="stop116" stop-color="#f7d862" offset="0.9" />
      <stop id="stop118" stop-color="#f1bd46" offset="0.93" />
      <stop id="stop120" stop-color="#e8971f" offset="0.97" />
      <stop id="stop122" stop-color="#e8961e" offset="0.97" />
    </radialGradient>
    <linearGradient xlink:href="#ToggleSwitch4-3-6" y2="50.91" x2="42" y1="50.91" x1="23.81" data-name="Gold 14" id="ToggleSwitch4-4" />
    <linearGradient gradientUnits="userSpaceOnUse" y2="65.46" x2="42" y1="43" x1="30.05" data-name="GradientFill 201" id="ToggleSwitch4-5">
      <stop id="stop132" stop-color="#4d4d4c" offset="0" />
      <stop id="stop134" stop-color="#4a4a49" offset="0.12" />
      <stop id="stop136" stop-color="#7c7c7b" offset="0.26" />
      <stop id="stop138" stop-color="#909090" offset="0.44" />
      <stop id="stop140" stop-color="#b2b2b2" offset="0.59" />
      <stop id="stop142" stop-color="#cacaca" offset="0.68" />
      <stop id="stop144" stop-color="#a1a1a1" offset="0.77" />
      <stop id="stop146" stop-color="#bdbcbc" offset="0.81" />
      <stop id="stop148" stop-color="#c8c8c8" offset="0.86" />
      <stop id="stop150" stop-color="#e5e5e5" offset="1" />
    </linearGradient>
    <linearGradient gradientUnits="userSpaceOnUse" y2="61.55" x2="44.42" y1="61.55" x1="21.39" data-name="GradientFill 652" id="ToggleSwitch4-6">
      <stop id="stop153" stop-color="#6b7683" offset="0" />
      <stop id="stop155" stop-color="#3d4b58" offset="0.06" />
      <stop id="stop157" stop-color="#344149" offset="0.16" />
      <stop id="stop159" stop-color="#313d46" offset="0.3" />
      <stop id="stop161" stop-color="#3d4b58" offset="0.38" />
      <stop id="stop163" stop-color="#3d4b58" offset="0.55" />
      <stop id="stop165" stop-color="#313d46" offset="0.64" />
      <stop id="stop167" stop-color="#344149" offset="0.82" />
      <stop id="stop169" stop-color="#37434b" offset="0.91" />
      <stop id="stop171" stop-color="#3d4b58" offset="1" />
    </linearGradient>
    <linearGradient gradientUnits="userSpaceOnUse" y2="93.34" x2="32.9" y1="70.25" x1="32.9" data-name="GradientFill 674" id="ToggleSwitch4-7">
      <stop id="stop195" stop-color="#515f6e" offset="0" />
      <stop id="stop197" stop-color="#515f6e" offset="1" />
    </linearGradient>
    <linearGradient gradientUnits="userSpaceOnUse" y2="89.79" x2="32.9" y1="71.07" x1="32.9" id="ToggleSwitch4-1-4">
      <stop id="stop200" stop-color="#1d272a" offset="0" />
      <stop id="stop202" stop-opacity="0" stop-color="#26333b" offset="1" />
    </linearGradient>
    <radialGradient xlink:href="#ToggleSwitch4-3-6" gradientTransform="matrix(0.96,0,0,-1.13,4.36,112.35)" r="16.38" cy="56.86" cx="29.18" id="ToggleSwitch4-3-8" />
    <linearGradient xlink:href="#ToggleSwitch4-3-6" gradientTransform="matrix(1,0,0,-1,0,107.95)" y2="66.15" x2="41.87" y1="66.15" x1="23.68" data-name="Gold 14" id="ToggleSwitch4-4-3" />
    <linearGradient xlink:href="#ToggleSwitch4-5" gradientTransform="matrix(1,0,0,-1,0,107.95)" y2="80.7" x2="41.86" y1="58.24" x1="29.92" id="ToggleSwitch4-5-2" />
    <linearGradient xlink:href="#ToggleSwitch4-6" gradientTransform="matrix(1,0,0,-1,0,107.95)" y2="76.79" x2="44.29" y1="76.79" x1="21.25" id="ToggleSwitch4-6-2" />
    <linearGradient xlink:href="#ToggleSwitch4-7" gradientTransform="rotate(-180,105.15,75.975)" y2="152.17" x2="177.53" y1="129.08" x1="177.53" id="ToggleSwitch4-7-2" />
    <linearGradient xlink:href="#ToggleSwitch4-1-4" gradientTransform="rotate(-180,105.15,75.975)" y2="148.63" x2="177.53" y1="129.91" x1="177.53" id="ToggleSwitch4-1-6" />
    <linearGradient y2="0.46" x2="32.9" y1="66.14" x1="32.9" gradientUnits="userSpaceOnUse" id="ToggleSwitch4-8" xlink:href="#ToggleSwitch4-2" />
    <radialGradient r="45.09" cy="47.42" cx="32.9" gradientUnits="userSpaceOnUse" id="ToggleSwitch4-9" xlink:href="#ToggleSwitch4-3" />
    <radialGradient r="16.38" cy="43.39" cx="29.32" gradientTransform="matrix(0.96,0,0,1.13,4.36,-4.4)" gradientUnits="userSpaceOnUse" id="ToggleSwitch4-10" xlink:href="#ToggleSwitch4-3-6" />
    <linearGradient y2="65.46" x2="42" y1="43" x1="30.05" gradientUnits="userSpaceOnUse" id="ToggleSwitch4-11" xlink:href="#ToggleSwitch4-5" />
    <linearGradient y2="61.55" x2="44.42" y1="61.55" x1="21.39" gradientUnits="userSpaceOnUse" id="ToggleSwitch4-12" xlink:href="#ToggleSwitch4-6" />
    <linearGradient y2="93.34" x2="32.9" y1="70.25" x1="32.9" gradientUnits="userSpaceOnUse" id="ToggleSwitch4-13" xlink:href="#ToggleSwitch4-7" />
    <linearGradient y2="89.79" x2="32.9" y1="71.07" x1="32.9" gradientUnits="userSpaceOnUse" id="ToggleSwitch4-14" xlink:href="#ToggleSwitch4-1-4" />
  </defs>
  <vfp:catalogue DESC="Flick Switch 2" CATEGORY="Switches" PREFIX="ToggleSwitch" />
  <g id="g4359" vfp:class="ToggleSwitch">
    <g id="g139">
      <rect class="bounds" style="display:inline;opacity:0;fill:#ffffff" y="0.098209649" x="0" height="92.709999" width="66.095161" id="rect4158" />
      <circle cx="33.599998" cy="49.560001" r="31.85" id="circle246" style="display:none;fill:url(#ToggleSwitch4-1)" />
      <path d="m 34.45,15.65 1.1,0.07 a 0.16,0.16 0 0 0 0.17,-0.14 V 15.3 a 0.48,0.48 0 0 1 0.54,-0.41 l 1.8,0.23 a 0.48,0.48 0 0 1 0.42,0.54 v 0.28 a 0.16,0.16 0 0 0 0.13,0.18 l 1.08,0.21 a 0.16,0.16 0 0 0 0.19,-0.11 l 0.07,-0.27 a 0.49,0.49 0 0 1 0.59,-0.34 l 1.75,0.46 a 0.48,0.48 0 0 1 0.34,0.59 l -0.07,0.27 a 0.16,0.16 0 0 0 0.11,0.19 l 1,0.35 a 0.16,0.16 0 0 0 0.2,-0.09 l 0.11,-0.26 a 0.49,0.49 0 0 1 0.63,-0.26 l 1.67,0.69 a 0.48,0.48 0 0 1 0.26,0.63 l -0.11,0.26 a 0.16,0.16 0 0 0 0.08,0.21 l 1,0.48 a 0.16,0.16 0 0 0 0.21,-0.06 l 0.14,-0.24 a 0.49,0.49 0 0 1 0.66,-0.18 l 1.57,0.9 a 0.48,0.48 0 0 1 0.18,0.66 l -0.14,0.25 a 0.16,0.16 0 0 0 0.05,0.21 l 0.92,0.61 a 0.16,0.16 0 0 0 0.22,0 l 0.17,-0.22 a 0.49,0.49 0 0 1 0.68,-0.09 L 53.65,22 a 0.48,0.48 0 0 1 0.09,0.67 l -0.18,0.23 a 0.16,0.16 0 0 0 0,0.22 l 0.83,0.72 a 0.16,0.16 0 0 0 0.22,0 l 0.2,-0.2 a 0.49,0.49 0 0 1 0.69,0 l 1.28,1.27 a 0.48,0.48 0 0 1 0,0.68 l -0.21,0.2 a 0.16,0.16 0 0 0 0,0.22 l 0.73,0.82 a 0.16,0.16 0 0 0 0.22,0 l 0.23,-0.17 a 0.49,0.49 0 0 1 0.68,0.09 l 1.1,1.42 a 0.48,0.48 0 0 1 -0.09,0.67 l -0.23,0.17 a 0.16,0.16 0 0 0 0,0.22 q 0.31,0.45 0.61,0.91 a 0.16,0.16 0 0 0 0.22,0.05 l 0.25,-0.14 a 0.49,0.49 0 0 1 0.66,0.18 l 0.91,1.55 a 0.48,0.48 0 0 1 -0.18,0.66 l -0.25,0.14 a 0.16,0.16 0 0 0 -0.06,0.21 q 0.25,0.49 0.49,1 a 0.16,0.16 0 0 0 0.21,0.08 l 0.26,-0.11 A 0.49,0.49 0 0 1 63,34 l 0.69,1.66 a 0.48,0.48 0 0 1 -0.26,0.63 l -0.26,0.11 a 0.16,0.16 0 0 0 -0.09,0.2 q 0.19,0.51 0.35,1 a 0.16,0.16 0 0 0 0.2,0.11 l 0.27,-0.07 a 0.48,0.48 0 0 1 0.37,0 0.47,0.47 0 0 1 0.23,0.29 l 0.47,1.73 a 0.48,0.48 0 0 1 -0.34,0.59 l -0.27,0.07 a 0.16,0.16 0 0 0 -0.12,0.19 q 0.12,0.53 0.21,1.07 a 0.16,0.16 0 0 0 0.18,0.13 h 0.28 a 0.48,0.48 0 0 1 0.54,0.41 l 0.2,1.88 a 0.48,0.48 0 0 1 -0.42,0.54 h -0.29 a 0.16,0.16 0 0 0 -0.14,0.17 q 0,0.54 0.07,1.09 A 0.16,0.16 0 0 0 65,46 h 0.29 a 0.48,0.48 0 0 1 0.48,0.48 v 1.8 a 0.48,0.48 0 0 1 -0.48,0.48 H 65 a 0.16,0.16 0 0 0 -0.16,0.15 q 0,0.54 -0.07,1.09 a 0.16,0.16 0 0 0 0.14,0.17 h 0.29 a 0.48,0.48 0 0 1 0.42,0.54 l -0.24,1.78 a 0.48,0.48 0 0 1 -0.54,0.41 h -0.28 a 0.16,0.16 0 0 0 -0.18,0.13 q -0.1,0.54 -0.21,1.07 a 0.16,0.16 0 0 0 0.12,0.19 l 0.27,0.07 a 0.48,0.48 0 0 1 0.34,0.59 l -0.47,1.73 a 0.49,0.49 0 0 1 -0.59,0.34 l -0.27,-0.07 a 0.16,0.16 0 0 0 -0.2,0.11 q -0.17,0.52 -0.35,1 a 0.16,0.16 0 0 0 0.09,0.2 l 0.26,0.11 A 0.48,0.48 0 0 1 63.63,59 L 63,60.63 a 0.49,0.49 0 0 1 -0.63,0.26 l -0.26,-0.11 a 0.16,0.16 0 0 0 -0.21,0.08 q -0.24,0.49 -0.49,1 a 0.16,0.16 0 0 0 0.06,0.21 l 0.25,0.14 a 0.48,0.48 0 0 1 0.18,0.66 l -0.91,1.55 A 0.49,0.49 0 0 1 60.33,64.6 L 60,64.44 a 0.16,0.16 0 0 0 -0.22,0.05 q -0.3,0.46 -0.61,0.91 a 0.16,0.16 0 0 0 0,0.22 l 0.23,0.17 a 0.48,0.48 0 0 1 0.09,0.67 l -1.1,1.42 a 0.49,0.49 0 0 1 -0.68,0.09 L 57.48,67.8 a 0.16,0.16 0 0 0 -0.22,0 l -0.73,0.82 a 0.16,0.16 0 0 0 0,0.22 l 0.2,0.2 a 0.48,0.48 0 0 1 0,0.68 L 55.53,71 a 0.49,0.49 0 0 1 -0.68,0 l -0.21,-0.2 a 0.16,0.16 0 0 0 -0.22,0 l -0.83,0.72 a 0.16,0.16 0 0 0 0,0.22 l 0.18,0.23 a 0.48,0.48 0 0 1 -0.09,0.67 l -1.44,1.09 a 0.49,0.49 0 0 1 -0.68,-0.09 l -0.17,-0.22 a 0.16,0.16 0 0 0 -0.22,0 l -0.92,0.61 a 0.16,0.16 0 0 0 -0.05,0.21 l 0.14,0.24 a 0.48,0.48 0 0 1 -0.18,0.66 l -1.57,0.9 a 0.49,0.49 0 0 1 -0.66,-0.18 l -0.14,-0.24 a 0.16,0.16 0 0 0 -0.21,-0.06 l -1,0.48 a 0.16,0.16 0 0 0 -0.08,0.21 l 0.11,0.26 a 0.48,0.48 0 0 1 -0.26,0.63 l -1.67,0.69 a 0.49,0.49 0 0 1 -0.63,-0.26 l -0.11,-0.26 a 0.16,0.16 0 0 0 -0.2,-0.09 l -1,0.35 a 0.16,0.16 0 0 0 -0.11,0.19 l 0.07,0.27 a 0.48,0.48 0 0 1 -0.34,0.59 l -1.75,0.47 a 0.49,0.49 0 0 1 -0.59,-0.34 l -0.07,-0.27 a 0.16,0.16 0 0 0 -0.19,-0.12 l -1.08,0.21 a 0.16,0.16 0 0 0 -0.13,0.18 v 0.28 a 0.48,0.48 0 0 1 -0.42,0.54 l -1.8,0.23 a 0.48,0.48 0 0 1 -0.54,-0.41 v -0.28 a 0.16,0.16 0 0 0 -0.17,-0.14 l -1.1,0.07 a 0.16,0.16 0 0 0 -0.15,0.16 v 0.29 a 0.48,0.48 0 0 1 -0.48,0.48 H 32 A 0.48,0.48 0 0 1 31.51,79.49 V 79.2 a 0.16,0.16 0 0 0 -0.15,-0.16 l -1.1,-0.07 a 0.16,0.16 0 0 0 -0.17,0.14 v 0.28 a 0.48,0.48 0 0 1 -0.54,0.41 l -1.8,-0.23 A 0.48,0.48 0 0 1 27.33,79.03 V 78.75 A 0.16,0.16 0 0 0 27.2,78.57 l -1.08,-0.21 a 0.16,0.16 0 0 0 -0.19,0.12 l -0.07,0.27 a 0.49,0.49 0 0 1 -0.59,0.34 l -1.75,-0.46 a 0.48,0.48 0 0 1 -0.34,-0.59 l 0.07,-0.27 a 0.16,0.16 0 0 0 -0.11,-0.19 l -1,-0.35 a 0.16,0.16 0 0 0 -0.2,0.09 l -0.11,0.26 a 0.49,0.49 0 0 1 -0.63,0.26 l -1.67,-0.69 a 0.48,0.48 0 0 1 -0.26,-0.63 l 0.11,-0.26 A 0.16,0.16 0 0 0 19.3,76.05 l -1,-0.48 a 0.16,0.16 0 0 0 -0.21,0.06 l -0.14,0.24 a 0.49,0.49 0 0 1 -0.66,0.18 l -1.57,-0.9 a 0.48,0.48 0 0 1 -0.18,-0.66 l 0.14,-0.24 a 0.16,0.16 0 0 0 -0.05,-0.21 l -0.92,-0.61 a 0.16,0.16 0 0 0 -0.22,0 l -0.17,0.22 a 0.49,0.49 0 0 1 -0.68,0.09 L 12.2,72.65 a 0.48,0.48 0 0 1 -0.09,-0.67 l 0.18,-0.23 a 0.16,0.16 0 0 0 0,-0.22 l -0.83,-0.72 a 0.16,0.16 0 0 0 -0.22,0 L 11,71 a 0.49,0.49 0 0 1 -0.68,0 L 9,69.75 a 0.48,0.48 0 0 1 0,-0.68 l 0.21,-0.2 a 0.16,0.16 0 0 0 0,-0.22 L 8.48,67.83 a 0.16,0.16 0 0 0 -0.22,0 L 8,68 A 0.49,0.49 0 0 1 7.32,67.91 l -1.1,-1.42 a 0.48,0.48 0 0 1 0.09,-0.67 l 0.22,-0.17 a 0.16,0.16 0 0 0 0,-0.22 Q 6.22,64.98 5.92,64.53 A 0.16,0.16 0 0 0 5.7,64.48 L 5.45,64.62 A 0.49,0.49 0 0 1 4.79,64.44 L 4,62.85 A 0.48,0.48 0 0 1 4.18,62.2 L 4.43,62.06 A 0.16,0.16 0 0 0 4.49,61.85 Q 4.24,61.36 4,60.85 A 0.16,0.16 0 0 0 3.79,60.77 L 3.53,60.88 A 0.49,0.49 0 0 1 2.9,60.62 L 2.16,59 a 0.48,0.48 0 0 1 0.26,-0.63 l 0.26,-0.11 a 0.16,0.16 0 0 0 0.09,-0.2 q -0.19,-0.51 -0.35,-1 A 0.16,0.16 0 0 0 2.22,56.95 L 1.95,57 A 0.49,0.49 0 0 1 1.36,56.66 L 0.89,54.9 A 0.48,0.48 0 0 1 1.23,54.31 L 1.5,54.24 A 0.16,0.16 0 0 0 1.62,54.05 Q 1.5,53.52 1.4,53 A 0.16,0.16 0 0 0 1.22,52.87 H 0.94 A 0.49,0.49 0 0 1 0.4,52.46 L 0.16,50.69 A 0.48,0.48 0 0 1 0.58,50.15 H 0.87 A 0.16,0.16 0 0 0 1,49.95 Q 1,49.41 0.93,48.86 A 0.16,0.16 0 0 0 0.77,48.71 H 0.48 A 0.48,0.48 0 0 1 0,48.23 v -1.8 A 0.48,0.48 0 0 1 0.48,46 H 0.77 A 0.16,0.16 0 0 0 0.93,45.85 Q 0.93,45.3 1,44.76 A 0.16,0.16 0 0 0 0.86,44.59 H 0.57 A 0.48,0.48 0 0 1 0.16,44 L 0.4,42.18 A 0.48,0.48 0 0 1 0.94,41.77 H 1.22 A 0.16,0.16 0 0 0 1.4,41.64 Q 1.5,41.1 1.61,40.57 A 0.16,0.16 0 0 0 1.49,40.38 L 1.22,40.31 A 0.48,0.48 0 0 1 0.88,39.72 L 1.36,38 a 0.49,0.49 0 0 1 0.59,-0.34 l 0.27,0.07 a 0.16,0.16 0 0 0 0.2,-0.11 q 0.17,-0.52 0.35,-1 A 0.16,0.16 0 0 0 2.68,36.42 L 2.42,36.31 A 0.48,0.48 0 0 1 2.16,35.68 L 2.85,34 a 0.49,0.49 0 0 1 0.63,-0.26 l 0.26,0.11 A 0.16,0.16 0 0 0 4,33.79 q 0.24,-0.49 0.49,-1 A 0.16,0.16 0 0 0 4.43,32.58 L 4.18,32.44 A 0.48,0.48 0 0 1 4,31.81 l 0.91,-1.55 a 0.49,0.49 0 0 1 0.66,-0.18 l 0.25,0.14 A 0.16,0.16 0 0 0 6,30.17 q 0.3,-0.46 0.61,-0.91 a 0.16,0.16 0 0 0 0,-0.22 L 6.38,28.87 A 0.48,0.48 0 0 1 6.29,28.2 l 1.1,-1.42 A 0.49,0.49 0 0 1 8,26.68 l 0.23,0.17 a 0.16,0.16 0 0 0 0.22,0 L 9.21,26 a 0.16,0.16 0 0 0 0,-0.22 L 9,25.59 a 0.48,0.48 0 0 1 0,-0.68 l 1.28,-1.27 a 0.49,0.49 0 0 1 0.69,0 l 0.21,0.2 a 0.16,0.16 0 0 0 0.22,0 l 0.83,-0.72 a 0.16,0.16 0 0 0 0,-0.22 L 12.05,22.67 A 0.48,0.48 0 0 1 12.14,22 l 1.44,-1.09 A 0.49,0.49 0 0 1 14.26,21 l 0.17,0.22 a 0.16,0.16 0 0 0 0.22,0 l 0.92,-0.61 a 0.16,0.16 0 0 0 0.05,-0.21 l -0.14,-0.24 a 0.48,0.48 0 0 1 0.18,-0.66 l 1.57,-0.9 a 0.49,0.49 0 0 1 0.66,0.18 l 0.14,0.24 a 0.16,0.16 0 0 0 0.21,0.06 l 1,-0.48 a 0.16,0.16 0 0 0 0.08,-0.21 l -0.11,-0.26 a 0.48,0.48 0 0 1 0.26,-0.63 l 1.67,-0.69 a 0.49,0.49 0 0 1 0.63,0.26 l 0.11,0.26 a 0.16,0.16 0 0 0 0.2,0.09 l 1,-0.35 a 0.16,0.16 0 0 0 0.11,-0.19 l -0.07,-0.27 a 0.48,0.48 0 0 1 0.34,-0.59 l 1.75,-0.46 a 0.49,0.49 0 0 1 0.59,0.34 l 0.07,0.27 a 0.16,0.16 0 0 0 0.19,0.11 l 1.08,-0.21 a 0.16,0.16 0 0 0 0.13,-0.18 v -0.28 a 0.48,0.48 0 0 1 0.42,-0.54 l 1.8,-0.23 a 0.48,0.48 0 0 1 0.54,0.41 v 0.28 a 0.16,0.16 0 0 0 0.17,0.14 l 1.1,-0.07 a 0.16,0.16 0 0 0 0.15,-0.16 v -0.29 a 0.48,0.48 0 0 1 0.48,-0.48 h 1.81 a 0.48,0.48 0 0 1 0.48,0.48 v 0.29 a 0.16,0.16 0 0 0 0.23,0.21 z" id="path248" style="display:none;fill:#b2b2b2;fill-rule:evenodd" />
      <path d="m 34.44,15.61 1.09,0.07 a 0.32,0.32 0 0 0 0.35,-0.28 v -0.29 a 0.32,0.32 0 0 1 0.36,-0.28 l 1.8,0.24 a 0.32,0.32 0 0 1 0.28,0.36 v 0.28 a 0.32,0.32 0 0 0 0.26,0.36 l 1.08,0.21 a 0.32,0.32 0 0 0 0.38,-0.23 l 0.07,-0.27 a 0.32,0.32 0 0 1 0.4,-0.23 l 1.75,0.47 a 0.32,0.32 0 0 1 0.23,0.4 l -0.07,0.27 a 0.32,0.32 0 0 0 0.21,0.39 l 1,0.35 a 0.32,0.32 0 0 0 0.41,-0.18 l 0.11,-0.26 a 0.32,0.32 0 0 1 0.42,-0.17 l 1.67,0.69 a 0.32,0.32 0 0 1 0.18,0.42 l -0.11,0.26 a 0.32,0.32 0 0 0 0.16,0.42 l 1,0.49 a 0.32,0.32 0 0 0 0.43,-0.13 l 0.14,-0.25 a 0.32,0.32 0 0 1 0.44,-0.12 l 1.57,0.91 a 0.32,0.32 0 0 1 0.12,0.44 l -0.14,0.25 a 0.32,0.32 0 0 0 0.11,0.43 l 0.91,0.61 a 0.32,0.32 0 0 0 0.44,-0.07 l 0.17,-0.23 a 0.32,0.32 0 0 1 0.45,-0.06 L 53.56,22 a 0.32,0.32 0 0 1 0.06,0.45 l -0.18,0.23 a 0.32,0.32 0 0 0 0,0.44 l 0.82,0.72 a 0.32,0.32 0 0 0 0.45,0 l 0.21,-0.21 a 0.32,0.32 0 0 1 0.46,0 l 1.28,1.28 a 0.32,0.32 0 0 1 0,0.46 l -0.21,0.21 a 0.32,0.32 0 0 0 0,0.45 l 0.72,0.82 a 0.32,0.32 0 0 0 0.44,0 l 0.23,-0.18 a 0.32,0.32 0 0 1 0.45,0.06 l 1.1,1.44 a 0.32,0.32 0 0 1 -0.06,0.45 l -0.23,0.17 a 0.32,0.32 0 0 0 -0.07,0.44 q 0.31,0.45 0.61,0.91 a 0.32,0.32 0 0 0 0.43,0.1 l 0.25,-0.14 a 0.32,0.32 0 0 1 0.44,0.12 l 0.91,1.57 a 0.32,0.32 0 0 1 -0.12,0.44 l -0.25,0.14 a 0.32,0.32 0 0 0 -0.13,0.43 q 0.25,0.49 0.49,1 a 0.32,0.32 0 0 0 0.42,0.16 l 0.26,-0.11 a 0.32,0.32 0 0 1 0.42,0.17 l 0.69,1.67 a 0.32,0.32 0 0 1 -0.17,0.42 l -0.26,0.11 a 0.32,0.32 0 0 0 -0.18,0.41 q 0.19,0.51 0.35,1 a 0.32,0.32 0 0 0 0.39,0.21 l 0.27,-0.07 a 0.32,0.32 0 0 1 0.4,0.23 l 0.47,1.75 a 0.32,0.32 0 0 1 -0.23,0.4 l -0.27,0.07 a 0.32,0.32 0 0 0 -0.23,0.38 q 0.12,0.53 0.21,1.08 a 0.32,0.32 0 0 0 0.36,0.26 h 0.28 a 0.32,0.32 0 0 1 0.36,0.28 l 0.24,1.8 a 0.32,0.32 0 0 1 -0.28,0.36 h -0.29 a 0.32,0.32 0 0 0 -0.28,0.35 q 0,0.54 0.07,1.09 a 0.32,0.32 0 0 0 0.32,0.31 h 0.29 a 0.32,0.32 0 0 1 0.32,0.32 v 1.81 a 0.32,0.32 0 0 1 -0.32,0.32 H 65 a 0.32,0.32 0 0 0 -0.32,0.31 q 0,0.55 -0.07,1.09 a 0.32,0.32 0 0 0 0.28,0.35 h 0.28 a 0.32,0.32 0 0 1 0.28,0.36 l -0.24,1.8 a 0.32,0.32 0 0 1 -0.36,0.28 h -0.28 a 0.32,0.32 0 0 0 -0.36,0.26 c -0.06,0.36 -0.14,0.72 -0.21,1.08 a 0.32,0.32 0 0 0 0.23,0.38 l 0.27,0.07 a 0.32,0.32 0 0 1 0.23,0.4 l -0.47,1.75 a 0.32,0.32 0 0 1 -0.4,0.23 l -0.27,-0.07 a 0.32,0.32 0 0 0 -0.39,0.21 q -0.17,0.52 -0.35,1 a 0.32,0.32 0 0 0 0.18,0.41 l 0.26,0.11 a 0.32,0.32 0 0 1 0.18,0.42 l -0.69,1.67 a 0.32,0.32 0 0 1 -0.42,0.18 L 62.1,60.76 a 0.32,0.32 0 0 0 -0.42,0.16 q -0.23,0.5 -0.49,1 a 0.32,0.32 0 0 0 0.13,0.43 l 0.24,0.14 a 0.32,0.32 0 0 1 0.12,0.44 l -0.91,1.57 a 0.32,0.32 0 0 1 -0.44,0.12 l -0.25,-0.14 a 0.32,0.32 0 0 0 -0.43,0.1 q -0.3,0.46 -0.61,0.91 a 0.32,0.32 0 0 0 0.07,0.44 l 0.23,0.17 a 0.32,0.32 0 0 1 0.06,0.45 l -1.1,1.44 a 0.32,0.32 0 0 1 -0.45,0.06 L 57.65,68 a 0.32,0.32 0 0 0 -0.44,0 l -0.72,0.82 a 0.32,0.32 0 0 0 0,0.45 l 0.2,0.2 a 0.32,0.32 0 0 1 0,0.46 l -1.28,1.28 a 0.32,0.32 0 0 1 -0.46,0 L 54.75,71 a 0.32,0.32 0 0 0 -0.45,0 l -0.82,0.72 a 0.32,0.32 0 0 0 0,0.44 l 0.18,0.23 A 0.32,0.32 0 0 1 53.6,72.84 L 52.12,74 A 0.32,0.32 0 0 1 51.67,73.94 L 51.5,73.71 a 0.32,0.32 0 0 0 -0.44,-0.07 l -0.91,0.61 a 0.32,0.32 0 0 0 -0.11,0.43 l 0.14,0.25 a 0.32,0.32 0 0 1 -0.12,0.44 l -1.57,0.91 a 0.32,0.32 0 0 1 -0.44,-0.12 l -0.14,-0.25 a 0.32,0.32 0 0 0 -0.43,-0.13 l -1,0.49 a 0.32,0.32 0 0 0 -0.16,0.42 l 0.11,0.26 a 0.32,0.32 0 0 1 -0.17,0.42 L 44.6,78 a 0.32,0.32 0 0 1 -0.42,-0.18 l -0.11,-0.26 a 0.32,0.32 0 0 0 -0.41,-0.18 l -1,0.35 a 0.32,0.32 0 0 0 -0.21,0.39 l 0.07,0.27 a 0.32,0.32 0 0 1 -0.23,0.4 l -1.75,0.47 a 0.32,0.32 0 0 1 -0.4,-0.23 L 40,78.78 a 0.32,0.32 0 0 0 -0.38,-0.23 l -1.08,0.21 a 0.32,0.32 0 0 0 -0.26,0.36 V 79.4 A 0.32,0.32 0 0 1 38,79.76 L 36.2,80 a 0.32,0.32 0 0 1 -0.36,-0.28 v -0.29 a 0.32,0.32 0 0 0 -0.35,-0.28 l -1.09,0.07 a 0.32,0.32 0 0 0 -0.31,0.32 v 0.29 a 0.32,0.32 0 0 1 -0.32,0.32 H 32 a 0.32,0.32 0 0 1 -0.32,-0.32 v -0.29 a 0.32,0.32 0 0 0 -0.31,-0.32 l -1.09,-0.07 a 0.32,0.32 0 0 0 -0.35,0.28 v 0.28 a 0.32,0.32 0 0 1 -0.36,0.28 l -1.8,-0.24 a 0.32,0.32 0 0 1 -0.28,-0.36 v -0.28 a 0.32,0.32 0 0 0 -0.26,-0.36 l -1.08,-0.21 a 0.32,0.32 0 0 0 -0.38,0.23 l -0.07,0.27 a 0.32,0.32 0 0 1 -0.4,0.23 L 23.55,78.8 a 0.32,0.32 0 0 1 -0.23,-0.4 l 0.07,-0.27 a 0.32,0.32 0 0 0 -0.21,-0.39 l -1,-0.35 a 0.32,0.32 0 0 0 -0.41,0.18 l -0.11,0.26 A 0.32,0.32 0 0 1 21.24,78 L 19.57,77.31 A 0.32,0.32 0 0 1 19.4,76.89 l 0.11,-0.26 a 0.32,0.32 0 0 0 -0.16,-0.42 l -1,-0.49 a 0.32,0.32 0 0 0 -0.43,0.13 l -0.14,0.24 a 0.32,0.32 0 0 1 -0.44,0.12 L 15.77,75.3 a 0.32,0.32 0 0 1 -0.12,-0.44 l 0.14,-0.25 a 0.32,0.32 0 0 0 -0.1,-0.43 l -0.91,-0.61 a 0.32,0.32 0 0 0 -0.44,0.07 l -0.17,0.23 a 0.32,0.32 0 0 1 -0.45,0.06 l -1.44,-1.1 a 0.32,0.32 0 0 1 -0.06,-0.45 l 0.18,-0.23 a 0.32,0.32 0 0 0 0,-0.44 L 11.5,71 a 0.32,0.32 0 0 0 -0.45,0 l -0.2,0.2 a 0.32,0.32 0 0 1 -0.46,0 L 9.11,69.94 a 0.32,0.32 0 0 1 0,-0.46 l 0.21,-0.2 a 0.32,0.32 0 0 0 0,-0.45 L 8.6,68 A 0.32,0.32 0 0 0 8.16,68 L 7.94,68.17 A 0.32,0.32 0 0 1 7.49,68.11 L 6.39,66.67 A 0.32,0.32 0 0 1 6.45,66.22 L 6.66,66 A 0.32,0.32 0 0 0 6.73,65.56 Q 6.42,65.11 6.12,64.65 A 0.32,0.32 0 0 0 5.69,64.55 L 5.44,64.69 A 0.32,0.32 0 0 1 5,64.58 L 4.09,63 A 0.32,0.32 0 0 1 4.21,62.56 L 4.46,62.42 A 0.32,0.32 0 0 0 4.58,62 Q 4.33,61.51 4.09,61 A 0.32,0.32 0 0 0 3.67,60.84 L 3.42,61 A 0.32,0.32 0 0 1 3,60.79 L 2.31,59.12 A 0.32,0.32 0 0 1 2.49,58.7 l 0.26,-0.11 a 0.32,0.32 0 0 0 0.18,-0.41 q -0.19,-0.51 -0.35,-1 A 0.32,0.32 0 0 0 2.19,56.97 L 1.91,57 A 0.32,0.32 0 0 1 1.51,56.77 L 1,55 A 0.32,0.32 0 0 1 1.23,54.6 L 1.5,54.53 A 0.32,0.32 0 0 0 1.73,54.15 Q 1.61,53.62 1.52,53.07 A 0.32,0.32 0 0 0 1.16,52.81 H 0.88 A 0.32,0.32 0 0 1 0.52,52.53 L 0.32,50.8 A 0.32,0.32 0 0 1 0.6,50.44 H 0.89 A 0.32,0.32 0 0 0 1.17,50.09 Q 1.17,49.55 1.1,49 A 0.32,0.32 0 0 0 0.78,48.69 H 0.48 A 0.32,0.32 0 0 1 0.16,48.37 V 46.52 A 0.32,0.32 0 0 1 0.48,46.2 h 0.29 a 0.32,0.32 0 0 0 0.32,-0.31 q 0,-0.55 0.07,-1.09 A 0.32,0.32 0 0 0 0.88,44.45 H 0.59 A 0.32,0.32 0 0 1 0.32,44 L 0.56,42.2 A 0.32,0.32 0 0 1 0.92,42 H 1.2 A 0.32,0.32 0 0 0 1.56,41.74 Q 1.66,41.2 1.77,40.66 A 0.32,0.32 0 0 0 1.54,40.28 L 1.27,40.21 a 0.32,0.32 0 0 1 -0.23,-0.4 l 0.47,-1.75 a 0.32,0.32 0 0 1 0.4,-0.23 l 0.27,0.07 a 0.32,0.32 0 0 0 0.39,-0.21 q 0.17,-0.52 0.35,-1 A 0.32,0.32 0 0 0 2.74,36.28 L 2.48,36.17 A 0.32,0.32 0 0 1 2.3,35.75 L 3,34.06 a 0.32,0.32 0 0 1 0.42,-0.18 l 0.26,0.11 A 0.32,0.32 0 0 0 4.1,33.83 q 0.23,-0.5 0.49,-1 A 0.32,0.32 0 0 0 4.46,32.4 L 4.21,32.26 A 0.32,0.32 0 0 1 4.09,31.82 L 5,30.27 a 0.32,0.32 0 0 1 0.44,-0.12 l 0.25,0.14 a 0.32,0.32 0 0 0 0.43,-0.1 q 0.3,-0.46 0.61,-0.91 A 0.32,0.32 0 0 0 6.66,28.84 L 6.43,28.67 A 0.32,0.32 0 0 1 6.37,28.22 l 1.1,-1.44 a 0.32,0.32 0 0 1 0.45,-0.06 l 0.23,0.18 a 0.32,0.32 0 0 0 0.44,0 L 9.33,26 a 0.32,0.32 0 0 0 0,-0.45 l -0.21,-0.2 a 0.32,0.32 0 0 1 0,-0.46 l 1.28,-1.28 a 0.32,0.32 0 0 1 0.46,0 l 0.21,0.21 a 0.32,0.32 0 0 0 0.44,0 l 0.82,-0.72 a 0.32,0.32 0 0 0 0,-0.44 l -0.18,-0.23 a 0.32,0.32 0 0 1 0.06,-0.45 l 1.44,-1.1 a 0.32,0.32 0 0 1 0.45,0.06 l 0.17,0.23 a 0.32,0.32 0 0 0 0.44,0.07 l 0.91,-0.61 a 0.32,0.32 0 0 0 0.1,-0.43 L 15.63,20 a 0.32,0.32 0 0 1 0.12,-0.44 l 1.57,-0.91 a 0.32,0.32 0 0 1 0.44,0.12 l 0.14,0.25 a 0.32,0.32 0 0 0 0.43,0.13 l 1,-0.49 a 0.32,0.32 0 0 0 0.16,-0.42 l -0.11,-0.26 a 0.32,0.32 0 0 1 0.17,-0.42 l 1.67,-0.69 a 0.32,0.32 0 0 1 0.42,0.17 l 0.11,0.26 a 0.32,0.32 0 0 0 0.41,0.18 l 1,-0.35 a 0.32,0.32 0 0 0 0.21,-0.39 L 23.3,16.47 a 0.32,0.32 0 0 1 0.23,-0.39 l 1.75,-0.47 a 0.32,0.32 0 0 1 0.4,0.23 l 0.07,0.27 a 0.32,0.32 0 0 0 0.38,0.23 l 1.08,-0.21 a 0.32,0.32 0 0 0 0.26,-0.36 v -0.28 a 0.32,0.32 0 0 1 0.28,-0.36 l 1.8,-0.24 a 0.32,0.32 0 0 1 0.36,0.28 v 0.29 a 0.32,0.32 0 0 0 0.35,0.28 l 1.09,-0.07 a 0.32,0.32 0 0 0 0.31,-0.32 V 15 a 0.32,0.32 0 0 1 0.32,-0.32 h 1.81 A 0.32,0.32 0 0 1 34.11,15 v 0.29 a 0.32,0.32 0 0 0 0.33,0.32 z" id="path250" style="display:inline;fill:url(#ToggleSwitch4-8);fill-rule:evenodd" />
      <path d="M 32.9,15.83 A 31.6,31.6 0 1 1 1.3,47.43 31.6,31.6 0 0 1 32.9,15.83 Z m 0,0.59 a 31,31 0 1 0 31,31 31,31 0 0 0 -31,-31 z" id="path254" style="display:inline;fill:url(#ToggleSwitch4-9);fill-rule:evenodd" />
      <path d="M 32.9,75.61 A 28.18,28.18 0 1 0 4.72,47.42 28.24,28.24 0 0 0 32.9,75.61 Z" id="path258" style="display:inline;fill:url(#ToggleSwitch4-2-3);fill-rule:evenodd" />
      <path d="M 32.9,71.26 A 23.84,23.84 0 1 0 9.06,47.42 23.89,23.89 0 0 0 32.9,71.26 Z" id="path262" style="display:inline;fill:url(#ToggleSwitch4-1-3);fill-rule:evenodd" />
      <path d="M 32.9,70.51 A 23.09,23.09 0 1 0 9.82,47.42 23.13,23.13 0 0 0 32.9,70.51 Z" id="path264" style="display:inline;fill:url(#ToggleSwitch4-2-4);fill-rule:evenodd" />
      <path d="M 32.9,66.17 A 18.74,18.74 0 1 0 14.16,47.42 18.78,18.78 0 0 0 32.9,66.17 Z" id="path268" style="display:inline;fill:url(#ToggleSwitch4-2-5);fill-rule:evenodd" />
      <path d="M 32.9,63 A 15.53,15.53 0 1 0 17.37,47.42 15.56,15.56 0 0 0 32.9,63 Z" id="path270" style="display:inline;fill:url(#ToggleSwitch4-2-6);fill-rule:evenodd" />
      <path d="M 32.9,59.56 A 12.13,12.13 0 1 0 20.77,47.42 12.16,12.16 0 0 0 32.9,59.56 Z" id="path274" style="display:inline;fill:url(#ToggleSwitch4-3-5);fill-rule:evenodd" />
      <g style="display:none" id="g300">
        <path d="m 32.8,37.22 c 4.72,0 9,5.13 9,10.71 0,0.14 0,0.27 0,0.4 -0.18,-5.39 -5.75,-9.24 -8.86,-9.1 -3.52,0.06 -8.79,4.39 -9,9.78 0,-0.89 0,-1.54 0,-1.68 -0.01,-5.58 4.14,-10.11 8.86,-10.11 z" id="path276" style="display:inline;fill:url(#ToggleSwitch4-10);fill-rule:evenodd" />
        <path d="m 32.9,62.59 c 5,0 9.09,-5.25 9.09,-11.68 0,-6.43 -4.08,-11.68 -9.09,-11.68 -5.01,0 -9.09,5.25 -9.09,11.68 0,6.43 4.09,11.68 9.09,11.68 z" id="path278" style="fill:url(#ToggleSwitch4-4);fill-rule:evenodd" />
        <path d="m 41.34,49 v -0.28 c -0.1,-6.24 -9.32,-9.05 -14.58,-4.84 a 6.23,6.23 0 0 0 -2.5,4.84 V 49 a 6.23,6.23 0 0 1 2.5,-4.84 C 32,40 41.24,42.77 41.34,49 Z" id="path284" style="fill:url(#ToggleSwitch4-11);fill-rule:evenodd" />
        <path d="m 21.39,75.12 v -17 c 0.09,-5.69 5.44,-9.92 10.93,-10.14 5.49,-0.22 12,4 12.11,10.14 v 17 z" id="path286" style="fill:url(#ToggleSwitch4-12);fill-rule:evenodd" />
        <path d="m 32.9,69.040836 c 5.54,0 10.63,2.93 12.79,7.37 a 10.71,10.71 0 0 1 1.09,4.69 c 0,0.07 0,0.15 0,0.22 a 10.71,10.71 0 0 0 -1.09,-4.43 c -2.16,-4.43 -7.25,-7.37 -12.79,-7.37 -5.54,0 -10.63,2.93 -12.79,7.37 a 10.71,10.71 0 0 0 -1.11,4.44 c 0,-0.07 0,-0.15 0,-0.22 a 10.71,10.71 0 0 1 1.09,-4.69 c 2.18,-4.45 7.27,-7.38 12.81,-7.38 z" id="path288" style="fill:#060c0b;fill-rule:evenodd" />
        <path d="m 32.9,92.71 c 7.65,0 13.88,-5.34 13.88,-11.6 0,-6.26 -6.38,-11.6 -13.88,-11.6 -7.5,0 -13.9,5.21 -13.9,11.6 0,6.39 6.25,11.6 13.9,11.6 z" id="path292" style="fill:url(#ToggleSwitch4-13);fill-rule:evenodd" />
        <path d="m 45.65,82.74 c 0,-7.59 -5.68,-12.48 -12.56,-12.48 -6.88,0 -12.93,4.08 -12.93,12.48 0,9.96 25.49,10.62 25.49,0 z" id="path294" style="fill:url(#ToggleSwitch4-14);fill-rule:evenodd" />
      </g>
      <g style="display:inline" id="g326">
        <path d="m 32.67,55.49 c 4.72,0 9,-5.13 9,-10.71 0,-0.14 0,-0.27 0,-0.4 -0.18,5.39 -5.75,9.24 -8.86,9.1 -3.52,-0.06 -8.79,-4.39 -9,-9.78 0,0.89 0,1.54 0,1.68 -0.01,5.62 4.14,10.11 8.86,10.11 z" id="path302" style="display:inline;fill:url(#ToggleSwitch4-3-8);fill-rule:evenodd" />
        <path d="m 32.77,30.12 c 5,0 9.09,5.25 9.09,11.68 0,6.43 -4.09,11.68 -9.09,11.68 -5,0 -9.09,-5.25 -9.09,-11.68 0,-6.43 4.08,-11.68 9.09,-11.68 z" id="path304" style="display:inline;fill:url(#ToggleSwitch4-4-3);fill-rule:evenodd" />
        <path d="M 41.21,43.7 V 44 c -0.1,6.24 -9.32,9.05 -14.58,4.84 A 6.23,6.23 0 0 1 24.12,44 v -0.3 a 6.23,6.23 0 0 0 2.5,4.84 c 5.27,4.22 14.49,1.4 14.59,-4.84 z" id="path310" style="display:inline;fill:url(#ToggleSwitch4-5-2);fill-rule:evenodd" />
        <path d="m 21.25,17.59 v 17 c 0.09,5.69 5.44,9.92 10.93,10.14 5.49,0.22 12,-4 12.11,-10.14 v -17 z" id="path312" style="display:inline;fill:url(#ToggleSwitch4-6-2);fill-rule:evenodd" />
        <path d="m 32.77,24.19 c 5.54,0 10.63,-2.93 12.79,-7.37 a 10.71,10.71 0 0 0 1.09,-4.69 c 0,-0.07 0,-0.15 0,-0.22 a 10.71,10.71 0 0 1 -1.09,4.43 C 43.4,20.78 38.31,23.71 32.77,23.71 27.23,23.71 22.14,20.77 20,16.33 A 10.71,10.71 0 0 1 18.91,11.9 c 0,0.07 0,0.15 0,0.22 a 10.71,10.71 0 0 0 1.09,4.7 c 2.14,4.44 7.23,7.37 12.77,7.37 z" id="path314" style="display:inline;fill:#060c0b;fill-rule:evenodd" />
        <path d="m 32.77,0.4 c -7.65,0 -13.88,5.34 -13.88,11.6 0,6.26 6.39,11.6 13.88,11.6 7.49,0 13.88,-5.21 13.88,-11.6 0,-6.39 -6.23,-11.6 -13.88,-11.6 z" id="path318" style="display:inline;fill:url(#ToggleSwitch4-7-2);fill-rule:evenodd" />
        <path d="m 20,10.37 c 0,7.59 5.7,12.48 12.58,12.48 6.88,0 12.94,-4.08 12.94,-12.48 0,-9.96 -25.52,-10.62 -25.52,0 z" id="path320" style="display:inline;fill:url(#ToggleSwitch4-1-6);fill-rule:evenodd" />
      </g>
      <text xml:space="preserve" style="font-style:normal;font-variant:normal;font-weight:normal;font-stretch:normal;font-size:27.10623932px;line-height:125%;font-family:Arial;-inkscape-font-specification:Arial;letter-spacing:0px;word-spacing:0px;fill:#000000;fill-opacity:1;stroke:none" x="-0.093558215" y="-1.6791476" id="text5322" class="text">Label</text>
      <text xml:space="preserve" style="font-style:normal;font-variant:normal;font-weight:normal;font-stretch:normal;font-size:27.10623932px;line-height:125%;font-family:Arial;-inkscape-font-specification:Arial;letter-spacing:0px;word-spacing:0px;fill:#000000;fill-opacity:1;stroke:none" x="-0.65684664" y="115.90732" id="text4093" class="text2">Label</text>
    </g>
  </g>
</svg>
