<?xml version="1.0" encoding="UTF-8" standalone="no"?>
<svg
	 xmlns:vfp="http://www.labcenter.com/namespaces/vfp"
   xmlns:dc="http://purl.org/dc/elements/1.1/"
   xmlns:cc="http://creativecommons.org/ns#"
   xmlns:rdf="http://www.w3.org/1999/02/22-rdf-syntax-ns#"
   xmlns:svg="http://www.w3.org/2000/svg"
   xmlns="http://www.w3.org/2000/svg"
   xmlns:sodipodi="http://sodipodi.sourceforge.net/DTD/sodipodi-0.dtd"
   xmlns:inkscape="http://www.inkscape.org/namespaces/inkscape"
   viewBox="0 0 100 100"
   version="1.1"
   id="svg41"
   sodipodi:docname="Utility Dial.svg"
   inkscape:version="0.92.1 r15371">
  <defs
     id="defs17">
    <linearGradient
       id="UtilityDialWhite1"
       x1="85.36"
       y1="85.36"
       x2="14.64"
       y2="14.64"
       gradientUnits="userSpaceOnUse"
       gradientTransform="translate(-50,-50)">
      <stop
         offset="0"
         stop-opacity="0.3"
         id="stop2" />
      <stop
         offset="0.56"
         stop-opacity="0"
         id="stop4" />
    </linearGradient>
    <linearGradient
       id="UtilityDialWhite2"
       x1="83.06"
       y1="83.06"
       x2="16.94"
       y2="16.94"
       gradientUnits="userSpaceOnUse"
       gradientTransform="translate(-50,-50)">
      <stop
         offset="0"
         stop-opacity="0.2"
         id="stop7" />
      <stop
         offset="1"
         id="stop9" />
    </linearGradient>
    <linearGradient
       id="UtilityDialWhite3"
       x1="79.9"
       y1="85.28"
       x2="20.1"
       y2="25.48"
       gradientUnits="userSpaceOnUse"
       gradientTransform="translate(-50,-50)">
      <stop
         offset="0"
         stop-opacity="0.3"
         id="stop12" />
      <stop
         offset="0.7"
         stop-opacity="0"
         id="stop14" />
    </linearGradient>
  </defs>
 <vfp:catalogue
     PREFIX="Dial"
     CATEGORY="Dials and Sliders"
     DESC="Utility Dial" />
  <g
     vfp:class="Dial"
     transform="translate(50,50)">
    <g
       class="stator">
      <circle
         id="circle21"
         style="fill:#fffef5"
         r="50"
         cy="0"
         cx="0" />
      <circle
         id="circle23"
         style="fill:url(#UtilityDialWhite1)"
         r="50"
         cy="0"
         cx="0" />
      <circle
         id="circle25"
         style="fill:#fffef5"
         r="46.75"
         cy="0"
         cx="0" />
      <circle
         id="circle27"
         style="opacity:0.15;fill:url(#UtilityDialWhite2)"
         r="46.75"
         cy="0"
         cx="0" />
    </g>
    <g 
       style="pointer-events:none"
       class="rotor">
      <path
         inkscape:connector-curvature="0"
         id="path31"
         style="fill:#fffef5;stroke:#9d9d9c;stroke-miterlimit:10"
         d="M 9.06,-45.32 A 47,47 0 0 0 0.48,-46.2 h -1 a 47,47 0 0 0 -8.58,0.88 c -1.76,34.55 -5.55,68.1 -20.9,80.48 20.43,14.72 42.22,14.72 60,0 C 14.62,22.82 10.82,-10.74 9.06,-45.32 Z" />
      <path
         inkscape:connector-curvature="0"
         id="path33"
         style="fill:url(#UtilityDialWhite3)"
         d="M 9.06,-45.32 A 47,47 0 0 0 0.48,-46.2 h -1 a 47,47 0 0 0 -8.58,0.88 c -1.76,34.55 -5.55,68.1 -20.9,80.48 20.43,14.72 42.22,14.72 60,0 C 14.62,22.82 10.82,-10.74 9.06,-45.32 Z" />
      <path
         inkscape:connector-curvature="0"
         id="path35"
         style="fill:#3c3c3b"
         d="m -1,-46.21 v 14.12 a 1,1 0 0 0 1.9,0 v -14.12 z" />
    </g>
    <g
       class="readout"
       id="g19"><text
         id="text4345"
         style="font-size:20px;font-family:sans-serif;text-anchor:middle; dominant-baseline:central; fill:#000000"
         x="0"
         y="0">999</text>
</g>
  </g>
</svg>
