<?xml version="1.0" encoding="UTF-8" standalone="no"?>
<svg
   xmlns:vfp="http://www.labcenter.com/namespaces/vfp"
   xmlns:dc="http://purl.org/dc/elements/1.1/"
   xmlns:cc="http://creativecommons.org/ns#"
   xmlns:rdf="http://www.w3.org/1999/02/22-rdf-syntax-ns#"
   xmlns:svg="http://www.w3.org/2000/svg"
   xmlns="http://www.w3.org/2000/svg"
   xmlns:sodipodi="http://sodipodi.sourceforge.net/DTD/sodipodi-0.dtd"
   xmlns:inkscape="http://www.inkscape.org/namespaces/inkscape"
   viewBox="0 0 200 200"
   version="1.1"
   id="svg174"
   sodipodi:docname="TimerA.svg"
   inkscape:version="0.92.1 r15371">
  <metadata
     id="metadata178">
    <rdf:RDF>
      <cc:Work
         rdf:about="">
        <dc:format>image/svg+xml</dc:format>
        <dc:type
           rdf:resource="http://purl.org/dc/dcmitype/StillImage" />
      </cc:Work>
    </rdf:RDF>
  </metadata>
  <sodipodi:namedview
     pagecolor="#ffffff"
     bordercolor="#666666"
     borderopacity="1"
     objecttolerance="10"
     gridtolerance="10"
     guidetolerance="10"
     inkscape:pageopacity="0"
     inkscape:pageshadow="2"
     inkscape:window-width="1920"
     inkscape:window-height="1018"
     id="namedview176"
     showgrid="false"
     inkscape:zoom="1.668772"
     inkscape:cx="105.41485"
     inkscape:cy="93.298206"
     inkscape:window-x="-8"
     inkscape:window-y="-8"
     inkscape:window-maximized="1"
     inkscape:current-layer="Layer_3" />
  <defs
     id="defs12">
    <linearGradient
       id="linear-gradient"
       x1="170.71"
       y1="170.71"
       x2="29.29"
       y2="29.29"
       gradientUnits="userSpaceOnUse">
      <stop
         offset="0"
         stop-opacity="0.6"
         id="stop2" />
      <stop
         offset="1"
         stop-opacity="0.1"
         id="stop4" />
    </linearGradient>
    <linearGradient
       id="linear-gradient-2"
       x1="167.19"
       y1="167.18"
       x2="32.84"
       y2="32.83"
       gradientUnits="userSpaceOnUse">
      <stop
         offset="0"
         stop-opacity="0.3"
         id="stop7" />
      <stop
         offset="0.56"
         stop-opacity="0"
         id="stop9" />
    </linearGradient>
  </defs>
  <vfp:catalogue
     DESC="Analogue Timer"
     CATEGORY="Clocks and Timers"
     PREFIX="Timer" />
  <g
     vfp:class="Timer"
     data-name="Layer 3"
     id="Layer_3"
     inkscape:label="Root">
    <g
       class="bounds"
       id="g126"
       inkscape:label="Background">
      <circle
         id="circle16"
         style="fill:#fffef5"
         r="100"
         cy="100"
         cx="100" />
      <circle
         id="circle18"
         style="fill:url(#linear-gradient)"
         r="100"
         cy="100"
         cx="100" />
      <circle
         id="circle20"
         style="fill:#fffef5"
         r="95"
         cy="100"
         cx="100" />
      <line
         id="line22"
         style="fill:none;stroke:#1d1d1b;stroke-width:0.94506222px;stroke-miterlimit:10"
         y2="189.67999"
         x2="100"
         y1="10.32"
         x1="100" />
      <line
         id="line24"
         style="fill:none;stroke:#1d1d1b;stroke-width:0.94506222px;stroke-miterlimit:10"
         y2="100"
         x2="10.32"
         y1="100"
         x1="189.67999" />
      <line
         id="line26"
         style="fill:none;stroke:#1d1d1b;stroke-width:0.94506222px;stroke-miterlimit:10"
         y2="144.84"
         x2="22.34"
         y1="55.16"
         x1="177.66" />
      <line
         id="line28"
         style="fill:none;stroke:#1d1d1b;stroke-width:0.94506222px;stroke-miterlimit:10"
         y2="22.34"
         x2="55.16"
         y1="177.66"
         x1="144.84" />
      <line
         id="line30"
         style="fill:none;stroke:#1d1d1b;stroke-width:0.94506222px;stroke-miterlimit:10"
         y2="144.84"
         x2="177.66"
         y1="55.16"
         x1="22.34" />
      <line
         id="line32"
         style="fill:none;stroke:#1d1d1b;stroke-width:0.94506222px;stroke-miterlimit:10"
         y2="177.66"
         x2="55.16"
         y1="22.34"
         x1="144.84" />
      <line
         id="line34"
         style="fill:none;stroke:#1d1d1b;stroke-width:0.94506222px;stroke-miterlimit:10"
         y2="189.17999"
         x2="109.37"
         y1="10.82"
         x1="90.629997" />
      <line
         id="line36"
         style="fill:none;stroke:#1d1d1b;stroke-width:0.94506222px;stroke-miterlimit:10"
         y2="109.37"
         x2="10.82"
         y1="90.629997"
         x1="189.17999" />
      <line
         id="line38"
         style="fill:none;stroke:#1d1d1b;stroke-width:0.94506222px;stroke-miterlimit:10"
         y2="152.71001"
         x2="27.450001"
         y1="47.290001"
         x1="172.55" />
      <line
         id="line40"
         style="fill:none;stroke:#1d1d1b;stroke-width:0.94506222px;stroke-miterlimit:10"
         y2="27.450001"
         x2="47.290001"
         y1="172.55"
         x1="152.71001" />
      <line
         id="line42"
         style="fill:none;stroke:#1d1d1b;stroke-width:0.94506222px;stroke-miterlimit:10"
         y2="136.47"
         x2="181.92"
         y1="63.529999"
         x1="18.08" />
      <line
         id="line44"
         style="fill:none;stroke:#1d1d1b;stroke-width:0.94506222px;stroke-miterlimit:10"
         y2="181.92"
         x2="63.529999"
         y1="18.08"
         x1="136.47" />
      <line
         id="line46"
         style="fill:none;stroke:#1d1d1b;stroke-width:0.94506222px;stroke-miterlimit:10"
         y2="187.72"
         x2="118.64"
         y1="12.28"
         x1="81.360001" />
      <line
         id="line48"
         style="fill:none;stroke:#1d1d1b;stroke-width:0.94506222px;stroke-miterlimit:10"
         y2="118.64"
         x2="12.28"
         y1="81.360001"
         x1="187.72" />
      <line
         id="line50"
         style="fill:none;stroke:#1d1d1b;stroke-width:0.94506222px;stroke-miterlimit:10"
         y2="160"
         x2="33.360001"
         y1="40"
         x1="166.64" />
      <line
         id="line52"
         style="fill:none;stroke:#1d1d1b;stroke-width:0.94506222px;stroke-miterlimit:10"
         y2="33.360001"
         x2="40"
         y1="166.64"
         x1="160" />
      <line
         id="line54"
         style="fill:none;stroke:#1d1d1b;stroke-width:0.94506222px;stroke-miterlimit:10"
         y2="127.71"
         x2="185.28999"
         y1="72.290001"
         x1="14.71" />
      <line
         id="line56"
         style="fill:none;stroke:#1d1d1b;stroke-width:0.94506222px;stroke-miterlimit:10"
         y2="185.28999"
         x2="72.290001"
         y1="14.71"
         x1="127.71" />
      <line
         id="line58"
         style="fill:none;stroke:#1d1d1b;stroke-width:0.94506222px;stroke-miterlimit:10"
         y2="185.28999"
         x2="127.71"
         y1="14.71"
         x1="72.290001" />
      <line
         id="line60"
         style="fill:none;stroke:#1d1d1b;stroke-width:0.94506222px;stroke-miterlimit:10"
         y2="127.71"
         x2="14.71"
         y1="72.290001"
         x1="185.28999" />
      <line
         id="line62"
         style="fill:none;stroke:#1d1d1b;stroke-width:0.94506222px;stroke-miterlimit:10"
         y2="166.64"
         x2="40"
         y1="33.360001"
         x1="160" />
      <line
         id="line64"
         style="fill:none;stroke:#1d1d1b;stroke-width:0.94506222px;stroke-miterlimit:10"
         y2="40"
         x2="33.360001"
         y1="160"
         x1="166.64" />
      <line
         id="line66"
         style="fill:none;stroke:#1d1d1b;stroke-width:0.94506222px;stroke-miterlimit:10"
         y2="118.64"
         x2="187.72"
         y1="81.360001"
         x1="12.28" />
      <line
         id="line68"
         style="fill:none;stroke:#1d1d1b;stroke-width:0.94506222px;stroke-miterlimit:10"
         y2="187.72"
         x2="81.360001"
         y1="12.28"
         x1="118.64" />
      <line
         id="line70"
         style="fill:none;stroke:#1d1d1b;stroke-width:0.94506222px;stroke-miterlimit:10"
         y2="181.92"
         x2="136.47"
         y1="18.08"
         x1="63.529999" />
      <line
         id="line72"
         style="fill:none;stroke:#1d1d1b;stroke-width:0.94506222px;stroke-miterlimit:10"
         y2="136.47"
         x2="18.08"
         y1="63.529999"
         x1="181.92" />
      <line
         id="line74"
         style="fill:none;stroke:#1d1d1b;stroke-width:0.94506222px;stroke-miterlimit:10"
         y2="172.55"
         x2="47.290001"
         y1="27.450001"
         x1="152.71001" />
      <line
         id="line76"
         style="fill:none;stroke:#1d1d1b;stroke-width:0.94506222px;stroke-miterlimit:10"
         y2="47.290001"
         x2="27.450001"
         y1="152.71001"
         x1="172.55" />
      <line
         id="line78"
         style="fill:none;stroke:#1d1d1b;stroke-width:0.94506222px;stroke-miterlimit:10"
         y2="109.37"
         x2="189.17999"
         y1="90.629997"
         x1="10.82" />
      <line
         id="line80"
         style="fill:none;stroke:#1d1d1b;stroke-width:0.94506222px;stroke-miterlimit:10"
         y2="189.17999"
         x2="90.629997"
         y1="10.82"
         x1="109.37" />
      <line
         id="line82"
         style="fill:none;stroke:#1d1d1b;stroke-width:5px;stroke-miterlimit:10"
         y2="194.89"
         x2="100"
         y1="5.1100001"
         x1="100" />
      <line
         id="line84"
         style="fill:none;stroke:#1d1d1b;stroke-width:5px;stroke-miterlimit:10"
         y2="100"
         x2="5.1100001"
         y1="100"
         x1="194.89" />
      <line
         id="line86"
         style="fill:none;stroke:#1d1d1b;stroke-width:5px;stroke-miterlimit:10"
         y2="147.44"
         x2="17.82"
         y1="52.560001"
         x1="182.17999" />
      <line
         id="line88"
         style="fill:none;stroke:#1d1d1b;stroke-width:5px;stroke-miterlimit:10"
         y2="17.82"
         x2="52.560001"
         y1="182.17999"
         x1="147.44" />
      <line
         id="line90"
         style="fill:none;stroke:#1d1d1b;stroke-width:5px;stroke-miterlimit:10"
         y2="147.44"
         x2="182.17999"
         y1="52.560001"
         x1="17.82" />
      <line
         id="line92"
         style="fill:none;stroke:#1d1d1b;stroke-width:5px;stroke-miterlimit:10"
         y2="182.17999"
         x2="52.560001"
         y1="17.82"
         x1="147.44" />
      <circle
         id="circle94"
         style="fill:#fffef5;stroke:#1d1d1b;stroke-miterlimit:10"
         r="84.330002"
         cy="100"
         cx="100" />
      <text
         id="text96"
         style="font-size:12px;font-family:MyriadPro-Regular, 'Myriad Pro';fill:#1d1d1b"
         transform="translate(58.51,37.32)">55</text>
      <text
         id="text98"
         style="font-size:12px;font-family:MyriadPro-Regular, 'Myriad Pro';fill:#1d1d1b"
         transform="translate(27.96,67.12)">50</text>
      <text
         id="text100"
         style="font-size:12px;font-family:MyriadPro-Regular, 'Myriad Pro';fill:#1d1d1b"
         transform="translate(16.83,104.61)">45</text>
      <text
         id="text102"
         style="font-size:12px;font-family:MyriadPro-Regular, 'Myriad Pro';fill:#1d1d1b"
         transform="translate(28.32,142.07)">40</text>
      <text
         id="text104"
         style="font-size:12px;font-family:MyriadPro-Regular, 'Myriad Pro';fill:#1d1d1b"
         transform="translate(54.99,169.73)">35</text>
      <text
         id="text106"
         style="font-size:12px;font-family:MyriadPro-Regular, 'Myriad Pro';fill:#1d1d1b"
         transform="translate(94.07,180.91)">30</text>
      <text
         id="text108"
         style="font-size:12px;font-family:MyriadPro-Regular, 'Myriad Pro';fill:#1d1d1b"
         transform="translate(131.66,170.16)">25</text>
      <text
         id="text110"
         style="font-size:12px;font-family:MyriadPro-Regular, 'Myriad Pro';fill:#1d1d1b"
         transform="translate(159.93,142.07)">20</text>
      <text
         id="text112"
         style="font-size:12px;font-family:MyriadPro-Regular, 'Myriad Pro';fill:#1d1d1b"
         transform="translate(170.34,104.36)">15</text>
      <text
         id="text114"
         style="font-size:12px;font-family:MyriadPro-Regular, 'Myriad Pro';fill:#1d1d1b"
         transform="translate(160.29,65.89)">10</text>
      <text
         id="text116"
         style="font-size:12px;font-family:MyriadPro-Regular, 'Myriad Pro';fill:#1d1d1b"
         transform="translate(131.88,38.18)">5</text>
      <text
         id="text118"
         style="font-size:12px;font-family:MyriadPro-Regular, 'Myriad Pro';fill:#1d1d1b"
         transform="translate(93.28,27.08)">60</text>
      <text
         class="label"
         id="text124"
         style="font-size:18.58929062px;font-family:MyriadPro-Regular, 'Myriad Pro';fill:#1d1d1b"
         transform="translate(78.15,151.89)">Timer</text>
    </g>
    <g 
       class="segments"
       id="g3936">
      <g
         class="alarm"
         inkscape:label="Alarm"
         id="g154">
        <path
           d="m 72.59,107.59 c 0,-1.94 -2.27,-3.46 -3.33,-5.77 L 68.59,99.95 C 67.5,95.76 68.04,94.17 64.32,92.66 a 1.46,1.46 0 0 0 0.12,-0.46 v 0 c 0,0 0,-0.08 0,-0.12 0,-0.04 0,-0.08 0,-0.12 v 0 a 1.42,1.42 0 0 0 -0.2,-0.61 v 0 A 1.44,1.44 0 0 0 64,91 v 0 l -0.12,-0.1 -0.13,-0.09 -0.1,-0.05 -0.22,-0.09 h -0.07 -0.15 -0.19 -0.19 -0.15 -0.07 l -0.22,0.09 -0.1,0.05 L 62.16,90.9 62,91 v 0 a 1.44,1.44 0 0 0 -0.23,0.28 v 0 a 1.42,1.42 0 0 0 -0.2,0.61 v 0 c 0,0 0,0.08 0,0.12 0,0.04 0,0.08 0,0.12 v 0 a 1.46,1.46 0 0 0 0.12,0.46 c -3.72,1.5 -3.18,3.1 -4.27,7.29 l -0.67,1.87 c -1.06,2.31 -3.34,3.84 -3.33,5.77 0,2.49 -0.32,2.43 1.21,2.43 h 16.75 c 1.53,0.05 1.19,0.14 1.21,-2.36 z"
           style="fill:#e30613"
           id="path142"
           inkscape:connector-curvature="0" />
        <path
           d="m 67,111.08 v 0 c 0,1.51 -0.93,2.75 -2.06,2.75 h -3.87 c -1.13,0 -2.06,-1.24 -2.06,-2.75 v 0"
           style="fill:#e30613"
           id="path144"
           inkscape:connector-curvature="0" />
        <path
           d="m 55.83,95.33 h -1.54 a 5.25,5.25 0 0 1 5.24,-5.24 v 1.54 a 3.71,3.71 0 0 0 -3.7,3.7 z"
           style="fill:#e30613"
           id="path146"
           inkscape:connector-curvature="0" />
        <path
           d="M 51.5,95.64 H 50 a 9.71,9.71 0 0 1 9.7,-9.7 v 1.54 a 8.17,8.17 0 0 0 -8.2,8.16 z"
           style="fill:#e30613"
           id="path148"
           inkscape:connector-curvature="0" />
        <path
           d="m 70.3,95.33 h 1.54 A 5.25,5.25 0 0 0 66.6,90.09 v 1.54 a 3.71,3.71 0 0 1 3.7,3.7 z"
           style="fill:#e30613"
           id="path150"
           inkscape:connector-curvature="0" />
        <path
           d="m 74.63,95.64 h 1.54 a 9.71,9.71 0 0 0 -9.7,-9.7 v 1.54 a 8.17,8.17 0 0 1 8.16,8.16 z"
           style="fill:#e30613"
           id="path152"
           inkscape:connector-curvature="0" />
      </g>
    </g>
    <polygon
       class="hand"
       id="polygon156"
       style="fill:#1d1d1b"
       points="96.11,41.31 100,37.97 103.89,41.31 103.89,99.97 96.11,99.97 "
       inkscape:label="Hour" />
    <polygon
       class="hand"
       id="polygon158"
       points="97.88,20.23 100,15.67 102.12,20.23 102.12,100.43 97.88,100.43 "
       inkscape:label="Minute" />
    <circle
       id="circle160"
       style="fill:#1d1d1b"
       r="4.9099998"
       cy="99.889999"
       cx="100"
       inkscape:label="circle160" />
    <g 
       class="hand"
       id="g168"
       inkscape:label="Second">
      <polygon
         id="polygon162"
         style="fill:#e30613"
         points="98.91,10.08 100,4.97 101.09,10.08 101.09,99.89 98.91,99.89 " />
      <circle
         id="circle164"
         style="fill:#e30613"
         r="4.9099998"
         cy="99.889999"
         cx="100" />
      <polygon
         id="polygon166"
         style="fill:#e30613"
         points="97.38,105.67 100,104.33 102.63,105.67 102.63,129.28 97.38,129.28 " />
    </g>
    <circle
       id="circle170"
       style="fill:url(#linear-gradient-2)"
       r="95"
       cy="100.01"
       cx="100.01"
       inkscape:label="Face" />
  </g>
</svg>
