<?xml version="1.0" encoding="UTF-8" standalone="no"?>
<svg
   xmlns:vfp="http://www.labcenter.com/namespaces/vfp"
   xmlns:dc="http://purl.org/dc/elements/1.1/"
   xmlns:cc="http://creativecommons.org/ns#"
   xmlns:rdf="http://www.w3.org/1999/02/22-rdf-syntax-ns#"
   xmlns:svg="http://www.w3.org/2000/svg"
   xmlns="http://www.w3.org/2000/svg"
   xmlns:sodipodi="http://sodipodi.sourceforge.net/DTD/sodipodi-0.dtd"
   xmlns:inkscape="http://www.inkscape.org/namespaces/inkscape"
   viewBox="0 0 400 200"
   version="1.1"
   id="svg280"
   sodipodi:docname="TimerD.svg"
   inkscape:version="0.92.1 r15371">
  <metadata
     id="metadata284">
    <rdf:RDF>
      <cc:Work
         rdf:about="">
        <dc:format>image/svg+xml</dc:format>
        <dc:type
           rdf:resource="http://purl.org/dc/dcmitype/StillImage" />
      </cc:Work>
    </rdf:RDF>
  </metadata>
  <sodipodi:namedview
     pagecolor="#ffffff"
     bordercolor="#666666"
     borderopacity="1"
     objecttolerance="10"
     gridtolerance="10"
     guidetolerance="10"
     inkscape:pageopacity="0"
     inkscape:pageshadow="2"
     inkscape:window-width="1920"
     inkscape:window-height="1018"
     id="namedview282"
     showgrid="false"
     inkscape:zoom="1.435"
     inkscape:cx="260.72502"
     inkscape:cy="135.72922"
     inkscape:window-x="-8"
     inkscape:window-y="-8"
     inkscape:window-maximized="1"
     inkscape:current-layer="Layer_2-2" />
  <defs
     id="defs12">
    <linearGradient
       id="linear-gradient"
       x1="344.57"
       y1="244.57"
       x2="55.43"
       y2="-44.57"
       gradientUnits="userSpaceOnUse">
      <stop
         offset="0"
         stop-opacity="0.3"
         id="stop2" />
      <stop
         offset="0.56"
         stop-opacity="0"
         id="stop4" />
    </linearGradient>
    <linearGradient
       id="linear-gradient-2"
       x1="333.42"
       y1="233.42"
       x2="66.58"
       y2="-33.42"
       gradientUnits="userSpaceOnUse">
      <stop
         offset="0"
         stop-opacity="0.2"
         id="stop7" />
      <stop
         offset="1"
         id="stop9" />
    </linearGradient>
  </defs>
  <vfp:catalogue
     DESC="Digital Timer"
     CATEGORY="Clocks and Timers"
     PREFIX="Timer" />
  <g 
     vfp:class="Timer"
     data-name="Layer 2"
     id="Layer_2-2"
     inkscape:label="Root">
    <rect
       y="0"
       x="0"
       id="rect16"
       style="fill:#fffef5"
       ry="18.5"
       rx="18.5"
       height="200"
       width="400" />
    <rect
       y="0"
       x="0"
       id="rect18"
       style="fill:url(#linear-gradient)"
       ry="18.5"
       rx="18.5"
       height="200"
       width="400" />
    <rect
       id="rect20"
       style="fill:#fffef5"
       ry="16.91"
       rx="16.91"
       height="177.91"
       width="375.66"
       y="11.05"
       x="12.17" />
    <rect
       id="rect22"
       style="opacity:0.15;fill:url(#linear-gradient-2)"
       ry="16.91"
       rx="16.91"
       height="177.91"
       width="375.66"
       y="11.05"
       x="12.17" />
    <g
       class="segments"
       id="g4159">
      <g
         class="digits"
         id="g138">
        <g
           class="digit"
           id="g38"
           style="fill:#ff0000">
          <polygon
             id="polygon24"
             style="fill:#ff0000"
             points="311.53,40.32 311.38,40.32 284.41,40.32 284.26,40.32 281.42,43.27 284.26,46.22 284.41,46.22 311.38,46.22 311.53,46.22 314.37,43.27 " />
          <polygon
             id="polygon26"
             style="fill:#ff0000"
             points="313.17,48.9 313.17,49.04 313.17,74.51 313.17,74.65 316.28,77.33 319.4,74.65 319.4,74.51 319.4,49.04 319.4,48.9 316.28,46.22 " />
          <polygon
             id="polygon28"
             style="fill:#ff0000"
             points="313.17,86.7 313.17,86.84 313.17,112.31 313.17,112.46 316.28,115.14 319.4,112.46 319.4,112.31 319.4,86.84 319.4,86.7 316.28,84.02 " />
          <polygon
             id="polygon30"
             style="fill:#ff0000"
             points="311.53,115.83 311.38,115.83 284.41,115.83 284.26,115.83 281.42,118.77 284.26,121.72 284.41,121.72 311.38,121.72 311.53,121.72 314.37,118.77 " />
          <polygon
             id="polygon32"
             style="fill:#ff0000"
             points="276.38,87.39 276.38,87.53 276.38,113 276.38,113.14 279.5,115.83 282.62,113.14 282.62,113 282.62,87.53 282.62,87.39 279.5,84.71 " />
          <polygon
             id="polygon34"
             style="fill:#ff0000"
             points="276.38,49.59 276.38,49.73 276.38,75.2 276.38,75.34 279.5,78.02 282.62,75.34 282.62,75.2 282.62,49.73 282.62,49.59 279.5,46.9 " />
          <polygon
             id="polygon36"
             style="fill:#ff0000"
             points="311.53,78.07 311.38,78.07 284.41,78.07 284.26,78.07 281.42,81.02 284.26,83.97 284.41,83.97 311.38,83.97 311.53,83.97 314.37,81.02 " />
        </g>
        <g
           class="digit"
           id="g54"
           style="fill:#ff0000">
          <polygon
             id="polygon40"
             style="fill:#ff0000"
             points="335.32,46.22 362.29,46.22 362.44,46.22 365.28,43.27 362.44,40.32 362.29,40.32 335.32,40.32 335.17,40.32 332.33,43.27 335.17,46.22 " />
          <polygon
             id="polygon42"
             style="fill:#ff0000"
             points="370.31,74.51 370.31,49.04 370.31,48.9 367.2,46.22 364.08,48.9 364.08,49.04 364.08,74.51 364.08,74.65 367.2,77.33 370.31,74.65 " />
          <polygon
             id="polygon44"
             style="fill:#ff0000"
             points="370.31,112.31 370.31,86.84 370.31,86.7 367.2,84.02 364.08,86.7 364.08,86.84 364.08,112.31 364.08,112.46 367.2,115.14 370.31,112.46 " />
          <polygon
             id="polygon46"
             style="fill:#ff0000"
             points="335.32,121.72 362.29,121.72 362.44,121.72 365.28,118.77 362.44,115.83 362.29,115.83 335.32,115.83 335.17,115.83 332.33,118.77 335.17,121.72 " />
          <polygon
             id="polygon48"
             style="fill:#ff0000"
             points="333.53,113 333.53,87.53 333.53,87.39 330.41,84.71 327.29,87.39 327.29,87.53 327.29,113 327.29,113.14 330.41,115.83 333.53,113.14 " />
          <polygon
             id="polygon50"
             style="fill:#ff0000"
             points="333.53,75.2 333.53,49.73 333.53,49.59 330.41,46.9 327.29,49.59 327.29,49.73 327.29,75.2 327.29,75.34 330.41,78.02 333.53,75.34 " />
          <polygon
             id="polygon52"
             style="fill:#ff0000"
             points="335.32,83.97 362.29,83.97 362.44,83.97 365.28,81.02 362.44,78.07 362.29,78.07 335.32,78.07 335.17,78.07 332.33,81.02 335.17,83.97 " />
        </g>
        <g
           class="digit"
           id="g72"
           style="fill:#ff0000">
          <polygon
             id="polygon58"
             style="fill:#ff0000"
             points="188.8,40.32 188.65,40.32 161.68,40.32 161.53,40.32 158.69,43.27 161.53,46.22 161.68,46.22 188.65,46.22 188.8,46.22 191.64,43.27 " />
          <polygon
             id="polygon60"
             style="fill:#ff0000"
             points="190.44,48.9 190.44,49.04 190.44,74.51 190.44,74.65 193.56,77.33 196.67,74.65 196.67,74.51 196.67,49.04 196.67,48.9 193.56,46.22 " />
          <polygon
             id="polygon62"
             style="fill:#ff0000"
             points="190.44,86.7 190.44,86.84 190.44,112.31 190.44,112.46 193.56,115.14 196.67,112.46 196.67,112.31 196.67,86.84 196.67,86.7 193.56,84.02 " />
          <polygon
             id="polygon64"
             style="fill:#ff0000"
             points="188.8,115.83 188.65,115.83 161.68,115.83 161.53,115.83 158.69,118.77 161.53,121.72 161.68,121.72 188.65,121.72 188.8,121.72 191.64,118.77 " />
          <polygon
             id="polygon66"
             style="fill:#ff0000"
             points="153.65,87.39 153.65,87.53 153.65,113 153.65,113.14 156.77,115.83 159.89,113.14 159.89,113 159.89,87.53 159.89,87.39 156.77,84.71 " />
          <polygon
             id="polygon68"
             style="fill:#ff0000"
             points="153.65,49.59 153.65,49.73 153.65,75.2 153.65,75.34 156.77,78.02 159.89,75.34 159.89,75.2 159.89,49.73 159.89,49.59 156.77,46.9 " />
          <polygon
             id="polygon70"
             style="fill:#ff0000"
             points="188.8,78.07 188.65,78.07 161.68,78.07 161.53,78.07 158.69,81.02 161.53,83.97 161.68,83.97 188.65,83.97 188.8,83.97 191.64,81.02 " />
        </g>
        <g
           class="digit"
           id="g88"
           style="fill:#ff0000">
          <polygon
             id="polygon74"
             style="fill:#ff0000"
             points="212.59,46.22 239.56,46.22 239.71,46.22 242.55,43.27 239.71,40.32 239.56,40.32 212.59,40.32 212.44,40.32 209.6,43.27 212.44,46.22 " />
          <polygon
             id="polygon76"
             style="fill:#ff0000"
             points="247.59,74.51 247.59,49.04 247.59,48.9 244.47,46.22 241.35,48.9 241.35,49.04 241.35,74.51 241.35,74.65 244.47,77.33 247.59,74.65 " />
          <polygon
             id="polygon78"
             style="fill:#ff0000"
             points="247.59,112.31 247.59,86.84 247.59,86.7 244.47,84.02 241.35,86.7 241.35,86.84 241.35,112.31 241.35,112.46 244.47,115.14 247.59,112.46 " />
          <polygon
             id="polygon80"
             style="fill:#ff0000"
             points="212.59,121.72 239.56,121.72 239.71,121.72 242.55,118.77 239.71,115.83 239.56,115.83 212.59,115.83 212.44,115.83 209.6,118.77 212.44,121.72 " />
          <polygon
             id="polygon82"
             style="fill:#ff0000"
             points="210.8,113 210.8,87.53 210.8,87.39 207.68,84.71 204.56,87.39 204.56,87.53 204.56,113 204.56,113.14 207.68,115.83 210.8,113.14 " />
          <polygon
             id="polygon84"
             style="fill:#ff0000"
             points="210.8,75.2 210.8,49.73 210.8,49.59 207.68,46.9 204.56,49.59 204.56,49.73 204.56,75.2 204.56,75.34 207.68,78.02 210.8,75.34 " />
          <polygon
             id="polygon86"
             style="fill:#ff0000"
             points="212.59,83.97 239.56,83.97 239.71,83.97 242.55,81.02 239.71,78.07 239.56,78.07 212.59,78.07 212.44,78.07 209.6,81.02 212.44,83.97 " />
        </g>
        <g
           class="digit"
           id="g106"
           style="fill:#ff0000">
          <polygon
             id="polygon92"
             style="fill:#ff0000"
             points="38.8,40.32 35.96,43.27 38.8,46.22 38.95,46.22 65.92,46.22 66.07,46.22 68.91,43.27 66.07,40.32 65.92,40.32 38.95,40.32 " />
          <polygon
             id="polygon94"
             style="fill:#ff0000"
             points="67.7,74.65 70.83,77.33 73.94,74.65 73.94,74.51 73.94,49.04 73.94,48.9 70.83,46.22 67.7,48.9 67.7,49.04 67.7,74.51 " />
          <polygon
             id="polygon96"
             style="fill:#ff0000"
             points="67.7,112.46 70.83,115.14 73.94,112.46 73.94,112.31 73.94,86.84 73.94,86.7 70.83,84.02 67.7,86.7 67.7,86.84 67.7,112.31 " />
          <polygon
             id="polygon98"
             style="fill:#ff0000"
             points="38.8,115.83 35.96,118.77 38.8,121.72 38.95,121.72 65.92,121.72 66.07,121.72 68.91,118.77 66.07,115.83 65.92,115.83 38.95,115.83 " />
          <polygon
             id="polygon100"
             style="fill:#ff0000"
             points="30.92,113.14 34.04,115.83 37.16,113.14 37.16,113 37.16,87.53 37.16,87.39 34.04,84.71 30.92,87.39 30.92,87.53 30.92,113 " />
          <polygon
             id="polygon102"
             style="fill:#ff0000"
             points="30.92,75.34 34.04,78.02 37.16,75.34 37.16,75.2 37.16,49.73 37.16,49.59 34.04,46.9 30.92,49.59 30.92,49.73 30.92,75.2 " />
          <polygon
             id="polygon104"
             style="fill:#ff0000"
             points="38.8,78.07 35.96,81.02 38.8,83.97 38.95,83.97 65.92,83.97 66.07,83.97 68.91,81.02 66.07,78.07 65.92,78.07 38.95,78.07 " />
        </g>
        <g
           class="digit"
           id="g122"
           style="fill:#ff0000">
          <polygon
             id="polygon108"
             style="fill:#ff0000"
             points="89.86,46.22 116.83,46.22 116.98,46.22 119.82,43.27 116.98,40.32 116.83,40.32 89.86,40.32 89.71,40.32 86.87,43.27 89.71,46.22 " />
          <polygon
             id="polygon110"
             style="fill:#ff0000"
             points="124.86,74.51 124.86,49.04 124.86,48.9 121.74,46.22 118.62,48.9 118.62,49.04 118.62,74.51 118.62,74.65 121.74,77.33 124.86,74.65 " />
          <polygon
             id="polygon112"
             style="fill:#ff0000"
             points="124.86,112.31 124.86,86.84 124.86,86.7 121.74,84.02 118.62,86.7 118.62,86.84 118.62,112.31 118.62,112.46 121.74,115.14 124.86,112.46 " />
          <polygon
             id="polygon114"
             style="fill:#ff0000"
             points="89.86,121.72 116.83,121.72 116.98,121.72 119.82,118.77 116.98,115.83 116.83,115.83 89.86,115.83 89.71,115.83 86.87,118.77 89.71,121.72 " />
          <polygon
             id="polygon116"
             style="fill:#ff0000"
             points="88.07,113 88.07,87.53 88.07,87.39 84.95,84.71 81.83,87.39 81.83,87.53 81.83,113 81.83,113.14 84.95,115.83 88.07,113.14 " />
          <polygon
             id="polygon118"
             style="fill:#ff0000"
             points="88.07,75.2 88.07,49.73 88.07,49.59 84.95,46.9 81.83,49.59 81.83,49.73 81.83,75.2 81.83,75.34 84.95,78.02 88.07,75.34 " />
          <polygon
             id="polygon120"
             style="fill:#ff0000"
             points="89.86,83.97 116.83,83.97 116.98,83.97 119.82,81.02 116.98,78.07 116.83,78.07 89.86,78.07 89.71,78.07 86.87,81.02 89.71,83.97 " />
        </g>
      </g>
      <g 
         class="colons"
         id="g4169">
        <circle
           cx="261.98001"
           cy="67.900002"
           r="3.5599999"
           style="fill:#e30613"
           id="circle126" />
        <circle
           cx="261.98001"
           cy="94.139999"
           r="3.5599999"
           style="fill:#e30613"
           id="circle128" />
        <circle
           cx="139.25"
           cy="67.900002"
           r="3.5599999"
           style="fill:#e30613"
           id="circle132" />
        <circle
           cx="139.25"
           cy="94.139999"
           r="3.5599999"
           style="fill:#e30613"
           id="circle134" />
      </g>
      <g 
         class="alarm"
         id="g276">
        <path
           d="m 82.87,173 c 0,-3.08 -3.62,-5.52 -5.31,-9.2 l -1.06,-3 c -1.74,-6.67 -0.87,-9.21 -6.8,-11.61 a 2.32,2.32 0 0 0 0.19,-0.73 v 0 c 0,-0.06 0,-0.12 0,-0.19 0,-0.07 0,-0.13 0,-0.19 v 0 a 2.27,2.27 0 0 0 -0.32,-1 v 0 a 2.29,2.29 0 0 0 -0.37,-0.45 v 0 l -0.2,-0.23 -0.21,-0.14 -0.15,-0.08 a 2.19,2.19 0 0 0 -0.35,-0.14 H 68.18 68.1 67.9 67.6 67.3 67.13 67.05 L 67,146 a 2.19,2.19 0 0 0 -0.35,0.14 l -0.15,0.08 -0.21,0.14 -0.19,0.15 v 0 a 2.29,2.29 0 0 0 -0.37,0.45 v 0 a 2.27,2.27 0 0 0 -0.32,1 v 0 c 0,0.06 0,0.13 0,0.19 0,0.06 0,0.13 0,0.19 v 0 a 2.33,2.33 0 0 0 0.19,0.73 c -5.93,2.39 -5.06,4.93 -6.8,11.61 l -1.06,3 c -1.69,3.68 -5.32,6.11 -5.31,9.2 0,4 -0.52,3.87 1.93,3.87 h 26.59 c 2.44,0.09 1.9,0.19 1.92,-3.75 z"
           style="fill:#e30613"
           id="path264"
           inkscape:connector-curvature="0" />
        <path
           d="m 74,178.53 v 0 c 0,2.41 -1.48,4.39 -3.28,4.39 h -6.19 c -1.8,0 -3.28,-2 -3.28,-4.39 v 0"
           style="fill:#e30613"
           id="path266"
           inkscape:connector-curvature="0" />
        <path
           d="m 56.18,153.43 h -2.45 a 8.36,8.36 0 0 1 8.35,-8.35 v 2.45 a 5.91,5.91 0 0 0 -5.9,5.9 z"
           style="fill:#e30613"
           id="path268"
           inkscape:connector-curvature="0" />
        <path
           d="m 49.29,153.93 h -2.46 a 15.47,15.47 0 0 1 15.46,-15.46 v 2.45 a 13,13 0 0 0 -13,13.01 z"
           style="fill:#e30613"
           id="path270"
           inkscape:connector-curvature="0" />
        <path
           d="m 79.23,153.43 h 2.45 a 8.36,8.36 0 0 0 -8.35,-8.35 v 2.45 a 5.91,5.91 0 0 1 5.9,5.9 z"
           style="fill:#e30613"
           id="path272"
           inkscape:connector-curvature="0" />
        <path
           d="m 86.12,153.93 h 2.45 A 15.47,15.47 0 0 0 73.11,138.47 v 2.45 a 13,13 0 0 1 13.01,13.01 z"
           style="fill:#e30613"
           id="path274"
           inkscape:connector-curvature="0" />
      </g>
    </g>
    <rect
       class="inputArea"
       style="fill-opacity:0;stroke:none"
       id="rect5545"
       width="239.0244"
       height="45.993034"
       x="126.29952"
       y="140.30321" />
    <text
       class="label"
       id="text248"
       style="font-size:46.26517868px;font-family:MyriadPro-Regular, 'Myriad Pro';fill:#1d1d1b"
       transform="translate(130.89,179.39)">Timer</text>
  </g>
</svg>
