<?xml version="1.0" encoding="UTF-8" standalone="no"?>
<svg
   xmlns:vfp="http://www.labcenter.com/namespaces/vfp"
   xmlns:dc="http://purl.org/dc/elements/1.1/"
   xmlns:cc="http://creativecommons.org/ns#"
   xmlns:rdf="http://www.w3.org/1999/02/22-rdf-syntax-ns#"
   xmlns:svg="http://www.w3.org/2000/svg"
   xmlns="http://www.w3.org/2000/svg"
   xmlns:xlink="http://www.w3.org/1999/xlink"
   xmlns:sodipodi="http://sodipodi.sourceforge.net/DTD/sodipodi-0.dtd"
   xmlns:inkscape="http://www.inkscape.org/namespaces/inkscape"
   viewBox="0 0 200 200"
   version="1.1"
   id="svg303"
   sodipodi:docname="panelMeter4.svg"
   width="200"
   height="200"
   inkscape:version="0.92.1 r15371">
  <metadata
     id="metadata307">
    <rdf:RDF>
      <cc:Work
         rdf:about="">
        <dc:format>image/svg+xml</dc:format>
        <dc:type
           rdf:resource="http://purl.org/dc/dcmitype/StillImage" />
        <dc:title>panelMeter4</dc:title>
      </cc:Work>
    </rdf:RDF>
  </metadata>
  <sodipodi:namedview
     pagecolor="#ffffff"
     bordercolor="#666666"
     borderopacity="1"
     objecttolerance="10"
     gridtolerance="10"
     guidetolerance="10"
     inkscape:pageopacity="0"
     inkscape:pageshadow="2"
     inkscape:window-width="2560"
     inkscape:window-height="1417"
     id="namedview305"
     showgrid="false"
     showguides="true"
     inkscape:guide-bbox="true"
     inkscape:zoom="3.3991537"
     inkscape:cx="53.546771"
     inkscape:cy="129.13344"
     inkscape:window-x="1912"
     inkscape:window-y="-8"
     inkscape:window-maximized="1"
     inkscape:current-layer="g5064">
    <sodipodi:guide
       position="178.86805,200.34399"
       orientation="0,1"
       id="guide4918"
       inkscape:locked="false" />
  </sodipodi:namedview>
  <defs
     id="defs219">
    <linearGradient
       id="Gold_17"
       data-name="Gold 17"
       y1="196.37"
       x2="392.75"
       y2="196.37"
       gradientUnits="userSpaceOnUse">
      <stop
         offset="0"
         stop-color="#8e5714"
         id="stop2" />
      <stop
         offset="0.03"
         stop-color="#905a14"
         id="stop4" />
      <stop
         offset="0.06"
         stop-color="#9a6115"
         id="stop6" />
      <stop
         offset="0.28"
         stop-color="#f7a42e"
         id="stop8" />
      <stop
         offset="0.43"
         stop-color="#f7a42e"
         id="stop10" />
      <stop
         offset="0.58"
         stop-color="#b8731e"
         id="stop12" />
      <stop
         offset="0.63"
         stop-color="#ab6a1a"
         id="stop14" />
      <stop
         offset="0.75"
         stop-color="#704a14"
         id="stop16" />
      <stop
         offset="0.84"
         stop-color="#704a14"
         id="stop18" />
      <stop
         offset="0.98"
         stop-color="#815015"
         id="stop20" />
      <stop
         offset="1"
         stop-color="#8b5417"
         id="stop22" />
    </linearGradient>
    <radialGradient
       id="radial-gradient"
       cx="199.81"
       cy="156.11"
       fy="297.21048"
       r="141.11"
       gradientTransform="matrix(0.59072161,0,0,0.50924277,-116.69298,-146.97033)"
       gradientUnits="userSpaceOnUse">
      <stop
         offset="0"
         stop-color="#dfa063"
         id="stop25" />
      <stop
         offset="0.16"
         stop-color="#df9c61"
         id="stop27" />
      <stop
         offset="0.32"
         stop-color="#df905b"
         id="stop29" />
      <stop
         offset="0.48"
         stop-color="#e07c50"
         id="stop31" />
      <stop
         offset="0.65"
         stop-color="#e16042"
         id="stop33" />
      <stop
         offset="0.81"
         stop-color="#e23c2f"
         id="stop35" />
      <stop
         offset="0.97"
         stop-color="#e31018"
         id="stop37" />
      <stop
         offset="1"
         stop-color="#e30613"
         id="stop39" />
    </radialGradient>
    <linearGradient
       id="Gold_14"
       data-name="Gold 14"
       x1="101.28"
       y1="35.869999"
       x2="290.60999"
       y2="355.42999"
       gradientUnits="userSpaceOnUse">
      <stop
         offset="0"
         stop-color="#893813"
         id="stop42" />
      <stop
         offset="0.11"
         stop-color="#eae43b"
         id="stop44" />
      <stop
         offset="0.2"
         stop-color="#f9ae27"
         id="stop46" />
      <stop
         offset="0.28"
         stop-color="#a46b1e"
         id="stop48" />
      <stop
         offset="0.39"
         stop-color="#422b13"
         id="stop50" />
      <stop
         offset="0.52"
         stop-color="#be8725"
         id="stop52" />
      <stop
         offset="0.63"
         stop-color="#f9ba42"
         id="stop54" />
      <stop
         offset="0.75"
         stop-color="#b58726"
         id="stop56" />
      <stop
         offset="0.85"
         stop-color="#fcef79"
         id="stop58" />
      <stop
         offset="0.87"
         stop-color="#fbe973"
         id="stop60" />
      <stop
         offset="0.9"
         stop-color="#f7d862"
         id="stop62" />
      <stop
         offset="0.93"
         stop-color="#f1bd46"
         id="stop64" />
      <stop
         offset="0.97"
         stop-color="#e8971f"
         id="stop66" />
      <stop
         offset="0.97"
         stop-color="#e8961e"
         id="stop68" />
    </linearGradient>
    <linearGradient
       id="linear-gradient"
       x1="17.77"
       y1="113.64"
       x2="373.03"
       y2="113.64"
       gradientUnits="userSpaceOnUse"
       gradientTransform="matrix(0.50924277,0,0,0.50924277,-100,-146.97033)">
      <stop
         offset="0"
         stop-color="#8b5417"
         id="stop71" />
      <stop
         offset="0.02"
         stop-color="#815015"
         id="stop73" />
      <stop
         offset="0.16"
         stop-color="#704a14"
         id="stop75" />
      <stop
         offset="0.25"
         stop-color="#704a14"
         id="stop77" />
      <stop
         offset="0.37"
         stop-color="#ab6a1a"
         id="stop79" />
      <stop
         offset="0.42"
         stop-color="#b8731e"
         id="stop81" />
      <stop
         offset="0.57"
         stop-color="#f7a42e"
         id="stop83" />
      <stop
         offset="0.72"
         stop-color="#f7a42e"
         id="stop85" />
      <stop
         offset="0.94"
         stop-color="#9a6115"
         id="stop87" />
      <stop
         offset="0.97"
         stop-color="#905a14"
         id="stop89" />
      <stop
         offset="1"
         stop-color="#8e5714"
         id="stop91" />
    </linearGradient>
    <linearGradient
       id="linear-gradient-2"
       x1="17.77"
       y1="198.31"
       x2="373.03"
       y2="198.31"
       gradientUnits="userSpaceOnUse"
       gradientTransform="matrix(0.50924277,0,0,0.50924277,-100,-146.97033)">
      <stop
         offset="0"
         stop-color="#883a15"
         id="stop94" />
      <stop
         offset="0.07"
         stop-color="#bb7116"
         id="stop96" />
      <stop
         offset="0.18"
         stop-color="#ffe744"
         id="stop98" />
      <stop
         offset="0.23"
         stop-color="#b56d15"
         id="stop100" />
      <stop
         offset="0.29"
         stop-color="#eaa12d"
         id="stop102" />
      <stop
         offset="0.38"
         stop-color="#ffec4e"
         id="stop104" />
      <stop
         offset="0.45"
         stop-color="#df9626"
         id="stop106" />
      <stop
         offset="0.53"
         stop-color="#e09e23"
         id="stop108" />
      <stop
         offset="0.6"
         stop-color="#ad6d15"
         id="stop110" />
      <stop
         offset="0.71"
         stop-color="#c68e22"
         id="stop112" />
      <stop
         offset="0.82"
         stop-color="#f7b931"
         id="stop114" />
      <stop
         offset="0.91"
         stop-color="#c18635"
         id="stop116" />
      <stop
         offset="1"
         stop-color="#883a15"
         id="stop118" />
    </linearGradient>
    <radialGradient
       id="radial-gradient-2"
       cx="195.25"
       cy="350.39999"
       r="108.3"
       gradientUnits="userSpaceOnUse">
      <stop
         offset="0"
         stop-color="#fff"
         stop-opacity="0.6"
         id="stop121" />
      <stop
         offset="1"
         stop-color="#fff"
         stop-opacity="0"
         id="stop123" />
    </radialGradient>
    <radialGradient
       id="radial-gradient-3"
       cx="51.639999"
       cy="99.830002"
       r="57.939999"
       gradientUnits="userSpaceOnUse"
       gradientTransform="matrix(0.50924277,0,0,0.50924277,-100,-146.97033)">
      <stop
         offset="0"
         stop-color="#fff"
         stop-opacity="0.8"
         id="stop126" />
      <stop
         offset="1"
         stop-color="#fff"
         stop-opacity="0.2"
         id="stop128" />
    </radialGradient>
    <linearGradient
       id="linear-gradient-3"
       x1="195.39999"
       y1="23.530001"
       x2="195.39999"
       y2="161.75"
       xlink:href="#radial-gradient-2"
       gradientTransform="matrix(0.50924277,0,0,0.50924277,-100,-146.97033)" />
    <linearGradient
       id="Gold_02"
       data-name="Gold 02"
       x1="123.67"
       y1="279.28"
       x2="263.35001"
       y2="279.28"
       gradientTransform="rotate(23.83,193.53359,279.31716)"
       gradientUnits="userSpaceOnUse">
      <stop
         offset="0"
         stop-color="#ba7812"
         id="stop132" />
      <stop
         offset="0.13"
         stop-color="#cc922e"
         id="stop134" />
      <stop
         offset="0.38"
         stop-color="#eac05e"
         id="stop136" />
      <stop
         offset="0.5"
         stop-color="#f6d170"
         id="stop138" />
      <stop
         offset="0.62"
         stop-color="#eac05e"
         id="stop140" />
      <stop
         offset="0.87"
         stop-color="#cc922e"
         id="stop142" />
      <stop
         offset="1"
         stop-color="#ba7812"
         id="stop144" />
    </linearGradient>
    <linearGradient
       id="Gold_14-2"
       x1="-95.440002"
       y1="589.97998"
       x2="40.580002"
       y2="589.97998"
       gradientTransform="translate(220.92,-310.69)"
       xlink:href="#Gold_14" />
    <radialGradient
       id="radial-gradient-4"
       cx="195.02"
       cy="281.28"
       r="165.49001"
       xlink:href="#Gold_17"
       gradientTransform="matrix(0.50924277,0,0,0.50924277,-100,-146.97033)" />
    <linearGradient
       id="linear-gradient-4"
       x1="91.419998"
       y1="318.69"
       x2="98.370003"
       y2="329.35999"
       gradientUnits="userSpaceOnUse">
      <stop
         offset="0"
         stop-color="#535353"
         id="stop149" />
      <stop
         offset="0.02"
         stop-color="#575757"
         id="stop151" />
      <stop
         offset="0.19"
         stop-color="#7a7b7b"
         id="stop153" />
      <stop
         offset="0.34"
         stop-color="#909191"
         id="stop155" />
      <stop
         offset="0.43"
         stop-color="#989999"
         id="stop157" />
      <stop
         offset="0.53"
         stop-color="#9e9f9f"
         id="stop159" />
      <stop
         offset="0.65"
         stop-color="#aeafaf"
         id="stop161" />
      <stop
         offset="0.79"
         stop-color="#cacaca"
         id="stop163" />
      <stop
         offset="0.94"
         stop-color="#eff0f0"
         id="stop165" />
      <stop
         offset="1"
         stop-color="#fff"
         id="stop167" />
    </linearGradient>
    <linearGradient
       id="linear-gradient-5"
       x1="91.18"
       y1="318.35001"
       x2="94.940002"
       y2="324.10999"
       gradientUnits="userSpaceOnUse">
      <stop
         offset="0"
         stop-color="#343434"
         id="stop170" />
      <stop
         offset="0.37"
         stop-color="#565656"
         id="stop172" />
      <stop
         offset="1"
         stop-color="#989999"
         id="stop174" />
    </linearGradient>
    <radialGradient
       id="radial-gradient-5"
       cx="93.209999"
       cy="322.23001"
       r="5.8299999"
       gradientUnits="userSpaceOnUse">
      <stop
         offset="0"
         stop-color="#ececec"
         id="stop177" />
      <stop
         offset="0.21"
         stop-color="#dcdcdc"
         id="stop179" />
      <stop
         offset="0.41"
         stop-color="#c9c9c9"
         id="stop181" />
      <stop
         offset="0.47"
         stop-color="#bebebe"
         id="stop183" />
      <stop
         offset="0.59"
         stop-color="#a0a0a0"
         id="stop185" />
      <stop
         offset="0.73"
         stop-color="#767676"
         id="stop187" />
      <stop
         offset="0.78"
         stop-color="#6e6e6e"
         id="stop189" />
      <stop
         offset="0.85"
         stop-color="#595959"
         id="stop191" />
      <stop
         offset="0.93"
         stop-color="#363636"
         id="stop193" />
      <stop
         offset="1"
         stop-color="#161617"
         id="stop195" />
    </radialGradient>
    <linearGradient
       id="linear-gradient-6"
       x1="93.309998"
       y1="321.59"
       x2="95.919998"
       y2="325.60999"
       xlink:href="#linear-gradient-4" />
    <linearGradient
       id="linear-gradient-7"
       x1="96.830002"
       y1="326.17001"
       x2="92.32"
       y2="320.32999"
       gradientUnits="userSpaceOnUse">
      <stop
         offset="0"
         stop-color="#989999"
         id="stop199" />
      <stop
         offset="0.16"
         stop-color="#9fa0a0"
         id="stop201" />
      <stop
         offset="0.4"
         stop-color="#b3b4b4"
         id="stop203" />
      <stop
         offset="0.69"
         stop-color="#d4d4d4"
         id="stop205" />
      <stop
         offset="1"
         stop-color="#fff"
         id="stop207" />
    </linearGradient>
    <linearGradient
       id="linear-gradient-8"
       x1="92.400002"
       y1="319.87"
       x2="97.769997"
       y2="328.98999"
       xlink:href="#linear-gradient-7" />
    <linearGradient
       id="linear-gradient-9"
       x1="94.510002"
       y1="323.45001"
       x2="95.379997"
       y2="325.03"
       xlink:href="#linear-gradient-7" />
    <linearGradient
       id="linear-gradient-10"
       x1="290.34"
       y1="317.78"
       x2="297.29001"
       y2="328.45001"
       xlink:href="#linear-gradient-4" />
    <linearGradient
       id="linear-gradient-11"
       x1="290.10999"
       y1="317.44"
       x2="293.85999"
       y2="323.20001"
       xlink:href="#linear-gradient-5" />
    <radialGradient
       id="radial-gradient-6"
       cx="292.13"
       cy="321.32001"
       r="5.8299999"
       xlink:href="#radial-gradient-5" />
    <linearGradient
       id="linear-gradient-12"
       x1="292.23001"
       y1="320.69"
       x2="294.85001"
       y2="324.70001"
       xlink:href="#linear-gradient-4" />
    <linearGradient
       id="linear-gradient-13"
       x1="295.75"
       y1="325.26001"
       x2="291.25"
       y2="319.42999"
       xlink:href="#linear-gradient-7" />
    <linearGradient
       id="linear-gradient-14"
       x1="291.32999"
       y1="318.95999"
       x2="296.69"
       y2="328.07999"
       xlink:href="#linear-gradient-7" />
    <linearGradient
       id="linear-gradient-15"
       x1="293.44"
       y1="322.54001"
       x2="294.29999"
       y2="324.12"
       xlink:href="#linear-gradient-7" />
    <linearGradient
       inkscape:collect="always"
       xlink:href="#Gold_17"
       id="linearGradient4784"
       gradientUnits="userSpaceOnUse"
       y1="196.37"
       x2="392.75"
       y2="196.37"
       gradientTransform="matrix(0.50924277,0,0,0.50924277,-100,-146.97033)" />
    <linearGradient
       inkscape:collect="always"
       xlink:href="#Gold_14"
       id="linearGradient4786"
       gradientUnits="userSpaceOnUse"
       x1="101.28"
       y1="35.869999"
       x2="290.60999"
       y2="355.42999"
       gradientTransform="matrix(0.50924277,0,0,0.50924277,-100,-146.97033)" />
    <radialGradient
       inkscape:collect="always"
       xlink:href="#radial-gradient-2"
       id="radialGradient4788"
       gradientUnits="userSpaceOnUse"
       cx="195.25"
       cy="350.39999"
       r="108.3"
       gradientTransform="matrix(0.50924277,0,0,0.50924277,-100,-146.97033)" />
    <linearGradient
       inkscape:collect="always"
       xlink:href="#linear-gradient-4"
       id="linearGradient4790"
       gradientUnits="userSpaceOnUse"
       x1="91.419998"
       y1="318.69"
       x2="98.370003"
       y2="329.35999" />
    <linearGradient
       inkscape:collect="always"
       xlink:href="#linear-gradient-5"
       id="linearGradient4792"
       gradientUnits="userSpaceOnUse"
       x1="91.18"
       y1="318.35001"
       x2="94.940002"
       y2="324.10999" />
    <radialGradient
       inkscape:collect="always"
       xlink:href="#radial-gradient-5"
       id="radialGradient4794"
       gradientUnits="userSpaceOnUse"
       cx="93.209999"
       cy="322.23001"
       r="5.8299999" />
    <linearGradient
       inkscape:collect="always"
       xlink:href="#linear-gradient-7"
       id="linearGradient4796"
       gradientUnits="userSpaceOnUse"
       x1="96.830002"
       y1="326.17001"
       x2="92.32"
       y2="320.32999" />
  </defs>
  <vfp:catalogue
     PREFIX="Meter"
     CATEGORY="Display Controls"
     DESC="Steampunk Panel Meter 2" />
  <g
     id="g5017"
     vfp:class="PanelMeter"
     transform="translate(100,146.97033)">
    <circle
       style="display:inline;fill:url(#linearGradient4784);stroke-width:0.50924277"
       id="circle223"
       r="100"
       cy="-46.970329"
       cx="0" />
    <path
       style="display:inline;fill:url(#radial-gradient);stroke-width:0.50924277"
       inkscape:connector-curvature="0"
       id="path225"
       d="m -69.195905,-38.62893 c -9.558487,0 -19.631309,-6.20767 -19.947039,-16.596223 q -0.03565,-1.166166 -0.03565,-2.337424 c 0,-45.220753 39.782045,-81.988083 88.684628,-81.988083 48.902586,0 88.684636,36.79279 88.684636,81.988083 v 0.509243 C 88.12447,-46.46618 78.00581,-40.14138 68.2589,-40.14138 A 22.136783,22.136783 0 0 1 56.03708,-43.75701 C 39.96028,-54.33907 20.79239,-59.930556 0.606,-59.930556 c -21.072464,0 -40.912563,6.044712 -57.366196,17.487396 a 21.673372,21.673372 0 0 1 -12.440801,3.84478 z" />
    <g
       id="g5064">
      <g
         class="scale"
         id="g5040">
        <path
           style="opacity:0.94199997;fill:#ffffff;fill-opacity:0.03191486;stroke:#000000;stroke-opacity:0.62608696"
           id="path4936"
           sodipodi:type="arc"
           sodipodi:cx="0"
           sodipodi:cy="0"
           sodipodi:rx="90"
           sodipodi:ry="90"
           sodipodi:start="3.8397244"
           sodipodi:end="5.5850536"
           d="M -68.943997,-57.850888 A 90,90 0 0 1 1.7653779e-6,-90 90,90 0 0 1 68.944,-57.850885"
           sodipodi:open="true" />
      </g>
      <text
         id="text5067"
         y="-63.436714"
         x="-0.00509571"
         style="font-style:normal;font-variant:normal;font-weight:normal;font-stretch:normal;font-size:18.69001389px;line-height:0%;font-family:sans-serif;-inkscape-font-specification:'sans-serif, Normal';text-align:center;writing-mode:lr-tb;text-anchor:middle;fill:#000000;stroke-width:0.93450075"
         class="label">label</text>
      <g
         class="needle"
         id="g5037">
        <g
           transform="translate(-100,-146.96032)"
           id="g4926">
          <circle
             style="fill:#05060d;stroke-width:0.50924277"
             id="circle227"
             transform="rotate(-38.3)"
             r="4.02811"
             cy="107.76078"
             cx="42.323494" />
          <polyline
             transform="matrix(0.50924277,0,0,0.50924277,0,-0.01001)"
             style="fill:#05060d"
             id="polyline229"
             points="192.13 111.11 196.34 94.55 201.22 110.84" />
          <rect
             style="fill:#05060d;stroke-width:0.50924277"
             id="rect231"
             height="88.526764"
             width="0.87080514"
             y="57.962185"
             x="99.811584" />
        </g>
        <g
           transform="translate(-100,-146.96032)"
           id="g4934">
          <circle
             style="fill:#05060d;stroke-width:0.50924277"
             id="circle235"
             transform="rotate(-38)"
             r="4.02811"
             cy="108.28506"
             cx="43.855827" />
          <polyline
             transform="matrix(0.50924277,0,0,0.50924277,0,-0.01001)"
             style="fill:#05060d"
             id="polyline237"
             points="194.56 111.09 198.85 94.55 203.66 110.87" />
          <rect
             style="fill:#05060d;stroke-width:0.50924277"
             id="rect239"
             transform="rotate(-90)"
             height="0.87080514"
             width="86.943016"
             y="100.31573"
             x="-144.41124" />
        </g>
      </g>
    </g>
    <path
       style="display:inline;fill:url(#linearGradient4786);stroke-width:0.50924277"
       inkscape:connector-curvature="0"
       id="path243"
       d="m 0,-144.87225 c -54.066302,0 -97.90192,43.83052 -97.90192,97.901923 0,54.071397 43.835618,97.907017 97.90192,97.907017 54.06631,0 97.90193,-43.83562 97.90193,-97.901925 C 97.90193,-101.03154 54.0714,-144.87225 0,-144.87225 Z m 68.23853,104.7105 A 22.136783,22.136783 0 0 1 56.01671,-43.77738 C 39.93991,-54.35944 20.77202,-59.950925 0.58563,-59.950925 c -21.072464,0 -40.912562,6.044711 -57.366196,17.487395 a 21.673372,21.673372 0 0 1 -12.440801,3.84478 v 0 c -9.558487,0 -19.631309,-6.20767 -19.947039,-16.596218 q -0.03565,-1.166166 -0.03565,-2.337424 c 0,-45.220758 39.782045,-81.988088 88.684628,-81.988088 48.902588,0 88.684628,36.79279 88.684628,81.988088 v 0.509243 C 88.1194,-46.48655 78.00072,-40.16175 68.2589,-40.16175 Z" />
    <path
       style="display:inline;fill:url(#linear-gradient);stroke-width:0.50924277"
       inkscape:connector-curvature="0"
       id="path245"
       d="m -0.493963,-141.09876 c -49.956715,0 -90.456793,37.40388 -90.456793,83.515813 q 0,1.191628 0.03565,2.378164 c 0.468503,15.409683 21.342365,23.588123 35.280339,13.902323 15.440241,-10.734833 34.990071,-17.146199 56.25096,-17.146199 20.40026,0 39.21169,5.902123 54.35148,15.862909 14.25879,9.38025 34.8984,0.94719 34.99516,-14.498139 q 0,-0.244436 0,-0.509242 C 89.94755,-103.6847 49.46275,-141.09876 -0.493963,-141.09876 Z M 88.18557,-57.073704 C 88.11937,-46.48655 78.00072,-40.16175 68.25381,-40.16175 A 22.136783,22.136783 0 0 1 56.03198,-43.77738 C 39.95519,-54.35944 20.78729,-59.950925 0.60091,-59.950925 c -21.072467,0 -40.912565,6.044711 -57.366199,17.487395 a 21.673372,21.673372 0 0 1 -12.440801,3.84478 v 0 c -9.558486,0 -19.631308,-6.20767 -19.947039,-16.596218 q -0.03565,-1.166166 -0.03565,-2.337424 c 0,-45.220758 39.782045,-81.988088 88.684628,-81.988088 48.902591,0 88.684631,36.79279 88.684631,81.988088 z" />
    <path
       style="display:inline;fill:url(#linear-gradient-2);stroke-width:0.50924277"
       inkscape:connector-curvature="0"
       id="path247"
       d="M 54.96767,-42.57556 C 39.83806,-52.531258 21.01645,-58.438474 0.61619,-58.438474 c -21.260889,0 -40.810719,6.411366 -56.25096,17.146204 -13.937974,9.67561 -34.811836,1.52773 -35.280339,-13.902328 0,-0.224067 0,-0.453226 0,-0.682385 0,0.621276 -0.02546,1.242552 -0.02546,1.868921 q 0,1.191628 0.03565,2.378163 c 0.468503,15.409689 21.342364,23.588129 35.280339,13.902329 15.440241,-10.734839 34.990071,-17.146205 56.250955,-17.146205 20.40027,0 39.21169,5.902124 54.35148,15.862915 14.2588,9.38025 34.89841,0.94719 34.99517,-14.498144 q 0,-0.244437 0,-0.509243 c 0,-0.779142 0,-1.558283 -0.0357,-2.332332 -0.75368,14.992109 -20.94516,23.012679 -34.9697,13.775019 z" />
    <path
       style="display:inline;fill:url(#radialGradient4788);stroke-width:0.50924277"
       inkscape:connector-curvature="0"
       id="path249"
       d="m -73.315679,11.59259 a 1.76198,1.76198 0 0 0 -2.159189,2.70917 C -61.032743,30.63318 -38.198297,51.34917 -0.056014,51.56815 36.14096,51.77185 60.27398,32.39516 74.21195,17.38777 A 2.0980802,2.0980802 0 0 0 71.76759,14.06751 C 5.05169,45.60492 -2.811017,49.52609 -73.315679,11.59259 Z" />
    <path
       style="fill:url(#radial-gradient-3);stroke-width:0.50924277"
       inkscape:connector-curvature="0"
       id="path251"
       d="m -96.842695,-61.417545 c -0.361562,-0.117125 2.311962,-21.754851 17.314254,-42.679635 12.812548,-17.8235 28.73657,-26.98987 28.960637,-26.71997 0.224067,0.2699 -14.574528,9.40062 -27.49911,27.49911 -15.282375,21.408566 -18.419311,42.002344 -18.775781,41.900495 z" />
    <path
       style="fill:url(#linear-gradient-3);stroke-width:0.50924277"
       inkscape:connector-curvature="0"
       id="path253"
       d="m -69.195905,-64.600312 c -0.03055,0 -2.154097,0 -2.205021,-1.716148 0,-0.641646 -0.03056,-1.288384 -0.03056,-1.940215 0,-36.797885 31.817489,-66.710805 70.932426,-66.710805 39.11494,0 70.93242,29.93839 70.93242,66.710805 v 0.437949 c 0,1.599022 -1.818,1.680501 -2.17956,1.680501 a 2.4851047,2.4851047 0 0 1 -1.43097,-0.473596 c -19.19844,-12.634313 -42.094,-19.315578 -66.20155,-19.315578 -25.176964,0 -48.887307,7.221062 -68.523708,20.878953 a 2.1082651,2.1082651 0 0 1 -1.293477,0.448134 z" />
    <g
       transform="matrix(0.50924277,0,0,0.50924277,-100,-146.97033)"
       id="g259">
      <circle
         style="fill:url(#Gold_02)"
         id="circle255"
         transform="rotate(-23.83,193.54742,279.31551)"
         r="69.82"
         cy="279.28"
         cx="193.50999" />
      <circle
         style="fill:url(#Gold_14-2)"
         id="circle257"
         transform="rotate(-23.83,193.54742,279.31551)"
         r="68.010002"
         cy="279.28"
         cx="193.50999" />
    </g>
    <circle
       style="fill:url(#radial-gradient-4);stroke-width:0.50924277"
       id="circle261"
       r="32.591537"
       cy="-3.7305226"
       cx="-0.68746948" />
    <g
       transform="matrix(0.50924277,0,0,0.50924277,-100,-146.97033)"
       id="g299">
      <g
         id="g279">
        <g
           id="g269">
          <circle
             style="fill:url(#linearGradient4790)"
             id="circle263"
             r="6.46"
             cy="323.35001"
             cx="94.449997" />
          <path
             style="fill:url(#linearGradient4792)"
             inkscape:connector-curvature="0"
             id="path265"
             d="m 88.55,323.78 a 6.31,6.31 0 0 1 6.27,-6.16 6.18,6.18 0 0 1 4.78,1.83 6.46,6.46 0 1 0 -10.26,7.83 5.58,5.58 0 0 1 -0.79,-3.5 z" />
          <circle
             style="fill:url(#radialGradient4794)"
             id="circle267"
             r="4.0999999"
             cy="323.35001"
             cx="94.449997" />
        </g>
        <circle
           style="fill:url(#linear-gradient-6)"
           id="circle271"
           r="2.4300001"
           cy="323.34"
           cx="94.449997" />
        <path
           style="fill:url(#linearGradient4796)"
           inkscape:connector-curvature="0"
           id="path273"
           d="m 90.76,324.33 1.05,-0.31 a 2.62,2.62 0 0 1 1.55,-3.1 2.67,2.67 0 0 1 3.64,1.32 l 1,-0.52 c 0,0 -1.72,-3.26 -5,-1.92 a 3.66,3.66 0 0 0 -2.24,4.53 z" />
        <path
           style="fill:url(#linear-gradient-8)"
           inkscape:connector-curvature="0"
           id="path275"
           d="m 99.84,319.79 a 6.47,6.47 0 0 1 -11.1,6.58 6.46,6.46 0 1 0 11.1,-6.58 z" />
        <path
           style="fill:url(#linear-gradient-9)"
           inkscape:connector-curvature="0"
           id="path277"
           d="m 93.17,324.78 a 2,2 0 0 0 2.19,0.37 2,2 0 0 0 1.07,-2 4,4 0 0 1 -3.26,1.63 z" />
      </g>
      <g
         id="g297">
        <g
           id="g287">
          <circle
             style="fill:url(#linear-gradient-10)"
             id="circle281"
             r="6.46"
             cy="322.44"
             cx="293.37" />
          <path
             style="fill:url(#linear-gradient-11)"
             inkscape:connector-curvature="0"
             id="path283"
             d="m 287.48,322.87 a 6.31,6.31 0 0 1 6.27,-6.16 6.18,6.18 0 0 1 4.78,1.83 6.4532259,6.4532259 0 1 0 -10.26,7.83 5.58,5.58 0 0 1 -0.79,-3.5 z" />
          <circle
             style="fill:url(#radial-gradient-6)"
             id="circle285"
             r="4.0999999"
             cy="322.44"
             cx="293.37" />
        </g>
        <circle
           style="fill:url(#linear-gradient-12)"
           id="circle289"
           r="2.4300001"
           cy="322.42999"
           cx="293.37" />
        <path
           style="fill:url(#linear-gradient-13)"
           inkscape:connector-curvature="0"
           id="path291"
           d="m 289.68,323.42 1.05,-0.31 a 2.62,2.62 0 0 1 1.55,-3.1 2.67,2.67 0 0 1 3.65,1.33 l 1,-0.52 c 0,0 -1.72,-3.26 -5,-1.92 a 3.66,3.66 0 0 0 -2.25,4.52 z" />
        <path
           style="fill:url(#linear-gradient-14)"
           inkscape:connector-curvature="0"
           id="path293"
           d="m 298.76,318.88 a 6.47,6.47 0 0 1 -11.1,6.58 6.46,6.46 0 1 0 11.1,-6.58 z" />
        <path
           style="fill:url(#linear-gradient-15)"
           inkscape:connector-curvature="0"
           id="path295"
           d="m 292.1,323.87 a 2,2 0 0 0 2.19,0.37 2,2 0 0 0 1.07,-2 4,4 0 0 1 -3.26,1.63 z" />
      </g>
    </g>
  </g>
</svg>
