<?xml version="1.0" encoding="UTF-8" standalone="no"?>
<svg
   xmlns:vfp="http://www.labcenter.com/namespaces/vfp"
   xmlns:dc="http://purl.org/dc/elements/1.1/"
   xmlns:cc="http://creativecommons.org/ns#"
   xmlns:rdf="http://www.w3.org/1999/02/22-rdf-syntax-ns#"
   xmlns:svg="http://www.w3.org/2000/svg"
   xmlns="http://www.w3.org/2000/svg"
   xmlns:xlink="http://www.w3.org/1999/xlink"
   xmlns:sodipodi="http://sodipodi.sourceforge.net/DTD/sodipodi-0.dtd"
   xmlns:inkscape="http://www.inkscape.org/namespaces/inkscape"
   viewBox="0 0 111.14 81.87"
   version="1.1"
   id="svg189"
   sodipodi:docname="signal.svg"
   inkscape:version="0.92.1 r15371">
  <metadata
     id="metadata193">
    <rdf:RDF>
      <cc:Work
         rdf:about="">
        <dc:format>image/svg+xml</dc:format>
        <dc:type
           rdf:resource="http://purl.org/dc/dcmitype/StillImage" />
      </cc:Work>
    </rdf:RDF>
  </metadata>
  <sodipodi:namedview
     pagecolor="#ffffff"
     bordercolor="#666666"
     borderopacity="1"
     objecttolerance="10"
     gridtolerance="10"
     guidetolerance="10"
     inkscape:pageopacity="0"
     inkscape:pageshadow="2"
     inkscape:window-width="2560"
     inkscape:window-height="1417"
     id="namedview191"
     showgrid="false"
     inkscape:zoom="3.7919349"
     inkscape:cx="83.601563"
     inkscape:cy="55.478414"
     inkscape:window-x="1912"
     inkscape:window-y="-8"
     inkscape:window-maximized="1"
     inkscape:current-layer="Layer_2" />
  <defs
     id="defs141">
    <linearGradient
       id="Signal1-13"
       data-name="Gold 13"
       x1="0.57"
       y1="40.94"
       x2="110.57"
       y2="40.94"
       gradientUnits="userSpaceOnUse">
      <stop
         offset="0"
         stop-color="#883a15"
         id="stop2" />
      <stop
         offset="0.07"
         stop-color="#bb7116"
         id="stop4" />
      <stop
         offset="0.18"
         stop-color="#ffe744"
         id="stop6" />
      <stop
         offset="0.23"
         stop-color="#b56d15"
         id="stop8" />
      <stop
         offset="0.29"
         stop-color="#eaa12d"
         id="stop10" />
      <stop
         offset="0.38"
         stop-color="#ffec4e"
         id="stop12" />
      <stop
         offset="0.45"
         stop-color="#df9626"
         id="stop14" />
      <stop
         offset="0.53"
         stop-color="#e09e23"
         id="stop16" />
      <stop
         offset="0.6"
         stop-color="#ad6d15"
         id="stop18" />
      <stop
         offset="0.71"
         stop-color="#c68e22"
         id="stop20" />
      <stop
         offset="0.82"
         stop-color="#f7b931"
         id="stop22" />
      <stop
         offset="0.91"
         stop-color="#c18635"
         id="stop24" />
      <stop
         offset="1"
         stop-color="#883a15"
         id="stop26" />
    </linearGradient>
    <linearGradient
       id="Signal1-10"
       data-name="Gold 10"
       y1="40.94"
       x2="111.14"
       y2="40.94"
       gradientUnits="userSpaceOnUse">
      <stop
         offset="0"
         stop-color="#cb6915"
         id="stop29" />
      <stop
         offset="0"
         stop-color="#ce6e18"
         id="stop31" />
      <stop
         offset="0.01"
         stop-color="#dc892a"
         id="stop33" />
      <stop
         offset="0.01"
         stop-color="#e79f38"
         id="stop35" />
      <stop
         offset="0.02"
         stop-color="#f0b043"
         id="stop37" />
      <stop
         offset="0.03"
         stop-color="#f6bb4b"
         id="stop39" />
      <stop
         offset="0.04"
         stop-color="#fac250"
         id="stop41" />
      <stop
         offset="0.07"
         stop-color="#fbc451"
         id="stop43" />
      <stop
         offset="0.08"
         stop-color="#f3c35b"
         id="stop45" />
      <stop
         offset="0.19"
         stop-color="#e6ac3d"
         id="stop47" />
      <stop
         offset="0.28"
         stop-color="#f2ee98"
         id="stop49" />
      <stop
         offset="0.37"
         stop-color="#f09d39"
         id="stop51" />
      <stop
         offset="0.41"
         stop-color="#ef7c12"
         id="stop53" />
      <stop
         offset="0.45"
         stop-color="#ef7c12"
         id="stop55" />
      <stop
         offset="0.68"
         stop-color="#f6dd6c"
         id="stop57" />
      <stop
         offset="0.75"
         stop-color="#fff3b9"
         id="stop59" />
      <stop
         offset="0.78"
         stop-color="#fff3b9"
         id="stop61" />
      <stop
         offset="0.92"
         stop-color="#fdc64f"
         id="stop63" />
      <stop
         offset="0.95"
         stop-color="#fcc44e"
         id="stop65" />
      <stop
         offset="0.96"
         stop-color="#fabd4a"
         id="stop67" />
      <stop
         offset="0.97"
         stop-color="#f6b244"
         id="stop69" />
      <stop
         offset="0.97"
         stop-color="#f0a13b"
         id="stop71" />
      <stop
         offset="0.98"
         stop-color="#e98b2f"
         id="stop73" />
      <stop
         offset="0.98"
         stop-color="#e07020"
         id="stop75" />
      <stop
         offset="0.99"
         stop-color="#d85914"
         id="stop77" />
      <stop
         offset="1"
         stop-color="#d85914"
         id="stop79" />
    </linearGradient>
    <linearGradient
       id="Signal1-29"
       data-name="Gold 29"
       x1="9.65"
       y1="70.08"
       x2="28.47"
       y2="70.08"
       gradientUnits="userSpaceOnUse">
      <stop
         offset="0.02"
         stop-color="#603513"
         id="stop82" />
      <stop
         offset="0.07"
         stop-color="#86581b"
         id="stop84" />
      <stop
         offset="0.14"
         stop-color="#b68525"
         id="stop86" />
      <stop
         offset="0.18"
         stop-color="#c89629"
         id="stop88" />
      <stop
         offset="0.5"
         stop-color="#f9f090"
         id="stop90" />
      <stop
         offset="0.57"
         stop-color="#f0e07e"
         id="stop92" />
      <stop
         offset="0.71"
         stop-color="#dab74e"
         id="stop94" />
      <stop
         offset="0.82"
         stop-color="#c89627"
         id="stop96" />
      <stop
         offset="0.98"
         stop-color="#603513"
         id="stop98" />
    </linearGradient>
    <linearGradient
       id="Signal1-17"
       data-name="Gold 17"
       x1="10.22"
       y1="70.08"
       x2="27.9"
       y2="70.08"
       gradientUnits="userSpaceOnUse">
      <stop
         offset="0"
         stop-color="#8e5714"
         id="stop101" />
      <stop
         offset="0.03"
         stop-color="#905a14"
         id="stop103" />
      <stop
         offset="0.06"
         stop-color="#9a6115"
         id="stop105" />
      <stop
         offset="0.28"
         stop-color="#f7a42e"
         id="stop107" />
      <stop
         offset="0.43"
         stop-color="#f7a42e"
         id="stop109" />
      <stop
         offset="0.58"
         stop-color="#b8731e"
         id="stop111" />
      <stop
         offset="0.63"
         stop-color="#ab6a1a"
         id="stop113" />
      <stop
         offset="0.75"
         stop-color="#704a14"
         id="stop115" />
      <stop
         offset="0.84"
         stop-color="#704a14"
         id="stop117" />
      <stop
         offset="0.98"
         stop-color="#815015"
         id="stop119" />
      <stop
         offset="1"
         stop-color="#8b5417"
         id="stop121" />
    </linearGradient>
    <linearGradient
       id="Signal1-29-2"
       x1="29.64"
       y1="63.25"
       x2="48.46"
       y2="63.25"
       xlink:href="#Signal1-29"
       gradientTransform="matrix(0.85987378,0,0,1,5.4719285,0)" />
    <linearGradient
       id="Signal1-17-2"
       x1="30.21"
       y1="63.25"
       x2="47.89"
       y2="63.25"
       xlink:href="#Signal1-17"
       gradientTransform="matrix(0.85987378,0,0,1,5.4719285,0)" />
    <linearGradient
       id="Signal1-29-3"
       x1="49.63"
       y1="56.84"
       x2="68.45"
       y2="56.84"
       xlink:href="#Signal1-29"
       gradientTransform="matrix(0.85987378,0,0,1,8.2716504,0)" />
    <linearGradient
       id="Signal1-17-3"
       x1="50.2"
       y1="56.84"
       x2="67.88"
       y2="56.84"
       xlink:href="#Signal1-17"
       gradientTransform="matrix(0.85987378,0,0,1,8.2716504,0)" />
    <linearGradient
       id="Signal1-29-4"
       x1="69.62"
       y1="49.42"
       x2="88.44"
       y2="49.42"
       xlink:href="#Signal1-29"
       gradientTransform="matrix(0.85987397,0,0,1,11.07276,0)" />
    <linearGradient
       id="Signal1-17-4"
       x1="70.19"
       y1="49.42"
       x2="87.87"
       y2="49.42"
       xlink:href="#Signal1-17"
       gradientTransform="matrix(0.85987397,0,0,1,11.07276,0)" />
    <linearGradient
       id="Signal1-29-5"
       x1="89.61"
       y1="42"
       x2="108.43"
       y2="42"
       xlink:href="#Signal1-29"
       gradientTransform="matrix(0.85987397,0,0,1,13.87388,0)" />
    <linearGradient
       id="Signal1-17-5"
       x1="90.18"
       y1="42"
       x2="107.86"
       y2="42"
       xlink:href="#Signal1-17"
       gradientTransform="matrix(0.85987397,0,0,1,13.87388,0)" />
    <linearGradient
       id="Signal1-2-"
       x1="10.79"
       y1="70.08"
       x2="27.33"
       y2="70.08"
       gradientUnits="userSpaceOnUse">
      <stop
         offset="0"
         stop-color="#fff"
         stop-opacity="0.4"
         id="stop132" />
      <stop
         offset="1"
         stop-color="#fff"
         stop-opacity="0"
         id="stop134" />
    </linearGradient>
    <linearGradient
       id="Signal1-2--2"
       x1="30.78"
       y1="63.25"
       x2="47.32"
       y2="63.25"
       xlink:href="#Signal1-2-"
       gradientTransform="matrix(0.85987378,0,0,1,5.4719285,0)" />
    <linearGradient
       id="Signal1-2--3"
       x1="50.77"
       y1="56.84"
       x2="67.31"
       y2="56.84"
       xlink:href="#Signal1-2-"
       gradientTransform="matrix(0.85987378,0,0,1,8.2716504,0)" />
    <linearGradient
       id="Signal1-2--4"
       x1="70.76"
       y1="49.42"
       x2="87.3"
       y2="49.42"
       xlink:href="#Signal1-2-"
       gradientTransform="matrix(0.85987397,0,0,1,11.07276,0)" />
    <linearGradient
       id="Signal1-2--5"
       x1="90.75"
       y1="42"
       x2="107.29"
       y2="42"
       xlink:href="#Signal1-2-"
       gradientTransform="matrix(0.85987397,0,0,1,13.87388,0)" />
    <linearGradient
       inkscape:collect="always"
       xlink:href="#Signal1-29"
       id="Signal1-2-697"
       gradientUnits="userSpaceOnUse"
       x1="9.65"
       y1="70.08"
       x2="28.47"
       y2="70.08"
       gradientTransform="matrix(0.85987378,0,0,1,2.6708054,0)" />
    <linearGradient
       inkscape:collect="always"
       xlink:href="#Signal1-17"
       id="Signal1-2-699"
       gradientUnits="userSpaceOnUse"
       x1="10.22"
       y1="70.08"
       x2="27.9"
       y2="70.08"
       gradientTransform="matrix(0.85987378,0,0,1,2.6708054,0)" />
    <linearGradient
       inkscape:collect="always"
       xlink:href="#Signal1-2-"
       id="Signal1-2-701"
       gradientUnits="userSpaceOnUse"
       x1="10.79"
       y1="70.08"
       x2="27.33"
       y2="70.08"
       gradientTransform="matrix(0.85987378,0,0,1,2.6708054,0)" />
  </defs>
  <vfp:catalogue
     PREFIX="LEDBar"
     CATEGORY="Display Controls"
     DESC="Signal Indicator" />
  <g
     id="Layer_2"
     data-name="Layer 2"
     vfp:class="LEDStrip">
    <path
       inkscape:connector-curvature="0"
       style="fill:url(#Signal1-13);stroke:url(#Signal1-10);stroke-width:1.13999999;stroke-miterlimit:10"
       id="path145"
       stroke-miterlimit="10"
       d="m 110.57,4 v 73.88 a 3.42,3.42 0 0 1 -3.42,3.42 H 4 A 3.42,3.42 0 0 1 2,75.1 L 105.16,1.22 A 3.42,3.42 0 0 1 110.57,4 Z"
       sodipodi:insensitive="true"
       class="bounds" />
    <g
       id="LED Frames">
      <path
         d="m 13.298845,78.64 a 2.3302579,2.71 0 0 1 -2.330258,-2.71 v -2.74 a 2.3216592,2.7 0 0 1 1.031849,-2.25 l 11.530907,-9 a 2.3044617,2.68 0 0 1 1.289811,-0.46 2.3302579,2.71 0 0 1 2.330258,2.71 v 11.75 a 2.3302579,2.71 0 0 1 -2.330258,2.71 z"
         id="path147"
         style="fill:url(#Signal1-2-697);stroke-width:0.92729378"
         inkscape:connector-curvature="0" />
      <path
         d="m 13.298845,78.07 a 1.8401299,2.14 0 0 1 -1.84013,-2.14 v -2.74 a 1.8315312,2.13 0 0 1 0.816881,-1.78 l 11.530907,-9 a 1.8229324,2.12 0 0 1 1.014651,-0.36 1.8401299,2.14 0 0 1 1.84013,2.14 v 11.75 a 1.8401299,2.14 0 0 1 -1.84013,2.14 z"
         id="path149"
         style="fill:url(#Signal1-2-699);stroke-width:0.92729378"
         inkscape:connector-curvature="0" />
      <path
         d="M 33.288845,78.64 A 2.3302579,2.71 0 0 1 30.958587,75.93 V 59.54 a 2.3216592,2.7 0 0 1 1.031849,-2.25 l 11.530907,-9 a 2.3044617,2.68 0 0 1 1.289811,-0.46 2.3302579,2.71 0 0 1 2.330258,2.71 v 25.4 a 2.3302579,2.71 0 0 1 -2.330258,2.71 z"
         id="path153"
         style="fill:url(#Signal1-29-2);stroke-width:0.92729378"
         inkscape:connector-curvature="0" />
      <path
         d="m 33.288845,78.07 a 1.8401299,2.14 0 0 1 -1.84013,-2.14 V 59.54 a 1.8315312,2.13 0 0 1 0.816881,-1.78 l 11.530907,-9 a 1.8229324,2.12 0 0 1 1.014651,-0.36 1.8401299,2.14 0 0 1 1.84013,2.14 v 25.4 a 1.8401299,2.14 0 0 1 -1.84013,2.14 z"
         id="path155"
         style="fill:url(#Signal1-17-2);stroke-width:0.92729378"
         inkscape:connector-curvature="0" />
      <path
         d="M 53.268845,78.64 A 2.3302579,2.71 0 0 1 50.938587,75.93 V 46.7 a 2.3216592,2.7 0 0 1 1.031849,-2.25 l 11.530907,-9 a 2.3044617,2.68 0 0 1 1.289811,-0.46 2.3302579,2.71 0 0 1 2.330258,2.71 v 38.24 a 2.3302579,2.71 0 0 1 -2.330258,2.71 z"
         id="path159"
         style="fill:url(#Signal1-29-3);stroke-width:0.92729378"
         inkscape:connector-curvature="0" />
      <path
         d="m 53.268845,78.07 a 1.8401299,2.14 0 0 1 -1.84013,-2.14 V 46.7 a 1.8315312,2.13 0 0 1 0.816881,-1.78 l 11.530907,-9 a 1.8229324,2.12 0 0 1 1.014651,-0.36 1.8401299,2.14 0 0 1 1.84013,2.14 v 38.24 a 1.8401299,2.14 0 0 1 -1.84013,2.14 z"
         id="path161"
         style="fill:url(#Signal1-17-3);stroke-width:0.92729378"
         inkscape:connector-curvature="0" />
      <path
         d="M 73.258846,78.64 A 2.3302585,2.71 0 0 1 70.928587,75.93 V 31.86 a 2.3216597,2.7 0 0 1 1.031849,-2.25 l 11.53091,-9 a 2.3216597,2.7 0 0 1 3.62007,2.25 v 53 a 2.3302585,2.71 0 0 1 -2.330259,2.71 z"
         id="path165"
         style="fill:url(#Signal1-29-4);stroke-width:0.9272939"
         inkscape:connector-curvature="0" />
      <path
         d="m 73.258846,78.07 a 1.8401303,2.14 0 0 1 -1.84013,-2.14 V 31.86 a 1.8315316,2.13 0 0 1 0.81688,-1.77 l 11.53091,-9 a 1.8229328,2.12 0 0 1 1.014651,-0.36 1.8401303,2.14 0 0 1 1.84013,2.14 v 53 a 1.8401303,2.14 0 0 1 -1.84013,2.14 z"
         id="path167"
         style="fill:url(#Signal1-17-4);stroke-width:0.9272939"
         inkscape:connector-curvature="0" />
      <path
         d="M 93.248846,78.64 A 2.3302585,2.71 0 0 1 90.918587,75.93 V 17 a 2.3216597,2.7 0 0 1 1.031849,-2.25 l 11.530914,-9 A 2.3216597,2.7 0 0 1 107.10142,8 v 67.94 a 2.3302585,2.71 0 0 1 -2.33026,2.71 z"
         id="path171"
         style="display:inline;fill:url(#Signal1-29-5);stroke-width:0.9272939"
         inkscape:connector-curvature="0" />
      <path
         d="m 93.248846,78.07 a 1.8401303,2.14 0 0 1 -1.84013,-2.14 V 17 a 1.8315316,2.13 0 0 1 0.81688,-1.78 l 11.530914,-9 a 1.8229328,2.12 0 0 1 1.01465,-0.36 1.8401303,2.14 0 0 1 1.84013,2.14 v 67.94 a 1.8401303,2.14 0 0 1 -1.84013,2.14 z"
         id="path173"
         style="display:inline;fill:url(#Signal1-17-5);stroke-width:0.9272939"
         inkscape:connector-curvature="0" />
    </g>
    <g
       id="LEDs">
      <path
         d="M 24.829753,77.5 H 13.298845 a 1.3500018,1.57 0 0 1 -1.350001,-1.57 v -2.74 a 1.3500018,1.57 0 0 1 0.601911,-1.3 l 11.530908,-9 a 1.3500018,1.57 0 0 1 2.089493,1.3 v 11.7 a 1.3500018,1.57 0 0 1 -1.341403,1.61 z"
         id="path151"
         inkscape:connector-curvature="0"
         style="fill:#e30613;stroke-width:0.92729378"
         class="LED" />
      <path
         d="M 44.819753,77.5 H 33.288845 A 1.3500018,1.57 0 0 1 31.938844,75.93 V 59.54 a 1.3500018,1.57 0 0 1 0.601911,-1.3 l 11.530908,-9 a 1.3500018,1.57 0 0 1 2.089493,1.3 v 25.4 a 1.3500018,1.57 0 0 1 -1.341403,1.56 z"
         id="path157"
         inkscape:connector-curvature="0"
         style="fill:#e30613;stroke-width:0.92729378"
         class="LED" />
      <path
         d="M 64.808351,77.5 H 53.268845 A 1.3500018,1.57 0 0 1 51.918844,75.93 V 46.7 a 1.3500018,1.57 0 0 1 0.601911,-1.3 l 11.530908,-9 a 1.3500018,1.57 0 0 1 2.089493,1.3 v 38.24 a 1.3500018,1.57 0 0 1 -1.332805,1.56 z"
         id="path163"
         inkscape:connector-curvature="0"
         style="fill:#e30613;stroke-width:0.92729378"
         class="LED" />
      <path
         d="M 84.798355,77.5 H 73.258846 A 1.3500021,1.57 0 0 1 71.908844,75.93 V 31.86 a 1.3500021,1.57 0 0 1 0.601911,-1.3 l 11.53091,-9 a 1.3500021,1.57 0 0 1 2.089494,1.3 v 53 a 1.3500021,1.57 0 0 1 -1.332804,1.64 z"
         id="path169"
         inkscape:connector-curvature="0"
         style="display:inline;fill:#2b0000;stroke-width:0.9272939"
         class="LED" />
      <path
         d="M 104.77976,77.5 H 93.248846 A 1.3500021,1.57 0 0 1 91.898844,75.93 V 17 a 1.3500021,1.57 0 0 1 0.601911,-1.3 l 11.530915,-9 a 1.3500021,1.57 0 0 1 2.08949,1.3 v 67.94 a 1.3500021,1.57 0 0 1 -1.3414,1.56 z"
         id="path175"
         inkscape:connector-curvature="0"
         style="display:inline;fill:#2b0000;stroke-width:0.9272939"
         class="LED" />
    </g>
    <g
       id="Highlights"
       style="display:inline">
      <path
         d="M 24.829753,77.5 H 13.298845 a 1.3500018,1.57 0 0 1 -1.350001,-1.57 v -2.74 a 1.3500018,1.57 0 0 1 0.601911,-1.3 l 11.530908,-9 a 1.3500018,1.57 0 0 1 2.089493,1.3 v 11.7 a 1.3500018,1.57 0 0 1 -1.341403,1.61 z"
         id="path177"
         style="fill:url(#Signal1-2-701);stroke-width:0.92729378"
         inkscape:connector-curvature="0" />
      <path
         d="M 44.819753,77.5 H 33.288845 A 1.3500018,1.57 0 0 1 31.938844,75.93 V 59.54 a 1.3500018,1.57 0 0 1 0.601911,-1.3 l 11.530908,-9 a 1.3500018,1.57 0 0 1 2.089493,1.3 v 25.4 a 1.3500018,1.57 0 0 1 -1.341403,1.56 z"
         id="path179"
         style="fill:url(#Signal1-2--2);stroke-width:0.92729378"
         inkscape:connector-curvature="0" />
      <path
         d="M 64.808351,77.5 H 53.268845 A 1.3500018,1.57 0 0 1 51.918844,75.93 V 46.7 a 1.3500018,1.57 0 0 1 0.601911,-1.3 l 11.530908,-9 a 1.3500018,1.57 0 0 1 2.089493,1.3 v 38.24 a 1.3500018,1.57 0 0 1 -1.332805,1.56 z"
         id="path181"
         style="fill:url(#Signal1-2--3);stroke-width:0.92729378"
         inkscape:connector-curvature="0" />
      <path
         d="M 84.798355,77.5 H 73.258846 A 1.3500021,1.57 0 0 1 71.908844,75.93 V 31.86 a 1.3500021,1.57 0 0 1 0.601911,-1.3 l 11.53091,-9 a 1.3500021,1.57 0 0 1 2.089494,1.3 v 53 a 1.3500021,1.57 0 0 1 -1.332804,1.64 z"
         id="path183"
         style="fill:url(#Signal1-2--4);stroke-width:0.9272939"
         inkscape:connector-curvature="0" />
      <path
         d="M 104.77976,77.5 H 93.248846 A 1.3500021,1.57 0 0 1 91.898844,75.93 V 17 a 1.3500021,1.57 0 0 1 0.601911,-1.3 l 11.530915,-9 a 1.3500021,1.57 0 0 1 2.08949,1.3 v 67.94 a 1.3500021,1.57 0 0 1 -1.3414,1.56 z"
         id="path185"
         style="display:inline;fill:url(#Signal1-2--5);stroke-width:0.9272939"
         inkscape:connector-curvature="0" />
    </g>
    <text
       id="text73"
       y="97.253761"
       x="60.764378"
       style="font-size:15px;font-family:sans-serif;text-anchor:middle;stroke-width:0.5">50%</text>
  </g>
</svg>
