<?xml version="1.0" encoding="UTF-8" standalone="no"?>
<svg
   xmlns:vfp="http://www.labcenter.com/namespaces/vfp"
   xmlns:dc="http://purl.org/dc/elements/1.1/"
   xmlns:cc="http://creativecommons.org/ns#"
   xmlns:rdf="http://www.w3.org/1999/02/22-rdf-syntax-ns#"
   xmlns:svg="http://www.w3.org/2000/svg"
   xmlns="http://www.w3.org/2000/svg"
   xmlns:xlink="http://www.w3.org/1999/xlink"
   xmlns:sodipodi="http://sodipodi.sourceforge.net/DTD/sodipodi-0.dtd"
   xmlns:inkscape="http://www.inkscape.org/namespaces/inkscape"
   viewBox="0 0 75.67 58.98"
   version="1.1"
   id="svg140"
   sodipodi:docname="WiFi Signal.svg"
   inkscape:version="0.92.1 r15371">
  <metadata
     id="metadata84">
    <rdf:RDF>
      <cc:Work
         rdf:about="">
        <dc:format>image/svg+xml</dc:format>
        <dc:type
           rdf:resource="http://purl.org/dc/dcmitype/StillImage" />
      </cc:Work>
    </rdf:RDF>
  </metadata>
  <sodipodi:namedview
     pagecolor="#ffffff"
     bordercolor="#666666"
     borderopacity="1"
     objecttolerance="10"
     gridtolerance="10"
     guidetolerance="10"
     inkscape:pageopacity="0"
     inkscape:pageshadow="2"
     inkscape:window-width="1920"
     inkscape:window-height="1017"
     id="namedview82"
     showgrid="false"
     inkscape:zoom="3.9381526"
     inkscape:cx="37.581073"
     inkscape:cy="29.49"
     inkscape:window-x="-8"
     inkscape:window-y="-8"
     inkscape:window-maximized="1"
     inkscape:current-layer="LEDs" />
  <defs
     id="defs112">
    <linearGradient
       id="Wifi-_14"
       data-name="Wifi- 14"
       x1="0.33"
       y1="29.49"
       x2="75.33"
       y2="29.49"
       gradientUnits="userSpaceOnUse">
      <stop
         offset="0"
         stop-color="#893813"
         id="stop2" />
      <stop
         offset="0.11"
         stop-color="#eae43b"
         id="stop4" />
      <stop
         offset="0.2"
         stop-color="#f9ae27"
         id="stop6" />
      <stop
         offset="0.28"
         stop-color="#a46b1e"
         id="stop8" />
      <stop
         offset="0.39"
         stop-color="#422b13"
         id="stop10" />
      <stop
         offset="0.52"
         stop-color="#be8725"
         id="stop12" />
      <stop
         offset="0.63"
         stop-color="#f9ba42"
         id="stop14" />
      <stop
         offset="0.75"
         stop-color="#b58726"
         id="stop16" />
      <stop
         offset="0.85"
         stop-color="#fcef79"
         id="stop18" />
      <stop
         offset="0.87"
         stop-color="#fbe973"
         id="stop20" />
      <stop
         offset="0.9"
         stop-color="#f7d862"
         id="stop22" />
      <stop
         offset="0.93"
         stop-color="#f1bd46"
         id="stop24" />
      <stop
         offset="0.97"
         stop-color="#e8971f"
         id="stop26" />
      <stop
         offset="0.97"
         stop-color="#e8961e"
         id="stop28" />
    </linearGradient>
    <linearGradient
       id="Wifi-_02"
       data-name="Wifi- 02"
       y1="29.49"
       x2="75.67"
       y2="29.49"
       gradientUnits="userSpaceOnUse">
      <stop
         offset="0"
         stop-color="#ba7812"
         id="stop31" />
      <stop
         offset="0.13"
         stop-color="#cc922e"
         id="stop33" />
      <stop
         offset="0.38"
         stop-color="#eac05e"
         id="stop35" />
      <stop
         offset="0.5"
         stop-color="#f6d170"
         id="stop37" />
      <stop
         offset="0.62"
         stop-color="#eac05e"
         id="stop39" />
      <stop
         offset="0.87"
         stop-color="#cc922e"
         id="stop41" />
      <stop
         offset="1"
         stop-color="#ba7812"
         id="stop43" />
    </linearGradient>
    <linearGradient
       id="Wifi-_10"
       data-name="Wifi- 10"
       x1="32.59"
       y1="47.67"
       x2="43.07"
       y2="47.67"
       gradientUnits="userSpaceOnUse">
      <stop
         offset="0"
         stop-color="#cb6915"
         id="stop46" />
      <stop
         offset="0"
         stop-color="#ce6e18"
         id="stop48" />
      <stop
         offset="0.01"
         stop-color="#dc892a"
         id="stop50" />
      <stop
         offset="0.01"
         stop-color="#e79f38"
         id="stop52" />
      <stop
         offset="0.02"
         stop-color="#f0b043"
         id="stop54" />
      <stop
         offset="0.03"
         stop-color="#f6bb4b"
         id="stop56" />
      <stop
         offset="0.04"
         stop-color="#fac250"
         id="stop58" />
      <stop
         offset="0.07"
         stop-color="#fbc451"
         id="stop60" />
      <stop
         offset="0.08"
         stop-color="#f3c35b"
         id="stop62" />
      <stop
         offset="0.19"
         stop-color="#e6ac3d"
         id="stop64" />
      <stop
         offset="0.28"
         stop-color="#f2ee98"
         id="stop66" />
      <stop
         offset="0.37"
         stop-color="#f09d39"
         id="stop68" />
      <stop
         offset="0.41"
         stop-color="#ef7c12"
         id="stop70" />
      <stop
         offset="0.45"
         stop-color="#ef7c12"
         id="stop72" />
      <stop
         offset="0.68"
         stop-color="#f6dd6c"
         id="stop74" />
      <stop
         offset="0.75"
         stop-color="#fff3b9"
         id="stop76" />
      <stop
         offset="0.78"
         stop-color="#fff3b9"
         id="stop78" />
      <stop
         offset="0.92"
         stop-color="#fdc64f"
         id="stop80" />
      <stop
         offset="0.95"
         stop-color="#fcc44e"
         id="stop82" />
      <stop
         offset="0.96"
         stop-color="#fabd4a"
         id="stop84" />
      <stop
         offset="0.97"
         stop-color="#f6b244"
         id="stop86" />
      <stop
         offset="0.97"
         stop-color="#f0a13b"
         id="stop88" />
      <stop
         offset="0.98"
         stop-color="#e98b2f"
         id="stop90" />
      <stop
         offset="0.98"
         stop-color="#e07020"
         id="stop92" />
      <stop
         offset="0.99"
         stop-color="#d85914"
         id="stop94" />
      <stop
         offset="1"
         stop-color="#d85914"
         id="stop96" />
    </linearGradient>
    <linearGradient
       id="Wifi-_10-2"
       x1="26.07"
       y1="36.7"
       x2="49.6"
       y2="36.7"
       xlink:href="#Wifi-_10" />
    <linearGradient
       id="Wifi-_10-3"
       x1="19.07"
       y1="28.25"
       x2="56.59"
       y2="28.25"
       xlink:href="#Wifi-_10" />
    <linearGradient
       id="Wifi-_10-4"
       x1="12.34"
       y1="20.13"
       x2="63.32"
       y2="20.13"
       xlink:href="#Wifi-_10" />
    <linearGradient
       id="Wifi-_10-5"
       x1="5.86"
       y1="12.31"
       x2="69.8"
       y2="12.31"
       xlink:href="#Wifi-_10" />
    <linearGradient
       id="Wifi-1"
       x1="32.92"
       y1="47.67"
       x2="42.46"
       y2="47.67"
       gradientUnits="userSpaceOnUse">
      <stop
         offset="0"
         stop-color="#fff"
         stop-opacity="0.5"
         id="stop103" />
      <stop
         offset="1"
         stop-color="#fff"
         stop-opacity="0"
         id="stop105" />
    </linearGradient>
    <linearGradient
       id="Wifi-1-2"
       x1="20.8"
       y1="39.82"
       x2="45.69"
       y2="36.14"
       xlink:href="#Wifi-1" />
    <linearGradient
       id="Wifi-1-3"
       x1="19.65"
       y1="32"
       x2="44.54"
       y2="28.33"
       xlink:href="#Wifi-1" />
    <linearGradient
       id="Wifi-1-4"
       x1="18.54"
       y1="24.49"
       x2="43.43"
       y2="20.82"
       xlink:href="#Wifi-1" />
    <linearGradient
       id="Wifi-1-5"
       x1="17.47"
       y1="17.26"
       x2="42.36"
       y2="13.58"
       xlink:href="#Wifi-1" />
    <linearGradient
       inkscape:collect="always"
       xlink:href="#Wifi-_10"
       id="Wifi-2621"
       gradientUnits="userSpaceOnUse"
       x1="32.59"
       y1="47.67"
       x2="43.07"
       y2="47.67" />
    <linearGradient
       inkscape:collect="always"
       xlink:href="#Wifi-1"
       id="Wifi-2623"
       gradientUnits="userSpaceOnUse"
       x1="32.92"
       y1="47.67"
       x2="42.46"
       y2="47.67" />
  </defs>
  <vfp:catalogue
     PREFIX="LEDBar"
     CATEGORY="Display Controls"
     DESC="WiFi Indicator" />
  <g
     id="Layer_2"
     data-name="Layer 2"
     vfp:class="LEDStrip">
    <path
       style="fill:url(#Wifi-_14);stroke:url(#Wifi-_02);stroke-width:0.67000002;stroke-miterlimit:10"
       inkscape:connector-curvature="0"
       id="path116"
       stroke-miterlimit="10"
       d="M 39.76,57.75 74.7,16.12 A 2.71,2.71 0 0 0 74.24,12.2 61.79,61.79 0 0 0 1.44,12.2 2.72,2.72 0 0 0 1,16.13 l 34.9,41.62 a 2.52,2.52 0 0 0 3.86,0 z"
       class="bounds" />
    <g
       id="LEDs">
      <circle
         cx="37.830002"
         cy="47.669998"
         r="4.9099998"
         stroke-miterlimit="10"
         id="circle118"
         style="fill:#e30613;stroke:url(#Wifi-2621);stroke-width:0.67000002;stroke-miterlimit:10"
         class="LED" />
      <path
         d="m 28.74,40.92 a 2.34,2.34 0 0 1 -1.65,-4 15.2,15.2 0 0 1 21.49,0 2.3405234,2.3405234 0 1 1 -3.31,3.31 10.52,10.52 0 0 0 -14.88,0 2.33,2.33 0 0 1 -1.65,0.69 z"
         stroke-miterlimit="10"
         id="path120"
         inkscape:connector-curvature="0"
         style="fill:#e30613;stroke:url(#Wifi-_10-2);stroke-width:0.67000002;stroke-miterlimit:10"
         class="LED" />
      <path
         d="m 21.74,33.92 a 2.34,2.34 0 0 1 -1.65,-4 25.09,25.09 0 0 1 35.48,0 2.3405234,2.3405234 0 1 1 -3.31,3.31 20.42,20.42 0 0 0 -28.87,0 2.33,2.33 0 0 1 -1.65,0.69 z"
         stroke-miterlimit="10"
         id="path122"
         inkscape:connector-curvature="0"
         style="fill:#e30613;stroke:url(#Wifi-_10-3);stroke-width:0.67000002;stroke-miterlimit:10"
         class="LED" />
      <path
         d="M 60.65,27.19 A 2.33,2.33 0 0 1 59,26.51 a 29.93,29.93 0 0 0 -42.33,0 2.3405234,2.3405234 0 1 1 -3.31,-3.31 34.61,34.61 0 0 1 48.94,0 2.34,2.34 0 0 1 -1.65,4 z"
         stroke-miterlimit="10"
         id="path124"
         inkscape:connector-curvature="0"
         style="fill:#2b0000;stroke:url(#Wifi-_10-4);stroke-width:0.67000002;stroke-miterlimit:10"
         class="LED" />
      <path
         d="M 67.13,20.71 A 2.33,2.33 0 0 1 65.48,20 39.09,39.09 0 0 0 10.19,20 2.3405234,2.3405234 0 0 1 6.88,16.69 a 43.77,43.77 0 0 1 61.9,0 2.34,2.34 0 0 1 -1.65,4 z"
         stroke-miterlimit="10"
         id="path126"
         inkscape:connector-curvature="0"
         style="fill:#2b0000;stroke:url(#Wifi-_10-5);stroke-width:0.67000002;stroke-miterlimit:10"
         class="LED" />
    </g>
    <g
       id="Highlights">
      <circle
         cx="37.830002"
         cy="47.669998"
         r="4.9099998"
         id="circle128"
         style="fill:url(#Wifi-2623)" />
      <path
         d="m 28.74,40.92 a 2.34,2.34 0 0 1 -1.65,-4 15.2,15.2 0 0 1 21.49,0 2.3405234,2.3405234 0 1 1 -3.31,3.31 10.52,10.52 0 0 0 -14.88,0 2.33,2.33 0 0 1 -1.65,0.69 z"
         id="path130"
         inkscape:connector-curvature="0"
         style="fill:url(#Wifi-1-2)" />
      <path
         d="m 21.74,33.92 a 2.34,2.34 0 0 1 -1.65,-4 25.09,25.09 0 0 1 35.48,0 2.3405234,2.3405234 0 1 1 -3.31,3.31 20.42,20.42 0 0 0 -28.87,0 2.33,2.33 0 0 1 -1.65,0.69 z"
         id="path132"
         inkscape:connector-curvature="0"
         style="fill:url(#Wifi-1-3)" />
      <path
         d="M 60.65,27.19 A 2.33,2.33 0 0 1 59,26.51 a 29.93,29.93 0 0 0 -42.33,0 2.3405234,2.3405234 0 1 1 -3.31,-3.31 34.61,34.61 0 0 1 48.94,0 2.34,2.34 0 0 1 -1.65,4 z"
         id="path134"
         inkscape:connector-curvature="0"
         style="fill:url(#Wifi-1-4)" />
      <path
         d="M 67.13,20.71 A 2.33,2.33 0 0 1 65.48,20 39.09,39.09 0 0 0 10.19,20 2.3405234,2.3405234 0 0 1 6.88,16.69 a 43.77,43.77 0 0 1 61.9,0 2.34,2.34 0 0 1 -1.65,4 z"
         id="path136"
         inkscape:connector-curvature="0"
         style="fill:url(#Wifi-1-5)" />
    </g>
    <text
       id="text73"
       y="74.308762"
       x="38.185379"
       style="font-size:15px;font-family:sans-serif;text-anchor:middle;stroke-width:0.5">50%</text>
  </g>
</svg>
