<?xml version="1.0" encoding="UTF-8" standalone="no"?>
<svg
   xmlns:vfp="http://www.labcenter.com/namespaces/vfp"
   xmlns:dc="http://purl.org/dc/elements/1.1/"
   xmlns:cc="http://creativecommons.org/ns#"
   xmlns:rdf="http://www.w3.org/1999/02/22-rdf-syntax-ns#"
   xmlns:svg="http://www.w3.org/2000/svg"
   xmlns="http://www.w3.org/2000/svg"
   xmlns:xlink="http://www.w3.org/1999/xlink"
   xmlns:sodipodi="http://sodipodi.sourceforge.net/DTD/sodipodi-0.dtd"
   xmlns:inkscape="http://www.inkscape.org/namespaces/inkscape"
   viewBox="0 0 80.87 184.79"
   version="1.1"
   width="80"
   height="180"
   id="svg238"
   sodipodi:docname="nixitTube2_PDS.svg"
   inkscape:version="0.92.1 r15371"
   enable-background="new">
  <metadata
     id="metadata242">
    <rdf:RDF>
      <cc:Work
         rdf:about="">
        <dc:format>image/svg+xml</dc:format>
        <dc:type
           rdf:resource="http://purl.org/dc/dcmitype/StillImage" />
      </cc:Work>
    </rdf:RDF>
  </metadata>
  <sodipodi:namedview
     pagecolor="#ffffff"
     bordercolor="#666666"
     borderopacity="1"
     objecttolerance="10"
     gridtolerance="10"
     guidetolerance="10"
     inkscape:pageopacity="0"
     inkscape:pageshadow="2"
     inkscape:window-width="2560"
     inkscape:window-height="1417"
     id="namedview240"
     showgrid="false"
     inkscape:zoom="5.1085017"
     inkscape:cx="34.748454"
     inkscape:cy="85.798729"
     inkscape:window-x="1912"
     inkscape:window-y="-8"
     inkscape:window-maximized="1"
     inkscape:current-layer="g153" />
  <defs
     id="defs174">
    <linearGradient
       gradientUnits="userSpaceOnUse"
       y2="169.23"
       x2="80.83"
       y1="169.23"
       x1="0.07"
       id="linearGradient4877">
      <stop
         offset="0"
         stop-color="#e5e4e4"
         id="stop4875" />
      <stop
         offset="0.03"
         stop-color="#999"
         id="stop4873" />
      <stop
         offset="0.08"
         stop-color="#333"
         id="stop4871" />
      <stop
         offset="0.14"
         stop-color="#676766"
         id="stop4869" />
      <stop
         offset="0.29"
         stop-color="#d9d1d1"
         id="stop4867" />
      <stop
         offset="0.33"
         stop-color="#fff"
         id="stop4865" />
      <stop
         offset="0.51"
         stop-color="#393838"
         id="stop4863" />
      <stop
         offset="0.6"
         stop-color="#4d4c4c"
         id="stop4861" />
      <stop
         offset="0.65"
         stop-color="#909092"
         id="stop4859" />
      <stop
         offset="0.77"
         stop-color="#909092"
         id="stop4857" />
      <stop
         offset="0.82"
         stop-color="#fff"
         id="stop4855" />
      <stop
         offset="0.89"
         stop-color="#909092"
         id="stop4853" />
      <stop
         offset="0.98"
         stop-color="#e5e4e4"
         id="stop4851" />
    </linearGradient>
    <linearGradient
       id="linear-gradient"
       x1="-18.57"
       y1="165.89"
       x2="44.55"
       y2="165.94"
       gradientUnits="userSpaceOnUse">
      <stop
         offset="0"
         stop-color="#010101"
         id="stop7" />
      <stop
         offset="0.12"
         stop-color="#cfcfcf"
         id="stop9" />
      <stop
         offset="0.21"
         stop-color="#fff"
         id="stop11" />
      <stop
         offset="0.74"
         stop-color="#eaeaea"
         id="stop13" />
      <stop
         offset="0.92"
         stop-color="#b4b4b4"
         id="stop15" />
      <stop
         offset="1"
         stop-color="#010101"
         id="stop17" />
    </linearGradient>
    <linearGradient
       id="linear-gradient-2"
       x1="0.68"
       y1="89.73"
       x2="80.5"
       y2="89.73"
       gradientUnits="userSpaceOnUse">
      <stop
         offset="0.16"
         stop-color="#1d1d1d"
         id="stop20" />
      <stop
         offset="0.34"
         stop-color="#8f8f8f"
         id="stop22" />
      <stop
         offset="0.46"
         stop-color="#808181"
         id="stop24" />
      <stop
         offset="0.47"
         stop-color="#7e7f7f"
         id="stop26" />
      <stop
         offset="0.62"
         stop-color="#6a6a6a"
         id="stop28" />
      <stop
         offset="0.75"
         stop-color="#585858"
         id="stop30" />
      <stop
         offset="0.87"
         stop-color="#d8d8d8"
         id="stop32" />
      <stop
         offset="0.94"
         stop-color="#5f5f5f"
         id="stop34" />
      <stop
         offset="0.99"
         stop-color="#1d1d1d"
         id="stop36" />
    </linearGradient>
    <linearGradient
       id="Gold_02"
       data-name="Gold 02"
       x1="39.5"
       y1="156.41"
       x2="41.2"
       y2="156.41"
       gradientUnits="userSpaceOnUse">
      <stop
         offset="0"
         stop-color="#ba7812"
         id="stop39" />
      <stop
         offset="0.13"
         stop-color="#cc922e"
         id="stop41" />
      <stop
         offset="0.38"
         stop-color="#eac05e"
         id="stop43" />
      <stop
         offset="0.5"
         stop-color="#f6d170"
         id="stop45" />
      <stop
         offset="0.62"
         stop-color="#eac05e"
         id="stop47" />
      <stop
         offset="0.87"
         stop-color="#cc922e"
         id="stop49" />
      <stop
         offset="1"
         stop-color="#ba7812"
         id="stop51" />
    </linearGradient>
    <linearGradient
       id="Gold_02-2"
       x1="12.62"
       y1="157.05"
       x2="26.72"
       y2="157.05"
       xlink:href="#Gold_02" />
    <linearGradient
       id="Gold_02-3"
       x1="23.16"
       y1="155.95"
       x2="32.9"
       y2="155.95"
       xlink:href="#Gold_02" />
    <linearGradient
       id="Gold_02-4"
       x1="31.71"
       y1="156.07"
       x2="37.33"
       y2="156.07"
       xlink:href="#Gold_02" />
    <linearGradient
       id="Gold_02-5"
       x1="54.46"
       y1="157.42"
       x2="68.56"
       y2="157.42"
       xlink:href="#Gold_02" />
    <linearGradient
       id="Gold_02-6"
       x1="48.28"
       y1="156.32"
       x2="58.02"
       y2="156.32"
       xlink:href="#Gold_02" />
    <linearGradient
       id="Gold_02-7"
       x1="43.84"
       y1="156.44"
       x2="49.47"
       y2="156.44"
       xlink:href="#Gold_02" />
    <linearGradient
       id="Gold_17"
       data-name="Gold 17"
       x1="8.37"
       y1="92.31"
       x2="74.04"
       y2="92.31"
       gradientUnits="userSpaceOnUse">
      <stop
         offset="0"
         stop-color="#8e5714"
         id="stop60" />
      <stop
         offset="0.03"
         stop-color="#905b14"
         id="stop62" />
      <stop
         offset="0.06"
         stop-color="#9b6214"
         id="stop64" />
      <stop
         offset="0.28"
         stop-color="#f7a42e"
         id="stop66" />
      <stop
         offset="0.43"
         stop-color="#f7a42e"
         id="stop68" />
      <stop
         offset="0.58"
         stop-color="#b8731f"
         id="stop70" />
      <stop
         offset="0.63"
         stop-color="#ac6a1b"
         id="stop72" />
      <stop
         offset="0.75"
         stop-color="#704a14"
         id="stop74" />
      <stop
         offset="0.84"
         stop-color="#704a14"
         id="stop76" />
      <stop
         offset="0.98"
         stop-color="#815016"
         id="stop78" />
      <stop
         offset="1"
         stop-color="#8b5517"
         id="stop80" />
    </linearGradient>
    <radialGradient
       id="radial-gradient-2"
       cx="40.46"
       cy="89.73"
       r="69.12"
       gradientUnits="userSpaceOnUse">
      <stop
         offset="0.02"
         stop-color="#fff"
         id="stop83" />
      <stop
         offset="0.52"
         stop-color="#5a5959"
         id="stop85" />
      <stop
         offset="0.61"
         stop-color="#535252"
         id="stop87" />
      <stop
         offset="0.73"
         stop-color="#403f3f"
         id="stop89" />
      <stop
         offset="0.88"
         stop-color="#202020"
         id="stop91" />
      <stop
         offset="1"
         stop-color="#010101"
         id="stop93" />
    </radialGradient>
    <linearGradient
       id="linear-gradient-3"
       x1="0"
       y1="153.04"
       x2="80.79"
       y2="153.04"
       xlink:href="#linear-gradient" />
    <linearGradient
       id="linear-gradient-4"
       x1="0"
       y1="32.42"
       x2="80.79"
       y2="32.42"
       xlink:href="#linear-gradient"
       gradientTransform="matrix(1,0,0,0.5050722,-0.22156086,20.763261)" />
    <linearGradient
       id="linear-gradient-5"
       x1="-11.245127"
       y1="78.563004"
       x2="62.478218"
       y2="77.779999"
       xlink:href="#linear-gradient"
       gradientTransform="matrix(1,0,0,0.93916733,0,9.4290639)" />
    <linearGradient
       id="linear-gradient-6"
       x1="-24.21"
       y1="-24.72"
       x2="-101.38"
       y2="-24.72"
       gradientTransform="translate(35.56 57.1) scale(0.55 1.3)"
       gradientUnits="userSpaceOnUse">
      <stop
         offset="0"
         stop-color="#fff"
         stop-opacity="0.95"
         id="stop99" />
      <stop
         offset="0.02"
         stop-color="#fff"
         stop-opacity="0.93"
         id="stop101" />
      <stop
         offset="0.05"
         stop-color="#fff"
         stop-opacity="0.88"
         id="stop103" />
      <stop
         offset="0.08"
         stop-color="#fff"
         stop-opacity="0.79"
         id="stop105" />
      <stop
         offset="0.11"
         stop-color="#fff"
         stop-opacity="0.67"
         id="stop107" />
      <stop
         offset="0.11"
         stop-color="#fff"
         stop-opacity="0.65"
         id="stop109" />
      <stop
         offset="0.12"
         stop-color="#fff"
         stop-opacity="0.63"
         id="stop111" />
      <stop
         offset="0.14"
         stop-color="#fff"
         stop-opacity="0.44"
         id="stop113" />
      <stop
         offset="0.17"
         stop-color="#fff"
         stop-opacity="0.28"
         id="stop115" />
      <stop
         offset="0.19"
         stop-color="#fff"
         stop-opacity="0.16"
         id="stop117" />
      <stop
         offset="0.22"
         stop-color="#fff"
         stop-opacity="0.07"
         id="stop119" />
      <stop
         offset="0.24"
         stop-color="#fff"
         stop-opacity="0.02"
         id="stop121" />
      <stop
         offset="0.26"
         stop-color="#fff"
         stop-opacity="0"
         id="stop123" />
    </linearGradient>
    <linearGradient
       id="linear-gradient-7"
       x1="0.65"
       y1="89.22"
       x2="42.12"
       y2="89.22"
       gradientUnits="userSpaceOnUse">
      <stop
         offset="0.02"
         stop-color="#f0f0f0"
         id="stop126" />
      <stop
         offset="0.15"
         stop-color="#f0f0f0"
         stop-opacity="0.98"
         id="stop128" />
      <stop
         offset="0.27"
         stop-color="#eee"
         stop-opacity="0.93"
         id="stop130" />
      <stop
         offset="0.4"
         stop-color="#ececec"
         stop-opacity="0.85"
         id="stop132" />
      <stop
         offset="0.53"
         stop-color="#e8e8e8"
         stop-opacity="0.73"
         id="stop134" />
      <stop
         offset="0.65"
         stop-color="#e4e4e4"
         stop-opacity="0.58"
         id="stop136" />
      <stop
         offset="0.78"
         stop-color="#dedede"
         stop-opacity="0.39"
         id="stop138" />
      <stop
         offset="0.91"
         stop-color="#d8d8d8"
         stop-opacity="0.18"
         id="stop140" />
      <stop
         offset="1"
         stop-color="#d3d3d3"
         stop-opacity="0"
         id="stop142" />
    </linearGradient>
    <linearGradient
       id="linear-gradient-8"
       x1="47.37"
       y1="20.69"
       x2="226.79"
       y2="19.13"
       xlink:href="#linear-gradient-6"
       gradientTransform="translate(0,9.0045972)" />
    <linearGradient
       id="linear-gradient-9"
       x1="8.09"
       y1="156.41"
       x2="357.52"
       y2="153.37"
       xlink:href="#linear-gradient-6" />
    <linearGradient
       id="linear-gradient-10"
       x1="0.07"
       y1="169.23"
       x2="80.83"
       y2="169.23"
       gradientUnits="userSpaceOnUse">
      <stop
         offset="0.02"
         stop-color="#e5e4e4"
         id="stop147" />
      <stop
         offset="0.11"
         stop-color="#909092"
         id="stop149" />
      <stop
         offset="0.18"
         stop-color="#fff"
         id="stop151" />
      <stop
         offset="0.23"
         stop-color="#909092"
         id="stop153" />
      <stop
         offset="0.35"
         stop-color="#909092"
         id="stop155" />
      <stop
         offset="0.4"
         stop-color="#4d4c4c"
         id="stop157" />
      <stop
         offset="0.49"
         stop-color="#393838"
         id="stop159" />
      <stop
         offset="0.67"
         stop-color="#fff"
         id="stop161" />
      <stop
         offset="0.71"
         stop-color="#d9d1d1"
         id="stop163" />
      <stop
         offset="0.86"
         stop-color="#676766"
         id="stop165" />
      <stop
         offset="0.92"
         stop-color="#333"
         id="stop167" />
      <stop
         offset="0.97"
         stop-color="#999"
         id="stop169" />
      <stop
         offset="1"
         stop-color="#e5e4e4"
         id="stop171" />
    </linearGradient>
    <linearGradient
       inkscape:collect="always"
       xlink:href="#linear-gradient"
       id="linearGradient4719"
       gradientUnits="userSpaceOnUse"
       x1="-18.57"
       y1="165.89"
       x2="44.55"
       y2="165.94" />
    <linearGradient
       inkscape:collect="always"
       xlink:href="#Gold_02"
       id="linearGradient4721"
       gradientUnits="userSpaceOnUse"
       x1="39.5"
       y1="156.41"
       x2="41.2"
       y2="156.41" />
    <linearGradient
       inkscape:collect="always"
       xlink:href="#linear-gradient-6"
       id="linearGradient4723"
       gradientUnits="userSpaceOnUse"
       gradientTransform="matrix(0.55,0,0,1.3,14.672066,57.750538)"
       x1="-24.21"
       y1="-24.72"
       x2="-101.38"
       y2="-24.72" />
    <filter
       inkscape:collect="always"
       style="color-interpolation-filters:sRGB"
       id="filter4809"
       x="-0.048937545"
       width="1.0978751"
       y="-0.015898472"
       height="1.0317969">
      <feGaussianBlur
         inkscape:collect="always"
         stdDeviation="0.84560001"
         id="feGaussianBlur4811" />
    </filter>
    <filter
       inkscape:collect="always"
       style="color-interpolation-filters:sRGB"
       id="filter4829"
       x="-0.036"
       width="1.072"
       y="-0.036"
       height="1.072">
      <feGaussianBlur
         inkscape:collect="always"
         stdDeviation="0.26353605"
         id="feGaussianBlur4831" />
    </filter>
    <linearGradient
       inkscape:collect="always"
       xlink:href="#linearGradient4877"
       id="linearGradient4849"
       gradientUnits="userSpaceOnUse"
       x1="0.07"
       y1="169.23"
       x2="80.83"
       y2="169.23"
       gradientTransform="matrix(1,0,0,-1,0,333.08)" />
    <filter
       inkscape:collect="always"
       style="color-interpolation-filters:sRGB"
       id="filter4902">
      <feBlend
         inkscape:collect="always"
         mode="screen"
         in2="BackgroundImage"
         id="feBlend4904" />
    </filter>
    <linearGradient
       inkscape:collect="always"
       xlink:href="#linear-gradient-7"
       id="linearGradient4663"
       gradientUnits="userSpaceOnUse"
       x1="0.65"
       y1="89.22"
       x2="42.12"
       y2="89.22" />
  </defs>
  <vfp:catalogue
     DESC="Nixie Tube 7 Segment Display"
     CATEGORY="Display Controls"
     ELEMENTS="1,2,4,6,8,10"
     PREFIX="Display" />
  <g
     inkscape:label="Control"
     inkscape:groupmode="layer"
     id="root"
     vfp:class="SegmentedDisplay">
    <vfp:property
       NAME="elements"
       TYPE="INTEGER"
       VALUE="1" />
    <g
       class="element"
       id="g153">
      <rect
         style="opacity:0;stroke-width:0.85981363"
         id="rect4632"
         width="87.305435"
         height="180.87497"
         x="-3.3277862"
         y="6.8513231"
         class="bounds digitFace" />
      <path
         style="display:inline;fill:url(#linearGradient4849)"
         inkscape:connector-curvature="0"
         id="path4847"
         d="m 80.83,153.67 c 0,-7.17 -80.76,-7.17 -80.76,0 v 25.74 c 0,-6 80.76,-6 80.76,0 z" />
      <rect
         transform="matrix(-0.96538342,0,0,0.98193126,78.900344,10.336395)"
         x="0.85471916"
         y="21.870007"
         width="41.265285"
         height="131.17"
         rx="0"
         ry="12.31854"
         id="rect4661"
         style="opacity:0.20700001;fill:url(#linearGradient4663);filter:url(#filter4809)" />
      <path
         d="m 0.68,152.86 v 0 0 0.14 0 a 1.11,1.11 0 0 0 0,0.12 c -0.16,3.33 4.65,7.52 8.41,9.37 1.68,1 8.7,0.87 12,8.3 a 22.74,22.74 0 0 1 1.52,8.21 h 36 a 22.74,22.74 0 0 1 1.49,-8.21 c 3.34,-7.43 10,-7.55 12.58,-8.31 4.87,-2.26 7.86,-6.22 7.86,-9.25 0,-0.08 0,-0.15 0,-0.22 v 0 C 80.49,160 0.67,159.86 0.68,152.86 Z"
         style="display:inline;mix-blend-mode:screen;fill:url(#linearGradient4719)"
         id="path180"
         inkscape:connector-curvature="0" />
      <path
         d="m 80.5,30.4 v 0 A 15.42,15.42 0 0 0 75.95,19.73 22.92,22.92 0 0 0 73,17.18 q -1,-0.79 -2.2,-1.51 a 45.12,45.12 0 0 0 -12.6,-5 L 56.61,10.3 Q 55,10 53.34,9.71 C 51.23,9.36 49.06,9.1 46.87,8.93 L 46.79,8.8 h 0.31 c -6.51,-11.07 -6.51,-11.07 -13,0 h 0.31 L 34.33,8.93 C 32.14,9.1 29.97,9.36 27.86,9.71 Q 26.2,9.98 24.59,10.33 L 23,10.71 a 45.12,45.12 0 0 0 -12.6,5 Q 9.22,16.43 8.15,17.22 A 22.92,22.92 0 0 0 5.25,19.76 15.42,15.42 0 0 0 0.69,30.4 v 0 0.2 0 0.53 0 121.75 0 0.12 0 a 1.11,1.11 0 0 0 0,0.12 c -0.16,3.33 4.65,7.52 8.41,9.37 1.68,1 8.7,0.87 12,8.3 a 22.74,22.74 0 0 1 1.51,8.21 h 36 a 22.74,22.74 0 0 1 1.49,-8.21 c 3.34,-7.43 10,-7.55 12.58,-8.31 4.87,-2.26 7.86,-6.22 7.86,-9.25 0,-0.08 0,-0.15 0,-0.22 v 0 z m -40,127.42 z"
         style="opacity:0.21000001;mix-blend-mode:multiply;fill:url(#linear-gradient-2)"
         id="path182"
         inkscape:connector-curvature="0"
         transform="matrix(1.0073397,0,0,0.94929172,-0.29808604,9.6405595)" />
      <ellipse
         cx="40.400002"
         cy="153.03999"
         rx="39.900002"
         ry="4.8200002"
         stroke-miterlimit="10"
         style="mix-blend-mode:screen;fill:none;stroke:url(#linear-gradient-3);stroke-miterlimit:10"
         id="ellipse212" />
      <g
         id="g4659">
        <path
           style="fill:none;stroke:url(#Gold_02-2);stroke-width:1.70000005;stroke-miterlimit:10"
           inkscape:connector-curvature="0"
           id="path186"
           stroke-miterlimit="10"
           d="m 13.09,137.17 a 29,29 0 0 1 11.13,14 c 4.77,13 -2.27,24.57 -3.21,26" />
        <path
           style="fill:none;stroke:url(#Gold_02-3);stroke-width:1.70000005;stroke-miterlimit:10"
           inkscape:connector-curvature="0"
           id="path188"
           stroke-miterlimit="10"
           d="m 23.85,134.91 a 43.64,43.64 0 0 1 7,15.1 45.1,45.1 0 0 1 -2.08,27.17" />
        <path
           style="fill:none;stroke:url(#Gold_02-4);stroke-width:1.70000005;stroke-miterlimit:10"
           inkscape:connector-curvature="0"
           id="path190"
           stroke-miterlimit="10"
           d="m 32.53,135.09 a 110.05,110.05 0 0 1 3.59,20.19 110.06,110.06 0 0 1 -0.38,21.89" />
        <path
           style="fill:none;stroke:url(#Gold_02-5);stroke-width:1.70000005;stroke-miterlimit:10"
           inkscape:connector-curvature="0"
           id="path192"
           stroke-miterlimit="10"
           d="M 68.09,137.54 A 29,29 0 0 0 57,151.5 c -4.77,13 2.27,24.57 3.21,26" />
        <path
           style="fill:none;stroke:url(#Gold_02-6);stroke-width:1.70000005;stroke-miterlimit:10"
           inkscape:connector-curvature="0"
           id="path194"
           stroke-miterlimit="10"
           d="m 57.33,135.28 a 43.64,43.64 0 0 0 -7,15.1 45.1,45.1 0 0 0 2.08,27.17" />
        <path
           style="fill:none;stroke:url(#Gold_02-7);stroke-width:1.70000005;stroke-miterlimit:10"
           inkscape:connector-curvature="0"
           id="path196"
           stroke-miterlimit="10"
           d="m 48.65,135.46 a 110,110 0 0 0 -3.21,42.08" />
        <line
           x1="40.349998"
           y1="135.64999"
           x2="40.349998"
           y2="177.17"
           stroke-miterlimit="10"
           id="line184"
           style="fill:none;stroke:url(#linearGradient4721);stroke-width:1.70000005;stroke-miterlimit:10" />
      </g>
      <g
         id="g4649">
        <rect
           style="fill:#1e1e1c;stroke:url(#Gold_17);stroke-width:0.56999999"
           id="rect198"
           height="107.84"
           width="65.099998"
           y="38.389999"
           x="8.6599998" />
        <path
           class="segment"
           inkscape:connector-curvature="0"
           style="opacity:0.2;isolation:isolate;fill:#67b32e;stroke:#010101;stroke-width:0.34999999"
           d="M 23.67,49.29 27.3,45.85 H 58.69 L 62,49.29 58.37,52.73 H 27 Z"
           id="path13277" />
        <path
           class="segment"
           inkscape:connector-curvature="0"
           style="opacity:0.2;isolation:isolate;fill:#67b32e;stroke:#010101;stroke-width:0.34999999"
           d="m 63.71,51 3.35,3.44 -1.23,30.93 -3.63,3.44 -3.35,-3.44 1.23,-30.93 z"
           id="path13279" />
        <path
           class="segment"
           inkscape:connector-curvature="0"
           style="opacity:0.2;isolation:isolate;fill:#67b32e;stroke:#010101;stroke-width:0.34999999"
           d="m 62.07,92.24 3.35,3.44 -1.23,30.93 -3.63,3.39 -3.35,-3.44 1.23,-30.93 z"
           id="path13283" />
        <path
           class="segment"
           inkscape:connector-curvature="0"
           style="opacity:0.2;isolation:isolate;fill:#67b32e;stroke:#010101;stroke-width:0.34999999"
           d="m 58.74,131.77 -3.63,3.44 H 23.72 l -3.35,-3.44 3.63,-3.44 h 31.39 z"
           id="path13285" />
        <path
           class="segment"
           inkscape:connector-curvature="0"
           style="opacity:0.2;isolation:isolate;fill:#67b32e;stroke:#010101;stroke-width:0.34999999"
           d="m 18.7,130 -3.35,-3.44 1.23,-30.93 3.63,-3.44 3.35,3.44 -1.23,30.93 z"
           id="path13287" />
        <path
           class="segment"
           inkscape:connector-curvature="0"
           style="opacity:0.2;isolation:isolate;fill:#67b32e;stroke:#010101;stroke-width:0.34999999"
           d="M 20.34,88.81 17,85.37 18.23,54.44 21.85,51 25.2,54.44 24,85.37 Z"
           id="path13289" />
        <path
           class="segment"
           inkscape:connector-curvature="0"
           style="opacity:0.2;isolation:isolate;fill:#67b32e;stroke:#010101;stroke-width:0.34999999"
           d="m 22,90.53 3.63,-3.44 H 57 l 3.35,3.44 -3.58,3.47 h -31.4 z"
           id="path13291" />
        <path
           class="decpoint"
           inkscape:connector-curvature="0"
           style="opacity:0.2;isolation:isolate;fill:#67b32e;stroke:#010101;stroke-width:0.34999999"
           d="m 62.7,132.17 a 2.3,2.3 0 0 1 2.3,2.39 2.53,2.53 0 0 1 -2.49,2.44 2.3,2.3 0 0 1 -2.33,-2.39 2.53,2.53 0 0 1 2.52,-2.44 z"
           id="path13293" />
      </g>
      <path
         d="m 80.37,30.4 v 0 A 15.42,15.42 0 0 0 75.82,19.73 22.92,22.92 0 0 0 72.92,17.19 Q 71.86,16.4 70.67,15.68 a 45.12,45.12 0 0 0 -12.6,-5 L 56.48,10.31 Q 54.87,9.96 53.21,9.69 C 51.1,9.34 48.93,9.08 46.74,8.91 L 46.66,8.78 H 47 c -6.51,-11.07 -6.51,-11.07 -13,0 h 0.31 l -0.08,0.13 c -2.19,0.17 -4.36,0.43 -6.47,0.78 q -1.66,0.27 -3.27,0.62 l -1.59,0.37 a 45.12,45.12 0 0 0 -12.6,5 Q 9.07,16.39 8,17.18 A 22.92,22.92 0 0 0 5.1,19.72 15.42,15.42 0 0 0 0.56,30.4 v 0 0.2 0 0.53 0 121.75 0 0.12 0 a 1.11,1.11 0 0 0 0,0.12 c -0.16,3.33 4.65,7.52 8.41,9.37 1.68,1 8.7,0.87 12,8.3 a 22.74,22.74 0 0 1 1.51,8.21 h 36 a 22.74,22.74 0 0 1 1.49,-8.21 c 3.34,-7.43 10,-7.55 12.58,-8.31 4.87,-2.26 7.86,-6.22 7.86,-9.25 0,-0.08 0,-0.15 0,-0.22 v 0 z m -40,127.42 z"
         stroke-miterlimit="10"
         style="opacity:0.2;mix-blend-mode:screen;fill:url(#radial-gradient-2);stroke:#e1e1e1;stroke-miterlimit:10;filter:url(#filter4902)"
         id="path208"
         inkscape:connector-curvature="0"
         transform="matrix(1.0070526,0,0,0.95124599,-0.28551032,9.2689267)" />
      <path
         d="m 80.37,38.319861 v 0 A 15.42,14.598168 0 0 0 75.82,28.218535 22.92,21.698444 0 0 0 72.92,25.813908 Q 71.86,25.066012 70.67,24.384386 A 45.12,42.715261 0 0 0 58.07,19.650869 L 56.48,19.300588 Q 54.87,18.969242 53.21,18.713632 C 51.1,18.382286 48.93,18.136143 46.74,17.975203 L 46.66,17.852132 H 47 c -6.51,-10.4800077 -6.51,-10.4800077 -13,0 h 0.31 l -0.08,0.123071 c -2.19,0.16094 -4.36,0.407083 -6.47,0.738429 q -1.66,0.25561 -3.27,0.586956 L 22.9,19.650869 A 45.12,42.715261 0 0 0 10.3,24.384386 Q 9.07,25.056545 8,25.804441 A 22.92,21.698444 0 0 0 5.1,28.209068 15.42,14.598168 0 0 0 0.56,38.319861 v 0 0.189341 0 0.501753 0 115.261145 0 0.11361 0 a 1.11,1.0508409 0 0 0 0,0.1136 c -0.16,3.15253 4.65,7.11921 8.41,8.87062 1.68,0.9467 8.7,0.82363 12,7.85763 A 22.74,21.528037 0 0 1 22.48,179 h 36 a 22.74,21.528037 0 0 1 1.49,-7.77244 c 3.34,-7.034 10,-7.14761 12.58,-7.8671 4.87,-2.13955 7.86,-5.8885 7.86,-8.75701 0,-0.0757 0,-0.142 0,-0.20827 v 0 z m -40,120.628959 z"
         stroke-miterlimit="10"
         id="path210"
         inkscape:connector-curvature="0"
         style="opacity:0.4;fill:none;stroke:#9d9d9c;stroke-width:0.97298688;stroke-miterlimit:10;stroke-opacity:0.62608696" />
      <path
         d="m 0.27843914,36.637681 c 0,-1.424304 17.85999986,-1.580876 39.89999986,-1.580876 22.04,0 39.9,0.156572 39.9,1.580876 0,1.424304 -17.86,2.575868 -39.9,2.575868 -22.04,0 -39.89999986,-1.151564 -39.89999986,-2.575868 z"
         stroke-miterlimit="10"
         style="mix-blend-mode:screen;fill:none;stroke:url(#linear-gradient-4);stroke-width:0.7106843;stroke-miterlimit:10"
         id="path214"
         inkscape:connector-curvature="0" />
      <path
         style="display:inline;opacity:0.37000002;mix-blend-mode:screen;fill:url(#linear-gradient-5);stroke-width:0.96910644"
         inkscape:connector-curvature="0"
         id="path216"
         d="m 2.22,154.64312 v 0 -0.0845 0 -114.334229 0 -0.497759 0 -0.244184 0 a 15.42,14.48196 0 0 1 4.53,-9.973957 22.92,21.525715 0 0 1 2.9,-2.385485 q 1.06,-0.741942 2.25,-1.418142 c 3.55,-2.01921 6.24,-2.35731 11,-3.446744 0.53,-0.122092 3.65,-0.554109 4.19,-0.666809 q 1.61,-0.328709 3.27,-0.582284 a 43.31,40.675337 0 0 1 4.91,-0.610459 5.8,5.4471705 0 0 0 2.11,-1.577801 l 0.19,-0.300533 c 5.96,-5.334471 4.43,-5.832229 4.16,-7.954748 -2,-1.6059757 -3.07,-0.441408 -7.84,7.175239 H 34.2 L 34.13,17.8816 c -2.19,0.159658 -4.36,0.403842 -6.47,0.73255 Q 26,18.820737 24.4,19.187012 l -1.59,0.347492 a 45.12,42.37523 0 0 0 -12.6,4.695837 Q 9,24.868975 8,25.610917 A 22.92,21.525715 0 0 0 5.1,27.996402 15.42,14.48196 0 0 0 0.51,38.026709 v 0 0.187834 0 0.497758 0 114.343619 0 0.0658 0 c 0,0.68559 0.63,1.31483 1.76,1.87833 a 1.3,1.2209175 0 0 1 -0.05,-0.35688 z" />
      <ellipse
         style="fill:url(#linearGradient4723);filter:url(#filter4829)"
         id="ellipse220"
         transform="rotate(-45,9.6307073,4.8196755)"
         ry="4.5500002"
         rx="11.56"
         cy="25.540537"
         cx="-9.6579342" />
      <rect
         style="opacity:0.5;fill:url(#linear-gradient-7);filter:url(#filter4809)"
         id="rect224"
         ry="12.31854"
         rx="0"
         height="131.17"
         width="41.265285"
         y="21.870007"
         x="0.85471916"
         transform="matrix(0.96538342,0,0,0.98193126,1.3948683,11.315156)" />
      <path
         d="m 47.28,19.004597 a 81,81 0 0 1 20.17,5 19.47,19.47 0 0 1 4.25,2.19 c 6.86,4.78 9.09,13.44 8.21,13.94 -0.88,0.5 -3.41,-5.89 -10.12,-11.6 -7.63,-6.53 -16.4,-8.7 -22.51,-9.53 z"
         id="path228"
         inkscape:connector-curvature="0"
         style="fill:url(#linear-gradient-8)"
         inkscape:label="path228" />
      <path
         d="m 8.08,155.13 c 0,0.62 15.85,2.16 31.87,2.41 0.58,0 6.28,0 7.58,-0.17 18.65,-0.86 17.89,-0.54 24.09,-2.45 0,0 -14.56,0.58 -32,0.64 -22.37,0.06 -31.5,-0.92 -31.54,-0.43 z"
         id="path230"
         inkscape:connector-curvature="0"
         style="fill:url(#linear-gradient-9)" />
      <path
         d="m 80.83,179.41 c 0,7.17 -80.76,7.17 -80.76,0 v -25.74 c 0,6 80.76,6 80.76,0 z"
         id="path232"
         inkscape:connector-curvature="0"
         style="fill:url(#linear-gradient-10)" />
    </g>
  </g>
</svg>
