<?xml version="1.0" encoding="UTF-8" standalone="no"?>
<svg
	 xmlns:vfp="http://www.labcenter.com/namespaces/vfp"
   xmlns:vfp="http://www.labcenter.com/namespaces/vfp"
   xmlns:dc="http://purl.org/dc/elements/1.1/"
   xmlns:cc="http://creativecommons.org/ns#"
   xmlns:rdf="http://www.w3.org/1999/02/22-rdf-syntax-ns#"
   xmlns:svg="http://www.w3.org/2000/svg"
   xmlns="http://www.w3.org/2000/svg"
   xmlns:xlink="http://www.w3.org/1999/xlink"
   xmlns:sodipodi="http://sodipodi.sourceforge.net/DTD/sodipodi-0.dtd"
   xmlns:inkscape="http://www.inkscape.org/namespaces/inkscape"
   viewBox="0 0 66.095161 92.709999"
   version="1.1"
   id="svg4792"
   sodipodi:docname="ToggleSwitch1.svg"
   inkscape:version="0.92.1 r15371"
   width="66.095161"
   height="92.709999">
  <sodipodi:namedview
     pagecolor="#ffffff"
     bordercolor="#666666"
     borderopacity="1"
     objecttolerance="10"
     gridtolerance="10"
     guidetolerance="10"
     inkscape:pageopacity="0"
     inkscape:pageshadow="2"
     inkscape:window-width="1920"
     inkscape:window-height="1017"
     id="namedview4794"
     showgrid="false"
     inkscape:zoom="3.0550162"
     inkscape:cx="-136.62742"
     inkscape:cy="69.281478"
     inkscape:window-x="-8"
     inkscape:window-y="-8"
     inkscape:window-maximized="1"
     inkscape:current-layer="g326" />
  <defs
     id="defs194">
    <linearGradient
       inkscape:collect="always"
       id="ToggleSwitch1-1-9">
      <stop
         style="stop-color:#ffffff;stop-opacity:1;"
         offset="0"
         id="stop7961" />
      <stop
         style="stop-color:#ffffff;stop-opacity:0;"
         offset="1"
         id="stop7963" />
    </linearGradient>
    <linearGradient
       id="ToggleSwitch1-2-3"
       x1="23.15"
       y1="24.309999"
       x2="44.23"
       y2="75.230003"
       gradientUnits="userSpaceOnUse">
      <stop
         offset="0"
         stop-color="#504f4e"
         id="stop2-8" />
      <stop
         offset="0.22"
         stop-color="#4d4c4b"
         stop-opacity="0.95"
         id="stop4-4" />
      <stop
         offset="0.45"
         stop-color="#454443"
         stop-opacity="0.81"
         id="stop6-5" />
      <stop
         offset="0.69"
         stop-color="#383736"
         stop-opacity="0.57"
         id="stop8-2" />
      <stop
         offset="0.92"
         stop-color="#252523"
         stop-opacity="0.24"
         id="stop10-7" />
      <stop
         offset="1"
         stop-color="#1d1d1b"
         stop-opacity="0.1"
         id="stop12-0" />
    </linearGradient>
    <linearGradient
       xlink:href="#ToggleSwitch1--3-1"
       id="ToggleSwitch1-8"
       gradientUnits="userSpaceOnUse"
       x1="34.742546"
       y1="14.460333"
       x2="34.742546"
       y2="80.425331" />
    <linearGradient
       gradientUnits="userSpaceOnUse"
       y2="25.83"
       x2="114.25"
       y1="25.83"
       x1="62.599998"
       data-name="Steel 01"
       id="ToggleSwitch1--3-1">
      <stop
         id="stop4582"
         stop-color="#e5e1df"
         offset="0" />
      <stop
         id="stop4584"
         stop-color="#ded9d7"
         offset="0" />
      <stop
         id="stop4586"
         stop-color="#cfccca"
         offset="0.04" />
      <stop
         id="stop4588"
         stop-color="#a8a8a8"
         offset="0.11" />
      <stop
         id="stop4590"
         stop-color="#6a7072"
         offset="0.21" />
      <stop
         id="stop4592"
         stop-color="#465053"
         offset="0.26" />
      <stop
         id="stop4594"
         stop-color="#878d8f"
         offset="0.37" />
      <stop
         id="stop4596"
         stop-color="#b7babb"
         offset="0.46" />
      <stop
         id="stop4598"
         stop-color="#d5d6d6"
         offset="0.53" />
      <stop
         id="stop4600"
         stop-color="#e0e0e0"
         offset="0.57" />
      <stop
         id="stop4602"
         stop-color="#d6d7d8"
         offset="0.63" />
      <stop
         id="stop4604"
         stop-color="#bcbfc2"
         offset="0.73" />
      <stop
         id="stop4606"
         stop-color="#92989e"
         offset="0.86" />
      <stop
         id="stop4608"
         stop-color="#8b9298"
         offset="0.88" />
      <stop
         id="stop4610"
         stop-color="#d1d3d4"
         offset="1" />
      <stop
         id="stop4612"
         stop-color="#a7a9ab"
         offset="1" />
    </linearGradient>
    <radialGradient
       xlink:href="#ToggleSwitch1-4-8"
       id="ToggleSwitch1-9"
       gradientUnits="userSpaceOnUse"
       cx="32.900002"
       cy="47.419998"
       r="45.09" />
    <linearGradient
       gradientUnits="userSpaceOnUse"
       y2="86.089996"
       x2="114.25"
       y1="86.089996"
       x1="62.599998"
       data-name="GradientFill 16"
       id="ToggleSwitch1-4-8">
      <stop
         id="stop4808"
         stop-color="#3a4346"
         offset="0" />
      <stop
         id="stop4810"
         stop-color="#cedde6"
         offset="0.17" />
      <stop
         id="stop4812"
         stop-color="#63747e"
         offset="0.33" />
      <stop
         id="stop4814"
         stop-color="#fff"
         offset="0.47" />
      <stop
         id="stop4816"
         stop-color="#515453"
         offset="0.78" />
      <stop
         id="stop4818"
         stop-color="#4c5a60"
         offset="0.85" />
      <stop
         id="stop4820"
         stop-color="#fff"
         offset="0.96" />
      <stop
         id="stop4822"
         stop-color="#fff"
         offset="1" />
    </linearGradient>
    <linearGradient
       inkscape:collect="always"
       xlink:href="#ToggleSwitch1--3-1"
       id="ToggleSwitch1248"
       x1="57.901482"
       y1="75.774559"
       x2="57.901482"
       y2="19.206015"
       gradientUnits="userSpaceOnUse" />
    <linearGradient
       id="ToggleSwitch1-1-3"
       x1="32.900002"
       y1="70.779999"
       x2="32.900002"
       y2="22.870001"
       xlink:href="#ToggleSwitch1-5-3" />
    <linearGradient
       gradientUnits="userSpaceOnUse"
       y2="25.83"
       x2="51.650002"
       y1="25.83"
       data-name="Silver 03"
       id="ToggleSwitch1-5-3">
      <stop
         id="stop4557"
         stop-color="#e5e1df"
         offset="0" />
      <stop
         id="stop4559"
         stop-color="#ded9d7"
         offset="0" />
      <stop
         id="stop4561"
         stop-color="#cfcaca"
         offset="0.06" />
      <stop
         id="stop4563"
         stop-color="#a8a4a7"
         offset="0.18" />
      <stop
         id="stop4565"
         stop-color="#8b878d"
         offset="0.26" />
      <stop
         id="stop4567"
         stop-color="#f3f4f4"
         offset="0.52" />
      <stop
         id="stop4569"
         stop-color="#e5e5e6"
         offset="0.58" />
      <stop
         id="stop4571"
         stop-color="#c0bec0"
         offset="0.7" />
      <stop
         id="stop4573"
         stop-color="#858085"
         offset="0.86" />
      <stop
         id="stop4575"
         stop-color="#807b80"
         offset="0.88" />
      <stop
         id="stop4577"
         stop-color="#d1d3d4"
         offset="1" />
      <stop
         id="stop4579"
         stop-color="#a7a9ab"
         offset="1" />
    </linearGradient>
    <linearGradient
       inkscape:collect="always"
       xlink:href="#ToggleSwitch1--3-1"
       id="ToggleSwitch1246"
       gradientUnits="userSpaceOnUse"
       gradientTransform="scale(0.99999891,1.0000011)"
       x1="34.742584"
       y1="14.460317"
       x2="34.742584"
       y2="80.42524" />
    <radialGradient
       id="ToggleSwitch1-3-5"
       cx="32.900002"
       cy="47.419998"
       r="11.28"
       xlink:href="#ToggleSwitch1--3-1" />
    <radialGradient
       xlink:href="#ToggleSwitch1--3-1"
       id="ToggleSwitch1-10"
       gradientUnits="userSpaceOnUse"
       gradientTransform="matrix(0.96,0,0,1.13,4.36,-4.4)"
       cx="29.32"
       cy="43.389999"
       r="16.379999" />
    <linearGradient
       id="ToggleSwitch1-4"
       data-name="Gold 14"
       x1="23.809999"
       y1="50.91"
       x2="42"
       y2="50.91"
       xlink:href="#ToggleSwitch1-7-0" />
    <linearGradient
       gradientUnits="userSpaceOnUse"
       y2="25.83"
       x2="176.84"
       y1="25.83"
       x1="125.19"
       data-name="Chrome 05"
       id="ToggleSwitch1-7-0">
      <stop
         id="stop4615"
         stop-color="#bfc1c6"
         offset="0" />
      <stop
         id="stop4617"
         stop-color="#b8babe"
         offset="0.02" />
      <stop
         id="stop4619"
         stop-color="#a3a6a9"
         offset="0.05" />
      <stop
         id="stop4621"
         stop-color="#909395"
         offset="0.08" />
      <stop
         id="stop4623"
         stop-color="#a9abad"
         offset="0.08" />
      <stop
         id="stop4625"
         stop-color="#c4c5c6"
         offset="0.09" />
      <stop
         id="stop4627"
         stop-color="#dadbdb"
         offset="0.1" />
      <stop
         id="stop4629"
         stop-color="#ebebeb"
         offset="0.1" />
      <stop
         id="stop4631"
         stop-color="#f6f7f7"
         offset="0.11" />
      <stop
         id="stop4633"
         stop-color="#fdfdfd"
         offset="0.13" />
      <stop
         id="stop4635"
         stop-color="#fff"
         offset="0.16" />
      <stop
         id="stop4637"
         stop-color="#f2f2f3"
         offset="0.18" />
      <stop
         id="stop4639"
         stop-color="#d0d1d4"
         offset="0.2" />
      <stop
         id="stop4641"
         stop-color="#9a9ba2"
         offset="0.23" />
      <stop
         id="stop4643"
         stop-color="#6a6c75"
         offset="0.25" />
      <stop
         id="stop4645"
         stop-color="#6b6d76"
         offset="0.25" />
      <stop
         id="stop4647"
         stop-color="#7b7e85"
         offset="0.26" />
      <stop
         id="stop4649"
         stop-color="#87898f"
         offset="0.27" />
      <stop
         id="stop4651"
         stop-color="#8d9095"
         offset="0.29" />
      <stop
         id="stop4653"
         stop-color="#8f9297"
         offset="0.35" />
      <stop
         id="stop4655"
         stop-color="#8b8e93"
         offset="0.36" />
      <stop
         id="stop4657"
         stop-color="#808488"
         offset="0.38" />
      <stop
         id="stop4659"
         stop-color="#6e7276"
         offset="0.4" />
      <stop
         id="stop4661"
         stop-color="#54585c"
         offset="0.41" />
      <stop
         id="stop4663"
         stop-color="#4d5155"
         offset="0.42" />
      <stop
         id="stop4665"
         stop-color="#696c70"
         offset="0.44" />
      <stop
         id="stop4667"
         stop-color="#848589"
         offset="0.46" />
      <stop
         id="stop4669"
         stop-color="#9a9a9e"
         offset="0.49" />
      <stop
         id="stop4671"
         stop-color="#abaaae"
         offset="0.52" />
      <stop
         id="stop4673"
         stop-color="#b6b6ba"
         offset="0.55" />
      <stop
         id="stop4675"
         stop-color="#bdbcc0"
         offset="0.61" />
      <stop
         id="stop4677"
         stop-color="#bfbec2"
         offset="0.75" />
      <stop
         id="stop4679"
         stop-color="#bdbcc0"
         offset="0.8" />
      <stop
         id="stop4681"
         stop-color="#b6b6b9"
         offset="0.82" />
      <stop
         id="stop4683"
         stop-color="#abaaae"
         offset="0.83" />
      <stop
         id="stop4685"
         stop-color="#9a9a9d"
         offset="0.85" />
      <stop
         id="stop4687"
         stop-color="#858487"
         offset="0.85" />
      <stop
         id="stop4689"
         stop-color="#6a6a6b"
         offset="0.86" />
      <stop
         id="stop4691"
         stop-color="#4a4b4b"
         offset="0.87" />
      <stop
         id="stop4693"
         stop-color="#262727"
         offset="0.88" />
      <stop
         id="stop4695"
         stop-color="#1a1b1a"
         offset="0.88" />
      <stop
         id="stop4697"
         stop-color="#1a1b1a"
         offset="0.93" />
      <stop
         id="stop4699"
         stop-color="#3c3d3d"
         offset="0.93" />
      <stop
         id="stop4701"
         stop-color="#5d5f60"
         offset="0.94" />
      <stop
         id="stop4703"
         stop-color="#797c7d"
         offset="0.95" />
      <stop
         id="stop4705"
         stop-color="#8f9293"
         offset="0.96" />
      <stop
         id="stop4707"
         stop-color="#9ea1a3"
         offset="0.97" />
      <stop
         id="stop4709"
         stop-color="#a7aaac"
         offset="0.98" />
      <stop
         id="stop4711"
         stop-color="#aaadaf"
         offset="1" />
    </linearGradient>
    <linearGradient
       xlink:href="#ToggleSwitch1-8-3"
       id="ToggleSwitch1-11"
       gradientUnits="userSpaceOnUse"
       x1="30.049999"
       y1="43"
       x2="42"
       y2="65.459999" />
    <linearGradient
       id="ToggleSwitch1-8-3"
       data-name="GradientFill 201"
       x1="30.049999"
       y1="43"
       x2="42"
       y2="65.459999"
       gradientUnits="userSpaceOnUse">
      <stop
         offset="0"
         stop-color="#4d4d4c"
         id="stop132-76" />
      <stop
         offset="0.12"
         stop-color="#4a4a49"
         id="stop134-17" />
      <stop
         offset="0.26"
         stop-color="#7c7c7b"
         id="stop136-5" />
      <stop
         offset="0.44"
         stop-color="#909090"
         id="stop138-0" />
      <stop
         offset="0.59"
         stop-color="#b2b2b2"
         id="stop140-6" />
      <stop
         offset="0.68"
         stop-color="#cacaca"
         id="stop142-1" />
      <stop
         offset="0.77"
         stop-color="#a1a1a1"
         id="stop144-9" />
      <stop
         offset="0.81"
         stop-color="#bdbcbc"
         id="stop146-09" />
      <stop
         offset="0.86"
         stop-color="#c8c8c8"
         id="stop148-8" />
      <stop
         offset="1"
         stop-color="#e5e5e5"
         id="stop150-7" />
    </linearGradient>
    <linearGradient
       xlink:href="#ToggleSwitch1-9-8"
       id="ToggleSwitch1-12"
       gradientUnits="userSpaceOnUse"
       x1="21.389999"
       y1="61.549999"
       x2="44.419998"
       y2="61.549999" />
    <linearGradient
       id="ToggleSwitch1-9-8"
       data-name="GradientFill 652"
       x1="21.389999"
       y1="61.549999"
       x2="44.419998"
       y2="61.549999"
       gradientUnits="userSpaceOnUse">
      <stop
         offset="0"
         stop-color="#6b7683"
         id="stop153" />
      <stop
         offset="0.06"
         stop-color="#3d4b58"
         id="stop155-7" />
      <stop
         offset="0.16"
         stop-color="#344149"
         id="stop157-5" />
      <stop
         offset="0.3"
         stop-color="#313d46"
         id="stop159-6" />
      <stop
         offset="0.38"
         stop-color="#3d4b58"
         id="stop161-9" />
      <stop
         offset="0.55"
         stop-color="#3d4b58"
         id="stop163-4" />
      <stop
         offset="0.64"
         stop-color="#313d46"
         id="stop165-6" />
      <stop
         offset="0.82"
         stop-color="#344149"
         id="stop167-2" />
      <stop
         offset="0.91"
         stop-color="#37434b"
         id="stop169-7" />
      <stop
         offset="1"
         stop-color="#3d4b58"
         id="stop171-2" />
    </linearGradient>
    <linearGradient
       xlink:href="#ToggleSwitch1-10-5"
       id="ToggleSwitch1-13"
       gradientUnits="userSpaceOnUse"
       x1="32.900002"
       y1="70.25"
       x2="32.900002"
       y2="93.339996" />
    <linearGradient
       id="ToggleSwitch1-10-5"
       data-name="GradientFill 674"
       x1="32.900002"
       y1="70.25"
       x2="32.900002"
       y2="93.339996"
       gradientUnits="userSpaceOnUse">
      <stop
         offset="0"
         stop-color="#515f6e"
         id="stop195-3" />
      <stop
         offset="1"
         stop-color="#515f6e"
         id="stop197-1" />
    </linearGradient>
    <linearGradient
       xlink:href="#ToggleSwitch1-11-2"
       id="ToggleSwitch1-14"
       gradientUnits="userSpaceOnUse"
       x1="32.900002"
       y1="71.07"
       x2="32.900002"
       y2="89.790001" />
    <linearGradient
       id="ToggleSwitch1-11-2"
       x1="32.900002"
       y1="71.07"
       x2="32.900002"
       y2="89.790001"
       gradientUnits="userSpaceOnUse">
      <stop
         offset="0"
         stop-color="#1d272a"
         id="stop200" />
      <stop
         offset="1"
         stop-color="#26333b"
         stop-opacity="0"
         id="stop202" />
    </linearGradient>
    <radialGradient
       id="ToggleSwitch1-3-8"
       cx="29.18"
       cy="56.860001"
       r="16.379999"
       gradientTransform="matrix(0.96,0,0,-1.13,4.36,112.35)"
       xlink:href="#ToggleSwitch1--3-1" />
    <linearGradient
       id="ToggleSwitch1-4-3"
       data-name="Gold 14"
       x1="23.68"
       y1="66.150002"
       x2="41.869999"
       y2="66.150002"
       gradientTransform="matrix(1,0,0,-1,0,107.95)"
       xlink:href="#ToggleSwitch1-7-0" />
    <linearGradient
       id="ToggleSwitch1-5-2"
       x1="29.92"
       y1="58.240002"
       x2="41.860001"
       y2="80.699997"
       gradientTransform="matrix(1,0,0,-1,0,107.95)"
       xlink:href="#ToggleSwitch1-8-3" />
    <linearGradient
       id="ToggleSwitch1-6-2"
       x1="21.25"
       y1="76.790001"
       x2="44.290001"
       y2="76.790001"
       gradientTransform="matrix(1,0,0,-1,0,107.95)"
       xlink:href="#ToggleSwitch1-9-8" />
    <linearGradient
       id="ToggleSwitch1-7-2"
       x1="177.53"
       y1="129.08"
       x2="177.53"
       y2="152.17"
       gradientTransform="rotate(-180,105.15,75.975)"
       xlink:href="#ToggleSwitch1-10-5" />
    <linearGradient
       id="ToggleSwitch1-1-6"
       x1="177.53"
       y1="129.91"
       x2="177.53"
       y2="148.63"
       gradientTransform="rotate(-180,105.15,75.975)"
       xlink:href="#ToggleSwitch1-11-2" />
    <linearGradient
       inkscape:collect="always"
       xlink:href="#ToggleSwitch1--3-1"
       id="ToggleSwitch1957"
       gradientUnits="userSpaceOnUse"
       x1="34.742546"
       y1="14.460333"
       x2="34.742546"
       y2="80.425331" />
    <linearGradient
       inkscape:collect="always"
       xlink:href="#ToggleSwitch1--3-1"
       id="ToggleSwitch1959"
       gradientUnits="userSpaceOnUse"
       x1="57.901482"
       y1="75.774559"
       x2="57.901482"
       y2="19.206015" />
    <linearGradient
       inkscape:collect="always"
       xlink:href="#ToggleSwitch1-1-9"
       id="ToggleSwitch1967"
       x1="0"
       y1="46.453209"
       x2="66.095161"
       y2="46.453209"
       gradientUnits="userSpaceOnUse" />
  </defs>
  <metadata
     id="metadata4637">
    <rdf:RDF>
      <cc:Work
         rdf:about="">
        <dc:title></dc:title>
        <dc:format>image/svg+xml</dc:format>
        <dc:type
           rdf:resource="http://purl.org/dc/dcmitype/StillImage" />
      </cc:Work>
    </rdf:RDF>
  </metadata>
  <vfp:catalogue
     PREFIX="ToggleSwitch"
     CATEGORY="Switches"
     DESC="Toggle Switch 1" />
  <g
     vfp:class="ToggleSwitch"
     id="g4359"
     transform="translate(0,-0.09820965)">
    <g
       id="g139">
      <rect
         id="rect4158"
         width="66.095161"
         height="92.709999"
         x="0"
         y="0.098209649"
         style="display:inline;opacity:0;fill:url(#ToggleSwitch1967);fill-opacity:1"
         class="bounds" />
      <circle
         style="display:inline;fill:url(#ToggleSwitch1-2-3)"
         id="circle246"
         r="31.85"
         cy="49.560001"
         cx="33.599998" />
      <path
         style="display:inline;fill:#b2b2b2;fill-rule:evenodd"
         id="path248"
         d="m 34.45,15.65 1.1,0.07 a 0.16,0.16 0 0 0 0.17,-0.14 V 15.3 a 0.48,0.48 0 0 1 0.54,-0.41 l 1.8,0.23 a 0.48,0.48 0 0 1 0.42,0.54 v 0.28 a 0.16,0.16 0 0 0 0.13,0.18 l 1.08,0.21 a 0.16,0.16 0 0 0 0.19,-0.11 l 0.07,-0.27 a 0.49,0.49 0 0 1 0.59,-0.34 l 1.75,0.46 a 0.48,0.48 0 0 1 0.34,0.59 l -0.07,0.27 a 0.16,0.16 0 0 0 0.11,0.19 l 1,0.35 a 0.16,0.16 0 0 0 0.2,-0.09 l 0.11,-0.26 a 0.49,0.49 0 0 1 0.63,-0.26 l 1.67,0.69 a 0.48,0.48 0 0 1 0.26,0.63 l -0.11,0.26 a 0.16,0.16 0 0 0 0.08,0.21 l 1,0.48 a 0.16,0.16 0 0 0 0.21,-0.06 l 0.14,-0.24 a 0.49,0.49 0 0 1 0.66,-0.18 l 1.57,0.9 a 0.48,0.48 0 0 1 0.18,0.66 l -0.14,0.25 a 0.16,0.16 0 0 0 0.05,0.21 l 0.92,0.61 a 0.16,0.16 0 0 0 0.22,0 l 0.17,-0.22 a 0.49,0.49 0 0 1 0.68,-0.09 L 53.65,22 a 0.48,0.48 0 0 1 0.09,0.67 l -0.18,0.23 a 0.16,0.16 0 0 0 0,0.22 l 0.83,0.72 a 0.16,0.16 0 0 0 0.22,0 l 0.2,-0.2 a 0.49,0.49 0 0 1 0.69,0 l 1.28,1.27 a 0.48,0.48 0 0 1 0,0.68 l -0.21,0.2 a 0.16,0.16 0 0 0 0,0.22 l 0.73,0.82 a 0.16,0.16 0 0 0 0.22,0 l 0.23,-0.17 a 0.49,0.49 0 0 1 0.68,0.09 l 1.1,1.42 a 0.48,0.48 0 0 1 -0.09,0.67 l -0.23,0.17 a 0.16,0.16 0 0 0 0,0.22 q 0.31,0.45 0.61,0.91 a 0.16,0.16 0 0 0 0.22,0.05 l 0.25,-0.14 a 0.49,0.49 0 0 1 0.66,0.18 l 0.91,1.55 a 0.48,0.48 0 0 1 -0.18,0.66 l -0.25,0.14 a 0.16,0.16 0 0 0 -0.06,0.21 q 0.25,0.49 0.49,1 a 0.16,0.16 0 0 0 0.21,0.08 l 0.26,-0.11 A 0.49,0.49 0 0 1 63,34 l 0.69,1.66 a 0.48,0.48 0 0 1 -0.26,0.63 l -0.26,0.11 a 0.16,0.16 0 0 0 -0.09,0.2 q 0.19,0.51 0.35,1 a 0.16,0.16 0 0 0 0.2,0.11 l 0.27,-0.07 a 0.48,0.48 0 0 1 0.37,0 0.47,0.47 0 0 1 0.23,0.29 l 0.47,1.73 a 0.48,0.48 0 0 1 -0.34,0.59 l -0.27,0.07 a 0.16,0.16 0 0 0 -0.12,0.19 q 0.12,0.53 0.21,1.07 a 0.16,0.16 0 0 0 0.18,0.13 h 0.28 a 0.48,0.48 0 0 1 0.54,0.41 l 0.2,1.88 a 0.48,0.48 0 0 1 -0.42,0.54 h -0.29 a 0.16,0.16 0 0 0 -0.14,0.17 q 0,0.54 0.07,1.09 A 0.16,0.16 0 0 0 65,46 h 0.29 a 0.48,0.48 0 0 1 0.48,0.48 v 1.8 a 0.48,0.48 0 0 1 -0.48,0.48 H 65 a 0.16,0.16 0 0 0 -0.16,0.15 q 0,0.54 -0.07,1.09 a 0.16,0.16 0 0 0 0.14,0.17 h 0.29 a 0.48,0.48 0 0 1 0.42,0.54 l -0.24,1.78 a 0.48,0.48 0 0 1 -0.54,0.41 h -0.28 a 0.16,0.16 0 0 0 -0.18,0.13 q -0.1,0.54 -0.21,1.07 a 0.16,0.16 0 0 0 0.12,0.19 l 0.27,0.07 a 0.48,0.48 0 0 1 0.34,0.59 l -0.47,1.73 a 0.49,0.49 0 0 1 -0.59,0.34 l -0.27,-0.07 a 0.16,0.16 0 0 0 -0.2,0.11 q -0.17,0.52 -0.35,1 a 0.16,0.16 0 0 0 0.09,0.2 l 0.26,0.11 A 0.48,0.48 0 0 1 63.63,59 L 63,60.63 a 0.49,0.49 0 0 1 -0.63,0.26 l -0.26,-0.11 a 0.16,0.16 0 0 0 -0.21,0.08 q -0.24,0.49 -0.49,1 a 0.16,0.16 0 0 0 0.06,0.21 l 0.25,0.14 a 0.48,0.48 0 0 1 0.18,0.66 l -0.91,1.55 A 0.49,0.49 0 0 1 60.33,64.6 L 60,64.44 a 0.16,0.16 0 0 0 -0.22,0.05 q -0.3,0.46 -0.61,0.91 a 0.16,0.16 0 0 0 0,0.22 l 0.23,0.17 a 0.48,0.48 0 0 1 0.09,0.67 l -1.1,1.42 a 0.49,0.49 0 0 1 -0.68,0.09 L 57.48,67.8 a 0.16,0.16 0 0 0 -0.22,0 l -0.73,0.82 a 0.16,0.16 0 0 0 0,0.22 l 0.2,0.2 a 0.48,0.48 0 0 1 0,0.68 L 55.53,71 a 0.49,0.49 0 0 1 -0.68,0 l -0.21,-0.2 a 0.16,0.16 0 0 0 -0.22,0 l -0.83,0.72 a 0.16,0.16 0 0 0 0,0.22 l 0.18,0.23 a 0.48,0.48 0 0 1 -0.09,0.67 l -1.44,1.09 a 0.49,0.49 0 0 1 -0.68,-0.09 l -0.17,-0.22 a 0.16,0.16 0 0 0 -0.22,0 l -0.92,0.61 a 0.16,0.16 0 0 0 -0.05,0.21 l 0.14,0.24 a 0.48,0.48 0 0 1 -0.18,0.66 l -1.57,0.9 a 0.49,0.49 0 0 1 -0.66,-0.18 l -0.14,-0.24 a 0.16,0.16 0 0 0 -0.21,-0.06 l -1,0.48 a 0.16,0.16 0 0 0 -0.08,0.21 l 0.11,0.26 a 0.48,0.48 0 0 1 -0.26,0.63 l -1.67,0.69 a 0.49,0.49 0 0 1 -0.63,-0.26 l -0.11,-0.26 a 0.16,0.16 0 0 0 -0.2,-0.09 l -1,0.35 a 0.16,0.16 0 0 0 -0.11,0.19 l 0.07,0.27 a 0.48,0.48 0 0 1 -0.34,0.59 l -1.75,0.47 a 0.49,0.49 0 0 1 -0.59,-0.34 l -0.07,-0.27 a 0.16,0.16 0 0 0 -0.19,-0.12 l -1.08,0.21 a 0.16,0.16 0 0 0 -0.13,0.18 v 0.28 a 0.48,0.48 0 0 1 -0.42,0.54 l -1.8,0.23 a 0.48,0.48 0 0 1 -0.54,-0.41 v -0.28 a 0.16,0.16 0 0 0 -0.17,-0.14 l -1.1,0.07 a 0.16,0.16 0 0 0 -0.15,0.16 v 0.29 a 0.48,0.48 0 0 1 -0.48,0.48 H 32 A 0.48,0.48 0 0 1 31.51,79.49 V 79.2 a 0.16,0.16 0 0 0 -0.15,-0.16 l -1.1,-0.07 a 0.16,0.16 0 0 0 -0.17,0.14 v 0.28 a 0.48,0.48 0 0 1 -0.54,0.41 l -1.8,-0.23 A 0.48,0.48 0 0 1 27.33,79.03 V 78.75 A 0.16,0.16 0 0 0 27.2,78.57 l -1.08,-0.21 a 0.16,0.16 0 0 0 -0.19,0.12 l -0.07,0.27 a 0.49,0.49 0 0 1 -0.59,0.34 l -1.75,-0.46 a 0.48,0.48 0 0 1 -0.34,-0.59 l 0.07,-0.27 a 0.16,0.16 0 0 0 -0.11,-0.19 l -1,-0.35 a 0.16,0.16 0 0 0 -0.2,0.09 l -0.11,0.26 a 0.49,0.49 0 0 1 -0.63,0.26 l -1.67,-0.69 a 0.48,0.48 0 0 1 -0.26,-0.63 l 0.11,-0.26 A 0.16,0.16 0 0 0 19.3,76.05 l -1,-0.48 a 0.16,0.16 0 0 0 -0.21,0.06 l -0.14,0.24 a 0.49,0.49 0 0 1 -0.66,0.18 l -1.57,-0.9 a 0.48,0.48 0 0 1 -0.18,-0.66 l 0.14,-0.24 a 0.16,0.16 0 0 0 -0.05,-0.21 l -0.92,-0.61 a 0.16,0.16 0 0 0 -0.22,0 l -0.17,0.22 a 0.49,0.49 0 0 1 -0.68,0.09 L 12.2,72.65 a 0.48,0.48 0 0 1 -0.09,-0.67 l 0.18,-0.23 a 0.16,0.16 0 0 0 0,-0.22 l -0.83,-0.72 a 0.16,0.16 0 0 0 -0.22,0 L 11,71 a 0.49,0.49 0 0 1 -0.68,0 L 9,69.75 a 0.48,0.48 0 0 1 0,-0.68 l 0.21,-0.2 a 0.16,0.16 0 0 0 0,-0.22 L 8.48,67.83 a 0.16,0.16 0 0 0 -0.22,0 L 8,68 A 0.49,0.49 0 0 1 7.32,67.91 l -1.1,-1.42 a 0.48,0.48 0 0 1 0.09,-0.67 l 0.22,-0.17 a 0.16,0.16 0 0 0 0,-0.22 Q 6.22,64.98 5.92,64.53 A 0.16,0.16 0 0 0 5.7,64.48 L 5.45,64.62 A 0.49,0.49 0 0 1 4.79,64.44 L 4,62.85 A 0.48,0.48 0 0 1 4.18,62.2 L 4.43,62.06 A 0.16,0.16 0 0 0 4.49,61.85 Q 4.24,61.36 4,60.85 A 0.16,0.16 0 0 0 3.79,60.77 L 3.53,60.88 A 0.49,0.49 0 0 1 2.9,60.62 L 2.16,59 a 0.48,0.48 0 0 1 0.26,-0.63 l 0.26,-0.11 a 0.16,0.16 0 0 0 0.09,-0.2 q -0.19,-0.51 -0.35,-1 A 0.16,0.16 0 0 0 2.22,56.95 L 1.95,57 A 0.49,0.49 0 0 1 1.36,56.66 L 0.89,54.9 A 0.48,0.48 0 0 1 1.23,54.31 L 1.5,54.24 A 0.16,0.16 0 0 0 1.62,54.05 Q 1.5,53.52 1.4,53 A 0.16,0.16 0 0 0 1.22,52.87 H 0.94 A 0.49,0.49 0 0 1 0.4,52.46 L 0.16,50.69 A 0.48,0.48 0 0 1 0.58,50.15 H 0.87 A 0.16,0.16 0 0 0 1,49.95 Q 1,49.41 0.93,48.86 A 0.16,0.16 0 0 0 0.77,48.71 H 0.48 A 0.48,0.48 0 0 1 0,48.23 v -1.8 A 0.48,0.48 0 0 1 0.48,46 H 0.77 A 0.16,0.16 0 0 0 0.93,45.85 Q 0.93,45.3 1,44.76 A 0.16,0.16 0 0 0 0.86,44.59 H 0.57 A 0.48,0.48 0 0 1 0.16,44 L 0.4,42.18 A 0.48,0.48 0 0 1 0.94,41.77 H 1.22 A 0.16,0.16 0 0 0 1.4,41.64 Q 1.5,41.1 1.61,40.57 A 0.16,0.16 0 0 0 1.49,40.38 L 1.22,40.31 A 0.48,0.48 0 0 1 0.88,39.72 L 1.36,38 a 0.49,0.49 0 0 1 0.59,-0.34 l 0.27,0.07 a 0.16,0.16 0 0 0 0.2,-0.11 q 0.17,-0.52 0.35,-1 A 0.16,0.16 0 0 0 2.68,36.42 L 2.42,36.31 A 0.48,0.48 0 0 1 2.16,35.68 L 2.85,34 a 0.49,0.49 0 0 1 0.63,-0.26 l 0.26,0.11 A 0.16,0.16 0 0 0 4,33.79 q 0.24,-0.49 0.49,-1 A 0.16,0.16 0 0 0 4.43,32.58 L 4.18,32.44 A 0.48,0.48 0 0 1 4,31.81 l 0.91,-1.55 a 0.49,0.49 0 0 1 0.66,-0.18 l 0.25,0.14 A 0.16,0.16 0 0 0 6,30.17 q 0.3,-0.46 0.61,-0.91 a 0.16,0.16 0 0 0 0,-0.22 L 6.38,28.87 A 0.48,0.48 0 0 1 6.29,28.2 l 1.1,-1.42 A 0.49,0.49 0 0 1 8,26.68 l 0.23,0.17 a 0.16,0.16 0 0 0 0.22,0 L 9.21,26 a 0.16,0.16 0 0 0 0,-0.22 L 9,25.59 a 0.48,0.48 0 0 1 0,-0.68 l 1.28,-1.27 a 0.49,0.49 0 0 1 0.69,0 l 0.21,0.2 a 0.16,0.16 0 0 0 0.22,0 l 0.83,-0.72 a 0.16,0.16 0 0 0 0,-0.22 L 12.05,22.67 A 0.48,0.48 0 0 1 12.14,22 l 1.44,-1.09 A 0.49,0.49 0 0 1 14.26,21 l 0.17,0.22 a 0.16,0.16 0 0 0 0.22,0 l 0.92,-0.61 a 0.16,0.16 0 0 0 0.05,-0.21 l -0.14,-0.24 a 0.48,0.48 0 0 1 0.18,-0.66 l 1.57,-0.9 a 0.49,0.49 0 0 1 0.66,0.18 l 0.14,0.24 a 0.16,0.16 0 0 0 0.21,0.06 l 1,-0.48 a 0.16,0.16 0 0 0 0.08,-0.21 l -0.11,-0.26 a 0.48,0.48 0 0 1 0.26,-0.63 l 1.67,-0.69 a 0.49,0.49 0 0 1 0.63,0.26 l 0.11,0.26 a 0.16,0.16 0 0 0 0.2,0.09 l 1,-0.35 a 0.16,0.16 0 0 0 0.11,-0.19 l -0.07,-0.27 a 0.48,0.48 0 0 1 0.34,-0.59 l 1.75,-0.46 a 0.49,0.49 0 0 1 0.59,0.34 l 0.07,0.27 a 0.16,0.16 0 0 0 0.19,0.11 l 1.08,-0.21 a 0.16,0.16 0 0 0 0.13,-0.18 v -0.28 a 0.48,0.48 0 0 1 0.42,-0.54 l 1.8,-0.23 a 0.48,0.48 0 0 1 0.54,0.41 v 0.28 a 0.16,0.16 0 0 0 0.17,0.14 l 1.1,-0.07 a 0.16,0.16 0 0 0 0.15,-0.16 v -0.29 a 0.48,0.48 0 0 1 0.48,-0.48 h 1.81 a 0.48,0.48 0 0 1 0.48,0.48 v 0.29 a 0.16,0.16 0 0 0 0.23,0.21 z"
         inkscape:connector-curvature="0" />
      <path
         style="display:inline;fill:url(#ToggleSwitch1957);fill-opacity:1;fill-rule:evenodd"
         id="path250"
         d="m 34.44,15.61 1.09,0.07 a 0.32,0.32 0 0 0 0.35,-0.28 v -0.29 a 0.32,0.32 0 0 1 0.36,-0.28 l 1.8,0.24 a 0.32,0.32 0 0 1 0.28,0.36 v 0.28 a 0.32,0.32 0 0 0 0.26,0.36 l 1.08,0.21 a 0.32,0.32 0 0 0 0.38,-0.23 l 0.07,-0.27 a 0.32,0.32 0 0 1 0.4,-0.23 l 1.75,0.47 a 0.32,0.32 0 0 1 0.23,0.4 l -0.07,0.27 a 0.32,0.32 0 0 0 0.21,0.39 l 1,0.35 a 0.32,0.32 0 0 0 0.41,-0.18 l 0.11,-0.26 a 0.32,0.32 0 0 1 0.42,-0.17 l 1.67,0.69 a 0.32,0.32 0 0 1 0.18,0.42 l -0.11,0.26 a 0.32,0.32 0 0 0 0.16,0.42 l 1,0.49 a 0.32,0.32 0 0 0 0.43,-0.13 l 0.14,-0.25 a 0.32,0.32 0 0 1 0.44,-0.12 l 1.57,0.91 a 0.32,0.32 0 0 1 0.12,0.44 l -0.14,0.25 a 0.32,0.32 0 0 0 0.11,0.43 l 0.91,0.61 a 0.32,0.32 0 0 0 0.44,-0.07 l 0.17,-0.23 a 0.32,0.32 0 0 1 0.45,-0.06 L 53.56,22 a 0.32,0.32 0 0 1 0.06,0.45 l -0.18,0.23 a 0.32,0.32 0 0 0 0,0.44 l 0.82,0.72 a 0.32,0.32 0 0 0 0.45,0 l 0.21,-0.21 a 0.32,0.32 0 0 1 0.46,0 l 1.28,1.28 a 0.32,0.32 0 0 1 0,0.46 l -0.21,0.21 a 0.32,0.32 0 0 0 0,0.45 l 0.72,0.82 a 0.32,0.32 0 0 0 0.44,0 l 0.23,-0.18 a 0.32,0.32 0 0 1 0.45,0.06 l 1.1,1.44 a 0.32,0.32 0 0 1 -0.06,0.45 l -0.23,0.17 a 0.32,0.32 0 0 0 -0.07,0.44 q 0.31,0.45 0.61,0.91 a 0.32,0.32 0 0 0 0.43,0.1 l 0.25,-0.14 a 0.32,0.32 0 0 1 0.44,0.12 l 0.91,1.57 a 0.32,0.32 0 0 1 -0.12,0.44 l -0.25,0.14 a 0.32,0.32 0 0 0 -0.13,0.43 q 0.25,0.49 0.49,1 a 0.32,0.32 0 0 0 0.42,0.16 l 0.26,-0.11 a 0.32,0.32 0 0 1 0.42,0.17 l 0.69,1.67 a 0.32,0.32 0 0 1 -0.17,0.42 l -0.26,0.11 a 0.32,0.32 0 0 0 -0.18,0.41 q 0.19,0.51 0.35,1 a 0.32,0.32 0 0 0 0.39,0.21 l 0.27,-0.07 a 0.32,0.32 0 0 1 0.4,0.23 l 0.47,1.75 a 0.32,0.32 0 0 1 -0.23,0.4 l -0.27,0.07 a 0.32,0.32 0 0 0 -0.23,0.38 q 0.12,0.53 0.21,1.08 a 0.32,0.32 0 0 0 0.36,0.26 h 0.28 a 0.32,0.32 0 0 1 0.36,0.28 l 0.24,1.8 a 0.32,0.32 0 0 1 -0.28,0.36 h -0.29 a 0.32,0.32 0 0 0 -0.28,0.35 q 0,0.54 0.07,1.09 a 0.32,0.32 0 0 0 0.32,0.31 h 0.29 a 0.32,0.32 0 0 1 0.32,0.32 v 1.81 a 0.32,0.32 0 0 1 -0.32,0.32 H 65 a 0.32,0.32 0 0 0 -0.32,0.31 q 0,0.55 -0.07,1.09 a 0.32,0.32 0 0 0 0.28,0.35 h 0.28 a 0.32,0.32 0 0 1 0.28,0.36 l -0.24,1.8 a 0.32,0.32 0 0 1 -0.36,0.28 h -0.28 a 0.32,0.32 0 0 0 -0.36,0.26 c -0.06,0.36 -0.14,0.72 -0.21,1.08 a 0.32,0.32 0 0 0 0.23,0.38 l 0.27,0.07 a 0.32,0.32 0 0 1 0.23,0.4 l -0.47,1.75 a 0.32,0.32 0 0 1 -0.4,0.23 l -0.27,-0.07 a 0.32,0.32 0 0 0 -0.39,0.21 q -0.17,0.52 -0.35,1 a 0.32,0.32 0 0 0 0.18,0.41 l 0.26,0.11 a 0.32,0.32 0 0 1 0.18,0.42 l -0.69,1.67 a 0.32,0.32 0 0 1 -0.42,0.18 L 62.1,60.76 a 0.32,0.32 0 0 0 -0.42,0.16 q -0.23,0.5 -0.49,1 a 0.32,0.32 0 0 0 0.13,0.43 l 0.24,0.14 a 0.32,0.32 0 0 1 0.12,0.44 l -0.91,1.57 a 0.32,0.32 0 0 1 -0.44,0.12 l -0.25,-0.14 a 0.32,0.32 0 0 0 -0.43,0.1 q -0.3,0.46 -0.61,0.91 a 0.32,0.32 0 0 0 0.07,0.44 l 0.23,0.17 a 0.32,0.32 0 0 1 0.06,0.45 l -1.1,1.44 a 0.32,0.32 0 0 1 -0.45,0.06 L 57.65,68 a 0.32,0.32 0 0 0 -0.44,0 l -0.72,0.82 a 0.32,0.32 0 0 0 0,0.45 l 0.2,0.2 a 0.32,0.32 0 0 1 0,0.46 l -1.28,1.28 a 0.32,0.32 0 0 1 -0.46,0 L 54.75,71 a 0.32,0.32 0 0 0 -0.45,0 l -0.82,0.72 a 0.32,0.32 0 0 0 0,0.44 l 0.18,0.23 A 0.32,0.32 0 0 1 53.6,72.84 L 52.12,74 A 0.32,0.32 0 0 1 51.67,73.94 L 51.5,73.71 a 0.32,0.32 0 0 0 -0.44,-0.07 l -0.91,0.61 a 0.32,0.32 0 0 0 -0.11,0.43 l 0.14,0.25 a 0.32,0.32 0 0 1 -0.12,0.44 l -1.57,0.91 a 0.32,0.32 0 0 1 -0.44,-0.12 l -0.14,-0.25 a 0.32,0.32 0 0 0 -0.43,-0.13 l -1,0.49 a 0.32,0.32 0 0 0 -0.16,0.42 l 0.11,0.26 a 0.32,0.32 0 0 1 -0.17,0.42 L 44.6,78 a 0.32,0.32 0 0 1 -0.42,-0.18 l -0.11,-0.26 a 0.32,0.32 0 0 0 -0.41,-0.18 l -1,0.35 a 0.32,0.32 0 0 0 -0.21,0.39 l 0.07,0.27 a 0.32,0.32 0 0 1 -0.23,0.4 l -1.75,0.47 a 0.32,0.32 0 0 1 -0.4,-0.23 L 40,78.78 a 0.32,0.32 0 0 0 -0.38,-0.23 l -1.08,0.21 a 0.32,0.32 0 0 0 -0.26,0.36 V 79.4 A 0.32,0.32 0 0 1 38,79.76 L 36.2,80 a 0.32,0.32 0 0 1 -0.36,-0.28 v -0.29 a 0.32,0.32 0 0 0 -0.35,-0.28 l -1.09,0.07 a 0.32,0.32 0 0 0 -0.31,0.32 v 0.29 a 0.32,0.32 0 0 1 -0.32,0.32 H 32 a 0.32,0.32 0 0 1 -0.32,-0.32 v -0.29 a 0.32,0.32 0 0 0 -0.31,-0.32 l -1.09,-0.07 a 0.32,0.32 0 0 0 -0.35,0.28 v 0.28 a 0.32,0.32 0 0 1 -0.36,0.28 l -1.8,-0.24 a 0.32,0.32 0 0 1 -0.28,-0.36 v -0.28 a 0.32,0.32 0 0 0 -0.26,-0.36 l -1.08,-0.21 a 0.32,0.32 0 0 0 -0.38,0.23 l -0.07,0.27 a 0.32,0.32 0 0 1 -0.4,0.23 L 23.55,78.8 a 0.32,0.32 0 0 1 -0.23,-0.4 l 0.07,-0.27 a 0.32,0.32 0 0 0 -0.21,-0.39 l -1,-0.35 a 0.32,0.32 0 0 0 -0.41,0.18 l -0.11,0.26 A 0.32,0.32 0 0 1 21.24,78 L 19.57,77.31 A 0.32,0.32 0 0 1 19.4,76.89 l 0.11,-0.26 a 0.32,0.32 0 0 0 -0.16,-0.42 l -1,-0.49 a 0.32,0.32 0 0 0 -0.43,0.13 l -0.14,0.24 a 0.32,0.32 0 0 1 -0.44,0.12 L 15.77,75.3 a 0.32,0.32 0 0 1 -0.12,-0.44 l 0.14,-0.25 a 0.32,0.32 0 0 0 -0.1,-0.43 l -0.91,-0.61 a 0.32,0.32 0 0 0 -0.44,0.07 l -0.17,0.23 a 0.32,0.32 0 0 1 -0.45,0.06 l -1.44,-1.1 a 0.32,0.32 0 0 1 -0.06,-0.45 l 0.18,-0.23 a 0.32,0.32 0 0 0 0,-0.44 L 11.5,71 a 0.32,0.32 0 0 0 -0.45,0 l -0.2,0.2 a 0.32,0.32 0 0 1 -0.46,0 L 9.11,69.94 a 0.32,0.32 0 0 1 0,-0.46 l 0.21,-0.2 a 0.32,0.32 0 0 0 0,-0.45 L 8.6,68 A 0.32,0.32 0 0 0 8.16,68 L 7.94,68.17 A 0.32,0.32 0 0 1 7.49,68.11 L 6.39,66.67 A 0.32,0.32 0 0 1 6.45,66.22 L 6.66,66 A 0.32,0.32 0 0 0 6.73,65.56 Q 6.42,65.11 6.12,64.65 A 0.32,0.32 0 0 0 5.69,64.55 L 5.44,64.69 A 0.32,0.32 0 0 1 5,64.58 L 4.09,63 A 0.32,0.32 0 0 1 4.21,62.56 L 4.46,62.42 A 0.32,0.32 0 0 0 4.58,62 Q 4.33,61.51 4.09,61 A 0.32,0.32 0 0 0 3.67,60.84 L 3.42,61 A 0.32,0.32 0 0 1 3,60.79 L 2.31,59.12 A 0.32,0.32 0 0 1 2.49,58.7 l 0.26,-0.11 a 0.32,0.32 0 0 0 0.18,-0.41 q -0.19,-0.51 -0.35,-1 A 0.32,0.32 0 0 0 2.19,56.97 L 1.91,57 A 0.32,0.32 0 0 1 1.51,56.77 L 1,55 A 0.32,0.32 0 0 1 1.23,54.6 L 1.5,54.53 A 0.32,0.32 0 0 0 1.73,54.15 Q 1.61,53.62 1.52,53.07 A 0.32,0.32 0 0 0 1.16,52.81 H 0.88 A 0.32,0.32 0 0 1 0.52,52.53 L 0.32,50.8 A 0.32,0.32 0 0 1 0.6,50.44 H 0.89 A 0.32,0.32 0 0 0 1.17,50.09 Q 1.17,49.55 1.1,49 A 0.32,0.32 0 0 0 0.78,48.69 H 0.48 A 0.32,0.32 0 0 1 0.16,48.37 V 46.52 A 0.32,0.32 0 0 1 0.48,46.2 h 0.29 a 0.32,0.32 0 0 0 0.32,-0.31 q 0,-0.55 0.07,-1.09 A 0.32,0.32 0 0 0 0.88,44.45 H 0.59 A 0.32,0.32 0 0 1 0.32,44 L 0.56,42.2 A 0.32,0.32 0 0 1 0.92,42 H 1.2 A 0.32,0.32 0 0 0 1.56,41.74 Q 1.66,41.2 1.77,40.66 A 0.32,0.32 0 0 0 1.54,40.28 L 1.27,40.21 a 0.32,0.32 0 0 1 -0.23,-0.4 l 0.47,-1.75 a 0.32,0.32 0 0 1 0.4,-0.23 l 0.27,0.07 a 0.32,0.32 0 0 0 0.39,-0.21 q 0.17,-0.52 0.35,-1 A 0.32,0.32 0 0 0 2.74,36.28 L 2.48,36.17 A 0.32,0.32 0 0 1 2.3,35.75 L 3,34.06 a 0.32,0.32 0 0 1 0.42,-0.18 l 0.26,0.11 A 0.32,0.32 0 0 0 4.1,33.83 q 0.23,-0.5 0.49,-1 A 0.32,0.32 0 0 0 4.46,32.4 L 4.21,32.26 A 0.32,0.32 0 0 1 4.09,31.82 L 5,30.27 a 0.32,0.32 0 0 1 0.44,-0.12 l 0.25,0.14 a 0.32,0.32 0 0 0 0.43,-0.1 q 0.3,-0.46 0.61,-0.91 A 0.32,0.32 0 0 0 6.66,28.84 L 6.43,28.67 A 0.32,0.32 0 0 1 6.37,28.22 l 1.1,-1.44 a 0.32,0.32 0 0 1 0.45,-0.06 l 0.23,0.18 a 0.32,0.32 0 0 0 0.44,0 L 9.33,26 a 0.32,0.32 0 0 0 0,-0.45 l -0.21,-0.2 a 0.32,0.32 0 0 1 0,-0.46 l 1.28,-1.28 a 0.32,0.32 0 0 1 0.46,0 l 0.21,0.21 a 0.32,0.32 0 0 0 0.44,0 l 0.82,-0.72 a 0.32,0.32 0 0 0 0,-0.44 l -0.18,-0.23 a 0.32,0.32 0 0 1 0.06,-0.45 l 1.44,-1.1 a 0.32,0.32 0 0 1 0.45,0.06 l 0.17,0.23 a 0.32,0.32 0 0 0 0.44,0.07 l 0.91,-0.61 a 0.32,0.32 0 0 0 0.1,-0.43 L 15.63,20 a 0.32,0.32 0 0 1 0.12,-0.44 l 1.57,-0.91 a 0.32,0.32 0 0 1 0.44,0.12 l 0.14,0.25 a 0.32,0.32 0 0 0 0.43,0.13 l 1,-0.49 a 0.32,0.32 0 0 0 0.16,-0.42 l -0.11,-0.26 a 0.32,0.32 0 0 1 0.17,-0.42 l 1.67,-0.69 a 0.32,0.32 0 0 1 0.42,0.17 l 0.11,0.26 a 0.32,0.32 0 0 0 0.41,0.18 l 1,-0.35 a 0.32,0.32 0 0 0 0.21,-0.39 L 23.3,16.47 a 0.32,0.32 0 0 1 0.23,-0.39 l 1.75,-0.47 a 0.32,0.32 0 0 1 0.4,0.23 l 0.07,0.27 a 0.32,0.32 0 0 0 0.38,0.23 l 1.08,-0.21 a 0.32,0.32 0 0 0 0.26,-0.36 v -0.28 a 0.32,0.32 0 0 1 0.28,-0.36 l 1.8,-0.24 a 0.32,0.32 0 0 1 0.36,0.28 v 0.29 a 0.32,0.32 0 0 0 0.35,0.28 l 1.09,-0.07 a 0.32,0.32 0 0 0 0.31,-0.32 V 15 a 0.32,0.32 0 0 1 0.32,-0.32 h 1.81 A 0.32,0.32 0 0 1 34.11,15 v 0.29 a 0.32,0.32 0 0 0 0.33,0.32 z"
         inkscape:connector-curvature="0" />
      <path
         style="display:inline;fill:url(#ToggleSwitch1-9);fill-opacity:1;fill-rule:evenodd"
         id="path254"
         d="M 32.9,15.83 A 31.6,31.6 0 1 1 1.3,47.43 31.6,31.6 0 0 1 32.9,15.83 Z m 0,0.59 a 31,31 0 1 0 31,31 31,31 0 0 0 -31,-31 z"
         inkscape:connector-curvature="0" />
      <path
         style="display:inline;fill:url(#ToggleSwitch1959);fill-opacity:1;fill-rule:evenodd"
         id="path258"
         d="M 32.9,75.61 A 28.18,28.18 0 1 0 4.72,47.42 28.24,28.24 0 0 0 32.9,75.61 Z"
         inkscape:connector-curvature="0" />
      <path
         style="display:inline;fill:url(#ToggleSwitch1-1-3);fill-opacity:1;fill-rule:evenodd"
         id="path262"
         d="M 32.9,71.26 A 23.84,23.84 0 1 0 9.06,47.42 23.89,23.89 0 0 0 32.9,71.26 Z"
         inkscape:connector-curvature="0" />
      <path
         style="display:inline;fill:url(#ToggleSwitch1-8);fill-opacity:1;fill-rule:evenodd"
         id="path264"
         d="M 32.9,70.51 A 23.09,23.09 0 1 0 9.82,47.42 23.13,23.13 0 0 0 32.9,70.51 Z"
         inkscape:connector-curvature="0" />
      <path
         style="display:inline;fill:url(#ToggleSwitch1248);fill-opacity:1;fill-rule:evenodd"
         id="path268"
         d="M 32.9,66.17 A 18.74,18.74 0 1 0 14.16,47.42 18.78,18.78 0 0 0 32.9,66.17 Z"
         inkscape:connector-curvature="0" />
      <path
         style="display:inline;fill:url(#ToggleSwitch1246);fill-opacity:1;fill-rule:evenodd"
         id="path270"
         d="M 32.9,63 A 15.53,15.53 0 1 0 17.37,47.42 15.56,15.56 0 0 0 32.9,63 Z"
         inkscape:connector-curvature="0" />
      <path
         style="display:inline;fill:url(#ToggleSwitch1-3-5);fill-opacity:1;fill-rule:evenodd"
         id="path274"
         d="M 32.9,59.56 A 12.13,12.13 0 1 0 20.77,47.42 12.16,12.16 0 0 0 32.9,59.56 Z"
         inkscape:connector-curvature="0" />
      <g
         id="g300"
         style="display:none">
        <path
           style="display:inline;fill:url(#ToggleSwitch1-10);fill-opacity:1;fill-rule:evenodd"
           id="path276"
           d="m 32.8,37.22 c 4.72,0 9,5.13 9,10.71 0,0.14 0,0.27 0,0.4 -0.18,-5.39 -5.75,-9.24 -8.86,-9.1 -3.52,0.06 -8.79,4.39 -9,9.78 0,-0.89 0,-1.54 0,-1.68 -0.01,-5.58 4.14,-10.11 8.86,-10.11 z"
           inkscape:connector-curvature="0" />
        <path
           style="display:inline;fill:url(#ToggleSwitch1-4);fill-opacity:1;fill-rule:evenodd"
           id="path278"
           d="m 32.9,62.59 c 5,0 9.09,-5.25 9.09,-11.68 0,-6.43 -4.08,-11.68 -9.09,-11.68 -5.01,0 -9.09,5.25 -9.09,11.68 0,6.43 4.09,11.68 9.09,11.68 z"
           inkscape:connector-curvature="0" />
        <path
           style="display:inline;fill:url(#ToggleSwitch1-11);fill-rule:evenodd"
           id="path284"
           d="m 41.34,49 v -0.28 c -0.1,-6.24 -9.32,-9.05 -14.58,-4.84 a 6.23,6.23 0 0 0 -2.5,4.84 V 49 a 6.23,6.23 0 0 1 2.5,-4.84 C 32,40 41.24,42.77 41.34,49 Z"
           inkscape:connector-curvature="0" />
        <path
           style="display:inline;fill:url(#ToggleSwitch1-12);fill-rule:evenodd"
           id="path286"
           d="m 21.39,75.12 v -17 c 0.09,-5.69 5.44,-9.92 10.93,-10.14 5.49,-0.22 12,4 12.11,10.14 v 17 z"
           inkscape:connector-curvature="0" />
        <path
           style="display:inline;fill:#060c0b;fill-rule:evenodd"
           id="path288"
           d="m 32.9,69.040836 c 5.54,0 10.63,2.93 12.79,7.37 a 10.71,10.71 0 0 1 1.09,4.69 c 0,0.07 0,0.15 0,0.22 a 10.71,10.71 0 0 0 -1.09,-4.43 c -2.16,-4.43 -7.25,-7.37 -12.79,-7.37 -5.54,0 -10.63,2.93 -12.79,7.37 a 10.71,10.71 0 0 0 -1.11,4.44 c 0,-0.07 0,-0.15 0,-0.22 a 10.71,10.71 0 0 1 1.09,-4.69 c 2.18,-4.45 7.27,-7.38 12.81,-7.38 z"
           inkscape:connector-curvature="0" />
        <path
           style="display:inline;fill:url(#ToggleSwitch1-13);fill-rule:evenodd"
           id="path292"
           d="m 32.9,92.71 c 7.65,0 13.88,-5.34 13.88,-11.6 0,-6.26 -6.38,-11.6 -13.88,-11.6 -7.5,0 -13.9,5.21 -13.9,11.6 0,6.39 6.25,11.6 13.9,11.6 z"
           inkscape:connector-curvature="0" />
        <path
           style="display:inline;fill:url(#ToggleSwitch1-14);fill-rule:evenodd"
           id="path294"
           d="m 45.65,82.74 c 0,-7.59 -5.68,-12.48 -12.56,-12.48 -6.88,0 -12.93,4.08 -12.93,12.48 0,9.96 25.49,10.62 25.49,0 z"
           inkscape:connector-curvature="0" />
      </g>
      <g
         id="g326"
         style="display:inline">
        <path
           style="display:inline;fill:url(#ToggleSwitch1-3-8);fill-opacity:1;fill-rule:evenodd"
           id="path302"
           d="m 32.67,55.49 c 4.72,0 9,-5.13 9,-10.71 0,-0.14 0,-0.27 0,-0.4 -0.18,5.39 -5.75,9.24 -8.86,9.1 -3.52,-0.06 -8.79,-4.39 -9,-9.78 0,0.89 0,1.54 0,1.68 -0.01,5.62 4.14,10.11 8.86,10.11 z"
           inkscape:connector-curvature="0" />
        <path
           style="display:inline;fill:url(#ToggleSwitch1-4-3);fill-opacity:1;fill-rule:evenodd"
           id="path304"
           d="m 32.77,30.12 c 5,0 9.09,5.25 9.09,11.68 0,6.43 -4.09,11.68 -9.09,11.68 -5,0 -9.09,-5.25 -9.09,-11.68 0,-6.43 4.08,-11.68 9.09,-11.68 z"
           inkscape:connector-curvature="0" />
        <path
           style="display:inline;fill:url(#ToggleSwitch1-5-2);fill-rule:evenodd"
           id="path310"
           d="M 41.21,43.7 V 44 c -0.1,6.24 -9.32,9.05 -14.58,4.84 A 6.23,6.23 0 0 1 24.12,44 v -0.3 a 6.23,6.23 0 0 0 2.5,4.84 c 5.27,4.22 14.49,1.4 14.59,-4.84 z"
           inkscape:connector-curvature="0" />
        <path
           style="display:inline;fill:url(#ToggleSwitch1-6-2);fill-rule:evenodd"
           id="path312"
           d="m 21.25,17.59 v 17 c 0.09,5.69 5.44,9.92 10.93,10.14 5.49,0.22 12,-4 12.11,-10.14 v -17 z"
           inkscape:connector-curvature="0" />
        <path
           style="display:inline;fill:#060c0b;fill-rule:evenodd"
           id="path314"
           d="m 32.77,24.19 c 5.54,0 10.63,-2.93 12.79,-7.37 a 10.71,10.71 0 0 0 1.09,-4.69 c 0,-0.07 0,-0.15 0,-0.22 a 10.71,10.71 0 0 1 -1.09,4.43 C 43.4,20.78 38.31,23.71 32.77,23.71 27.23,23.71 22.14,20.77 20,16.33 A 10.71,10.71 0 0 1 18.91,11.9 c 0,0.07 0,0.15 0,0.22 a 10.71,10.71 0 0 0 1.09,4.7 c 2.14,4.44 7.23,7.37 12.77,7.37 z"
           inkscape:connector-curvature="0" />
        <path
           style="display:inline;fill:url(#ToggleSwitch1-7-2);fill-rule:evenodd"
           id="path318"
           d="m 32.77,0.4 c -7.65,0 -13.88,5.34 -13.88,11.6 0,6.26 6.39,11.6 13.88,11.6 7.49,0 13.88,-5.21 13.88,-11.6 0,-6.39 -6.23,-11.6 -13.88,-11.6 z"
           inkscape:connector-curvature="0" />
        <path
           style="display:inline;fill:url(#ToggleSwitch1-1-6);fill-rule:evenodd"
           id="path320"
           d="m 20,10.37 c 0,7.59 5.7,12.48 12.58,12.48 6.88,0 12.94,-4.08 12.94,-12.48 0,-9.96 -25.52,-10.62 -25.52,0 z"
           inkscape:connector-curvature="0" />
      </g>
      <text
         class="text"
         id="text5322-8"
         y="-1.6791476"
         x="-0.093558215"
         style="font-style:normal;font-variant:normal;font-weight:normal;font-stretch:normal;font-size:27.10623932px;line-height:125%;font-family:Arial;-inkscape-font-specification:Arial;letter-spacing:0px;word-spacing:0px;fill:#000000;fill-opacity:1;stroke:none"
         xml:space="preserve">Label</text>
      <text
         class="text2"
         id="text4093-3"
         y="115.90732"
         x="-0.65684664"
         style="font-style:normal;font-variant:normal;font-weight:normal;font-stretch:normal;font-size:27.10623932px;line-height:125%;font-family:Arial;-inkscape-font-specification:Arial;letter-spacing:0px;word-spacing:0px;fill:#000000;fill-opacity:1;stroke:none"
         xml:space="preserve">Label</text>
    </g>
  </g>
</svg>
