<?xml version="1.0" encoding="UTF-8" standalone="no"?>
<svg
   xmlns:vfp="http://www.labcenter.com/namespaces/vfp"
   xmlns:dc="http://purl.org/dc/elements/1.1/"
   xmlns:cc="http://creativecommons.org/ns#"
   xmlns:rdf="http://www.w3.org/1999/02/22-rdf-syntax-ns#"
   xmlns:svg="http://www.w3.org/2000/svg"
   xmlns="http://www.w3.org/2000/svg"
   xmlns:xlink="http://www.w3.org/1999/xlink"
   xmlns:sodipodi="http://sodipodi.sourceforge.net/DTD/sodipodi-0.dtd"
   xmlns:inkscape="http://www.inkscape.org/namespaces/inkscape"
   viewBox="0 0 141.95 96.27"
   version="1.1"
   id="svg51"
   sodipodi:docname="LEDBarSignal.svg"
   inkscape:version="0.48.2 r9819"
   width="100%"
   height="100%">
  <metadata
     id="metadata4029">
    <rdf:RDF>
      <cc:Work
         rdf:about="">
        <dc:format>image/svg+xml</dc:format>
        <dc:type
           rdf:resource="http://purl.org/dc/dcmitype/StillImage" />
        <dc:title />
      </cc:Work>
    </rdf:RDF>
  </metadata>
  <sodipodi:namedview
     pagecolor="#ffffff"
     bordercolor="#666666"
     borderopacity="1"
     objecttolerance="10"
     gridtolerance="10"
     guidetolerance="10"
     inkscape:pageopacity="0"
     inkscape:pageshadow="2"
     inkscape:window-width="819"
     inkscape:window-height="733"
     id="namedview4027"
     showgrid="false"
     inkscape:zoom="0.72728137"
     inkscape:cx="-80.404307"
     inkscape:cy="99.465932"
     inkscape:window-x="0"
     inkscape:window-y="0"
     inkscape:window-maximized="0"
     inkscape:current-layer="svg51" />
  <defs
     id="defs17">
    <linearGradient
       id="LEDBarSignalLinearGradient"
       x1="128.56"
       y1="105.74"
       x2="54.81"
       y2="31.98"
       gradientUnits="userSpaceOnUse">
      <stop
         offset="0"
         stop-opacity="0.3"
         id="stop2" />
      <stop
         offset="0.56"
         stop-opacity="0"
         id="stop4" />
    </linearGradient>
    <linearGradient
       id="LEDBarSignalLinearGradient-2"
       x1="125.93"
       y1="104.6"
       x2="55.96"
       y2="34.63"
       gradientUnits="userSpaceOnUse">
      <stop
         offset="0"
         stop-opacity="0.2"
         id="stop7" />
      <stop
         offset="1"
         id="stop9" />
    </linearGradient>
    <linearGradient
       id="LEDBarSignalLinearGradient-3"
       x1="149.41"
       y1="74.21"
       x2="106.85"
       y2="31.65"
       xlink:href="#LEDBarSignalLinearGradient" />
    <linearGradient
       id="LEDBarSignalLinearGradient-4"
       x1="120.15"
       y1="78.27"
       x2="85.71"
       y2="43.83"
       xlink:href="#LEDBarSignalLinearGradient" />
    <linearGradient
       id="LEDBarSignalLinearGradient-5"
       x1="90.89"
       y1="82.33"
       x2="64.57"
       y2="56.02"
       xlink:href="#LEDBarSignalLinearGradient" />
    <linearGradient
       id="LEDBarSignalLinearGradient-6"
       x1="61.63"
       y1="86.39"
       x2="43.44"
       y2="68.2"
       xlink:href="#LEDBarSignalLinearGradient" />
    <linearGradient
       id="LEDBarSignalLinearGradient-7"
       x1="32.37"
       y1="90.45"
       x2="22.3"
       y2="80.38"
       xlink:href="#LEDBarSignalLinearGradient" />
    <linearGradient
       id="linearGradient7854-7-0-6-7">
      <stop
         id="stop7856-9-33-2-7"
         offset="0"
         style="stop-color:#ffffff;stop-opacity:1;" />
      <stop
         style="stop-color:#c7af82;stop-opacity:0;"
         offset="0.99999976"
         id="stop7862-5-6-1-9" />
      <stop
         id="stop7858-5-22-6-4"
         offset="1"
         style="stop-color:#c7af82;stop-opacity:0;" />
    </linearGradient>
    <linearGradient
       inkscape:collect="always"
       xlink:href="#linearGradient7854-7-0-6-7"
       id="linearGradient4638"
       gradientUnits="userSpaceOnUse"
       x1="7.2279277"
       y1="163.8421"
       x2="143.47243"
       y2="163.8421"
       gradientTransform="translate(-4.3751723,-115.70709)" />
  </defs>
  <vfp:catalogue
     PREFIX="LEDBar"
     CATEGORY="Display Controls"
     DESC="LED Bar Signal" />
  <g
     vfp:class="LEDStrip"
     data-name="Layer 1"
     id="Layer_1-2">
    <path
       class="bounds"
       inkscape:connector-curvature="0"
       id="path21"
       style="fill:#ffffff"
       d="M 135.25,96.27 H 6.71 A 6.7,6.7 0 0 1 3.08,83.94 L 131.62,1.08 A 6.7,6.7 0 0 1 142,6.71 v 82.86 a 6.7,6.7 0 0 1 -6.75,6.7 z" />
    <path
       inkscape:connector-curvature="0"
       id="path23"
       style="fill:#221406;fill-opacity:1"
       d="M 135.25,96.269999 H 6.7099993 A 6.7,6.7 0 0 1 3.0799993,83.94 L 131.62,1.0799997 a 6.7,6.7 0 0 1 10.38,5.63 V 89.569999 a 6.7,6.7 0 0 1 -6.75,6.7 z" />
    <path
       inkscape:connector-curvature="0"
       id="path25"
       style="fill:#c7af82;fill-opacity:1"
       d="M 134.38,94.22 H 7.37 a 4.51,4.51 0 0 1 -2.5,-8.33 l 127,-80.33 A 4.62,4.62 0 0 1 139,9.37 V 89.7 a 4.57,4.57 0 0 1 -4.62,4.52 z" />
    <path
       inkscape:connector-curvature="0"
       id="path27"
       style="opacity:0.15;fill:url(#LEDBarSignalLinearGradient-2)"
       d="M 134.38,94.22 H 7.37 a 4.51,4.51 0 0 1 -2.5,-8.33 l 127,-80.33 A 4.62,4.62 0 0 1 139,9.37 V 89.7 a 4.57,4.57 0 0 1 -4.62,4.52 z" />
    <path
       inkscape:connector-curvature="0"
       id="path25-8"
       style="fill:url(#linearGradient4638);fill-opacity:1"
       d="M 134.47725,92.835216 H 7.4672487 a 4.5100002,4.5100002 0 0 1 -2.4999998,-8.33 L 131.96725,4.1752059 a 4.6200002,4.6200002 0 0 1 7.13,3.81 V 88.315216 a 4.5700002,4.5700002 0 0 1 -4.62,4.52 z" />
    <path
       class="LED"
       inkscape:connector-curvature="0"
       id="path37"
       style="fill:#00c8ad;fill-opacity:1;stroke:#221406;stroke-opacity:1;stroke-width:0.77200003;stroke-miterlimit:4;stroke-dasharray:none"
       d="m 16.41,87.41 v 0 a 2.75,2.75 0 0 0 2.75,2.75 h 12.36 a 2.75,2.75 0 0 0 2.75,-2.75 v -8 A 2.75,2.75 0 0 0 30,77.13 l -12.36,8 a 2.75,2.75 0 0 0 -1.23,2.28 z"
       inkscape:label="1" />
    <path
       class="LED"
       inkscape:connector-curvature="0"
       id="path35"
       style="fill:#00c8ad;fill-opacity:1;stroke:#221406;stroke-opacity:1;stroke-width:0.77200003;stroke-miterlimit:4;stroke-dasharray:none"
       d="m 41.61,71.17 v 16.24 a 2.75,2.75 0 0 0 2.75,2.75 h 12.36 a 2.75,2.75 0 0 0 2.75,-2.75 V 63.2 a 2.75,2.75 0 0 0 -4.25,-2.32 l -12.36,8 a 2.75,2.75 0 0 0 -1.25,2.29 z"
       inkscape:label="2" />
    <path
       class="LED"
       inkscape:connector-curvature="0"
       id="path33"
       style="fill:#00c8ad;fill-opacity:1;stroke:#221406;stroke-opacity:1;stroke-width:0.77200003;stroke-miterlimit:4;stroke-dasharray:none"
       d="m 66.81,54.92 v 32.49 a 2.75,2.75 0 0 0 2.75,2.75 h 12.36 a 2.75,2.75 0 0 0 2.75,-2.75 V 47 a 2.75,2.75 0 0 0 -4.25,-2.32 l -12.36,8 a 2.75,2.75 0 0 0 -1.25,2.24 z"
       inkscape:label="3" />
    <path
       class="LED"
       inkscape:connector-curvature="0"
       id="path31"
       style="fill:#00c8ad;fill-opacity:1;stroke:#221406;stroke-opacity:1;stroke-width:0.77200003;stroke-miterlimit:4;stroke-dasharray:none"
       d="m 92,38.68 v 48.73 a 2.75,2.75 0 0 0 2.75,2.75 h 12.36 a 2.75,2.75 0 0 0 2.75,-2.75 V 30.72 a 2.75,2.75 0 0 0 -4.25,-2.32 l -12.36,8 A 2.75,2.75 0 0 0 92,38.68 Z"
       inkscape:label="4" />
    <path
       class="LED"
       inkscape:connector-curvature="0"
       id="path29"
       style="fill:#575756;stroke:#221406;stroke-opacity:1;stroke-width:0.77200003;stroke-miterlimit:4;stroke-dasharray:none"
       d="m 120,90.16 h 12.36 a 2.75,2.75 0 0 0 2.75,-2.75 V 14.47 a 2.75,2.75 0 0 0 -4.25,-2.32 l -12.36,8 a 2.75,2.75 0 0 0 -1.26,2.32 v 65 a 2.75,2.75 0 0 0 2.76,2.69 z"
       inkscape:label="5" />
    <path
       inkscape:connector-curvature="0"
       id="path39"
       style="fill:url(#LEDBarSignalLinearGradient-3)"
       d="m 120,90.16 h 12.36 a 2.75,2.75 0 0 0 2.75,-2.75 V 14.47 a 2.75,2.75 0 0 0 -4.25,-2.32 l -12.36,8 a 2.75,2.75 0 0 0 -1.26,2.32 v 65 a 2.75,2.75 0 0 0 2.76,2.69 z" />
    <path
       inkscape:connector-curvature="0"
       id="path41"
       style="fill:url(#LEDBarSignalLinearGradient-4)"
       d="m 92,38.68 v 48.73 a 2.75,2.75 0 0 0 2.75,2.75 h 12.36 a 2.75,2.75 0 0 0 2.75,-2.75 V 30.72 a 2.75,2.75 0 0 0 -4.25,-2.32 l -12.36,8 A 2.75,2.75 0 0 0 92,38.68 Z" />
    <path
       inkscape:connector-curvature="0"
       id="path43"
       style="fill:url(#LEDBarSignalLinearGradient-5)"
       d="m 66.81,54.92 v 32.49 a 2.75,2.75 0 0 0 2.75,2.75 h 12.36 a 2.75,2.75 0 0 0 2.75,-2.75 V 47 a 2.75,2.75 0 0 0 -4.25,-2.32 l -12.36,8 a 2.75,2.75 0 0 0 -1.25,2.24 z" />
    <path
       inkscape:connector-curvature="0"
       id="path45"
       style="fill:url(#LEDBarSignalLinearGradient-6)"
       d="m 41.61,71.17 v 16.24 a 2.75,2.75 0 0 0 2.75,2.75 h 12.36 a 2.75,2.75 0 0 0 2.75,-2.75 V 63.2 a 2.75,2.75 0 0 0 -4.25,-2.32 l -12.36,8 a 2.75,2.75 0 0 0 -1.25,2.29 z" />
    <path
       inkscape:connector-curvature="0"
       id="path47"
       style="fill:url(#LEDBarSignalLinearGradient-7)"
       d="m 16.41,87.41 v 0 a 2.75,2.75 0 0 0 2.75,2.75 h 12.36 a 2.75,2.75 0 0 0 2.75,-2.75 v -8 A 2.75,2.75 0 0 0 30,77.13 l -12.36,8 a 2.75,2.75 0 0 0 -1.23,2.28 z" />
    <text
       id="text73"
       y="130.91156"
       x="78.483818"
       style="font-size:15px;font-family:sans-serif;text-anchor:middle;stroke-width:0.5">50%</text>
  </g>
</svg>
