<svg xmlns:vfp="http://www.labcenter.com/namespaces/vfp" xmlns="http://www.w3.org/2000/svg" xmlns:xlink="http://www.w3.org/1999/xlink" viewBox="0 0 100 200">
  <defs>
    <linearGradient id="ToggleSwitchFlickSwitchWhite1" x1="120.99" y1="170.99" x2="-20.99" y2="29.01" gradientUnits="userSpaceOnUse">
      <stop offset="0" stop-opacity="0.3"/>
      <stop offset="0.56" stop-opacity="0"/>
    </linearGradient>
    <linearGradient id="ToggleSwitchFlickSwitchWhite2" x1="116.52" y1="166.52" x2="-16.52" y2="33.48" gradientUnits="userSpaceOnUse">
      <stop offset="0.44" stop-opacity="0"/>
      <stop offset="1" stop-opacity="0.3"/>
    </linearGradient>
    <linearGradient id="ToggleSwitchFlickSwitchWhite3" x1="81.18" y1="131.18" x2="18.82" y2="68.82" xlink:href="#ToggleSwitchFlickSwitchWhite1"/>
    <linearGradient id="ToggleSwitchFlickSwitchWhite4" x1="78.76" y1="128.76" x2="21.24" y2="71.24" xlink:href="#ToggleSwitchFlickSwitchWhite2"/>
    <linearGradient id="ToggleSwitchFlickSwitchWhite5" x1="64.65" y1="114.65" x2="35.35" y2="85.35" xlink:href="#ToggleSwitchFlickSwitchWhite1"/>
    <radialGradient id="ToggleSwitchFlickSwitchWhite6" cx="50" cy="100" r="18.48" xlink:href="#ToggleSwitchFlickSwitchWhite2"/>
    <linearGradient id="ToggleSwitchFlickSwitchWhite7" x1="63.07" y1="113.07" x2="36.93" y2="86.93" xlink:href="#ToggleSwitchFlickSwitchWhite1"/>
    <linearGradient id="ToggleSwitchFlickSwitchWhite8" x1="77.71" y1="72.11" x2="19.27" y2="31.19" gradientUnits="userSpaceOnUse">
      <stop offset="0.1" stop-opacity="0.1"/>
      <stop offset="1" stop-opacity="0.5"/>
    </linearGradient>
    <radialGradient id="ToggleSwitchFlickSwitchWhite9" cx="49.33" cy="6.01" r="49.75" gradientUnits="userSpaceOnUse">
      <stop offset="0" stop-color="#fff" stop-opacity="0.3"/>
      <stop offset="0.56" stop-color="#fff" stop-opacity="0"/>
    </radialGradient>
    <linearGradient id="ToggleSwitchFlickSwitchWhite10" x1="30.31" y1="-101.13" x2="77.74" y2="-113.84" gradientTransform="matrix(1, 0, 0, -1, 0, 39.34)" gradientUnits="userSpaceOnUse">
      <stop offset="0" stop-opacity="0"/>
      <stop offset="0.58" stop-opacity="0.3"/>
    </linearGradient>
    <radialGradient id="ToggleSwitchFlickSwitchWhite11" cx="50.25" cy="-154.99" r="49.75" gradientTransform="matrix(1, 0, 0, -1, 0, 39.34)" gradientUnits="userSpaceOnUse">
      <stop offset="0" stop-color="#fff" stop-opacity="0.3"/>
      <stop offset="0.55" stop-color="#fff" stop-opacity="0"/>
    </radialGradient>
  </defs>
<vfp:catalogue
     PREFIX="ToggleSwitch"
     CATEGORY="Switches"
     DESC="Flick Switch" />

  <g vfp:class="ToggleSwitch">
    <g>
      <rect class="bounds" width="100" height="200" rx="13.65" ry="13.65" style="fill: #fffef5"/>
      <rect width="100" height="200" rx="13.65" ry="13.65" style="fill: url(#ToggleSwitchFlickSwitchWhite1)"/>
      <rect x="4.35" y="5.16" width="91.3" height="189.69" rx="12.71" ry="12.71" style="fill: #fffef5"/>
      <rect x="4.35" y="5.16" width="91.3" height="189.69" rx="12.71" ry="12.71" style="fill: url(#ToggleSwitchFlickSwitchWhite2)"/>
      <polygon points="72.83 60.47 27.18 60.47 4.35 100 27.18 139.53 72.83 139.53 95.65 100 72.83 60.47" style="fill: #fffef5"/>
      <polygon points="72.83 60.47 27.18 60.47 4.35 100 27.18 139.53 72.83 139.53 95.65 100 72.83 60.47" style="fill: url(#ToggleSwitchFlickSwitchWhite3)"/>
      <polygon points="71.06 63.53 28.95 63.53 7.89 100 28.95 136.47 71.06 136.47 92.11 100 71.06 63.53" style="fill: #fffef5"/>
      <polygon points="71.06 63.53 28.95 63.53 7.89 100 28.95 136.47 71.06 136.47 92.11 100 71.06 63.53" style="fill: url(#ToggleSwitchFlickSwitchWhite4)"/>
      <circle cx="50" cy="100" r="20.72" style="fill: #fffef5"/>
      <circle cx="50" cy="100" r="20.72" style="fill: url(#ToggleSwitchFlickSwitchWhite5)"/>
      <circle cx="50" cy="100" r="18.48" style="fill: #fffef5"/>
      <circle cx="50" cy="100" r="18.48" style="fill: url(#ToggleSwitchFlickSwitchWhite6)"/>
      <circle cx="50" cy="100" r="18.48" style="fill: url(#ToggleSwitchFlickSwitchWhite7)"/>
    
    <g>
      <path d="M50.09,5.16h-.17c-11.62,0-23,4.79-20.2,25L39.95,93.57v.63a10,10,0,0,0,10,10h.1a10,10,0,0,0,10-10v-.63L70.28,30.2C73.1,9.94,61.71,5.19,50.09,5.16Z" style="fill: #fffef5"/>
      <path d="M50.09,5.16h-.17c-11.62,0-23,4.79-20.2,25L39.95,93.57v.63a10,10,0,0,0,10,10h.1a10,10,0,0,0,10-10v-.63L70.28,30.2C73.1,9.94,61.71,5.19,50.09,5.16Z" style="fill: url(#ToggleSwitchFlickSwitchWhite8)"/>
      <path d="M50.09,5.16h-.17c-11.62,0-23,4.79-20.2,25L39.95,93.57v.63a10,10,0,0,0,10,10h.1a10,10,0,0,0,10-10v-.63L70.28,30.2C73.1,9.94,61.71,5.19,50.09,5.16Z" style="fill: url(#ToggleSwitchFlickSwitchWhite9)"/>
    </g>
    <g style="display:none">
      <path d="M50.09,194.84h-.17c-11.62,0-23-4.79-20.2-25l10.23-63.37v-.63a10,10,0,0,1,10-10h.1a10,10,0,0,1,10,10v.63L70.28,169.8C73.1,190.06,61.71,194.81,50.09,194.84Z" style="fill: #fffef5"/>
      <path d="M50.09,194.84h-.17c-11.62,0-23-4.79-20.2-25l10.23-63.37v-.63a10,10,0,0,1,10-10h.1a10,10,0,0,1,10,10v.63L70.28,169.8C73.1,190.06,61.71,194.81,50.09,194.84Z" style="fill: url(#ToggleSwitchFlickSwitchWhite10)"/>
      <path d="M50.09,194.84h-.17c-11.62,0-23-4.79-20.2-25l10.23-63.37v-.63a10,10,0,0,1,10-10h.1a10,10,0,0,1,10,10v.63L70.28,169.8C73.1,190.06,61.71,194.81,50.09,194.84Z" style="fill: url(#ToggleSwitchFlickSwitchWhite11)"/>
    </g>
    <text
      class="text"
       id="text5322"
       y="-41.81345"
       x="-28.962091"
       style="font-style:normal;font-variant:normal;font-weight:normal;font-stretch:normal;font-size:27.10623932px;line-height:125%;font-family:Arial;-inkscape-font-specification:Arial;letter-spacing:0px;word-spacing:0px;fill:#000000;fill-opacity:1;stroke:none"
       xml:space="preserve">Label</text>
      <text
       class="text2"
       id="text5322"
       y="-41.81345"
       x="-28.962091"
       style="font-style:normal;font-variant:normal;font-weight:normal;font-stretch:normal;font-size:27.10623932px;line-height:125%;font-family:Arial;-inkscape-font-specification:Arial;letter-spacing:0px;word-spacing:0px;fill:#000000;fill-opacity:1;stroke:none"
       xml:space="preserve">Label</text>
  </g>
  </g>

</svg>
