<?xml version="1.0" encoding="UTF-8" standalone="no"?>
<svg
   xmlns:vfp="http://www.labcenter.com/namespaces/vfp"
   xmlns:dc="http://purl.org/dc/elements/1.1/"
   xmlns:cc="http://creativecommons.org/ns#"
   xmlns:rdf="http://www.w3.org/1999/02/22-rdf-syntax-ns#"
   xmlns:svg="http://www.w3.org/2000/svg"
   xmlns="http://www.w3.org/2000/svg"
   xmlns:xlink="http://www.w3.org/1999/xlink"
   xmlns:sodipodi="http://sodipodi.sourceforge.net/DTD/sodipodi-0.dtd"
   xmlns:inkscape="http://www.inkscape.org/namespaces/inkscape"
   viewBox="0 0 100 198.38"
   version="1.1"
   id="svg43"
   sodipodi:docname="Slide Switch.svg"
   inkscape:version="0.92.1 r15371">
  <metadata
     id="metadata47">
    <rdf:RDF>
      <cc:Work
         rdf:about="">
        <dc:format>image/svg+xml</dc:format>
        <dc:type
           rdf:resource="http://purl.org/dc/dcmitype/StillImage" />
      </cc:Work>
    </rdf:RDF>
  </metadata>
  <sodipodi:namedview
     pagecolor="#ffffff"
     bordercolor="#666666"
     borderopacity="1"
     objecttolerance="10"
     gridtolerance="10"
     guidetolerance="10"
     inkscape:pageopacity="0"
     inkscape:pageshadow="2"
     inkscape:window-width="1920"
     inkscape:window-height="1018"
     id="namedview45"
     showgrid="false"
     inkscape:zoom="4.7585441"
     inkscape:cx="35.169499"
     inkscape:cy="124.63958"
     inkscape:window-x="-8"
     inkscape:window-y="-8"
     inkscape:window-maximized="1"
     inkscape:current-layer="g24" />
  <defs
     id="defs10">
    <linearGradient
       id="ToggleSwitchSlideSwitchWhite1"
       x1="109.99"
       y1="159.18"
       x2="-9.99"
       y2="39.2"
       gradientUnits="userSpaceOnUse">
      <stop
         offset="0"
         stop-opacity="0.3"
         id="stop2" />
      <stop
         offset="0.56"
         stop-opacity="0"
         id="stop4" />
    </linearGradient>
    <linearGradient
       id="ToggleSwitchSlideSwitchWhite2"
       x1="-94.08"
       y1="-243.97"
       x2="-207.62"
       y2="-357.51"
       gradientTransform="translate(-100.85 -201.55) rotate(180)"
       xlink:href="#ToggleSwitchSlideSwitchWhite1" />
    <linearGradient
       id="ToggleSwitchSlideSwitchWhite3"
       x1="82.13"
       y1="180.72"
       x2="17.87"
       y2="116.46"
       xlink:href="#ToggleSwitchSlideSwitchWhite1" />
    <linearGradient
       id="ToggleSwitchSlideSwitchWhite4"
       x1="82.13"
       y1="81.92"
       x2="17.87"
       y2="17.66"
       xlink:href="#ToggleSwitchSlideSwitchWhite1"
       gradientTransform="translate(0,-0.63044493)" />
  </defs>
  <vfp:catalogue
     PREFIX="ToggleSwitch"
     CATEGORY="Switches"
     DESC="Slide Switch" />
  <g
     vfp:class="ToggleSwitch"
     id="g41">
    <g
       id="g39">
      <path
         class="bounds"
         d="m 0,148.74 v -99.1 a 50,50 0 0 1 100,0 v 99.11 a 50,50 0 0 1 -100,0 z"
         style="fill:#fffef5"
         id="path12"
         inkscape:connector-curvature="0" />
      <path
         d="m 0,148.74 v -99.1 a 50,50 0 0 1 100,0 v 99.11 a 50,50 0 0 1 -100,0 z"
         style="fill:url(#ToggleSwitchSlideSwitchWhite1)"
         id="path14"
         inkscape:connector-curvature="0" />
      <g
         id="g24">
        <path
           d="m 96.13,51.81 v 94.76 C 96.13,172.74 75.44,194 50,194 24.56,194 3.87,172.74 3.87,146.57 V 51.81 C 3.87,25.64 24.56,4.35 50,4.35 c 25.44,0 46.13,21.29 46.13,47.46 z"
           style="fill:#e30613"
           id="path16"
           inkscape:connector-curvature="0" />
        <path
           d="m 96.13,51.81 v 94.76 C 96.13,172.74 75.44,194 50,194 24.56,194 3.87,172.74 3.87,146.57 V 51.81 C 3.87,25.64 24.56,4.35 50,4.35 c 25.44,0 46.13,21.29 46.13,47.46 z"
           style="fill:url(#ToggleSwitchSlideSwitchWhite2)"
           id="path18"
           inkscape:connector-curvature="0" />
        <circle
           cx="50"
           cy="49.159557"
           r="45.439999"
           style="fill:#fffef5"
           id="circle20" />
        <circle
           cx="50"
           cy="49.159557"
           r="45.439999"
           style="fill:url(#ToggleSwitchSlideSwitchWhite4)"
           id="circle22" />
      </g>
      <g
         id="g34"
         style="display:none">
        <path
           d="m 96.13,51.81 v 94.76 C 96.13,172.74 75.44,194 50,194 24.56,194 3.87,172.74 3.87,146.57 V 51.81 C 3.87,25.64 24.56,4.35 50,4.35 c 25.44,0 46.13,21.29 46.13,47.46 z"
           style="fill:#009640"
           id="path26"
           inkscape:connector-curvature="0" />
        <path
           d="m 96.13,51.81 v 94.76 C 96.13,172.74 75.44,194 50,194 24.56,194 3.87,172.74 3.87,146.57 V 51.81 C 3.87,25.64 24.56,4.35 50,4.35 c 25.44,0 46.13,21.29 46.13,47.46 z"
           style="fill:url(#ToggleSwitchSlideSwitchWhite2)"
           id="path28"
           inkscape:connector-curvature="0" />
        <circle
           cx="50"
           cy="148.59"
           r="45.439999"
           style="fill:#fffef5"
           id="circle30" />
        <circle
           cx="50"
           cy="148.59"
           r="45.439999"
           style="fill:url(#ToggleSwitchSlideSwitchWhite3)"
           id="circle32" />
      </g>
      <text
         class="text"
         id="text5322"
         y="-41.81345"
         x="-28.962091"
         style="font-style:normal;font-variant:normal;font-weight:normal;font-stretch:normal;font-size:27.10623932px;line-height:125%;font-family:Arial;-inkscape-font-specification:Arial;letter-spacing:0px;word-spacing:0px;fill:#000000;fill-opacity:1;stroke:none"
         xml:space="preserve">Label</text>
      <text
         class="text2"
         id="text37"
         y="-41.81345"
         x="-28.962091"
         style="font-style:normal;font-variant:normal;font-weight:normal;font-stretch:normal;font-size:27.10623932px;line-height:125%;font-family:Arial;-inkscape-font-specification:Arial;letter-spacing:0px;word-spacing:0px;fill:#000000;fill-opacity:1;stroke:none"
         xml:space="preserve">Label</text>
    </g>
  </g>
</svg>
