<?xml version="1.0" encoding="UTF-8" standalone="no"?>
<svg
   xmlns:vfp="http://www.labcenter.com/namespaces/vfp"
   xmlns:dc="http://purl.org/dc/elements/1.1/"
   xmlns:cc="http://creativecommons.org/ns#"
   xmlns:rdf="http://www.w3.org/1999/02/22-rdf-syntax-ns#"
   xmlns:svg="http://www.w3.org/2000/svg"
   xmlns="http://www.w3.org/2000/svg"
   xmlns:xlink="http://www.w3.org/1999/xlink"
   xmlns:sodipodi="http://sodipodi.sourceforge.net/DTD/sodipodi-0.dtd"
   xmlns:inkscape="http://www.inkscape.org/namespaces/inkscape"
   viewBox="0 0 175.31 71.5"
   version="1.1"
   id="svg37"
   sodipodi:docname="Gen LEDBarBattery.svg"
   inkscape:version="0.92.1 r15371"
   width="176"
   height="72">
  <metadata
     id="metadata3092">
    <rdf:RDF>
      <cc:Work
         rdf:about="">
        <dc:format>image/svg+xml</dc:format>
        <dc:type
           rdf:resource="http://purl.org/dc/dcmitype/StillImage" />
        <dc:title />
      </cc:Work>
    </rdf:RDF>
  </metadata>
  <sodipodi:namedview
     pagecolor="#ffffff"
     bordercolor="#666666"
     borderopacity="1"
     objecttolerance="10"
     gridtolerance="10"
     guidetolerance="10"
     inkscape:pageopacity="0"
     inkscape:pageshadow="2"
     inkscape:window-width="1027"
     inkscape:window-height="881"
     id="namedview3090"
     showgrid="false"
     inkscape:zoom="1.6656209"
     inkscape:cx="9.4534774"
     inkscape:cy="22.679916"
     inkscape:window-x="759"
     inkscape:window-y="51"
     inkscape:window-maximized="0"
     inkscape:current-layer="Layer_1-2" />
  <defs
     id="defs11">
    <linearGradient
       id="LEDBarBatteryLinearGradient"
       x1="133.55"
       y1="89.709999"
       x2="25.629999"
       y2="-18.209999"
       gradientUnits="userSpaceOnUse">
      <stop
         offset="0"
         stop-opacity="0.3"
         id="stop2" />
      <stop
         offset="0.56"
         stop-opacity="0"
         id="stop4" />
    </linearGradient>
    <linearGradient
       id="LEDBarBatteryLinearGradient-2"
       x1="81.720001"
       y1="57.400002"
       x2="38.419998"
       y2="14.1"
       xlink:href="#LEDBarBatteryLinearGradient" />
    <linearGradient
       id="LEDBarBatteryLinearGradient-3"
       x1="120.22"
       y1="57.400002"
       x2="76.919998"
       y2="14.1"
       xlink:href="#LEDBarBatteryLinearGradient" />
    <linearGradient
       id="LEDBarBatteryLinearGradient-4"
       x1="149.91"
       y1="54.459999"
       x2="112.48"
       y2="17.040001"
       xlink:href="#LEDBarBatteryLinearGradient" />
    <linearGradient
       id="LEDBarBatteryLinearGradient-5"
       x1="46.150002"
       y1="54.459999"
       x2="8.7299995"
       y2="17.040001"
       xlink:href="#LEDBarBatteryLinearGradient" />
    <linearGradient
       inkscape:collect="always"
       xlink:href="#LEDBarBatteryLinearGradient"
       id="linearGradient3723"
       gradientUnits="userSpaceOnUse"
       x1="133.55"
       y1="89.709999"
       x2="25.629999"
       y2="-18.209999" />
    <linearGradient
       id="linearGradient7854-7-0-6-7">
      <stop
         id="stop7856-9-33-2-7"
         offset="0"
         style="stop-color:#ffffff;stop-opacity:1;" />
      <stop
         style="stop-color:#ffffff;stop-opacity:0;"
         offset="0.99999976"
         id="stop7862-5-6-1-9" />
      <stop
         id="stop7858-5-22-6-4"
         offset="1"
         style="stop-color:#ffffff;stop-opacity:0;" />
    </linearGradient>
    <linearGradient
       inkscape:collect="always"
       xlink:href="#linearGradient7854-7-0-6-7"
       id="linearGradient3961"
       gradientUnits="userSpaceOnUse"
       gradientTransform="matrix(1,0,0,0.965035,247.35521,-139.85682)"
       x1="-247.35521"
       y1="181.96931"
       x2="-72.045212"
       y2="181.96931" />
  </defs>
  <vfp:catalogue
     PREFIX="LEDBar"
     CATEGORY="Display Controls"
     DESC="LED Bar Battery" />
  <g
     vfp:class="LEDStrip"
     data-name="Layer 1"
     id="Layer_1-2">
    <path
       class="bounds"
       inkscape:connector-curvature="0"
       id="path15"
       style="fill:#c7c7c7;fill-opacity:1;stroke:#4c5452;stroke-width:3;stroke-miterlimit:4;stroke-opacity:1;stroke-dasharray:none"
       d="M 163.31,16.5 H 158 V 12.64 A 12.67,12.67 0 0 0 145.36,0 H 12.64 A 12.67,12.67 0 0 0 0,12.64 V 58.86 A 12.67,12.67 0 0 0 12.64,71.5 H 145.36 A 12.67,12.67 0 0 0 158,58.86 V 55 h 5.31 a 12,12 0 0 0 12,-12 V 28.5 a 12,12 0 0 0 -12,-12 z" />
    <path
       class="bounds"
       inkscape:connector-curvature="0"
       id="path15-7"
       style="fill:url(#linearGradient3961);fill-opacity:1;stroke:none"
       d="M 163.31,17.173074 H 158 V 13.448048 A 12.67,12.227 0 0 0 145.36,1.2499995 H 12.64 A 12.67,12.227 0 0 0 2.2070316e-7,13.448048 V 58.05195 A 12.67,12.227 0 0 0 12.64,70.25 H 145.36 A 12.67,12.227 0 0 0 158,58.05195 v -3.725025 h 5.31 a 12,11.580425 0 0 0 12,-11.580425 V 28.753499 a 12,11.580425 0 0 0 -12,-11.580425 z" />
    <path
       inkscape:connector-curvature="0"
       id="path17"
       style="fill:url(#linearGradient3723)"
       d="M 163.31,16.5 H 158 V 12.64 A 12.67,12.67 0 0 0 145.36,0 H 12.64 A 12.67,12.67 0 0 0 0,12.64 V 58.86 A 12.67,12.67 0 0 0 12.64,71.5 H 145.36 A 12.67,12.67 0 0 0 158,58.86 V 55 h 5.31 a 12,12 0 0 0 12,-12 V 28.5 a 12,12 0 0 0 -12,-12 z" />
    <path
       class="LED"
       inkscape:connector-curvature="0"
       id="path25"
       style="fill:#3aaa35;stroke:#4c5452;stroke-width:0.77200000999999996;stroke-miterlimit:4;stroke-opacity:1;stroke-dasharray:none"
       d="M 35.49,6.38 H 26.17 A 16.49,16.49 0 0 0 9.74,22.81 v 25.88 a 16.49,16.49 0 0 0 16.43,16.44 h 9.32 z"
       inkscape:label="0" />
    <rect
       class="LED"
       id="rect19"
       style="fill:#3aaa35;stroke:#4c5452;stroke-width:0.77200000999999996;stroke-miterlimit:4;stroke-opacity:1;stroke-dasharray:none"
       height="58.75"
       width="27.84"
       y="6.3800001"
       x="46.150002" />
    <rect
       class="LED"
       id="rect21"
       style="fill:#6a0f08;stroke:#4c5452;stroke-width:0.77200000999999996;stroke-miterlimit:4;stroke-opacity:1;stroke-dasharray:none"
       height="58.75"
       width="27.84"
       y="6.3800001"
       x="84.650002" />
    <path
       class="LED"
       inkscape:connector-curvature="0"
       id="path23"
       style="fill:#6a0f08;stroke:#4c5452;stroke-width:0.77200000999999996;stroke-miterlimit:4;stroke-opacity:1;stroke-dasharray:none"
       d="m 132.46,6.38 h -9.32 v 58.75 h 9.32 A 16.49,16.49 0 0 0 148.9,48.69 V 22.81 A 16.49,16.49 0 0 0 132.46,6.38 z"
       inkscape:label="4" />
    <rect
       id="rect27"
       style="fill:url(#LEDBarBatteryLinearGradient-2)"
       height="58.75"
       width="27.84"
       y="6.3800001"
       x="46.150002" />
    <rect
       id="rect29"
       style="fill:url(#LEDBarBatteryLinearGradient-3)"
       height="58.75"
       width="27.84"
       y="6.3800001"
       x="84.650002" />
    <path
       inkscape:connector-curvature="0"
       id="path31"
       style="fill:url(#LEDBarBatteryLinearGradient-4)"
       d="m 132.46,6.38 h -9.32 v 58.75 h 9.32 A 16.49,16.49 0 0 0 148.9,48.69 V 22.81 A 16.49,16.49 0 0 0 132.46,6.38 z" />
    <path
       inkscape:connector-curvature="0"
       id="path33"
       style="fill:url(#LEDBarBatteryLinearGradient-5)"
       d="M 35.49,6.38 H 26.17 A 16.49,16.49 0 0 0 9.74,22.81 v 25.88 a 16.49,16.49 0 0 0 16.43,16.44 h 9.32 z" />
    <text
       id="text73"
       y="97.407135"
       x="89.940872"
       style="font-style:normal;font-variant:normal;font-weight:normal;font-stretch:normal;font-size:14.99962941px;line-height:0%;font-family:sans-serif;-inkscape-font-specification:'sans-serif, Normal';text-anchor:middle;stroke-width:0.5;text-align:center;writing-mode:lr;font-variant-ligatures:normal;font-variant-caps:normal;font-variant-numeric:normal;font-feature-settings:normal;">50%</text>
  </g>
</svg>
