<?xml version="1.0" encoding="UTF-8" standalone="no"?>
<svg
   xmlns:vfp="http://www.labcenter.com/namespaces/vfp"
   xmlns:dc="http://purl.org/dc/elements/1.1/"
   xmlns:cc="http://creativecommons.org/ns#"
   xmlns:rdf="http://www.w3.org/1999/02/22-rdf-syntax-ns#"
   xmlns:svg="http://www.w3.org/2000/svg"
   xmlns="http://www.w3.org/2000/svg"
   xmlns:xlink="http://www.w3.org/1999/xlink"
   xmlns:sodipodi="http://sodipodi.sourceforge.net/DTD/sodipodi-0.dtd"
   xmlns:inkscape="http://www.inkscape.org/namespaces/inkscape"
   viewBox="0 0 175.31 71.5"
   version="1.1"
   id="svg37"
   sodipodi:docname="LEDBarBattery.svg"
   inkscape:version="0.92.1 r15371">
  
  <defs
     id="defs11">
    <linearGradient
       id="LEDBarBatteryLinearGradient"
       x1="133.55"
       y1="89.71"
       x2="25.63"
       y2="-18.21"
       gradientUnits="userSpaceOnUse">
      <stop
         offset="0"
         stop-opacity="0.3"
         id="stop2" />
      <stop
         offset="0.56"
         stop-opacity="0"
         id="stop4" />
    </linearGradient>
    <linearGradient
       id="LEDBarBatteryLinearGradient-2"
       x1="81.72"
       y1="57.4"
       x2="38.42"
       y2="14.1"
       xlink:href="#LEDBarBatteryLinearGradient" />
    <linearGradient
       id="LEDBarBatteryLinearGradient-3"
       x1="120.22"
       y1="57.4"
       x2="76.92"
       y2="14.1"
       xlink:href="#LEDBarBatteryLinearGradient" />
    <linearGradient
       id="LEDBarBatteryLinearGradient-4"
       x1="149.91"
       y1="54.46"
       x2="112.48"
       y2="17.04"
       xlink:href="#LEDBarBatteryLinearGradient" />
    <linearGradient
       id="LEDBarBatteryLinearGradient-5"
       x1="46.15"
       y1="54.46"
       x2="8.73"
       y2="17.04"
       xlink:href="#LEDBarBatteryLinearGradient" />
    <linearGradient
       inkscape:collect="always"
       xlink:href="#LEDBarBatteryLinearGradient"
       id="linearGradientLEDBarBatteryLinearGradient"
       gradientUnits="userSpaceOnUse"
       x1="133.55"
       y1="89.71"
       x2="25.63"
       y2="-18.21" />
  </defs>
 
 <vfp:catalogue
     PREFIX="LEDBar"
     CATEGORY="Display Controls"
     DESC="LED Bar Battery"
	 THEME="Modern" />
 
  <g vfp:class="LEDStrip"
     data-name="Layer 1"
     id="Layer_1-2">
    <path
	   class="bounds"
       inkscape:connector-curvature="0"
       id="path15"
       style="fill:#ffffff"
       d="M 163.31,16.5 H 158 V 12.64 A 12.67,12.67 0 0 0 145.36,0 H 12.64 A 12.67,12.67 0 0 0 0,12.64 V 58.86 A 12.67,12.67 0 0 0 12.64,71.5 H 145.36 A 12.67,12.67 0 0 0 158,58.86 V 55 h 5.31 a 12,12 0 0 0 12,-12 V 28.5 a 12,12 0 0 0 -12,-12 z" />
    <path
       inkscape:connector-curvature="0"
       id="path17"
       style="fill:url(#LEDBarBatteryLinearGradient-4)"
       d="M 163.31,16.5 H 158 V 12.64 A 12.67,12.67 0 0 0 145.36,0 H 12.64 A 12.67,12.67 0 0 0 0,12.64 V 58.86 A 12.67,12.67 0 0 0 12.64,71.5 H 145.36 A 12.67,12.67 0 0 0 158,58.86 V 55 h 5.31 a 12,12 0 0 0 12,-12 V 28.5 a 12,12 0 0 0 -12,-12 z" />
    <path
	   class="LED"
       inkscape:connector-curvature="0"
       id="path25"
       style="fill:#3aaa35"
       d="M 35.49,6.38 H 26.17 A 16.49,16.49 0 0 0 9.74,22.81 v 25.88 a 16.49,16.49 0 0 0 16.43,16.44 h 9.32 z"
       inkscape:label="0" />
    <rect
	   class="LED"
       id="rect19"
       style="fill:#3aaa35"
       height="58.75"
       width="27.84"
       y="6.3800001"
       x="46.150002" />
    <rect
	   class="LED"
       id="rect21"
       style="fill:#6a0f08"
       height="58.75"
       width="27.84"
       y="6.3800001"
       x="84.650002" />
    <path
	   class="LED"
       inkscape:connector-curvature="0"
       id="path23"
       style="fill:#6a0f08"
       d="m 132.46,6.38 h -9.32 v 58.75 h 9.32 A 16.49,16.49 0 0 0 148.9,48.69 V 22.81 A 16.49,16.49 0 0 0 132.46,6.38 Z"
       inkscape:label="4" />
    <rect
       id="rect27"
       style="fill:url(#LEDBarBatteryLinearGradient-2)"
       height="58.75"
       width="27.84"
       y="6.3800001"
       x="46.150002" />
    <rect
       id="rect29"
       style="fill:url(#LEDBarBatteryLinearGradient-3)"
       height="58.75"
       width="27.84"
       y="6.3800001"
       x="84.650002" />
    <path
       inkscape:connector-curvature="0"
       id="path31"
       style="fill:url(#LEDBarBatteryLinearGradient-4)"
       d="m 132.46,6.38 h -9.32 v 58.75 h 9.32 A 16.49,16.49 0 0 0 148.9,48.69 V 22.81 A 16.49,16.49 0 0 0 132.46,6.38 Z" />
    <path
       inkscape:connector-curvature="0"
       id="path33"
       style="fill:url(#LEDBarBatteryLinearGradient-5)"
       d="M 35.49,6.38 H 26.17 A 16.49,16.49 0 0 0 9.74,22.81 v 25.88 a 16.49,16.49 0 0 0 16.43,16.44 h 9.32 z" />
    <text
       id="text73"
       y="97.407135"
       x="89.940872"
       style="font-size:15px;font-family:sans-serif;text-anchor:middle;stroke-width:0.5">50%</text>
  </g>
</svg>
