<?xml version="1.0" encoding="UTF-8" standalone="no"?>
<svg
   xmlns:vfp="http://www.labcenter.com/namespaces/vfp"
   xmlns:dc="http://purl.org/dc/elements/1.1/"
   xmlns:cc="http://creativecommons.org/ns#"
   xmlns:rdf="http://www.w3.org/1999/02/22-rdf-syntax-ns#"
   xmlns:svg="http://www.w3.org/2000/svg"
   xmlns="http://www.w3.org/2000/svg"
   xmlns:xlink="http://www.w3.org/1999/xlink"
   xmlns:sodipodi="http://sodipodi.sourceforge.net/DTD/sodipodi-0.dtd"
   xmlns:inkscape="http://www.inkscape.org/namespaces/inkscape"
   viewBox="0 0 122.46 118.22"
   version="1.1"
   id="svg51"
   sodipodi:docname="LEDBarWiFi.svg"
   inkscape:version="0.92.1 r15371">
  <defs
     id="defs17">
    <linearGradient
       id="LEDBarWiFiLinearGradient"
       x1="102.2"
       y1="85.66"
       x2="20.26"
       y2="3.72"
       gradientUnits="userSpaceOnUse">
      <stop
         offset="0"
         stop-opacity="0.3"
         id="stop2" />
      <stop
         offset="0.56"
         stop-opacity="0"
         id="stop4" />
    </linearGradient>
    <linearGradient
       id="LEDBarWiFiLinearGradient-2"
       x1="100.3"
       y1="84.05"
       x2="22.16"
       y2="5.91"
       gradientUnits="userSpaceOnUse">
      <stop
         offset="0"
         stop-opacity="0.2"
         id="stop7" />
      <stop
         offset="1"
         id="stop9" />
    </linearGradient>
    <linearGradient
       id="LEDBarWiFiLinearGradient-3"
       x1="68.94"
       y1="101.19"
       x2="53.51"
       y2="85.76"
       xlink:href="#LEDBarWiFiLinearGradient" />
    <linearGradient
       id="LEDBarWiFiLinearGradient-4"
       x1="85.34"
       y1="59.55"
       x2="37.12"
       y2="11.33"
       xlink:href="#LEDBarWiFiLinearGradient" />
    <linearGradient
       id="LEDBarWiFiLinearGradient-5"
       x1="82.29"
       y1="70.66"
       x2="40.16"
       y2="28.53"
       xlink:href="#LEDBarWiFiLinearGradient" />
    <linearGradient
       id="LEDBarWiFiLinearGradient-6"
       x1="78.9"
       y1="81.27"
       x2="43.56"
       y2="45.94"
       xlink:href="#LEDBarWiFiLinearGradient" />
    <linearGradient
       id="LEDBarWiFiLinearGradient-7"
       x1="74.55"
       y1="90.55"
       x2="47.9"
       y2="63.9"
       xlink:href="#LEDBarWiFiLinearGradient" />
    <linearGradient
       inkscape:collect="always"
       xlink:href="#LEDBarWiFiLinearGradient"
       id="linearGradient3760"
       gradientUnits="userSpaceOnUse"
       x1="102.2"
       y1="85.66"
       x2="20.26"
       y2="3.72" />
  </defs>
 
 <vfp:catalogue
     PREFIX="LEDBar"
     CATEGORY="Display Controls"
     DESC="LED Bar WiFi" 
	 THEME="Modern"/>
 
  <g vfp:class="LEDStrip"
     data-name="Layer 1"
     id="Layer_1-2">
    <path
	   class="bounds"
       inkscape:connector-curvature="0"
       id="path21"
       style="fill:#ffffff"
       d="m 120.63,36 -43.15,73.65 c -6.7,11.43 -25.81,11.43 -32.51,0 L 1.82,36 C -2.67,28.35 1.56,20.19 10,15.2 q 51.27,-30.4 102.53,0 c 8.37,4.99 12.59,13.15 8.1,20.8 z" />
    <path
       inkscape:connector-curvature="0"
       id="path23"
       style="fill:url(#linearGradient3760)"
       d="m 120.63,36 -43.15,73.65 c -6.7,11.43 -25.81,11.43 -32.51,0 L 1.82,36 C -2.67,28.35 1.56,20.19 10,15.2 q 51.27,-30.4 102.53,0 c 8.37,4.99 12.59,13.15 8.1,20.8 z" />
    <path
       inkscape:connector-curvature="0"
       id="path25"
       style="fill:#ffffff"
       d="M 117.58,36.48 76.65,107 c -6.35,10.94 -24.48,10.94 -30.83,0 L 4.87,36.48 C 0.61,29.14 4.63,21.33 12.6,16.55 q 48.63,-29.11 97.26,0 c 7.97,4.78 11.98,12.59 7.72,19.93 z" />
    <path
       inkscape:connector-curvature="0"
       id="path27"
       style="opacity:0.15;fill:url(#LEDBarWiFiLinearGradient-2)"
       d="M 117.58,36.48 76.65,107 c -6.35,10.94 -24.48,10.94 -30.83,0 L 4.87,36.48 C 0.61,29.14 4.63,21.33 12.6,16.55 q 48.63,-29.11 97.26,0 c 7.97,4.78 11.98,12.59 7.72,19.93 z" />
    <circle
	   class="LED"
       id="circle29"
       style="fill:#009fe3"
       r="10.91"
       cy="93.290001"
       cx="61.23" />
    <path
	   class="LED"
       inkscape:connector-curvature="0"
       id="path37"
       style="fill:#009fe3"
       d="m 82.93,80.53 a 3.49,3.49 0 0 1 -2.47,-1 27.19,27.19 0 0 0 -38.45,0 3.5001786,3.5001786 0 0 1 -4.95,-4.95 34.19,34.19 0 0 1 48.35,0 3.5,3.5 0 0 1 -2.47,6 z" />
    <path
	   class="LED"
       inkscape:connector-curvature="0"
       id="path35"
       style="fill:#009fe3"
       d="m 91.61,66.91 a 3.49,3.49 0 0 1 -2.47,-1 39.47,39.47 0 0 0 -55.82,0 3.5001786,3.5001786 0 1 1 -4.95,-4.95 46.47,46.47 0 0 1 65.72,0 3.5,3.5 0 0 1 -2.47,6 z" />
    <path
	   class="LED"
       inkscape:connector-curvature="0"
       id="path33"
       style="fill:#606f77"
       d="m 98.41,52.91 a 3.49,3.49 0 0 1 -2.47,-1 49.09,49.09 0 0 0 -69.42,0 3.5001786,3.5001786 0 0 1 -4.95,-4.95 56.08,56.08 0 0 1 79.32,0 3.5,3.5 0 0 1 -2.47,6 z" />
    <path
	   class="LED"
       inkscape:connector-curvature="0"
       id="path31"
       style="fill:#606f77"
       d="m 104.49,38.75 a 3.49,3.49 0 0 1 -2.47,-1 57.69,57.69 0 0 0 -81.58,0 3.5001786,3.5001786 0 0 1 -4.95,-4.95 64.69,64.69 0 0 1 91.48,0 3.5,3.5 0 0 1 -2.47,6 z"
       inkscape:label="5" />
    <circle
       id="circle39"
       style="fill:url(#LEDBarWiFiLinearGradient-3)"
       r="10.91"
       cy="93.480003"
       cx="61.23" />
    <path
       inkscape:connector-curvature="0"
       id="path41"
       style="fill:url(#LEDBarWiFiLinearGradient-4)"
       d="m 104.49,38.94 a 3.49,3.49 0 0 1 -2.47,-1 57.69,57.69 0 0 0 -81.58,0 3.5,3.5 0 0 1 -4.95,-4.94 64.69,64.69 0 0 1 91.51,0 3.5,3.5 0 0 1 -2.47,6 z" />
    <path
       inkscape:connector-curvature="0"
       id="path43"
       style="fill:url(#LEDBarWiFiLinearGradient-5)"
       d="m 98.41,53.1 a 3.49,3.49 0 0 1 -2.47,-1 49.09,49.09 0 0 0 -69.42,0 3.5001786,3.5001786 0 0 1 -4.95,-4.95 56.08,56.08 0 0 1 79.32,0 3.5,3.5 0 0 1 -2.47,6 z" />
    <path
       inkscape:connector-curvature="0"
       id="path45"
       style="fill:url(#LEDBarWiFiLinearGradient-6)"
       d="m 91.61,67.1 a 3.49,3.49 0 0 1 -2.47,-1 39.47,39.47 0 0 0 -55.82,0 3.5001786,3.5001786 0 0 1 -4.95,-4.95 46.47,46.47 0 0 1 65.72,0 3.5,3.5 0 0 1 -2.47,6 z" />
    <path
       inkscape:connector-curvature="0"
       id="path47"
       style="fill:url(#LEDBarWiFiLinearGradient-7)"
       d="m 82.93,80.72 a 3.49,3.49 0 0 1 -2.47,-1 A 27.19,27.19 0 0 0 42,79.7 a 3.5001786,3.5001786 0 0 1 -4.95,-4.95 34.19,34.19 0 0 1 48.35,0 3.5,3.5 0 0 1 -2.47,6 z" />
    <text
       id="text73"
       y="165.25757"
       x="60.956261"
       style="font-size:15px;font-family:sans-serif;text-anchor:middle;stroke-width:0.5">50%</text>
  </g>
</svg>
