<?xml version="1.0" encoding="UTF-8" standalone="no"?>
<svg
   xmlns:vfp="http://www.labcenter.com/namespaces/vfp"
   xmlns:dc="http://purl.org/dc/elements/1.1/"
   xmlns:cc="http://creativecommons.org/ns#"
   xmlns:rdf="http://www.w3.org/1999/02/22-rdf-syntax-ns#"
   xmlns:svg="http://www.w3.org/2000/svg"
   xmlns="http://www.w3.org/2000/svg"
   xmlns:xlink="http://www.w3.org/1999/xlink"
   xmlns:sodipodi="http://sodipodi.sourceforge.net/DTD/sodipodi-0.dtd"
   xmlns:inkscape="http://www.inkscape.org/namespaces/inkscape"
   viewBox="0 0 111.14017 81.851473"
   version="1.1"
   id="svg4792"
   sodipodi:docname="Signal.svg"
   inkscape:version="0.92.1 r15371"
   width="111.14017"
   height="81.851471">
  <sodipodi:namedview
     pagecolor="#ffffff"
     bordercolor="#666666"
     borderopacity="1"
     objecttolerance="10"
     gridtolerance="10"
     guidetolerance="10"
     inkscape:pageopacity="0"
     inkscape:pageshadow="2"
     inkscape:window-width="1920"
     inkscape:window-height="1017"
     id="namedview4794"
     showgrid="false"
     inkscape:zoom="6.1100323"
     inkscape:cx="25.522543"
     inkscape:cy="25.724932"
     inkscape:window-x="-8"
     inkscape:window-y="-8"
     inkscape:window-maximized="1"
     inkscape:current-layer="Layer_2-9" />
  <defs
     id="defs194">
    <linearGradient
       gradientUnits="userSpaceOnUse"
       y2="25.83"
       x2="176.84"
       y1="25.83"
       x1="125.19"
       data-name="Chrome 05"
       id="Chrome_05">
      <stop
         id="stop4615"
         stop-color="#bfc1c6"
         offset="0" />
      <stop
         id="stop4617"
         stop-color="#b8babe"
         offset="0.02" />
      <stop
         id="stop4619"
         stop-color="#a3a6a9"
         offset="0.05" />
      <stop
         id="stop4621"
         stop-color="#909395"
         offset="0.08" />
      <stop
         id="stop4623"
         stop-color="#a9abad"
         offset="0.08" />
      <stop
         id="stop4625"
         stop-color="#c4c5c6"
         offset="0.09" />
      <stop
         id="stop4627"
         stop-color="#dadbdb"
         offset="0.1" />
      <stop
         id="stop4629"
         stop-color="#ebebeb"
         offset="0.1" />
      <stop
         id="stop4631"
         stop-color="#f6f7f7"
         offset="0.11" />
      <stop
         id="stop4633"
         stop-color="#fdfdfd"
         offset="0.13" />
      <stop
         id="stop4635"
         stop-color="#fff"
         offset="0.16" />
      <stop
         id="stop4637"
         stop-color="#f2f2f3"
         offset="0.18" />
      <stop
         id="stop4639"
         stop-color="#d0d1d4"
         offset="0.2" />
      <stop
         id="stop4641"
         stop-color="#9a9ba2"
         offset="0.23" />
      <stop
         id="stop4643"
         stop-color="#6a6c75"
         offset="0.25" />
      <stop
         id="stop4645"
         stop-color="#6b6d76"
         offset="0.25" />
      <stop
         id="stop4647"
         stop-color="#7b7e85"
         offset="0.26" />
      <stop
         id="stop4649"
         stop-color="#87898f"
         offset="0.27" />
      <stop
         id="stop4651"
         stop-color="#8d9095"
         offset="0.29" />
      <stop
         id="stop4653"
         stop-color="#8f9297"
         offset="0.35" />
      <stop
         id="stop4655"
         stop-color="#8b8e93"
         offset="0.36" />
      <stop
         id="stop4657"
         stop-color="#808488"
         offset="0.38" />
      <stop
         id="stop4659"
         stop-color="#6e7276"
         offset="0.4" />
      <stop
         id="stop4661"
         stop-color="#54585c"
         offset="0.41" />
      <stop
         id="stop4663"
         stop-color="#4d5155"
         offset="0.42" />
      <stop
         id="stop4665"
         stop-color="#696c70"
         offset="0.44" />
      <stop
         id="stop4667"
         stop-color="#848589"
         offset="0.46" />
      <stop
         id="stop4669"
         stop-color="#9a9a9e"
         offset="0.49" />
      <stop
         id="stop4671"
         stop-color="#abaaae"
         offset="0.52" />
      <stop
         id="stop4673"
         stop-color="#b6b6ba"
         offset="0.55" />
      <stop
         id="stop4675"
         stop-color="#bdbcc0"
         offset="0.61" />
      <stop
         id="stop4677"
         stop-color="#bfbec2"
         offset="0.75" />
      <stop
         id="stop4679"
         stop-color="#bdbcc0"
         offset="0.8" />
      <stop
         id="stop4681"
         stop-color="#b6b6b9"
         offset="0.82" />
      <stop
         id="stop4683"
         stop-color="#abaaae"
         offset="0.83" />
      <stop
         id="stop4685"
         stop-color="#9a9a9d"
         offset="0.85" />
      <stop
         id="stop4687"
         stop-color="#858487"
         offset="0.85" />
      <stop
         id="stop4689"
         stop-color="#6a6a6b"
         offset="0.86" />
      <stop
         id="stop4691"
         stop-color="#4a4b4b"
         offset="0.87" />
      <stop
         id="stop4693"
         stop-color="#262727"
         offset="0.88" />
      <stop
         id="stop4695"
         stop-color="#1a1b1a"
         offset="0.88" />
      <stop
         id="stop4697"
         stop-color="#1a1b1a"
         offset="0.93" />
      <stop
         id="stop4699"
         stop-color="#3c3d3d"
         offset="0.93" />
      <stop
         id="stop4701"
         stop-color="#5d5f60"
         offset="0.94" />
      <stop
         id="stop4703"
         stop-color="#797c7d"
         offset="0.95" />
      <stop
         id="stop4705"
         stop-color="#8f9293"
         offset="0.96" />
      <stop
         id="stop4707"
         stop-color="#9ea1a3"
         offset="0.97" />
      <stop
         id="stop4709"
         stop-color="#a7aaac"
         offset="0.98" />
      <stop
         id="stop4711"
         stop-color="#aaadaf"
         offset="1" />
    </linearGradient>
    <linearGradient
       inkscape:collect="always"
       xlink:href="#Chrome_05"
       id="linearGradient5882"
       x1="-0.00016381843"
       y1="40.944275"
       x2="111.14"
       y2="40.944275"
       gradientUnits="userSpaceOnUse" />
    <linearGradient
       gradientUnits="userSpaceOnUse"
       y2="86.089996"
       x2="114.25"
       y1="86.089996"
       x1="62.599998"
       data-name="GradientFill 16"
       id="GradientFill_16">
      <stop
         id="stop4808"
         stop-color="#3a4346"
         offset="0" />
      <stop
         id="stop4810"
         stop-color="#cedde6"
         offset="0.17" />
      <stop
         id="stop4812"
         stop-color="#63747e"
         offset="0.33" />
      <stop
         id="stop4814"
         stop-color="#fff"
         offset="0.47" />
      <stop
         id="stop4816"
         stop-color="#515453"
         offset="0.78" />
      <stop
         id="stop4818"
         stop-color="#4c5a60"
         offset="0.85" />
      <stop
         id="stop4820"
         stop-color="#fff"
         offset="0.96" />
      <stop
         id="stop4822"
         stop-color="#fff"
         offset="1" />
    </linearGradient>
    <linearGradient
       gradientTransform="matrix(0.85987378,0,0,1,2.6708054,0)"
       y2="70.080002"
       x2="28.469999"
       y1="70.080002"
       x1="9.6499996"
       gradientUnits="userSpaceOnUse"
       id="Signal1-2-697"
       xlink:href="#GradientFill_16"
       inkscape:collect="always" />
    <linearGradient
       gradientTransform="matrix(0.85987378,0,0,1,2.6708054,0)"
       y2="70.080002"
       x2="27.9"
       y1="70.080002"
       x1="10.22"
       gradientUnits="userSpaceOnUse"
       id="Signal1-2-699"
       xlink:href="#GradientFill_18"
       inkscape:collect="always" />
    <linearGradient
       gradientUnits="userSpaceOnUse"
       y2="86.089996"
       x2="176.84"
       y1="86.089996"
       x1="125.19"
       data-name="GradientFill 18"
       id="GradientFill_18">
      <stop
         id="stop4825"
         stop-color="#dff2fd"
         offset="0" />
      <stop
         id="stop4827"
         stop-color="#84898e"
         offset="0.21" />
      <stop
         id="stop4829"
         stop-color="#545758"
         offset="0.43" />
      <stop
         id="stop4831"
         stop-color="#fff"
         offset="0.64" />
      <stop
         id="stop4833"
         stop-color="#dbe4ec"
         offset="0.74" />
      <stop
         id="stop4835"
         stop-color="#8297a7"
         offset="1" />
    </linearGradient>
    <linearGradient
       gradientTransform="matrix(0.85987378,0,0,1,5.4719285,0)"
       xlink:href="#GradientFill_16"
       y2="63.25"
       x2="48.459999"
       y1="63.25"
       x1="29.639999"
       id="Signal1-29-2" />
    <linearGradient
       gradientTransform="matrix(0.85987378,0,0,1,5.4719285,0)"
       xlink:href="#GradientFill_18"
       y2="63.25"
       x2="47.889999"
       y1="63.25"
       x1="30.209999"
       id="Signal1-17-2" />
    <linearGradient
       gradientTransform="matrix(0.85987378,0,0,1,8.2716504,0)"
       xlink:href="#GradientFill_16"
       y2="56.84"
       x2="68.449997"
       y1="56.84"
       x1="49.630001"
       id="Signal1-29-3" />
    <linearGradient
       gradientTransform="matrix(0.85987378,0,0,1,8.2716504,0)"
       xlink:href="#GradientFill_18"
       y2="56.84"
       x2="67.879997"
       y1="56.84"
       x1="50.200001"
       id="Signal1-17-3" />
    <linearGradient
       gradientTransform="matrix(0.85987397,0,0,1,11.07276,0)"
       xlink:href="#GradientFill_16"
       y2="49.419998"
       x2="88.440002"
       y1="49.419998"
       x1="69.620003"
       id="Signal1-29-4" />
    <linearGradient
       gradientTransform="matrix(0.85987397,0,0,1,11.07276,0)"
       xlink:href="#GradientFill_18"
       y2="49.419998"
       x2="87.870003"
       y1="49.419998"
       x1="70.190002"
       id="Signal1-17-4" />
    <linearGradient
       gradientTransform="matrix(0.85987397,0,0,1,13.87388,0)"
       xlink:href="#GradientFill_16"
       y2="42"
       x2="108.43"
       y1="42"
       x1="89.610001"
       id="Signal1-29-5" />
    <linearGradient
       gradientTransform="matrix(0.85987397,0,0,1,13.87388,0)"
       xlink:href="#GradientFill_18"
       y2="42"
       x2="107.86"
       y1="42"
       x1="90.18"
       id="Signal1-17-5" />
    <linearGradient
       gradientTransform="matrix(0.85987378,0,0,1,2.6708054,0)"
       y2="70.080002"
       x2="27.33"
       y1="70.080002"
       x1="10.79"
       gradientUnits="userSpaceOnUse"
       id="Signal1-2-701"
       xlink:href="#Signal1-2-"
       inkscape:collect="always" />
    <linearGradient
       gradientUnits="userSpaceOnUse"
       y2="70.080002"
       x2="27.33"
       y1="70.080002"
       x1="10.79"
       id="Signal1-2-">
      <stop
         id="stop132"
         stop-opacity="0.4"
         stop-color="#fff"
         offset="0" />
      <stop
         id="stop134"
         stop-opacity="0"
         stop-color="#fff"
         offset="1" />
    </linearGradient>
    <linearGradient
       gradientTransform="matrix(0.85987378,0,0,1,5.4719285,0)"
       xlink:href="#Signal1-2-"
       y2="63.25"
       x2="47.32"
       y1="63.25"
       x1="30.780001"
       id="Signal1-2--2" />
    <linearGradient
       gradientTransform="matrix(0.85987378,0,0,1,8.2716504,0)"
       xlink:href="#Signal1-2-"
       y2="56.84"
       x2="67.309998"
       y1="56.84"
       x1="50.77"
       id="Signal1-2--3" />
    <linearGradient
       gradientTransform="matrix(0.85987397,0,0,1,11.07276,0)"
       xlink:href="#Signal1-2-"
       y2="49.419998"
       x2="87.300003"
       y1="49.419998"
       x1="70.760002"
       id="Signal1-2--4" />
    <linearGradient
       gradientTransform="matrix(0.85987397,0,0,1,13.87388,0)"
       xlink:href="#Signal1-2-"
       y2="42"
       x2="107.29"
       y1="42"
       x1="90.75"
       id="Signal1-2--5" />
  </defs>
  <metadata
     id="metadata4637">
    <rdf:RDF>
      <cc:Work
         rdf:about="">
        <dc:title></dc:title>
        <dc:format>image/svg+xml</dc:format>
        <dc:type
           rdf:resource="http://purl.org/dc/dcmitype/StillImage" />
      </cc:Work>
    </rdf:RDF>
  </metadata>
  <vfp:catalogue
     PREFIX="LEDBar"
     CATEGORY="Display Controls"
     DESC="Signal Indicator" />
  <g
     vfp:class="LEDStrip"
     data-name="Layer 2"
     id="Layer_2-9"
     transform="translate(1.6381844e-4,-0.01853897)">
    <path
       class="bounds"
       sodipodi:insensitive="true"
       d="m 110.57,4 v 73.88 a 3.42,3.42 0 0 1 -3.42,3.42 H 4 A 3.42,3.42 0 0 1 2,75.1 L 105.16,1.22 A 3.42,3.42 0 0 1 110.57,4 Z"
       stroke-miterlimit="10"
       id="path145"
       style="fill:url(#linearGradient5882);fill-opacity:1;stroke:url(#linearGradient5882);stroke-width:1.13999999;stroke-miterlimit:10;stroke-opacity:1"
       inkscape:connector-curvature="0" />
    <g
       id="LED Frames-6">
      <path
         inkscape:connector-curvature="0"
         style="fill:url(#Signal1-2-697);fill-opacity:1;stroke-width:0.92729378"
         id="path147"
         d="m 13.298845,78.64 a 2.3302579,2.71 0 0 1 -2.330258,-2.71 v -2.74 a 2.3216592,2.7 0 0 1 1.031849,-2.25 l 11.530907,-9 a 2.3044617,2.68 0 0 1 1.289811,-0.46 2.3302579,2.71 0 0 1 2.330258,2.71 v 11.75 a 2.3302579,2.71 0 0 1 -2.330258,2.71 z" />
      <path
         inkscape:connector-curvature="0"
         style="fill:url(#Signal1-2-699);fill-opacity:1;stroke-width:0.92729378"
         id="path149"
         d="m 13.298845,78.07 a 1.8401299,2.14 0 0 1 -1.84013,-2.14 v -2.74 a 1.8315312,2.13 0 0 1 0.816881,-1.78 l 11.530907,-9 a 1.8229324,2.12 0 0 1 1.014651,-0.36 1.8401299,2.14 0 0 1 1.84013,2.14 v 11.75 a 1.8401299,2.14 0 0 1 -1.84013,2.14 z" />
      <path
         inkscape:connector-curvature="0"
         style="fill:url(#Signal1-29-2);fill-opacity:1;stroke-width:0.92729378"
         id="path153"
         d="M 33.288845,78.64 A 2.3302579,2.71 0 0 1 30.958587,75.93 V 59.54 a 2.3216592,2.7 0 0 1 1.031849,-2.25 l 11.530907,-9 a 2.3044617,2.68 0 0 1 1.289811,-0.46 2.3302579,2.71 0 0 1 2.330258,2.71 v 25.4 a 2.3302579,2.71 0 0 1 -2.330258,2.71 z" />
      <path
         inkscape:connector-curvature="0"
         style="fill:url(#Signal1-17-2);fill-opacity:1;stroke-width:0.92729378"
         id="path155"
         d="m 33.288845,78.07 a 1.8401299,2.14 0 0 1 -1.84013,-2.14 V 59.54 a 1.8315312,2.13 0 0 1 0.816881,-1.78 l 11.530907,-9 a 1.8229324,2.12 0 0 1 1.014651,-0.36 1.8401299,2.14 0 0 1 1.84013,2.14 v 25.4 a 1.8401299,2.14 0 0 1 -1.84013,2.14 z" />
      <path
         inkscape:connector-curvature="0"
         style="fill:url(#Signal1-29-3);fill-opacity:1;stroke-width:0.92729378"
         id="path159"
         d="M 53.268845,78.64 A 2.3302579,2.71 0 0 1 50.938587,75.93 V 46.7 a 2.3216592,2.7 0 0 1 1.031849,-2.25 l 11.530907,-9 a 2.3044617,2.68 0 0 1 1.289811,-0.46 2.3302579,2.71 0 0 1 2.330258,2.71 v 38.24 a 2.3302579,2.71 0 0 1 -2.330258,2.71 z" />
      <path
         inkscape:connector-curvature="0"
         style="fill:url(#Signal1-17-3);fill-opacity:1;stroke-width:0.92729378"
         id="path161"
         d="m 53.268845,78.07 a 1.8401299,2.14 0 0 1 -1.84013,-2.14 V 46.7 a 1.8315312,2.13 0 0 1 0.816881,-1.78 l 11.530907,-9 a 1.8229324,2.12 0 0 1 1.014651,-0.36 1.8401299,2.14 0 0 1 1.84013,2.14 v 38.24 a 1.8401299,2.14 0 0 1 -1.84013,2.14 z" />
      <path
         inkscape:connector-curvature="0"
         style="fill:url(#Signal1-29-4);fill-opacity:1;stroke-width:0.9272939"
         id="path165"
         d="M 73.258846,78.64 A 2.3302585,2.71 0 0 1 70.928587,75.93 V 31.86 a 2.3216597,2.7 0 0 1 1.031849,-2.25 l 11.53091,-9 a 2.3216597,2.7 0 0 1 3.62007,2.25 v 53 a 2.3302585,2.71 0 0 1 -2.330259,2.71 z" />
      <path
         inkscape:connector-curvature="0"
         style="fill:url(#Signal1-17-4);fill-opacity:1;stroke-width:0.9272939"
         id="path167"
         d="m 73.258846,78.07 a 1.8401303,2.14 0 0 1 -1.84013,-2.14 V 31.86 a 1.8315316,2.13 0 0 1 0.81688,-1.77 l 11.53091,-9 a 1.8229328,2.12 0 0 1 1.014651,-0.36 1.8401303,2.14 0 0 1 1.84013,2.14 v 53 a 1.8401303,2.14 0 0 1 -1.84013,2.14 z" />
      <path
         inkscape:connector-curvature="0"
         style="display:inline;fill:url(#Signal1-29-5);fill-opacity:1;stroke-width:0.9272939"
         id="path171"
         d="M 93.248846,78.64 A 2.3302585,2.71 0 0 1 90.918587,75.93 V 17 a 2.3216597,2.7 0 0 1 1.031849,-2.25 l 11.530914,-9 A 2.3216597,2.7 0 0 1 107.10142,8 v 67.94 a 2.3302585,2.71 0 0 1 -2.33026,2.71 z" />
      <path
         inkscape:connector-curvature="0"
         style="display:inline;fill:url(#Signal1-17-5);fill-opacity:1;stroke-width:0.9272939"
         id="path173"
         d="m 93.248846,78.07 a 1.8401303,2.14 0 0 1 -1.84013,-2.14 V 17 a 1.8315316,2.13 0 0 1 0.81688,-1.78 l 11.530914,-9 a 1.8229328,2.12 0 0 1 1.01465,-0.36 1.8401303,2.14 0 0 1 1.84013,2.14 v 67.94 a 1.8401303,2.14 0 0 1 -1.84013,2.14 z" />
    </g>
    <g
       id="LEDs-1">
      <path
         class="LED"
         style="fill:#e30613;stroke-width:0.92729378"
         inkscape:connector-curvature="0"
         id="path151"
         d="M 24.829753,77.5 H 13.298845 a 1.3500018,1.57 0 0 1 -1.350001,-1.57 v -2.74 a 1.3500018,1.57 0 0 1 0.601911,-1.3 l 11.530908,-9 a 1.3500018,1.57 0 0 1 2.089493,1.3 v 11.7 a 1.3500018,1.57 0 0 1 -1.341403,1.61 z" />
      <path
         class="LED"
         style="fill:#e30613;stroke-width:0.92729378"
         inkscape:connector-curvature="0"
         id="path157"
         d="M 44.819753,77.5 H 33.288845 A 1.3500018,1.57 0 0 1 31.938844,75.93 V 59.54 a 1.3500018,1.57 0 0 1 0.601911,-1.3 l 11.530908,-9 a 1.3500018,1.57 0 0 1 2.089493,1.3 v 25.4 a 1.3500018,1.57 0 0 1 -1.341403,1.56 z" />
      <path
         class="LED"
         style="fill:#e30613;stroke-width:0.92729378"
         inkscape:connector-curvature="0"
         id="path163"
         d="M 64.808351,77.5 H 53.268845 A 1.3500018,1.57 0 0 1 51.918844,75.93 V 46.7 a 1.3500018,1.57 0 0 1 0.601911,-1.3 l 11.530908,-9 a 1.3500018,1.57 0 0 1 2.089493,1.3 v 38.24 a 1.3500018,1.57 0 0 1 -1.332805,1.56 z" />
      <path
         class="LED"
         style="display:inline;fill:#2b0000;stroke-width:0.9272939"
         inkscape:connector-curvature="0"
         id="path169"
         d="M 84.798355,77.5 H 73.258846 A 1.3500021,1.57 0 0 1 71.908844,75.93 V 31.86 a 1.3500021,1.57 0 0 1 0.601911,-1.3 l 11.53091,-9 a 1.3500021,1.57 0 0 1 2.089494,1.3 v 53 a 1.3500021,1.57 0 0 1 -1.332804,1.64 z" />
      <path
         class="LED"
         style="display:inline;fill:#2b0000;stroke-width:0.9272939"
         inkscape:connector-curvature="0"
         id="path175"
         d="M 104.77976,77.5 H 93.248846 A 1.3500021,1.57 0 0 1 91.898844,75.93 V 17 a 1.3500021,1.57 0 0 1 0.601911,-1.3 l 11.530915,-9 a 1.3500021,1.57 0 0 1 2.08949,1.3 v 67.94 a 1.3500021,1.57 0 0 1 -1.3414,1.56 z" />
    </g>
    <g
       style="display:inline"
       id="Highlights-1">
      <path
         inkscape:connector-curvature="0"
         style="fill:url(#Signal1-2-701);stroke-width:0.92729378"
         id="path177"
         d="M 24.829753,77.5 H 13.298845 a 1.3500018,1.57 0 0 1 -1.350001,-1.57 v -2.74 a 1.3500018,1.57 0 0 1 0.601911,-1.3 l 11.530908,-9 a 1.3500018,1.57 0 0 1 2.089493,1.3 v 11.7 a 1.3500018,1.57 0 0 1 -1.341403,1.61 z" />
      <path
         inkscape:connector-curvature="0"
         style="fill:url(#Signal1-2--2);stroke-width:0.92729378"
         id="path179"
         d="M 44.819753,77.5 H 33.288845 A 1.3500018,1.57 0 0 1 31.938844,75.93 V 59.54 a 1.3500018,1.57 0 0 1 0.601911,-1.3 l 11.530908,-9 a 1.3500018,1.57 0 0 1 2.089493,1.3 v 25.4 a 1.3500018,1.57 0 0 1 -1.341403,1.56 z" />
      <path
         inkscape:connector-curvature="0"
         style="fill:url(#Signal1-2--3);stroke-width:0.92729378"
         id="path181"
         d="M 64.808351,77.5 H 53.268845 A 1.3500018,1.57 0 0 1 51.918844,75.93 V 46.7 a 1.3500018,1.57 0 0 1 0.601911,-1.3 l 11.530908,-9 a 1.3500018,1.57 0 0 1 2.089493,1.3 v 38.24 a 1.3500018,1.57 0 0 1 -1.332805,1.56 z" />
      <path
         inkscape:connector-curvature="0"
         style="fill:url(#Signal1-2--4);stroke-width:0.9272939"
         id="path183"
         d="M 84.798355,77.5 H 73.258846 A 1.3500021,1.57 0 0 1 71.908844,75.93 V 31.86 a 1.3500021,1.57 0 0 1 0.601911,-1.3 l 11.53091,-9 a 1.3500021,1.57 0 0 1 2.089494,1.3 v 53 a 1.3500021,1.57 0 0 1 -1.332804,1.64 z" />
      <path
         inkscape:connector-curvature="0"
         style="display:inline;fill:url(#Signal1-2--5);stroke-width:0.9272939"
         id="path185"
         d="M 104.77976,77.5 H 93.248846 A 1.3500021,1.57 0 0 1 91.898844,75.93 V 17 a 1.3500021,1.57 0 0 1 0.601911,-1.3 l 11.530915,-9 a 1.3500021,1.57 0 0 1 2.08949,1.3 v 67.94 a 1.3500021,1.57 0 0 1 -1.3414,1.56 z" />
    </g>
    <text
       style="font-size:15px;font-family:sans-serif;text-anchor:middle;stroke-width:0.5"
       x="60.764378"
       y="97.253761"
       id="text73-1">50%</text>
  </g>
</svg>
