<?xml version="1.0" encoding="UTF-8" standalone="no"?>
<svg
   xmlns:vfp="http://www.labcenter.com/namespaces/vfp"
   xmlns:dc="http://purl.org/dc/elements/1.1/"
   xmlns:cc="http://creativecommons.org/ns#"
   xmlns:rdf="http://www.w3.org/1999/02/22-rdf-syntax-ns#"
   xmlns:svg="http://www.w3.org/2000/svg"
   xmlns="http://www.w3.org/2000/svg"
   xmlns:xlink="http://www.w3.org/1999/xlink"
   xmlns:sodipodi="http://sodipodi.sourceforge.net/DTD/sodipodi-0.dtd"
   xmlns:inkscape="http://www.inkscape.org/namespaces/inkscape"
   viewBox="0 0 75.644432 58.974854"
   version="1.1"
   id="svg4792"
   sodipodi:docname="WiFi Signal.svg"
   inkscape:version="0.92.1 r15371"
   width="75.644432"
   height="58.974854">
  <sodipodi:namedview
     pagecolor="#ffffff"
     bordercolor="#666666"
     borderopacity="1"
     objecttolerance="10"
     gridtolerance="10"
     guidetolerance="10"
     inkscape:pageopacity="0"
     inkscape:pageshadow="2"
     inkscape:window-width="1920"
     inkscape:window-height="1017"
     id="namedview4794"
     showgrid="false"
     inkscape:zoom="6.1100323"
     inkscape:cx="20.423266"
     inkscape:cy="25.876384"
     inkscape:window-x="-8"
     inkscape:window-y="-8"
     inkscape:window-maximized="1"
     inkscape:current-layer="svg4792" />
  <defs
     id="defs194">
    <linearGradient
       inkscape:collect="always"
       xlink:href="#Chrome_05"
       id="linearGradient5842"
       x1="0.023567822"
       y1="29.493423"
       x2="75.667999"
       y2="29.493423"
       gradientUnits="userSpaceOnUse" />
    <linearGradient
       gradientUnits="userSpaceOnUse"
       y2="25.83"
       x2="176.84"
       y1="25.83"
       x1="125.19"
       data-name="Chrome 05"
       id="Chrome_05">
      <stop
         id="stop4615"
         stop-color="#bfc1c6"
         offset="0" />
      <stop
         id="stop4617"
         stop-color="#b8babe"
         offset="0.02" />
      <stop
         id="stop4619"
         stop-color="#a3a6a9"
         offset="0.05" />
      <stop
         id="stop4621"
         stop-color="#909395"
         offset="0.08" />
      <stop
         id="stop4623"
         stop-color="#a9abad"
         offset="0.08" />
      <stop
         id="stop4625"
         stop-color="#c4c5c6"
         offset="0.09" />
      <stop
         id="stop4627"
         stop-color="#dadbdb"
         offset="0.1" />
      <stop
         id="stop4629"
         stop-color="#ebebeb"
         offset="0.1" />
      <stop
         id="stop4631"
         stop-color="#f6f7f7"
         offset="0.11" />
      <stop
         id="stop4633"
         stop-color="#fdfdfd"
         offset="0.13" />
      <stop
         id="stop4635"
         stop-color="#fff"
         offset="0.16" />
      <stop
         id="stop4637"
         stop-color="#f2f2f3"
         offset="0.18" />
      <stop
         id="stop4639"
         stop-color="#d0d1d4"
         offset="0.2" />
      <stop
         id="stop4641"
         stop-color="#9a9ba2"
         offset="0.23" />
      <stop
         id="stop4643"
         stop-color="#6a6c75"
         offset="0.25" />
      <stop
         id="stop4645"
         stop-color="#6b6d76"
         offset="0.25" />
      <stop
         id="stop4647"
         stop-color="#7b7e85"
         offset="0.26" />
      <stop
         id="stop4649"
         stop-color="#87898f"
         offset="0.27" />
      <stop
         id="stop4651"
         stop-color="#8d9095"
         offset="0.29" />
      <stop
         id="stop4653"
         stop-color="#8f9297"
         offset="0.35" />
      <stop
         id="stop4655"
         stop-color="#8b8e93"
         offset="0.36" />
      <stop
         id="stop4657"
         stop-color="#808488"
         offset="0.38" />
      <stop
         id="stop4659"
         stop-color="#6e7276"
         offset="0.4" />
      <stop
         id="stop4661"
         stop-color="#54585c"
         offset="0.41" />
      <stop
         id="stop4663"
         stop-color="#4d5155"
         offset="0.42" />
      <stop
         id="stop4665"
         stop-color="#696c70"
         offset="0.44" />
      <stop
         id="stop4667"
         stop-color="#848589"
         offset="0.46" />
      <stop
         id="stop4669"
         stop-color="#9a9a9e"
         offset="0.49" />
      <stop
         id="stop4671"
         stop-color="#abaaae"
         offset="0.52" />
      <stop
         id="stop4673"
         stop-color="#b6b6ba"
         offset="0.55" />
      <stop
         id="stop4675"
         stop-color="#bdbcc0"
         offset="0.61" />
      <stop
         id="stop4677"
         stop-color="#bfbec2"
         offset="0.75" />
      <stop
         id="stop4679"
         stop-color="#bdbcc0"
         offset="0.8" />
      <stop
         id="stop4681"
         stop-color="#b6b6b9"
         offset="0.82" />
      <stop
         id="stop4683"
         stop-color="#abaaae"
         offset="0.83" />
      <stop
         id="stop4685"
         stop-color="#9a9a9d"
         offset="0.85" />
      <stop
         id="stop4687"
         stop-color="#858487"
         offset="0.85" />
      <stop
         id="stop4689"
         stop-color="#6a6a6b"
         offset="0.86" />
      <stop
         id="stop4691"
         stop-color="#4a4b4b"
         offset="0.87" />
      <stop
         id="stop4693"
         stop-color="#262727"
         offset="0.88" />
      <stop
         id="stop4695"
         stop-color="#1a1b1a"
         offset="0.88" />
      <stop
         id="stop4697"
         stop-color="#1a1b1a"
         offset="0.93" />
      <stop
         id="stop4699"
         stop-color="#3c3d3d"
         offset="0.93" />
      <stop
         id="stop4701"
         stop-color="#5d5f60"
         offset="0.94" />
      <stop
         id="stop4703"
         stop-color="#797c7d"
         offset="0.95" />
      <stop
         id="stop4705"
         stop-color="#8f9293"
         offset="0.96" />
      <stop
         id="stop4707"
         stop-color="#9ea1a3"
         offset="0.97" />
      <stop
         id="stop4709"
         stop-color="#a7aaac"
         offset="0.98" />
      <stop
         id="stop4711"
         stop-color="#aaadaf"
         offset="1" />
    </linearGradient>
    <linearGradient
       inkscape:collect="always"
       xlink:href="#GradientFill_16"
       id="linearGradient5850"
       x1="0.023567822"
       y1="29.493423"
       x2="75.667999"
       y2="29.493423"
       gradientUnits="userSpaceOnUse" />
    <linearGradient
       gradientUnits="userSpaceOnUse"
       y2="86.089996"
       x2="114.25"
       y1="86.089996"
       x1="62.599998"
       data-name="GradientFill 16"
       id="GradientFill_16">
      <stop
         id="stop4808"
         stop-color="#3a4346"
         offset="0" />
      <stop
         id="stop4810"
         stop-color="#cedde6"
         offset="0.17" />
      <stop
         id="stop4812"
         stop-color="#63747e"
         offset="0.33" />
      <stop
         id="stop4814"
         stop-color="#fff"
         offset="0.47" />
      <stop
         id="stop4816"
         stop-color="#515453"
         offset="0.78" />
      <stop
         id="stop4818"
         stop-color="#4c5a60"
         offset="0.85" />
      <stop
         id="stop4820"
         stop-color="#fff"
         offset="0.96" />
      <stop
         id="stop4822"
         stop-color="#fff"
         offset="1" />
    </linearGradient>
    <linearGradient
       inkscape:collect="always"
       xlink:href="#GradientFill_16"
       id="linearGradient5858"
       x1="32.585003"
       y1="47.669998"
       x2="43.075001"
       y2="47.669998"
       gradientUnits="userSpaceOnUse" />
    <linearGradient
       inkscape:collect="always"
       xlink:href="#GradientFill_16"
       id="linearGradient5860"
       x1="26.062014"
       y1="36.715363"
       x2="49.642574"
       y2="36.715363"
       gradientUnits="userSpaceOnUse" />
    <linearGradient
       inkscape:collect="always"
       xlink:href="#GradientFill_16"
       id="linearGradient5862"
       x1="19.062014"
       y1="28.266151"
       x2="56.632572"
       y2="28.266151"
       gradientUnits="userSpaceOnUse" />
    <linearGradient
       inkscape:collect="always"
       xlink:href="#GradientFill_16"
       id="linearGradient5864"
       x1="12.297427"
       y1="20.152807"
       x2="63.327988"
       y2="20.152807"
       gradientUnits="userSpaceOnUse" />
    <linearGradient
       inkscape:collect="always"
       xlink:href="#GradientFill_16"
       id="linearGradient5866"
       x1="5.8174276"
       y1="12.299909"
       x2="69.807983"
       y2="12.299909"
       gradientUnits="userSpaceOnUse" />
    <linearGradient
       y2="47.669998"
       x2="42.459999"
       y1="47.669998"
       x1="32.919998"
       gradientUnits="userSpaceOnUse"
       id="Wifi-2623"
       xlink:href="#Wifi-1"
       inkscape:collect="always" />
    <linearGradient
       gradientUnits="userSpaceOnUse"
       y2="47.669998"
       x2="42.459999"
       y1="47.669998"
       x1="32.919998"
       id="Wifi-1">
      <stop
         id="stop103-0"
         stop-opacity="0.5"
         stop-color="#fff"
         offset="0" />
      <stop
         id="stop105-2"
         stop-opacity="0"
         stop-color="#fff"
         offset="1" />
    </linearGradient>
    <linearGradient
       xlink:href="#Wifi-1"
       y2="36.139999"
       x2="45.689999"
       y1="39.82"
       x1="20.799999"
       id="Wifi-1-2" />
    <linearGradient
       xlink:href="#Wifi-1"
       y2="28.33"
       x2="44.540001"
       y1="32"
       x1="19.65"
       id="Wifi-1-3" />
    <linearGradient
       xlink:href="#Wifi-1"
       y2="20.82"
       x2="43.43"
       y1="24.49"
       x1="18.540001"
       id="Wifi-1-4" />
    <linearGradient
       xlink:href="#Wifi-1"
       y2="13.58"
       x2="42.360001"
       y1="17.26"
       x1="17.469999"
       id="Wifi-1-5" />
  </defs>
  <metadata
     id="metadata4637">
    <rdf:RDF>
      <cc:Work
         rdf:about="">
        <dc:title></dc:title>
        <dc:format>image/svg+xml</dc:format>
        <dc:type
           rdf:resource="http://purl.org/dc/dcmitype/StillImage" />
      </cc:Work>
    </rdf:RDF>
  </metadata>
  <vfp:catalogue
     PREFIX="LEDBar"
     CATEGORY="Display Controls"
     DESC="WiFi Indicator" />
  <g
     vfp:class="LEDStrip"
     data-name="Layer 2"
     id="Layer_2-0"
     transform="translate(-0.02356782,-0.00599663)">
    <path
       class="bounds"
       d="M 39.76,57.75 74.7,16.12 A 2.71,2.71 0 0 0 74.24,12.2 61.79,61.79 0 0 0 1.44,12.2 2.72,2.72 0 0 0 1,16.13 l 34.9,41.62 a 2.52,2.52 0 0 0 3.86,0 z"
       stroke-miterlimit="10"
       id="path116"
       inkscape:connector-curvature="0"
       style="fill:url(#linearGradient5842);fill-opacity:1;stroke:url(#linearGradient5850);stroke-width:0.67000002;stroke-miterlimit:10;stroke-opacity:1" />
    <g
       id="LEDs-13">
      <circle
         class="LED"
         style="fill:#e30613;stroke:url(#linearGradient5858);stroke-width:0.67000002;stroke-miterlimit:10;stroke-opacity:1"
         id="circle118"
         stroke-miterlimit="10"
         r="4.9099998"
         cy="47.669998"
         cx="37.830002" />
      <path
         class="LED"
         style="fill:#e30613;stroke:url(#linearGradient5860);stroke-width:0.67000002;stroke-miterlimit:10;stroke-opacity:1"
         inkscape:connector-curvature="0"
         id="path120"
         stroke-miterlimit="10"
         d="m 28.74,40.92 a 2.34,2.34 0 0 1 -1.65,-4 15.2,15.2 0 0 1 21.49,0 2.3405234,2.3405234 0 1 1 -3.31,3.31 10.52,10.52 0 0 0 -14.88,0 2.33,2.33 0 0 1 -1.65,0.69 z" />
      <path
         class="LED"
         style="fill:#e30613;stroke:url(#linearGradient5862);stroke-width:0.67000002;stroke-miterlimit:10;stroke-opacity:1"
         inkscape:connector-curvature="0"
         id="path122"
         stroke-miterlimit="10"
         d="m 21.74,33.92 a 2.34,2.34 0 0 1 -1.65,-4 25.09,25.09 0 0 1 35.48,0 2.3405234,2.3405234 0 1 1 -3.31,3.31 20.42,20.42 0 0 0 -28.87,0 2.33,2.33 0 0 1 -1.65,0.69 z" />
      <path
         class="LED"
         style="fill:#2b0000;stroke:url(#linearGradient5864);stroke-width:0.67000002;stroke-miterlimit:10;stroke-opacity:1"
         inkscape:connector-curvature="0"
         id="path124"
         stroke-miterlimit="10"
         d="M 60.65,27.19 A 2.33,2.33 0 0 1 59,26.51 a 29.93,29.93 0 0 0 -42.33,0 2.3405234,2.3405234 0 1 1 -3.31,-3.31 34.61,34.61 0 0 1 48.94,0 2.34,2.34 0 0 1 -1.65,4 z" />
      <path
         class="LED"
         style="fill:#2b0000;stroke:url(#linearGradient5866);stroke-width:0.67000002;stroke-miterlimit:10;stroke-opacity:1"
         inkscape:connector-curvature="0"
         id="path126"
         stroke-miterlimit="10"
         d="M 67.13,20.71 A 2.33,2.33 0 0 1 65.48,20 39.09,39.09 0 0 0 10.19,20 2.3405234,2.3405234 0 0 1 6.88,16.69 a 43.77,43.77 0 0 1 61.9,0 2.34,2.34 0 0 1 -1.65,4 z" />
    </g>
    <g
       id="Highlights-6">
      <circle
         style="fill:url(#Wifi-2623)"
         id="circle128"
         r="4.9099998"
         cy="47.669998"
         cx="37.830002" />
      <path
         style="fill:url(#Wifi-1-2)"
         inkscape:connector-curvature="0"
         id="path130"
         d="m 28.74,40.92 a 2.34,2.34 0 0 1 -1.65,-4 15.2,15.2 0 0 1 21.49,0 2.3405234,2.3405234 0 1 1 -3.31,3.31 10.52,10.52 0 0 0 -14.88,0 2.33,2.33 0 0 1 -1.65,0.69 z" />
      <path
         style="fill:url(#Wifi-1-3)"
         inkscape:connector-curvature="0"
         id="path132"
         d="m 21.74,33.92 a 2.34,2.34 0 0 1 -1.65,-4 25.09,25.09 0 0 1 35.48,0 2.3405234,2.3405234 0 1 1 -3.31,3.31 20.42,20.42 0 0 0 -28.87,0 2.33,2.33 0 0 1 -1.65,0.69 z" />
      <path
         style="fill:url(#Wifi-1-4)"
         inkscape:connector-curvature="0"
         id="path134"
         d="M 60.65,27.19 A 2.33,2.33 0 0 1 59,26.51 a 29.93,29.93 0 0 0 -42.33,0 2.3405234,2.3405234 0 1 1 -3.31,-3.31 34.61,34.61 0 0 1 48.94,0 2.34,2.34 0 0 1 -1.65,4 z" />
      <path
         style="fill:url(#Wifi-1-5)"
         inkscape:connector-curvature="0"
         id="path136"
         d="M 67.13,20.71 A 2.33,2.33 0 0 1 65.48,20 39.09,39.09 0 0 0 10.19,20 2.3405234,2.3405234 0 0 1 6.88,16.69 a 43.77,43.77 0 0 1 61.9,0 2.34,2.34 0 0 1 -1.65,4 z" />
    </g>
    <text
       style="font-size:15px;font-family:sans-serif;text-anchor:middle;stroke-width:0.5"
       x="38.185379"
       y="74.308762"
       id="text73-22">50%</text>
  </g>
</svg>
