<svg xmlns:vfp="http://www.labcenter.com/namespaces/vfp" xmlns="http://www.w3.org/2000/svg" xmlns:xlink="http://www.w3.org/1999/xlink" viewBox="0 0 60.99 120.12">
  <defs>
    <linearGradient id="BlueLampModernLEDWhite" x1="60.99" y1="60.06" x2="0" y2="60.06" gradientUnits="userSpaceOnUse">
      <stop offset="0" stop-opacity="0.3"/>
      <stop offset="0.75" stop-opacity="0"/>
    </linearGradient>
    <linearGradient id="BlueLampModernLEDWhite-2" x1="57.21" y1="67.36" x2="3.78" y2="13.93" gradientUnits="userSpaceOnUse">
      <stop offset="0"/>
      <stop offset="1" stop-opacity="0.6"/>
    </linearGradient>
    <radialGradient id="BlueLampModernLEDWhiteRadial" cx="30.83" cy="29.8" r="39.34" gradientUnits="userSpaceOnUse">
      <stop offset="0" stop-color="#fff" stop-opacity="0.5"/>
      <stop offset="0.78" stop-color="#fff" stop-opacity="0"/>
      <stop offset="1" stop-opacity="0.14"/>
    </radialGradient>
    <linearGradient id="BlueLampModernLEDWhite-3" x1="60.99" y1="97.93" y2="97.93" xlink:href="#BlueLampModernLEDWhite"/>
  </defs>
<vfp:catalogue
     DESC="Blue Lamp"
     CATEGORY="Indicators"
     PREFIX="Lamp" />
  <g vfp:class="Indicator">
    <path class="bounds" d="M46,75.75h0c1.14-4.6,3.17-12.45,5.17-18.53C54.93,45.49,61,44.61,61,30,61,13.43,47.34,0,30.5,0S0,13.43,0,30c0,14.62,6.06,15.5,9.91,27.24,2,6.09,4,13.94,5.17,18.54H15v8.75C13.3,98.52,7.54,107.4,0,114H0v3.31a1.6,1.6,0,0,0,1.46,1.59,355,355,0,0,0,58.06,0A1.6,1.6,0,0,0,61,117.34V114h0q-12.77-13-15-29.52Z" style="fill: url(#BlueLampModernLEDWhite)"/>
    <line x1="11.66" y1="28.87" x2="24.78" y2="80.37" style="fill: none;stroke: #1d1d1b;stroke-linecap: round;stroke-miterlimit: 10"/>
    <line x1="49.34" y1="28.87" x2="36.21" y2="80.37" style="fill: none;stroke: #1d1d1b;stroke-linecap: round;stroke-miterlimit: 10"/>
    <line x1="21.89" y1="31.62" x2="27.89" y2="54.31" style="fill: none;stroke: #1d1d1b;stroke-linecap: round;stroke-miterlimit: 10;stroke-width: 0.75px"/>
    <line x1="39.1" y1="31.62" x2="33.11" y2="54.31" style="fill: none;stroke: #1d1d1b;stroke-linecap: round;stroke-miterlimit: 10;stroke-width: 0.75px"/>
    <path d="M38.56,68.42h-3.9V55.19a4.17,4.17,0,1,0-8.33,0V68.42h-3.9a1.86,1.86,0,0,0-1.86,1.86V92.44a1.86,1.86,0,0,0,1.86,1.86H38.56a1.86,1.86,0,0,0,1.86-1.86V70.28A1.86,1.86,0,0,0,38.56,68.42Z" style="fill: #1d1d1b;opacity: 0.2"/>
    <path d="M49.34,28.87c-3.39,3-6.8,3.93-10.24,2.75" style="fill: none;stroke: #1d1d1b;stroke-linecap: round;stroke-miterlimit: 10;stroke-width: 0.448449461667322px"/>
    <path d="M21.89,31.62a26.1,26.1,0,0,0,17.21,0" style="fill: none;stroke: #1d1d1b;stroke-linecap: round;stroke-miterlimit: 10;stroke-width: 0.448449461667322px"/>
    <path d="M11.66,28.87c3.39,3,6.8,3.93,10.24,2.75" style="fill: none;stroke: #1d1d1b;stroke-linecap: round;stroke-miterlimit: 10;stroke-width: 0.448449461667322px"/>
    <path class="colour" d="M30.5,0C13.65,0,0,13.43,0,30c0,14.62,6.06,15.5,9.91,27.24,3,9.17,6.1,22.37,6.1,22.37H45s3.09-13.19,6.1-22.37C54.93,45.49,61,44.61,61,30,61,13.43,47.34,0,30.5,0Z" style="fill: #2b60de;opacity: 0.8"/>
    <g style="display:none">
    <path d="M30.5,0C13.65,0,0,13.43,0,30c0,14.62,6.06,15.5,9.91,27.24,3,9.17,6.1,22.37,6.1,22.37H45s3.09-13.19,6.1-22.37C54.93,45.49,61,44.61,61,30,61,13.43,47.34,0,30.5,0Z" style="opacity: 0.6000000000000001;fill: url(#BlueLampModernLEDWhite-2)"/>
    </g>
    <g>
    <path d="M30.5,0C13.65,0,0,13.43,0,30c0,14.62,6.06,15.5,9.91,27.24,3,9.17,6.1,22.37,6.1,22.37H45s3.09-13.19,6.1-22.37C54.93,45.49,61,44.61,61,30,61,13.43,47.34,0,30.5,0Z" style="fill: url(#BlueLampModernLEDWhiteRadial)"/>
    </g>
    <path d="M61,114q-12.77-13-15-29.52V75.75a74.06,74.06,0,0,1-30.93,0v8.75C13.3,98.52,7.54,107.4,0,114H0v3.31a1.6,1.6,0,0,0,1.46,1.59,355,355,0,0,0,58.06,0A1.6,1.6,0,0,0,61,117.34V114Z" style="fill: #fffef5"/>
    <path d="M61,114q-12.77-13-15-29.52V75.75a74.06,74.06,0,0,1-30.93,0v8.75C13.3,98.52,7.54,107.4,0,114H0v3.31a1.6,1.6,0,0,0,1.46,1.59,355,355,0,0,0,58.06,0A1.6,1.6,0,0,0,61,117.34V114Z" style="fill: url(#BlueLampModernLEDWhite-3)"/>
    <text
       x="100.0"
       y="100.0"
       style="font-style:normal;font-variant:normal;font-weight:normal;font-size:15px;line-height:125%;font-family:sans-serif;text-anchor:middle;fill:#000000;fill-opacity:1;stroke:none"
       xml:space="preserve"
       id="text23">label</text>
  </g>
</svg>
