<svg xmlns:vfp="http://www.labcenter.com/namespaces/vfp" xmlns="http://www.w3.org/2000/svg" xmlns:xlink="http://www.w3.org/1999/xlink" viewBox="0 0 40 40">
  <defs>
    <linearGradient id="RedRoundModernLEDWhite" x1="34.14" y1="34.14" x2="5.86" y2="5.86" gradientUnits="userSpaceOnUse">
      <stop offset="0" stop-opacity="0.3"/>
      <stop offset="0.56" stop-opacity="0"/>
    </linearGradient>
    <linearGradient id="RedRoundModernLEDWhite-2" x1="30.25" y1="30.25" x2="9.75" y2="9.75" gradientUnits="userSpaceOnUse">
      <stop offset="0" stop-opacity="0.2"/>
      <stop offset="1"/>
    </linearGradient>
    <linearGradient id="RedRoundModernLEDWhite-3" x1="10.45" y1="10.45" x2="29.55" y2="29.55" gradientUnits="userSpaceOnUse">
      <stop offset="0" stop-opacity="0.4"/>
      <stop offset="0.47" stop-opacity="0.21"/>
      <stop offset="0.55" stop-opacity="0"/>
    </linearGradient>
    <linearGradient id="RedRoundModernLEDWhite-4" x1="29.55" y1="29.55" x2="10.45" y2="10.45" gradientUnits="userSpaceOnUse">
      <stop offset="0"/>
      <stop offset="1" stop-opacity="0.6"/>
    </linearGradient>
    <radialGradient id="RedRoundModernLEDWhiteRadial" cx="29.33" cy="30" r="13.5" gradientUnits="userSpaceOnUse">
      <stop offset="0" stop-color="#fff" stop-opacity="0.5"/>
      <stop offset="1" stop-color="#fff" stop-opacity="0"/>
    </radialGradient>
    <radialGradient id="RedRoundModernLEDWhiteRadial-2" cx="7.44" cy="7.5" r="12.53" xlink:href="#RedRoundModernLEDWhiteRadial"/>
  </defs>
  <vfp:catalogue
     DESC="Red Round LED"
     CATEGORY="Indicators"
     PREFIX="LED" />

    <g vfp:class="Indicator">
      <circle class="bounds" cx="20" cy="20" r="20" style="fill: #fffef5"/>
      <circle cx="20" cy="20" r="20" style="fill: url(#RedRoundModernLEDWhite)"/>
      <circle cx="20" cy="20" r="14.5" style="opacity: 0.15;fill: url(#RedRoundModernLEDWhite-2)"/>
      <circle class="colour" cx="20" cy="20" r="13.5" style="fill: #e52421"/>
      <g style="display:none">
      <path d="M20,6.5v1a12.5,12.5,0,1,1-8.84,3.66A12.42,12.42,0,0,1,20,7.5v-1m0,0a13.5,13.5,0,1,0,9.55,4A13.46,13.46,0,0,0,20,6.5Z" style="fill: url(#RedRoundModernLEDWhite-3)"/>
      <circle cx="20" cy="20" r="13.5" style="opacity: 0.6000000000000001;fill: url(#RedRoundModernLEDWhite-4)"/>
      </g>
      <g>
      <circle cx="20" cy="20" r="13.5" style="fill: url(#RedRoundModernLEDWhiteRadial)"/>
      <circle cx="20" cy="20" r="12.53" style="fill: url(#RedRoundModernLEDWhiteRadial-2)"/>
    </g>
    <text
       x="100.0"
       y="100.0"
       style="font-style:normal;font-variant:normal;font-weight:normal;font-size:15px;line-height:125%;font-family:sans-serif;text-anchor:middle;fill:#000000;fill-opacity:1;stroke:none"
       xml:space="preserve"
       id="text23">label</text>
    </g>

</svg>
