<svg xmlns:vfp="http://www.labcenter.com/namespaces/vfp" xmlns="http://www.w3.org/2000/svg" xmlns:xlink="http://www.w3.org/1999/xlink" viewBox="0 0 60 30">
  <defs>
    <linearGradient id="YellowRectangleModernLEDWhite" x1="51.06" y1="36.06" x2="8.94" y2="-6.06" gradientUnits="userSpaceOnUse">
      <stop offset="0" stop-opacity="0.3"/>
      <stop offset="0.56" stop-opacity="0"/>
    </linearGradient>
    <linearGradient id="YellowRectangleModernLEDWhite-2" x1="46.93" y1="31.93" x2="13.07" y2="-1.93" gradientUnits="userSpaceOnUse">
      <stop offset="0" stop-opacity="0.2"/>
      <stop offset="1"/>
    </linearGradient>
    <linearGradient id="YellowRectangleModernLEDWhite-3" x1="24.28" y1="-0.72" x2="35.72" y2="30.72" gradientUnits="userSpaceOnUse">
      <stop offset="0" stop-opacity="0.4"/>
      <stop offset="0.47" stop-opacity="0.21"/>
      <stop offset="0.55" stop-opacity="0"/>
    </linearGradient>
    <linearGradient id="YellowRectangleModernLEDWhite-4" x1="46.18" y1="31.18" x2="13.82" y2="-1.18" gradientUnits="userSpaceOnUse">
      <stop offset="0"/>
      <stop offset="1" stop-opacity="0.6"/>
    </linearGradient>
    <radialGradient id="YellowRectangleModernLEDWhiteRadial" cx="53.17" cy="23.92" r="19.15" gradientUnits="userSpaceOnUse">
      <stop offset="0" stop-color="#fff" stop-opacity="0.5"/>
      <stop offset="1" stop-color="#fff" stop-opacity="0"/>
    </radialGradient>
    <radialGradient id="YellowRectangleModernLEDWhiteRadial-2" cx="3.79" cy="-1.75" r="18.79" gradientTransform="translate(0.04 0.66) scale(1 0.97)" xlink:href="#YellowRectangleModernLEDWhiteRadial"/>
  </defs>
  <vfp:catalogue
     DESC="Yellow Rectangle LED"
     CATEGORY="Indicators"
     PREFIX="LED" />

    <g vfp:class="Indicator">
      <path class="bounds" d="M55.09,0H4.91A4.92,4.92,0,0,0,0,4.91V25.09A4.92,4.92,0,0,0,4.91,30H55.09A4.92,4.92,0,0,0,60,25.09V4.91A4.92,4.92,0,0,0,55.09,0Z" style="fill: #fffef5"/>
      <path d="M55.09,0H4.91A4.92,4.92,0,0,0,0,4.91V25.09A4.92,4.92,0,0,0,4.91,30H55.09A4.92,4.92,0,0,0,60,25.09V4.91A4.92,4.92,0,0,0,55.09,0Z" style="fill: url(#YellowRectangleModernLEDWhite)"/>
      <path d="M51,4.13H9A4.92,4.92,0,0,0,4.13,9V21A4.92,4.92,0,0,0,9,25.88H51A4.92,4.92,0,0,0,55.88,21V9A4.92,4.92,0,0,0,51,4.13Z" style="opacity: 0.15;fill: url(#YellowRectangleModernLEDWhite-2)"/>
      <path class="colour" d="M50.22,4.88H9.78A4.92,4.92,0,0,0,4.88,9.78V20.22a4.92,4.92,0,0,0,4.91,4.91H50.22a4.92,4.92,0,0,0,4.91-4.91V9.78A4.92,4.92,0,0,0,50.22,4.88Z" style="fill: #fde910"/>
      <g style="display:none">
      <path d="M50.22,5.88a3.91,3.91,0,0,1,3.91,3.91V20.22a3.91,3.91,0,0,1-3.91,3.91H9.78a3.91,3.91,0,0,1-3.91-3.91V9.78A3.91,3.91,0,0,1,9.78,5.88H50.22m0-1H9.78A4.92,4.92,0,0,0,4.88,9.78V20.22a4.92,4.92,0,0,0,4.91,4.91H50.22a4.92,4.92,0,0,0,4.91-4.91V9.78a4.92,4.92,0,0,0-4.91-4.91Z" style="fill: url(#YellowRectangleModernLEDWhite-3)"/>
      <path d="M50.22,4.88H9.78A4.92,4.92,0,0,0,4.88,9.78V20.22a4.92,4.92,0,0,0,4.91,4.91H50.22a4.92,4.92,0,0,0,4.91-4.91V9.78A4.92,4.92,0,0,0,50.22,4.88Z" style="opacity: 0.6000000000000001;fill: url(#YellowRectangleModernLEDWhite-4)"/>
      </g>
      <g>
      <path d="M50.22,4.88H9.78A4.92,4.92,0,0,0,4.88,9.78V20.22a4.92,4.92,0,0,0,4.91,4.91H50.22a4.92,4.92,0,0,0,4.91-4.91V9.78A4.92,4.92,0,0,0,50.22,4.88Z" style="fill: url(#YellowRectangleModernLEDWhiteRadial)"/>
      <path d="M50.32,5.89H10.68c-3-.15-5,1.47-4.81,4.66v9.92a4.75,4.75,0,0,0,4.81,4.66H50.32a4.75,4.75,0,0,0,4.81-4.66V10.55A4.75,4.75,0,0,0,50.32,5.89Z" style="fill: url(#YellowRectangleModernLEDWhiteRadial-2)"/>
    </g>
    <text
       x="30.120564"
       y="44.096336"
       style="font-style:normal;font-variant:normal;font-weight:normal;font-size:15px;line-height:125%;font-family:sans-serif;text-anchor:middle;fill:#000000;fill-opacity:1;stroke:none"
       xml:space="preserve"
       id="text23">label</text>
    </g>

</svg>
