<?xml version="1.0" encoding="UTF-8" standalone="no"?>
<svg
   xmlns:vfp="http://www.labcenter.com/namespaces/vfp"
   xmlns:dc="http://purl.org/dc/elements/1.1/"
   xmlns:cc="http://creativecommons.org/ns#"
   xmlns:rdf="http://www.w3.org/1999/02/22-rdf-syntax-ns#"
   xmlns:svg="http://www.w3.org/2000/svg"
   xmlns="http://www.w3.org/2000/svg"
   xmlns:xlink="http://www.w3.org/1999/xlink"
   xmlns:sodipodi="http://sodipodi.sourceforge.net/DTD/sodipodi-0.dtd"
   xmlns:inkscape="http://www.inkscape.org/namespaces/inkscape"
   height="401.44003"
   width="81.440002"
   version="1.1"
   id="main"
   x="0px"
   y="0px"
   viewBox="0 0 81.440002 401.44003"
   xml:space="preserve"
   inkscape:version="0.48.2 r9819"
   sodipodi:docname="ContemporaryThermometer (0C to 100C).svg"><sodipodi:namedview
     pagecolor="#ffffff"
     bordercolor="#666666"
     borderopacity="1"
     objecttolerance="10"
     gridtolerance="10"
     guidetolerance="10"
     inkscape:pageopacity="0"
     inkscape:pageshadow="2"
     inkscape:window-width="1096"
     inkscape:window-height="856"
     id="namedview201"
     showgrid="false"
     inkscape:zoom="1.4738757"
     inkscape:cx="31.801513"
     inkscape:cy="90.228049"
     inkscape:window-x="761"
     inkscape:window-y="21"
     inkscape:window-maximized="0"
     inkscape:current-layer="main"
     showguides="true"
     inkscape:guide-bbox="true"><sodipodi:guide
       orientation="0,1"
       position="94.032983,354.30285"
       id="guide4152" /><sodipodi:guide
       orientation="1,0"
       position="76.761619,373.85307"
       id="guide4154" /><sodipodi:guide
       orientation="1,0"
       position="4.4977511,370.7946"
       id="guide4156" /><sodipodi:guide
       orientation="0,1"
       position="27.826087,4.5577211"
       id="guide4246" /><sodipodi:guide
       orientation="0,1"
       position="80.35982,368.93553"
       id="guide4356" /></sodipodi:namedview><vfp:catalogue
     DESC="Mercury Thermometer (0 to 100 degrees C)"
     CATEGORY="Display Controls"
     PREFIX="TH" /><metadata
     id="metadata319"><rdf:RDF><cc:Work
         rdf:about=""><dc:format>image/svg+xml</dc:format><dc:type
           rdf:resource="http://purl.org/dc/dcmitype/StillImage" /><dc:title /></cc:Work></rdf:RDF></metadata><defs
     id="thermometerDefs"><linearGradient
       inkscape:collect="always"
       xlink:href="#67"
       id="linearGradient4020"
       x1="-173.50095"
       y1="85.26683"
       x2="-96.535416"
       y2="85.26683"
       gradientUnits="userSpaceOnUse"
       gradientTransform="matrix(-1,0,0,1,-270.03635,0)" /><linearGradient
       id="67"
       x1="587.78003"
       y1="654.87"
       x2="671.38"
       y2="654.87"
       gradientUnits="userSpaceOnUse"><stop
         offset="0.06"
         stop-color="#b9b8bc"
         id="stop11527" /><stop
         offset="0.16"
         stop-color="#c1c0c3"
         id="stop11529" /><stop
         offset="0.32"
         stop-color="#d6d5d8"
         id="stop11531" /><stop
         offset="0.52"
         stop-color="#f9f9f9"
         id="stop11533" /><stop
         offset="0.55"
         stop-color="#fff"
         id="stop11535" /><stop
         offset="0.61"
         stop-color="#efeeef"
         id="stop11537" /><stop
         offset="0.74"
         stop-color="#d1d1d3"
         id="stop11539" /><stop
         offset="0.86"
         stop-color="#bfbec2"
         id="stop11541" /><stop
         offset="0.94"
         stop-color="#b9b8bc"
         id="stop11543" /></linearGradient></defs><g
     id="root"
     vfp:class="Thermometer"
     transform="translate(-0.20959113,-2.0230876)"><rect
   y="4.005569"
   x="2.1920547"
   height="397.47507"
   width="77.475075"
   id="rect5161"
   style="color:#000000;fill:none;stroke:#4c5452;stroke-width:5;stroke-linecap:round;stroke-linejoin:round;stroke-miterlimit:4;stroke-opacity:1;stroke-dasharray:none;marker:none;visibility:visible;display:inline;overflow:visible;enable-background:accumulate"
   rx="5"
   ry="5" /><g
   id="g3374"
   transform="matrix(1,0,0,0.90355028,175.94777,126.68048)"><path
     inkscape:connector-curvature="0"
     id="path3032"
     d="m -96.542953,303.13413 c 0.0181,-7.10548 2.3e-4,-437.15828 -0.0182,-437.26346 -0.0131,-0.0749 -16.410177,-0.12696 -36.437867,-0.11567 -20.02769,0.0113 -37.33377,0.0204 -38.45795,0.0203 l -2.04397,-2.3e-4 0.0116,219.436564 0.0116,219.436566 38.46534,0.066 38.465327,0.066 0.004,-1.64609 z"
     style="fill:url(#linearGradient4020);fill-opacity:1;stroke:#000000;stroke-opacity:1" /></g><rect
   ry="6"
   rx="6"
   y="31.626951"
   x="30.33654"
   height="338.18613"
   width="21.186102"
   id="rect9507"
   style="color:#000000;fill:#808080;fill-opacity:1;fill-rule:nonzero;stroke:#000000;stroke-width:0.81389814999999999;stroke-linecap:round;stroke-linejoin:miter;stroke-miterlimit:4;stroke-opacity:1;stroke-dasharray:none;marker:none;visibility:visible;display:inline;overflow:visible;enable-background:accumulate" /><rect
   ry="2"
   rx="2"
   y="41.080765"
   x="35.290329"
   height="319.2785"
   width="11.278525"
   id="rect9512"
   style="color:#000000;fill:#000000;fill-opacity:1;fill-rule:nonzero;stroke:#221406;stroke-width:0.72147494999999984;stroke-linecap:round;stroke-linejoin:miter;stroke-miterlimit:4;stroke-opacity:1;stroke-dasharray:none;marker:none;visibility:visible;display:inline;overflow:visible;enable-background:accumulate" /><text
   x="57"
   y="49"
   font-size="25"
   id="text6200-71-7"
   style="font-size:24px;font-style:normal;font-variant:normal;font-weight:normal;font-stretch:normal;font-family:sans-serif">C</text>









<text
   x="9.5"
   y="49"
   font-size="25"
   id="text6200-7-1-9"
   style="font-size:24px;font-style:normal;font-variant:normal;font-weight:normal;font-stretch:normal;text-align:start;line-height:125%;writing-mode:lr-tb;text-anchor:start;font-family:sans-serif">F</text>









<g
   id="Text Right"
   transform="translate(2.099755,0)"><text
   id="text6202-0-2-4"
   font-size="12"
   y="85.096664"
   x="4.0778751"
   style="font-size:10px;font-style:normal;font-variant:normal;font-weight:normal;font-stretch:normal;text-align:start;line-height:125%;writing-mode:lr-tb;text-anchor:start;font-family:monospace;-inkscape-font-specification:Serif"
   sodipodi:linespacing="125%">200</text>







<text
   id="text6209-8-7-3"
   font-size="12"
   y="115.5674"
   x="4.0778751"
   style="font-size:10px;font-style:normal;font-variant:normal;font-weight:normal;font-stretch:normal;text-align:start;line-height:125%;writing-mode:lr-tb;text-anchor:start;font-family:monospace;-inkscape-font-specification:Serif"
   sodipodi:linespacing="125%">180</text>







<text
   id="text6216-1-6-1"
   font-size="12"
   y="147.56644"
   x="4.3872724"
   style="font-size:10px;font-style:normal;font-variant:normal;font-weight:normal;font-stretch:normal;text-align:start;line-height:125%;writing-mode:lr-tb;text-anchor:start;font-family:monospace;-inkscape-font-specification:Serif"
   sodipodi:linespacing="125%">160</text>







<text
   id="text6223-9-1-2"
   font-size="12"
   y="178.46242"
   x="4.0778751"
   style="font-size:10px;font-style:normal;font-variant:normal;font-weight:normal;font-stretch:normal;text-align:start;line-height:125%;writing-mode:lr-tb;text-anchor:start;font-family:monospace;-inkscape-font-specification:Serif"
   sodipodi:linespacing="125%">140</text>







<text
   id="text6230-0-4-3"
   font-size="12"
   y="210.63417"
   x="4.0778751"
   style="font-size:10px;font-style:normal;font-variant:normal;font-weight:normal;font-stretch:normal;text-align:start;line-height:125%;writing-mode:lr-tb;text-anchor:start;font-family:monospace;-inkscape-font-specification:Serif"
   sodipodi:linespacing="125%">120</text>







<text
   id="text6237-3-2-3"
   font-size="12"
   y="242.04828"
   x="4.0778751"
   style="font-size:10px;font-style:normal;font-variant:normal;font-weight:normal;font-stretch:normal;text-align:start;line-height:125%;writing-mode:lr-tb;text-anchor:start;font-family:monospace;-inkscape-font-specification:Serif"
   sodipodi:linespacing="125%">100</text>







<text
   id="text6244-2-3-4"
   font-size="12"
   y="273.89578"
   x="10.190374"
   style="font-size:10px;font-style:normal;font-variant:normal;font-weight:normal;font-stretch:normal;text-align:start;line-height:125%;writing-mode:lr-tb;text-anchor:start;font-family:monospace;-inkscape-font-specification:Serif"
   sodipodi:linespacing="125%">80</text>







<text
   id="text6251-6-2-1"
   font-size="12"
   y="304.36655"
   x="10.190373"
   style="font-size:10px;font-style:normal;font-variant:normal;font-weight:normal;font-stretch:normal;text-align:start;line-height:125%;writing-mode:lr-tb;text-anchor:start;font-family:monospace;-inkscape-font-specification:Serif"
   sodipodi:linespacing="125%">60</text>







<text
   id="text6258-3-2-1"
   font-size="12"
   y="336.51706"
   x="10.190373"
   style="font-size:10px;font-style:normal;font-variant:normal;font-weight:normal;font-stretch:normal;text-align:start;line-height:125%;writing-mode:lr-tb;text-anchor:start;font-family:monospace;-inkscape-font-specification:Serif"
   sodipodi:linespacing="125%">40</text>







</g><g
   id="Text Left"
   transform="translate(-2.2004072,0)"><text
   id="text5776-2-9"
   font-size="12"
   y="65.45269"
   x="60.223717"
   style="font-size:10px;font-style:normal;font-variant:normal;font-weight:normal;font-stretch:normal;text-align:start;line-height:125%;writing-mode:lr-tb;text-anchor:start;font-family:monospace;-inkscape-font-specification:Serif"
   sodipodi:linespacing="125%">100</text>







<text
   style="font-size:10px;font-style:normal;font-variant:normal;font-weight:normal;font-stretch:normal;text-align:start;line-height:125%;writing-mode:lr-tb;text-anchor:start;font-family:monospace;-inkscape-font-specification:Serif"
   x="60.997154"
   y="93.586952"
   font-size="12"
   id="text6202-00-4"
   sodipodi:linespacing="125%">90</text>







<text
   style="font-size:10px;font-style:normal;font-variant:normal;font-weight:normal;font-stretch:normal;text-align:start;line-height:125%;writing-mode:lr-tb;text-anchor:start;font-family:monospace;-inkscape-font-specification:Serif"
   x="60.954967"
   y="121.7236"
   font-size="12"
   id="text6209-1-7"
   sodipodi:linespacing="125%">80</text>







<text
   style="font-size:10px;font-style:normal;font-variant:normal;font-weight:normal;font-stretch:normal;text-align:start;line-height:125%;writing-mode:lr-tb;text-anchor:start;font-family:monospace;-inkscape-font-specification:Serif"
   x="60.804966"
   y="149.85553"
   font-size="12"
   id="text6216-4-8"
   sodipodi:linespacing="125%">70</text>







<text
   style="font-size:10px;font-style:normal;font-variant:normal;font-weight:normal;font-stretch:normal;text-align:start;line-height:125%;writing-mode:lr-tb;text-anchor:start;font-family:monospace;-inkscape-font-specification:Serif"
   x="60.884655"
   y="177.98984"
   font-size="12"
   id="text6223-6-3"
   sodipodi:linespacing="125%">60</text>







<text
   style="font-size:10px;font-style:normal;font-variant:normal;font-weight:normal;font-stretch:normal;text-align:start;line-height:125%;writing-mode:lr-tb;text-anchor:start;font-family:monospace;-inkscape-font-specification:Serif"
   x="60.65028"
   y="206.12413"
   font-size="12"
   id="text6230-07-5"
   sodipodi:linespacing="125%">50</text>







<text
   style="font-size:10px;font-style:normal;font-variant:normal;font-weight:normal;font-stretch:normal;text-align:start;line-height:125%;writing-mode:lr-tb;text-anchor:start;font-family:monospace;-inkscape-font-specification:Serif"
   x="61.165905"
   y="234.25842"
   font-size="12"
   id="text6237-1-1"
   sodipodi:linespacing="125%">40</text>







<text
   style="font-size:10px;font-style:normal;font-variant:normal;font-weight:normal;font-stretch:normal;text-align:start;line-height:125%;writing-mode:lr-tb;text-anchor:start;font-family:monospace;-inkscape-font-specification:Serif"
   x="60.74403"
   y="262.39505"
   font-size="12"
   id="text6342-7-2"
   sodipodi:linespacing="125%">30</text>







<text
   style="font-size:10px;font-style:normal;font-variant:normal;font-weight:normal;font-stretch:normal;text-align:start;line-height:125%;writing-mode:lr-tb;text-anchor:start;font-family:monospace;-inkscape-font-specification:Serif"
   x="60.772156"
   y="290.52936"
   font-size="12"
   id="text6251-7-0"
   sodipodi:linespacing="125%">20</text>







<text
   style="font-size:10px;font-style:normal;font-variant:normal;font-weight:normal;font-stretch:normal;text-align:start;line-height:125%;writing-mode:lr-tb;text-anchor:start;font-family:monospace;-inkscape-font-specification:Serif"
   x="60.223717"
   y="318.66132"
   font-size="12"
   id="text6258-7-1"
   sodipodi:linespacing="125%">10</text>







<text
   style="font-size:10px;font-style:normal;font-variant:normal;font-weight:normal;font-stretch:normal;text-align:start;line-height:125%;writing-mode:lr-tb;text-anchor:start;font-family:monospace;-inkscape-font-specification:Serif"
   x="60.884655"
   y="346.79559"
   font-size="12"
   id="text6378-7-6"
   sodipodi:linespacing="125%">0</text>







</g><g
   id="g4517-8-3"
   style="fill:#9bf6df;fill-opacity:1"
   transform="translate(0.20388036,3.4789655)"><g
     id="g4519-2-8"
     style="fill:#9bf6df;fill-opacity:1"><rect
       class="scale"
       y="0"
       x="0"
       height="100"
       width="6.7496719"
       style="opacity:0;fill:#9bf6df;fill-opacity:1"
       id="rect4521-4-7"
       transform="matrix(0.8,0,0,-2.84,38.025843,343.17157)" /><rect
       class="mercury"
       y="0"
       x="0"
       height="50"
       width="6.7496719"
       style="fill:#9bf6df;fill-opacity:1"
       id="rect4523-5-4"
       transform="matrix(0.8,0,0,-2.84,38.025843,343.17157)" /></g><rect
     y="-4.9499998"
     x="0"
     height="5.0500002"
     width="6.7496719"
     style="fill:#9bf6df;fill-opacity:1;stroke:none"
     id="rect4525-5-2"
     transform="matrix(0.8,0,0,-2.84,38.025843,343.17157)" /></g><g
   id="g5644-1-9"
   transform="matrix(0.93670707,0,0,1,2.9873145,1.6977897)"><path
     inkscape:connector-curvature="0"
     id="path5094-6-8"
     d="m 53.7725,88.932557 c 0,0 4.8,0 4.8,0"
     style="stroke:#000000;stroke-width:1.50949836" /><path
     inkscape:connector-curvature="0"
     id="path5096-8-6"
     d="m 53.7725,94.554227 c 0,0 2.4,0 2.4,0"
     style="stroke:#000000;stroke-width:1.50949836" /><path
     inkscape:connector-curvature="0"
     id="path5098-5-5"
     d="m 53.7725,100.17589 c 0,0 2.4,0 2.4,0"
     style="stroke:#000000;stroke-width:1.50949836" /><path
     inkscape:connector-curvature="0"
     id="path5100-7-0"
     d="m 53.7725,105.79756 c 0,0 2.4,0 2.4,0"
     style="stroke:#000000;stroke-width:1.50949836" /><path
     inkscape:connector-curvature="0"
     id="path5102-6-2"
     d="m 53.7725,111.41923 c 0,0 2.4,0 2.4,0"
     style="stroke:#000000;stroke-width:1.50949836" /><path
     inkscape:connector-curvature="0"
     id="path5104-1-8"
     d="m 53.7725,117.04091 c 0,0 4.8,0 4.8,0"
     style="stroke:#000000;stroke-width:1.50949836" /><path
     inkscape:connector-curvature="0"
     id="path5106-8-6"
     d="m 53.7725,122.66257 c 0,0 2.4,0 2.4,0"
     style="stroke:#000000;stroke-width:1.50949836" /><path
     inkscape:connector-curvature="0"
     id="path5108-9-0"
     d="m 53.7725,128.28424 c 0,0 2.4,0 2.4,0"
     style="stroke:#000000;stroke-width:1.50949836" /><path
     inkscape:connector-curvature="0"
     id="path5110-2-2"
     d="m 53.7725,133.90591 c 0,0 2.4,0 2.4,0"
     style="stroke:#000000;stroke-width:1.50949836" /><path
     inkscape:connector-curvature="0"
     id="path5112-7-4"
     d="m 53.7725,139.52758 c 0,0 2.4,0 2.4,0"
     style="stroke:#000000;stroke-width:1.50949836" /><path
     inkscape:connector-curvature="0"
     id="path5114-9-8"
     d="m 53.7725,145.14924 c 0,0 4.8,0 4.8,0"
     style="stroke:#000000;stroke-width:1.50949836" /><path
     inkscape:connector-curvature="0"
     id="path5116-5-6"
     d="m 53.7725,150.77092 c 0,0 2.4,0 2.4,0"
     style="stroke:#000000;stroke-width:1.50949836" /><path
     inkscape:connector-curvature="0"
     id="path5118-4-5"
     d="m 53.7725,156.39259 c 0,0 2.4,0 2.4,0"
     style="stroke:#000000;stroke-width:1.50949836" /><path
     inkscape:connector-curvature="0"
     id="path5120-3-0"
     d="m 53.7725,162.01425 c 0,0 2.4,0 2.4,0"
     style="stroke:#000000;stroke-width:1.50949836" /><path
     inkscape:connector-curvature="0"
     id="path5122-1-9"
     d="m 53.7725,167.63592 c 0,0 2.4,0 2.4,0"
     style="stroke:#000000;stroke-width:1.50949836" /><path
     inkscape:connector-curvature="0"
     id="path5124-2-0"
     d="m 53.7725,173.25759 c 0,0 4.8,0 4.8,0"
     style="stroke:#000000;stroke-width:1.50949836" /><path
     inkscape:connector-curvature="0"
     id="path5126-3-0"
     d="m 53.7725,178.87926 c 0,0 2.4,0 2.4,0"
     style="stroke:#000000;stroke-width:1.50949836" /><path
     inkscape:connector-curvature="0"
     id="path5128-3-6"
     d="m 53.7725,184.50093 c 0,0 2.4,0 2.4,0"
     style="stroke:#000000;stroke-width:1.50949836" /><path
     inkscape:connector-curvature="0"
     id="path5130-4-1"
     d="m 53.7725,190.1226 c 0,0 2.4,0 2.4,0"
     style="stroke:#000000;stroke-width:1.50949836" /><path
     inkscape:connector-curvature="0"
     id="path5132-1-3"
     d="m 53.7725,195.74427 c 0,0 2.4,0 2.4,0"
     style="stroke:#000000;stroke-width:1.50949836" /><path
     inkscape:connector-curvature="0"
     id="path5134-1-8"
     d="m 53.7725,201.36594 c 0,0 4.8,0 4.8,0"
     style="stroke:#000000;stroke-width:1.50949836" /><path
     inkscape:connector-curvature="0"
     id="path5136-3-9"
     d="m 53.7725,206.9876 c 0,0 2.4,0 2.4,0"
     style="stroke:#000000;stroke-width:1.50949836" /><path
     inkscape:connector-curvature="0"
     id="path5138-8-3"
     d="m 53.7725,212.60927 c 0,0 2.4,0 2.4,0"
     style="stroke:#000000;stroke-width:1.50949836" /><path
     inkscape:connector-curvature="0"
     id="path5140-7-4"
     d="m 53.7725,218.23095 c 0,0 2.4,0 2.4,0"
     style="stroke:#000000;stroke-width:1.50949836" /><path
     inkscape:connector-curvature="0"
     id="path5142-4-4"
     d="m 53.7725,223.85261 c 0,0 2.4,0 2.4,0"
     style="stroke:#000000;stroke-width:1.50949836" /><path
     inkscape:connector-curvature="0"
     id="path5144-2-6"
     d="m 53.7725,229.47428 c 0,0 4.8,0 4.8,0"
     style="stroke:#000000;stroke-width:1.50949836" /><path
     inkscape:connector-curvature="0"
     id="path5146-7-0"
     d="m 53.7725,235.09595 c 0,0 2.4,0 2.4,0"
     style="stroke:#000000;stroke-width:1.50949836" /><path
     inkscape:connector-curvature="0"
     id="path5148-7-6"
     d="m 53.7725,240.71762 c 0,0 2.4,0 2.4,0"
     style="stroke:#000000;stroke-width:1.50949836" /><path
     inkscape:connector-curvature="0"
     id="path5150-9-6"
     d="m 53.7725,246.33928 c 0,0 2.4,0 2.4,0"
     style="stroke:#000000;stroke-width:1.50949836" /><path
     inkscape:connector-curvature="0"
     id="path5152-3-1"
     d="m 53.7725,251.96096 c 0,0 2.4,0 2.4,0"
     style="stroke:#000000;stroke-width:1.50949836" /><path
     inkscape:connector-curvature="0"
     id="path5154-1-8"
     d="m 53.7725,257.58263 c 0,0 4.8,0 4.8,0"
     style="stroke:#000000;stroke-width:1.50949836" /><path
     inkscape:connector-curvature="0"
     id="path5156-9-4"
     d="m 53.7725,263.2043 c 0,0 2.4,0 2.4,0"
     style="stroke:#000000;stroke-width:1.50949836" /><path
     inkscape:connector-curvature="0"
     id="path5158-8-9"
     d="m 53.7725,268.82596 c 0,0 2.4,0 2.4,0"
     style="stroke:#000000;stroke-width:1.50949836" /><path
     inkscape:connector-curvature="0"
     id="path5160-6-6"
     d="m 53.7725,274.44763 c 0,0 2.4,0 2.4,0"
     style="stroke:#000000;stroke-width:1.50949836" /><path
     inkscape:connector-curvature="0"
     id="path5162-5-3"
     d="m 53.7725,280.0693 c 0,0 2.4,0 2.4,0"
     style="stroke:#000000;stroke-width:1.50949836" /><path
     inkscape:connector-curvature="0"
     id="path5164-0-7"
     d="m 53.7725,285.69096 c 0,0 4.8,0 4.8,0"
     style="stroke:#000000;stroke-width:1.50949836" /><path
     inkscape:connector-curvature="0"
     id="path5166-2-8"
     d="m 53.7725,291.31264 c 0,0 2.4,0 2.4,0"
     style="stroke:#000000;stroke-width:1.50949836" /><path
     inkscape:connector-curvature="0"
     id="path5168-8-8"
     d="m 53.7725,296.93431 c 0,0 2.4,0 2.4,0"
     style="stroke:#000000;stroke-width:1.50949836" /><path
     inkscape:connector-curvature="0"
     id="path5170-6-2"
     d="m 53.7725,302.55598 c 0,0 2.4,0 2.4,0"
     style="stroke:#000000;stroke-width:1.50949836" /><path
     inkscape:connector-curvature="0"
     id="path5172-0-9"
     d="m 53.7725,308.17764 c 0,0 2.4,0 2.4,0"
     style="stroke:#000000;stroke-width:1.50949836" /><path
     inkscape:connector-curvature="0"
     id="path5174-2-1"
     d="m 53.7725,313.79931 c 0,0 4.8,0 4.8,0"
     style="stroke:#000000;stroke-width:1.50949836" /><path
     inkscape:connector-curvature="0"
     id="path5176-4-3"
     d="m 53.7725,319.42098 c 0,0 2.4,0 2.4,0"
     style="stroke:#000000;stroke-width:1.50949836" /><path
     inkscape:connector-curvature="0"
     id="path5178-8-5"
     d="m 53.7725,325.04265 c 0,0 2.4,0 2.4,0"
     style="stroke:#000000;stroke-width:1.50949836" /><path
     inkscape:connector-curvature="0"
     id="path5180-6-9"
     d="m 53.7725,330.66432 c 0,0 2.4,0 2.4,0"
     style="stroke:#000000;stroke-width:1.50949836" /><path
     inkscape:connector-curvature="0"
     id="path5182-5-8"
     d="m 53.7725,336.28599 c 0,0 2.4,0 2.4,0"
     style="stroke:#000000;stroke-width:1.50949836" /><path
     inkscape:connector-curvature="0"
     id="path5184-0-4"
     d="m 53.7725,341.90766 c 0,0 4.8,0 4.8,0"
     style="stroke:#000000;stroke-width:1.50949836" /><path
     inkscape:connector-curvature="0"
     id="path5186-9-0"
     d="m 53.7725,88.932557 c 0,0 4.8,0 4.8,0"
     style="stroke:#000000;stroke-width:1.50949836" /><path
     inkscape:connector-curvature="0"
     id="path5188-0-7"
     d="m 53.7725,94.554227 c 0,0 2.4,0 2.4,0"
     style="stroke:#000000;stroke-width:1.50949836" /><path
     inkscape:connector-curvature="0"
     id="path5190-0-6"
     d="m 53.7725,100.17589 c 0,0 2.4,0 2.4,0"
     style="stroke:#000000;stroke-width:1.50949836" /><path
     inkscape:connector-curvature="0"
     id="path5192-6-3"
     d="m 53.7725,105.79756 c 0,0 2.4,0 2.4,0"
     style="stroke:#000000;stroke-width:1.50949836" /><path
     inkscape:connector-curvature="0"
     id="path5194-1-6"
     d="m 53.7725,111.41923 c 0,0 2.4,0 2.4,0"
     style="stroke:#000000;stroke-width:1.50949836" /><path
     inkscape:connector-curvature="0"
     id="path5196-3-1"
     d="m 53.7725,117.04091 c 0,0 4.8,0 4.8,0"
     style="stroke:#000000;stroke-width:1.50949836" /><path
     inkscape:connector-curvature="0"
     id="path5198-8-5"
     d="m 53.7725,122.66257 c 0,0 2.4,0 2.4,0"
     style="stroke:#000000;stroke-width:1.50949836" /><path
     inkscape:connector-curvature="0"
     id="path5200-9-4"
     d="m 53.7725,128.28424 c 0,0 2.4,0 2.4,0"
     style="stroke:#000000;stroke-width:1.50949836" /><path
     inkscape:connector-curvature="0"
     id="path5202-3-2"
     d="m 53.7725,133.90591 c 0,0 2.4,0 2.4,0"
     style="stroke:#000000;stroke-width:1.50949836" /><path
     inkscape:connector-curvature="0"
     id="path5204-4-0"
     d="m 53.7725,139.52758 c 0,0 2.4,0 2.4,0"
     style="stroke:#000000;stroke-width:1.50949836" /><path
     inkscape:connector-curvature="0"
     id="path5206-4-9"
     d="m 53.7725,145.14924 c 0,0 4.8,0 4.8,0"
     style="stroke:#000000;stroke-width:1.50949836" /><path
     inkscape:connector-curvature="0"
     id="path5208-6-7"
     d="m 53.7725,150.77092 c 0,0 2.4,0 2.4,0"
     style="stroke:#000000;stroke-width:1.50949836" /><path
     inkscape:connector-curvature="0"
     id="path5210-0-3"
     d="m 53.7725,156.39259 c 0,0 2.4,0 2.4,0"
     style="stroke:#000000;stroke-width:1.50949836" /><path
     inkscape:connector-curvature="0"
     id="path5212-6-7"
     d="m 53.7725,162.01425 c 0,0 2.4,0 2.4,0"
     style="stroke:#000000;stroke-width:1.50949836" /><path
     inkscape:connector-curvature="0"
     id="path5214-6-2"
     d="m 53.7725,167.63592 c 0,0 2.4,0 2.4,0"
     style="stroke:#000000;stroke-width:1.50949836" /><path
     inkscape:connector-curvature="0"
     id="path5216-1-6"
     d="m 53.7725,173.25759 c 0,0 4.8,0 4.8,0"
     style="stroke:#000000;stroke-width:1.50949836" /><path
     inkscape:connector-curvature="0"
     id="path5218-8-0"
     d="m 53.7725,178.87926 c 0,0 2.4,0 2.4,0"
     style="stroke:#000000;stroke-width:1.50949836" /><path
     inkscape:connector-curvature="0"
     id="path5220-4-1"
     d="m 53.7725,184.50093 c 0,0 2.4,0 2.4,0"
     style="stroke:#000000;stroke-width:1.50949836" /><path
     inkscape:connector-curvature="0"
     id="path5222-9-6"
     d="m 53.7725,190.1226 c 0,0 2.4,0 2.4,0"
     style="stroke:#000000;stroke-width:1.50949836" /><path
     inkscape:connector-curvature="0"
     id="path5224-6-5"
     d="m 53.7725,195.74427 c 0,0 2.4,0 2.4,0"
     style="stroke:#000000;stroke-width:1.50949836" /><path
     inkscape:connector-curvature="0"
     id="path5226-3-7"
     d="m 53.7725,201.36594 c 0,0 4.8,0 4.8,0"
     style="stroke:#000000;stroke-width:1.50949836" /><path
     inkscape:connector-curvature="0"
     id="path5228-7-5"
     d="m 53.7725,206.9876 c 0,0 2.4,0 2.4,0"
     style="stroke:#000000;stroke-width:1.50949836" /><path
     inkscape:connector-curvature="0"
     id="path5230-8-4"
     d="m 53.7725,212.60927 c 0,0 2.4,0 2.4,0"
     style="stroke:#000000;stroke-width:1.50949836" /><path
     inkscape:connector-curvature="0"
     id="path5232-8-1"
     d="m 53.7725,218.23095 c 0,0 2.4,0 2.4,0"
     style="stroke:#000000;stroke-width:1.50949836" /><path
     inkscape:connector-curvature="0"
     id="path5234-2-2"
     d="m 53.7725,223.85261 c 0,0 2.4,0 2.4,0"
     style="stroke:#000000;stroke-width:1.50949836" /><path
     inkscape:connector-curvature="0"
     id="path5236-9-0"
     d="m 53.7725,229.47428 c 0,0 4.8,0 4.8,0"
     style="stroke:#000000;stroke-width:1.50949836" /><path
     inkscape:connector-curvature="0"
     id="path5238-1-0"
     d="m 53.7725,235.09595 c 0,0 2.4,0 2.4,0"
     style="stroke:#000000;stroke-width:1.50949836" /><path
     inkscape:connector-curvature="0"
     id="path5240-3-1"
     d="m 53.7725,240.71762 c 0,0 2.4,0 2.4,0"
     style="stroke:#000000;stroke-width:1.50949836" /><path
     inkscape:connector-curvature="0"
     id="path5242-5-4"
     d="m 53.7725,246.33928 c 0,0 2.4,0 2.4,0"
     style="stroke:#000000;stroke-width:1.50949836" /><path
     inkscape:connector-curvature="0"
     id="path5244-9-6"
     d="m 53.7725,251.96096 c 0,0 2.4,0 2.4,0"
     style="stroke:#000000;stroke-width:1.50949836" /><path
     inkscape:connector-curvature="0"
     id="path5246-8-0"
     d="m 53.7725,257.58263 c 0,0 4.8,0 4.8,0"
     style="stroke:#000000;stroke-width:1.50949836" /><path
     inkscape:connector-curvature="0"
     id="path5248-4-7"
     d="m 53.7725,263.2043 c 0,0 2.4,0 2.4,0"
     style="stroke:#000000;stroke-width:1.50949836" /><path
     inkscape:connector-curvature="0"
     id="path5250-0-1"
     d="m 53.7725,268.82596 c 0,0 2.4,0 2.4,0"
     style="stroke:#000000;stroke-width:1.50949836" /><path
     inkscape:connector-curvature="0"
     id="path5252-7-7"
     d="m 53.7725,274.44763 c 0,0 2.4,0 2.4,0"
     style="stroke:#000000;stroke-width:1.50949836" /><path
     inkscape:connector-curvature="0"
     id="path5254-6-7"
     d="m 53.7725,280.0693 c 0,0 2.4,0 2.4,0"
     style="stroke:#000000;stroke-width:1.50949836" /><path
     inkscape:connector-curvature="0"
     id="path5256-3-7"
     d="m 53.7725,285.69096 c 0,0 4.8,0 4.8,0"
     style="stroke:#000000;stroke-width:1.50949836" /><path
     inkscape:connector-curvature="0"
     id="path5258-6-7"
     d="m 53.7725,291.31264 c 0,0 2.4,0 2.4,0"
     style="stroke:#000000;stroke-width:1.50949836" /><path
     inkscape:connector-curvature="0"
     id="path5260-1-3"
     d="m 53.7725,296.93431 c 0,0 2.4,0 2.4,0"
     style="stroke:#000000;stroke-width:1.50949836" /><path
     inkscape:connector-curvature="0"
     id="path5262-5-3"
     d="m 53.7725,302.55598 c 0,0 2.4,0 2.4,0"
     style="stroke:#000000;stroke-width:1.50949836" /><path
     inkscape:connector-curvature="0"
     id="path5264-4-5"
     d="m 53.7725,308.17764 c 0,0 2.4,0 2.4,0"
     style="stroke:#000000;stroke-width:1.50949836" /><path
     inkscape:connector-curvature="0"
     id="path5266-2-9"
     d="m 53.7725,313.79931 c 0,0 4.8,0 4.8,0"
     style="stroke:#000000;stroke-width:1.50949836" /><path
     inkscape:connector-curvature="0"
     id="path5268-0-9"
     d="m 53.7725,319.42098 c 0,0 2.4,0 2.4,0"
     style="stroke:#000000;stroke-width:1.50949836" /><path
     inkscape:connector-curvature="0"
     id="path5270-9-8"
     d="m 53.7725,325.04265 c 0,0 2.4,0 2.4,0"
     style="stroke:#000000;stroke-width:1.50949836" /><path
     inkscape:connector-curvature="0"
     id="path5272-7-1"
     d="m 53.7725,330.66432 c 0,0 2.4,0 2.4,0"
     style="stroke:#000000;stroke-width:1.50949836" /><path
     inkscape:connector-curvature="0"
     id="path5274-3-8"
     d="m 53.7725,336.28599 c 0,0 2.4,0 2.4,0"
     style="stroke:#000000;stroke-width:1.50949836" /><path
     inkscape:connector-curvature="0"
     style="stroke:#000000;stroke-width:1.50949836"
     d="m 53.7725,60.591674 c 0,0 4.8,0 4.8,0"
     id="path5624-7-2" /><path
     inkscape:connector-curvature="0"
     style="stroke:#000000;stroke-width:1.50949836"
     d="m 53.7725,66.213343 c 0,0 2.4,0 2.4,0"
     id="path5626-2-6" /><path
     inkscape:connector-curvature="0"
     style="stroke:#000000;stroke-width:1.50949836"
     d="m 53.7725,71.835012 c 0,0 2.4,0 2.4,0"
     id="path5628-6-6" /><path
     inkscape:connector-curvature="0"
     style="stroke:#000000;stroke-width:1.50949836"
     d="m 53.7725,77.456679 c 0,0 2.4,0 2.4,0"
     id="path5630-0-0" /><path
     inkscape:connector-curvature="0"
     style="stroke:#000000;stroke-width:1.50949836"
     d="m 53.7725,83.078346 c 0,0 2.4,0 2.4,0"
     id="path5632-1-3" /><path
     inkscape:connector-curvature="0"
     style="stroke:#000000;stroke-width:1.50949836"
     d="m 53.7725,60.591674 c 0,0 4.8,0 4.8,0"
     id="path5634-6-8" /><path
     inkscape:connector-curvature="0"
     style="stroke:#000000;stroke-width:1.50949836"
     d="m 53.7725,66.213343 c 0,0 2.4,0 2.4,0"
     id="path5636-5-0" /><path
     inkscape:connector-curvature="0"
     style="stroke:#000000;stroke-width:1.50949836"
     d="m 53.7725,71.835012 c 0,0 2.4,0 2.4,0"
     id="path5638-7-1" /><path
     inkscape:connector-curvature="0"
     style="stroke:#000000;stroke-width:1.50949836"
     d="m 53.7725,77.456679 c 0,0 2.4,0 2.4,0"
     id="path5640-5-2" /><path
     inkscape:connector-curvature="0"
     style="stroke:#000000;stroke-width:1.50949836"
     d="m 53.7725,83.078346 c 0,0 2.4,0 2.4,0"
     id="path5642-4-5" /></g><g
   id="g5936-3-4"
   style="fill:none;stroke:#000000;stroke-opacity:1"
   transform="matrix(0.76844937,0,0,1.0004322,7.674922,0.81065202)"><path
     inkscape:connector-curvature="0"
     id="path7539-0-3-0"
     d="m 27.411973,80.28568 c 0,0 -5.342042,0 -5.342042,0"
     style="fill:none;stroke:#000000;stroke-width:1.69605672;stroke-opacity:1" /><path
     inkscape:connector-curvature="0"
     id="path4216-3-5-6"
     d="m 27.411973,86.585952 c 0,0 -2.671021,0 -2.671021,0"
     style="fill:none;stroke:#000000;stroke-width:1.69605672;stroke-opacity:1" /><path
     inkscape:connector-curvature="0"
     id="path4218-2-9-1"
     d="m 27.411973,92.886223 c 0,0 -2.671021,0 -2.671021,0"
     style="fill:none;stroke:#000000;stroke-width:1.69605672;stroke-opacity:1" /><path
     inkscape:connector-curvature="0"
     id="path4220-7-9-8"
     d="m 27.411973,99.186488 c 0,0 -2.671021,0 -2.671021,0"
     style="fill:none;stroke:#000000;stroke-width:1.69605672;stroke-opacity:1" /><path
     inkscape:connector-curvature="0"
     id="path4222-2-8-9"
     d="m 27.411973,105.48676 c 0,0 -2.671021,0 -2.671021,0"
     style="fill:none;stroke:#000000;stroke-width:1.69605672;stroke-opacity:1" /><path
     inkscape:connector-curvature="0"
     id="path4224-3-1-8"
     d="m 27.411973,111.78704 c 0,0 -5.342042,0 -5.342042,0"
     style="fill:none;stroke:#000000;stroke-width:1.69605672;stroke-opacity:1" /><path
     inkscape:connector-curvature="0"
     id="path4226-9-8-4"
     d="m 27.411973,118.08731 c 0,0 -2.671021,0 -2.671021,0"
     style="fill:none;stroke:#000000;stroke-width:1.69605672;stroke-opacity:1" /><path
     inkscape:connector-curvature="0"
     id="path4228-2-2-1"
     d="m 27.411973,124.38757 c 0,0 -2.671021,0 -2.671021,0"
     style="fill:none;stroke:#000000;stroke-width:1.69605672;stroke-opacity:1" /><path
     inkscape:connector-curvature="0"
     id="path4230-3-6-4"
     d="m 27.411973,130.68785 c 0,0 -2.671021,0 -2.671021,0"
     style="fill:none;stroke:#000000;stroke-width:1.69605672;stroke-opacity:1" /><path
     inkscape:connector-curvature="0"
     id="path4232-4-6-3"
     d="m 27.411973,136.98812 c 0,0 -2.671021,0 -2.671021,0"
     style="fill:none;stroke:#000000;stroke-width:1.69605672;stroke-opacity:1" /><path
     inkscape:connector-curvature="0"
     id="path4234-2-0-9"
     d="m 27.411973,143.28839 c 0,0 -5.342042,0 -5.342042,0"
     style="fill:none;stroke:#000000;stroke-width:1.69605672;stroke-opacity:1" /><path
     inkscape:connector-curvature="0"
     id="path4236-1-3-8"
     d="m 27.411973,149.58867 c 0,0 -2.671021,0 -2.671021,0"
     style="fill:none;stroke:#000000;stroke-width:1.69605672;stroke-opacity:1" /><path
     inkscape:connector-curvature="0"
     id="path4238-0-8-8"
     d="m 27.411973,155.88894 c 0,0 -2.671021,0 -2.671021,0"
     style="fill:none;stroke:#000000;stroke-width:1.69605672;stroke-opacity:1" /><path
     inkscape:connector-curvature="0"
     id="path4240-6-0-0"
     d="m 27.411973,162.18922 c 0,0 -2.671021,0 -2.671021,0"
     style="fill:none;stroke:#000000;stroke-width:1.69605672;stroke-opacity:1" /><path
     inkscape:connector-curvature="0"
     id="path4242-9-1-8"
     d="m 27.411973,168.48949 c 0,0 -2.671021,0 -2.671021,0"
     style="fill:none;stroke:#000000;stroke-width:1.69605672;stroke-opacity:1" /><path
     inkscape:connector-curvature="0"
     id="path4244-8-2-7"
     d="m 27.411973,174.78976 c 0,0 -5.342042,0 -5.342042,0"
     style="fill:none;stroke:#000000;stroke-width:1.69605672;stroke-opacity:1" /><path
     inkscape:connector-curvature="0"
     id="path4246-7-5-7"
     d="m 27.411973,181.09003 c 0,0 -2.671021,0 -2.671021,0"
     style="fill:none;stroke:#000000;stroke-width:1.69605672;stroke-opacity:1" /><path
     inkscape:connector-curvature="0"
     id="path4248-7-0-8"
     d="m 27.411973,187.3903 c 0,0 -2.671021,0 -2.671021,0"
     style="fill:none;stroke:#000000;stroke-width:1.69605672;stroke-opacity:1" /><path
     inkscape:connector-curvature="0"
     id="path4250-2-9-3"
     d="m 27.411973,193.69057 c 0,0 -2.671021,0 -2.671021,0"
     style="fill:none;stroke:#000000;stroke-width:1.69605672;stroke-opacity:1" /><path
     inkscape:connector-curvature="0"
     id="path4252-3-4-8"
     d="m 27.411973,199.99085 c 0,0 -2.671021,0 -2.671021,0"
     style="fill:none;stroke:#000000;stroke-width:1.69605672;stroke-opacity:1" /><path
     inkscape:connector-curvature="0"
     id="path4254-9-7-3"
     d="m 27.411973,206.29112 c 0,0 -5.342042,0 -5.342042,0"
     style="fill:none;stroke:#000000;stroke-width:1.69605672;stroke-opacity:1" /><path
     inkscape:connector-curvature="0"
     id="path4256-9-8-7"
     d="m 27.411973,212.59138 c 0,0 -2.671021,0 -2.671021,0"
     style="fill:none;stroke:#000000;stroke-width:1.69605672;stroke-opacity:1" /><path
     inkscape:connector-curvature="0"
     id="path4258-1-3-1"
     d="m 27.411973,218.89167 c 0,0 -2.671021,0 -2.671021,0"
     style="fill:none;stroke:#000000;stroke-width:1.69605672;stroke-opacity:1" /><path
     inkscape:connector-curvature="0"
     id="path4260-4-5-0"
     d="m 27.411973,225.19194 c 0,0 -2.671021,0 -2.671021,0"
     style="fill:none;stroke:#000000;stroke-width:1.69605672;stroke-opacity:1" /><path
     inkscape:connector-curvature="0"
     id="path4262-0-1-7"
     d="m 27.411973,231.49222 c 0,0 -2.671021,0 -2.671021,0"
     style="fill:none;stroke:#000000;stroke-width:1.69605672;stroke-opacity:1" /><path
     inkscape:connector-curvature="0"
     id="path4264-5-2-3"
     d="m 27.411973,237.79248 c 0,0 -5.342042,0 -5.342042,0"
     style="fill:none;stroke:#000000;stroke-width:1.69605672;stroke-opacity:1" /><path
     inkscape:connector-curvature="0"
     id="path4266-8-0-4"
     d="m 27.411973,244.09275 c 0,0 -2.671021,0 -2.671021,0"
     style="fill:none;stroke:#000000;stroke-width:1.69605672;stroke-opacity:1" /><path
     inkscape:connector-curvature="0"
     id="path4268-4-1-9"
     d="m 27.411973,250.39303 c 0,0 -2.671021,0 -2.671021,0"
     style="fill:none;stroke:#000000;stroke-width:1.69605672;stroke-opacity:1" /><path
     inkscape:connector-curvature="0"
     id="path4270-4-6-6"
     d="m 27.411973,256.6933 c 0,0 -2.671021,0 -2.671021,0"
     style="fill:none;stroke:#000000;stroke-width:1.69605672;stroke-opacity:1" /><path
     inkscape:connector-curvature="0"
     id="path4272-0-4-5"
     d="m 27.411973,262.99357 c 0,0 -2.671021,0 -2.671021,0"
     style="fill:none;stroke:#000000;stroke-width:1.69605672;stroke-opacity:1" /><path
     inkscape:connector-curvature="0"
     id="path4274-8-0-1"
     d="m 27.411973,269.29384 c 0,0 -5.342042,0 -5.342042,0"
     style="fill:none;stroke:#000000;stroke-width:1.69605672;stroke-opacity:1" /><path
     inkscape:connector-curvature="0"
     id="path4276-7-6-0"
     d="m 27.411973,275.59411 c 0,0 -2.671021,0 -2.671021,0"
     style="fill:none;stroke:#000000;stroke-width:1.69605672;stroke-opacity:1" /><path
     inkscape:connector-curvature="0"
     id="path4278-8-1-9"
     d="m 27.411973,281.8944 c 0,0 -2.671021,0 -2.671021,0"
     style="fill:none;stroke:#000000;stroke-width:1.69605672;stroke-opacity:1" /><path
     inkscape:connector-curvature="0"
     id="path4280-2-8-9"
     d="m 27.411973,288.19467 c 0,0 -2.671021,0 -2.671021,0"
     style="fill:none;stroke:#000000;stroke-width:1.69605672;stroke-opacity:1" /><path
     inkscape:connector-curvature="0"
     id="path4282-2-9-6"
     d="m 27.411973,294.49493 c 0,0 -2.671021,0 -2.671021,0"
     style="fill:none;stroke:#000000;stroke-width:1.69605672;stroke-opacity:1" /><path
     inkscape:connector-curvature="0"
     id="path4284-1-8-8"
     d="m 27.411973,300.7952 c 0,0 -5.342042,0 -5.342042,0"
     style="fill:none;stroke:#000000;stroke-width:1.69605672;stroke-opacity:1" /><path
     inkscape:connector-curvature="0"
     id="path4286-1-4-3"
     d="m 27.411973,307.09548 c 0,0 -2.671021,0 -2.671021,0"
     style="fill:none;stroke:#000000;stroke-width:1.69605672;stroke-opacity:1" /><path
     inkscape:connector-curvature="0"
     id="path4288-4-1-4"
     d="m 27.411973,313.39574 c 0,0 -2.671021,0 -2.671021,0"
     style="fill:none;stroke:#000000;stroke-width:1.69605672;stroke-opacity:1" /><path
     inkscape:connector-curvature="0"
     id="path4290-2-4-8"
     d="m 27.411973,319.69602 c 0,0 -2.671021,0 -2.671021,0"
     style="fill:none;stroke:#000000;stroke-width:1.69605672;stroke-opacity:1" /><path
     inkscape:connector-curvature="0"
     id="path4292-2-3-4"
     d="m 27.411973,325.9963 c 0,0 -2.671021,0 -2.671021,0"
     style="fill:none;stroke:#000000;stroke-width:1.69605672;stroke-opacity:1" /><path
     inkscape:connector-curvature="0"
     id="path4294-0-9-9"
     d="m 27.411973,332.29655 c 0,0 -5.342042,0 -5.342042,0"
     style="fill:none;stroke:#000000;stroke-width:1.69605672;stroke-opacity:1" /><path
     inkscape:connector-curvature="0"
     style="fill:none;stroke:#000000;stroke-width:1.69605672;stroke-opacity:1"
     d="m 27.411973,55.54239 c 0,0 -2.671021,0 -2.671021,0"
     id="path5892-8-9" /><path
     inkscape:connector-curvature="0"
     style="fill:none;stroke:#000000;stroke-width:1.69605672;stroke-opacity:1"
     d="m 27.411973,61.842661 c 0,0 -2.671021,0 -2.671021,0"
     id="path5894-8-2" /><path
     inkscape:connector-curvature="0"
     style="fill:none;stroke:#000000;stroke-width:1.69605672;stroke-opacity:1"
     d="m 27.411973,68.142926 c 0,0 -2.671021,0 -2.671021,0"
     id="path5896-0-5" /><path
     inkscape:connector-curvature="0"
     style="fill:none;stroke:#000000;stroke-width:1.69605672;stroke-opacity:1"
     d="m 27.411973,74.443198 c 0,0 -2.671021,0 -2.671021,0"
     id="path5898-8-5" /><path
     inkscape:connector-curvature="0"
     style="fill:none;stroke:#000000;stroke-width:1.69605672;stroke-opacity:1"
     d="m 27.411973,338.83246 c 0,0 -2.671021,0 -2.671021,0"
     id="path5900-7-3" /></g><path
   sodipodi:type="spiral"
   style="fill:none;stroke:#221406;stroke-width:1.37375617;stroke-linecap:butt;stroke-linejoin:miter;stroke-miterlimit:4;stroke-opacity:1;stroke-dasharray:none"
   id="path5885"
   sodipodi:cx="-6.9544535"
   sodipodi:cy="348.34872"
   sodipodi:expansion="1"
   sodipodi:revolution="1.2655467"
   sodipodi:radius="3.9033692"
   sodipodi:argument="-8.2995424"
   sodipodi:t0="0.72374725"
   d="m -9.2907729,346.76048 c 0.743296,-1.64234 2.8057223,-2.15754 4.3580727,-1.38576 0.7092078,0.35259 1.2876587,0.93955 1.647797,1.64333"
   transform="matrix(-1.2383977,-0.07600268,0.06938597,-1.356492,8.8250496,827.14844)" /><rect
   style="color:#000000;fill:none;stroke:#221406;stroke-width:1.10399997;stroke-linecap:round;stroke-linejoin:miter;stroke-miterlimit:4;stroke-opacity:1;stroke-dasharray:none;marker:none;visibility:visible;display:inline;overflow:visible;enable-background:accumulate"
   id="rect8710"
   width="6.2927294"
   height="0.60155773"
   x="37.421295"
   y="359.54056" /></g></svg>