<?xml version="1.0" encoding="UTF-8" standalone="no"?>
<svg
   xmlns:vfp="http://www.labcenter.com/namespaces/vfp"
   xmlns:dc="http://purl.org/dc/elements/1.1/"
   xmlns:cc="http://creativecommons.org/ns#"
   xmlns:rdf="http://www.w3.org/1999/02/22-rdf-syntax-ns#"
   xmlns:svg="http://www.w3.org/2000/svg"
   xmlns="http://www.w3.org/2000/svg"
   xmlns:xlink="http://www.w3.org/1999/xlink"
   height="401.44003"
   width="81.440002"
   version="1.1"
   id="main"
   x="0px"
   y="0px"
   viewBox="0 0 81.440002 401.44003"
   xml:space="preserve"><vfp:catalogue
     PREFIX="TH"
     CATEGORY="Display Controls"
     DESC="Mercury Thermometer (0 to 100 degrees C)" /><metadata
     id="metadata319"><rdf:RDF><cc:Work
         rdf:about=""><dc:format>image/svg+xml</dc:format><dc:type
           rdf:resource="http://purl.org/dc/dcmitype/StillImage" /><dc:title></dc:title></cc:Work></rdf:RDF></metadata><defs
     id="thermometerDefs"><radialGradient
       gradientUnits="userSpaceOnUse"
       r="3.1489697"
       fy="385.18607"
       fx="825.55481"
       cy="385.18607"
       cx="825.55481"
       id="thermoGradient7537"
       xlink:href="#thermoGradient7531"
       gradientTransform="matrix(1.6000001,0,0,1.6000001,-1276.389,-257.99876)" /><linearGradient
       id="thermoGradient7531"><stop
         id="stop7533"
         offset="0"
         style="stop-color:#ffffff;stop-opacity:1;" /><stop
         id="stop7535"
         offset="1"
         style="stop-color:#ffffff;stop-opacity:0;" /></linearGradient><linearGradient
       gradientTransform="matrix(1.6000001,0,0,1.6000001,-1279.3679,-257.99876)"
       gradientUnits="userSpaceOnUse"
       y2="277.48532"
       x2="840.53595"
       y1="277.12817"
       x1="814.66809"
       id="thermoGradient7435"
       xlink:href="#thermoGradient7429" /><linearGradient
       id="thermoGradient7429"><stop
         id="stop7431"
         offset="0"
         style="stop-color:#82817d;stop-opacity:1;" /><stop
         id="stop7433"
         offset="1"
         style="stop-color:#82817d;stop-opacity:0;" /></linearGradient><linearGradient
       gradientTransform="matrix(1.6000001,0,0,1.6000001,-1279.28,-257.99876)"
       gradientUnits="userSpaceOnUse"
       y2="218.54274"
       x2="756.52026"
       y1="247.0864"
       x1="899.64886"
       id="thermoGradient7383"
       xlink:href="#thermoGradient7377" /><linearGradient
       id="thermoGradient7377"><stop
         id="stop7379"
         offset="0"
         style="stop-color:#d3d4d4;stop-opacity:1;" /><stop
         id="stop7381"
         offset="1"
         style="stop-color:#d3d4d4;stop-opacity:0;" /></linearGradient></defs><g
     vfp:class="Thermometer"
     id="root"><path
       id="path5882"
       d="M 40.719997,0.72000019 A 40.000002,40.000002 0 0 0 0.7199972,40.720008 l 0,320.000022 a 40.000002,40.000002 0 0 0 39.9999998,40 40.000002,40.000002 0 0 0 40.000001,-40 l 0,-320.000022 A 40.000002,40.000002 0 0 0 40.719997,0.72000019 Z"
       style="fill:url(#thermoGradient7383);fill-opacity:1;stroke:#696969;stroke-width:1.43999994;stroke-linecap:butt;stroke-linejoin:round;stroke-miterlimit:4;stroke-dasharray:none;stroke-opacity:1" /><path
       id="path7409"
       d="m 40.719917,40.720008 a 12.000001,12.000001 0 0 0 -11.95,11.021872 l -0.04992,0 0,295.72189 a 17.516374,17.516374 0 0 0 -5.515632,12.74377 17.516374,17.516374 0 0 0 17.515632,17.51561 17.516374,17.516374 0 0 0 17.515616,-17.51561 17.516374,17.516374 0 0 0 -5.515616,-12.73125 l 0,-295.73441 -0.04688,0 A 12.000001,12.000001 0 0 0 40.719997,40.720008 Z"
       style="fill:url(#thermoGradient7435);fill-opacity:1;stroke:none;stroke-width:5;stroke-linecap:butt;stroke-linejoin:round;stroke-miterlimit:4;stroke-dasharray:none;stroke-opacity:1" /><path
       id="path7437"
       d="m 40.745539,52.985632 a 5.6000004,5.6000004 0 0 0 -5.6,5.584376 5.6000004,5.6000004 0 0 0 0,0.016 l 0,291.000022 a 12.428418,12.428418 0 0 0 -6.828128,11.09064 12.428418,12.428418 0 0 0 12.428128,12.42812 12.428418,12.428418 0 0 0 12.428136,-12.42812 12.428418,12.428418 0 0 0 -6.828136,-11.08127 l 0,-291.009392 a 5.6000004,5.6000004 0 0 0 0,-0.016 5.6000004,5.6000004 0 0 0 -5.6,-5.584376 z"
       style="fill:#c6c6bd;fill-opacity:1;stroke:none;stroke-width:5;stroke-linecap:butt;stroke-linejoin:round;stroke-miterlimit:4;stroke-dasharray:none;stroke-opacity:1" /><circle
       style="fill:#c72221;fill-opacity:1;stroke:none;stroke-width:2.5;stroke-linecap:butt;stroke-linejoin:round;stroke-miterlimit:4;stroke-dasharray:none;stroke-opacity:0.43413176"
       id="path4325"
       cx="40.745544"
       cy="360.57462"
       r="10" /><text
       style="font-size:20px;font-family:Verdana"
       id="text6200"
       font-size="25"
       y="48.374619"
       x="60.008194">C</text>
<text
       style="font-size:20px;font-family:Verdana"
       id="text6200-7"
       font-size="25"
       y="48.374619"
       x="10.14554">F</text>
<g
       id="g5918"
       transform="translate(0.02619052,-0.29992188)"><text
         style="font-style:normal;font-variant:normal;font-weight:normal;font-stretch:normal;font-size:9.59999943px;line-height:125%;font-family:Verdana;-inkscape-font-specification:'Verdana, Normal';text-align:start;writing-mode:lr-tb;text-anchor:start"
         x="2.119122"
         y="83.869263"
         font-size="12"
         id="text6202-0">200</text>
<text
         style="font-style:normal;font-variant:normal;font-weight:normal;font-stretch:normal;font-size:9.59999943px;line-height:125%;font-family:Verdana;-inkscape-font-specification:'Verdana, Normal';text-align:start;writing-mode:lr-tb;text-anchor:start"
         x="2.119122"
         y="114.34"
         font-size="12"
         id="text6209-8">180</text>
<text
         style="font-style:normal;font-variant:normal;font-weight:normal;font-stretch:normal;font-size:9.59999943px;line-height:125%;font-family:Verdana;-inkscape-font-specification:'Verdana, Normal';text-align:start;writing-mode:lr-tb;text-anchor:start"
         x="2.4285192"
         y="146.33904"
         font-size="12"
         id="text6216-1">160</text>
<text
         style="font-style:normal;font-variant:normal;font-weight:normal;font-stretch:normal;font-size:9.59999943px;line-height:125%;font-family:Verdana;-inkscape-font-specification:'Verdana, Normal';text-align:start;writing-mode:lr-tb;text-anchor:start"
         x="2.119122"
         y="177.23502"
         font-size="12"
         id="text6223-9">140</text>
<text
         style="font-style:normal;font-variant:normal;font-weight:normal;font-stretch:normal;font-size:9.59999943px;line-height:125%;font-family:Verdana;-inkscape-font-specification:'Verdana, Normal';text-align:start;writing-mode:lr-tb;text-anchor:start"
         x="2.119122"
         y="209.40677"
         font-size="12"
         id="text6230-0">120</text>
<text
         style="font-style:normal;font-variant:normal;font-weight:normal;font-stretch:normal;font-size:9.59999943px;line-height:125%;font-family:Verdana;-inkscape-font-specification:'Verdana, Normal';text-align:start;writing-mode:lr-tb;text-anchor:start"
         x="2.119122"
         y="240.82088"
         font-size="12"
         id="text6237-3">100</text>
<text
         style="font-style:normal;font-variant:normal;font-weight:normal;font-stretch:normal;font-size:9.59999943px;line-height:125%;font-family:Verdana;-inkscape-font-specification:'Verdana, Normal';text-align:start;writing-mode:lr-tb;text-anchor:start"
         x="8.2316217"
         y="272.66837"
         font-size="12"
         id="text6244-2">80</text>
<text
         style="font-style:normal;font-variant:normal;font-weight:normal;font-stretch:normal;font-size:9.60000038px;line-height:125%;font-family:Verdana;-inkscape-font-specification:'Verdana, Normal';text-align:start;writing-mode:lr-tb;text-anchor:start"
         x="8.2316208"
         y="303.13913"
         font-size="12"
         id="text6251-6">60</text>
<text
         style="font-style:normal;font-variant:normal;font-weight:normal;font-stretch:normal;font-size:9.60000038px;line-height:125%;font-family:Verdana;-inkscape-font-specification:'Verdana, Normal';text-align:start;writing-mode:lr-tb;text-anchor:start"
         x="8.2316208"
         y="335.28964"
         font-size="12"
         id="text6258-3">40</text>
</g><g
       id="g4517"
       transform="matrix(0.8,0,0,-2.84,37.88,343.29)"><g
         id="g4519"><rect
           id="rect4521"
           style="opacity:0"
           width="6.7496719"
           height="100"
           x="0"
           y="0"
           class="scale" /><rect
           id="rect4523"
           style="opacity:1;fill:#c72221"
           width="6.7496719"
           height="50"
           x="0"
           y="0"
           class="mercury" /></g><rect
         id="rect4525"
         style="opacity:1;fill:#c72221;stroke:none"
         width="6.7496719"
         height="5.0500002"
         x="0"
         y="-4.9499998" /></g><circle
       r="5.038352"
       cy="358.29904"
       cx="44.498817"
       id="path7515"
       style="fill:url(#thermoGradient7537);fill-opacity:1;stroke:none;stroke-width:5;stroke-linecap:butt;stroke-linejoin:round;stroke-miterlimit:4;stroke-dasharray:none;stroke-opacity:1" /><g
       id="g5644"
       transform="matrix(1,0,0,1.0121744,-48.904241,-4.5988464)"><path
         style="stroke:#000000;stroke-width:1.50949836"
         d="m 102.72263,92.130237 4.8,0"
         id="path5094" /><path
         style="stroke:#000000;stroke-width:1.50949836"
         d="m 102.72263,97.684289 2.4,0"
         id="path5096" /><path
         style="stroke:#000000;stroke-width:1.50949836"
         d="m 102.72263,103.23834 2.4,0"
         id="path5098" /><path
         style="stroke:#000000;stroke-width:1.50949836"
         d="m 102.72263,108.79239 2.4,0"
         id="path5100" /><path
         style="stroke:#000000;stroke-width:1.50949836"
         d="m 102.72263,114.34644 2.4,0"
         id="path5102" /><path
         style="stroke:#000000;stroke-width:1.50949836"
         d="m 102.72263,119.9005 4.8,0"
         id="path5104" /><path
         style="stroke:#000000;stroke-width:1.50949836"
         d="m 102.72263,125.45455 2.4,0"
         id="path5106" /><path
         style="stroke:#000000;stroke-width:1.50949836"
         d="m 102.72263,131.0086 2.4,0"
         id="path5108" /><path
         style="stroke:#000000;stroke-width:1.50949836"
         d="m 102.72263,136.56265 2.4,0"
         id="path5110" /><path
         style="stroke:#000000;stroke-width:1.50949836"
         d="m 102.72263,142.1167 2.4,0"
         id="path5112" /><path
         style="stroke:#000000;stroke-width:1.50949836"
         d="m 102.72263,147.67075 4.8,0"
         id="path5114" /><path
         style="stroke:#000000;stroke-width:1.50949836"
         d="m 102.72263,153.22481 2.4,0"
         id="path5116" /><path
         style="stroke:#000000;stroke-width:1.50949836"
         d="m 102.72263,158.77886 2.4,0"
         id="path5118" /><path
         style="stroke:#000000;stroke-width:1.50949836"
         d="m 102.72263,164.33291 2.4,0"
         id="path5120" /><path
         style="stroke:#000000;stroke-width:1.50949836"
         d="m 102.72263,169.88696 2.4,0"
         id="path5122" /><path
         style="stroke:#000000;stroke-width:1.50949836"
         d="m 102.72263,175.44101 4.8,0"
         id="path5124" /><path
         style="stroke:#000000;stroke-width:1.50949836"
         d="m 102.72263,180.99506 2.4,0"
         id="path5126" /><path
         style="stroke:#000000;stroke-width:1.50949836"
         d="m 102.72263,186.54912 2.4,0"
         id="path5128" /><path
         style="stroke:#000000;stroke-width:1.50949836"
         d="m 102.72263,192.10317 2.4,0"
         id="path5130" /><path
         style="stroke:#000000;stroke-width:1.50949836"
         d="m 102.72263,197.65722 2.4,0"
         id="path5132" /><path
         style="stroke:#000000;stroke-width:1.50949836"
         d="m 102.72263,203.21127 4.8,0"
         id="path5134" /><path
         style="stroke:#000000;stroke-width:1.50949836"
         d="m 102.72263,208.76532 2.4,0"
         id="path5136" /><path
         style="stroke:#000000;stroke-width:1.50949836"
         d="m 102.72263,214.31937 2.4,0"
         id="path5138" /><path
         style="stroke:#000000;stroke-width:1.50949836"
         d="m 102.72263,219.87343 2.4,0"
         id="path5140" /><path
         style="stroke:#000000;stroke-width:1.50949836"
         d="m 102.72263,225.42748 2.4,0"
         id="path5142" /><path
         style="stroke:#000000;stroke-width:1.50949836"
         d="m 102.72263,230.98153 4.8,0"
         id="path5144" /><path
         style="stroke:#000000;stroke-width:1.50949836"
         d="m 102.72263,236.53558 2.4,0"
         id="path5146" /><path
         style="stroke:#000000;stroke-width:1.50949836"
         d="m 102.72263,242.08963 2.4,0"
         id="path5148" /><path
         style="stroke:#000000;stroke-width:1.50949836"
         d="m 102.72263,247.64368 2.4,0"
         id="path5150" /><path
         style="stroke:#000000;stroke-width:1.50949836"
         d="m 102.72263,253.19774 2.4,0"
         id="path5152" /><path
         style="stroke:#000000;stroke-width:1.50949836"
         d="m 102.72263,258.75179 4.8,0"
         id="path5154" /><path
         style="stroke:#000000;stroke-width:1.50949836"
         d="m 102.72263,264.30584 2.4,0"
         id="path5156" /><path
         style="stroke:#000000;stroke-width:1.50949836"
         d="m 102.72263,269.85989 2.4,0"
         id="path5158" /><path
         style="stroke:#000000;stroke-width:1.50949836"
         d="m 102.72263,275.41394 2.4,0"
         id="path5160" /><path
         style="stroke:#000000;stroke-width:1.50949836"
         d="m 102.72263,280.96799 2.4,0"
         id="path5162" /><path
         style="stroke:#000000;stroke-width:1.50949836"
         d="m 102.72263,286.52204 4.8,0"
         id="path5164" /><path
         style="stroke:#000000;stroke-width:1.50949836"
         d="m 102.72263,292.0761 2.4,0"
         id="path5166" /><path
         style="stroke:#000000;stroke-width:1.50949836"
         d="m 102.72263,297.63015 2.4,0"
         id="path5168" /><path
         style="stroke:#000000;stroke-width:1.50949836"
         d="m 102.72263,303.1842 2.4,0"
         id="path5170" /><path
         style="stroke:#000000;stroke-width:1.50949836"
         d="m 102.72263,308.73825 2.4,0"
         id="path5172" /><path
         style="stroke:#000000;stroke-width:1.50949836"
         d="m 102.72263,314.2923 4.8,0"
         id="path5174" /><path
         style="stroke:#000000;stroke-width:1.50949836"
         d="m 102.72263,319.84635 2.4,0"
         id="path5176" /><path
         style="stroke:#000000;stroke-width:1.50949836"
         d="m 102.72263,325.40041 2.4,0"
         id="path5178" /><path
         style="stroke:#000000;stroke-width:1.50949836"
         d="m 102.72263,330.95446 2.4,0"
         id="path5180" /><path
         style="stroke:#000000;stroke-width:1.50949836"
         d="m 102.72263,336.50851 2.4,0"
         id="path5182" /><path
         style="stroke:#000000;stroke-width:1.50949836"
         d="m 102.72263,342.06256 4.8,0"
         id="path5184" /><path
         style="stroke:#000000;stroke-width:1.50949836"
         d="m 102.72263,92.130237 4.8,0"
         id="path5186" /><path
         style="stroke:#000000;stroke-width:1.50949836"
         d="m 102.72263,97.684289 2.4,0"
         id="path5188" /><path
         style="stroke:#000000;stroke-width:1.50949836"
         d="m 102.72263,103.23834 2.4,0"
         id="path5190" /><path
         style="stroke:#000000;stroke-width:1.50949836"
         d="m 102.72263,108.79239 2.4,0"
         id="path5192" /><path
         style="stroke:#000000;stroke-width:1.50949836"
         d="m 102.72263,114.34644 2.4,0"
         id="path5194" /><path
         style="stroke:#000000;stroke-width:1.50949836"
         d="m 102.72263,119.9005 4.8,0"
         id="path5196" /><path
         style="stroke:#000000;stroke-width:1.50949836"
         d="m 102.72263,125.45455 2.4,0"
         id="path5198" /><path
         style="stroke:#000000;stroke-width:1.50949836"
         d="m 102.72263,131.0086 2.4,0"
         id="path5200" /><path
         style="stroke:#000000;stroke-width:1.50949836"
         d="m 102.72263,136.56265 2.4,0"
         id="path5202" /><path
         style="stroke:#000000;stroke-width:1.50949836"
         d="m 102.72263,142.1167 2.4,0"
         id="path5204" /><path
         style="stroke:#000000;stroke-width:1.50949836"
         d="m 102.72263,147.67075 4.8,0"
         id="path5206" /><path
         style="stroke:#000000;stroke-width:1.50949836"
         d="m 102.72263,153.22481 2.4,0"
         id="path5208" /><path
         style="stroke:#000000;stroke-width:1.50949836"
         d="m 102.72263,158.77886 2.4,0"
         id="path5210" /><path
         style="stroke:#000000;stroke-width:1.50949836"
         d="m 102.72263,164.33291 2.4,0"
         id="path5212" /><path
         style="stroke:#000000;stroke-width:1.50949836"
         d="m 102.72263,169.88696 2.4,0"
         id="path5214" /><path
         style="stroke:#000000;stroke-width:1.50949836"
         d="m 102.72263,175.44101 4.8,0"
         id="path5216" /><path
         style="stroke:#000000;stroke-width:1.50949836"
         d="m 102.72263,180.99506 2.4,0"
         id="path5218" /><path
         style="stroke:#000000;stroke-width:1.50949836"
         d="m 102.72263,186.54912 2.4,0"
         id="path5220" /><path
         style="stroke:#000000;stroke-width:1.50949836"
         d="m 102.72263,192.10317 2.4,0"
         id="path5222" /><path
         style="stroke:#000000;stroke-width:1.50949836"
         d="m 102.72263,197.65722 2.4,0"
         id="path5224" /><path
         style="stroke:#000000;stroke-width:1.50949836"
         d="m 102.72263,203.21127 4.8,0"
         id="path5226" /><path
         style="stroke:#000000;stroke-width:1.50949836"
         d="m 102.72263,208.76532 2.4,0"
         id="path5228" /><path
         style="stroke:#000000;stroke-width:1.50949836"
         d="m 102.72263,214.31937 2.4,0"
         id="path5230" /><path
         style="stroke:#000000;stroke-width:1.50949836"
         d="m 102.72263,219.87343 2.4,0"
         id="path5232" /><path
         style="stroke:#000000;stroke-width:1.50949836"
         d="m 102.72263,225.42748 2.4,0"
         id="path5234" /><path
         style="stroke:#000000;stroke-width:1.50949836"
         d="m 102.72263,230.98153 4.8,0"
         id="path5236" /><path
         style="stroke:#000000;stroke-width:1.50949836"
         d="m 102.72263,236.53558 2.4,0"
         id="path5238" /><path
         style="stroke:#000000;stroke-width:1.50949836"
         d="m 102.72263,242.08963 2.4,0"
         id="path5240" /><path
         style="stroke:#000000;stroke-width:1.50949836"
         d="m 102.72263,247.64368 2.4,0"
         id="path5242" /><path
         style="stroke:#000000;stroke-width:1.50949836"
         d="m 102.72263,253.19774 2.4,0"
         id="path5244" /><path
         style="stroke:#000000;stroke-width:1.50949836"
         d="m 102.72263,258.75179 4.8,0"
         id="path5246" /><path
         style="stroke:#000000;stroke-width:1.50949836"
         d="m 102.72263,264.30584 2.4,0"
         id="path5248" /><path
         style="stroke:#000000;stroke-width:1.50949836"
         d="m 102.72263,269.85989 2.4,0"
         id="path5250" /><path
         style="stroke:#000000;stroke-width:1.50949836"
         d="m 102.72263,275.41394 2.4,0"
         id="path5252" /><path
         style="stroke:#000000;stroke-width:1.50949836"
         d="m 102.72263,280.96799 2.4,0"
         id="path5254" /><path
         style="stroke:#000000;stroke-width:1.50949836"
         d="m 102.72263,286.52204 4.8,0"
         id="path5256" /><path
         style="stroke:#000000;stroke-width:1.50949836"
         d="m 102.72263,292.0761 2.4,0"
         id="path5258" /><path
         style="stroke:#000000;stroke-width:1.50949836"
         d="m 102.72263,297.63015 2.4,0"
         id="path5260" /><path
         style="stroke:#000000;stroke-width:1.50949836"
         d="m 102.72263,303.1842 2.4,0"
         id="path5262" /><path
         style="stroke:#000000;stroke-width:1.50949836"
         d="m 102.72263,308.73825 2.4,0"
         id="path5264" /><path
         style="stroke:#000000;stroke-width:1.50949836"
         d="m 102.72263,314.2923 4.8,0"
         id="path5266" /><path
         style="stroke:#000000;stroke-width:1.50949836"
         d="m 102.72263,319.84635 2.4,0"
         id="path5268" /><path
         style="stroke:#000000;stroke-width:1.50949836"
         d="m 102.72263,325.40041 2.4,0"
         id="path5270" /><path
         style="stroke:#000000;stroke-width:1.50949836"
         d="m 102.72263,330.95446 2.4,0"
         id="path5272" /><path
         style="stroke:#000000;stroke-width:1.50949836"
         d="m 102.72263,336.50851 2.4,0"
         id="path5274" /><path
         id="path5624"
         d="m 102.72263,64.130237 4.8,0"
         style="stroke:#000000;stroke-width:1.50949836" /><path
         id="path5626"
         d="m 102.72263,69.684289 2.4,0"
         style="stroke:#000000;stroke-width:1.50949836" /><path
         id="path5628"
         d="m 102.72263,75.23834 2.4,0"
         style="stroke:#000000;stroke-width:1.50949836" /><path
         id="path5630"
         d="m 102.72263,80.79239 2.4,0"
         style="stroke:#000000;stroke-width:1.50949836" /><path
         id="path5632"
         d="m 102.72263,86.34644 2.4,0"
         style="stroke:#000000;stroke-width:1.50949836" /><path
         id="path5634"
         d="m 102.72263,64.130237 4.8,0"
         style="stroke:#000000;stroke-width:1.50949836" /><path
         id="path5636"
         d="m 102.72263,69.684289 2.4,0"
         style="stroke:#000000;stroke-width:1.50949836" /><path
         id="path5638"
         d="m 102.72263,75.23834 2.4,0"
         style="stroke:#000000;stroke-width:1.50949836" /><path
         id="path5640"
         d="m 102.72263,80.79239 2.4,0"
         style="stroke:#000000;stroke-width:1.50949836" /><path
         id="path5642"
         d="m 102.72263,86.34644 2.4,0"
         style="stroke:#000000;stroke-width:1.50949836" /></g><g
       transform="translate(-0.19950121,0)"
       id="g5782"><text
         style="font-style:normal;font-variant:normal;font-weight:normal;font-stretch:normal;font-size:9.59999943px;line-height:125%;font-family:Verdana;-inkscape-font-specification:'Verdana, Normal';text-align:start;writing-mode:lr-tb;text-anchor:start"
         x="59.897377"
         y="63.831722"
         font-size="12"
         id="text5776">100</text>
<text
         id="text6202"
         font-size="12"
         y="91.965988"
         x="60.670815"
         style="font-style:normal;font-variant:normal;font-weight:normal;font-stretch:normal;font-size:9.59999943px;line-height:125%;font-family:Verdana;-inkscape-font-specification:'Verdana, Normal';text-align:start;writing-mode:lr-tb;text-anchor:start">90</text>
<text
         id="text6209"
         font-size="12"
         y="120.10264"
         x="60.628628"
         style="font-style:normal;font-variant:normal;font-weight:normal;font-stretch:normal;font-size:9.59999943px;line-height:125%;font-family:Verdana;-inkscape-font-specification:'Verdana, Normal';text-align:start;writing-mode:lr-tb;text-anchor:start">80</text>
<text
         id="text6216"
         font-size="12"
         y="148.23456"
         x="60.478626"
         style="font-style:normal;font-variant:normal;font-weight:normal;font-stretch:normal;font-size:9.59999943px;line-height:125%;font-family:Verdana;-inkscape-font-specification:'Verdana, Normal';text-align:start;writing-mode:lr-tb;text-anchor:start">70</text>
<text
         id="text6223"
         font-size="12"
         y="176.36887"
         x="60.558315"
         style="font-style:normal;font-variant:normal;font-weight:normal;font-stretch:normal;font-size:9.59999943px;line-height:125%;font-family:Verdana;-inkscape-font-specification:'Verdana, Normal';text-align:start;writing-mode:lr-tb;text-anchor:start">60</text>
<text
         id="text6230"
         font-size="12"
         y="204.50316"
         x="60.32394"
         style="font-style:normal;font-variant:normal;font-weight:normal;font-stretch:normal;font-size:9.59999943px;line-height:125%;font-family:Verdana;-inkscape-font-specification:'Verdana, Normal';text-align:start;writing-mode:lr-tb;text-anchor:start">50</text>
<text
         id="text6237"
         font-size="12"
         y="232.63745"
         x="60.839565"
         style="font-style:normal;font-variant:normal;font-weight:normal;font-stretch:normal;font-size:9.59999943px;line-height:125%;font-family:Verdana;-inkscape-font-specification:'Verdana, Normal';text-align:start;writing-mode:lr-tb;text-anchor:start">40</text>
<text
         id="text6342"
         font-size="12"
         y="260.77408"
         x="60.41769"
         style="font-style:normal;font-variant:normal;font-weight:normal;font-stretch:normal;font-size:9.59999943px;line-height:125%;font-family:Verdana;-inkscape-font-specification:'Verdana, Normal';text-align:start;writing-mode:lr-tb;text-anchor:start">30</text>
<text
         id="text6251"
         font-size="12"
         y="288.90839"
         x="60.445816"
         style="font-style:normal;font-variant:normal;font-weight:normal;font-stretch:normal;font-size:9.59999943px;line-height:125%;font-family:Verdana;-inkscape-font-specification:'Verdana, Normal';text-align:start;writing-mode:lr-tb;text-anchor:start">20</text>
<text
         id="text6258"
         font-size="12"
         y="317.04034"
         x="59.897377"
         style="font-style:normal;font-variant:normal;font-weight:normal;font-stretch:normal;font-size:9.59999943px;line-height:125%;font-family:Verdana;-inkscape-font-specification:'Verdana, Normal';text-align:start;writing-mode:lr-tb;text-anchor:start">10</text>
<text
         id="text6378"
         font-size="12"
         y="345.17462"
         x="60.558315"
         style="font-style:normal;font-variant:normal;font-weight:normal;font-stretch:normal;font-size:9.59999943px;line-height:125%;font-family:Verdana;-inkscape-font-specification:'Verdana, Normal';text-align:start;writing-mode:lr-tb;text-anchor:start">0</text>
</g><g
       id="g5936"><path
         style="stroke:#000000;stroke-width:1.69605672"
         d="m 27.457862,80.00613 -5.342042,0"
         id="path7539-0" /><path
         style="stroke:#000000;stroke-width:1.69605672"
         d="m 27.457862,86.306402 -2.671021,0"
         id="path4216-3" /><path
         style="stroke:#000000;stroke-width:1.69605672"
         d="m 27.457862,92.606673 -2.671021,0"
         id="path4218-2" /><path
         style="stroke:#000000;stroke-width:1.69605672"
         d="m 27.457862,98.906938 -2.671021,0"
         id="path4220-7" /><path
         style="stroke:#000000;stroke-width:1.69605672"
         d="m 27.457862,105.20721 -2.671021,0"
         id="path4222-2" /><path
         style="stroke:#000000;stroke-width:1.69605672"
         d="m 27.457862,111.50749 -5.342042,0"
         id="path4224-3" /><path
         style="stroke:#000000;stroke-width:1.69605672"
         d="m 27.457862,117.80776 -2.671021,0"
         id="path4226-9" /><path
         style="stroke:#000000;stroke-width:1.69605672"
         d="m 27.457862,124.10802 -2.671021,0"
         id="path4228-2" /><path
         style="stroke:#000000;stroke-width:1.69605672"
         d="m 27.457862,130.4083 -2.671021,0"
         id="path4230-3" /><path
         style="stroke:#000000;stroke-width:1.69605672"
         d="m 27.457862,136.70857 -2.671021,0"
         id="path4232-4" /><path
         style="stroke:#000000;stroke-width:1.69605672"
         d="m 27.457862,143.00884 -5.342042,0"
         id="path4234-2" /><path
         style="stroke:#000000;stroke-width:1.69605672"
         d="m 27.457862,149.30912 -2.671021,0"
         id="path4236-1" /><path
         style="stroke:#000000;stroke-width:1.69605672"
         d="m 27.457862,155.60939 -2.671021,0"
         id="path4238-0" /><path
         style="stroke:#000000;stroke-width:1.69605672"
         d="m 27.457862,161.90967 -2.671021,0"
         id="path4240-6" /><path
         style="stroke:#000000;stroke-width:1.69605672"
         d="m 27.457862,168.20994 -2.671021,0"
         id="path4242-9" /><path
         style="stroke:#000000;stroke-width:1.69605672"
         d="m 27.457862,174.51021 -5.342042,0"
         id="path4244-8" /><path
         style="stroke:#000000;stroke-width:1.69605672"
         d="m 27.457862,180.81048 -2.671021,0"
         id="path4246-7" /><path
         style="stroke:#000000;stroke-width:1.69605672"
         d="m 27.457862,187.11075 -2.671021,0"
         id="path4248-7" /><path
         style="stroke:#000000;stroke-width:1.69605672"
         d="m 27.457862,193.41102 -2.671021,0"
         id="path4250-2" /><path
         style="stroke:#000000;stroke-width:1.69605672"
         d="m 27.457862,199.7113 -2.671021,0"
         id="path4252-3" /><path
         style="stroke:#000000;stroke-width:1.69605672"
         d="m 27.457862,206.01157 -5.342042,0"
         id="path4254-9" /><path
         style="stroke:#000000;stroke-width:1.69605672"
         d="m 27.457862,212.31183 -2.671021,0"
         id="path4256-9" /><path
         style="stroke:#000000;stroke-width:1.69605672"
         d="m 27.457862,218.61212 -2.671021,0"
         id="path4258-1" /><path
         style="stroke:#000000;stroke-width:1.69605672"
         d="m 27.457862,224.91239 -2.671021,0"
         id="path4260-4" /><path
         style="stroke:#000000;stroke-width:1.69605672"
         d="m 27.457862,231.21267 -2.671021,0"
         id="path4262-0" /><path
         style="stroke:#000000;stroke-width:1.69605672"
         d="m 27.457862,237.51293 -5.342042,0"
         id="path4264-5" /><path
         style="stroke:#000000;stroke-width:1.69605672"
         d="m 27.457862,243.8132 -2.671021,0"
         id="path4266-8" /><path
         style="stroke:#000000;stroke-width:1.69605672"
         d="m 27.457862,250.11348 -2.671021,0"
         id="path4268-4" /><path
         style="stroke:#000000;stroke-width:1.69605672"
         d="m 27.457862,256.41375 -2.671021,0"
         id="path4270-4" /><path
         style="stroke:#000000;stroke-width:1.69605672"
         d="m 27.457862,262.71402 -2.671021,0"
         id="path4272-0" /><path
         style="stroke:#000000;stroke-width:1.69605672"
         d="m 27.457862,269.01429 -5.342042,0"
         id="path4274-8" /><path
         style="stroke:#000000;stroke-width:1.69605672"
         d="m 27.457862,275.31456 -2.671021,0"
         id="path4276-7" /><path
         style="stroke:#000000;stroke-width:1.69605672"
         d="m 27.457862,281.61485 -2.671021,0"
         id="path4278-8" /><path
         style="stroke:#000000;stroke-width:1.69605672"
         d="m 27.457862,287.91512 -2.671021,0"
         id="path4280-2" /><path
         style="stroke:#000000;stroke-width:1.69605672"
         d="m 27.457862,294.21538 -2.671021,0"
         id="path4282-2" /><path
         style="stroke:#000000;stroke-width:1.69605672"
         d="m 27.457862,300.51565 -5.342042,0"
         id="path4284-1" /><path
         style="stroke:#000000;stroke-width:1.69605672"
         d="m 27.457862,306.81593 -2.671021,0"
         id="path4286-1" /><path
         style="stroke:#000000;stroke-width:1.69605672"
         d="m 27.457862,313.11619 -2.671021,0"
         id="path4288-4" /><path
         style="stroke:#000000;stroke-width:1.69605672"
         d="m 27.457862,319.41647 -2.671021,0"
         id="path4290-2" /><path
         style="stroke:#000000;stroke-width:1.69605672"
         d="m 27.457862,325.71675 -2.671021,0"
         id="path4292-2" /><path
         style="stroke:#000000;stroke-width:1.69605672"
         d="m 27.457862,332.017 -5.342042,0"
         id="path4294-0" /><path
         id="path5892"
         d="m 27.457862,55.26284 -2.671021,0"
         style="stroke:#000000;stroke-width:1.69605672" /><path
         id="path5894"
         d="m 27.457862,61.563111 -2.671021,0"
         style="stroke:#000000;stroke-width:1.69605672" /><path
         id="path5896"
         d="m 27.457862,67.863376 -2.671021,0"
         style="stroke:#000000;stroke-width:1.69605672" /><path
         id="path5898"
         d="m 27.457862,74.163648 -2.671021,0"
         style="stroke:#000000;stroke-width:1.69605672" /><path
         id="path5900"
         d="m 27.457862,338.55291 -2.671021,0"
         style="stroke:#000000;stroke-width:1.69605672" /></g></g></svg>