<?xml version="1.0" encoding="UTF-8" standalone="no"?>
<svg
   xmlns:vfp="http://www.labcenter.com/namespaces/vfp"
   xmlns:dc="http://purl.org/dc/elements/1.1/"
   xmlns:cc="http://creativecommons.org/ns#"
   xmlns:rdf="http://www.w3.org/1999/02/22-rdf-syntax-ns#"
   xmlns:svg="http://www.w3.org/2000/svg"
   xmlns="http://www.w3.org/2000/svg"
   xmlns:xlink="http://www.w3.org/1999/xlink"
   height="401.44003"
   width="81.440002"
   version="1.1"
   id="main"
   x="0px"
   y="0px"
   viewBox="0 0 81.440002 401.44003"
   xml:space="preserve"><vfp:catalogue
     PREFIX="TH"
     CATEGORY="Display Controls"
     DESC="Mercury Thermometer (-40 to 50 degrees C)" /><metadata
     id="metadata319"><rdf:RDF><cc:Work
         rdf:about=""><dc:format>image/svg+xml</dc:format><dc:type
           rdf:resource="http://purl.org/dc/dcmitype/StillImage" /><dc:title></dc:title></cc:Work></rdf:RDF></metadata><defs
     id="thermometerDefs"><radialGradient
       gradientUnits="userSpaceOnUse"
       r="3.1489697"
       fy="385.18607"
       fx="825.55481"
       cy="385.18607"
       cx="825.55481"
       id="thermoGradient7537"
       xlink:href="#thermoGradient7531"
       gradientTransform="matrix(1.6000001,0,0,1.6000001,-1276.389,-257.99876)" /><linearGradient
       id="thermoGradient7531"><stop
         id="stop7533"
         offset="0"
         style="stop-color:#ffffff;stop-opacity:1;" /><stop
         id="stop7535"
         offset="1"
         style="stop-color:#ffffff;stop-opacity:0;" /></linearGradient><linearGradient
       gradientTransform="matrix(1.6000001,0,0,1.6000001,-1279.3679,-257.99876)"
       gradientUnits="userSpaceOnUse"
       y2="277.48532"
       x2="840.53595"
       y1="277.12817"
       x1="814.66809"
       id="thermoGradient7435"
       xlink:href="#thermoGradient7429" /><linearGradient
       id="thermoGradient7429"><stop
         id="stop7431"
         offset="0"
         style="stop-color:#82817d;stop-opacity:1;" /><stop
         id="stop7433"
         offset="1"
         style="stop-color:#82817d;stop-opacity:0;" /></linearGradient><linearGradient
       gradientTransform="matrix(1.6000001,0,0,1.6000001,-1279.28,-257.99876)"
       gradientUnits="userSpaceOnUse"
       y2="218.54274"
       x2="756.52026"
       y1="247.0864"
       x1="899.64886"
       id="thermoGradient7383"
       xlink:href="#thermoGradient7377" /><linearGradient
       id="thermoGradient7377"><stop
         id="stop7379"
         offset="0"
         style="stop-color:#d3d4d4;stop-opacity:1;" /><stop
         id="stop7381"
         offset="1"
         style="stop-color:#d3d4d4;stop-opacity:0;" /></linearGradient></defs><g
     vfp:class="Thermometer"
     id="Thermometer"><path
       id="path5882"
       d="M 40.719997,0.72000019 A 40.000002,40.000002 0 0 0 0.7199972,40.720008 l 0,320.000022 a 40.000002,40.000002 0 0 0 39.9999998,40 40.000002,40.000002 0 0 0 40.000001,-40 l 0,-320.000022 A 40.000002,40.000002 0 0 0 40.719997,0.72000019 Z"
       style="fill:url(#thermoGradient7383);fill-opacity:1;stroke:#696969;stroke-width:1.43999994;stroke-linecap:butt;stroke-linejoin:round;stroke-miterlimit:4;stroke-dasharray:none;stroke-opacity:1" /><path
       id="path7409"
       d="m 40.719917,40.720008 a 12.000001,12.000001 0 0 0 -11.95,11.021872 l -0.04992,0 0,295.72189 a 17.516374,17.516374 0 0 0 -5.515632,12.74377 17.516374,17.516374 0 0 0 17.515632,17.51561 17.516374,17.516374 0 0 0 17.515616,-17.51561 17.516374,17.516374 0 0 0 -5.515616,-12.73125 l 0,-295.73441 -0.04688,0 A 12.000001,12.000001 0 0 0 40.719997,40.720008 Z"
       style="fill:url(#thermoGradient7435);fill-opacity:1;stroke:none;stroke-width:5;stroke-linecap:butt;stroke-linejoin:round;stroke-miterlimit:4;stroke-dasharray:none;stroke-opacity:1" /><path
       id="path7437"
       d="m 40.745539,52.985632 a 5.6000004,5.6000004 0 0 0 -5.6,5.584376 5.6000004,5.6000004 0 0 0 0,0.016 l 0,291.000022 a 12.428418,12.428418 0 0 0 -6.828128,11.09064 12.428418,12.428418 0 0 0 12.428128,12.42812 12.428418,12.428418 0 0 0 12.428136,-12.42812 12.428418,12.428418 0 0 0 -6.828136,-11.08127 l 0,-291.009392 a 5.6000004,5.6000004 0 0 0 0,-0.016 5.6000004,5.6000004 0 0 0 -5.6,-5.584376 z"
       style="fill:#c6c6bd;fill-opacity:1;stroke:none;stroke-width:5;stroke-linecap:butt;stroke-linejoin:round;stroke-miterlimit:4;stroke-dasharray:none;stroke-opacity:1" /><circle
       style="fill:#c72221;fill-opacity:1;stroke:none;stroke-width:2.5;stroke-linecap:butt;stroke-linejoin:round;stroke-miterlimit:4;stroke-dasharray:none;stroke-opacity:0.43413176"
       id="path4325"
       cx="40.745544"
       cy="360.57462"
       r="10" /><text
       style="font-size:20px;font-family:Verdana"
       id="text6200"
       font-size="25"
       y="48.374619"
       x="60.008194">C</text>
<text
       style="font-size:20px;font-family:Verdana"
       id="text6200-7"
       font-size="25"
       y="48.374619"
       x="10.14554">F</text>
<text
       id="text6202"
       font-size="12"
       y="64.374619"
       x="64.322632"
       style="font-size:9.60000038px;font-family:Verdana">50</text>
<path
       id="path7539"
       d="m 54.72263,61.174618 4.8,0"
       style="stroke:#000000;stroke-width:1.60000002" /><path
       id="path4216"
       d="m 54.72263,67.414618 2.4,0"
       style="stroke:#000000;stroke-width:1.60000002" /><path
       id="path4218"
       d="m 54.72263,73.654618 2.4,0"
       style="stroke:#000000;stroke-width:1.60000002" /><path
       id="path4220"
       d="m 54.72263,79.894618 2.4,0"
       style="stroke:#000000;stroke-width:1.60000002" /><path
       id="path4222"
       d="m 54.72263,86.134618 2.4,0"
       style="stroke:#000000;stroke-width:1.60000002" /><text
       id="text6209"
       font-size="12"
       y="95.574615"
       x="64.322632"
       style="font-size:9.60000038px;font-family:Verdana">40</text>
<path
       id="path4224"
       d="m 54.72263,92.374618 4.8,0"
       style="stroke:#000000;stroke-width:1.60000002" /><path
       id="path4226"
       d="m 54.72263,98.614618 2.4,0"
       style="stroke:#000000;stroke-width:1.60000002" /><path
       id="path4228"
       d="m 54.72263,104.85462 2.4,0"
       style="stroke:#000000;stroke-width:1.60000002" /><path
       id="path4230"
       d="m 54.72263,111.09462 2.4,0"
       style="stroke:#000000;stroke-width:1.60000002" /><path
       id="path4232"
       d="m 54.72263,117.33462 2.4,0"
       style="stroke:#000000;stroke-width:1.60000002" /><text
       id="text6216"
       font-size="12"
       y="126.77462"
       x="64.322632"
       style="font-size:9.60000038px;font-family:Verdana">30</text>
<path
       id="path4234"
       d="m 54.72263,123.57462 4.8,0"
       style="stroke:#000000;stroke-width:1.60000002" /><path
       id="path4236"
       d="m 54.72263,129.81462 2.4,0"
       style="stroke:#000000;stroke-width:1.60000002" /><path
       id="path4238"
       d="m 54.72263,136.05462 2.4,0"
       style="stroke:#000000;stroke-width:1.60000002" /><path
       id="path4240"
       d="m 54.72263,142.29462 2.4,0"
       style="stroke:#000000;stroke-width:1.60000002" /><path
       id="path4242"
       d="m 54.72263,148.53462 2.4,0"
       style="stroke:#000000;stroke-width:1.60000002" /><text
       id="text6223"
       font-size="12"
       y="157.97462"
       x="64.322632"
       style="font-size:9.60000038px;font-family:Verdana">20</text>
<path
       id="path4244"
       d="m 54.72263,154.77462 4.8,0"
       style="stroke:#000000;stroke-width:1.60000002" /><path
       id="path4246"
       d="m 54.72263,161.01462 2.4,0"
       style="stroke:#000000;stroke-width:1.60000002" /><path
       id="path4248"
       d="m 54.72263,167.25462 2.4,0"
       style="stroke:#000000;stroke-width:1.60000002" /><path
       id="path4250"
       d="m 54.72263,173.49462 2.4,0"
       style="stroke:#000000;stroke-width:1.60000002" /><path
       id="path4252"
       d="m 54.72263,179.73462 2.4,0"
       style="stroke:#000000;stroke-width:1.60000002" /><text
       id="text6230"
       font-size="12"
       y="189.17462"
       x="64.322632"
       style="font-size:9.60000038px;font-family:Verdana">10</text>
<path
       id="path4254"
       d="m 54.72263,185.97462 4.8,0"
       style="stroke:#000000;stroke-width:1.60000002" /><path
       id="path4256"
       d="m 54.72263,192.21462 2.4,0"
       style="stroke:#000000;stroke-width:1.60000002" /><path
       id="path4258"
       d="m 54.72263,198.45462 2.4,0"
       style="stroke:#000000;stroke-width:1.60000002" /><path
       id="path4260"
       d="m 54.72263,204.69462 2.4,0"
       style="stroke:#000000;stroke-width:1.60000002" /><path
       id="path4262"
       d="m 54.72263,210.93462 2.4,0"
       style="stroke:#000000;stroke-width:1.60000002" /><text
       id="text6237"
       font-size="12"
       y="220.37462"
       x="66.722633"
       style="font-size:9.60000038px;font-family:Verdana">0</text>
<path
       id="path4264"
       d="m 54.72263,217.17462 4.8,0"
       style="stroke:#000000;stroke-width:1.60000002" /><path
       id="path4266"
       d="m 54.72263,223.41462 2.4,0"
       style="stroke:#000000;stroke-width:1.60000002" /><path
       id="path4268"
       d="m 54.72263,229.65462 2.4,0"
       style="stroke:#000000;stroke-width:1.60000002" /><path
       id="path4270"
       d="m 54.72263,235.89462 2.4,0"
       style="stroke:#000000;stroke-width:1.60000002" /><path
       id="path4272"
       d="m 54.72263,242.13462 2.4,0"
       style="stroke:#000000;stroke-width:1.60000002" /><text
       id="text6244"
       font-size="12"
       y="251.57462"
       x="61.122631"
       style="font-size:9.60000038px;font-family:Verdana">-10</text>
<path
       id="path4274"
       d="m 54.72263,248.37462 4.8,0"
       style="stroke:#000000;stroke-width:1.60000002" /><path
       id="path4276"
       d="m 54.72263,254.61462 2.4,0"
       style="stroke:#000000;stroke-width:1.60000002" /><path
       id="path4278"
       d="m 54.72263,260.85462 2.4,0"
       style="stroke:#000000;stroke-width:1.60000002" /><path
       id="path4280"
       d="m 54.72263,267.09462 2.4,0"
       style="stroke:#000000;stroke-width:1.60000002" /><path
       id="path4282"
       d="m 54.72263,273.33462 2.4,0"
       style="stroke:#000000;stroke-width:1.60000002" /><text
       id="text6251"
       font-size="12"
       y="282.77463"
       x="61.122631"
       style="font-size:9.60000038px;font-family:Verdana">-20</text>
<path
       id="path4284"
       d="m 54.72263,279.57462 4.8,0"
       style="stroke:#000000;stroke-width:1.60000002" /><path
       id="path4286"
       d="m 54.72263,285.81462 2.4,0"
       style="stroke:#000000;stroke-width:1.60000002" /><path
       id="path4288"
       d="m 54.72263,292.05462 2.4,0"
       style="stroke:#000000;stroke-width:1.60000002" /><path
       id="path4290"
       d="m 54.72263,298.29462 2.4,0"
       style="stroke:#000000;stroke-width:1.60000002" /><path
       id="path4292"
       d="m 54.72263,304.53462 2.4,0"
       style="stroke:#000000;stroke-width:1.60000002" /><text
       id="text6258"
       font-size="12"
       y="313.97461"
       x="61.122631"
       style="font-size:9.60000038px;font-family:Verdana">-30</text>
<path
       id="path4294"
       d="m 54.72263,310.77462 4.8,0"
       style="stroke:#000000;stroke-width:1.60000002" /><path
       id="path4296"
       d="m 54.72263,317.01462 2.4,0"
       style="stroke:#000000;stroke-width:1.60000002" /><path
       id="path4298"
       d="m 54.72263,323.25462 2.4,0"
       style="stroke:#000000;stroke-width:1.60000002" /><path
       id="path4300"
       d="m 54.72263,329.49462 2.4,0"
       style="stroke:#000000;stroke-width:1.60000002" /><path
       id="path4302"
       d="m 54.72263,335.73462 2.4,0"
       style="stroke:#000000;stroke-width:1.60000002" /><text
       id="text6265"
       font-size="12"
       y="345.17462"
       x="61.122631"
       style="font-size:9.60000038px;font-family:Verdana">-40</text>
<path
       id="path4304"
       d="m 54.72263,341.97462 4.8,0"
       style="stroke:#000000;stroke-width:1.60000002" /><text
       id="text6270"
       font-size="12"
       y="64.374619"
       x="64.322632"
       style="font-size:9.60000038px;font-family:Verdana">50</text>
<path
       id="path6272"
       d="m 54.72263,61.174618 4.8,0"
       style="stroke:#000000;stroke-width:1.60000002" /><path
       id="path6274"
       d="m 54.72263,67.414618 2.4,0"
       style="stroke:#000000;stroke-width:1.60000002" /><path
       id="path6276"
       d="m 54.72263,73.654618 2.4,0"
       style="stroke:#000000;stroke-width:1.60000002" /><path
       id="path6278"
       d="m 54.72263,79.894618 2.4,0"
       style="stroke:#000000;stroke-width:1.60000002" /><path
       id="path6280"
       d="m 54.72263,86.134618 2.4,0"
       style="stroke:#000000;stroke-width:1.60000002" /><text
       id="text6282"
       font-size="12"
       y="95.574615"
       x="64.322632"
       style="font-size:9.60000038px;font-family:Verdana">40</text>
<path
       id="path6284"
       d="m 54.72263,92.374618 4.8,0"
       style="stroke:#000000;stroke-width:1.60000002" /><path
       id="path6286"
       d="m 54.72263,98.614618 2.4,0"
       style="stroke:#000000;stroke-width:1.60000002" /><path
       id="path6288"
       d="m 54.72263,104.85462 2.4,0"
       style="stroke:#000000;stroke-width:1.60000002" /><path
       id="path6290"
       d="m 54.72263,111.09462 2.4,0"
       style="stroke:#000000;stroke-width:1.60000002" /><path
       id="path6292"
       d="m 54.72263,117.33462 2.4,0"
       style="stroke:#000000;stroke-width:1.60000002" /><text
       id="text6294"
       font-size="12"
       y="126.77462"
       x="64.322632"
       style="font-size:9.60000038px;font-family:Verdana">30</text>
<path
       id="path6296"
       d="m 54.72263,123.57462 4.8,0"
       style="stroke:#000000;stroke-width:1.60000002" /><path
       id="path6298"
       d="m 54.72263,129.81462 2.4,0"
       style="stroke:#000000;stroke-width:1.60000002" /><path
       id="path6300"
       d="m 54.72263,136.05462 2.4,0"
       style="stroke:#000000;stroke-width:1.60000002" /><path
       id="path6302"
       d="m 54.72263,142.29462 2.4,0"
       style="stroke:#000000;stroke-width:1.60000002" /><path
       id="path6304"
       d="m 54.72263,148.53462 2.4,0"
       style="stroke:#000000;stroke-width:1.60000002" /><text
       id="text6306"
       font-size="12"
       y="157.97462"
       x="64.322632"
       style="font-size:9.60000038px;font-family:Verdana">20</text>
<path
       id="path6308"
       d="m 54.72263,154.77462 4.8,0"
       style="stroke:#000000;stroke-width:1.60000002" /><path
       id="path6310"
       d="m 54.72263,161.01462 2.4,0"
       style="stroke:#000000;stroke-width:1.60000002" /><path
       id="path6312"
       d="m 54.72263,167.25462 2.4,0"
       style="stroke:#000000;stroke-width:1.60000002" /><path
       id="path6314"
       d="m 54.72263,173.49462 2.4,0"
       style="stroke:#000000;stroke-width:1.60000002" /><path
       id="path6316"
       d="m 54.72263,179.73462 2.4,0"
       style="stroke:#000000;stroke-width:1.60000002" /><text
       id="text6318"
       font-size="12"
       y="189.17462"
       x="64.322632"
       style="font-size:9.60000038px;font-family:Verdana">10</text>
<path
       id="path6320"
       d="m 54.72263,185.97462 4.8,0"
       style="stroke:#000000;stroke-width:1.60000002" /><path
       id="path6322"
       d="m 54.72263,192.21462 2.4,0"
       style="stroke:#000000;stroke-width:1.60000002" /><path
       id="path6324"
       d="m 54.72263,198.45462 2.4,0"
       style="stroke:#000000;stroke-width:1.60000002" /><path
       id="path6326"
       d="m 54.72263,204.69462 2.4,0"
       style="stroke:#000000;stroke-width:1.60000002" /><path
       id="path6328"
       d="m 54.72263,210.93462 2.4,0"
       style="stroke:#000000;stroke-width:1.60000002" /><text
       id="text6330"
       font-size="12"
       y="220.37462"
       x="66.722633"
       style="font-size:9.60000038px;font-family:Verdana">0</text>
<path
       id="path6332"
       d="m 54.72263,217.17462 4.8,0"
       style="stroke:#000000;stroke-width:1.60000002" /><path
       id="path6334"
       d="m 54.72263,223.41462 2.4,0"
       style="stroke:#000000;stroke-width:1.60000002" /><path
       id="path6336"
       d="m 54.72263,229.65462 2.4,0"
       style="stroke:#000000;stroke-width:1.60000002" /><path
       id="path6338"
       d="m 54.72263,235.89462 2.4,0"
       style="stroke:#000000;stroke-width:1.60000002" /><path
       id="path6340"
       d="m 54.72263,242.13462 2.4,0"
       style="stroke:#000000;stroke-width:1.60000002" /><text
       id="text6342"
       font-size="12"
       y="251.57462"
       x="61.122631"
       style="font-size:9.60000038px;font-family:Verdana">-10</text>
<path
       id="path6344"
       d="m 54.72263,248.37462 4.8,0"
       style="stroke:#000000;stroke-width:1.60000002" /><path
       id="path6346"
       d="m 54.72263,254.61462 2.4,0"
       style="stroke:#000000;stroke-width:1.60000002" /><path
       id="path6348"
       d="m 54.72263,260.85462 2.4,0"
       style="stroke:#000000;stroke-width:1.60000002" /><path
       id="path6350"
       d="m 54.72263,267.09462 2.4,0"
       style="stroke:#000000;stroke-width:1.60000002" /><path
       id="path6352"
       d="m 54.72263,273.33462 2.4,0"
       style="stroke:#000000;stroke-width:1.60000002" /><text
       id="text6354"
       font-size="12"
       y="282.77463"
       x="61.122631"
       style="font-size:9.60000038px;font-family:Verdana">-20</text>
<path
       id="path6356"
       d="m 54.72263,279.57462 4.8,0"
       style="stroke:#000000;stroke-width:1.60000002" /><path
       id="path6358"
       d="m 54.72263,285.81462 2.4,0"
       style="stroke:#000000;stroke-width:1.60000002" /><path
       id="path6360"
       d="m 54.72263,292.05462 2.4,0"
       style="stroke:#000000;stroke-width:1.60000002" /><path
       id="path6362"
       d="m 54.72263,298.29462 2.4,0"
       style="stroke:#000000;stroke-width:1.60000002" /><path
       id="path6364"
       d="m 54.72263,304.53462 2.4,0"
       style="stroke:#000000;stroke-width:1.60000002" /><text
       id="text6366"
       font-size="12"
       y="313.97461"
       x="61.122631"
       style="font-size:9.60000038px;font-family:Verdana">-30</text>
<path
       id="path6368"
       d="m 54.72263,310.77462 4.8,0"
       style="stroke:#000000;stroke-width:1.60000002" /><path
       id="path6370"
       d="m 54.72263,317.01462 2.4,0"
       style="stroke:#000000;stroke-width:1.60000002" /><path
       id="path6372"
       d="m 54.72263,323.25462 2.4,0"
       style="stroke:#000000;stroke-width:1.60000002" /><path
       id="path6374"
       d="m 54.72263,329.49462 2.4,0"
       style="stroke:#000000;stroke-width:1.60000002" /><path
       id="path6376"
       d="m 54.72263,335.73462 2.4,0"
       style="stroke:#000000;stroke-width:1.60000002" /><text
       id="text6378"
       font-size="12"
       y="345.17462"
       x="61.122631"
       style="font-size:9.60000038px;font-family:Verdana">-40</text>
<path
       id="path6380"
       d="m 54.72263,341.97462 4.8,0"
       style="stroke:#000000;stroke-width:1.60000002" /><text
       id="text6202-0"
       font-size="12"
       y="67.709595"
       x="2.9696343"
       style="font-style:normal;font-variant:normal;font-weight:normal;font-stretch:normal;font-size:9.60000038px;line-height:125%;font-family:Verdana;-inkscape-font-specification:'Verdana, Normal';text-align:start;writing-mode:lr-tb;text-anchor:start">120</text>
<path
       id="path7539-0"
       d="m 27.457862,64.148232 -5.342042,0"
       style="stroke:#000000;stroke-width:1.78068066" /><path
       id="path4216-3"
       d="m 27.457862,71.092886 -2.671021,0"
       style="stroke:#000000;stroke-width:1.78068066" /><path
       id="path4218-2"
       d="m 27.457862,78.037539 -2.671021,0"
       style="stroke:#000000;stroke-width:1.78068066" /><path
       id="path4220-7"
       d="m 27.457862,84.982186 -2.671021,0"
       style="stroke:#000000;stroke-width:1.78068066" /><path
       id="path4222-2"
       d="m 27.457862,91.926842 -2.671021,0"
       style="stroke:#000000;stroke-width:1.78068066" /><text
       id="text6209-8"
       font-size="12"
       y="102.43288"
       x="2.9696343"
       style="font-style:normal;font-variant:normal;font-weight:normal;font-stretch:normal;font-size:9.60000038px;line-height:125%;font-family:Verdana;-inkscape-font-specification:'Verdana, Normal';text-align:start;writing-mode:lr-tb;text-anchor:start">100</text>
<path
       id="path4224-3"
       d="m 27.457862,98.871498 -5.342042,0"
       style="stroke:#000000;stroke-width:1.78068066" /><path
       id="path4226-9"
       d="m 27.457862,105.81615 -2.671021,0"
       style="stroke:#000000;stroke-width:1.78068066" /><path
       id="path4228-2"
       d="m 27.457862,112.7608 -2.671021,0"
       style="stroke:#000000;stroke-width:1.78068066" /><path
       id="path4230-3"
       d="m 27.457862,119.70546 -2.671021,0"
       style="stroke:#000000;stroke-width:1.78068066" /><path
       id="path4232-4"
       d="m 27.457862,126.65011 -2.671021,0"
       style="stroke:#000000;stroke-width:1.78068066" /><text
       id="text6216-1"
       font-size="12"
       y="137.40869"
       x="8.9800415"
       style="font-style:normal;font-variant:normal;font-weight:normal;font-stretch:normal;font-size:9.60000038px;line-height:125%;font-family:Verdana;-inkscape-font-specification:'Verdana, Normal';text-align:start;writing-mode:lr-tb;text-anchor:start">80</text>
<path
       id="path4234-2"
       d="m 27.457862,133.59476 -5.342042,0"
       style="stroke:#000000;stroke-width:1.78068066" /><path
       id="path4236-1"
       d="m 27.457862,140.53943 -2.671021,0"
       style="stroke:#000000;stroke-width:1.78068066" /><path
       id="path4238-0"
       d="m 27.457862,147.48408 -2.671021,0"
       style="stroke:#000000;stroke-width:1.78068066" /><path
       id="path4240-6"
       d="m 27.457862,154.42874 -2.671021,0"
       style="stroke:#000000;stroke-width:1.78068066" /><path
       id="path4242-9"
       d="m 27.457862,161.37339 -2.671021,0"
       style="stroke:#000000;stroke-width:1.78068066" /><text
       id="text6223-9"
       font-size="12"
       y="172.13196"
       x="8.9800415"
       style="font-style:normal;font-variant:normal;font-weight:normal;font-stretch:normal;font-size:9.60000038px;line-height:125%;font-family:Verdana;-inkscape-font-specification:'Verdana, Normal';text-align:start;writing-mode:lr-tb;text-anchor:start">60</text>
<path
       id="path4244-8"
       d="m 27.457862,168.31804 -5.342042,0"
       style="stroke:#000000;stroke-width:1.78068066" /><path
       id="path4246-7"
       d="m 27.457862,175.2627 -2.671021,0"
       style="stroke:#000000;stroke-width:1.78068066" /><path
       id="path4248-7"
       d="m 27.457862,182.20735 -2.671021,0"
       style="stroke:#000000;stroke-width:1.78068066" /><path
       id="path4250-2"
       d="m 27.457862,189.152 -2.671021,0"
       style="stroke:#000000;stroke-width:1.78068066" /><path
       id="path4252-3"
       d="m 27.457862,196.09666 -2.671021,0"
       style="stroke:#000000;stroke-width:1.78068066" /><text
       id="text6230-0"
       font-size="12"
       y="206.85524"
       x="8.9800415"
       style="font-style:normal;font-variant:normal;font-weight:normal;font-stretch:normal;font-size:9.60000038px;line-height:125%;font-family:Verdana;-inkscape-font-specification:'Verdana, Normal';text-align:start;writing-mode:lr-tb;text-anchor:start">40</text>
<path
       id="path4254-9"
       d="m 27.457862,203.04131 -5.342042,0"
       style="stroke:#000000;stroke-width:1.78068066" /><path
       id="path4256-9"
       d="m 27.457862,209.98596 -2.671021,0"
       style="stroke:#000000;stroke-width:1.78068066" /><path
       id="path4258-1"
       d="m 27.457862,216.93063 -2.671021,0"
       style="stroke:#000000;stroke-width:1.78068066" /><path
       id="path4260-4"
       d="m 27.457862,223.87528 -2.671021,0"
       style="stroke:#000000;stroke-width:1.78068066" /><path
       id="path4262-0"
       d="m 27.457862,230.81994 -2.671021,0"
       style="stroke:#000000;stroke-width:1.78068066" /><text
       id="text6237-3"
       font-size="12"
       y="240.82088"
       x="8.671114"
       style="font-style:normal;font-variant:normal;font-weight:normal;font-stretch:normal;font-size:9.60000038px;line-height:125%;font-family:Verdana;-inkscape-font-specification:'Verdana, Normal';text-align:start;writing-mode:lr-tb;text-anchor:start">20</text>
<path
       id="path4264-5"
       d="m 27.457862,237.76459 -5.342042,0"
       style="stroke:#000000;stroke-width:1.78068066" /><path
       id="path4266-8"
       d="m 27.457862,244.70924 -2.671021,0"
       style="stroke:#000000;stroke-width:1.78068066" /><path
       id="path4268-4"
       d="m 27.457862,251.6539 -2.671021,0"
       style="stroke:#000000;stroke-width:1.78068066" /><path
       id="path4270-4"
       d="m 27.457862,258.59855 -2.671021,0"
       style="stroke:#000000;stroke-width:1.78068066" /><path
       id="path4272-0"
       d="m 27.457862,265.5432 -2.671021,0"
       style="stroke:#000000;stroke-width:1.78068066" /><text
       id="text6244-2"
       font-size="12"
       y="275.64514"
       x="11.63112"
       style="font-style:normal;font-variant:normal;font-weight:normal;font-stretch:normal;font-size:9.60000038px;line-height:125%;font-family:Verdana;-inkscape-font-specification:'Verdana, Normal';text-align:start;writing-mode:lr-tb;text-anchor:start">0</text>
<path
       id="path4274-8"
       d="m 27.457862,272.48786 -5.342042,0"
       style="stroke:#000000;stroke-width:1.78068066" /><path
       id="path4276-7"
       d="m 27.457862,279.43251 -2.671021,0"
       style="stroke:#000000;stroke-width:1.78068066" /><path
       id="path4278-8"
       d="m 27.457862,286.37718 -2.671021,0"
       style="stroke:#000000;stroke-width:1.78068066" /><path
       id="path4280-2"
       d="m 27.457862,293.32183 -2.671021,0"
       style="stroke:#000000;stroke-width:1.78068066" /><path
       id="path4282-2"
       d="m 27.457862,300.26647 -2.671021,0"
       style="stroke:#000000;stroke-width:1.78068066" /><text
       id="text6251-6"
       font-size="12"
       y="310.36844"
       x="4.3580208"
       style="font-style:normal;font-variant:normal;font-weight:normal;font-stretch:normal;font-size:9.60000038px;line-height:125%;font-family:Verdana;-inkscape-font-specification:'Verdana, Normal';text-align:start;writing-mode:lr-tb;text-anchor:start">-20</text>
<path
       id="path4284-1"
       d="m 27.457862,307.21113 -5.342042,0"
       style="stroke:#000000;stroke-width:1.78068066" /><path
       id="path4286-1"
       d="m 27.457862,314.15579 -2.671021,0"
       style="stroke:#000000;stroke-width:1.78068066" /><path
       id="path4288-4"
       d="m 27.457862,321.10043 -2.671021,0"
       style="stroke:#000000;stroke-width:1.78068066" /><path
       id="path4290-2"
       d="m 27.457862,328.04509 -2.671021,0"
       style="stroke:#000000;stroke-width:1.78068066" /><path
       id="path4292-2"
       d="m 27.457862,334.98975 -2.671021,0"
       style="stroke:#000000;stroke-width:1.78068066" /><text
       id="text6258-3"
       font-size="12"
       y="345.49576"
       x="4.2570057"
       style="font-style:normal;font-variant:normal;font-weight:normal;font-stretch:normal;font-size:9.60000038px;line-height:125%;font-family:Verdana;-inkscape-font-specification:'Verdana, Normal';text-align:start;writing-mode:lr-tb;text-anchor:start">-40</text>
<path
       id="path4294-0"
       d="m 27.457862,341.93439 -5.342042,0"
       style="stroke:#000000;stroke-width:1.78068066" /><!-- the scaling is arranged so that the y position of the top of the mercury rect corresponds with degrees C --><g
       id="g7444"
       transform="matrix(0.8,0,0,-3.15,37.88,343.29)"><g
         id="g7446"
         transform="translate(0,40)"><rect
           id="rect7448"
           style="opacity:0"
           width="6.7496719"
           height="90"
           x="0.0"
           y="-40"
           class="scale" /><rect
           id="rect7450"
           style="fill:#c72221; opacity:1.0"
           width="6.7496719"
           height="40"
           x="0.0"
           y="-40"
           class="mercury" /></g><rect
         id="rect7452"
         style="fill:#c72221;stroke:none;opacity:1.0"
         width="6.7496719"
         height="5.05"
         x="0.0"
         y="-4.95" /></g><circle
       r="5.038352"
       cy="358.29904"
       cx="44.498817"
       id="path7515"
       style="fill:url(#thermoGradient7537);fill-opacity:1;stroke:none;stroke-width:5;stroke-linecap:butt;stroke-linejoin:round;stroke-miterlimit:4;stroke-dasharray:none;stroke-opacity:1" /></g></svg>