<?xml version="1.0" encoding="UTF-8" standalone="no"?>
<svg
   xmlns:vfp="http://www.labcenter.com/namespaces/vfp"
   xmlns:dc="http://purl.org/dc/elements/1.1/"
   xmlns:cc="http://creativecommons.org/ns#"
   xmlns:rdf="http://www.w3.org/1999/02/22-rdf-syntax-ns#"
   xmlns:svg="http://www.w3.org/2000/svg"
   xmlns="http://www.w3.org/2000/svg"
   xmlns:xlink="http://www.w3.org/1999/xlink"
   xmlns:sodipodi="http://sodipodi.sourceforge.net/DTD/sodipodi-0.dtd"
   xmlns:inkscape="http://www.inkscape.org/namespaces/inkscape"
   viewBox="0 0 300.5 50.5"
   version="1.1"
   id="svg4792"
   sodipodi:docname="LoadingBar2.svg"
   inkscape:version="0.48.2 r9819"
   width="300.5"
   height="50.5">
  <sodipodi:namedview
     pagecolor="#ffffff"
     bordercolor="#666666"
     borderopacity="1"
     objecttolerance="10"
     gridtolerance="10"
     guidetolerance="10"
     inkscape:pageopacity="0"
     inkscape:pageshadow="2"
     inkscape:window-width="1920"
     inkscape:window-height="1018"
     id="namedview4794"
     showgrid="false"
     inkscape:zoom="2.1602226"
     inkscape:cx="128.26874"
     inkscape:cy="14.78616"
     inkscape:window-x="-8"
     inkscape:window-y="-8"
     inkscape:window-maximized="1"
     inkscape:current-layer="svg4792" />
  <defs
     id="defs194">
    <linearGradient
       id="linearGradient4454">
      <stop
         style="stop-color:#00c8ad;stop-opacity:1;"
         offset="0"
         id="stop4456" />
      <stop
         id="stop4462"
         offset="0.5"
         style="stop-color:#00c8ad;stop-opacity:0.016;" />
      <stop
         style="stop-color:#00c8ad;stop-opacity:1;"
         offset="1"
         id="stop4458" />
    </linearGradient>
    <linearGradient
       gradientUnits="userSpaceOnUse"
       y2="25.83"
       x2="239.44"
       y1="25.83"
       x1="187.78999"
       data-name="Linear Gradient 1"
       id="Linear_Gradient_1">
      <stop
         id="stop4714"
         stop-color="#010000"
         offset="0" />
      <stop
         id="stop4716"
         stop-color="#7f7e82"
         offset="0.17" />
      <stop
         id="stop4718"
         stop-color="#fff"
         offset="0.48" />
      <stop
         id="stop4720"
         stop-color="#e3e2e5"
         offset="0.68" />
      <stop
         id="stop4722"
         stop-color="#7f7e82"
         offset="0.77" />
      <stop
         id="stop4724"
         stop-color="#010000"
         offset="1" />
    </linearGradient>
    <linearGradient
       gradientTransform="matrix(0,0.61281673,-0.7475593,0,300.05009,0.046105)"
       y2="161.46887"
       x2="16.432255"
       y1="161.46887"
       x1="71.520538"
       gradientUnits="userSpaceOnUse"
       id="linearGradient4873"
       xlink:href="#Linear_Gradient_1"
       inkscape:collect="always" />
    <linearGradient
       inkscape:collect="always"
       xlink:href="#linearGradient4454"
       id="linearGradient4460"
       x1="91.987289"
       y1="45.368271"
       x2="91.880638"
       y2="3.2429829"
       gradientUnits="userSpaceOnUse" />
  </defs>
  <metadata
     id="metadata4637">
    <rdf:RDF>
      <cc:Work
         rdf:about="">
        <dc:title />
        <dc:format>image/svg+xml</dc:format>
        <dc:type
           rdf:resource="http://purl.org/dc/dcmitype/StillImage" />
      </cc:Work>
    </rdf:RDF>
  </metadata>
  <vfp:catalogue
     PREFIX="LoadingBar"
     CATEGORY="Display Controls"
     DESC="Loading Bar 2" />
  <g
     vfp:class="LoadingBar"
     id="g4919"
     transform="translate(0.91037136,0.96549183)">
    <path
       style="fill:url(#linearGradient4873);fill-opacity:1;stroke:url(#linearGradient4873);stroke-width:0.97465444;stroke-linejoin:round;display:inline"
       inkscape:connector-curvature="0"
       d="M 299.51186,24.999995 A 29.902372,24.51267 0 0 0 269.60948,0.487325 H 30.390504 a 29.902377,24.512675 0 1 0 0,49.02535 H 269.60948 a 29.902372,24.51267 0 0 0 29.90238,-24.51268 z"
       id="path5882"
       class="bounds" />
    <rect
       style="fill-opacity:0;stroke-width:2.42806411;display:inline"
       height="33.302673"
       width="271.48962"
       y="8.3486633"
       x="14.255188"
       id="rect4521"
       class="limits" />
    <rect
       style="fill:url(#linearGradient4460);fill-opacity:1;stroke-width:2.55834817999999990;display:inline"
       height="32.385742"
       width="154.96996"
       y="8.8071289"
       x="14.680446"
       id="rect4523"
       class="bar" />
    <path
       style="fill:#221406;fill-opacity:1;stroke:#221406;stroke-width:0.44603759;stroke-miterlimit:4;stroke-opacity:1;stroke-dasharray:none;display:inline"
       d="m 288.29847,24.999995 c 0,-8.84623 -8.6876,-15.96794 -19.47888,-15.96794 H 31.180401 c -10.79128,0 -19.47887,7.12171 -19.47887,15.96794 0,8.84624 8.68759,15.96795 19.47887,15.96795 H 268.81959 c 10.79128,0 19.47888,-7.12171 19.47888,-15.96795 z m -3.17858,0 c 0,7.54688 -7.41092,13.62202 -16.61714,13.62202 H 31.4987 c -9.20623,0 -16.617139,-6.07514 -16.617139,-13.62202 0,-7.54686 7.41091,-13.6232 16.61714,-13.6232 H 268.50275 c 9.20622,0 16.61714,6.07634 16.61714,13.6232 z"
       id="path4884"
       inkscape:connector-curvature="0" />
    <path
       sodipodi:nodetypes=""
       inkscape:connector-curvature="0"
       id="path4875"
       d="m 299.51268,24.99999 c 0,-13.53797 -13.38775,-24.51266001 -29.90238,-24.51266001 H 30.391321 C 13.876051,0.48671999 0.48732,11.4615 0.48732,24.99999 c 0,13.53851 13.388731,24.51342 29.904001,24.51268 H 269.6103 c 16.51463,0 29.90238,-10.9747 29.90238,-24.51268 z m -11.21486,0 c 0,8.84624 -8.68759,15.96796 -19.47888,15.96796 H 31.179761 c -10.79128,0 -19.47888,-7.12172 -19.47888,-15.96796 0,-8.84623 8.6876,-15.96794 19.47888,-15.96794 H 268.81894 c 10.79129,0 19.47888,7.12171 19.47888,15.96794 z"
       style="fill:#c7af82;fill-opacity:1;stroke:#221406;stroke-width:2;stroke-linejoin:round;stroke-miterlimit:4;stroke-opacity:1;stroke-dasharray:none;display:inline" />
    <text
       id="text73-5"
       y="31.177202"
       x="158.49399"
       style="font-size:15px;text-anchor:middle;stroke-width:0.50000000000000000;font-family:Monospace;-inkscape-font-specification:Monospace;font-weight:normal;font-style:normal;font-stretch:normal;font-variant:normal">50%</text>
  </g>
</svg>
