<?xml version="1.0" encoding="UTF-8" standalone="no"?>
<svg
   xmlns:dc="http://purl.org/dc/elements/1.1/"
   xmlns:cc="http://creativecommons.org/ns#"
   xmlns:rdf="http://www.w3.org/1999/02/22-rdf-syntax-ns#"
   xmlns:svg="http://www.w3.org/2000/svg"
   xmlns="http://www.w3.org/2000/svg"
   xmlns:xlink="http://www.w3.org/1999/xlink"
   xmlns:sodipodi="http://sodipodi.sourceforge.net/DTD/sodipodi-0.dtd"
   xmlns:inkscape="http://www.inkscape.org/namespaces/inkscape"
   viewBox="0 0 51.54 160"
   version="1.1"
   id="svg62"
   sodipodi:docname="Arrow Slide Switch.svg"
   inkscape:version="0.92.1 r15371">
  <defs
     id="defs26">
    <linearGradient
       id="ArrowSlideSwitchWhite1"
       x1="77.27"
       y1="131.5"
       x2="-25.73"
       y2="28.5"
       gradientUnits="userSpaceOnUse">
      <stop
         offset="0"
         stop-opacity="0.3"
         id="stop2" />
      <stop
         offset="0.56"
         stop-opacity="0"
         id="stop4" />
    </linearGradient>
    <linearGradient
       id="ArrowSlideSwitchWhite2"
       x1="74.81"
       y1="129.04"
       x2="-23.27"
       y2="30.96"
       gradientUnits="userSpaceOnUse">
      <stop
         offset="0"
         stop-opacity="0.2"
         id="stop7" />
      <stop
         offset="1"
         id="stop9" />
    </linearGradient>
    <linearGradient
       id="ArrowSlideSwitchWhite3"
       x1="58.58"
       y1="112.81"
       x2="-7.03"
       y2="47.19"
       gradientUnits="userSpaceOnUse"
       gradientTransform="translate(-25.77,-80)">
      <stop
         offset="0"
         stop-opacity="0.6"
         id="stop12" />
      <stop
         offset="1"
         id="stop14" />
    </linearGradient>
    <linearGradient
       id="ArrowSlideSwitchWhite4"
       x1="21.8"
       y1="79.93"
       x2="29.74"
       y2="80.07"
       gradientUnits="userSpaceOnUse"
       gradientTransform="translate(-25.77,-80)">
      <stop
         offset="0"
         stop-opacity="0.4"
         id="stop17" />
      <stop
         offset="0.43"
         stop-opacity="0.21"
         id="stop19" />
      <stop
         offset="0.5"
         stop-opacity="0"
         id="stop21" />
    </linearGradient>
    <linearGradient
       id="ArrowSlideSwitchWhite5"
       x1="32.89"
       y1="153.23"
       x2="10.61"
       y2="127.12"
       gradientTransform="matrix(0.99999998,0,0,0.85,-25.77,-120.21)"
       xlink:href="#ArrowSlideSwitchWhite1" />
    <linearGradient
       id="ArrowSlideSwitchWhite6"
       x1="33.51"
       y1="90.64"
       x2="12.18"
       y2="69.3"
       xlink:href="#ArrowSlideSwitchWhite2"
       gradientTransform="translate(-25.77,-80)" />
    <linearGradient
       inkscape:collect="always"
       xlink:href="#ArrowSlideSwitchWhite1"
       id="ArrowSlideSwitchWhite7"
       gradientUnits="userSpaceOnUse"
       x1="77.27"
       y1="131.5"
       x2="-25.73"
       y2="28.5"
       gradientTransform="translate(-25.77,-80)" />
    <linearGradient
       inkscape:collect="always"
       xlink:href="#ArrowSlideSwitchWhite2"
       id="ArrowSlideSwitchWhite8"
       gradientUnits="userSpaceOnUse"
       x1="74.81"
       y1="129.04"
       x2="-23.27"
       y2="30.96"
       gradientTransform="translate(-25.77,-80)" />
  </defs>
  <vfp:catalogue
     DESC="Slide Switch (Arrow)"
     CATEGORY="Switches"
     PREFIX="Switch" />
  <g
     id="g3806"
     vfp:class="SlideSwitch"
     transform="translate(25.77,80)">
          <g
     	id="orient">
    <rect
       y="-80"
       x="-25.77"
       id="rect30"
       style="fill:#fffef5"
       ry="4.7399998"
       rx="4.7399998"
       height="160"
       width="51.540001" />
    <rect
       y="-80"
       x="-25.77"
       id="rect32"
       style="fill:url(#ArrowSlideSwitchWhite7)"
       ry="4.7399998"
       rx="4.7399998"
       height="160"
       width="51.540001" />
    <rect
       id="rect34"
       style="fill:#fffef5"
       ry="4.9200001"
       rx="4.9200001"
       height="156.61"
       width="45.299999"
       y="-78.309998"
       x="-22.65" />
    <rect
    	 class="bounds"
       id="rect36"
       style="opacity:0.15;fill:url(#ArrowSlideSwitchWhite8)"
       ry="4.9200001"
       rx="4.9200001"
       height="156.61"
       width="45.299999"
       y="-78.309998"
       x="-22.65" />
    <rect
    	class="scale"
       id="rect38"
       style="opacity:0.6;fill:url(#ArrowSlideSwitchWhite3)"
       ry="1.66"
       rx="1.66"
       height="127.4"
       width="5.7800002"
       y="-63.700001"
       x="-2.8900013" />
    <path
       inkscape:connector-curvature="0"
       id="path40"
       style="fill:url(#ArrowSlideSwitchWhite4)"
       d="m 1.2299995,-63 a 0.99999998,1 0 0 1 1,1 V 62 a 0.99999998,1 0 0 1 -1,1 h -2.4599999 a 0.99999998,1 0 0 1 -0.95,-0.95 V -62 a 0.99999998,1 0 0 1 0.95,-0.95 h 2.4599999 m 0,-0.71 h -2.4599999 a 1.66,1.66 0 0 0 -1.66,1.66 V 62 a 1.66,1.66 0 0 0 1.66,1.66 h 2.4599999 a 1.66,1.66 0 0 0 1.66,-1.66 V -62 a 1.66,1.66 0 0 0 -1.66,-1.7 z" />
    <g
       class="graticule"
       id="LablesLayer" />
    <g
       class="knob">
      <path
         inkscape:connector-curvature="0"
         id="path42"
         style="fill:#fffef5"
         d="M -2.8600004,10.05 H -16.54 c -1,0 -3.21,-1.48 -3.21,-3.29 V -6.76 a 3.5899999,3.59 0 0 1 2.89,-3.29 h 13.9999996 c 1.57,0 22.6099994,5 22.6099994,10.05 0,5.05 -21.0399994,10.05 -22.6099994,10.05 z" />
      <path
         inkscape:connector-curvature="0"
         id="path44"
         style="fill:url(#ArrowSlideSwitchWhite5)"
         d="M -2.8600004,10.05 H -16.54 c -1,0 -3.21,-1.48 -3.21,-3.29 V -6.76 a 3.5899999,3.59 0 0 1 2.89,-3.29 h 13.9999996 c 1.57,0 22.6099994,5 22.6099994,10.05 0,5.05 -21.0399994,10.05 -22.6099994,10.05 z" />
      <path
         inkscape:connector-curvature="0"
         id="path46"
         style="fill:#fffef5"
         d="M -2.5500004,8.44 H -14.77 c -0.91,0 -2.86,-1.24 -2.86,-2.76 V -5.68 a 3.0899999,3.09 0 0 1 2.58,-2.76 h 12.4999996 c 1.4,0 20.1599994,4.22 20.1599994,8.44 0,4.22 -18.7599994,8.44 -20.1599994,8.44 z" />
      <path
         inkscape:connector-curvature="0"
         id="path48"
         style="opacity:0.15;fill:url(#ArrowSlideSwitchWhite6)"
         d="M -2.5500004,8.44 H -14.77 c -0.91,0 -2.86,-1.24 -2.86,-2.76 V -5.68 a 3.0899999,3.09 0 0 1 2.58,-2.76 h 12.4999996 c 1.4,0 20.1599994,4.22 20.1599994,8.44 0,4.22 -18.7599994,8.44 -20.1599994,8.44 z" />
      <path
         inkscape:connector-curvature="0"
         id="path50"
         style="fill:#878787"
         d="M -9.7700003,6.85 C -12.86,6.85 -15.07,6.71 -15.34,6.69 a 0.77999999,0.78 0 0 1 -0.79,-0.79 0.80999999,0.81 0 0 1 0.92,-0.67 c 0.2,0 19.7599995,1.24 25.649999,-3.78 a 0.99999998,1 0 0 1 1.21,0 0.65999999,0.66 0 0 1 0,1 C 7.2299994,6.23 -3.2400004,6.85 -9.7700003,6.85 Z" />
      <path
         inkscape:connector-curvature="0"
         id="path52"
         style="fill:#878787"
         d="m 11.029999,-1.75 a 0.92999998,0.93 0 0 1 -0.6,-0.25 C 4.5499995,-7 -15.02,-5.79 -15.22,-5.78 a 0.73999999,0.74 0 1 1 -0.13,-1.46 c 0.84,-0.06 20.5499994,-1.29 26.999999,4.2 a 0.65999999,0.66 0 0 1 0,1 0.92999998,0.93 0 0 1 -0.62,0.29 z" />
      <path
         inkscape:connector-curvature="0"
         id="path54"
         style="fill:#878787"
         d="M 1.7899995,-1.75 H -15.29 a 0.73999999,0.74 0 1 1 0,-1.46 H 1.7899995 a 0.73999999,0.74 0 1 1 0,1.46 z" />
      <path
         inkscape:connector-curvature="0"
         id="path56"
         style="fill:#878787"
         d="M 1.7899995,2.71 H -15.29 a 0.73999999,0.74 0 1 1 0,-1.46 H 1.7899995 a 0.73999999,0.74 0 1 1 0,1.46 z" />
    </g>
    <g
       style="opacity:0"
       class="readout"
       id="TextValue">
      <text
         id="text73"
         y="0"
         x="0"
         style="font-size:20px;font-family:sans-serif;text-anchor:middle">5.0</text>
    </g>
      </g>
  </g>
</svg>
