<?xml version="1.0" encoding="UTF-8" standalone="no"?>
<svg
   xmlns:dc="http://purl.org/dc/elements/1.1/"
   xmlns:cc="http://creativecommons.org/ns#"
   xmlns:rdf="http://www.w3.org/1999/02/22-rdf-syntax-ns#"
   xmlns:svg="http://www.w3.org/2000/svg"
   xmlns="http://www.w3.org/2000/svg"
   xmlns:xlink="http://www.w3.org/1999/xlink"
   xmlns:sodipodi="http://sodipodi.sourceforge.net/DTD/sodipodi-0.dtd"
   xmlns:inkscape="http://www.inkscape.org/namespaces/inkscape"
   viewBox="0 0 51.54 160"
   version="1.1"
   id="svg62"
   sodipodi:docname="Pointed Slide Switch.svg"
   inkscape:version="0.92.1 r15371">
  <defs
     id="defs26">
    <linearGradient
       id="PointedSlideSwitchWhite1"
       x1="77.27"
       y1="131.5"
       x2="-25.73"
       y2="28.5"
       gradientUnits="userSpaceOnUse">
      <stop
         offset="0"
         stop-opacity="0.3"
         id="stop2" />
      <stop
         offset="0.56"
         stop-opacity="0"
         id="stop4" />
    </linearGradient>
    <linearGradient
       id="PointedSlideSwitchWhite2"
       x1="74.81"
       y1="129.04"
       x2="-23.27"
       y2="30.96"
       gradientUnits="userSpaceOnUse">
      <stop
         offset="0"
         stop-opacity="0.2"
         id="stop7" />
      <stop
         offset="1"
         id="stop9" />
    </linearGradient>
    <linearGradient
       id="PointedSlideSwitchWhite3"
       x1="58.58"
       y1="112.81"
       x2="-7.03"
       y2="47.19"
       gradientUnits="userSpaceOnUse"
       gradientTransform="translate(-25.77,-80)">
      <stop
         offset="0"
         stop-opacity="0.6"
         id="stop12" />
      <stop
         offset="1"
         id="stop14" />
    </linearGradient>
    <linearGradient
       id="PointedSlideSwitchWhite4"
       x1="21.8"
       y1="79.93"
       x2="29.74"
       y2="80.07"
       gradientUnits="userSpaceOnUse"
       gradientTransform="translate(-25.77,-80)">
      <stop
         offset="0"
         stop-opacity="0.4"
         id="stop17" />
      <stop
         offset="0.43"
         stop-opacity="0.21"
         id="stop19" />
      <stop
         offset="0.5"
         stop-opacity="0"
         id="stop21" />
    </linearGradient>
    <linearGradient
       id="PointedSlideSwitchWhite5"
       x1="83.69"
       y1="116.44"
       x2="60.04"
       y2="92.79"
       gradientTransform="matrix(0.94999998,0,0,0.95,-70.859999,-99.76)"
       xlink:href="#PointedSlideSwitchWhite1" />
    <linearGradient
       id="PointedSlideSwitchWhite6"
       x1="31.45"
       y1="89.3"
       x2="12.85"
       y2="70.7"
       xlink:href="#PointedSlideSwitchWhite2"
       gradientTransform="translate(-25.77,-80)" />
    <linearGradient
       inkscape:collect="always"
       xlink:href="#PointedSlideSwitchWhite1"
       id="PointedSlideSwitchWhite7"
       gradientUnits="userSpaceOnUse"
       x1="77.27"
       y1="131.5"
       x2="-25.73"
       y2="28.5"
       gradientTransform="translate(-25.77,-80)" />
    <linearGradient
       inkscape:collect="always"
       xlink:href="#PointedSlideSwitchWhite2"
       id="PointedSlideSwitchWhite8"
       gradientUnits="userSpaceOnUse"
       x1="74.81"
       y1="129.04"
       x2="-23.27"
       y2="30.96"
       gradientTransform="translate(-25.77,-80)" />
  </defs>
  <vfp:catalogue
     DESC="Slide Switch (Pointed)"
     CATEGORY="Switches"
     PREFIX="Switch" />
  <g
     id="g3806"
     vfp:class="SlideSwitch"
     transform="translate(25.77,80)">
          <g
     	id="orient">
    <rect
       y="-80"
       x="-25.77"
       id="rect30"
       style="fill:#fffef5"
       ry="4.7399998"
       rx="4.7399998"
       height="160"
       width="51.540001" />
    <rect
       y="-80"
       x="-25.77"
       id="rect32"
       style="fill:url(#PointedSlideSwitchWhite7)"
       ry="4.7399998"
       rx="4.7399998"
       height="160"
       width="51.540001" />
    <rect
       id="rect34"
       style="fill:#fffef5"
       ry="4.9200001"
       rx="4.9200001"
       height="156.61"
       width="45.299999"
       y="-78.309998"
       x="-22.65" />
    <rect
    	 class="bounds"
       id="rect36"
       style="opacity:0.15;fill:url(#PointedSlideSwitchWhite8)"
       ry="4.9200001"
       rx="4.9200001"
       height="156.61"
       width="45.299999"
       y="-78.309998"
       x="-22.65" />
    <rect
    	class="scale"
       id="rect38"
       style="opacity:0.6;fill:url(#PointedSlideSwitchWhite3)"
       ry="1.66"
       rx="1.66"
       height="127.4"
       width="5.7800002"
       y="-63.700001"
       x="-2.8900013" />
    <path
       inkscape:connector-curvature="0"
       id="path40"
       style="fill:url(#PointedSlideSwitchWhite4)"
       d="m 1.2299995,-63 a 0.99999998,1 0 0 1 1,1 V 62 a 0.99999998,1 0 0 1 -1,1 h -2.4599999 a 0.99999998,1 0 0 1 -0.95,-0.95 V -62 a 0.99999998,1 0 0 1 0.95,-0.95 h 2.4599999 m 0,-0.71 h -2.4599999 a 1.66,1.66 0 0 0 -1.66,1.66 V 62 a 1.66,1.66 0 0 0 1.66,1.66 h 2.4599999 a 1.66,1.66 0 0 0 1.66,-1.66 V -62 a 1.66,1.66 0 0 0 -1.66,-1.7 z" />
    <g
       class="graticule"
       id="LablesLayer" />
    <g
       class="knob">
      <path
         inkscape:connector-curvature="0"
         id="path42"
         style="fill:#fffef5"
         d="m 20.229999,0 c 0,0 -20.99999944,11.78 -27.9399993,11.78 C -14.65,11.78 -20.22,6.51 -20.22,0 c 0,-6.51 5.6,-11.78 12.4999997,-11.78 C -0.82000044,-11.78 20.229999,0 20.229999,0 Z" />
      <path
         inkscape:connector-curvature="0"
         id="path44"
         style="fill:url(#PointedSlideSwitchWhite5)"
         d="m 20.229999,0 c 0,0 -20.99999944,11.78 -27.9399993,11.78 C -14.65,11.78 -20.22,6.51 -20.22,0 c 0,-6.51 5.6,-11.78 12.4999997,-11.78 C -0.82000044,-11.78 20.229999,0 20.229999,0 Z" />
      <path
         inkscape:connector-curvature="0"
         id="path46"
         style="fill:#fffef5"
         d="m 14.979999,0 c 0,0 -17.3399994,9.71 -22.9999993,9.71 C -13.68,9.71 -18.37,5.36 -18.37,0 c 0,-5.36 4.6,-9.71 10.3099997,-9.71 C -2.3500004,-9.71 14.979999,0 14.979999,0 Z" />
      <path
         inkscape:connector-curvature="0"
         id="path48"
         style="opacity:0.15;fill:url(#PointedSlideSwitchWhite6)"
         d="m 14.979999,0 c 0,0 -17.3399994,9.71 -22.9999993,9.71 C -13.68,9.71 -18.37,5.36 -18.37,0 c 0,-5.36 4.6,-9.71 10.3099997,-9.71 C -2.3500004,-9.71 14.979999,0 14.979999,0 Z" />
      <path
         inkscape:connector-curvature="0"
         id="path50"
         style="fill:#878787"
         d="m -13.53,-4.89 a 0.75999999,0.76 0 0 1 -0.55,-1.28 8.3399999,8.34 0 0 1 11.7799996,-0.28 0.75999999,0.76 0 0 1 -1,1.1 6.8299999,6.83 0 0 0 -9.6399996,0.23 0.74999999,0.75 0 0 1 -0.59,0.23 z" />
      <path
         inkscape:connector-curvature="0"
         id="path52"
         style="fill:#878787"
         d="m -12.41,-2.51 a 0.75999999,0.76 0 0 1 -0.55,-1.28 6.7499999,6.75 0 0 1 9.5299996,-0.21 0.75999999,0.76 0 1 1 -1,1.1 5.2399999,5.24 0 0 0 -7.3899996,0.17 0.74999999,0.75 0 0 1 -0.59,0.22 z" />
      <path
         inkscape:connector-curvature="0"
         id="path54"
         style="fill:#878787"
         d="M -8.0600003,8.75 A 8.3099999,8.31 0 0 1 -14.06,6.17 a 0.75999999,0.76 0 0 1 1.1,-1 6.8299999,6.83 0 0 0 9.6399996,0.23 0.75999999,0.76 0 0 1 1,1.1 8.3099999,8.31 0 0 1 -5.7399999,2.25 z" />
      <path
         inkscape:connector-curvature="0"
         id="path56"
         style="fill:#878787"
         d="m -8.0900003,5.89 h -0.16 A 6.6899999,6.69 0 0 1 -12.97,3.8 a 0.75999999,0.76 0 1 1 1.1,-1 5.1899999,5.19 0 0 0 3.6599997,1.62 4.9999999,5 0 0 0 3.7299999,-1.44 0.75999999,0.76 0 1 1 1,1.1 6.6999999,6.7 0 0 1 -4.6099999,1.81 z" />
    </g>
    <g
       style="opacity:0"
       class="readout"
       id="TextValue">
      <text
         id="text73"
         y="0"
         x="0"
         style="font-size:20px;font-family:sans-serif;text-anchor:middle">5.0</text>
    </g>
      </g>
  </g>
</svg>
