<?xml version="1.0" encoding="UTF-8" standalone="no"?>
<svg
   xmlns:dc="http://purl.org/dc/elements/1.1/"
   xmlns:cc="http://creativecommons.org/ns#"
   xmlns:rdf="http://www.w3.org/1999/02/22-rdf-syntax-ns#"
   xmlns:svg="http://www.w3.org/2000/svg"
   xmlns="http://www.w3.org/2000/svg"
   xmlns:xlink="http://www.w3.org/1999/xlink"
   xmlns:sodipodi="http://sodipodi.sourceforge.net/DTD/sodipodi-0.dtd"
   xmlns:inkscape="http://www.inkscape.org/namespaces/inkscape"
   viewBox="0 0 51.54 160"
   version="1.1"
   id="svg62"
   sodipodi:docname="Round Slide Switch.svg"
   inkscape:version="0.92.1 r15371">
  <defs
     id="defs26">
    <linearGradient
       id="RoundSlideSwitchWhite1"
       x1="77.27"
       y1="131.5"
       x2="-25.73"
       y2="28.5"
       gradientUnits="userSpaceOnUse">
      <stop
         offset="0"
         stop-opacity="0.3"
         id="stop2" />
      <stop
         offset="0.56"
         stop-opacity="0"
         id="stop4" />
    </linearGradient>
    <linearGradient
       id="RoundSlideSwitchWhite2"
       x1="74.81"
       y1="129.04"
       x2="-23.27"
       y2="30.96"
       gradientUnits="userSpaceOnUse">
      <stop
         offset="0"
         stop-opacity="0.2"
         id="stop7" />
      <stop
         offset="1"
         id="stop9" />
    </linearGradient>
    <linearGradient
       id="RoundSlideSwitchWhite3"
       x1="58.58"
       y1="112.81"
       x2="-7.03"
       y2="47.19"
       gradientUnits="userSpaceOnUse"
       gradientTransform="translate(-25.77,-80)">
      <stop
         offset="0"
         stop-opacity="0.6"
         id="stop12" />
      <stop
         offset="1"
         id="stop14" />
    </linearGradient>
    <linearGradient
       id="RoundSlideSwitchWhite4"
       x1="21.8"
       y1="79.93"
       x2="29.74"
       y2="80.07"
       gradientUnits="userSpaceOnUse"
       gradientTransform="translate(-25.77,-80)">
      <stop
         offset="0"
         stop-opacity="0.4"
         id="stop17" />
      <stop
         offset="0.43"
         stop-opacity="0.21"
         id="stop19" />
      <stop
         offset="0.5"
         stop-opacity="0"
         id="stop21" />
    </linearGradient>
    <linearGradient
       id="RoundSlideSwitchWhite5"
       x1="36.38"
       y1="90.61"
       x2="15.17"
       y2="69.39"
       xlink:href="#RoundSlideSwitchWhite1"
       gradientTransform="translate(-25.77,-80)" />
    <linearGradient
       id="RoundSlideSwitchWhite6"
       x1="-1707.07"
       y1="211.19"
       x2="-1688.72"
       y2="192.84"
       gradientTransform="rotate(-90,-949.95,-747.94)"
       xlink:href="#RoundSlideSwitchWhite2" />
    <linearGradient
       inkscape:collect="always"
       xlink:href="#RoundSlideSwitchWhite1"
       id="RoundSlideSwitchWhite7"
       gradientUnits="userSpaceOnUse"
       x1="77.27"
       y1="131.5"
       x2="-25.73"
       y2="28.5"
       gradientTransform="translate(-25.77,-80)" />
    <linearGradient
       inkscape:collect="always"
       xlink:href="#RoundSlideSwitchWhite2"
       id="RoundSlideSwitchWhite8"
       gradientUnits="userSpaceOnUse"
       x1="74.81"
       y1="129.04"
       x2="-23.27"
       y2="30.96"
       gradientTransform="translate(-25.77,-80)" />
  </defs>
  <vfp:catalogue
     DESC="Slide Switch (Round)"
     CATEGORY="Switches"
     PREFIX="Switch" />
  <g
     id="g3806"
     vfp:class="SlideSwitch"
     transform="translate(25.77,80)">
          <g
     	id="orient">
    <rect
       y="-80"
       x="-25.77"
       id="rect30"
       style="fill:#fffef5"
       ry="4.7399998"
       rx="4.7399998"
       height="160"
       width="51.540001" />
    <rect
       y="-80"
       x="-25.77"
       id="rect32"
       style="fill:url(#RoundSlideSwitchWhite7)"
       ry="4.7399998"
       rx="4.7399998"
       height="160"
       width="51.540001" />
    <rect
       id="rect34"
       style="fill:#fffef5"
       ry="4.9200001"
       rx="4.9200001"
       height="156.61"
       width="45.299999"
       y="-78.309998"
       x="-22.65" />
    <rect
    	 class="bounds"
       id="rect36"
       style="opacity:0.15;fill:url(#RoundSlideSwitchWhite8)"
       ry="4.9200001"
       rx="4.9200001"
       height="156.61"
       width="45.299999"
       y="-78.309998"
       x="-22.65" />
    <rect
    	class="scale"
       id="rect38"
       style="opacity:0.6;fill:url(#RoundSlideSwitchWhite3)"
       ry="1.66"
       rx="1.66"
       height="127.4"
       width="5.7800002"
       y="-63.700001"
       x="-2.8900008" />
    <path
       inkscape:connector-curvature="0"
       id="path40"
       style="fill:url(#RoundSlideSwitchWhite4)"
       d="m 1.23,-63 a 1,1 0 0 1 1,1 V 62 a 1,1 0 0 1 -1,1 H -1.23 A 1,1 0 0 1 -2.18,62.05 V -62 a 1,1 0 0 1 0.95,-0.95 h 2.46 m 0,-0.71 H -1.23 A 1.66,1.66 0 0 0 -2.89,-62 V 62 a 1.66,1.66 0 0 0 1.66,1.66 H 1.23 A 1.66,1.66 0 0 0 2.89,62 V -62 a 1.66,1.66 0 0 0 -1.66,-1.7 z" />
    <g
       class="graticule"
       id="LablesLayer" />
    <g
       class="knob">
      <circle
         id="circle42"
         style="fill:#fffef5"
         r="15"
         cy="0"
         cx="4.5776366e-007" />
      <circle
         id="circle44"
         style="fill:url(#RoundSlideSwitchWhite5)"
         r="15"
         cy="0"
         cx="4.5776366e-007" />
      <circle
         id="circle46"
         style="fill:#fffef5"
         r="12.97"
         cy="0"
         cx="4.5776366e-007" />
      <circle
         id="circle48"
         style="opacity:0.15;fill:url(#RoundSlideSwitchWhite6)"
         r="12.97"
         cy="0"
         cx="4.5776366e-007" />
      <path
         inkscape:connector-curvature="0"
         id="path50"
         style="fill:#878787"
         d="m 0,9.29 a 10.19,10.19 0 0 1 -7.23,-3 0.71,0.71 0 1 1 1,-1 8.82,8.82 0 0 0 12.46,0.01 0.71,0.71 0 0 1 1,1 A 10.19,10.19 0 0 1 0,9.29 Z" />
      <path
         inkscape:connector-curvature="0"
         id="path52"
         style="fill:#878787"
         d="m 6.73,-5.09 a 0.71,0.71 0 0 1 -0.5,-0.21 8.82,8.82 0 0 0 -12.45,0 0.71,0.71 0 0 1 -1,-1 10.24,10.24 0 0 1 14.45,0 0.71,0.71 0 0 1 -0.5,1.22 z" />
      <path
         inkscape:connector-curvature="0"
         id="path54"
         style="fill:#878787"
         d="m 0,6 a 7.64,7.64 0 0 1 -5.42,-2.24 0.71,0.71 0 0 1 1,-1 6.24,6.24 0 0 0 8.82,0 0.71,0.71 0 0 1 1,1 A 7.64,7.64 0 0 1 0,6 Z" />
      <path
         inkscape:connector-curvature="0"
         id="path56"
         style="fill:#878787"
         d="m 4.91,-2.5 a 0.71,0.71 0 0 1 -0.5,-0.21 6.24,6.24 0 0 0 -8.82,0 0.71,0.71 0 0 1 -1,-1 7.67,7.67 0 0 1 10.83,0 0.71,0.71 0 0 1 -0.5,1.22 z" />
    </g>
    <g
       style="opacity:0"
       class="readout"
       id="TextValue">
      <text
         id="text73"
         y="0"
         x="0"
         style="font-size:20px;font-family:sans-serif;text-anchor:middle">5.0</text>
    </g>
      </g>
  </g>
</svg>
