<?xml version="1.0" encoding="UTF-8" standalone="no"?>
<svg
   xmlns:dc="http://purl.org/dc/elements/1.1/"
   xmlns:cc="http://creativecommons.org/ns#"
   xmlns:rdf="http://www.w3.org/1999/02/22-rdf-syntax-ns#"
   xmlns:svg="http://www.w3.org/2000/svg"
   xmlns="http://www.w3.org/2000/svg"
   xmlns:xlink="http://www.w3.org/1999/xlink"
   xmlns:sodipodi="http://sodipodi.sourceforge.net/DTD/sodipodi-0.dtd"
   xmlns:inkscape="http://www.inkscape.org/namespaces/inkscape"
   viewBox="0 0 51.54 160"
   version="1.1"
   id="svg62"
   sodipodi:docname="Square Slide Switch.svg"
   inkscape:version="0.92.1 r15371">
  <defs
     id="defs26">
    <linearGradient
       id="SquareSlideSwitchWhite1"
       x1="77.27"
       y1="131.5"
       x2="-25.73"
       y2="28.5"
       gradientUnits="userSpaceOnUse">
      <stop
         offset="0"
         stop-opacity="0.3"
         id="stop2" />
      <stop
         offset="0.56"
         stop-opacity="0"
         id="stop4" />
    </linearGradient>
    <linearGradient
       id="SquareSlideSwitchWhite2"
       x1="74.81"
       y1="129.04"
       x2="-23.27"
       y2="30.96"
       gradientUnits="userSpaceOnUse">
      <stop
         offset="0"
         stop-opacity="0.2"
         id="stop7" />
      <stop
         offset="1"
         id="stop9" />
    </linearGradient>
    <linearGradient
       id="SquareSlideSwitchWhite3"
       x1="58.58"
       y1="112.81"
       x2="-7.03"
       y2="47.19"
       gradientUnits="userSpaceOnUse"
       gradientTransform="translate(-25.77,-80)">
      <stop
         offset="0"
         stop-opacity="0.6"
         id="stop12" />
      <stop
         offset="1"
         id="stop14" />
    </linearGradient>
    <linearGradient
       id="SquareSlideSwitchWhite4"
       x1="21.8"
       y1="79.93"
       x2="29.74"
       y2="80.07"
       gradientUnits="userSpaceOnUse"
       gradientTransform="translate(-25.77,-80)">
      <stop
         offset="0"
         stop-opacity="0.4"
         id="stop17" />
      <stop
         offset="0.43"
         stop-opacity="0.21"
         id="stop19" />
      <stop
         offset="0.5"
         stop-opacity="0"
         id="stop21" />
    </linearGradient>
    <linearGradient
       id="SquareSlideSwitchWhite5"
       x1="-1662.14"
       y1="-1043.01"
       x2="-1629.19"
       y2="-1010.05"
       gradientTransform="translate(1645.67,1026.53)"
       xlink:href="#SquareSlideSwitchWhite1" />
    <linearGradient
       id="SquareSlideSwitchWhite6"
       x1="40.57"
       y1="94.79"
       x2="10.98"
       y2="65.21"
       gradientTransform="rotate(180,12.885,40)"
       xlink:href="#SquareSlideSwitchWhite2" />
    <linearGradient
       inkscape:collect="always"
       xlink:href="#SquareSlideSwitchWhite1"
       id="SquareSlideSwitchWhite7"
       gradientUnits="userSpaceOnUse"
       x1="77.27"
       y1="131.5"
       x2="-25.73"
       y2="28.5"
       gradientTransform="translate(-25.77,-80)" />
    <linearGradient
       inkscape:collect="always"
       xlink:href="#SquareSlideSwitchWhite2"
       id="SquareSlideSwitchWhite8"
       gradientUnits="userSpaceOnUse"
       x1="74.81"
       y1="129.04"
       x2="-23.27"
       y2="30.96"
       gradientTransform="translate(-25.77,-80)" />
  </defs>
  <vfp:catalogue
     DESC="Slide Switch (Square)"
     CATEGORY="Switches"
     PREFIX="Switch" />
  <g
     id="g3806"
     vfp:class="SlideSwitch"
     transform="translate(25.77,80)">
          <g
     	id="orient">
    <rect
       y="-80"
       x="-25.77"
       id="rect30"
       style="fill:#fffef5"
       ry="4.7399998"
       rx="4.7399998"
       height="160"
       width="51.540001" />
    <rect
       y="-80"
       x="-25.77"
       id="rect32"
       style="fill:url(#SquareSlideSwitchWhite7)"
       ry="4.7399998"
       rx="4.7399998"
       height="160"
       width="51.540001" />
    <rect
       id="rect34"
       style="fill:#fffef5"
       ry="4.9200001"
       rx="4.9200001"
       height="156.61"
       width="45.299999"
       y="-78.309998"
       x="-22.65" />
    <rect
    	 class="bounds"
       id="rect36"
       style="opacity:0.15;fill:url(#SquareSlideSwitchWhite8)"
       ry="4.9200001"
       rx="4.9200001"
       height="156.61"
       width="45.299999"
       y="-78.309998"
       x="-22.65" />
    <rect
    	 class="scale"
       id="rect38"
       style="opacity:0.6;fill:url(#SquareSlideSwitchWhite3)"
       ry="1.66"
       rx="1.66"
       height="127.4"
       width="5.7800002"
       y="-63.699997"
       x="-2.8900013" />
    <path
       inkscape:connector-curvature="0"
       id="path40"
       style="fill:url(#SquareSlideSwitchWhite4)"
       d="m 1.2299995,-63 a 0.99999998,1 0 0 1 1,1 V 62 a 0.99999998,1 0 0 1 -1,1 h -2.4599999 a 0.99999998,1 0 0 1 -0.95,-0.95 V -62 a 0.99999998,1 0 0 1 0.95,-0.95 h 2.4599999 m 0,-0.71 h -2.4599999 a 1.66,1.66 0 0 0 -1.66,1.66 V 62 a 1.66,1.66 0 0 0 1.66,1.66 h 2.4599999 a 1.66,1.66 0 0 0 1.66,-1.66 V -62 a 1.66,1.66 0 0 0 -1.66,-1.7 z" />
    <g
       class="graticule"
       id="LablesLayer" />
    <g
       class="knob">
      <rect
         id="rect42"
         style="fill:#fffef5"
         transform="scale(-1)"
         ry="2.8099999"
         rx="2.8099999"
         height="23.209999"
         width="46"
         y="-11.610001"
         x="-23" />
      <rect
         id="rect44"
         style="fill:url(#SquareSlideSwitchWhite5)"
         transform="scale(-1)"
         ry="2.8099999"
         rx="2.8099999"
         height="23.209999"
         width="46"
         y="-11.610001"
         x="-23" />
      <rect
         id="rect46"
         style="fill:#fffef5"
         transform="scale(-1)"
         ry="2.8099999"
         rx="2.8099999"
         height="20.26"
         width="42.220001"
         y="-10.129997"
         x="-21.110001" />
      <rect
         id="rect48"
         style="opacity:0.15;fill:url(#SquareSlideSwitchWhite6)"
         transform="scale(-1)"
         ry="2.8099999"
         rx="2.8099999"
         height="20.26"
         width="42.220001"
         y="-10.129997"
         x="-21.110001" />
      <path
         inkscape:connector-curvature="0"
         id="path50"
         style="fill:#878787"
         d="m -12.08,1.57 h 24.169999 a 0.75999999,0.76 0 1 1 0,1.52 H -12.08 a 0.75999999,0.76 0 1 1 0,-1.52 z" />
      <path
         inkscape:connector-curvature="0"
         id="path52"
         style="fill:#878787"
         d="m -12.08,-3.09 h 24.169999 a 0.75999999,0.76 0 1 1 0,1.52 H -12.08 a 0.75999999,0.76 0 1 1 0,-1.52 z" />
      <path
         inkscape:connector-curvature="0"
         id="path54"
         style="fill:#878787"
         d="m -10.48,8.2 h 20.999999 a 6.9999999,7 0 0 0 7.23,-5.89 0.79999999,0.8 0 0 0 -0.78,-0.74 0.75999999,0.76 0 0 0 -0.74,0.78 c 0,0.38 -0.91,4.22 -5.72,4.34 H -10.47 c -4.81,-0.12 -5.73,-4 -5.72,-4.34 a 0.75999999,0.76 0 0 0 -0.74,-0.78 0.79999999,0.8 0 0 0 -0.78,0.74 6.9999999,7 0 0 0 7.23,5.89 z" />
      <path
         inkscape:connector-curvature="0"
         id="path56"
         style="fill:#878787"
         d="m -10.48,-8.2 h 20.999999 a 6.9999999,7 0 0 1 7.23,5.89 0.79999999,0.8 0 0 1 -0.78,0.74 0.75999999,0.76 0 0 1 -0.74,-0.78 c 0,-0.38 -0.91,-4.22 -5.72,-4.34 H -10.47 c -4.81,0.12 -5.73,4 -5.72,4.34 a 0.75999999,0.76 0 0 1 -0.74,0.78 0.79999999,0.8 0 0 1 -0.78,-0.74 6.9999999,7 0 0 1 7.23,-5.89 z" />
    </g>
    <g
       style="opacity:0"
       class="readout"
       id="TextValue">
      <text
         id="text73"
         y="0"
         x="0"
         style="font-size:20px;font-family:sans-serif;text-anchor:middle">5.0</text>
    </g>
      </g>
  </g>
</svg>
